<svg xmlns="http://www.w3.org/2000/svg" viewBox="0 0 1024 1024"><path fill="currentColor" fill-opacity=".15" d="M136 792h752V440H136zm507-144c0-4.4 3.6-8 8-8h165c4.4 0 8 3.6 8 8v72c0 4.4-3.6 8-8 8H651c-4.4 0-8-3.6-8-8zM136 232h752v120H136z"/><path fill="currentColor" d="M651 728h165c4.4 0 8-3.6 8-8v-72c0-4.4-3.6-8-8-8H651c-4.4 0-8 3.6-8 8v72c0 4.4 3.6 8 8 8"/><path fill="currentColor" d="M928 160H96c-17.7 0-32 14.3-32 32v640c0 17.7 14.3 32 32 32h832c17.7 0 32-14.3 32-32V192c0-17.7-14.3-32-32-32m-40 632H136V440h752zm0-440H136V232h752z"/></svg>