<svg xmlns="http://www.w3.org/2000/svg" xmlns:xlink="http://www.w3.org/1999/xlink" viewBox="0 0 1024 1024"><path d="M232 616h560V408H232zm112-144c22.1 0 40 17.9 40 40s-17.9 40-40 40-40-17.9-40-40 17.9-40 40-40M232 888h560V680H232zm112-144c22.1 0 40 17.9 40 40s-17.9 40-40 40-40-17.9-40-40 17.9-40 40-40M232 344h560V136H232zm112-144c22.1 0 40 17.9 40 40s-17.9 40-40 40-40-17.9-40-40 17.9-40 40-40" fill-opacity=".15" fill="currentColor"/><path d="M304 512a40 40 0 1 0 80 0 40 40 0 1 0-80 0m0 272a40 40 0 1 0 80 0 40 40 0 1 0-80 0m0-544a40 40 0 1 0 80 0 40 40 0 1 0-80 0" fill="currentColor"/><path d="M832 64H192c-17.7 0-32 14.3-32 32v832c0 17.7 14.3 32 32 32h640c17.7 0 32-14.3 32-32V96c0-17.7-14.3-32-32-32m-40 824H232V680h560zm0-272H232V408h560zm0-272H232V136h560z" fill="currentColor"/></svg>