<svg xmlns="http://www.w3.org/2000/svg" xmlns:xlink="http://www.w3.org/1999/xlink" viewBox="0 0 1024 1024"><path d="M534 352V136H232v752h560V394H576a42 42 0 0 1-42-42m-22 322c0 4.4-3.6 8-8 8H320c-4.4 0-8-3.6-8-8v-48c0-4.4 3.6-8 8-8h184c4.4 0 8 3.6 8 8zm200-184v48c0 4.4-3.6 8-8 8H320c-4.4 0-8-3.6-8-8v-48c0-4.4 3.6-8 8-8h384c4.4 0 8 3.6 8 8" fill-opacity=".15" fill="currentColor"/><path d="M854.6 288.6 639.4 73.4c-6-6-14.1-9.4-22.6-9.4H192c-17.7 0-32 14.3-32 32v832c0 17.7 14.3 32 32 32h640c17.7 0 32-14.3 32-32V311.3c0-8.5-3.4-16.7-9.4-22.7M602 137.8 790.2 326H602zM792 888H232V136h302v216a42 42 0 0 0 42 42h216z" fill="currentColor"/><path d="M312 490v48c0 4.4 3.6 8 8 8h384c4.4 0 8-3.6 8-8v-48c0-4.4-3.6-8-8-8H320c-4.4 0-8 3.6-8 8m192 128H320c-4.4 0-8 3.6-8 8v48c0 4.4 3.6 8 8 8h184c4.4 0 8-3.6 8-8v-48c0-4.4-3.6-8-8-8" fill="currentColor"/></svg>