<svg xmlns="http://www.w3.org/2000/svg" xmlns:xlink="http://www.w3.org/1999/xlink" viewBox="0 0 1024 1024"><path d="M880 112H144c-17.7 0-32 14.3-32 32v736c0 17.7 14.3 32 32 32h736c17.7 0 32-14.3 32-32V144c0-17.7-14.3-32-32-32m-40 728H184V184h656z" fill-opacity=".8" fill="currentColor"/><path d="M184 840h656V184H184zm136-352c0-4.4 3.6-8 8-8h368c4.4 0 8 3.6 8 8v48c0 4.4-3.6 8-8 8H328c-4.4 0-8-3.6-8-8z" fill-opacity=".1" fill="currentColor"/><path d="M328 544h368c4.4 0 8-3.6 8-8v-48c0-4.4-3.6-8-8-8H328c-4.4 0-8 3.6-8 8v48c0 4.4 3.6 8 8 8" fill-opacity=".8" fill="currentColor"/></svg>