<svg xmlns="http://www.w3.org/2000/svg" xmlns:xlink="http://www.w3.org/1999/xlink" viewBox="0 0 1024 1024"><path d="M928 160H96c-17.7 0-32 14.3-32 32v640c0 17.7 14.3 32 32 32h832c17.7 0 32-14.3 32-32V192c0-17.7-14.3-32-32-32m-40 632H136v-39.9l138.5-164.3 150.1 178L658.1 489 888 761.6zm0-129.8L664.2 396.8c-3.2-3.8-9-3.8-12.2 0L424.6 666.4l-144-170.7c-3.2-3.8-9-3.8-12.2 0L136 652.7V232h752z" fill-opacity=".8" fill="currentColor"/><path d="m424.6 765.8-150.1-178L136 752.1V792h752v-30.4L658.1 489z" fill-opacity=".1" fill="currentColor"/><path d="m136 652.7 132.4-157c3.2-3.8 9-3.8 12.2 0l144 170.7L652 396.8c3.2-3.8 9-3.8 12.2 0L888 662.2V232H136zM304 280a88 88 0 1 1 0 176 88 88 0 0 1 0-176" fill-opacity=".1" fill="currentColor"/><path d="M276 368a28 28 0 1 0 56 0 28 28 0 1 0-56 0" fill-opacity=".1" fill="currentColor"/><path d="M304 456a88 88 0 1 0 0-176 88 88 0 0 0 0 176m0-116c15.5 0 28 12.5 28 28s-12.5 28-28 28-28-12.5-28-28 12.5-28 28-28" fill-opacity=".8" fill="currentColor"/></svg>