<svg xmlns="http://www.w3.org/2000/svg" xmlns:xlink="http://www.w3.org/1999/xlink" viewBox="0 0 1024 1024"><path d="M880 112H144c-17.7 0-32 14.3-32 32v736c0 17.7 14.3 32 32 32h736c17.7 0 32-14.3 32-32V144c0-17.7-14.3-32-32-32m-40 728H184V184h656z" fill-opacity=".8" fill="currentColor"/><path d="M184 840h656V184H184zm300-496c0-4.4 3.6-8 8-8h184c4.4 0 8 3.6 8 8v48c0 4.4-3.6 8-8 8H492c-4.4 0-8-3.6-8-8zm0 144c0-4.4 3.6-8 8-8h184c4.4 0 8 3.6 8 8v48c0 4.4-3.6 8-8 8H492c-4.4 0-8-3.6-8-8zm0 144c0-4.4 3.6-8 8-8h184c4.4 0 8 3.6 8 8v48c0 4.4-3.6 8-8 8H492c-4.4 0-8-3.6-8-8zM380 328c22.1 0 40 17.9 40 40s-17.9 40-40 40-40-17.9-40-40 17.9-40 40-40m0 144c22.1 0 40 17.9 40 40s-17.9 40-40 40-40-17.9-40-40 17.9-40 40-40m0 144c22.1 0 40 17.9 40 40s-17.9 40-40 40-40-17.9-40-40 17.9-40 40-40" fill-opacity=".1" fill="currentColor"/><path d="M340 656a40 40 0 1 0 80 0 40 40 0 1 0-80 0m0-144a40 40 0 1 0 80 0 40 40 0 1 0-80 0m0-144a40 40 0 1 0 80 0 40 40 0 1 0-80 0m152 320h184c4.4 0 8-3.6 8-8v-48c0-4.4-3.6-8-8-8H492c-4.4 0-8 3.6-8 8v48c0 4.4 3.6 8 8 8m0-144h184c4.4 0 8-3.6 8-8v-48c0-4.4-3.6-8-8-8H492c-4.4 0-8 3.6-8 8v48c0 4.4 3.6 8 8 8m0-144h184c4.4 0 8-3.6 8-8v-48c0-4.4-3.6-8-8-8H492c-4.4 0-8 3.6-8 8v48c0 4.4 3.6 8 8 8" fill-opacity=".8" fill="currentColor"/></svg>