<svg xmlns="http://www.w3.org/2000/svg" viewBox="0 0 1024 1024"><path fill="currentColor" fill-opacity=".8" d="M880 112H144c-17.7 0-32 14.3-32 32v736c0 17.7 14.3 32 32 32h736c17.7 0 32-14.3 32-32V144c0-17.7-14.3-32-32-32m-40 728H184V184h656z"/><path fill="currentColor" fill-opacity=".1" d="M184 840h656V184H184zm472-560c0-4.4 3.6-8 8-8h80c4.4 0 8 3.6 8 8v256c0 4.4-3.6 8-8 8h-80c-4.4 0-8-3.6-8-8zm-192 0c0-4.4 3.6-8 8-8h80c4.4 0 8 3.6 8 8v184c0 4.4-3.6 8-8 8h-80c-4.4 0-8-3.6-8-8zm-192 0c0-4.4 3.6-8 8-8h80c4.4 0 8 3.6 8 8v464c0 4.4-3.6 8-8 8h-80c-4.4 0-8-3.6-8-8z"/><path fill="currentColor" fill-opacity=".8" d="M280 752h80c4.4 0 8-3.6 8-8V280c0-4.4-3.6-8-8-8h-80c-4.4 0-8 3.6-8 8v464c0 4.4 3.6 8 8 8m192-280h80c4.4 0 8-3.6 8-8V280c0-4.4-3.6-8-8-8h-80c-4.4 0-8 3.6-8 8v184c0 4.4 3.6 8 8 8m192 72h80c4.4 0 8-3.6 8-8V280c0-4.4-3.6-8-8-8h-80c-4.4 0-8 3.6-8 8v256c0 4.4 3.6 8 8 8"/></svg>