<svg xmlns="http://www.w3.org/2000/svg" xmlns:xlink="http://www.w3.org/1999/xlink" viewBox="0 0 1024 1024"><path d="M800 64H224c-35.3 0-64 28.7-64 64v768c0 35.3 28.7 64 64 64h576c35.3 0 64-28.7 64-64V128c0-35.3-28.7-64-64-64m-8 824H232V136h560z" fill-opacity=".8" fill="currentColor"/><path d="M232 888h560V136H232zm280-144c22.1 0 40 17.9 40 40s-17.9 40-40 40-40-17.9-40-40 17.9-40 40-40" fill-opacity=".1" fill="currentColor"/><path d="M472 784a40 40 0 1 0 80 0 40 40 0 1 0-80 0" fill-opacity=".8" fill="currentColor"/></svg>