<svg xmlns="http://www.w3.org/2000/svg" viewBox="0 0 20 20"><path fill="currentColor" d="M6.988 8.608a.5.5 0 0 1-.977-.211v-.005a2 2 0 0 1 .07-.228c.05-.123.128-.29.252-.46A1.7 1.7 0 0 1 7.753 7c.553 0 1.002.215 1.309.561.298.337.438.772.438 1.189 0 .349-.069.648-.205.906a1.8 1.8 0 0 1-.507.585 5 5 0 0 1-.48.313l-.056.034c-.168.1-.306.187-.425.29-.394.341-.652.702-.764 1.122H9a.5.5 0 0 1 0 1H6.5a.5.5 0 0 1-.5-.5c0-1.01.475-1.774 1.173-2.378.19-.166.396-.29.567-.393l.058-.035a4 4 0 0 0 .379-.244.8.8 0 0 0 .233-.26.9.9 0 0 0 .09-.44.8.8 0 0 0-.187-.526C8.203 8.1 8.03 8 7.753 8c-.33 0-.505.146-.614.295a1 1 0 0 0-.147.3zM11 7a.5.5 0 0 1 .5.5V10H13V7.5a.5.5 0 0 1 1 0v5a.5.5 0 0 1-1 0V11h-2a.5.5 0 0 1-.5-.5v-3A.5.5 0 0 1 11 7m-1-5a8 8 0 1 0 0 16 8 8 0 0 0 0-16m-7 8a7 7 0 1 1 14 0 7 7 0 0 1-14 0"/></svg>