<svg xmlns="http://www.w3.org/2000/svg" xmlns:xlink="http://www.w3.org/1999/xlink" viewBox="0 0 24 24"><path d="M12 6.5A2.25 2.25 0 1 0 12 2a2.25 2.25 0 0 0 0 4.5M6.15 4.178a2.266 2.266 0 0 0-2.962 1.184A2.24 2.24 0 0 0 4.37 8.316L7.393 9.6a1 1 0 0 1 .61.92v3.04l-1.88 5.457a2.25 2.25 0 1 0 4.255 1.465l.694-2.014a6.503 6.503 0 0 1 4.93-7.295v-.655a1 1 0 0 1 .61-.92l3.018-1.282a2.24 2.24 0 0 0 1.181-2.954 2.266 2.266 0 0 0-2.961-1.184l-1.606.682c-.34.144-.578.423-.695.73a3.794 3.794 0 0 1-7.098 0 1.28 1.28 0 0 0-.695-.73zM23 17.5a5.5 5.5 0 1 1-11 0 5.5 5.5 0 0 1 11 0m-2.146-2.354a.5.5 0 0 0-.708 0L16.5 18.793l-1.646-1.647a.5.5 0 0 0-.708.708l2 2a.5.5 0 0 0 .708 0l4-4a.5.5 0 0 0 0-.708" fill="currentColor"/></svg>