<svg xmlns="http://www.w3.org/2000/svg" xmlns:xlink="http://www.w3.org/1999/xlink" viewBox="0 0 20 20"><path d="M9 2c.607 0 1.157.36 1.4.916l2.368 5.41 3.236-.201a1.88 1.88 0 0 1 1.992 1.758L18 10a1.88 1.88 0 0 1-1.879 1.879l-.117-.004-3.236-.202-2.367 5.41A1.53 1.53 0 0 1 9 18a.883.883 0 0 1-.883-.883l.002-.055.703-5.636-2.458-.154-1.14 2.28A.81.81 0 0 1 4.5 14a.5.5 0 0 1-.5-.5v-2.376l-1.062-.065A1 1 0 0 1 2 10.06v-.122a1 1 0 0 1 .938-.998L4 8.875V6.5a.5.5 0 0 1 .5-.5.81.81 0 0 1 .724.447l1.139 2.28 2.459-.154-.698-5.58A.883.883 0 0 1 9 2" fill="currentColor"/></svg>