<svg xmlns="http://www.w3.org/2000/svg" xmlns:xlink="http://www.w3.org/1999/xlink" viewBox="0 0 24 24"><path d="m15.53 5.437 5.426 5.437a3.576 3.576 0 0 1 0 5.049 3.56 3.56 0 0 1-3.342.95v.124a2 2 0 0 1-2 2.003h-2.11l.001-.748-.005-.168a2.75 2.75 0 0 0-2.57-2.58l-.174-.006h-1l-.101.007a.751.751 0 0 0 0 1.488l.102.007h1l.127.007a1.25 1.25 0 0 1 1.115 1.117l.007.128-.001.748h-5a2 2 0 0 1-1.998-2.003v-2.504q0-.285.034-.562A2.502 2.502 0 0 1 2 11.488a2.5 2.5 0 0 1 2.499-2.504 2.5 2.5 0 0 1 2.407 1.83 4.46 4.46 0 0 1 2.599-.829h3.611c.603 0 1.179.12 1.705.335a4.2 4.2 0 0 1 .597-.779l-1.992-1.995a1.494 1.494 0 0 1 0-2.11 1.486 1.486 0 0 1 2.105 0z" fill="currentColor"/></svg>