<svg xmlns="http://www.w3.org/2000/svg" viewBox="0 0 20 20"><path fill="currentColor" d="M15 2.5a.75.75 0 0 1 .75.75v1.5h1.5a.75.75 0 0 1 0 1.5h-1.5v1.5a.75.75 0 0 1-1.5 0v-1.5h-1.5a.75.75 0 0 1 0-1.5h1.5v-1.5A.75.75 0 0 1 15 2.5M4.75 3A1.75 1.75 0 0 0 3 4.75v10.5c0 .966.784 1.75 1.75 1.75h10.5A1.75 1.75 0 0 0 17 15.25v-4.5A1.75 1.75 0 0 0 15.25 9h-4a.25.25 0 0 1-.25-.25v-4A1.75 1.75 0 0 0 9.25 3zM4.5 4.75a.25.25 0 0 1 .25-.25h4.5a.25.25 0 0 1 .25.25v4q0 .127.018.25H4.5zm5 5.75v5H4.75a.25.25 0 0 1-.25-.25V10.5zm1.5 5v-5.018q.123.018.25.018h4a.25.25 0 0 1 .25.25v4.5a.25.25 0 0 1-.25.25z"/></svg>