<svg xmlns="http://www.w3.org/2000/svg" xmlns:xlink="http://www.w3.org/1999/xlink" viewBox="0 0 20 20"><path d="M17 9.6V7H3v8a3 3 0 0 0 3 3h4.257A5.48 5.48 0 0 1 9 14.5c0-1.86.923-3.505 2.337-4.5H8.5a.5.5 0 0 1 0-1h3a.5.5 0 0 1 .489.605A5.5 5.5 0 0 1 14.5 9c.9 0 1.75.216 2.5.6M18 3a1 1 0 0 0-1-1H3a1 1 0 0 0-1 1v2a1 1 0 0 0 1 1h14a1 1 0 0 0 1-1zm-7.365 10.92a2 2 0 0 0 1.43-2.478l-.155-.557q.382-.293.821-.497l.338.358a2 2 0 0 0 2.91.001l.324-.343q.448.211.835.518l-.126.422a2 2 0 0 0 1.456 2.519l.349.082a4.7 4.7 0 0 1 .01 1.017l-.46.118a2 2 0 0 0-1.431 2.478l.156.556q-.383.295-.822.498l-.338-.358a2 2 0 0 0-2.909-.002l-.325.345a4.3 4.3 0 0 1-.835-.518l.127-.423a2 2 0 0 0-1.456-2.519l-.35-.083a4.7 4.7 0 0 1-.01-1.016zm4.865.58a1 1 0 1 0-2 0 1 1 0 0 0 2 0" fill="currentColor"/></svg>