<svg xmlns="http://www.w3.org/2000/svg" xmlns:xlink="http://www.w3.org/1999/xlink" viewBox="0 0 16 16"><path d="M3 6a1 1 0 0 1-1-1V3a1 1 0 0 1 1-1h10a1 1 0 0 1 1 1v2a1 1 0 0 1-.52.877A5.47 5.47 0 0 0 10.5 5H13V3H3v2h7.5c-1.177 0-2.268.37-3.163 1H4v6a1 1 0 0 0 1 1h.6q.276.538.657 1H5a2 2 0 0 1-2-2zm3.635 3.92a2 2 0 0 0 1.43-2.478l-.156-.557q.382-.293.822-.497l.337.358a2 2 0 0 0 2.91.001l.325-.343q.447.211.834.518l-.126.422a2 2 0 0 0 1.456 2.519l.35.082a4.7 4.7 0 0 1 .01 1.017l-.461.118a2 2 0 0 0-1.43 2.478l.155.556q-.383.295-.822.498l-.337-.358a2 2 0 0 0-2.91-.002l-.324.345a4.3 4.3 0 0 1-.835-.518l.126-.423a2 2 0 0 0-1.456-2.52l-.35-.082a4.7 4.7 0 0 1-.01-1.016zm4.865.58a1 1 0 1 0-2 0 1 1 0 0 0 2 0" fill="currentColor"/></svg>