<svg xmlns="http://www.w3.org/2000/svg" viewBox="0 0 28 28"><path fill="currentColor" d="M22.25 3c.966 0 1.75.784 1.75 1.75v3.5c0 .698-.408 1.3-1 1.581V21.25a3.75 3.75 0 0 1-3.55 3.745l-.2.005H8.75a3.75 3.75 0 0 1-3.745-3.55L5 21.25V9.832A1.75 1.75 0 0 1 4 8.25v-3.5C4 3.784 4.784 3 5.75 3zm-.75 6.999h-15V21.25a2.25 2.25 0 0 0 2.096 2.245l.154.005h10.5a2.25 2.25 0 0 0 2.245-2.096l.005-.154zM11.75 13.5h4.5a.75.75 0 0 1 .102 1.493L16.25 15h-4.5a.75.75 0 0 1-.102-1.493zh4.5zm10.5-9H5.75a.25.25 0 0 0-.25.25v3.5c0 .138.112.25.25.25h16.5a.25.25 0 0 0 .25-.25v-3.5a.25.25 0 0 0-.25-.25"/></svg>