<svg xmlns="http://www.w3.org/2000/svg" viewBox="0 0 20 20"><path fill="currentColor" d="M18 3.5A1.5 1.5 0 0 0 16.5 2h-13A1.5 1.5 0 0 0 2 3.5v2a1.5 1.5 0 0 0 1 1.415V14.5A3.5 3.5 0 0 0 6.5 18h3.757a5.5 5.5 0 0 1-.657-1H6.5A2.5 2.5 0 0 1 4 14.5V7h12v2.207q.524.149 1 .393V6.914A1.5 1.5 0 0 0 18 5.5zM3.5 3h13a.5.5 0 0 1 .5.5v2a.5.5 0 0 1-.5.5h-13a.5.5 0 0 1-.5-.5v-2a.5.5 0 0 1 .5-.5m8.489 6.605A.502.502 0 0 0 11.5 9h-3l-.09.008A.5.5 0 0 0 8.5 10h2.837q.311-.22.652-.395m-1.354 4.315a2 2 0 0 0 1.43-2.478l-.155-.557q.382-.293.821-.497l.338.358a2 2 0 0 0 2.91.001l.324-.343q.448.211.835.518l-.126.422a2 2 0 0 0 1.456 2.519l.349.082a4.7 4.7 0 0 1 .01 1.017l-.46.118a2 2 0 0 0-1.431 2.478l.156.556q-.383.295-.822.498l-.338-.358a2 2 0 0 0-2.909-.002l-.325.345a4.3 4.3 0 0 1-.835-.518l.127-.423a2 2 0 0 0-1.456-2.519l-.35-.083a4.7 4.7 0 0 1-.01-1.016zm4.865.58a1 1 0 1 0-2 0 1 1 0 0 0 2 0"/></svg>