<svg xmlns="http://www.w3.org/2000/svg" xmlns:xlink="http://www.w3.org/1999/xlink" viewBox="0 0 24 24"><path d="M12 2.75c-.658 0-1.302.069-1.923.2a1 1 0 1 0 .414 1.957 7.3 7.3 0 0 1 3.018 0 1 1 0 1 0 .414-1.957A9.3 9.3 0 0 0 12 2.75m5.75 2.004V4.25a1 1 0 1 1 2 0v3a1 1 0 0 1-1 1h-3a1 1 0 1 1 0-2h.667a7 7 0 0 0-.469-.332 1 1 0 1 1 1.091-1.676q.368.24.711.512m-9.406-.22a1 1 0 0 0-1.383-.292 9.3 9.3 0 0 0-2.719 2.719 1 1 0 0 0 1.676 1.09 7.3 7.3 0 0 1 2.134-2.133 1 1 0 0 0 .292-1.383zM4.136 9.307a1 1 0 0 0-1.186.771 9.3 9.3 0 0 0 0 3.846 1 1 0 1 0 1.957-.414 7.3 7.3 0 0 1 0-3.018 1 1 0 0 0-.771-1.185m16.114.944a1 1 0 0 0-1 1V12a7.3 7.3 0 0 1-.157 1.509 1 1 0 1 0 1.957.414c.131-.621.2-1.265.2-1.923v-.75a1 1 0 0 0-1-1zm-.785 5.406a1 1 0 0 0-1.383.292 7.3 7.3 0 0 1-2.134 2.134 1 1 0 0 0 1.091 1.676 9.3 9.3 0 0 0 2.719-2.719 1 1 0 0 0-.293-1.383m-13.547.292a1 1 0 0 0-1.676 1.091 9.3 9.3 0 0 0 2.719 2.719 1 1 0 1 0 1.09-1.676 7.3 7.3 0 0 1-2.133-2.134m4.573 3.145a1 1 0 1 0-.414 1.957 9.3 9.3 0 0 0 3.846 0 1 1 0 1 0-.414-1.957 7.3 7.3 0 0 1-3.018 0" fill="currentColor"/></svg>