<svg xmlns="http://www.w3.org/2000/svg" xmlns:xlink="http://www.w3.org/1999/xlink" viewBox="0 0 20 20"><path d="M15.712 5.233 14.251 3.72 12.79 5.233a.75.75 0 0 1-1.08-1.042l1.821-1.886a1 1 0 0 1 1.44 0l1.82 1.886a.75.75 0 0 1-1.079 1.042m0 9.534-1.461 1.513-1.461-1.513a.75.75 0 0 0-1.08 1.042l1.821 1.886a1 1 0 0 0 1.44 0l1.82-1.886a.75.75 0 0 0-1.079-1.042M14.252 12a.75.75 0 0 1 .75.75v.5a.75.75 0 1 1-1.5 0v-.5a.75.75 0 0 1 .75-.75m.75-1.75a.75.75 0 1 1-1.5 0v-.5a.75.75 0 0 1 1.5 0zM14.253 8a.75.75 0 0 0 .75-.75v-.5a.75.75 0 1 0-1.5 0v.5c0 .414.336.75.75.75M5 3a2 2 0 0 0-2 2v10a2 2 0 0 0 2 2h4.25a.75.75 0 0 0 0-1.5H5a.5.5 0 0 1-.5-.5V5a.5.5 0 0 1 .5-.5h4.25a.75.75 0 0 0 0-1.5z" fill="currentColor"/></svg>