<svg xmlns="http://www.w3.org/2000/svg" viewBox="0 0 24 24"><path fill="currentColor" d="M12 2.75c.658 0 1.302.069 1.923.2a1 1 0 1 1-.414 1.957 7.3 7.3 0 0 0-3.018 0 1 1 0 1 1-.414-1.957A9.3 9.3 0 0 1 12 2.75M6.25 4.754V4.25a1 1 0 0 0-2 0v3a1 1 0 0 0 1 1h3a1 1 0 1 0 0-2h-.667q.228-.175.469-.332A1 1 0 0 0 6.96 4.242q-.368.24-.711.512zm9.406-.22a1 1 0 0 1 1.383-.292 9.3 9.3 0 0 1 2.719 2.719 1 1 0 1 1-1.676 1.09 7.3 7.3 0 0 0-2.134-2.133 1 1 0 0 1-.292-1.383zm4.208 4.772a1 1 0 0 1 1.186.771 9.3 9.3 0 0 1 0 3.846 1 1 0 1 1-1.957-.414 7.3 7.3 0 0 0 0-3.018 1 1 0 0 1 .771-1.185M3.75 10.25a1 1 0 0 1 1 1V12q.001.779.157 1.509a1 1 0 1 1-1.957.414A9.3 9.3 0 0 1 2.75 12v-.75a1 1 0 0 1 1-1m.785 5.406a1 1 0 0 1 1.383.292 7.3 7.3 0 0 0 2.134 2.134 1 1 0 0 1-1.091 1.676 9.3 9.3 0 0 1-2.719-2.719 1 1 0 0 1 .293-1.383m13.547.292a1 1 0 0 1 1.676 1.091 9.3 9.3 0 0 1-2.719 2.719 1 1 0 1 1-1.09-1.676 7.3 7.3 0 0 0 2.133-2.134m-4.573 3.145a1 1 0 1 1 .414 1.957 9.3 9.3 0 0 1-3.846 0 1 1 0 1 1 .414-1.957 7.3 7.3 0 0 0 3.018 0"/></svg>