<svg xmlns="http://www.w3.org/2000/svg" xmlns:xlink="http://www.w3.org/1999/xlink" viewBox="0 0 24 24"><path d="M21.247 4.504a.75.75 0 0 0-.743.648l-.007.102v13.498a.75.75 0 0 0 1.493.102l.007-.101v-13.5a.75.75 0 0 0-.75-.75zM8.787 6.387l-.083-.094a1 1 0 0 0-1.32-.083l-.094.083-4.997 4.998a1 1 0 0 0-.083 1.32l.083.093 4.996 5.004a1 1 0 0 0 1.499-1.32l-.083-.094L5.416 13h12.581a1 1 0 0 0 .993-.883l.007-.117a1 1 0 0 0-.883-.993L17.997 11H5.413l3.291-3.293a1 1 0 0 0 .083-1.32l-.083-.094z" fill="currentColor"/></svg>