<svg xmlns="http://www.w3.org/2000/svg" viewBox="0 0 20 20"><path fill="currentColor" d="M6.97 4.78a.75.75 0 0 0 1.06 0l1.22-1.22v3.19a.75.75 0 0 0 1.5 0V3.56l1.22 1.22a.75.75 0 1 0 1.06-1.06l-2.5-2.5a.75.75 0 0 0-1.06 0l-2.5 2.5a.75.75 0 0 0 0 1.06M4.78 8.03a.75.75 0 0 0-1.06-1.06l-2.5 2.5a.75.75 0 0 0 0 1.06l2.5 2.5a.75.75 0 0 0 1.06-1.06l-1.22-1.22h3.19a.75.75 0 0 0 0-1.5H3.56zm10.44-1.06a.75.75 0 0 1 1.06 0l2.5 2.5a.75.75 0 0 1 0 1.06l-2.5 2.5a.75.75 0 1 1-1.06-1.06l1.22-1.22h-3.19a.75.75 0 0 1 0-1.5h3.19l-1.22-1.22a.75.75 0 0 1 0-1.06m-5.97 9.47-1.22-1.22a.75.75 0 0 0-1.06 1.06l2.5 2.5a.75.75 0 0 0 1.06 0l2.5-2.5a.75.75 0 1 0-1.06-1.06l-1.22 1.22v-3.19a.75.75 0 0 0-1.5 0z"/></svg>