<svg xmlns="http://www.w3.org/2000/svg" viewBox="0 0 20 20"><path fill="currentColor" d="M11.56 2.152a8 8 0 0 0-3.12 0 .75.75 0 0 0 .29 1.472 6.5 6.5 0 0 1 2.54 0 .75.75 0 0 0 .29-1.472M6.595 3.554a.75.75 0 0 0-1.04-.206A8 8 0 0 0 4 4.708V2.75a.75.75 0 0 0-1.5 0v4c0 .414.336.75.75.75h4a.75.75 0 0 0 0-1.5H4.876A6.5 6.5 0 0 1 6.39 4.594a.75.75 0 0 0 .206-1.04zm7.016 1.04a.75.75 0 0 1 .834-1.246 8 8 0 0 1 2.207 2.207.75.75 0 0 1-1.246.834 6.5 6.5 0 0 0-1.795-1.795m3.355 3.255a.75.75 0 0 0-.59.882 6.5 6.5 0 0 1 0 2.538.75.75 0 1 0 1.472.291 8 8 0 0 0 0-3.12.75.75 0 0 0-.881-.59zM2 10v-.25a.75.75 0 0 1 1.5 0V10q.001.654.124 1.27a.75.75 0 0 1-1.472.29A8 8 0 0 1 2 10m14.446 3.405a.75.75 0 0 0-1.04.206 6.5 6.5 0 0 1-1.795 1.795.75.75 0 0 0 .834 1.246 8 8 0 0 0 2.207-2.207.75.75 0 0 0-.206-1.04m-13.098 1.04a.75.75 0 0 1 1.246-.834 6.5 6.5 0 0 0 1.795 1.795.75.75 0 0 1-.834 1.246 8 8 0 0 1-2.207-2.207m8.803 2.521a.75.75 0 0 0-.882-.59 6.5 6.5 0 0 1-2.538 0 .75.75 0 1 0-.291 1.472 8 8 0 0 0 3.12 0 .75.75 0 0 0 .59-.881z"/></svg>