<svg xmlns="http://www.w3.org/2000/svg" viewBox="0 0 20 20"><path fill="currentColor" d="M8.132 2.22a8 8 0 0 1 3.736 0 .5.5 0 0 1-.233.972 7 7 0 0 0-3.27 0 .5.5 0 1 1-.233-.973zM6.507 3.342a.5.5 0 0 1-.165.687A7.04 7.04 0 0 0 4.03 6.342a.5.5 0 0 1-.852-.523A8.04 8.04 0 0 1 5.82 3.18a.5.5 0 0 1 .688.164zm7.674-.165a.5.5 0 1 0-.523.852A7 7 0 0 1 15.745 6H12.5a.5.5 0 0 0 0 1h4a.5.5 0 0 0 .5-.5v-4a.5.5 0 0 0-1 0v2.208a8 8 0 0 0-1.82-1.53zM2.822 7.762a.5.5 0 0 1 .37.603 7 7 0 0 0 0 3.27.5.5 0 0 1-.973.233 8 8 0 0 1 0-3.736.5.5 0 0 1 .603-.37M18 10v-.5a.5.5 0 0 0-1 0v.5a7 7 0 0 1-.192 1.635.5.5 0 1 0 .973.233c.143-.6.219-1.225.219-1.868M3.343 13.493a.5.5 0 0 1 .687.165 7.04 7.04 0 0 0 2.312 2.312.5.5 0 1 1-.523.852 8.04 8.04 0 0 1-2.64-2.641.5.5 0 0 1 .164-.688m13.479.688a.5.5 0 0 0-.852-.523 7.04 7.04 0 0 1-2.313 2.312.5.5 0 0 0 .524.852 8.04 8.04 0 0 0 2.64-2.641zm-9.06 2.997a.5.5 0 0 1 .603-.37 7 7 0 0 0 3.27 0 .5.5 0 1 1 .233.973 8 8 0 0 1-3.736 0 .5.5 0 0 1-.37-.603"/></svg>