<svg xmlns="http://www.w3.org/2000/svg" xmlns:xlink="http://www.w3.org/1999/xlink" viewBox="0 0 20 20"><path d="M11.414 3.635a.5.5 0 0 0 0-.707L9.293.807a.5.5 0 0 0-.707.707l.997.997a7.5 7.5 0 0 0-4.075 13.495.5.5 0 0 0 .6-.8 6.5 6.5 0 0 1 5.29-11.554zM8.586 16.363l.016-.016q.613.135 1.264.15l-.006.006.074-.004a6.5 6.5 0 0 0 3.959-11.706.5.5 0 1 1 .6-.8 7.5 7.5 0 0 1-4.075 13.495l.996.996a.5.5 0 1 1-.707.707l-2.121-2.12a.5.5 0 0 1 0-.708m3.768-8.218a.5.5 0 0 1 0 .708l-3 3a.5.5 0 0 1-.708 0l-1.5-1.5a.5.5 0 0 1 .708-.708L9 10.792l2.646-2.647a.5.5 0 0 1 .708 0M5 10a5 5 0 1 1 10 0 5 5 0 0 1-10 0m5-4a4 4 0 1 0 0 8 4 4 0 0 0 0-8" fill="currentColor"/></svg>