<svg xmlns="http://www.w3.org/2000/svg" xmlns:xlink="http://www.w3.org/1999/xlink" viewBox="0 0 24 24"><path d="M13.871 3.195a9 9 0 0 0-3.742 0 .75.75 0 0 0 .31 1.467 7.5 7.5 0 0 1 3.122 0 .75.75 0 1 0 .31-1.467M8.135 4.67a.75.75 0 0 0-1.038-.22A9 9 0 0 0 6 5.292V4.25a.75.75 0 0 0-1.5 0v3c0 .414.336.75.75.75h3a.75.75 0 0 0 0-1.5H6.9a7.5 7.5 0 0 1 1.015-.791.75.75 0 0 0 .22-1.038zM4.5 12v-.75a.75.75 0 0 0-1.5 0V12c0 .64.067 1.267.195 1.871a.75.75 0 1 0 1.467-.31A7.5 7.5 0 0 1 4.5 12m11.365-7.329a.75.75 0 0 0 .22 1.038 7.55 7.55 0 0 1 2.206 2.206.75.75 0 1 0 1.258-.818 9 9 0 0 0-2.646-2.646.75.75 0 0 0-1.038.22m3.473 5.768a.75.75 0 1 1 1.467-.31 9 9 0 0 1 0 3.742.75.75 0 0 1-1.467-.31 7.5 7.5 0 0 0 0-3.122M4.67 15.865a.75.75 0 0 0-.22 1.038 9 9 0 0 0 2.646 2.646.75.75 0 0 0 .818-1.258 7.55 7.55 0 0 1-2.206-2.206.75.75 0 0 0-1.038-.22m13.62.22a.75.75 0 1 1 1.258.818 9 9 0 0 1-2.646 2.646.75.75 0 0 1-.818-1.258 7.55 7.55 0 0 0 2.206-2.206m-3.841 3.831a.75.75 0 0 0-.89-.578 7.5 7.5 0 0 1-3.12 0 .75.75 0 1 0-.311 1.467 9 9 0 0 0 3.742 0 .75.75 0 0 0 .579-.889" fill="currentColor"/></svg>