<svg xmlns="http://www.w3.org/2000/svg" xmlns:xlink="http://www.w3.org/1999/xlink" viewBox="0 0 20 20"><path d="M8.44 2.152a8 8 0 0 1 3.12 0 .75.75 0 0 1-.29 1.472 6.5 6.5 0 0 0-2.54 0 .75.75 0 0 1-.29-1.472m4.965 1.402a.75.75 0 0 1 1.04-.206A8 8 0 0 1 16 4.708V2.75a.75.75 0 0 1 1.5 0v4a.75.75 0 0 1-.75.75h-4a.75.75 0 0 1 0-1.5h2.374a6.5 6.5 0 0 0-1.513-1.406.75.75 0 0 1-.206-1.04m-7.016 1.04a.75.75 0 0 0-.834-1.246 8 8 0 0 0-2.207 2.207.75.75 0 0 0 1.246.834A6.5 6.5 0 0 1 6.39 4.594zM3.034 7.85a.75.75 0 0 1 .59.882 6.5 6.5 0 0 0 0 2.538.75.75 0 0 1-1.472.291 8 8 0 0 1 0-3.12.75.75 0 0 1 .882-.59zM18 10v-.25a.75.75 0 0 0-1.5 0V10q-.001.654-.124 1.27a.75.75 0 1 0 1.472.29q.151-.759.152-1.56M3.554 13.405a.75.75 0 0 1 1.04.206 6.5 6.5 0 0 0 1.795 1.795.75.75 0 0 1-.834 1.246 8 8 0 0 1-2.207-2.207.75.75 0 0 1 .206-1.04m13.098 1.04a.75.75 0 0 0-1.246-.834 6.5 6.5 0 0 1-1.795 1.795.75.75 0 0 0 .834 1.246 8 8 0 0 0 2.207-2.207M7.85 16.966a.75.75 0 0 1 .882-.59 6.5 6.5 0 0 0 2.538 0 .75.75 0 1 1 .291 1.472 8 8 0 0 1-3.12 0 .75.75 0 0 1-.59-.881z" fill="currentColor"/></svg>