<svg xmlns="http://www.w3.org/2000/svg" xmlns:xlink="http://www.w3.org/1999/xlink" viewBox="0 0 32 32"><path d="M5 16C5 9.925 9.925 5 16 5c2.923 0 5.58 1.14 7.55 3h-2.3a1.25 1.25 0 1 0 0 2.5h4.5c.69 0 1.25-.56 1.25-1.25v-4.5a1.25 1.25 0 1 0-2.5 0v.761A13.44 13.44 0 0 0 16 2.5C8.544 2.5 2.5 8.544 2.5 16S8.544 29.5 16 29.5 29.5 23.456 29.5 16q0-.42-.025-.833c-.041-.673-.621-1.167-1.296-1.167-.708 0-1.239.643-1.198 1.35q.02.323.019.65c0 6.075-4.925 11-11 11S5 22.075 5 16" fill="currentColor"/></svg>