<svg xmlns="http://www.w3.org/2000/svg" viewBox="0 0 24 24"><path fill="currentColor" d="M16 2a6 6 0 0 1 4.64 9.806 6.5 6.5 0 0 0-2.07-.718l.23-.23.159-.165a4 4 0 0 0-5.753-5.554l-.155.16-.018.012-9.326 9.33a1 1 0 0 1-1.414-1.415l9.309-9.313.046-.043A6 6 0 0 1 16.001 2zm-4.912 16.568a6.4 6.4 0 0 0 .734 2.096l-.342.341-.053.05-.056.045a3.721 3.721 0 0 1-5.253-5.242l.149-.164.015-.011 7.29-7.304a1 1 0 0 1 1.416 1.413l-7.29 7.304-.012.008a1.721 1.721 0 0 0 2.289 2.553l.122-.1.001.001zM23.001 17.5a5.5 5.5 0 1 1-11 0 5.5 5.5 0 0 1 11 0m-8.5-.5a.5.5 0 0 0 0 1h4.793l-1.647 1.646a.5.5 0 0 0 .708.708l2.5-2.5a.5.5 0 0 0 0-.708l-2.5-2.5a.5.5 0 0 0-.708.708L19.294 17z"/></svg>