<svg xmlns="http://www.w3.org/2000/svg" viewBox="0 0 24 24"><path fill="currentColor" d="M10.004 9.608V3.753c0-.646.753-.974 1.226-.58l.075.072 4.712 5.104a.75.75 0 0 1 .005 1.012l-.076.073-3.077 2.564 3.078 2.566a.75.75 0 0 1 .136 1.002l-.066.083-4.711 5.106c-.439.476-1.214.207-1.295-.404l-.007-.104v-5.863l-1.12.934a.75.75 0 0 1-1.04-1.075l.08-.077 2.08-1.734v-.87l-2.08-1.736a.75.75 0 0 1 .87-1.217l.09.065zV3.753zm1.694 3.366-.194.16v5.194l2.876-3.117zm7.572-5.602a.75.75 0 0 1 1.057.084 6.98 6.98 0 0 1 1.67 4.539 6.98 6.98 0 0 1-1.68 4.55.75.75 0 0 1-1.14-.975 5.48 5.48 0 0 0 1.32-3.575 5.48 5.48 0 0 0-1.311-3.566.75.75 0 0 1 .084-1.057m-1.995 1.813a.75.75 0 0 1 1.058.084 4.2 4.2 0 0 1 1.003 2.728 4.2 4.2 0 0 1-1.01 2.735.75.75 0 0 1-1.139-.975c.417-.487.65-1.105.65-1.76 0-.653-.232-1.268-.646-1.755a.75.75 0 0 1 .084-1.057m-5.77-3.513v5.187l.193.162 2.682-2.234-2.876-3.115z"/></svg>