<svg xmlns="http://www.w3.org/2000/svg" xmlns:xlink="http://www.w3.org/1999/xlink" viewBox="0 0 20 20"><path d="m8.865 9.573-6.719-6.72a.5.5 0 1 1 .708-.706l15 15a.5.5 0 0 1-.708.707l-3.792-3.793-2.772 3.412a1 1 0 0 1-.077.082l-.138.169a.75.75 0 0 1-1.331-.474V14h.004v-2.639l-1.818 1.472a.75.75 0 0 1-.944-1.166zm3.423 3.422-1.748-1.748v.528l-.004-.003v3.37L11.467 14h.004zm1.433-5.411L11.5 9.377 9.04 6.918V4h-.004V2.75a.75.75 0 0 1 1.331-.474l3.464 4.25a.75.75 0 0 1-.11 1.058m-2.193-.167.005.006.66-.533-1.657-2.033V8.22z" fill="currentColor"/></svg>