<svg xmlns="http://www.w3.org/2000/svg" xmlns:xlink="http://www.w3.org/1999/xlink" viewBox="0 0 24 24"><path d="M10.004 9.608V3.753c0-.646.752-.974 1.225-.58l.076.072 4.712 5.104a.75.75 0 0 1 .005 1.012l-.076.073-3.077 2.564 3.077 2.566a.75.75 0 0 1 .137 1.002l-.066.083-4.711 5.106a.75.75 0 0 1-1.295-.404l-.007-.104v-5.863l-1.12.934a.75.75 0 0 1-1.04-1.075l.08-.077 2.08-1.734v-.87l-2.08-1.736a.75.75 0 0 1 .87-1.217l.09.065zV3.753zm1.694 3.366-.194.16v5.194l2.876-3.117zM17 11a1 1 0 1 1 0 2 1 1 0 0 1 0-2M6 11a1 1 0 1 1 0 2 1 1 0 0 1 0-2m5.504-5.328v5.187l.194.162 2.682-2.234z" fill="currentColor"/></svg>