<svg xmlns="http://www.w3.org/2000/svg" xmlns:xlink="http://www.w3.org/1999/xlink" viewBox="0 0 20 20"><path d="M9.322 2.033A.5.5 0 0 0 9 2.5v6.328L6.809 7.107a.5.5 0 0 0-.618.786L8.873 10 6.19 12.107a.5.5 0 1 0 .618.786L9 11.172V17.5a.5.5 0 0 0 .874.332l4-4.5a.5.5 0 0 0-.065-.725L10.49 10l3.318-2.607a.5.5 0 0 0 .065-.725l-4-4.5a.5.5 0 0 0-.552-.135zM10 10.886l2.773 2.179L10 16.185v-5.3zm0-1.772V3.815l2.773 3.12zm6.34-2.53a.5.5 0 0 1 .692.146 6.01 6.01 0 0 1-.002 6.543.5.5 0 0 1-.838-.546 5.01 5.01 0 0 0 .002-5.451.5.5 0 0 1 .146-.692m-.914 1.35a.5.5 0 0 0-.856.517c.573.948.573 2.146.002 3.095a.5.5 0 1 0 .857.516 4.01 4.01 0 0 0-.003-4.128" fill="currentColor"/></svg>