<svg xmlns="http://www.w3.org/2000/svg" xmlns:xlink="http://www.w3.org/1999/xlink" viewBox="0 0 20 20"><path d="M4 16V4a2 2 0 0 1 2-2h8a2 2 0 0 1 2 2v11a1 1 0 0 1-1 1H5a1 1 0 0 0 1 1h9.5a.5.5 0 0 1 0 1H6a2 2 0 0 1-2-2M15 4a1 1 0 0 0-1-1H6a1 1 0 0 0-1 1v11h10zM7.041 8h.973c.045-.773.192-1.485.42-2.059A3 3 0 0 0 7.04 8zM6 8.5a4 4 0 1 1 8 0 4 4 0 0 1-8 0m6.959-.5a3 3 0 0 0-1.392-2.059c.227.574.374 1.286.419 2.059zm-.973 1c-.045.773-.192 1.486-.42 2.059A3 3 0 0 0 12.96 9zm-1.002-1c-.046-.707-.189-1.324-.383-1.778-.12-.28-.25-.474-.368-.591-.117-.115-.195-.131-.233-.131s-.116.016-.233.13c-.118.118-.248.312-.368.592-.194.454-.337 1.07-.383 1.778zM9.016 9c.046.707.189 1.324.383 1.778.12.28.25.474.368.591.117.115.195.131.233.131s.116-.016.233-.13c.118-.118.248-.313.368-.592.194-.454.336-1.07.383-1.778zM8.014 9h-.973a3 3 0 0 0 1.392 2.059c-.227-.573-.374-1.286-.419-2.059" fill="currentColor"/></svg>