<svg xmlns="http://www.w3.org/2000/svg" xmlns:xlink="http://www.w3.org/1999/xlink" viewBox="0 0 20 20"><path d="M11.5 17a.5.5 0 0 0 0-1h-3a.5.5 0 0 0 0 1zm2.96-1.053a2 2 0 0 0 1.487-1.486.51.51 0 0 1 .6-.462.51.51 0 0 1 .38.663 3 3 0 0 1-2.265 2.265.51.51 0 0 1-.663-.38.51.51 0 0 1 .462-.6zm2.467-10.609a.504.504 0 1 1-.98.201A2 2 0 0 0 14 4H6a2 2 0 0 0-1.947 1.54.51.51 0 0 1-.6.463.51.51 0 0 1-.38-.665A3 3 0 0 1 6 3h8c1.43 0 2.625 1 2.927 2.338M5.41 16.946l-.072-.02a3 3 0 0 1-2.265-2.264.51.51 0 0 1 .38-.663.51.51 0 0 1 .6.462 2 2 0 0 0 1.486 1.486.506.506 0 0 1 .463.6.51.51 0 0 1-.592.4zM3.5 8a.5.5 0 0 1 .5.5v3a.5.5 0 0 1-1 0v-3a.5.5 0 0 1 .5-.5m13.5.5a.5.5 0 0 0-1 0v3a.5.5 0 0 0 1 0z" fill="currentColor"/></svg>