<svg xmlns="http://www.w3.org/2000/svg" viewBox="0 0 20 20"><path fill="currentColor" d="M3.073 5.338a.51.51 0 0 0 .38.663.51.51 0 0 0 .6-.462A2 2 0 0 1 6 4h8a2 2 0 0 1 1.947 1.54.51.51 0 0 0 .6.462.51.51 0 0 0 .38-.664A3 3 0 0 0 14 3H6a3 3 0 0 0-2.927 2.338m0 9.324a.51.51 0 0 1 .38-.663.51.51 0 0 1 .6.462A2 2 0 0 0 6 16h8a2 2 0 0 0 1.947-1.54.51.51 0 0 1 .6-.462.51.51 0 0 1 .38.664A3 3 0 0 1 14 17H6a3 3 0 0 1-2.927-2.338M16.5 12a.5.5 0 0 1-.5-.5v-3a.5.5 0 0 1 1 0v3a.5.5 0 0 1-.5.5M3 11.5a.5.5 0 0 0 1 0v-3a.5.5 0 0 0-1 0z"/></svg>