<svg xmlns="http://www.w3.org/2000/svg" xmlns:xlink="http://www.w3.org/1999/xlink" viewBox="0 0 24 24"><path d="M14 4a1 1 0 0 1-1 1h-2a1 1 0 1 1 0-2h2a1 1 0 0 1 1 1m-9 7a1 1 0 1 0-2 0v2a1 1 0 1 0 2 0zm14 0a1 1 0 1 1 2 0v2a1 1 0 1 1-2 0zM6 3a1 1 0 0 1 0 2 1 1 0 0 0-1 1 1 1 0 0 1-2 0 3 3 0 0 1 3-3m11 1a1 1 0 0 1 1-1 3 3 0 0 1 3 3 1 1 0 1 1-2 0 1 1 0 0 0-1-1 1 1 0 0 1-1-1M5.5 17.25v.5c0 .414.336.75.75.75h11.5a.75.75 0 0 0 .75-.75v-.5a1.25 1.25 0 1 1 2.5 0V18h-.01a3.25 3.25 0 0 1-3.24 3H6.25a3.25 3.25 0 0 1-3.24-3H3v-.75a1.25 1.25 0 1 1 2.5 0" fill="currentColor"/></svg>