<svg xmlns="http://www.w3.org/2000/svg" xmlns:xlink="http://www.w3.org/1999/xlink" viewBox="0 0 20 20"><path d="M8.5 3a.5.5 0 0 0 0 1h3a.5.5 0 0 0 0-1zM4.053 5.54A2 2 0 0 1 5.54 4.052a.51.51 0 0 0 .462-.6.51.51 0 0 0-.663-.38 3 3 0 0 0-2.265 2.265.51.51 0 0 0 .38.663.51.51 0 0 0 .6-.462zm10.538-2.486.07.02a3 3 0 0 1 2.266 2.264.506.506 0 0 1-.38.664.51.51 0 0 1-.6-.463 2 2 0 0 0-1.486-1.486.51.51 0 0 1-.462-.6.51.51 0 0 1 .592-.4zM16.5 12a.5.5 0 0 1-.5-.5v-3a.5.5 0 0 1 1 0v3a.5.5 0 0 1-.5.5M3 11.5a.5.5 0 0 0 1 0v-3a.5.5 0 0 0-1 0zm0 5a.5.5 0 0 1 .5-.5h13a.5.5 0 0 1 0 1h-13a.5.5 0 0 1-.5-.5m.5-2.5a.5.5 0 0 0 0 1h13a.5.5 0 0 0 0-1z" fill="currentColor"/></svg>