<svg xmlns="http://www.w3.org/2000/svg" xmlns:xlink="http://www.w3.org/1999/xlink" viewBox="0 0 20 20"><path d="M8.5 3a.5.5 0 0 0 0 1h3a.5.5 0 0 0 0-1zM5.54 4.053A2 2 0 0 0 4.052 5.54a.51.51 0 0 1-.6.462.51.51 0 0 1-.38-.663 3 3 0 0 1 2.265-2.265.51.51 0 0 1 .663.38.51.51 0 0 1-.462.6zM3.072 14.662a.51.51 0 0 1 .38-.663.51.51 0 0 1 .6.462A2 2 0 0 0 6 16h8a2 2 0 0 0 1.947-1.54.51.51 0 0 1 .6-.463.51.51 0 0 1 .38.665A3 3 0 0 1 14 17H6a3 3 0 0 1-2.927-2.338zM14.591 3.054l.07.02a3 3 0 0 1 2.266 2.264.506.506 0 0 1-.38.664.51.51 0 0 1-.6-.463 2 2 0 0 0-1.486-1.486.51.51 0 0 1-.462-.6.51.51 0 0 1 .592-.4zM16.5 12a.5.5 0 0 1-.5-.5v-3a.5.5 0 0 1 1 0v3a.5.5 0 0 1-.5.5M3 11.5a.5.5 0 0 0 1 0v-3a.5.5 0 0 0-1 0z" fill="currentColor"/></svg>