<svg xmlns="http://www.w3.org/2000/svg" xmlns:xlink="http://www.w3.org/1999/xlink" viewBox="0 0 20 20"><path d="M6 4.502a1.5 1.5 0 0 0-1.396.949.75.75 0 1 1-1.413-.492h-.005A3 3 0 0 1 6 3.002h8c1.29 0 2.39.814 2.814 1.957h-.003a.75.75 0 0 1-1.381.586l-.004-.01A1.5 1.5 0 0 0 14 4.501zM3.75 12a.75.75 0 0 1-.75-.75v-2.5a.75.75 0 0 1 1.5 0v2.5a.75.75 0 0 1-.75.75M14 15.5H6a1.5 1.5 0 0 1-1.396-.948.75.75 0 1 0-1.413.492h-.005A3 3 0 0 0 6 17.002h8c1.29 0 2.39-.814 2.814-1.957h-.003a.75.75 0 0 0-1.381-.586l-.004.01A1.5 1.5 0 0 1 14 15.501zm1.5-4.25a.75.75 0 0 0 1.5 0v-2.5a.75.75 0 0 0-1.5 0z" fill="currentColor"/></svg>