<svg xmlns="http://www.w3.org/2000/svg" xmlns:xlink="http://www.w3.org/1999/xlink" viewBox="0 0 20 20"><path d="M8 3.5a.5.5 0 0 1 .5-.5h3a.5.5 0 0 1 0 1h-3a.5.5 0 0 1-.5-.5m-2.46.553A2 2 0 0 0 4.052 5.54a.51.51 0 0 1-.6.462.51.51 0 0 1-.38-.663 3 3 0 0 1 2.265-2.265.51.51 0 0 1 .663.38.51.51 0 0 1-.462.6zm0 11.894a2 2 0 0 1-1.487-1.486.51.51 0 0 0-.6-.463.51.51 0 0 0-.38.664 3 3 0 0 0 2.265 2.265.505.505 0 1 0 .201-.98zm9.05-12.893.072.02a3 3 0 0 1 2.265 2.264.506.506 0 0 1-.38.664.51.51 0 0 1-.6-.463 2 2 0 0 0-1.486-1.486.51.51 0 0 1-.462-.6.51.51 0 0 1 .592-.4zm-.13 12.893a2 2 0 0 0 1.487-1.486.51.51 0 0 1 .6-.462.51.51 0 0 1 .38.663 3 3 0 0 1-2.265 2.265.51.51 0 0 1-.663-.38.51.51 0 0 1 .462-.6zM16 11.5a.5.5 0 0 0 1 0v-3a.5.5 0 0 0-1 0zM3.5 12a.5.5 0 0 1-.5-.5v-3a.5.5 0 0 1 1 0v3a.5.5 0 0 1-.5.5m5 4a.5.5 0 0 0 0 1h3a.5.5 0 0 0 0-1z" fill="currentColor"/></svg>