<svg xmlns="http://www.w3.org/2000/svg" xmlns:xlink="http://www.w3.org/1999/xlink" viewBox="0 0 20 20"><path d="M17 8.5a.5.5 0 0 0-1 0v3a.5.5 0 0 0 1 0zm-1.053-2.96a2 2 0 0 0-1.486-1.487.51.51 0 0 1-.462-.6.51.51 0 0 1 .663-.38 3 3 0 0 1 2.265 2.265.51.51 0 0 1-.38.663.51.51 0 0 1-.6-.462zM5.338 3.072a.51.51 0 0 1 .663.38.51.51 0 0 1-.462.6A2 2 0 0 0 4 6v8a2 2 0 0 0 1.54 1.947.51.51 0 0 1 .463.6.51.51 0 0 1-.665.38A3 3 0 0 1 3 14V6a3 3 0 0 1 2.338-2.927zM16.946 14.59l-.02.07a3 3 0 0 1-2.264 2.266.506.506 0 0 1-.664-.38.51.51 0 0 1 .463-.6 2 2 0 0 0 1.486-1.486.51.51 0 0 1 .6-.462.51.51 0 0 1 .4.592zM8 16.5a.5.5 0 0 1 .5-.5h3a.5.5 0 0 1 0 1h-3a.5.5 0 0 1-.5-.5M8.5 3a.5.5 0 0 0 0 1h3a.5.5 0 0 0 0-1z" fill="currentColor"/></svg>