<svg xmlns="http://www.w3.org/2000/svg" xmlns:xlink="http://www.w3.org/1999/xlink" viewBox="0 0 24 24"><path d="M9.118 2.105a.75.75 0 0 1 1.027.263L14.075 9h7.16c.423 0 .765.342.765.765V12a9.99 9.99 0 0 1-4.73 8.5h2.98a.75.75 0 0 1 0 1.5H3.75a.75.75 0 0 1 0-1.5h2.98A9.99 9.99 0 0 1 2 12V9.765C2 9.342 2.342 9 2.765 9h5.567L4.855 3.132a.75.75 0 0 1 1.29-.764L10.075 9h2.257L8.855 3.132a.75.75 0 0 1 .263-1.027M3.5 10.5V12q0 .508.058 1h16.884a9 9 0 0 0 .058-1v-1.5zm.374 4a8.504 8.504 0 0 0 16.252 0z" fill="currentColor"/></svg>