<svg xmlns="http://www.w3.org/2000/svg" xmlns:xlink="http://www.w3.org/1999/xlink" viewBox="0 0 16 16"><path d="M6.152 1.081a.5.5 0 0 1 .692.147l3.1 4.766H14.3a.7.7 0 0 1 .7.7v1.302a7 7 0 0 1-3.352 5.979h2.127a.5.5 0 0 1 0 1H8.593a7 7 0 0 1-1.186 0H2.225a.5.5 0 0 1 0-1h2.127A7 7 0 0 1 1 7.995v-1.3a.7.7 0 0 1 .7-.7h4.25L3.206 1.773a.5.5 0 0 1 .838-.546l3.1 4.766H8.75l-2.745-4.22a.5.5 0 0 1 .146-.693zM2 6.995v1q0 .513.083 1.001h11.834q.083-.489.083-1V6.995zm11.659 3.002H2.34a6.01 6.01 0 0 0 5.11 3.978h1.098a6.01 6.01 0 0 0 5.11-3.978z" fill="currentColor"/></svg>