<svg xmlns="http://www.w3.org/2000/svg" xmlns:xlink="http://www.w3.org/1999/xlink" viewBox="0 0 24 24"><path d="M13.409 2.513a3.75 3.75 0 0 0-2.818 0l-2.19.888 9.592 3.73 3.374-1.303a1.8 1.8 0 0 0-.46-.275zM22 7.191l-9.25 3.574v2.3A6.48 6.48 0 0 1 17.5 11c1.747 0 3.332.689 4.5 1.81zm-10.75 8.52v-4.946L2 7.191v9.637a1.75 1.75 0 0 0 1.093 1.621l7.498 3.04q.323.13.659.2v-2.397A6.5 6.5 0 0 1 11 17.5c0-.621.087-1.222.25-1.79zM2.633 5.827 12 9.447l3.917-1.514-9.543-3.71-3.281 1.33q-.255.104-.46.275zM17.5 12a5.5 5.5 0 1 0 0 11 5.5 5.5 0 0 0 0-11m-3.498 5.458.015-.086.02-.063.035-.067.032-.048 2.542-2.548.07-.057a.5.5 0 0 1 .695.695l-.057.07-1.648 1.647H21l.09.008a.5.5 0 0 1 .402.402l.008.09-.008.09a.5.5 0 0 1-.402.402L21 18l-5.292.001 1.646 1.645.057.07a.5.5 0 0 1 0 .568l-.057.07-.07.057a.5.5 0 0 1-.568 0l-.07-.057-2.512-2.513-.045-.056-.042-.074-.03-.083-.012-.06-.005-.056z" fill="currentColor"/></svg>