<svg xmlns="http://www.w3.org/2000/svg" viewBox="0 0 20 20"><path fill="currentColor" d="m17.421 4.992-3.046 1.219-7.5-3L8.7 2.48a3.5 3.5 0 0 1 2.6 0l5.757 2.303a1.5 1.5 0 0 1 .364.208zm-7.42 2.969 3.028-1.212-7.5-3-2.586 1.035a1.5 1.5 0 0 0-.364.208zM2 6.176q0-.166.035-.324L9.5 8.838v3.367a5.5 5.5 0 0 0-.5 2.294c0 .82.18 1.597.5 2.295v.938a3.5 3.5 0 0 1-.8-.214l-5.757-2.303A1.5 1.5 0 0 1 2 13.822zm16 0v4.08A5.48 5.48 0 0 0 14.5 9a5.5 5.5 0 0 0-4 1.724V8.838l7.465-2.986q.035.158.035.324M14.5 19a4.5 4.5 0 1 0 0-9 4.5 4.5 0 0 0 0 9m-1-3.707 2.646-2.646a.5.5 0 0 1 .708.707l-3 3a.5.5 0 0 1-.708 0l-1-1a.5.5 0 0 1 .708-.707z"/></svg>