<svg xmlns="http://www.w3.org/2000/svg" xmlns:xlink="http://www.w3.org/1999/xlink" viewBox="0 0 24 24"><path d="M10.591 2.513a3.75 3.75 0 0 1 2.818 0l7.498 3.04A1.75 1.75 0 0 1 22 7.175V16.5a5.48 5.48 0 0 0-1.5-3.775V7.773l-7.75 2.992v1.712a5.5 5.5 0 0 0-1.5 2.379v-4.092L3.5 7.75v9.078a.25.25 0 0 0 .156.231l7.499 3.04q.036.016.072.028l.212.086a1.5 1.5 0 0 0 1.035.035c.394.424.854.785 1.364 1.067l-.43.174a3.75 3.75 0 0 1-2.817 0l-7.498-3.04A1.75 1.75 0 0 1 2 16.827V7.176a1.75 1.75 0 0 1 1.093-1.622l7.498-3.04zm2.254 1.39a2.25 2.25 0 0 0-1.69 0L9.24 4.68l7.527 2.927 2.669-1.03zm1.846 4.505L7.215 5.5 4.59 6.564l7.411 2.882zM22 16.563v-.062zm-1.832 2.545a4.5 4.5 0 1 0-1.06 1.06l2.612 2.613a.75.75 0 1 0 1.06-1.06zm-.668-2.607a3 3 0 1 1-6 0 3 3 0 0 1 6 0" fill="currentColor"/></svg>