<svg xmlns="http://www.w3.org/2000/svg" viewBox="0 0 20 20"><path fill="currentColor" d="m10 7.96 3.029-1.21-7.5-3-2.586 1.034a1.5 1.5 0 0 0-.364.208L10 7.961zM2.035 5.853A1.5 1.5 0 0 0 2 6.176v7.646a1.5 1.5 0 0 0 .943 1.393L8.7 17.518q.391.156.8.214v-2.169A4.5 4.5 0 0 1 9 13.5c0-.743.18-1.445.5-2.063V8.838zM18 13.427v-7.25q0-.167-.035-.325L10.5 8.838v1.307a4.5 4.5 0 0 1 7.5 3.282m-.579-8.435-3.046 1.219-7.5-3L8.7 2.48a3.5 3.5 0 0 1 2.6 0l5.757 2.303a1.5 1.5 0 0 1 .364.208zm-1.118 10.604a3.5 3.5 0 1 0-.707.707l2.55 2.55a.5.5 0 1 0 .708-.707zM16 13.499a2.5 2.5 0 1 1-5 0 2.5 2.5 0 0 1 5 0"/></svg>