<svg xmlns="http://www.w3.org/2000/svg" xmlns:xlink="http://www.w3.org/1999/xlink" viewBox="0 0 20 20"><path d="m17.421 4.992-3.046 1.219-7.5-3L8.7 2.48a3.5 3.5 0 0 1 2.6 0l5.757 2.303a1.5 1.5 0 0 1 .364.208zm-7.42 2.969 3.028-1.212-7.5-3-2.586 1.035a1.5 1.5 0 0 0-.364.208zM2.034 5.852A1.5 1.5 0 0 0 2 6.176v7.646a1.5 1.5 0 0 0 .943 1.393L8.7 17.518q.15.06.303.105L9 17.5v-4c0-.563.186-1.083.5-1.5V8.837L2.035 5.852zM18 6.176v4.873l-.042-.008A2.5 2.5 0 0 0 15.5 9h-2a2.5 2.5 0 0 0-2.458 2.041q-.284.054-.542.166v-2.37l7.465-2.985q.035.158.035.324M12 12v-.5a1.5 1.5 0 0 1 1.5-1.5h2a1.5 1.5 0 0 1 1.5 1.5v.5h.5a1.5 1.5 0 0 1 1.5 1.5V15h-2v-.5a.5.5 0 0 0-1 0v.5h-3v-.5a.5.5 0 0 0-1 0v.5h-2v-1.5a1.5 1.5 0 0 1 1.5-1.5zm1-.5v.5h3v-.5a.5.5 0 0 0-.5-.5h-2a.5.5 0 0 0-.5.5m4 5V16h2v1.5a1.5 1.5 0 0 1-1.5 1.5h-6a1.5 1.5 0 0 1-1.5-1.5V16h2v.5a.5.5 0 1 0 1 0V16h3v.5a.5.5 0 1 0 1 0" fill="currentColor"/></svg>