<svg xmlns="http://www.w3.org/2000/svg" viewBox="0 0 20 20"><path fill="currentColor" d="M6.75 2.5A2.75 2.75 0 0 0 4 5.25v3.132c0 .397-.222.76-.574.942a.75.75 0 0 0 0 1.352c.352.182.574.545.574.942v3.132a2.75 2.75 0 0 0 2.75 2.75.75.75 0 0 0 0-1.5c-.69 0-1.25-.56-1.25-1.25v-3.132c0-.6-.21-1.17-.576-1.618A2.56 2.56 0 0 0 5.5 8.382V5.25C5.5 4.56 6.06 4 6.75 4a.75.75 0 0 0 0-1.5m6.5 0A2.75 2.75 0 0 1 16 5.25v3.132c0 .397.222.76.574.942a.75.75 0 0 1 0 1.352 1.06 1.06 0 0 0-.574.942v3.132a2.75 2.75 0 0 1-2.75 2.75.75.75 0 0 1 0-1.5c.69 0 1.25-.56 1.25-1.25v-3.132c0-.6.21-1.17.576-1.618a2.56 2.56 0 0 1-.576-1.618V5.25c0-.69-.56-1.25-1.25-1.25a.75.75 0 0 1 0-1.5"/></svg>