<svg xmlns="http://www.w3.org/2000/svg" xmlns:xlink="http://www.w3.org/1999/xlink" viewBox="0 0 20 20"><path d="M6 2a3 3 0 0 0-.5 5.959v3.791a.5.5 0 0 0 1 0V11H12a2.5 2.5 0 0 0 2.5-2.5v-.541a3 3 0 1 0-1 0V8.5A1.5 1.5 0 0 1 12 10H6.5V7.959A3 3 0 0 0 6 2M4.875 13.407a.5.5 0 1 0-.582-.814 3.02 3.02 0 0 0-1.122 1.55.5.5 0 1 0 .955.297 2 2 0 0 1 .749-1.033m2.903-.814a.5.5 0 1 0-.581.814 2.02 2.02 0 0 1 .748 1.033.5.5 0 1 0 .955-.297 3 3 0 0 0-1.122-1.55m-3.492 3.413a.5.5 0 0 0-.874.486 3 3 0 0 0 1.381 1.275.5.5 0 1 0 .414-.91 2 2 0 0 1-.92-.85zm4.373.486a.5.5 0 0 0-.874-.486 2 2 0 0 1-.978.875.5.5 0 1 0 .386.923 3 3 0 0 0 1.466-1.312" fill="currentColor"/></svg>