<svg xmlns="http://www.w3.org/2000/svg" xmlns:xlink="http://www.w3.org/1999/xlink" viewBox="0 0 32 32"><path d="M3.707 2.293a1 1 0 0 0-1.414 1.414L7.6 9.016A5 5 0 0 0 3 14v9a5 5 0 0 0 5 5h16c.757 0 1.474-.168 2.117-.469l2.176 2.176a1 1 0 0 0 1.414-1.414zm20.83 23.659A3 3 0 0 1 24 26H8a3 3 0 0 1-3-3v-9a3 3 0 0 1 3-3h1.586l14.952 14.952zM29 23c0 .724-.154 1.412-.43 2.033l-1.601-1.6q.03-.212.031-.433v-9a3 3 0 0 0-3-3h-9.464l-2-2H20V5h-8v3.464l-2-2V4a1 1 0 0 1 1-1h10a1 1 0 0 1 1 1v5h2a5 5 0 0 1 5 5z" fill="currentColor"/></svg>