<svg xmlns="http://www.w3.org/2000/svg" xmlns:xlink="http://www.w3.org/1999/xlink" viewBox="0 0 48 48"><path d="m37.865 39.633 4.001 4a1.25 1.25 0 0 0 1.768-1.767l-37.5-37.5a1.25 1.25 0 1 0-1.768 1.768L12.232 14A6.25 6.25 0 0 0 6 20.25v13.5A6.25 6.25 0 0 0 12.25 40h23.5a6.2 6.2 0 0 0 2.115-.367M35.732 37.5H12.25a3.75 3.75 0 0 1-3.75-3.75v-13.5a3.75 3.75 0 0 1 3.75-3.75h2.482zm3.768-3.75q0 .215-.024.423l2.026 2.026A6.2 6.2 0 0 0 42 33.75v-13.5A6.25 6.25 0 0 0 35.75 14H31.5V7.25c0-.69-.56-1.25-1.25-1.25h-12.5c-.69 0-1.25.56-1.25 1.25v3.947l2.5 2.5V8.5h10V14h-9.697l2.5 2.5H35.75a3.75 3.75 0 0 1 3.75 3.75z" fill="currentColor"/></svg>