<svg xmlns="http://www.w3.org/2000/svg" xmlns:xlink="http://www.w3.org/1999/xlink" viewBox="0 0 16 16"><path d="m13.195 13.902.951.952a.5.5 0 0 0 .708-.708l-13-13a.5.5 0 1 0-.708.708L4.293 5H3.5A2.5 2.5 0 0 0 1 7.5v4A2.5 2.5 0 0 0 3.5 14h9q.362-.001.695-.098M12.293 13H3.5A1.5 1.5 0 0 1 2 11.5v-4A1.5 1.5 0 0 1 3.5 6h1.793zM14 11.5q0 .175-.039.34l.777.776A2.5 2.5 0 0 0 15 11.5v-4A2.5 2.5 0 0 0 12.5 5H11V2.5a.5.5 0 0 0-.5-.5h-5a.5.5 0 0 0-.5.5v.379l1 1V3h4v2H7.121l1 1H12.5A1.5 1.5 0 0 1 14 7.5z" fill="currentColor"/></svg>