<svg xmlns="http://www.w3.org/2000/svg" viewBox="0 0 24 24"><path fill="currentColor" d="M11.5 12.5v-1.75a.75.75 0 0 1 1.5 0v1.75h1.75a.75.75 0 0 1 0 1.5H13v1.75a.75.75 0 0 1-1.5 0V14H9.75a.75.75 0 0 1 0-1.5zM8.75 3h6.5a.75.75 0 0 1 .743.648L16 3.75V7h1.75A3.25 3.25 0 0 1 21 10.25v6.5A3.25 3.25 0 0 1 17.75 20H6.25A3.25 3.25 0 0 1 3 16.75v-6.5A3.25 3.25 0 0 1 6.25 7H8V3.75a.75.75 0 0 1 .648-.743zm9 5.5H6.25a1.75 1.75 0 0 0-1.75 1.75v6.5c0 .966.784 1.75 1.75 1.75h11.5a1.75 1.75 0 0 0 1.75-1.75v-6.5a1.75 1.75 0 0 0-1.75-1.75m-3.25-4h-5V7h5z"/></svg>