<svg xmlns="http://www.w3.org/2000/svg" xmlns:xlink="http://www.w3.org/1999/xlink" viewBox="0 0 20 20"><path d="M10 5.874a.833.833 0 1 0 0-1.667.833.833 0 0 0 0 1.667m6 7.466V8h.092c.893 0 1.26-1.148.53-1.665l-5.85-4.152a1.33 1.33 0 0 0-1.544 0L3.376 6.335c-.728.517-.363 1.664.53 1.664H4v5.34c-.601.386-1 1.06-1 1.827v1.333a.5.5 0 0 0 .5.5h13a.5.5 0 0 0 .5-.5v-1.333c0-.767-.398-1.441-1-1.826M9.806 2.999a.33.33 0 0 1 .385 0l5.639 4H4.168zm5.192 5v5.006a2 2 0 0 0-.166-.006h-1.834V8h2zM5 13.005V8h2v5H5.166q-.084 0-.167.006zm.167.994h9.667c.644 0 1.166.522 1.166 1.167v.833H4v-.833c0-.645.523-1.167 1.167-1.167m4.333-1H8V8h1.5zm1 0V8H12v5z" fill="currentColor"/></svg>