<svg xmlns="http://www.w3.org/2000/svg" xmlns:xlink="http://www.w3.org/1999/xlink" viewBox="0 0 24 24"><path d="M6.75 2A2.25 2.25 0 0 0 4.5 4.25v16.5c0 .414.336.75.75.75H7.5v-4.25a.75.75 0 0 1 .75-.75h7.5a.75.75 0 0 1 .75.75v4.25h2.25a.75.75 0 0 0 .75-.75v-9a2.25 2.25 0 0 0-2.25-2.25h-.75V4.25A2.25 2.25 0 0 0 14.25 2zm.75 4.5a1 1 0 1 1 2 0 1 1 0 0 1-2 0m1 6a1 1 0 1 1 0 2 1 1 0 0 1 0-2m-1-2.5a1 1 0 1 1 2 0 1 1 0 0 1-2 0M12 5.5a1 1 0 1 1 0 2 1 1 0 0 1 0-2m-1 8a1 1 0 1 1 2 0 1 1 0 0 1-2 0m4.5-1a1 1 0 1 1 0 2 1 1 0 0 1 0-2M11 10a1 1 0 1 1 2 0 1 1 0 0 1-2 0m4 11.5V18h-2.25v3.5zm-3.75 0V18H9v3.5z" fill="currentColor"/></svg>