<svg xmlns="http://www.w3.org/2000/svg" xmlns:xlink="http://www.w3.org/1999/xlink" viewBox="0 0 24 24"><path d="M21 8.5v3.52a6.47 6.47 0 0 0-3.246-1.015 1.248 1.248 0 0 0-2.165.28 6.52 6.52 0 0 0-4.142 3.844 1.25 1.25 0 0 0-.43 1.894 6.5 6.5 0 0 0 .597 3.24l-.223.737H6.25A3.25 3.25 0 0 1 3 17.75V8.5zM7.25 15a1.25 1.25 0 1 0 0 2.5 1.25 1.25 0 0 0 0-2.5m0-4.5a1.25 1.25 0 1 0 0 2.5 1.25 1.25 0 0 0 0-2.5m4.75 0a1.25 1.25 0 1 0 0 2.5 1.25 1.25 0 0 0 0-2.5m5.97 1.52A5.5 5.5 0 0 1 21 13.256a5.501 5.501 0 0 1-6.166 9.058l-2.187.666a.5.5 0 0 1-.624-.625l.666-2.186a5.501 5.501 0 0 1 5.282-8.149zM15 16.5a.5.5 0 0 0 .5.5h4.002a.5.5 0 1 0 0-1H15.5a.5.5 0 0 0-.5.5m.5 2.5h2.001a.5.5 0 1 0 0-1h-2a.5.5 0 1 0 0 1zm2.25-16A3.25 3.25 0 0 1 21 6.25V7H3v-.75A3.25 3.25 0 0 1 6.25 3z" fill="currentColor"/></svg>