<svg xmlns="http://www.w3.org/2000/svg" xmlns:xlink="http://www.w3.org/1999/xlink" viewBox="0 0 16 16"><path d="M14 4.5A2.5 2.5 0 0 0 11.5 2h-7A2.5 2.5 0 0 0 2 4.5v7A2.5 2.5 0 0 0 4.5 14h1.757a5.5 5.5 0 0 1-.657-1H4.5A1.5 1.5 0 0 1 3 11.5V6h4.337c.895-.63 1.986-1 3.163-1 1.33 0 2.55.472 3.5 1.257zm-3.5.5H3v-.5A1.5 1.5 0 0 1 4.5 3h7A1.5 1.5 0 0 1 13 4.5V5zm-.625 3.5a.625.625 0 1 1 1.25 0 .625.625 0 0 1-1.25 0m1.125 4a.5.5 0 0 1-1 0v-2a.5.5 0 0 1 1 0zm-5-2a4.5 4.5 0 1 1 9 0 4.5 4.5 0 0 1-9 0m1 0a3.5 3.5 0 1 0 7 0 3.5 3.5 0 0 0-7 0" fill="currentColor"/></svg>