<svg xmlns="http://www.w3.org/2000/svg" viewBox="0 0 16 16"><path fill="currentColor" d="M4.5 14h1.757A5.48 5.48 0 0 1 5 10.5c0-1.86.923-3.505 2.337-4.5H2v5.5A2.5 2.5 0 0 0 4.5 14M2 5v-.5A2.5 2.5 0 0 1 4.5 2h7A2.5 2.5 0 0 1 14 4.5V5zm4.635 4.92a2 2 0 0 0 1.43-2.478l-.155-.557q.382-.293.821-.497l.338.358a2 2 0 0 0 2.91.001l.324-.343q.448.211.835.518l-.126.422a2 2 0 0 0 1.456 2.519l.349.082a4.7 4.7 0 0 1 .01 1.017l-.46.118a2 2 0 0 0-1.431 2.478l.156.556q-.382.295-.822.498l-.338-.358a2 2 0 0 0-2.909-.002l-.325.345a4.3 4.3 0 0 1-.835-.518l.127-.423a2 2 0 0 0-1.456-2.519l-.35-.083a4.7 4.7 0 0 1-.01-1.016zm4.865.58a1 1 0 1 0-2 0 1 1 0 0 0 2 0"/></svg>