<svg xmlns="http://www.w3.org/2000/svg" viewBox="0 0 20 20"><path fill="currentColor" d="M5.5 3A2.5 2.5 0 0 0 3 5.5V6h14v-.5A2.5 2.5 0 0 0 14.5 3zM17 7H3v7.5A2.5 2.5 0 0 0 5.5 17h3.921l.07-.227A5.5 5.5 0 0 1 9 14.5a5.48 5.48 0 0 1 1.293-3.544 1 1 0 1 1 .663-.663A5.48 5.48 0 0 1 14.5 9c.9 0 1.75.216 2.5.6zm-9 3a1 1 0 1 1-2 0 1 1 0 0 1 2 0m-1 4a1 1 0 1 1 0-2 1 1 0 0 1 0 2m3.563 2.682A4.5 4.5 0 0 1 14.5 10a4.5 4.5 0 1 1-2.18 8.437l-1.79.544a.41.41 0 0 1-.51-.51l.544-1.789zM16.5 13h-4a.5.5 0 0 0 0 1h4a.5.5 0 1 0 0-1m-4 2a.5.5 0 0 0 0 1h2a.5.5 0 1 0 0-1z"/></svg>