<svg xmlns="http://www.w3.org/2000/svg" xmlns:xlink="http://www.w3.org/1999/xlink" viewBox="0 0 32 32"><path d="M21.5 18a1.5 1.5 0 1 1 0-3 1.5 1.5 0 0 1 0 3M20 21.5a1.5 1.5 0 1 0 3 0 1.5 1.5 0 0 0-3 0M16 23a1.5 1.5 0 1 1 0-3 1.5 1.5 0 0 1 0 3m-1.5-6.5a1.5 1.5 0 1 0 3 0 1.5 1.5 0 0 0-3 0m-4 1.5a1.5 1.5 0 1 1 0-3 1.5 1.5 0 0 1 0 3M28 9a5 5 0 0 0-5-5H9a5 5 0 0 0-5 5v14a5 5 0 0 0 5 5h14a5 5 0 0 0 5-5zm-5-3a3 3 0 0 1 3 3v1H6V9a3 3 0 0 1 3-3zm3 17a3 3 0 0 1-3 3H9a3 3 0 0 1-3-3V12h20z" fill="currentColor"/></svg>