<svg xmlns="http://www.w3.org/2000/svg" viewBox="0 0 16 16"><path fill="currentColor" d="M14 4.5A2.5 2.5 0 0 0 11.5 2h-7A2.5 2.5 0 0 0 2 4.5v7A2.5 2.5 0 0 0 4.5 14h1.757a5.5 5.5 0 0 1-.657-1H4.5A1.5 1.5 0 0 1 3 11.5V6h4.337c.895-.63 1.986-1 3.163-1 1.33 0 2.55.472 3.5 1.257zm-3.5.5H3v-.5A1.5 1.5 0 0 1 4.5 3h7A1.5 1.5 0 0 1 13 4.5V5zM6.635 9.92a2 2 0 0 0 1.43-2.478l-.155-.557q.382-.293.821-.497l.338.358a2 2 0 0 0 2.91.001l.324-.343q.448.211.835.518l-.126.422a2 2 0 0 0 1.456 2.519l.349.082a4.7 4.7 0 0 1 .01 1.017l-.46.118a2 2 0 0 0-1.431 2.478l.156.556q-.382.295-.822.498l-.338-.358a2 2 0 0 0-2.909-.002l-.325.345a4.3 4.3 0 0 1-.835-.518l.127-.423a2 2 0 0 0-1.456-2.519l-.35-.083a4.7 4.7 0 0 1-.01-1.016zm4.865.58a1 1 0 1 0-2 0 1 1 0 0 0 2 0"/></svg>