<svg xmlns="http://www.w3.org/2000/svg" viewBox="0 0 20 20"><path fill="currentColor" d="M14.5 3A2.5 2.5 0 0 1 17 5.5v4.916a5 5 0 0 0-1-.316V7H4v7.5A1.5 1.5 0 0 0 5.5 16h4.6q.106.523.316 1H5.5A2.5 2.5 0 0 1 3 14.5v-9A2.5 2.5 0 0 1 5.5 3zm0 1h-9A1.5 1.5 0 0 0 4 5.5V6h12v-.5A1.5 1.5 0 0 0 14.5 4m.502 8a3.001 3.001 0 1 0 0 6.003c.46 0 .89-.105 1.283-.293a.5.5 0 1 1 .43.903c-.52.248-1.097.39-1.713.39a4.001 4.001 0 1 1 4.001-4.005v.5a1.502 1.502 0 0 1-2.646.972 2 2 0 1 1-.189-3.093.5.5 0 0 1 .832.374v1.747a.501.501 0 1 0 1.003 0v-.496A3 3 0 0 0 15.001 12zM14 15a1 1 0 1 0 2 0 1 1 0 0 0-2 0"/></svg>