<svg xmlns="http://www.w3.org/2000/svg" xmlns:xlink="http://www.w3.org/1999/xlink" viewBox="0 0 16 16"><path d="M11.498 2a2.5 2.5 0 0 1 2.5 2.5V6h-.455a3 3 0 0 0-.207 0H3v5.498a1.5 1.5 0 0 0 1.5 1.5h1.796l-.25 1H4.5a2.5 2.5 0 0 1-2.5-2.5V4.5A2.5 2.5 0 0 1 4.5 2zm0 1H4.5A1.5 1.5 0 0 0 3 4.5V5h9.998v-.5a1.5 1.5 0 0 0-1.5-1.5m1.86 3.999a2 2 0 0 1 .223.004 1.56 1.56 0 0 1 .962 2.657l-4.288 4.288a2.8 2.8 0 0 1-1.29.73l-1.21.303a.61.61 0 0 1-.74-.739l.303-1.21.009-.034a2.77 2.77 0 0 1 .722-1.256l4.287-4.288a1.55 1.55 0 0 1 1.023-.455z" fill="currentColor"/></svg>