<svg xmlns="http://www.w3.org/2000/svg" viewBox="0 0 20 20"><path fill="currentColor" d="M7 11a1 1 0 1 0 0-2 1 1 0 0 0 0 2m1 2a1 1 0 1 1-2 0 1 1 0 0 1 2 0m1 3H5.5A1.5 1.5 0 0 1 4 14.5V7h12v2.05c.37.075.71.231 1 .45v-4A2.5 2.5 0 0 0 14.5 3h-9A2.5 2.5 0 0 0 3 5.5v9A2.5 2.5 0 0 0 5.5 17H9zM5.5 4h9A1.5 1.5 0 0 1 16 5.5V6H4v-.5A1.5 1.5 0 0 1 5.5 4m4.5 7a1 1 0 1 0 0-2 1 1 0 0 0 0 2m2 1v-.5a1.5 1.5 0 0 1 1.5-1.5h2a1.5 1.5 0 0 1 1.5 1.5v.5h.5a1.5 1.5 0 0 1 1.5 1.5V15h-2v-.5a.5.5 0 0 0-1 0v.5h-3v-.5a.5.5 0 0 0-1 0v.5h-2v-1.5a1.5 1.5 0 0 1 1.5-1.5zm1-.5v.5h3v-.5a.5.5 0 0 0-.5-.5h-2a.5.5 0 0 0-.5.5m4 4.5h2v1.5a1.5 1.5 0 0 1-1.5 1.5h-6a1.5 1.5 0 0 1-1.5-1.5V16h2v.5a.5.5 0 0 0 1 0V16h3v.5a.5.5 0 0 0 1 0z"/></svg>