<svg xmlns="http://www.w3.org/2000/svg" xmlns:xlink="http://www.w3.org/1999/xlink" viewBox="0 0 16 16"><path d="M4.5 14h1.757A5.48 5.48 0 0 1 5 10.5c0-1.86.923-3.505 2.337-4.5H2v5.5A2.5 2.5 0 0 0 4.5 14M14 5H2v-.5A2.5 2.5 0 0 1 4.5 2h7A2.5 2.5 0 0 1 14 4.5zm-3.5 10a4.5 4.5 0 1 0 0-9 4.5 4.5 0 0 0 0 9m.954-5.608h1.544c.485 0 .687.647.295.944l-1.25.947.477 1.532c.15.48-.378.88-.77.583l-1.25-.947-1.25.947c-.392.297-.92-.103-.77-.583l.477-1.532-1.25-.947c-.392-.297-.19-.944.294-.944h1.546l.477-1.531a.494.494 0 0 1 .952 0z" fill="currentColor"/></svg>