<svg xmlns="http://www.w3.org/2000/svg" xmlns:xlink="http://www.w3.org/1999/xlink" viewBox="0 0 24 24"><path d="M21.78 3.28a.75.75 0 1 0-1.06-1.06L15 7.94l-1.87-1.87a.75.75 0 0 0-1.06 1.06l2.4 2.4a.75.75 0 0 0 1.06 0zM6.848 2.095l-1.076.344c-1.068.341-1.885 1.256-2.15 2.404q-.94 4.095 2.259 9.968 3.195 5.866 7.003 7.053c1.075.336 2.238.04 3.052-.777l.817-.822c.763-.765.874-2.012.26-2.915l-1.233-1.81c-.53-.778-1.468-1.108-2.33-.82l-2.276.758a8.7 8.7 0 0 1-2.271-2.595q-.91-1.563-1.085-3.177l1.895-1.798c.68-.646.888-1.685.514-2.568l-.86-2.027c-.432-1.02-1.51-1.54-2.519-1.218" fill="currentColor"/></svg>