<svg xmlns="http://www.w3.org/2000/svg" xmlns:xlink="http://www.w3.org/1999/xlink" viewBox="0 0 24 24"><path d="M15.5 2.75a.75.75 0 0 0-1.5 0v7.5a.75.75 0 0 0 1.5 0zm4 0a.75.75 0 0 0-1.5 0v7.5a.75.75 0 0 0 1.5 0zm-9.274 2.59-.86-2.027c-.432-1.02-1.51-1.54-2.518-1.218L5.77 2.44c-1.067.341-1.885 1.256-2.149 2.404q-.941 4.095 2.258 9.968 3.195 5.866 7.003 7.053c1.076.336 2.238.04 3.052-.777l.818-.822c.763-.765.873-2.012.259-2.915l-1.233-1.81c-.529-.778-1.468-1.108-2.33-.82l-2.276.758a8.7 8.7 0 0 1-2.27-2.595q-.91-1.563-1.085-3.177l1.894-1.798c.68-.646.889-1.685.514-2.568z" fill="currentColor"/></svg>