<svg xmlns="http://www.w3.org/2000/svg" xmlns:xlink="http://www.w3.org/1999/xlink" viewBox="0 0 24 24"><path d="m21.95 12.992-.198 1.037c-.185.971-1.093 1.623-2.121 1.524l-2.046-.198c-.892-.086-1.652-.72-1.879-1.566l-.631-2.355q-1.402-.575-3.09-.525a8.1 8.1 0 0 0-3.14.707l-.391 2.205c-.149.836-.838 1.459-1.712 1.547l-2.034.204c-1.015.102-1.989-.544-2.277-1.51l-.31-1.037c-.307-1.032-.033-2.118.722-2.851q2.67-2.595 8.907-2.604 6.244-.007 9.184 2.588c.825.728 1.21 1.806 1.015 2.834z" fill="currentColor"/></svg>