<svg xmlns="http://www.w3.org/2000/svg" xmlns:xlink="http://www.w3.org/1999/xlink" viewBox="0 0 24 24"><path d="m9.367 3.313.86 2.027c.375.884.167 1.923-.514 2.569L7.82 9.707q.175 1.613 1.084 3.177a8.7 8.7 0 0 0 2.271 2.594l2.276-.758c.862-.288 1.801.042 2.33.82l1.232 1.81c.616.904.505 2.15-.258 2.916l-.818.82c-.814.818-1.976 1.114-3.052.779q-3.808-1.188-7.003-7.054-3.199-5.874-2.258-9.967c.264-1.149 1.082-2.063 2.15-2.404l1.076-.344c1.008-.323 2.086.198 2.518 1.217zm5.131 5.126 6.22-6.223a.75.75 0 0 1 1.134.976l-.072.084L15.56 9.5h4.69a.75.75 0 0 1 .744.648l.006.102a.75.75 0 0 1-.648.743L20.25 11h-6.555l-.098-.014-.095-.026-.068-.029a.7.7 0 0 1-.215-.15l-.041-.043-.025-.032-.048-.069-.046-.091-.032-.092-.016-.07-.01-.081-.002-.053V3.745a.75.75 0 0 1 1.493-.102l.007.102zl6.22-6.223z" fill="currentColor"/></svg>