<svg xmlns="http://www.w3.org/2000/svg" xmlns:xlink="http://www.w3.org/1999/xlink" viewBox="0 0 24 24"><path d="m7.772 2.439 1.076-.344c1.009-.322 2.087.199 2.519 1.217l.86 2.028c.374.883.166 1.922-.514 2.568L9.818 9.706q.176 1.614 1.085 3.177a8.7 8.7 0 0 0 2.27 2.595l2.276-.76c.862-.287 1.802.044 2.33.821l1.233 1.81c.615.904.504 2.15-.259 2.916l-.817.821c-.814.817-1.977 1.114-3.052.778q-3.809-1.188-7.003-7.053-3.2-5.875-2.258-9.968c.264-1.148 1.081-2.063 2.149-2.404" fill="currentColor"/></svg>