<svg xmlns="http://www.w3.org/2000/svg" xmlns:xlink="http://www.w3.org/1999/xlink" viewBox="0 0 24 24"><path d="M2.5 4.25a.75.75 0 0 1 .75-.75h.558c.95 0 1.52.639 1.845 1.233.217.396.374.855.497 1.271L6.25 6h12.498c.83 0 1.43.794 1.202 1.593l-1.828 6.409a2.75 2.75 0 0 1-2.644 1.996H9.53a2.75 2.75 0 0 1-2.652-2.022l-.76-2.772-1.26-4.248-.001-.008c-.156-.567-.302-1.098-.52-1.494C4.128 5.069 3.96 5 3.809 5H3.25a.75.75 0 0 1-.75-.75M9 21a2 2 0 1 0 0-4 2 2 0 0 0 0 4m7 0a2 2 0 1 0 0-4 2 2 0 0 0 0 4" fill="currentColor"/></svg>