<svg xmlns="http://www.w3.org/2000/svg" viewBox="0 0 20 20"><path fill="currentColor" d="M4 3a2 2 0 0 0-2 2v8a2 2 0 0 0 2 2h7.5v-.671a5 5 0 0 1-.242-.329H4a1 1 0 0 1-1-1V5a1 1 0 0 1 1-1h12a1 1 0 0 1 1 1v2.468c.364.18.7.41 1 .678V5a2 2 0 0 0-2-2zm14.5 8.5a3.5 3.5 0 1 1-7 0 3.5 3.5 0 0 1 7 0M15 16c.925 0 1.785-.28 2.5-.758V18a.5.5 0 0 1-.8.4l-1.4-1.05a.5.5 0 0 0-.6 0l-1.4 1.05a.5.5 0 0 1-.8-.4v-2.758A4.5 4.5 0 0 0 15 16M5 6.5a.5.5 0 0 1 .5-.5h9a.5.5 0 0 1 0 1h-9a.5.5 0 0 1-.5-.5m.5 4.5a.5.5 0 0 0 0 1h4a.5.5 0 0 0 0-1z"/></svg>