<svg xmlns="http://www.w3.org/2000/svg" xmlns:xlink="http://www.w3.org/1999/xlink" viewBox="0 0 20 20"><path d="M2 5a2 2 0 0 1 2-2h12a2 2 0 0 1 2 2v3.146a4.5 4.5 0 0 0-1-.678V5a1 1 0 0 0-1-1H4a1 1 0 0 0-1 1v8a1 1 0 0 0 1 1h7.258q.114.17.242.329V15H4a2 2 0 0 1-2-2zm16.5 6.5c0 .954-.381 1.818-1 2.45V18a.5.5 0 0 1-.8.4l-1.4-1.05a.5.5 0 0 0-.6 0l-1.4 1.05a.5.5 0 0 1-.8-.4v-4.05a3.5 3.5 0 1 1 6-2.45M15 15c-.537 0-1.045-.12-1.5-.337v2.087l1.243-.746a.5.5 0 0 1 .514 0l1.243.746v-2.087A3.5 3.5 0 0 1 15 15m0-1a2.5 2.5 0 1 0 0-5 2.5 2.5 0 0 0 0 5M5 6.5a.5.5 0 0 1 .5-.5h9a.5.5 0 0 1 0 1h-9a.5.5 0 0 1-.5-.5m.5 4.5a.5.5 0 0 0 0 1h4a.5.5 0 0 0 0-1z" fill="currentColor"/></svg>