<svg xmlns="http://www.w3.org/2000/svg" viewBox="0 0 20 20"><path fill="currentColor" d="M5.5 3a2.5 2.5 0 0 0-2.302 1.523A2 2 0 1 1 3 8.437V14.5A2.5 2.5 0 0 0 5.5 17h4.1a5.5 5.5 0 0 1-.6-2.5c0-.9.216-1.75.6-2.5H7.5a.5.5 0 0 1 0-1h2.757A5.49 5.49 0 0 1 14.5 9c.9 0 1.75.216 2.5.6V5.5A2.5 2.5 0 0 0 14.5 3zM7 8.5a.5.5 0 0 1 .5-.5h5a.5.5 0 0 1 0 1h-5a.5.5 0 0 1-.5-.5m-3.5-3a1 1 0 1 0 0 2 1 1 0 0 0 0-2m15.5 9a4.5 4.5 0 1 1-9 0 4.5 4.5 0 0 1 9 0m-6.853-.354-.003.003a.5.5 0 0 0-.144.348v.006a.5.5 0 0 0 .146.35l2 2a.5.5 0 0 0 .708-.707L13.707 15H16.5a.5.5 0 0 0 0-1h-2.793l1.147-1.146a.5.5 0 0 0-.708-.708z"/></svg>