<svg xmlns="http://www.w3.org/2000/svg" xmlns:xlink="http://www.w3.org/1999/xlink" viewBox="0 0 20 20"><path d="M5.5 3a2.5 2.5 0 0 0-2.302 1.523A2 2 0 1 1 3 8.437V14.5A2.5 2.5 0 0 0 5.5 17h4.1a5.5 5.5 0 0 1-.6-2.5c0-.9.216-1.75.6-2.5H7.5a.5.5 0 0 1 0-1h2.757A5.49 5.49 0 0 1 14.5 9c.9 0 1.75.216 2.5.6V5.5A2.5 2.5 0 0 0 14.5 3zM7 8.5a.5.5 0 0 1 .5-.5h5a.5.5 0 0 1 0 1h-5a.5.5 0 0 1-.5-.5m-3.5-3a1 1 0 1 0 0 2 1 1 0 0 0 0-2m15.5 9a4.5 4.5 0 1 1-9 0 4.5 4.5 0 0 1 9 0M16.5 13a2 2 0 1 0-4 0v1.793l-.354.353A.5.5 0 0 0 12.5 16h4a.5.5 0 0 0 .354-.854l-.354-.353zm-3.415 4a1.5 1.5 0 0 0 2.83 0z" fill="currentColor"/></svg>