<svg xmlns="http://www.w3.org/2000/svg" xmlns:xlink="http://www.w3.org/1999/xlink" viewBox="0 0 20 20"><path d="M10 2a8 8 0 0 1 7.996 8.254 5.5 5.5 0 0 0-1.008-.66 7 7 0 1 0-13.094 3.83.5.5 0 0 1 .063.273l-.014.094-.756 3.021 3.024-.754a.5.5 0 0 1 .188-.01l.091.021.087.039c.92.517 1.947.82 3.017.88q.276.543.66 1.008a8 8 0 0 1-3.867-.857l-.121-.064-3.645.91a.5.5 0 0 1-.62-.441v-.082l.014-.083.91-3.644-.063-.12a8 8 0 0 1-.83-2.887l-.025-.382L2 10a8 8 0 0 1 8-8m9 12.5a4.5 4.5 0 1 1-9 0 4.5 4.5 0 0 1 9 0m-5.646-1.146a.5.5 0 0 0-.708-.708l-1.5 1.5a.5.5 0 0 0 0 .707l1.5 1.5a.5.5 0 0 0 .708-.707L12.207 14.5zm1.853.646.647-.646a.5.5 0 0 0-.708-.708l-1.5 1.5a.5.5 0 0 0 0 .707l1.5 1.5a.5.5 0 0 0 .708-.707L15.207 15H17v.5a.5.5 0 0 0 1 0V15a1 1 0 0 0-1-1z" fill="currentColor" opacity=".99"/></svg>