<svg xmlns="http://www.w3.org/2000/svg" viewBox="0 0 20 20"><path fill="currentColor" d="M10 2a8 8 0 1 1-3.613 15.14l-.121-.065-3.645.91a.5.5 0 0 1-.62-.441v-.082l.014-.083.91-3.644-.063-.12a8 8 0 0 1-.83-2.887l-.025-.382L2 10a8 8 0 0 1 8-8m0 1a7 7 0 0 0-6.106 10.425.5.5 0 0 1 .063.272l-.014.094-.756 3.021 3.024-.754a.5.5 0 0 1 .188-.01l.091.021.087.039A7 7 0 1 0 10 3m.5 8a.5.5 0 0 1 .09.992L10.5 12h-3a.5.5 0 0 1-.09-.992L7.5 11zm2-3a.5.5 0 0 1 .09.992L12.5 9h-5a.5.5 0 0 1-.09-.992L7.5 8z"/></svg>