<svg xmlns="http://www.w3.org/2000/svg" xmlns:xlink="http://www.w3.org/1999/xlink" viewBox="0 0 32 32"><path d="M11 13.999a1 1 0 0 1 1-1h8a1 1 0 1 1 0 2h-8a1 1 0 0 1-1-1m0 3.999a1 1 0 0 1 1-1h6a1 1 0 1 1 0 2h-6a1 1 0 0 1-1-1M16 3C8.82 3 3 8.82 3 15.998c0 2.075.487 4.038 1.353 5.78l-1.696 5.087c-.511 1.532.912 3.007 2.461 2.55l5.454-1.603A13 13 0 0 0 16 28.997c7.18 0 13-5.82 13-12.999C29 8.82 23.18 3 16 3M5 15.998C5 9.924 9.925 5 16 5s11 4.924 11 10.998c0 6.075-4.924 10.999-11 10.999-1.761 0-3.423-.413-4.897-1.147l-.351-.175-6.198 1.822 1.967-5.899-.206-.38A10.94 10.94 0 0 1 5 15.998" fill="currentColor"/></svg>