<svg xmlns="http://www.w3.org/2000/svg" xmlns:xlink="http://www.w3.org/1999/xlink" viewBox="0 0 16 16"><path d="M7 1a6 6 0 0 1 5.996 6.21A2.5 2.5 0 0 0 12 7.004V7a5 5 0 1 0-3.997 4.9v1.016A6 6 0 1 1 7 1m-.75 7.042 2.87-2.878a.5.5 0 0 1 .766.637l-.058.07-3.224 3.232a.5.5 0 0 1-.638.058l-.07-.057-1.75-1.75a.5.5 0 0 1 .638-.765l.07.057zm4.25 1.956-.07.002H10a1 1 0 0 0-1 1v3a1 1 0 0 0 1 1h4a1 1 0 0 0 1-1v-.5l.003-2.002q0-.047-.003-.094V11a1 1 0 0 0-1-1h-.425l-.072-.002H13.5v-.494a1.5 1.5 0 0 0-3 0zm1-.494a.5.5 0 0 1 1 0v.494h-1zM12 13a.5.5 0 1 1 0-1 .5.5 0 0 1 0 1" fill="currentColor"/></svg>