<svg xmlns="http://www.w3.org/2000/svg" viewBox="0 0 24 24"><path fill="currentColor" d="M17.25 2A2.75 2.75 0 0 1 20 4.75v6.587A3.5 3.5 0 0 0 18.5 11V4.75c0-.69-.56-1.25-1.25-1.25H4.75c-.69 0-1.25.56-1.25 1.25v12.5c0 .69.56 1.25 1.25 1.25h8.558A2.76 2.76 0 0 0 13 19.772v.103q0 .063.002.125H4.75A2.75 2.75 0 0 1 2 17.25V4.75A2.75 2.75 0 0 1 4.75 2zM9 13.44l6.47-6.47a.75.75 0 0 1 1.133.976l-.073.084-7 7a.75.75 0 0 1-.976.073l-.084-.073-3-3a.75.75 0 0 1 .976-1.133l.084.073zm12 1.06a2.5 2.5 0 1 1-5 0 2.5 2.5 0 0 1 5 0m2 5.375C23 21.431 21.714 23 18.5 23S14 21.437 14 19.875v-.103c0-.98.794-1.772 1.773-1.772h5.454c.98 0 1.773.793 1.773 1.772z"/></svg>