<svg xmlns="http://www.w3.org/2000/svg" viewBox="0 0 16 16"><path fill="currentColor" d="M2 3.5A1.5 1.5 0 0 1 3.5 2h7A1.5 1.5 0 0 1 12 3.5v3.527A4.5 4.5 0 0 0 7.027 12H3.5A1.5 1.5 0 0 1 2 10.5zm7.854 2.354a.5.5 0 0 0-.708-.708L6 8.293 4.854 7.146a.5.5 0 1 0-.708.708l1.5 1.5a.5.5 0 0 0 .708 0zM8 11.5a3.5 3.5 0 1 0 7 0 3.5 3.5 0 0 0-7 0m2.563-2.068a2.5 2.5 0 0 1 2.485.355A.5.5 0 0 1 14 10v1a.5.5 0 0 1-.5.5h-1a.5.5 0 0 1-.141-.98 1.5 1.5 0 0 0-1.92.17.5.5 0 1 1-.707-.708 2.5 2.5 0 0 1 .832-.55zm1.873 4.136a2.5 2.5 0 0 1-2.597-.45A.499.499 0 0 1 9 12.75v-1a.5.5 0 0 1 .5-.5h1a.5.5 0 0 1 0 1h-.12a1.5 1.5 0 0 0 2.18.06.5.5 0 1 1 .708.708 2.5 2.5 0 0 1-.832.55"/></svg>