<svg xmlns="http://www.w3.org/2000/svg" viewBox="0 0 24 24"><path fill="currentColor" d="M12 2c5.523 0 10 4.477 10 10q0 .64-.078 1.26a3.5 3.5 0 0 0-1.47-2.165A8.501 8.501 0 0 0 3.5 12a8.5 8.5 0 0 0 9.5 8.442V21.5q0 .229.04.447A10 10 0 0 1 12 22C6.477 22 2 17.523 2 12S6.477 2 12 2m8.487 10.482A2.5 2.5 0 0 0 16 14v1h-.5a1.5 1.5 0 0 0-1.5 1.5v5a1.5 1.5 0 0 0 1.5 1.5h6a1.5 1.5 0 0 0 1.5-1.5v-5a1.5 1.5 0 0 0-1.5-1.5H21v-1a2.5 2.5 0 0 0-.513-1.518m-2.38 7.438a1 1 0 1 1 .787-1.84 1 1 0 0 1-.787 1.84M17.5 14a1 1 0 1 1 2 0v1h-2zm-6.75-.56 4.47-4.47a.75.75 0 0 1 1.133.976l-.073.084-5 5a.75.75 0 0 1-.976.073l-.084-.073-2.5-2.5a.75.75 0 0 1 .976-1.133l.084.073z"/></svg>