<svg xmlns="http://www.w3.org/2000/svg" viewBox="0 0 20 20"><path fill="currentColor" d="M12.854 6.146a.5.5 0 0 1 0 .708l-5 5a.5.5 0 0 1-.708 0l-2-2a.5.5 0 1 1 .708-.708L7.5 10.793l4.646-4.647a.5.5 0 0 1 .708 0M2 4.682C2 3.2 3.2 2 4.682 2h8.636C14.8 2 16 3.2 16 4.682v4.525a5.5 5.5 0 0 0-1-.185v-4.34C15 3.753 14.247 3 13.318 3H4.682C3.753 3 3 3.753 3 4.682v8.636C3 14.247 3.753 15 4.682 15h4.34a5.5 5.5 0 0 0 .185 1H4.682A2.68 2.68 0 0 1 2 13.318zM14.5 19a4.5 4.5 0 1 1 0-9 4.5 4.5 0 0 1 0 9m1.5-7v.152a3 3 0 0 0-1.448-.401 3 3 0 0 0-2.173.878.5.5 0 0 0 .707.707A2 2 0 0 1 15.468 13H15a.5.5 0 0 0 0 1h1.5a.5.5 0 0 0 .5-.5V12a.5.5 0 0 0-1 0m-1.552 5.25a3 3 0 0 0 2.173-.879.5.5 0 0 0-.707-.707 2 2 0 0 1-2.382.336H14a.5.5 0 0 0 0-1h-1.5a.5.5 0 0 0-.5.5V17a.5.5 0 0 0 1 0v-.152a3 3 0 0 0 1.448.402"/></svg>