<svg xmlns="http://www.w3.org/2000/svg" xmlns:xlink="http://www.w3.org/1999/xlink" viewBox="0 0 24 24"><g fill="none"><path d="M17 2a3 3 0 0 1 3 3v8.518a1.75 1.75 0 0 0-.843.365l-2.5 2a1.75 1.75 0 0 0 1.843 2.949v.767A3 3 0 0 1 17 20H5a3 3 0 0 1-3-3V5a3 3 0 0 1 3-3zm-1.53 4.97L9 13.44l-2.47-2.47a.75.75 0 0 0-1.06 1.06l3 3a.75.75 0 0 0 1.06 0l7-7a.75.75 0 0 0-1.06-1.06" fill="currentColor"/><path d="M21 15.25a.75.75 0 0 0-1.218-.586l-2.5 2a.75.75 0 1 0 .936 1.172L19.5 16.81v4.439a.75.75 0 0 0 1.5 0v-6z" fill="currentColor"/></g></svg>