<svg xmlns="http://www.w3.org/2000/svg" xmlns:xlink="http://www.w3.org/1999/xlink" viewBox="0 0 20 20"><path d="M2 4.682C2 3.2 3.2 2 4.682 2h8.636C14.8 2 16 3.2 16 4.682v4.993c-.894-1.026-2.636-.882-3.292.432L9.765 16H4.682A2.68 2.68 0 0 1 2 13.318zm10.854 2.172a.5.5 0 0 0-.708-.708L7.5 10.793 5.854 9.146a.5.5 0 1 0-.708.708l2 2a.5.5 0 0 0 .708 0zm.744 3.7-3.496 6.998A1 1 0 0 0 10.997 19h6.996a1 1 0 0 0 .895-1.448l-3.5-6.999a1 1 0 0 0-1.79 0zm1.395 1.941v3.002a.5.5 0 0 1-1 0v-3.002a.5.5 0 1 1 1 0m-.5 5.504a.5.5 0 1 1 0-1 .5.5 0 0 1 0 1" fill="currentColor"/></svg>