<svg xmlns="http://www.w3.org/2000/svg" viewBox="0 0 20 20"><path fill="currentColor" d="M2 4.682C2 3.2 3.2 2 4.682 2h8.636C14.8 2 16 3.2 16 4.682v4.525A5.5 5.5 0 0 0 9.207 16H4.682A2.68 2.68 0 0 1 2 13.318zm10.854 2.172a.5.5 0 0 0-.708-.708L7.5 10.793 5.854 9.146a.5.5 0 1 0-.708.708l2 2a.5.5 0 0 0 .708 0zM19 14.5a4.5 4.5 0 1 1-9 0 4.5 4.5 0 0 1 9 0m-2.147.354.003-.003a.5.5 0 0 0 .144-.348v-.006a.5.5 0 0 0-.146-.35l-2-2a.5.5 0 0 0-.708.707L15.293 14H12.5a.5.5 0 0 0 0 1h2.793l-1.147 1.146a.5.5 0 0 0 .708.708z"/></svg>