<svg xmlns="http://www.w3.org/2000/svg" xmlns:xlink="http://www.w3.org/1999/xlink" viewBox="0 0 20 20"><path d="M12.854 6.854a.5.5 0 0 0-.708-.708L7.5 10.793 5.854 9.146a.5.5 0 1 0-.708.708l2 2a.5.5 0 0 0 .708 0zM4.682 2A2.68 2.68 0 0 0 2 4.682v8.636C2 14.8 3.2 16 4.682 16h4.525a5.5 5.5 0 0 1-.185-1h-4.34A1.68 1.68 0 0 1 3 13.318V4.682C3 3.753 3.753 3 4.682 3h8.636C14.247 3 15 3.753 15 4.682v4.34a5.5 5.5 0 0 1 1 .185V4.682C16 3.2 14.8 2 13.318 2zM19 14.5a4.5 4.5 0 1 1-9 0 4.5 4.5 0 0 1 9 0m-2.147.354.003-.003a.5.5 0 0 0 .144-.348v-.006a.5.5 0 0 0-.146-.35l-2-2a.5.5 0 0 0-.708.707L15.293 14H12.5a.5.5 0 0 0 0 1h2.793l-1.147 1.146a.5.5 0 0 0 .708.708z" fill="currentColor"/></svg>