<svg xmlns="http://www.w3.org/2000/svg" xmlns:xlink="http://www.w3.org/1999/xlink" viewBox="0 0 20 20"><path d="M4.682 2A2.68 2.68 0 0 0 2 4.682v8.636C2 14.8 3.2 16 4.682 16h4.525A5.5 5.5 0 0 1 16 9.207V4.682C16 3.2 14.8 2 13.318 2zm8.172 4.146a.5.5 0 0 1 0 .708l-5 5a.5.5 0 0 1-.708 0l-2-2a.5.5 0 1 1 .708-.708L7.5 10.793l4.646-4.647a.5.5 0 0 1 .708 0M14.5 19a4.5 4.5 0 1 1 0-9 4.5 4.5 0 0 1 0 9m1.5-7v.152a3 3 0 0 0-1.448-.401 3 3 0 0 0-2.173.878.5.5 0 0 0 .707.707A2 2 0 0 1 15.468 13H15a.5.5 0 0 0 0 1h1.5a.5.5 0 0 0 .5-.5V12a.5.5 0 0 0-1 0m-1.552 5.25a3 3 0 0 0 2.173-.879.5.5 0 0 0-.707-.707 2 2 0 0 1-2.382.336H14a.5.5 0 0 0 0-1h-1.5a.5.5 0 0 0-.5.5V17a.5.5 0 0 0 1 0v-.152a3 3 0 0 0 1.448.402" fill="currentColor"/></svg>