<svg xmlns="http://www.w3.org/2000/svg" viewBox="0 0 20 20"><path fill="currentColor" d="M12.854 6.854a.5.5 0 0 0-.708-.708L7.5 10.793 5.854 9.146a.5.5 0 1 0-.708.708l2 2a.5.5 0 0 0 .708 0zM4.682 2A2.68 2.68 0 0 0 2 4.682v8.636C2 14.8 3.2 16 4.682 16h6.368c.075-.37.231-.71.45-1H4.682A1.68 1.68 0 0 1 3 13.318V4.682C3 3.753 3.753 3 4.682 3h8.636C14.247 3 15 3.753 15 4.682v4.36a3 3 0 0 1 1 0v-4.36C16 3.2 14.8 2 13.318 2zM17.5 12a2 2 0 1 1-4 0 2 2 0 0 1 4 0m1.5 4.5c0 1.245-1 2.5-3.5 2.5S12 17.75 12 16.5a1.5 1.5 0 0 1 1.5-1.5h4a1.5 1.5 0 0 1 1.5 1.5"/></svg>