<svg xmlns="http://www.w3.org/2000/svg" xmlns:xlink="http://www.w3.org/1999/xlink" viewBox="0 0 16 16"><path d="M7 1a6 6 0 0 1 5.996 6.207A2.5 2.5 0 0 0 9.54 9.053 2 2 0 0 0 8 11v1.917A6 6 0 1 1 7 1m2.12 4.164L6.25 8.042 4.854 6.646a.5.5 0 1 0-.708.708l1.75 1.75a.5.5 0 0 0 .708 0L9.828 5.87a.5.5 0 0 0-.708-.706M10.43 10l.071-.002v-.494a1.5 1.5 0 1 1 3 0v.494h.003q.038 0 .075.002H14a1 1 0 0 1 1 1v.39q.004.053.004.108V13.5q0 .055-.004.109V14a1 1 0 0 1-1 1h-4a1 1 0 0 1-1-1v-3a1 1 0 0 1 1-1zM12 9.004a.5.5 0 0 0-.5.5v.494h1v-.494a.5.5 0 0 0-.5-.5m.5 3.496a.5.5 0 1 0-1 0 .5.5 0 0 0 1 0" fill="currentColor"/></svg>