<svg xmlns="http://www.w3.org/2000/svg" viewBox="0 0 16 16"><path fill="currentColor" d="M8.854 4.854a.5.5 0 1 0-.708-.708L5 7.293 3.854 6.146a.5.5 0 1 0-.708.708l1.5 1.5a.5.5 0 0 0 .708 0zM1 2.5A1.5 1.5 0 0 1 2.5 1h7A1.5 1.5 0 0 1 11 2.5v2.541a3 3 0 0 0-1 .36V2.5a.5.5 0 0 0-.5-.5h-7a.5.5 0 0 0-.5.5v7a.5.5 0 0 0 .5.5h6.764l.009.01c-.724.065-1.36.44-1.773.99h-5A1.5 1.5 0 0 1 1 9.5zM13.5 8a2 2 0 1 1-4 0 2 2 0 0 1 4 0m1.5 4.5c0 1.245-1 2.5-3.5 2.5S8 13.75 8 12.5A1.5 1.5 0 0 1 9.5 11h4a1.5 1.5 0 0 1 1.5 1.5"/></svg>