<svg xmlns="http://www.w3.org/2000/svg" viewBox="0 0 24 24"><g fill="currentColor"><path d="M17.25 2A2.75 2.75 0 0 1 20 4.75v8.768a1.75 1.75 0 0 0-.843.365l-.657.526V4.75c0-.69-.56-1.25-1.25-1.25H4.75c-.69 0-1.25.56-1.25 1.25v12.5c0 .69.56 1.25 1.25 1.25h11.775c.527.517 1.32.643 1.975.332v.868c-.375.192-.8.3-1.25.3H4.75A2.75 2.75 0 0 1 2 17.25V4.75A2.75 2.75 0 0 1 4.75 2z"/><path d="M19.782 14.664A.75.75 0 0 1 21 15.25v6a.75.75 0 0 1-1.5 0v-4.44l-1.282 1.026a.75.75 0 0 1-.936-1.172zM9 13.44l6.47-6.47a.75.75 0 0 1 1.133.976l-.073.084-7 7a.75.75 0 0 1-.976.073l-.084-.073-3-3a.75.75 0 0 1 .976-1.133l.084.073z"/></g></svg>