<svg xmlns="http://www.w3.org/2000/svg" viewBox="0 0 24 24"><path fill="currentColor" d="M17 2a3 3 0 0 1 3 3v6.337A3.5 3.5 0 0 0 16.05 17h-.277A2.77 2.77 0 0 0 13 19.772v.103q0 .063.002.125H5a3 3 0 0 1-3-3V5a3 3 0 0 1 3-3zm-1.53 4.97L9 13.44l-2.47-2.47a.75.75 0 0 0-1.06 1.06l3 3a.75.75 0 0 0 1.06 0l7-7a.75.75 0 0 0-1.06-1.06M21 14.5a2.5 2.5 0 1 1-5 0 2.5 2.5 0 0 1 5 0m2 5.375C23 21.431 21.714 23 18.5 23S14 21.437 14 19.875v-.103c0-.98.794-1.772 1.773-1.772h5.454c.98 0 1.773.793 1.773 1.772z"/></svg>