<svg xmlns="http://www.w3.org/2000/svg" viewBox="0 0 20 20"><path fill="currentColor" d="M12.854 6.854a.5.5 0 0 0-.708-.708L7.5 10.793 5.854 9.146a.5.5 0 1 0-.708.708l2 2a.5.5 0 0 0 .708 0zM4.682 2A2.68 2.68 0 0 0 2 4.682v8.636C2 14.8 3.2 16 4.682 16h5.083l.5-1H4.681A1.68 1.68 0 0 1 3 13.318V4.682C3 3.753 3.753 3 4.682 3h8.636C14.247 3 15 3.753 15 4.682v4.38c.376.096.727.3 1 .613V4.682C16 3.2 14.8 2 13.318 2zm8.916 8.554-3.496 6.998A1 1 0 0 0 10.997 19h6.996a1 1 0 0 0 .895-1.448l-3.5-6.999a1 1 0 0 0-1.79 0zm1.395 1.941v3.002a.5.5 0 0 1-1 0v-3.002a.5.5 0 1 1 1 0m-.5 5.504a.5.5 0 1 1 0-1 .5.5 0 0 1 0 1"/></svg>