<svg xmlns="http://www.w3.org/2000/svg" xmlns:xlink="http://www.w3.org/1999/xlink" viewBox="0 0 24 24"><g fill="none"><path d="M17 2a3 3 0 0 1 3 3v6.498A6.5 6.5 0 0 0 11.498 20H5a3 3 0 0 1-3-3V5a3 3 0 0 1 3-3zm-1.53 4.97L9 13.44l-2.47-2.47a.75.75 0 0 0-1.06 1.06l3 3a.75.75 0 0 0 1.06 0l7-7a.75.75 0 0 0-1.06-1.06" fill="currentColor"/><path d="M23 17.5a5.5 5.5 0 1 1-11 0 5.5 5.5 0 0 1 11 0m-8.5-.5a.5.5 0 0 0 0 1h4.793l-1.647 1.646a.5.5 0 0 0 .708.708l2.5-2.5a.5.5 0 0 0 0-.708l-2.5-2.5a.5.5 0 0 0-.708.708L19.293 17z" fill="currentColor"/></g></svg>