<svg xmlns="http://www.w3.org/2000/svg" viewBox="0 0 24 24"><path fill="currentColor" d="M9.018 6.002 7.527 7.504l-3.277.001a.75.75 0 0 0-.75.75v11.496c0 .414.336.75.75.75h11.5a.75.75 0 0 0 .75-.75l-.002-3.279L18 14.981v4.77A2.25 2.25 0 0 1 15.75 22H4.25A2.25 2.25 0 0 1 2 19.75V8.255a2.25 2.25 0 0 1 2.25-2.25zM5.22 12.22l1.999-1.997a.75.75 0 0 1 .976-.073l.084.073 5.501 5.497a.75.75 0 0 1 .073.977l-.073.084-2 2a.75.75 0 0 1-.976.073l-.084-.073-5.5-5.5a.75.75 0 0 1-.073-.977zl1.999-1.997zm2.529-.406-.938.937 4.439 4.44.94-.94zm13.53-9.095a2.58 2.58 0 0 1-.467 4.016l-.147.085-1.168.618.516.515a3.25 3.25 0 0 1 .135 4.452l-.135.144-1.233 1.232a.75.75 0 0 1-.976.073l-.084-.073-.47-.47-1.47 1.47a.75.75 0 0 1-.976.073l-.084-.073-5.5-5.5a.75.75 0 0 1-.073-.977l.073-.084 1.469-1.47-.47-.469a.75.75 0 0 1-.072-.977l.073-.084 1.231-1.23a3.254 3.254 0 0 1 4.452-.135l.144.135.514.514.618-1.167q.136-.256.324-.475l.13-.141a2.58 2.58 0 0 1 3.647-.002zm-9.53 5.095-.938.937 4.439 4.44.94-.94zm.887-2.876-.125.113-.7.7 6.439 6.44.702-.703a1.75 1.75 0 0 0 .018-2.457l-3.982-3.98a1.754 1.754 0 0 0-2.352-.113m6.059-1.157q-.075.075-.136.166l-.054.092-.833 1.573.716.717 1.575-.835a1.077 1.077 0 1 0-1.268-1.713"/></svg>