<svg xmlns="http://www.w3.org/2000/svg" viewBox="0 0 24 24"><path fill="currentColor" d="M13.75 2a2.25 2.25 0 0 1 2.236 2h1.764A2.25 2.25 0 0 1 20 6.25V18.5q-.286.214-.5.5a2.5 2.5 0 0 0-1-.792V6.25a.75.75 0 0 0-.75-.75h-2.129c-.404.603-1.091 1-1.871 1h-3.5c-.78 0-1.467-.397-1.871-1H6.25a.75.75 0 0 0-.75.75v13.5c0 .414.336.75.75.75H11c0 .563.186 1.082.5 1.5H6.25A2.25 2.25 0 0 1 4 19.75V6.25A2.25 2.25 0 0 1 6.25 4h1.764a2.25 2.25 0 0 1 2.236-2zm2.245 2.096L16 4.25q0-.078-.005-.154M13.75 3.5h-3.5a.75.75 0 0 0 0 1.5h3.5a.75.75 0 0 0 0-1.5M17.5 22a1.5 1.5 0 1 1 0-3 1.5 1.5 0 0 1 0 3m-4 0a1.5 1.5 0 1 1 0-3 1.5 1.5 0 0 1 0 3m8 0a1.5 1.5 0 1 0 0-3 1.5 1.5 0 0 0 0 3"/></svg>