<svg xmlns="http://www.w3.org/2000/svg" viewBox="0 0 24 24"><path fill="currentColor" d="M13.75 2h-3.5a2.25 2.25 0 0 0-2.236 2H6.25A2.25 2.25 0 0 0 4 6.25v13.5A2.25 2.25 0 0 0 6.25 22h4.831a1.5 1.5 0 0 1 .046-1.115l1.791-3.982.016-.035.833-1.853V15h.007l1.85-4.115a1.5 1.5 0 0 1 2.736-.001L20 14.522V6.25A2.25 2.25 0 0 0 17.75 4h-1.764a2.25 2.25 0 0 0-2.236-2m-3.5 1.5h3.5a.75.75 0 0 1 0 1.5h-3.5a.75.75 0 0 1 0-1.5M12.508 22a.5.5 0 0 1-.218-.044.5.5 0 0 1-.25-.661l1.794-3.99.006-.013q0-.004.003-.007l2.694-5.99a.5.5 0 0 1 .911 0l2.7 5.99.01.02 1.798 3.99a.5.5 0 1 1-.912.41L19.374 18h-4.756l-1.667 3.705a.5.5 0 0 1-.443.295m4.485-9.282L15.067 17h3.856z"/></svg>