<svg xmlns="http://www.w3.org/2000/svg" xmlns:xlink="http://www.w3.org/1999/xlink" viewBox="0 0 20 20"><path d="M7.085 3A1.5 1.5 0 0 1 8.5 2h3a1.5 1.5 0 0 1 1.415 1H14.5A1.5 1.5 0 0 1 16 4.5v10.768a2 2 0 0 0-.5.41 2 2 0 0 0-.5-.41V4.5a.5.5 0 0 0-.5-.5h-1.585A1.5 1.5 0 0 1 11.5 5h-3a1.5 1.5 0 0 1-1.415-1H5.5a.5.5 0 0 0-.5.5v12a.5.5 0 0 0 .5.5H9c0 .364.097.706.268 1H5.5A1.5 1.5 0 0 1 4 16.5v-12A1.5 1.5 0 0 1 5.5 3zM8.5 3a.5.5 0 0 0 0 1h3a.5.5 0 0 0 0-1zM11 18a1 1 0 1 0 0-2 1 1 0 0 0 0 2m3 0a1 1 0 1 0 0-2 1 1 0 0 0 0 2m4-1a1 1 0 1 1-2 0 1 1 0 0 1 2 0" fill="currentColor"/></svg>