<svg xmlns="http://www.w3.org/2000/svg" viewBox="0 0 24 24"><path fill="currentColor" d="M13.75 2a2.25 2.25 0 0 1 2.236 2h1.764A2.25 2.25 0 0 1 20 6.25v8.272l-1.5-3.328V6.25a.75.75 0 0 0-.75-.75h-2.129c-.404.603-1.091 1-1.871 1h-3.5c-.78 0-1.467-.397-1.871-1H6.25a.75.75 0 0 0-.75.75v13.5c0 .414.336.75.75.75h5.05l-.173.385A1.5 1.5 0 0 0 11.081 22H6.25A2.25 2.25 0 0 1 4 19.75V6.25A2.25 2.25 0 0 1 6.25 4h1.764a2.25 2.25 0 0 1 2.236-2zm2.245 2.096L16 4.25q0-.078-.005-.154M13.75 3.5h-3.5a.75.75 0 0 0 0 1.5h3.5a.75.75 0 0 0 0-1.5m3.698 7.794a.5.5 0 0 0-.912 0l-2.693 5.991-.01.02-1.793 3.99a.5.5 0 1 0 .912.41L14.617 18h4.756l1.67 3.706a.5.5 0 0 0 .912-.412l-1.799-3.99-.009-.02-2.7-5.99zM18.923 17h-3.856l1.926-4.282z"/></svg>