<svg xmlns="http://www.w3.org/2000/svg" viewBox="0 0 24 24"><path fill="currentColor" d="M12 2C6.478 2 2 6.478 2 12q.001.67.086 1.316A2.75 2.75 0 0 1 4.75 11.25h3.5A2.75 2.75 0 0 1 11 14v.05a2.5 2.5 0 0 1 2 2.45v5q0 .233-.041.455C18.03 21.472 22 17.199 22 12c0-5.522-4.478-10-10-10m3.75 11.5h-4a.75.75 0 0 1-.75-.75v-6a.75.75 0 0 1 1.5 0V12h3.25a.75.75 0 0 1 0 1.5M3 15h-.5A1.5 1.5 0 0 0 1 16.5V18h2.5v-.25a.75.75 0 0 1 1.5 0V18h3v-.25a.75.75 0 0 1 1.5 0V18H12v-1.5a1.5 1.5 0 0 0-1.5-1.5H10v-1a1.75 1.75 0 0 0-1.75-1.75h-3.5A1.75 1.75 0 0 0 3 14zm1.5-1a.25.25 0 0 1 .25-.25h3.5a.25.25 0 0 1 .25.25v1h-4zM1 21.5v-2h2.5v.75a.75.75 0 0 0 1.5 0v-.75h3v.75a.75.75 0 0 0 1.5 0v-.75H12v2a1.5 1.5 0 0 1-1.5 1.5h-8A1.5 1.5 0 0 1 1 21.5"/></svg>