<svg xmlns="http://www.w3.org/2000/svg" viewBox="0 0 20 20"><path fill="currentColor" d="M11 1a8 8 0 1 1-.589 15.979 5.5 5.5 0 0 0 .383-.982 7 7 0 1 0-6.79-6.79 5.4 5.4 0 0 0-.983.382A8 8 0 0 1 11 1m-.5 3a.5.5 0 0 1 .492.41L11 4.5V9h2.5a.5.5 0 0 1 .09.992L13.5 10h-3a.5.5 0 0 1-.492-.41L10 9.5v-5a.5.5 0 0 1 .5-.5M10 14.5a4.5 4.5 0 1 1-9 0 4.5 4.5 0 0 1 9 0m-2.646-1.146a.5.5 0 0 0-.708-.708L5.5 13.793l-1.146-1.147a.5.5 0 0 0-.708.708L4.793 14.5l-1.147 1.146a.5.5 0 0 0 .708.708L5.5 15.207l1.146 1.147a.5.5 0 0 0 .708-.708L6.207 14.5z"/></svg>