<svg xmlns="http://www.w3.org/2000/svg" xmlns:xlink="http://www.w3.org/1999/xlink" viewBox="0 0 24 24"><path d="M15.75 13.5h-4a1 1 0 0 1-.136-.012A6.47 6.47 0 0 1 13 17.5a6.48 6.48 0 0 1-1.78 4.47q.385.03.78.03c5.522 0 10-4.478 10-10S17.522 2 12 2 2 6.478 2 12q0 .395.03.78A6.48 6.48 0 0 1 6.5 11c1.748 0 3.334.69 4.502 1.812L11 12.75v-6a.75.75 0 0 1 1.5 0V12h3.25a.75.75 0 0 1 0 1.5m-3.75 4a5.5 5.5 0 1 1-11 0 5.5 5.5 0 0 1 11 0m-7.5-3a.5.5 0 0 0-.5.5v5a.5.5 0 0 0 1 0v-5a.5.5 0 0 0-.5-.5m4 0a.5.5 0 0 0-.5.5v5a.5.5 0 0 0 1 0v-5a.5.5 0 0 0-.5-.5" fill="currentColor"/></svg>