<svg xmlns="http://www.w3.org/2000/svg" xmlns:xlink="http://www.w3.org/1999/xlink" viewBox="0 0 24 24"><path d="M6.5 12a5.5 5.5 0 1 1 0 11 5.5 5.5 0 0 1 0-11M13 1c5.523 0 10 4.478 10 10s-4.477 10-10 10q-.503 0-.992-.049a6.4 6.4 0 0 0 .73-1.621l.262.003c4.595 0 8.333-3.738 8.333-8.333S17.595 2.667 13 2.667 4.667 6.405 4.667 11l.004.261a6.5 6.5 0 0 0-1.622.73A10 10 0 0 1 3 11C3 5.478 7.477 1 13 1M3.716 14.589l-.07.057-.057.07a.5.5 0 0 0 0 .568l.057.07L5.793 17.5l-2.147 2.146-.057.07a.5.5 0 0 0 0 .568l.057.07.07.057a.5.5 0 0 0 .568 0l.07-.057L6.5 18.207l2.146 2.147.07.057a.5.5 0 0 0 .568 0l.07-.057.057-.07a.5.5 0 0 0 0-.568l-.057-.07L7.207 17.5l2.147-2.146.057-.07a.5.5 0 0 0 0-.568l-.057-.07-.07-.057a.5.5 0 0 0-.568 0l-.07.057L6.5 16.793l-2.146-2.147-.07-.057a.5.5 0 0 0-.492-.044zM12.25 5a.75.75 0 0 1 .743.648L13 5.75V11h3.25a.75.75 0 0 1 .102 1.493l-.102.007h-4a.75.75 0 0 1-.743-.648l-.007-.102v-6a.75.75 0 0 1 .75-.75" fill="currentColor"/></svg>