<svg xmlns="http://www.w3.org/2000/svg" viewBox="0 0 16 16"><path fill="currentColor" d="m11.787 12.494 2.36 2.36a.5.5 0 0 0 .707-.708l-13-13a.5.5 0 1 0-.708.708L4.434 5.14a4.3 4.3 0 0 0-.406 1.383C1.965 6.735 1 8.322 1 9.5c0 .573.142 1.332.686 1.954.556.636 1.46 1.046 2.814 1.046h7q.146 0 .287-.006m-.994-.994H4.5c-1.146 0-1.742-.34-2.061-.704C2.108 10.418 2 9.927 2 9.5c0-.736.688-2 2.5-2A.5.5 0 0 0 5 7c0-.349.063-.729.196-1.097zm2.63-.556q-.094.081-.205.153l.718.718q.073-.056.142-.116c.63-.547.922-1.322.922-2.199 0-.943-.469-1.705-1.132-2.218a3.87 3.87 0 0 0-1.89-.753c-.113-1.16-.638-2.022-1.349-2.603C9.841 3.28 8.85 3 8 3c-.91 0-1.658.24-2.25.628l.728.728C6.882 4.136 7.383 4 8 4c.65 0 1.409.22 1.996.7C10.567 5.166 11 5.9 11 7a.5.5 0 0 0 .5.5c.648 0 1.289.212 1.757.574.462.356.743.844.743 1.426 0 .648-.208 1.123-.578 1.444z"/></svg>