<svg xmlns="http://www.w3.org/2000/svg" viewBox="0 0 24 24"><path fill="currentColor" d="M6.087 7.75a5.752 5.752 0 0 1 11.326 0h.087a4 4 0 0 1 3.962 4.552 6.5 6.5 0 0 0-1.597-1.364A2.5 2.5 0 0 0 17.5 9.25h-.756a.75.75 0 0 1-.75-.713 4.25 4.25 0 0 0-8.489 0 .75.75 0 0 1-.749.713H6a2.5 2.5 0 0 0 0 5h4.4a6.5 6.5 0 0 0-.357 1.5H6a4 4 0 0 1 0-8zM22 16.5a5.5 5.5 0 1 0-11 0 5.5 5.5 0 0 0 11 0m-6-3a.5.5 0 0 1 1 0v4.793l1.646-1.647a.5.5 0 0 1 .708.708l-2.5 2.5a.5.5 0 0 1-.708 0l-2.5-2.5a.5.5 0 0 1 .708-.708L16 18.293z"/></svg>