<svg xmlns="http://www.w3.org/2000/svg" viewBox="0 0 24 24"><path fill="currentColor" d="M11.75 2.25A5.75 5.75 0 0 0 6.087 7H6a4 4 0 1 0 0 8h7.155l.142-.424a3 3 0 0 1 .627-1.076H6a2.5 2.5 0 0 1 0-5h.756c.4 0 .73-.314.75-.713a4.25 4.25 0 0 1 8.489 0c.02.4.349.713.749.713h.756a2.5 2.5 0 0 1 2.292 1.5h1.458q.063 0 .125.004A4 4 0 0 0 17.5 7h-.087a5.75 5.75 0 0 0-5.663-4.75m4.75 9.5a.75.75 0 0 1 .75-.75h4a.75.75 0 0 1 .75.75v4a.75.75 0 0 1-.75.75h-4a.75.75 0 0 1-.75-.75V15h-.323a.54.54 0 0 0-.508.366l-.914 2.742a2.04 2.04 0 0 1-1.932 1.392H12v1.75a.75.75 0 0 1-.75.75h-4a.75.75 0 0 1-.75-.75v-4a.75.75 0 0 1 .75-.75h4a.75.75 0 0 1 .75.75V18h.823c.23 0 .436-.148.508-.366l.914-2.742a2.04 2.04 0 0 1 1.932-1.392h.323zm1.5 2.518V15h2.5v-2.5H18zM8 18v2.5h2.5V18z"/></svg>