<svg xmlns="http://www.w3.org/2000/svg" xmlns:xlink="http://www.w3.org/1999/xlink" viewBox="0 0 16 16"><path d="M7.999 2c-1.4 0-2.417.567-3.074 1.37a4.2 4.2 0 0 0-.897 2.153C1.965 5.734 1 7.32 1 8.499c0 .572.142 1.332.686 1.954.556.635 1.46 1.045 2.813 1.045h2.448q.178-.247.394-.463l4.288-4.288a2.55 2.55 0 0 1 1.806-.75 4 4 0 0 0-1.459-.47c-.112-1.158-.638-2.02-1.348-2.602C9.84 2.281 8.848 2 7.999 2m6.544 5.454a1.56 1.56 0 0 0-2.207 0l-4.288 4.288a2.8 2.8 0 0 0-.73 1.29l-.303 1.21a.61.61 0 0 0 .74.74l1.21-.303a2.8 2.8 0 0 0 1.29-.73l4.288-4.288a1.56 1.56 0 0 0 0-2.207" fill="currentColor"/></svg>