<svg xmlns="http://www.w3.org/2000/svg" xmlns:xlink="http://www.w3.org/1999/xlink" viewBox="0 0 28 28"><path d="M7.519 10a6.5 6.5 0 0 1 12.962 0h.269a4.75 4.75 0 0 1 4.691 4h-1.528a3.25 3.25 0 0 0-3.163-2.5h-1a.75.75 0 0 1-.75-.75v-.25a5 5 0 0 0-10 0v.25a.75.75 0 0 1-.75.75h-1a3.25 3.25 0 0 0 0 6.5h6.018c.175.304.428.557.732.732v.768H7.25a4.75 4.75 0 1 1 0-9.5zM14 16a1 1 0 0 1 1-1h11a1 1 0 0 1 1 1v1a1 1 0 0 1-1 1H15a1 1 0 0 1-1-1zm12 3H15v5a3 3 0 0 0 3 3h5a3 3 0 0 0 3-3zm-7.5 2h4a.5.5 0 0 1 0 1h-4a.5.5 0 0 1 0-1" fill="currentColor"/></svg>