<svg xmlns="http://www.w3.org/2000/svg" viewBox="0 0 16 16"><path fill="currentColor" d="M4.926 3.37C5.583 2.568 6.6 2 8 2c.85 0 1.841.28 2.63.926.71.58 1.235 1.443 1.348 2.603a3.87 3.87 0 0 1 1.89.753 3.1 3.1 0 0 1 .677.718H8a2 2 0 0 0-1 3.732v.768H4.5c-1.354 0-2.258-.41-2.814-1.046C1.142 9.832 1 9.073 1 8.5c0-1.178.965-2.765 3.028-2.976a4.2 4.2 0 0 1 .898-2.153zM7 9a1 1 0 0 1 1-1h7a1 1 0 1 1 0 2H8a1 1 0 0 1-1-1m8 2H8v3a2 2 0 0 0 2 2h3a2 2 0 0 0 2-2zm-4.5 1h2a.5.5 0 0 1 0 1h-2a.5.5 0 0 1 0-1"/></svg>