<svg xmlns="http://www.w3.org/2000/svg" xmlns:xlink="http://www.w3.org/1999/xlink" viewBox="0 0 28 28"><path d="M7.519 10a6.5 6.5 0 0 1 12.962 0h.269a4.75 4.75 0 0 1 4.661 3.832 7.5 7.5 0 0 0-2.375-1.393 3.24 3.24 0 0 0-2.286-.939h-1a.75.75 0 0 1-.75-.75v-.25a5 5 0 0 0-10 0v.25a.75.75 0 0 1-.75.75h-1a3.25 3.25 0 0 0 0 6.5h5.9q-.149.728-.15 1.5H7.25a4.75 4.75 0 1 1 0-9.5zM27 19.5a6.5 6.5 0 1 0-13 0 6.5 6.5 0 0 0 13 0m-7-4a.5.5 0 0 1 1 0v6.793l2.146-2.147a.5.5 0 0 1 .708.708l-3 3a.5.5 0 0 1-.351.146h-.006a.5.5 0 0 1-.35-.146l-3-3a.5.5 0 0 1 .707-.708L20 22.293z" fill="currentColor"/></svg>