<svg xmlns="http://www.w3.org/2000/svg" xmlns:xlink="http://www.w3.org/1999/xlink" viewBox="0 0 20 20"><path d="M15.499 7a2.5 2.5 0 0 1 2.495 2.335l.005.164v.757a5.5 5.5 0 0 0-7.743 7.743H9.5a2.5 2.5 0 0 1-2.495-2.336L7 15.5v-6a2.5 2.5 0 0 1 2.336-2.495L9.499 7zM12.66 3.693l.048.158.575 2.147H8.999a3 3 0 0 0-2.995 2.824L6 8.999v5.348a2.5 2.5 0 0 1-2.31-1.683l-.052-.17-1.553-5.795a2.5 2.5 0 0 1 1.61-3.015l.158-.047 5.795-1.553a2.5 2.5 0 0 1 2.957 1.458l.057.152zM18.999 14.5a4.5 4.5 0 1 1-9 0 4.5 4.5 0 0 1 9 0m-4-2a.5.5 0 0 0-1 0V14h-1.5a.5.5 0 1 0 0 1H14v1.5a.5.5 0 1 0 1 0V15h1.5a.5.5 0 1 0 0-1H15z" fill="currentColor"/></svg>