<svg xmlns="http://www.w3.org/2000/svg" xmlns:xlink="http://www.w3.org/1999/xlink" viewBox="0 0 20 20"><path d="M5.77 3.166c2.373-1.454 5.173-1.59 7.927-.174 3.976 2.042 5.502 6.162 4.187 10.435-.415 1.35-1.245 2.698-2.371 3.59-1.14.902-2.604 1.347-4.206.799-1.102-.377-1.79-.967-2.203-1.68-.404-.696-.52-1.462-.574-2.132a26 26 0 0 1-.039-.586l-.022-.369a5 5 0 0 0-.101-.76 1.2 1.2 0 0 0-.206-.466.75.75 0 0 0-.386-.244c-.518-.159-.874-.126-1.156-.036-.248.078-.447.2-.689.346q-.092.057-.197.119c-.316.186-.72.396-1.238.37-.514-.025-1.045-.275-1.656-.773-.67-.546-.934-1.31-.938-2.112-.003-.788.243-1.635.614-2.434.737-1.59 2.043-3.15 3.254-3.893M9.75 6.75a1 1 0 1 0 0-2 1 1 0 0 0 0 2m3 1a1 1 0 1 0 0-2 1 1 0 0 0 0 2M15.5 9a1 1 0 1 0-2 0 1 1 0 0 0 2 0m-1 4a1 1 0 1 0 0-2 1 1 0 0 0 0 2m-1 1a1 1 0 1 0-2 0 1 1 0 0 0 2 0" fill="currentColor"/></svg>