<svg xmlns="http://www.w3.org/2000/svg" xmlns:xlink="http://www.w3.org/1999/xlink" viewBox="0 0 24 24"><path d="M5.25 5.75c0-.69-.56-1.25-1.25-1.25h-.75a.75.75 0 0 1 0-1.5H4a2.75 2.75 0 0 1 2.75 2.75v12.5A2.75 2.75 0 0 1 4 21h-.75a.75.75 0 0 1 0-1.5H4c.69 0 1.25-.56 1.25-1.25zm5.5-1.25c-.69 0-1.25.56-1.25 1.25v12.5c0 .69.56 1.25 1.25 1.25h.791l-.02.077L11.165 21h-.415A2.75 2.75 0 0 1 8 18.25V5.75A2.75 2.75 0 0 1 10.75 3h2.5A2.75 2.75 0 0 1 16 5.75v8.605l-1.5 1.5V5.75c0-.69-.56-1.25-1.25-1.25zM19 5.75v5.733q-.325.198-.607.48l-.893.892V5.75A2.75 2.75 0 0 1 20.25 3H21a.75.75 0 0 1 0 1.5h-.75c-.69 0-1.25.56-1.25 1.25m.1 6.92-5.903 5.902a2.7 2.7 0 0 0-.706 1.247l-.458 1.831a1.087 1.087 0 0 0 1.319 1.318l1.83-.457a2.7 2.7 0 0 0 1.248-.707l5.902-5.902A2.286 2.286 0 0 0 19.1 12.67" fill="currentColor"/></svg>