<svg xmlns="http://www.w3.org/2000/svg" xmlns:xlink="http://www.w3.org/1999/xlink" viewBox="0 0 20 20"><path d="M3 4a1 1 0 0 1 1-1h2a1 1 0 0 1 1 1v12a1 1 0 0 1-1 1H4a1 1 0 0 1-1-1zm3 0H4v12h2zm2 0a1 1 0 0 1 1-1h2a1 1 0 0 1 1 1v8.943l-1 1V4H9v12h.475a3 3 0 0 0-.043.155L9.22 17H9a1 1 0 0 1-1-1zm9 0v5.003c-.341.016-.68.092-1 .229V4h-2v6.943l-1 1V4a1 1 0 0 1 1-1h2a1 1 0 0 1 1 1m-6.02 11.377 4.83-4.83a1.87 1.87 0 1 1 2.644 2.646l-4.83 4.829a2.2 2.2 0 0 1-1.02.578l-1.498.374a.89.89 0 0 1-1.079-1.078l.375-1.498a2.2 2.2 0 0 1 .578-1.02z" fill="currentColor"/></svg>