<svg xmlns="http://www.w3.org/2000/svg" viewBox="0 0 20 20"><path fill="currentColor" d="M10 4.5a6.5 6.5 0 0 0-4.601 11.091.75.75 0 1 1-1.062 1.06 8 8 0 1 1 13.632-6.355 3 3 0 0 0-1.756-1.21A6.5 6.5 0 0 0 10 4.5m4.637 4.626A5.002 5.002 0 0 0 5 11c0 1.377.558 2.626 1.458 3.53a.75.75 0 0 0 1.063-1.06 3.5 3.5 0 1 1 5.811-3.544 3 3 0 0 1 1.305-.8M8 11a2 2 0 1 1 4 0 2 2 0 0 1-4 0m9.5 1a2 2 0 1 1-4 0 2 2 0 0 1 4 0m1.5 4.5c0 1.245-1 2.5-3.5 2.5S12 17.75 12 16.5a1.5 1.5 0 0 1 1.5-1.5h4a1.5 1.5 0 0 1 1.5 1.5"/></svg>