<svg xmlns="http://www.w3.org/2000/svg" xmlns:xlink="http://www.w3.org/1999/xlink" viewBox="0 0 24 24"><path d="M2 14.75A3.25 3.25 0 0 0 5.25 18H6v3.002a1 1 0 0 0 1.578.815l2.59-1.836.352-1.404c.162-.648.497-1.24.97-1.712l5.902-5.903A3.286 3.286 0 0 1 22 10.925V6.25A3.25 3.25 0 0 0 18.75 3H5.25A3.25 3.25 0 0 0 2 6.25zm16.098-3.08-5.902 5.902a2.7 2.7 0 0 0-.707 1.247l-.458 1.831a1.087 1.087 0 0 0 1.319 1.318l1.83-.457a2.7 2.7 0 0 0 1.248-.707l5.902-5.902a2.285 2.285 0 1 0-3.232-3.232" fill="currentColor"/></svg>