<svg xmlns="http://www.w3.org/2000/svg" xmlns:xlink="http://www.w3.org/1999/xlink" viewBox="0 0 32 32"><path d="M10.5 3a4 4 0 0 0-3.727 2.544A6 6 0 0 1 7.5 5.5h13a6 6 0 0 1 6 6V18a5.4 5.4 0 0 1 2.209.501A4 4 0 0 0 29 17V9.5A6.5 6.5 0 0 0 22.5 3zM25 11.5V18h-4.932c-3.075 0-5.568 2.574-5.568 5.75 0 .799.158 1.559.442 2.25h-.081l-4.404 3.65C9.48 30.462 8 29.767 8 28.497V26H7a4 4 0 0 1-4-4V11.5A4.5 4.5 0 0 1 7.5 7h13a4.5 4.5 0 0 1 4.5 4.5m-4.75 8a4.25 4.25 0 0 0 0 8.5h1a.75.75 0 0 0 0-1.5h-1a2.75 2.75 0 1 1 0-5.5h1a.75.75 0 0 0 0-1.5zm6 0a4.25 4.25 0 0 1 0 8.5h-1.5a.75.75 0 0 1 0-1.5h1.5a2.75 2.75 0 1 0 0-5.5h-1.5a.75.75 0 0 1 0-1.5zM20 23.75a.75.75 0 0 1 .75-.75h5a.75.75 0 0 1 0 1.5h-5a.75.75 0 0 1-.75-.75" fill="currentColor"/></svg>