<svg xmlns="http://www.w3.org/2000/svg" xmlns:xlink="http://www.w3.org/1999/xlink" viewBox="0 0 24 24"><path d="M3.5 13a8.5 8.5 0 0 1 16.876-1.455 3.5 3.5 0 0 1 1.58 2.399q.045-.467.044-.944c0-5.523-4.477-10-10-10S2 7.477 2 13a9.97 9.97 0 0 0 2.923 7.065.75.75 0 0 0 1.061-1.06A8.47 8.47 0 0 1 3.5 13m14.69-1.986a6.5 6.5 0 1 0-10.785 6.585.75.75 0 1 0 1.061-1.062 5 5 0 1 1 8.293-5.074 3.5 3.5 0 0 1 1.432-.45zM9.5 13a2.5 2.5 0 1 1 5 0 2.5 2.5 0 0 1-5 0m2.5-1a1 1 0 1 0 0 2 1 1 0 0 0 0-2m9 2.5a2.5 2.5 0 1 1-5 0 2.5 2.5 0 0 1 5 0m2 5.375C23 21.431 21.714 23 18.5 23S14 21.437 14 19.875v-.103c0-.98.794-1.772 1.773-1.772h5.454c.98 0 1.773.793 1.773 1.772z" fill="currentColor"/></svg>