<svg xmlns="http://www.w3.org/2000/svg" xmlns:xlink="http://www.w3.org/1999/xlink" viewBox="0 0 16 16"><path d="M3.05 3A2.5 2.5 0 0 1 5.5 1H12a3 3 0 0 1 3 3v4.5c0 .455-.122.882-.335 1.25a3.5 3.5 0 0 0-.865-.5 1.5 1.5 0 0 0 .2-.75V4a2 2 0 0 0-2-2H5.5a1.5 1.5 0 0 0-1.415 1H11a2 2 0 0 1 2 2v4.035A3.5 3.5 0 0 0 12.5 9H12V5a1 1 0 0 0-1-1H3a1 1 0 0 0-1 1v6a1 1 0 0 0 1 1h1v2.028l1.082-.772q.114.516.37.965l-.87.621A1 1 0 0 1 3 14.028V13a2 2 0 0 1-2-2V5a2 2 0 0 1 2-2zm5.45 7a2.5 2.5 0 0 0 0 5H9a.5.5 0 0 0 0-1h-.5a1.5 1.5 0 0 1 0-3H9a.5.5 0 0 0 0-1zm3.5 0a.5.5 0 0 0 0 1h.5a1.5 1.5 0 0 1 0 3H12a.5.5 0 0 0 0 1h.5a2.5 2.5 0 0 0 0-5zm-4 2.5a.5.5 0 0 1 .5-.5h4a.5.5 0 0 1 0 1h-4a.5.5 0 0 1-.5-.5" fill="currentColor"/></svg>