<svg xmlns="http://www.w3.org/2000/svg" xmlns:xlink="http://www.w3.org/1999/xlink" viewBox="0 0 20 20"><path d="M19 6.5a5.5 5.5 0 1 1-11 0 5.5 5.5 0 0 1 11 0m-2.146-2.354a.5.5 0 0 0-.708 0L12.5 7.793l-1.646-1.647a.5.5 0 0 0-.708.708l2 2a.5.5 0 0 0 .708 0l4-4a.5.5 0 0 0 0-.708m.146 8.13v-.298a6.5 6.5 0 0 0 1-.788v1.086c0 1.418-1.164 2.566-2.6 2.566h-4.59l-4.011 2.961a1.01 1.01 0 0 1-1.4-.199.98.98 0 0 1-.199-.59v-2.172h-.6c-1.436 0-2.6-1.149-2.6-2.566v-6.71C2 4.149 3.164 3 4.6 3h3.422a6.5 6.5 0 0 0-.524 1H4.6C3.704 4 3 4.713 3 5.566v6.71c0 .853.704 1.566 1.6 1.566h1.6V17h.003l.002-.001 4.276-3.157H15.4c.896 0 1.6-.713 1.6-1.566" fill="currentColor"/></svg>