<svg xmlns="http://www.w3.org/2000/svg" viewBox="0 0 20 20"><path fill="currentColor" d="M19 5.5a4.5 4.5 0 1 1-9 0 4.5 4.5 0 0 1 9 0m-5.12-3a.5.5 0 0 0-.472.334l-.88 2.5A.5.5 0 0 0 13 6h.776l-.508 1.869a.5.5 0 0 0 .903.401l2.25-3.5A.5.5 0 0 0 16 4h-.746l.28-.842a.5.5 0 0 0-.474-.658zm.62 8.5c1.33 0 2.55-.472 3.5-1.257v2.533c0 1.418-1.164 2.566-2.6 2.566h-4.59l-4.011 2.961a1.01 1.01 0 0 1-1.4-.199.98.98 0 0 1-.199-.59v-2.172h-.6c-1.436 0-2.6-1.149-2.6-2.566v-6.71C2 4.149 3.164 3 4.6 3h5a5.5 5.5 0 0 0 4.9 8"/></svg>