<svg xmlns="http://www.w3.org/2000/svg" xmlns:xlink="http://www.w3.org/1999/xlink" viewBox="0 0 24 24"><path d="M18 2a4 4 0 0 0 0 8.001c.826 0 1.588-.241 2.222-.666a.5.5 0 0 1 .556.831 4.97 4.97 0 0 1-2.778.835 5 5 0 1 1 5-5v.75a1.75 1.75 0 0 1-3.198.982A2.5 2.5 0 1 1 19.5 4a.5.5 0 0 1 1 0v2.75a.75.75 0 0 0 1.5 0v-.763A4 4 0 0 0 18 2m-1.5 4a1.5 1.5 0 1 0 3 0 1.5 1.5 0 0 0-3 0m1.5 6a5.98 5.98 0 0 0 4-1.527v4.277A3.25 3.25 0 0 1 18.75 18h-5.785l-5.387 3.818A1 1 0 0 1 6 21.002V18h-.75A3.25 3.25 0 0 1 2 14.75v-8.5A3.25 3.25 0 0 1 5.25 3h7.553A6 6 0 0 0 18 12" fill="currentColor"/></svg>