<svg xmlns="http://www.w3.org/2000/svg" viewBox="0 0 28 28"><path fill="currentColor" d="M7.5 5.76a2.25 2.25 0 0 1 2.25-2.25h10.5a4.25 4.25 0 0 1 4.25 4.25v6.395a7.5 7.5 0 0 1 1.452 1.195q.048-.293.048-.6V7.76a5.75 5.75 0 0 0-5.75-5.75H9.75A3.75 3.75 0 0 0 6 5.76v.25h-.25A3.75 3.75 0 0 0 2 9.76v8.99a3.75 3.75 0 0 0 3.75 3.75H6v2.24c0 1.035 1.185 1.622 2.008.995l4.245-3.235h1.017a7.5 7.5 0 0 1-.254-1.5H12a.75.75 0 0 0-.454.154L7.5 24.236V21.75a.75.75 0 0 0-.75-.75h-1a2.25 2.25 0 0 1-2.25-2.25V9.76a2.25 2.25 0 0 1 2.25-2.25h12.5a2.25 2.25 0 0 1 2.25 2.25V13q.772.002 1.5.15V9.76a3.75 3.75 0 0 0-3.75-3.75H7.5zM27 20.5a6.5 6.5 0 1 0-13 0 6.5 6.5 0 0 0 13 0m-2.646-2.854a.5.5 0 0 1 0 .708l-5 5a.5.5 0 0 1-.708 0l-2-2a.5.5 0 0 1 .708-.708L19 22.293l4.646-4.647a.5.5 0 0 1 .708 0"/></svg>