<svg xmlns="http://www.w3.org/2000/svg" xmlns:xlink="http://www.w3.org/1999/xlink" viewBox="0 0 20 20"><path d="M7.42 6.097c-.84-.383-1.706.483-1.323 1.324l1.482 3.262a3.5 3.5 0 0 0 1.738 1.738l3.262 1.482c.841.383 1.707-.482 1.324-1.324l-1.482-3.262a3.5 3.5 0 0 0-1.738-1.738zm-.413.91 3.262 1.483a2.5 2.5 0 0 1 1.241 1.24l1.483 3.262-3.262-1.483A2.5 2.5 0 0 1 8.49 10.27zM10 2a8 8 0 1 0 0 16 8 8 0 0 0 0-16m0 1v1.5a.5.5 0 0 0 1 0V3.07A7 7 0 0 1 16.93 9H15.5a.5.5 0 0 0 0 1H17a7 7 0 0 1-6 6.93V15.5a.5.5 0 0 0-1 0V17a7 7 0 0 1-7-7h1.5a.5.5 0 0 0 0-1H3.07A7 7 0 0 1 10 3" fill="currentColor"/></svg>