<svg xmlns="http://www.w3.org/2000/svg" viewBox="0 0 16 16"><path fill="currentColor" d="M2.75 3A1.75 1.75 0 0 0 1 4.75v6.5c0 .966.784 1.75 1.75 1.75h2.285a3.53 3.53 0 0 1 .302-2 4 4 0 0 1-1.019-.116l-.053-.013A1.67 1.67 0 0 1 3 9.25c0-.475.384-.859.858-.859h2.807c.436 0 .797.326.85.748a3.5 3.5 0 0 1 .985-.14h4c.98 0 1.865.402 2.5 1.05v-5.3A1.75 1.75 0 0 0 13.25 3zm3.868 3.357a1.357 1.357 0 1 1-2.713 0 1.357 1.357 0 0 1 2.713 0M9 6.5a.5.5 0 0 1 .5-.5h3a.5.5 0 0 1 0 1h-3a.5.5 0 0 1-.5-.5M8.5 10a2.5 2.5 0 0 0 0 5H9a.5.5 0 0 0 0-1h-.5a1.5 1.5 0 0 1 0-3H9a.5.5 0 0 0 0-1zm3.5 0a.5.5 0 0 0 0 1h.5a1.5 1.5 0 0 1 0 3H12a.5.5 0 0 0 0 1h.5a2.5 2.5 0 0 0 0-5zm-3.5 2a.5.5 0 0 0 0 1h4a.5.5 0 0 0 0-1z"/></svg>