<svg xmlns="http://www.w3.org/2000/svg" xmlns:xlink="http://www.w3.org/1999/xlink" viewBox="0 0 32 32"><path d="M4 9a5 5 0 0 1 5-5h14.004a5 5 0 0 1 5 5v5.003L28 13.999a10 10 0 0 0-2.5-1.37V10h-19v13A2.5 2.5 0 0 0 9 25.5h3.63A10 10 0 0 0 14 28l.003.004H9a5 5 0 0 1-5-5zm12.003 3.998v.999a10 10 0 0 0-2 1.998v-1.997h-3.995V22H12q.002 1.028.2 2H9.009a1 1 0 0 1-1-1V12.998a1 1 0 0 1 1-1h5.994a1 1 0 0 1 1 1m.674 15.572.046-.156a4 4 0 0 0-2.895-5.02 8.5 8.5 0 0 1 .07-2.746 4 4 0 0 0 2.88-4.987 8.5 8.5 0 0 1 2.344-1.435 4 4 0 0 0 5.794-.003l.112-.118a8 8 0 0 1 2.295 1.326l-.046.155a4 4 0 0 0 2.895 5.02 8.5 8.5 0 0 1-.07 2.747 4 4 0 0 0-2.88 4.987 8.5 8.5 0 0 1-2.344 1.435 4 4 0 0 0-5.794.003l-.112.117a8 8 0 0 1-2.295-1.325m4.17-4.571c1.066.616 2.447.22 3.084-.884.638-1.103.29-2.498-.777-3.113-1.067-.616-2.448-.22-3.085.883-.638 1.104-.29 2.498.777 3.114z" fill="currentColor"/></svg>