<svg xmlns="http://www.w3.org/2000/svg" xmlns:xlink="http://www.w3.org/1999/xlink" viewBox="0 0 20 20"><path d="M7.5 10a1.5 1.5 0 1 0 0-3 1.5 1.5 0 0 0 0 3m-1.551.75a.95.95 0 0 0-.949.949c0 .847.577 1.585 1.399 1.791l.059.015c.684.17 1.4.17 2.084 0l.06-.015A1.846 1.846 0 0 0 10 11.699a.95.95 0 0 0-.949-.949H5.95zM12 8.5a.5.5 0 0 1 .5-.5h3a.5.5 0 0 1 0 1h-3a.5.5 0 0 1-.5-.5M4.75 4A1.75 1.75 0 0 0 3 5.75v8.5c0 .966.784 1.75 1.75 1.75h5.587a3.5 3.5 0 0 1-.302-1H4.75a.75.75 0 0 1-.75-.75v-8.5A.75.75 0 0 1 4.75 5h12.5a.75.75 0 0 1 .75.75v5.285c.353.05.69.154 1 .302V5.75A1.75 1.75 0 0 0 17.25 4zm8.75 8a2.5 2.5 0 0 0 0 5h.5a.5.5 0 0 0 0-1h-.5a1.5 1.5 0 0 1 0-3h.5a.5.5 0 0 0 0-1zm3.5 0a.5.5 0 0 0 0 1h.5a1.5 1.5 0 0 1 0 3H17a.5.5 0 0 0 0 1h.5a2.5 2.5 0 0 0 0-5zm-3.5 2a.5.5 0 0 0 0 1h4a.5.5 0 0 0 0-1z" fill="currentColor"/></svg>