<svg xmlns="http://www.w3.org/2000/svg" viewBox="0 0 16 16"><path fill="currentColor" d="M2.75 3A1.75 1.75 0 0 0 1 4.75v6.5c0 .966.784 1.75 1.75 1.75h2.285a3.5 3.5 0 0 1 0-1H2.75a.75.75 0 0 1-.75-.75v-6.5A.75.75 0 0 1 2.75 4h10.5a.75.75 0 0 1 .75.75v4.587c.375.178.713.42 1 .713v-5.3A1.75 1.75 0 0 0 13.25 3zm4.766 6.14a.86.86 0 0 0-.851-.748H3.858A.86.86 0 0 0 3 9.25a1.67 1.67 0 0 0 1.265 1.62l.053.014q.504.125 1.02.115A3.5 3.5 0 0 1 7.515 9.14zM9 6.5a.5.5 0 0 1 .5-.5h3a.5.5 0 0 1 0 1h-3a.5.5 0 0 1-.5-.5M5.261 7.714a1.357 1.357 0 1 0 0-2.714 1.357 1.357 0 0 0 0 2.714M8.5 10a2.5 2.5 0 0 0 0 5H9a.5.5 0 0 0 0-1h-.5a1.5 1.5 0 0 1 0-3H9a.5.5 0 0 0 0-1zm3.5 0a.5.5 0 0 0 0 1h.5a1.5 1.5 0 0 1 0 3H12a.5.5 0 0 0 0 1h.5a2.5 2.5 0 0 0 0-5zm-3.5 2a.5.5 0 0 0 0 1h4a.5.5 0 0 0 0-1z"/></svg>