<svg xmlns="http://www.w3.org/2000/svg" viewBox="0 0 24 24"><path fill="currentColor" d="m4.5 6.75.003-2.123A2.25 2.25 0 0 0 3 6.75v10.504a4.75 4.75 0 0 0 4.75 4.75h5.064a6.5 6.5 0 0 1-1.08-1.5H7.75a3.25 3.25 0 0 1-3.25-3.25zM19 11.174a6.5 6.5 0 0 0-7.687 8.326H7.75a2.25 2.25 0 0 1-2.25-2.25v-13A2.25 2.25 0 0 1 7.75 2h9A2.25 2.25 0 0 1 19 4.25zM17.5 12a5.5 5.5 0 1 1 0 11 5.5 5.5 0 0 1 0-11m.501 8.503V18h2.496a.5.5 0 0 0 0-1H18v-2.5a.5.5 0 1 0-1 0V17h-2.504a.5.5 0 0 0 0 1H17v2.503a.5.5 0 1 0 1 0z"/></svg>