<svg xmlns="http://www.w3.org/2000/svg" xmlns:xlink="http://www.w3.org/1999/xlink" viewBox="0 0 20 20"><path d="M8 2a2 2 0 0 0-2 2v10a2 2 0 0 0 2 2h1.207a5.5 5.5 0 0 1-.185-1H8a1 1 0 0 1-1-1V4a1 1 0 0 1 1-1h6a1 1 0 0 1 1 1v5.022a5.5 5.5 0 0 1 1 .185V4a2 2 0 0 0-2-2zm-.5 15h2.1q.276.538.657 1H7.5A3.5 3.5 0 0 1 4 14.5V6a2 2 0 0 1 1-1.732V14.5A2.5 2.5 0 0 0 7.5 17m7-7a4.5 4.5 0 1 1 0 9 4.5 4.5 0 0 1 0-9m2.353 4.854.003-.003a.5.5 0 0 0 .144-.348v-.006a.5.5 0 0 0-.146-.35l-2-2a.5.5 0 0 0-.708.707L15.293 14H12.5a.5.5 0 0 0 0 1h2.793l-1.147 1.146a.5.5 0 0 0 .708.708z" fill="currentColor"/></svg>