<svg xmlns="http://www.w3.org/2000/svg" xmlns:xlink="http://www.w3.org/1999/xlink" viewBox="0 0 20 20"><path d="M2 6.75A2.75 2.75 0 0 1 4.75 4h10.5A2.75 2.75 0 0 1 18 6.75V7H2zM2 8v4.25A2.75 2.75 0 0 0 4.75 15H9v-1.5a2.5 2.5 0 0 1 2.042-2.458A2.5 2.5 0 0 1 13.5 9h2a2.5 2.5 0 0 1 2.458 2.042l.042.008V8zm10 4v-.5a1.5 1.5 0 0 1 1.5-1.5h2a1.5 1.5 0 0 1 1.5 1.5v.5h.5a1.5 1.5 0 0 1 1.5 1.5V15h-2v-.5a.5.5 0 0 0-1 0v.5h-3v-.5a.5.5 0 0 0-1 0v.5h-2v-1.5a1.5 1.5 0 0 1 1.5-1.5zm3.5-1h-2a.5.5 0 0 0-.5.5v.5h3v-.5a.5.5 0 0 0-.5-.5m1.5 5.5V16h2v1.5a1.5 1.5 0 0 1-1.5 1.5h-6a1.5 1.5 0 0 1-1.5-1.5V16h2v.5a.5.5 0 0 0 1 0V16h3v.5a.5.5 0 0 0 1 0" fill="currentColor"/></svg>