<svg xmlns="http://www.w3.org/2000/svg" viewBox="0 0 20 20"><path fill="currentColor" d="M4.75 4A2.75 2.75 0 0 0 2 6.75v5.5A2.75 2.75 0 0 0 4.75 15H9v-1H4.75A1.75 1.75 0 0 1 3 12.25V8h14v1.5a2.5 2.5 0 0 1 .958 1.542l.042.008v-4.3A2.75 2.75 0 0 0 15.25 4zM17 7H3v-.25C3 5.784 3.784 5 4.75 5h10.5c.966 0 1.75.784 1.75 1.75zm-5 5v-.5a1.5 1.5 0 0 1 1.5-1.5h2a1.5 1.5 0 0 1 1.5 1.5v.5h.5a1.5 1.5 0 0 1 1.5 1.5V15h-2v-.5a.5.5 0 0 0-1 0v.5h-3v-.5a.5.5 0 0 0-1 0v.5h-2v-1.5a1.5 1.5 0 0 1 1.5-1.5zm3.5-1h-2a.5.5 0 0 0-.5.5v.5h3v-.5a.5.5 0 0 0-.5-.5m1.5 5.5V16h2v1.5a1.5 1.5 0 0 1-1.5 1.5h-6a1.5 1.5 0 0 1-1.5-1.5V16h2v.5a.5.5 0 0 0 1 0V16h3v.5a.5.5 0 0 0 1 0"/></svg>