<svg xmlns="http://www.w3.org/2000/svg" xmlns:xlink="http://www.w3.org/1999/xlink" viewBox="0 0 24 24"><path d="M2 7.25A3.25 3.25 0 0 1 5.25 4h13.5A3.25 3.25 0 0 1 22 7.25V9H3.5v5.75c0 .966.784 1.75 1.75 1.75h8.058A2.76 2.76 0 0 0 13 17.772v.103q0 .063.002.125H5.25A3.25 3.25 0 0 1 2 14.75zM5.25 5.5A1.75 1.75 0 0 0 3.5 7.25v.25h17v-.25a1.75 1.75 0 0 0-1.75-1.75zm15.75 7a2.5 2.5 0 1 1-5 0 2.5 2.5 0 0 1 5 0m2 5.375C23 19.431 21.714 21 18.5 21S14 19.437 14 17.875v-.103c0-.98.794-1.772 1.773-1.772h5.454c.98 0 1.773.793 1.773 1.772z" fill="currentColor"/></svg>