<svg xmlns="http://www.w3.org/2000/svg" xmlns:xlink="http://www.w3.org/1999/xlink" viewBox="0 0 20 20"><path d="M5.703 6.043a.5.5 0 1 0-.406.914L9.5 8.825v3.381a5.5 5.5 0 0 1 1-1.48V8.824l4.203-1.868a.5.5 0 1 0-.406-.914L10 7.953zM9.072 16.59q.191.076.39.12.25.566.614 1.058a3.5 3.5 0 0 1-1.376-.25l-5.757-2.303A1.5 1.5 0 0 1 2 13.824V6.177a1.5 1.5 0 0 1 .943-1.393L8.7 2.481a3.5 3.5 0 0 1 2.6 0l5.757 2.303c.57.228.943.78.943 1.393v4.08a5.5 5.5 0 0 0-1-.657V6.177a.5.5 0 0 0-.314-.464L10.928 3.41a2.5 2.5 0 0 0-1.856 0L3.314 5.713A.5.5 0 0 0 3 6.177v7.646a.5.5 0 0 0 .314.464zM10 14.5a4.5 4.5 0 1 0 9 0 4.5 4.5 0 0 0-9 0m6.5-3a.5.5 0 0 1 .5.5v1.5a.5.5 0 0 1-.5.5H15a.5.5 0 0 1 0-1h.468a2 2 0 0 0-2.383.336.5.5 0 0 1-.706-.707A3 3 0 0 1 16 12.152V12a.5.5 0 0 1 .5-.5m-.876 5.532A3 3 0 0 1 13 16.848V17a.5.5 0 0 1-1 0v-1.5a.5.5 0 0 1 .5-.5H14a.5.5 0 0 1 0 1h-.468a2 2 0 0 0 2.383-.336.5.5 0 0 1 .706.707c-.284.285-.624.51-.997.66z" fill="currentColor"/></svg>