<svg xmlns="http://www.w3.org/2000/svg" xmlns:xlink="http://www.w3.org/1999/xlink" viewBox="0 0 24 24"><path d="M12 10c4.418 0 8-1.79 8-4s-3.582-4-8-4-8 1.79-8 4 3.582 4 8 4m6.328.17A7.6 7.6 0 0 0 20 9.053v6.006a5 5 0 0 0-.75-.059h-3.5a4.75 4.75 0 0 0-4.188 6.994C7.348 21.881 4 20.136 4 18V9.053a7.6 7.6 0 0 0 1.672 1.117C7.37 11.018 9.608 11.5 12 11.5s4.63-.482 6.328-1.33M23 19.75A3.75 3.75 0 0 0 19.25 16l-.102.007a.75.75 0 0 0 .102 1.493l.154.005A2.25 2.25 0 0 1 19.25 22l-.003.005-.102.007a.75.75 0 0 0 .108 1.493V23.5l.2-.005A3.75 3.75 0 0 0 23 19.75m-6.5-3a.75.75 0 0 0-.75-.75l-.2.005a3.75 3.75 0 0 0 .2 7.495l.102-.007A.75.75 0 0 0 15.75 22l-.154-.005a2.25 2.25 0 0 1 .154-4.495l.102-.007a.75.75 0 0 0 .648-.743m3.5 3a.75.75 0 0 0-.75-.75h-3.5l-.102.007a.75.75 0 0 0 .102 1.493h3.5l.102-.007A.75.75 0 0 0 20 19.75" fill="currentColor"/></svg>