<svg xmlns="http://www.w3.org/2000/svg" xmlns:xlink="http://www.w3.org/1999/xlink" viewBox="0 0 20 20"><path d="M10 18a2 2 0 0 1-2-2V4a2 2 0 1 1 4 0v5.6a5.5 5.5 0 0 0-1 .657V4a1 1 0 1 0-2 0v12a1 1 0 0 0 .546.891q.287.591.699 1.094A2 2 0 0 1 10 18m8-10v2.257a5.5 5.5 0 0 0-1-.657V8a1 1 0 1 0-2 0v1.022a5.6 5.6 0 0 0-1 0V8a2 2 0 1 1 4 0M2 16a2 2 0 1 0 4 0v-4a2 2 0 1 0-4 0zm2 1a1 1 0 0 1-1-1v-4a1 1 0 1 1 2 0v4a1 1 0 0 1-1 1m15-2.5a4.5 4.5 0 1 1-9 0 4.5 4.5 0 0 1 9 0m-4-2a.5.5 0 0 0-1 0V14h-1.5a.5.5 0 0 0 0 1H14v1.5a.5.5 0 0 0 1 0V15h1.5a.5.5 0 0 0 0-1H15z" fill="currentColor"/></svg>