<svg xmlns="http://www.w3.org/2000/svg" xmlns:xlink="http://www.w3.org/1999/xlink" viewBox="0 0 24 24"><path d="M4 6c0-.69.315-1.293.774-1.78.455-.482 1.079-.883 1.793-1.202C7.996 2.377 9.917 2 12 2s4.004.377 5.433 1.018c.714.32 1.338.72 1.793 1.202.459.487.774 1.09.774 1.78v5.337A3.5 3.5 0 0 0 18.5 11V8.392c-.32.22-.68.417-1.067.59C16.004 9.623 14.083 10 12 10s-4.004-.377-5.433-1.018a7 7 0 0 1-1.067-.59V18c0 .207.09.46.365.75.279.296.717.596 1.315.864 1.195.535 2.899.886 4.82.886q.536 0 1.046-.035c.08.508.267 1.005.567 1.458q-.785.076-1.613.077c-2.083 0-4.004-.377-5.433-1.017-.714-.32-1.338-.72-1.793-1.203C4.315 19.293 4 18.69 4 18zm1.5 0c0 .207.09.46.365.75.279.296.717.596 1.315.864 1.195.535 2.899.886 4.82.886s3.625-.35 4.82-.886c.598-.268 1.036-.568 1.315-.864.275-.29.365-.543.365-.75s-.09-.46-.365-.75c-.279-.296-.717-.596-1.315-.864-1.195-.535-2.9-.886-4.82-.886s-3.625.35-4.82.886c-.598.268-1.036.568-1.315.864-.275.29-.365.543-.365.75M21 14.5a2.5 2.5 0 1 1-5 0 2.5 2.5 0 0 1 5 0m2 5.375C23 21.431 21.714 23 18.5 23S14 21.437 14 19.875v-.103c0-.98.794-1.772 1.773-1.772h5.454c.98 0 1.773.793 1.773 1.772z" fill="currentColor"/></svg>