<svg xmlns="http://www.w3.org/2000/svg" xmlns:xlink="http://www.w3.org/1999/xlink" viewBox="0 0 20 20"><path d="M6.942 3.131a.5.5 0 0 1-.208.676 7.03 7.03 0 0 0-2.927 2.927.5.5 0 0 1-.884-.468 8.03 8.03 0 0 1 3.344-3.343.5.5 0 0 1 .675.208m6.116 0a.5.5 0 0 1 .676-.208 8.03 8.03 0 0 1 3.343 3.343.5.5 0 0 1-.884.468 7.03 7.03 0 0 0-2.926-2.927.5.5 0 0 1-.209-.676m-9.926 9.927a.5.5 0 0 1 .675.208 7.03 7.03 0 0 0 2.927 2.927.5.5 0 0 1-.467.884 8.03 8.03 0 0 1-3.344-3.343.5.5 0 0 1 .209-.676m13.737 0a.5.5 0 0 1 .208.676 8.03 8.03 0 0 1-3.343 3.343.5.5 0 1 1-.467-.884 7.03 7.03 0 0 0 2.926-2.927.5.5 0 0 1 .676-.208M10 5.5a5 5 0 0 0-.45.022.5.5 0 1 1-.1-.995 5.5 5.5 0 0 1 5.798 3.823.5.5 0 1 1-.954.3A4.5 4.5 0 0 0 10 5.5m-2.6.2a.5.5 0 0 1-.1.7A4.5 4.5 0 0 0 5.5 10c0 .82.22 1.588.602 2.25a.5.5 0 0 1-.866.5A5.5 5.5 0 0 1 4.5 10c0-1.8.865-3.398 2.2-4.4a.5.5 0 0 1 .7.1m7.521 5.323a.5.5 0 0 1 .327.627 5.502 5.502 0 0 1-7.998 3.114.5.5 0 0 1 .5-.866 4.502 4.502 0 0 0 6.544-2.548.5.5 0 0 1 .627-.327M8.001 10a2 2 0 1 1 4 0 2 2 0 0 1-4 0m2-3a3 3 0 1 0 0 6 3 3 0 0 0 0-6" fill="currentColor"/></svg>