<svg xmlns="http://www.w3.org/2000/svg" xmlns:xlink="http://www.w3.org/1999/xlink" viewBox="0 0 24 24"><path d="M18.25 2.996A2.75 2.75 0 0 1 21 5.746v12.5a2.75 2.75 0 0 1-2.75 2.75H5.75A2.75 2.75 0 0 1 3 18.246v-12.5a2.75 2.75 0 0 1 2.75-2.75zm0 1.5H5.75c-.69 0-1.25.56-1.25 1.25v12.5c0 .69.56 1.25 1.25 1.25h12.5c.69 0 1.25-.56 1.25-1.25v-12.5c0-.69-.56-1.25-1.25-1.25M7.75 9c.38 0 .693.281.743.646l.007.101v6.507a.75.75 0 0 1-.75.746.75.75 0 0 1-.743-.645L7 16.253V9.746C7 9.334 7.336 9 7.75 9m8.5-2c.38 0 .694.275.743.63l.007.1v8.541a.74.74 0 0 1-.75.73.744.744 0 0 1-.743-.631l-.007-.099V7.729a.74.74 0 0 1 .75-.73zm-4.275 4.997a.73.73 0 0 1 .732.62l.008.1.035 3.547a.73.73 0 0 1-.725.733.73.73 0 0 1-.732-.62l-.008-.099-.035-3.547a.73.73 0 0 1 .725-.734" fill="currentColor"/></svg>