<svg xmlns="http://www.w3.org/2000/svg" viewBox="0 0 24 24"><path fill="currentColor" d="M20 6c0 2.21-3.582 4-8 4S4 8.21 4 6s3.582-4 8-4 8 1.79 8 4m-2.232 4.428C16.152 11.116 14.137 11.5 12 11.5c-2.392 0-4.63-.482-6.328-1.33A7.6 7.6 0 0 1 4 9.053V18c0 2.21 3.582 4 8 4q.829 0 1.61-.081a3.7 3.7 0 0 1-.61-2.044v-.103A2.77 2.77 0 0 1 15.773 17h.277a3.5 3.5 0 0 1 .882-5.63c.392-.197.73-.516.836-.942M21 14.5a2.5 2.5 0 1 1-5 0 2.5 2.5 0 0 1 5 0m2 5.375C23 21.431 21.714 23 18.5 23S14 21.437 14 19.875v-.103c0-.98.794-1.772 1.773-1.772h5.454c.98 0 1.773.793 1.773 1.772z"/></svg>