<svg xmlns="http://www.w3.org/2000/svg" viewBox="0 0 24 24"><path fill="currentColor" d="M15 3.51c0 .322.2.607.494.74a8.53 8.53 0 0 1 4.257 4.257.82.82 0 0 0 .739.494c.521 0 .892-.508.684-.986a10.04 10.04 0 0 0-5.188-5.189c-.479-.208-.986.163-.986.685zm-6.986-.684c.479-.208.986.163.986.685a.82.82 0 0 1-.494.738A8.53 8.53 0 0 0 4.25 8.507a.82.82 0 0 1-.739.494c-.521 0-.892-.508-.684-.986a10.04 10.04 0 0 1 5.188-5.189zM15 20.49c0-.321.2-.606.494-.738a8.53 8.53 0 0 0 4.257-4.258.82.82 0 0 1 .739-.493c.521 0 .892.507.684.985a10.04 10.04 0 0 1-5.188 5.189c-.479.208-.986-.163-.986-.685M4.249 15.494a.82.82 0 0 0-.739-.493c-.521 0-.892.507-.684.985a10.04 10.04 0 0 0 5.188 5.189c.479.208.986-.163.986-.685a.82.82 0 0 0-.494-.738 8.53 8.53 0 0 1-4.257-4.258M12 6.501q-.29 0-.572.029a.75.75 0 1 1-.154-1.492 7 7 0 0 1 7.552 5.406.75.75 0 1 1-1.463.332A5.5 5.5 0 0 0 12 6.501m-2.879-.1a.75.75 0 0 1-.2 1.042A5.5 5.5 0 0 0 6.5 12a5.47 5.47 0 0 0 .942 3.08.75.75 0 0 1-1.242.84A6.97 6.97 0 0 1 5 12a7 7 0 0 1 3.08-5.8.75.75 0 0 1 1.041.2zm9.11 6.505a.75.75 0 0 1 .529.919 7.003 7.003 0 0 1-10.01 4.377.75.75 0 0 1 .697-1.328 5.503 5.503 0 0 0 7.864-3.44.75.75 0 0 1 .92-.528M12 8a4 4 0 1 0 0 8 4 4 0 0 0 0-8"/></svg>