<svg xmlns="http://www.w3.org/2000/svg" viewBox="0 0 24 24"><path fill="currentColor" d="M10 4a3 3 0 0 0-3 3v4a3 3 0 1 0 6 0V7a3 3 0 0 0-3-3m1.5 7a1.5 1.5 0 0 1-3 0V7a1.5 1.5 0 1 1 3 0zM5 12.5a1.5 1.5 0 1 1-3 0 1.5 1.5 0 0 1 3 0M19.5 7v4q0 .156-.03.304c.488.155.952.366 1.383.626.095-.293.147-.605.147-.93V7a3 3 0 1 0-6 0v4q0 .246.039.482a6.5 6.5 0 0 1 1.463-.406L16.5 11V7a1.5 1.5 0 0 1 3 0M23 17.5a5.5 5.5 0 1 1-11 0 5.5 5.5 0 0 1 11 0m-8.5-.5a.5.5 0 0 0 0 1h4.793l-1.647 1.646a.5.5 0 0 0 .708.708l2.5-2.5a.5.5 0 0 0 0-.708l-2.5-2.5a.5.5 0 0 0-.708.708L19.293 17z"/></svg>