<svg xmlns="http://www.w3.org/2000/svg" viewBox="0 0 28 28"><path fill="currentColor" d="M14 2.25a3.75 3.75 0 0 1 3.745 3.55l.005.2h5.5a.75.75 0 0 1 .102 1.493l-.102.007h-1.059l-1.22 15.053A3.75 3.75 0 0 1 17.233 26h-6.466a3.75 3.75 0 0 1-3.738-3.447L5.808 7.5H4.75a.75.75 0 0 1-.743-.648L4 6.75a.75.75 0 0 1 .648-.743L4.75 6h5.5A3.75 3.75 0 0 1 14 2.25m6.687 5.25H7.313l1.211 14.932a2.25 2.25 0 0 0 2.243 2.068h6.466a2.25 2.25 0 0 0 2.243-2.068L20.686 7.5zm-8.937 3.75a.75.75 0 0 1 .743.648L12.5 12v8a.75.75 0 0 1-1.493.102L11 20v-8a.75.75 0 0 1 .75-.75m4.5 0a.75.75 0 0 1 .743.648L17 12v8a.75.75 0 0 1-1.493.102L15.5 20v-8a.75.75 0 0 1 .75-.75M14 3.75a2.25 2.25 0 0 0-2.245 2.096L11.75 6h4.5l-.005-.154A2.25 2.25 0 0 0 14 3.75"/></svg>