<svg xmlns="http://www.w3.org/2000/svg" xmlns:xlink="http://www.w3.org/1999/xlink" viewBox="0 0 20 20"><path d="M10 1.25a2.75 2.75 0 0 1 2.739 2.5H17a.75.75 0 0 1 .102 1.493L17 5.25h-.583L15.15 16.23A2 2 0 0 1 13.163 18H6.837a2 2 0 0 1-1.987-1.77L3.582 5.25H3a.75.75 0 0 1-.743-.648L2.25 4.5a.75.75 0 0 1 .648-.743L3 3.75h4.261A2.75 2.75 0 0 1 10 1.25M8.5 7.5c-.245 0-.45.155-.492.359L8 7.938v6.125l.008.078c.042.204.247.359.492.359s.45-.155.492-.359L9 14.062V7.939l-.008-.08C8.95 7.656 8.745 7.5 8.5 7.5m3 0c-.245 0-.45.155-.492.359L11 7.938v6.125l.008.078c.042.204.247.359.492.359s.45-.155.492-.359l.008-.079V7.939l-.008-.08c-.042-.203-.247-.358-.492-.358zM10 2.75c-.605 0-1.11.43-1.225 1h2.45c-.116-.57-.62-1-1.225-1" fill="currentColor"/></svg>