<svg xmlns="http://www.w3.org/2000/svg" xmlns:xlink="http://www.w3.org/1999/xlink" viewBox="0 0 24 24"><path d="M16.5 12a5.5 5.5 0 1 1 0 11 5.5 5.5 0 0 1 0-11M12 1.5A3.5 3.5 0 0 1 15.5 5h5a1 1 0 1 1 0 2h-.845l-.451 4.587A6.5 6.5 0 0 0 11.81 22H8.312a2.75 2.75 0 0 1-2.737-2.48L4.345 7H3.5a1 1 0 0 1 0-2h5A3.5 3.5 0 0 1 12 1.5m1.716 13.089-.07.057-.057.07a.5.5 0 0 0 0 .568l.057.07 2.147 2.146-2.147 2.146-.057.07a.5.5 0 0 0 0 .568l.057.07.07.057a.5.5 0 0 0 .568 0l.07-.057 2.146-2.147 2.146 2.147.07.057a.5.5 0 0 0 .568 0l.07-.057.057-.07a.5.5 0 0 0 0-.568l-.057-.07-2.147-2.146 2.147-2.146.057-.07a.5.5 0 0 0 0-.568l-.057-.07-.07-.057a.5.5 0 0 0-.568 0l-.07.057-2.146 2.147-2.146-2.147-.07-.057a.5.5 0 0 0-.492-.044zM12 3.5A1.5 1.5 0 0 0 10.5 5h3A1.5 1.5 0 0 0 12 3.5" fill="currentColor"/></svg>