<svg xmlns="http://www.w3.org/2000/svg" viewBox="0 0 20 20"><path fill="currentColor" d="M11.5 4a1.5 1.5 0 0 0-3 0zm-4 0a2.5 2.5 0 0 1 5 0H17a.5.5 0 0 1 0 1h-.554l-.484 4.196a5.5 5.5 0 0 0-.987-.176L15.438 5H4.561l1.282 11.115a1 1 0 0 0 .994.885H9.6q.276.538.657 1h-3.42a2 2 0 0 1-1.987-1.77L3.553 5H3a.5.5 0 0 1-.492-.41L2.5 4.5A.5.5 0 0 1 3 4zM19 14.5a4.5 4.5 0 1 1-9 0 4.5 4.5 0 0 1 9 0m-2.646-1.146a.5.5 0 0 0-.708-.708L14.5 13.793l-1.146-1.147a.5.5 0 0 0-.708.708l1.147 1.146-1.147 1.146a.5.5 0 0 0 .708.708l1.146-1.147 1.146 1.147a.5.5 0 0 0 .708-.708L15.207 14.5z"/></svg>