<svg xmlns="http://www.w3.org/2000/svg" viewBox="0 0 20 20"><path fill="currentColor" d="M11.5 4a1.5 1.5 0 0 0-3 0zm-4 0a2.5 2.5 0 0 1 5 0H17a.5.5 0 0 1 0 1h-.554l-.484 4.196a5.5 5.5 0 0 0-.987-.176L15.438 5H4.561l1.282 11.115a1 1 0 0 0 .994.885H9.6q.276.538.657 1h-3.42a2 2 0 0 1-1.987-1.77L3.553 5H3a.5.5 0 0 1-.492-.41L2.5 4.5A.5.5 0 0 1 3 4zm7 15a4.5 4.5 0 1 0 0-9 4.5 4.5 0 0 0 0 9m-.896-6.396-.897.896h1.543A2.75 2.75 0 0 1 17 16.25v.25a.5.5 0 0 1-1 0v-.25a1.75 1.75 0 0 0-1.75-1.75h-1.543l.897.896a.5.5 0 0 1-.708.708l-1.752-1.753a.5.5 0 0 1 .002-.705l1.75-1.75a.5.5 0 0 1 .708.708"/></svg>