<svg xmlns="http://www.w3.org/2000/svg" viewBox="0 0 20 20"><path fill="currentColor" d="M10 1.25a2.75 2.75 0 0 1 2.739 2.5H17a.75.75 0 0 1 .102 1.493L17 5.25h-.583l-.455 3.946A5.5 5.5 0 0 0 10.258 18H6.836a2 2 0 0 1-1.987-1.77L3.582 5.25H3a.75.75 0 0 1-.743-.648L2.25 4.5a.75.75 0 0 1 .648-.743L3 3.75h4.261A2.75 2.75 0 0 1 10 1.25m0 1.5c-.605 0-1.11.43-1.225 1h2.45c-.116-.57-.62-1-1.225-1M14.5 19a4.5 4.5 0 1 0 0-9 4.5 4.5 0 0 0 0 9m-.896-6.396-.897.896h1.543A2.75 2.75 0 0 1 17 16.25v.25a.5.5 0 0 1-1 0v-.25a1.75 1.75 0 0 0-1.75-1.75h-1.543l.897.896a.5.5 0 0 1-.708.708l-1.752-1.753a.5.5 0 0 1 .002-.705l1.75-1.75a.5.5 0 0 1 .708.708"/></svg>