<svg xmlns="http://www.w3.org/2000/svg" xmlns:xlink="http://www.w3.org/1999/xlink" viewBox="0 0 20 20"><path d="M10 1.25a2.75 2.75 0 0 1 2.739 2.5H17a.75.75 0 0 1 .102 1.493L17 5.25h-.583L15.523 13H13.5a1.5 1.5 0 0 0-1.118 2.5 1.5 1.5 0 0 0-.382 1c0 .384.144.735.382 1-.13.144-.23.314-.297.5H6.837a2 2 0 0 1-1.987-1.77L3.582 5.25H3a.75.75 0 0 1-.743-.648L2.25 4.5a.75.75 0 0 1 .648-.743L3 3.75h4.261A2.75 2.75 0 0 1 10 1.25m0 1.5c-.605 0-1.11.43-1.225 1h2.45c-.116-.57-.62-1-1.225-1m3 11.75a.5.5 0 0 1 .5-.5h5a.5.5 0 0 1 0 1h-5a.5.5 0 0 1-.5-.5m0 2a.5.5 0 0 1 .5-.5h5a.5.5 0 0 1 0 1h-5a.5.5 0 0 1-.5-.5m0 2a.5.5 0 0 1 .5-.5h5a.5.5 0 0 1 0 1h-5a.5.5 0 0 1-.5-.5" fill="currentColor"/></svg>