<svg xmlns="http://www.w3.org/2000/svg" viewBox="0 0 20 20"><path fill="currentColor" d="m15.188 15.896-.038.333A2 2 0 0 1 13.163 18H6.837a2 2 0 0 1-1.987-1.77L3.582 5.25H3a.75.75 0 0 1-.743-.648L2.25 4.5a.75.75 0 0 1 .648-.743L3 3.75h.043l-.897-.896a.5.5 0 1 1 .708-.708L8.26 7.553l9.594 9.593a.5.5 0 0 1-.708.708zM8 8.707v5.355l.008.08c.042.203.247.358.492.358s.45-.155.492-.359L9 14.062V9.707zm3 3v2.355l.008.08c.042.203.247.358.492.358s.45-.155.492-.359l.008-.079v-1.355zm0-2.828L5.871 3.75h1.39a2.75 2.75 0 0 1 5.478 0H17a.75.75 0 0 1 .102 1.493L17 5.25h-.583l-.936 8.11L12 9.879V7.938l-.008-.08c-.042-.203-.247-.358-.492-.358s-.45.155-.492.359L11 7.938zM10 2.75c-.605 0-1.11.43-1.225 1h2.45c-.116-.57-.62-1-1.225-1"/></svg>