<svg xmlns="http://www.w3.org/2000/svg" viewBox="0 0 20 20"><path fill="currentColor" d="M10 1.25a2.75 2.75 0 0 1 2.739 2.5H17a.75.75 0 0 1 .102 1.493L17 5.25h-.583l-.455 3.946A5.5 5.5 0 0 0 10.258 18H6.836a2 2 0 0 1-1.987-1.77L3.582 5.25H3a.75.75 0 0 1-.743-.648L2.25 4.5a.75.75 0 0 1 .648-.743L3 3.75h4.261A2.75 2.75 0 0 1 10 1.25m0 1.5c-.605 0-1.11.43-1.225 1h2.45c-.116-.57-.62-1-1.225-1m9 11.75a4.5 4.5 0 1 1-9 0 4.5 4.5 0 0 1 9 0m-2.646-1.146a.5.5 0 0 0-.708-.708L14.5 13.793l-1.146-1.147a.5.5 0 0 0-.708.708l1.147 1.146-1.147 1.146a.5.5 0 0 0 .708.708l1.146-1.147 1.146 1.147a.5.5 0 0 0 .708-.708L15.207 14.5z"/></svg>