<svg xmlns="http://www.w3.org/2000/svg" viewBox="0 0 48 48"><path fill="currentColor" d="M24 6.75a6.25 6.25 0 0 1 6.246 6.02l.004.231L37 13a1.75 1.75 0 0 1 .144 3.494L37 16.5h-1.167l-1.627 21.57A4.25 4.25 0 0 1 29.968 42H18.032a4.25 4.25 0 0 1-4.238-3.93L12.166 16.5H11a1.75 1.75 0 0 1-1.744-1.607l-.006-.143a1.75 1.75 0 0 1 1.607-1.744L11 13h6.75c0-3.298 2.555-6 5.794-6.234l.227-.012zm3.75 13a1.25 1.25 0 0 0-1.244 1.122L26.5 21v12l.006.128a1.25 1.25 0 0 0 2.488 0L29 33V21l-.006-.128a1.25 1.25 0 0 0-1.244-1.122m-7.5 0a1.25 1.25 0 0 0-1.244 1.122L19 21v12l.006.128a1.25 1.25 0 0 0 2.488 0L21.5 33V21l-.006-.128a1.25 1.25 0 0 0-1.244-1.122m3.918-9.495L24 10.25a2.75 2.75 0 0 0-2.745 2.582l-.005.169 5.5-.001a2.75 2.75 0 0 0-2.582-2.745"/></svg>