<svg xmlns="http://www.w3.org/2000/svg" xmlns:xlink="http://www.w3.org/1999/xlink" viewBox="0 0 20 20"><path d="M7.5 4a2.5 2.5 0 0 1 5 0H17a.5.5 0 0 1 0 1h-.554l-.923 8h-1.007l.922-8H4.561l1.282 11.115a1 1 0 0 0 .994.885h5.248c.066.186.168.356.297.5-.13.144-.23.314-.297.5H6.837a2 2 0 0 1-1.987-1.77L3.553 5H3a.5.5 0 0 1-.492-.41L2.5 4.5A.5.5 0 0 1 3 4zm4 0a1.5 1.5 0 0 0-3 0zm2 12a.5.5 0 0 0 0 1h5a.5.5 0 0 0 0-1zm0-2a.5.5 0 0 0 0 1h5a.5.5 0 0 0 0-1zm-.5 4.5a.5.5 0 0 1 .5-.5h5a.5.5 0 0 1 0 1h-5a.5.5 0 0 1-.5-.5" fill="currentColor"/></svg>