<svg xmlns="http://www.w3.org/2000/svg" xmlns:xlink="http://www.w3.org/1999/xlink" viewBox="0 0 28 28"><path d="M14 2a4 4 0 0 1 3.995 3.8L18 6h5a1 1 0 0 1 .117 1.993L23 8h-.849l-1.18 14.553A3.75 3.75 0 0 1 17.233 26h-6.466a3.75 3.75 0 0 1-3.738-3.447L5.848 8H5a1 1 0 0 1-.993-.883L4 7a1 1 0 0 1 .883-.993L5 6h5a4 4 0 0 1 4-4m-2.25 9.25a.75.75 0 0 0-.743.648L11 12v8l.007.102a.75.75 0 0 0 1.486 0L12.5 20v-8l-.007-.102a.75.75 0 0 0-.743-.648m4.5 0a.75.75 0 0 0-.743.648L15.5 12v8l.007.102a.75.75 0 0 0 1.486 0L17 20v-8l-.007-.102a.75.75 0 0 0-.743-.648M14 4a2 2 0 0 0-1.995 1.85L12 6h4l-.005-.15A2 2 0 0 0 14 4" fill="currentColor"/></svg>