<svg xmlns="http://www.w3.org/2000/svg" xmlns:xlink="http://www.w3.org/1999/xlink" viewBox="0 0 20 20"><path d="M9 4c-.763 0-1.475.213-2.082.584a3.3 3.3 0 0 0-.339-.96A5 5 0 0 1 14 8h2.501A1.5 1.5 0 0 1 18 9.5v6a1.5 1.5 0 0 1-1.5 1.5h-6A1.5 1.5 0 0 1 9 15.5V13a5 5 0 0 1-2.02-.425Q7 12.066 7 11.5v-.035c.588.34 1.271.535 2 .535V9.5A1.5 1.5 0 0 1 10.5 8H13a4 4 0 0 0-4-4m4.9 5a5.01 5.01 0 0 1-3.9 3.9v2.6a.5.5 0 0 0 .5.5h6a.5.5 0 0 0 .5-.5v-6a.5.5 0 0 0-.5-.5zm-1.026 0H10.5a.5.5 0 0 0-.5.5v2.374A4.01 4.01 0 0 0 12.874 9M4.581 2.125a.5.5 0 0 1 .119.598.3.3 0 0 0-.013.09c0 .063.016.183.167.333.073.073.129.125.19.182.05.046.103.094.17.16.13.124.267.27.39.453.255.383.396.862.396 1.559 0 .853-.316 1.58-.809 2.026l.064.074c.28.344.443.79.545 1.23.2.87.2 1.916.2 2.645v.025c0 2.787-.379 4.368-.796 5.272-.21.455-.433.745-.626.927a1.5 1.5 0 0 1-.258.198 1 1 0 0 1-.133.067S4.074 18 4 18s-.187-.036-.187-.036a1 1 0 0 1-.133-.067 1.5 1.5 0 0 1-.258-.198c-.193-.183-.416-.472-.626-.927C2.379 15.868 2 14.287 2 11.5v-.025c0-.73 0-1.775.2-2.645.102-.44.265-.886.545-1.23q.03-.038.064-.074C2.316 7.08 2 6.353 2 5.5c0-.326.087-.715.207-1.074s.288-.732.482-1.032c.231-.39.556-.717.808-.937a6 6 0 0 1 .432-.343l.03-.02.009-.007.003-.002.002-.001a.5.5 0 0 1 .608.041M4 7c.387-.001 1-.43 1-1.5 0-.553-.109-.824-.229-1.004a1.8 1.8 0 0 0-.251-.289l-.124-.116c-.081-.076-.176-.164-.25-.237a1.7 1.7 0 0 1-.279-.365 2.5 2.5 0 0 0-.334.44c-.14.215-.276.51-.377.814-.104.31-.156.584-.156.757C3 6.572 3.615 7 4 7h.002zm-.48 1.232c-.142.173-.26.449-.346.823C3.002 9.803 3 10.743 3 11.5c0 2.713.371 4.132.704 4.853.11.237.213.395.296.5a2.5 2.5 0 0 0 .296-.5c.333-.721.704-2.14.704-4.853 0-.757-.002-1.697-.175-2.445-.086-.374-.204-.65-.345-.823A.57.57 0 0 0 4 8h-.002a.57.57 0 0 0-.478.232" fill="currentColor"/></svg>