<svg xmlns="http://www.w3.org/2000/svg" xmlns:xlink="http://www.w3.org/1999/xlink" viewBox="0 0 20 20"><path d="M6 5.25a1.25 1.25 0 1 0 0-2.5 1.25 1.25 0 0 0 0 2.5m0 4a1.25 1.25 0 1 0 0-2.5 1.25 1.25 0 0 0 0 2.5M7.25 12a1.25 1.25 0 1 1-2.5 0 1.25 1.25 0 0 1 2.5 0M10 5.25a1.25 1.25 0 1 0 0-2.5 1.25 1.25 0 0 0 0 2.5M11.25 8a1.25 1.25 0 1 1-2.5 0 1.25 1.25 0 0 1 2.5 0M10 13.25a1.25 1.25 0 1 0 0-2.5 1.25 1.25 0 0 0 0 2.5M11.25 16a1.25 1.25 0 1 1-2.5 0 1.25 1.25 0 0 1 2.5 0M14 5.25a1.25 1.25 0 1 0 0-2.5 1.25 1.25 0 0 0 0 2.5M15.25 8a1.25 1.25 0 1 1-2.5 0 1.25 1.25 0 0 1 2.5 0M14 13.25a1.25 1.25 0 1 0 0-2.5 1.25 1.25 0 0 0 0 2.5" fill="currentColor"/></svg>