<svg xmlns="http://www.w3.org/2000/svg" xmlns:xlink="http://www.w3.org/1999/xlink" viewBox="0 0 28 28"><path d="M9 4.5a1.5 1.5 0 1 1-3 0 1.5 1.5 0 0 1 3 0m0 6a1.5 1.5 0 1 1-3 0 1.5 1.5 0 0 1 3 0m0 6a1.5 1.5 0 1 1-3 0 1.5 1.5 0 0 1 3 0m6.5-12a1.5 1.5 0 1 1-3 0 1.5 1.5 0 0 1 3 0m0 6a1.5 1.5 0 1 1-3 0 1.5 1.5 0 0 1 3 0m0 6a1.5 1.5 0 1 1-3 0 1.5 1.5 0 0 1 3 0m0 6a1.5 1.5 0 1 1-3 0 1.5 1.5 0 0 1 3 0m6.5-18a1.5 1.5 0 1 1-3 0 1.5 1.5 0 0 1 3 0m0 6a1.5 1.5 0 1 1-3 0 1.5 1.5 0 0 1 3 0m0 6a1.5 1.5 0 1 1-3 0 1.5 1.5 0 0 1 3 0" fill="currentColor"/></svg>