<svg xmlns="http://www.w3.org/2000/svg" viewBox="0 0 32 32"><path fill="currentColor" d="M9 7.5a2.5 2.5 0 1 0 0-5 2.5 2.5 0 0 0 0 5m0 7a2.5 2.5 0 1 0 0-5 2.5 2.5 0 0 0 0 5m0 7a2.5 2.5 0 1 0 0-5 2.5 2.5 0 0 0 0 5m7-14a2.5 2.5 0 1 0 0-5 2.5 2.5 0 0 0 0 5m0 7a2.5 2.5 0 1 0 0-5 2.5 2.5 0 0 0 0 5m0 7a2.5 2.5 0 1 0 0-5 2.5 2.5 0 0 0 0 5m0 7a2.5 2.5 0 1 0 0-5 2.5 2.5 0 0 0 0 5m7-21a2.5 2.5 0 1 0 0-5 2.5 2.5 0 0 0 0 5m0 7a2.5 2.5 0 1 0 0-5 2.5 2.5 0 0 0 0 5m0 7a2.5 2.5 0 1 0 0-5 2.5 2.5 0 0 0 0 5"/></svg>