<svg xmlns="http://www.w3.org/2000/svg" viewBox="0 0 28 28"><path fill="currentColor" d="M18 3a3 3 0 0 0-3 3v4a3 3 0 0 0 3 3h4a3 3 0 0 0 3-3V6a3 3 0 0 0-3-3zM6.188 4.123c.753-1.497 2.871-1.497 3.624 0l2.965 5.895c.687 1.365-.296 2.982-1.812 2.982h-5.93c-1.516 0-2.499-1.617-1.812-2.982zm-2.23 12.932a5 5 0 0 1 1.529-1.378l6.512 7.325a5 5 0 0 1-1.494 1.326zM3 20c0-.526.081-1.034.232-1.51l5.769 6.41a5 5 0 0 1-2.488-.125A5 5 0 0 1 3 20m10 0c0 .553-.09 1.086-.256 1.583l-5.76-6.48a5 5 0 0 1 2.024-.001 5 5 0 0 1 3.976 4.493l.001.02Q13 19.806 13 20m7.954-4.765a2.05 2.05 0 0 0-1.908 0l-2.992 1.576A1.95 1.95 0 0 0 15 18.536v2.928c0 .72.405 1.383 1.054 1.725l2.992 1.576a2.05 2.05 0 0 0 1.908 0l2.992-1.576A1.95 1.95 0 0 0 25 21.464v-2.928c0-.72-.405-1.383-1.054-1.725z"/></svg>