<svg xmlns="http://www.w3.org/2000/svg" viewBox="0 0 24 24"><path fill="currentColor" d="M16 3a3 3 0 0 0-3 3v2a3 3 0 0 0 3 3h2a3 3 0 0 0 3-3V6a3 3 0 0 0-3-3zm-10.45.898a1.619 1.619 0 0 1 2.9 0l2.372 4.716C11.37 9.707 10.585 11 9.372 11H4.628c-1.213 0-1.999-1.293-1.45-2.386zm5.378 13.864a4 4 0 0 1-.62 1.486l-5.556-5.557A4 4 0 0 1 7 13a4 4 0 0 1 3.93 4.748zm-3.24 3.18a4 4 0 0 1-4.618-4.69l.002-.014a4 4 0 0 1 .62-1.486l5.556 5.557a4 4 0 0 1-1.56.632zm8.832-7.826c.3-.155.66-.155.96 0l2.974 1.536a1 1 0 0 1 .546.885v2.926a1 1 0 0 1-.546.885l-2.974 1.536c-.3.155-.66.155-.96 0l-2.974-1.536a1 1 0 0 1-.546-.885v-2.926a1 1 0 0 1 .546-.885z"/></svg>