<svg xmlns="http://www.w3.org/2000/svg" viewBox="0 0 48 48"><path fill="currentColor" d="M31 6a5 5 0 0 0-5 5v6a5 5 0 0 0 5 5h6a5 5 0 0 0 5-5v-6a5 5 0 0 0-5-5zM16.904 7.797C15.7 5.4 12.31 5.4 11.105 7.797l-4.743 9.432C5.262 19.413 6.835 22 9.26 22h9.488c2.426 0 3.998-2.587 2.899-4.771l-4.744-9.432zM8.772 27.944a8 8 0 0 0-1.434 1.626l-.001.001.047.045L18.43 40.662a8 8 0 0 0 2.053-1.974L9.559 27.345a8 8 0 0 0-.787.6zm3.21-1.687 9.68 10.051a8 8 0 0 0 .275-3.318 8.008 8.008 0 0 0-9.954-6.733zm4.002 15.495-9.736-9.736a8 8 0 0 0-.085 3.596 8.01 8.01 0 0 0 9.821 6.14m20.004-15.255a4.22 4.22 0 0 0-3.976 0l-3.894 2.085c-1.307.7-2.118 2.031-2.118 3.477v3.882c0 1.446.811 2.777 2.118 3.477l3.894 2.085a4.22 4.22 0 0 0 3.976 0l3.894-2.085c1.307-.7 2.118-2.031 2.118-3.477V32.06c0-1.446-.811-2.777-2.118-3.477l-3.894-2.085z"/></svg>