<svg xmlns="http://www.w3.org/2000/svg" viewBox="0 0 28 28"><path fill="currentColor" d="M18 3a3 3 0 0 0-3 3v4a3 3 0 0 0 3 3h4a3 3 0 0 0 3-3V6a3 3 0 0 0-3-3zM9.812 4.123c-.753-1.497-2.871-1.497-3.624 0l-2.965 5.895C2.536 11.383 3.519 13 5.035 13h5.93c1.516 0 2.499-1.617 1.812-2.982zm-2.284.674a.524.524 0 0 1 .944 0l2.965 5.895a.552.552 0 0 1-.472.808h-5.93a.552.552 0 0 1-.472-.808zM3 20c0-.762.17-1.484.475-2.13a.75.75 0 0 1 .16-.312 5 5 0 0 1 2.074-2.003A5 5 0 1 1 3 20m8.446.617a3.5 3.5 0 0 0-4.063-4.063zm-.643 1.48-4.9-4.9a3.5 3.5 0 0 0-.739.75l4.888 4.889c.286-.208.54-.457.751-.74zM8 23.5q.282 0 .552-.043l-4.009-4.009A3.5 3.5 0 0 0 8 23.5m11.046-8.265a2.05 2.05 0 0 1 1.908 0l2.992 1.576A1.95 1.95 0 0 1 25 18.536v2.928c0 .72-.405 1.383-1.054 1.725l-2.992 1.576a2.05 2.05 0 0 1-1.908 0l-2.992-1.576A1.95 1.95 0 0 1 15 21.464v-2.928c0-.72.405-1.383 1.054-1.725zm1.209 1.327a.55.55 0 0 0-.51 0l-2.992 1.576a.45.45 0 0 0-.253.398v2.928c0 .15.085.309.253.398l2.992 1.576a.55.55 0 0 0 .51 0l2.992-1.576a.45.45 0 0 0 .253-.398v-2.928a.45.45 0 0 0-.253-.398z"/></svg>