<svg xmlns="http://www.w3.org/2000/svg" xmlns:xlink="http://www.w3.org/1999/xlink" viewBox="0 0 24 24"><path d="M12 8V2H6a2 2 0 0 0-2 2v7.035A3.5 3.5 0 0 1 7 14.5v.025l2.013-2.012a1.75 1.75 0 1 1 2.474 2.474L9.475 17H9.5a3.5 3.5 0 0 1 3.163 5H18a2 2 0 0 0 2-2V10h-6a2 2 0 0 1-2-2m-6.873 8.398A2.5 2.5 0 0 1 3.5 17a2.5 2.5 0 1 1 1.627-.602M4 13.634a1 1 0 1 0-1 1.732 1 1 0 0 0 1-1.732m6.78.646a.75.75 0 1 0-1.06-1.06l-7.5 7.5a.75.75 0 1 0 1.06 1.06zM7 20.5A2.496 2.496 0 0 0 9.5 23a2.496 2.496 0 0 0 2.5-2.5 2.5 2.5 0 0 0-5 0m3.5 0a1 1 0 1 1-2 0 1 1 0 0 1 2 0m3-12.5V2.5l6 6H14a.5.5 0 0 1-.5-.5" fill="currentColor"/></svg>