<svg xmlns="http://www.w3.org/2000/svg" xmlns:xlink="http://www.w3.org/1999/xlink" viewBox="0 0 20 20"><path d="M6 2a2 2 0 0 0-2 2v7h1V4a1 1 0 0 1 1-1h4v3.5A1.5 1.5 0 0 0 11.5 8H15v8a1 1 0 0 1-1 1h-2.256a4.5 4.5 0 0 1-.502 1H14a2 2 0 0 0 2-2V7.414a1.5 1.5 0 0 0-.44-1.06l-3.914-3.915A1.5 1.5 0 0 0 10.586 2zm8.793 5H11.5a.5.5 0 0 1-.5-.5V3.207zM5 12.5a.5.5 0 0 0-.5-.5l-.192.005A3.5 3.5 0 0 0 4.5 19l.09-.008A.5.5 0 0 0 4.5 18l-.164-.005A2.5 2.5 0 0 1 4.5 13l.09-.008A.5.5 0 0 0 5 12.5m6 3A3.5 3.5 0 0 0 7.5 12l-.09.008A.5.5 0 0 0 7.5 13l.164.005A2.5 2.5 0 0 1 7.5 18l-.002.005-.09.008a.5.5 0 0 0 .094.992V19l.192-.005A3.5 3.5 0 0 0 11 15.5m-3.5-.498L4.5 15l-.09.008A.5.5 0 0 0 4.5 16l3 .002.09-.008a.5.5 0 0 0-.09-.992" fill="currentColor"/></svg>