<svg xmlns="http://www.w3.org/2000/svg" xmlns:xlink="http://www.w3.org/1999/xlink" viewBox="0 0 24 24"><path d="M18.5 20a.5.5 0 0 1-.5.5h-5c0 .537-.12 1.045-.337 1.5H18a2 2 0 0 0 2-2V9.828a2 2 0 0 0-.586-1.414l-5.829-5.828-.049-.04-.036-.03a2 2 0 0 0-.219-.18 1 1 0 0 0-.08-.044l-.048-.024-.05-.029c-.054-.031-.109-.063-.166-.087a2 2 0 0 0-.624-.138l-.059-.007L12.172 2H6a2 2 0 0 0-2 2v7.035a3.5 3.5 0 0 1 1.5.592V4a.5.5 0 0 1 .5-.5h6V8a2 2 0 0 0 2 2h4.5zm-5-15.379L17.378 8.5H14a.5.5 0 0 1-.5-.5zM6 14.5a2.5 2.5 0 1 1-5 0 2.5 2.5 0 0 1 5 0m-1.5 0a1 1 0 1 0-2 0 1 1 0 0 0 2 0m7.5 6a2.5 2.5 0 1 1-5 0 2.5 2.5 0 0 1 5 0m-1.5 0a1 1 0 1 0-2 0 1 1 0 0 0 2 0m.28-7.28a.75.75 0 0 1 0 1.06l-7.5 7.5a.75.75 0 0 1-1.06-1.06l7.5-7.5a.75.75 0 0 1 1.06 0" fill="currentColor"/></svg>