<svg xmlns="http://www.w3.org/2000/svg" viewBox="0 0 24 24"><path fill="currentColor" d="M11.409 10.946a4.93 4.93 0 0 1 .54 6.326l-.141.19 4.217 4.218.075.087a.773.773 0 0 1-1.081 1.081l-.087-.075-4.257-4.256a4.927 4.927 0 0 1-6.232-7.57 4.926 4.926 0 0 1 6.966 0zM13.129 2a2.25 2.25 0 0 1 1.59.659l2.812 2.81 2.808 2.812c.421.422.658.994.658 1.59v9.879a2.25 2.25 0 0 1-2.25 2.25h-1.51a1.8 1.8 0 0 0-.334-.83l-.12-.143-.527-.528 2.49.001a.75.75 0 0 0 .75-.75v-9.747H15.25a2.25 2.25 0 0 1-2.245-2.095L13 7.754V3.5H7.25a.75.75 0 0 0-.75.75v4.421a6 6 0 0 0-1.501.582L5 4.25A2.25 2.25 0 0 1 7.25 2zM5.536 12.04a3.38 3.38 0 1 0 4.78 4.779 3.38 3.38 0 0 0-4.78-4.78zM14.5 4.56v3.194c0 .38.282.693.648.743l.102.007 3.191-.001z"/></svg>