<svg xmlns="http://www.w3.org/2000/svg" xmlns:xlink="http://www.w3.org/1999/xlink" viewBox="0 0 24 24"><path d="M18.5 20a.5.5 0 0 1-.5.5h-6v1q0 .257-.05.5H18a2 2 0 0 0 2-2V9.828a2 2 0 0 0-.586-1.414l-5.829-5.828-.049-.04-.036-.03a2 2 0 0 0-.219-.18 1 1 0 0 0-.08-.044l-.048-.024-.05-.029c-.054-.031-.109-.063-.166-.087a2 2 0 0 0-.624-.138l-.059-.007L12.172 2H6a2 2 0 0 0-2 2v7.55a3.5 3.5 0 0 1 1.5-.905V4a.5.5 0 0 1 .5-.5h6V8a2 2 0 0 0 2 2h4.5zm-5-15.379L17.378 8.5H14a.5.5 0 0 1-.5-.5zM4 15h-.5A1.5 1.5 0 0 0 2 16.5v5A1.5 1.5 0 0 0 3.5 23h6a1.5 1.5 0 0 0 1.5-1.5v-5A1.5 1.5 0 0 0 9.5 15H9v-1a2.5 2.5 0 0 0-5 0zm1.5-1a1 1 0 1 1 2 0v1h-2zm2 5a1 1 0 1 1-2 0 1 1 0 0 1 2 0" fill="currentColor"/></svg>