<svg xmlns="http://www.w3.org/2000/svg" xmlns:xlink="http://www.w3.org/1999/xlink" viewBox="0 0 24 24"><path d="M12 8V2H6a2 2 0 0 0-2 2v7.498A6.5 6.5 0 0 1 6.5 11a6.5 6.5 0 0 1 2.504.5h6.746a.75.75 0 0 1 0 1.5h-4.56c.361.376.678.796.94 1.25h3.62a.75.75 0 0 1 0 1.5h-2.988q.168.604.22 1.25h2.768a.75.75 0 0 1 0 1.5h-2.826A6.5 6.5 0 0 1 11.19 22H18a2 2 0 0 0 2-2V10h-6a2 2 0 0 1-2-2m1.5 0V2.5l6 6H14a.5.5 0 0 1-.5-.5M12 17.5a5.5 5.5 0 1 0-11 0 5.5 5.5 0 0 0 11 0m-5.5 0h2a.5.5 0 1 1 0 1H6a.5.5 0 0 1-.5-.5v-3a.5.5 0 0 1 1 0z" fill="currentColor"/></svg>