<svg xmlns="http://www.w3.org/2000/svg" xmlns:xlink="http://www.w3.org/1999/xlink" viewBox="0 0 24 24"><path d="M18.5 20a.5.5 0 0 1-.5.5H6a.5.5 0 0 1-.5-.5V4a.5.5 0 0 1 .5-.5h6V8a2 2 0 0 0 2 2h4.5zm-5-15.379L17.378 8.5H14a.5.5 0 0 1-.5-.5zm5.914 3.793-5.829-5.828c-.026-.026-.058-.046-.085-.07a2 2 0 0 0-.219-.18c-.04-.027-.086-.045-.128-.068-.071-.04-.141-.084-.216-.116a2 2 0 0 0-.624-.138C12.266 2.011 12.22 2 12.172 2H6a2 2 0 0 0-2 2v16a2 2 0 0 0 2 2h12a2 2 0 0 0 2-2V9.828a2 2 0 0 0-.586-1.414" fill="currentColor"/></svg>