<svg xmlns="http://www.w3.org/2000/svg" xmlns:xlink="http://www.w3.org/1999/xlink" viewBox="0 0 24 24"><path d="M11.19 13a6.5 6.5 0 0 0-2.186-1.5h6.246a.75.75 0 0 1 0 1.5zm.94 1.25c.27.466.484.97.632 1.5h2.488a.75.75 0 0 0 0-1.5zM13 17.5q0 .51-.076 1h2.326a.75.75 0 0 0 0-1.5h-2.269q.02.248.019.5M5.5 4a.5.5 0 0 1 .5-.5h6V8a2 2 0 0 0 2 2h4.5v10a.5.5 0 0 1-.5.5h-5.732A6.5 6.5 0 0 1 11.19 22H18a2 2 0 0 0 2-2V9.828a2 2 0 0 0-.586-1.414l-5.829-5.828-.049-.04-.036-.03a2 2 0 0 0-.219-.18 1 1 0 0 0-.08-.044l-.048-.024-.05-.029c-.054-.031-.109-.063-.166-.087a2 2 0 0 0-.624-.138l-.059-.007L12.172 2H6a2 2 0 0 0-2 2v7.498a6.5 6.5 0 0 1 1.5-.422zm11.878 4.5H14a.5.5 0 0 1-.5-.5V4.621zM12 17.5a5.5 5.5 0 1 0-11 0 5.5 5.5 0 0 0 11 0m-5.5 0h2a.5.5 0 1 1 0 1H6a.5.5 0 0 1-.5-.5v-3a.5.5 0 0 1 1 0z" fill="currentColor"/></svg>