<svg xmlns="http://www.w3.org/2000/svg" xmlns:xlink="http://www.w3.org/1999/xlink" viewBox="0 0 20 20"><path d="M10 2v4.5A1.5 1.5 0 0 0 11.5 8H16v8.5a1.5 1.5 0 0 1-1.5 1.5H12v-4.5A2.5 2.5 0 0 0 9.5 11H9v-1a1 1 0 0 0-1-1H4V3.5A1.5 1.5 0 0 1 5.5 2zm1 .25V6.5a.5.5 0 0 0 .5.5h4.25zM4 10.5a.5.5 0 0 1 .5-.5h3a.5.5 0 0 1 .5.5V12h1a2 2 0 0 1 2 2v3a2 2 0 0 1-2 2H3a2 2 0 0 1-2-2v-3a2 2 0 0 1 2-2h1zm3 .5H5v1h2zm-4 2a1 1 0 0 0-1 1v3a1 1 0 0 0 1 1h6a1 1 0 0 0 1-1v-3a1 1 0 0 0-1-1z" fill="currentColor"/></svg>