<svg xmlns="http://www.w3.org/2000/svg" xmlns:xlink="http://www.w3.org/1999/xlink" viewBox="0 0 24 24"><path d="M12 2v6a2 2 0 0 0 2 2h6v10.5a1.5 1.5 0 0 1-1.5 1.5H14v-5.25A2.75 2.75 0 0 0 11.25 14v-1a1.5 1.5 0 0 0-1.5-1.5H4.5q-.264.001-.5.085V3.5A1.5 1.5 0 0 1 5.5 2zm1.5.5V8a.5.5 0 0 0 .5.5h5.5zM3.75 13.25a.75.75 0 0 1 .75-.75h5a.75.75 0 0 1 .75.75V15h.5A2.25 2.25 0 0 1 13 17.25v3.5A2.25 2.25 0 0 1 10.75 23h-7.5A2.25 2.25 0 0 1 1 20.75v-3.5A2.25 2.25 0 0 1 3.25 15h.5zm5 .75h-3.5v1h3.5zm-5.5 2.5a.75.75 0 0 0-.75.75v3.5c0 .414.336.75.75.75h7.5a.75.75 0 0 0 .75-.75v-3.5a.75.75 0 0 0-.75-.75z" fill="currentColor"/></svg>