<svg xmlns="http://www.w3.org/2000/svg" xmlns:xlink="http://www.w3.org/1999/xlink" viewBox="0 0 24 24"><path d="M6.5 2A2.5 2.5 0 0 0 4 4.5v15A2.5 2.5 0 0 0 6.5 22H7v-3.25a.75.75 0 0 1 1.5 0V22h7v-3.25a.75.75 0 0 1 1.5 0V22h.5a2.5 2.5 0 0 0 2.5-2.5v-15A2.5 2.5 0 0 0 17.5 2H17v3.25a.75.75 0 0 1-1.5 0V2h-7v3.25a.75.75 0 0 1-1.5 0V2zm1.25 14.5a.75.75 0 0 1-.75-.75v-7.5a.75.75 0 0 1 1.5 0v7.5a.75.75 0 0 1-.75.75m8.5 0a.75.75 0 0 1-.75-.75v-7.5a.75.75 0 0 1 1.5 0v7.5a.75.75 0 0 1-.75.75" fill="currentColor"/></svg>