<svg xmlns="http://www.w3.org/2000/svg" xmlns:xlink="http://www.w3.org/1999/xlink" viewBox="0 0 20 20"><path d="M10 12c0 .924-.314 1.775-.84 2.453l3.691 3.692a.5.5 0 1 1-.707.707L8.453 15.16A4 4 0 1 1 10 12m-4 3a3 3 0 1 0 0-6 3 3 0 0 0 0 6M5.5 3a.5.5 0 0 0-.5.5v3.6q-.523.106-1 .316V3.5A1.5 1.5 0 0 1 5.5 2h5.086a1.5 1.5 0 0 1 1.06.44l3.915 3.914A1.5 1.5 0 0 1 16 7.414V16.5a1.5 1.5 0 0 1-1.5 1.5h-.587a1.5 1.5 0 0 0-.354-.563L13.12 17h1.38a.5.5 0 0 0 .5-.5V8h-3.5A1.5 1.5 0 0 1 10 6.5V3zm5.5.207V6.5a.5.5 0 0 0 .5.5h3.293z" fill="currentColor"/></svg>