<svg xmlns="http://www.w3.org/2000/svg" xmlns:xlink="http://www.w3.org/1999/xlink" viewBox="0 0 20 20"><path d="M10.142 10.5H6.86L8.5 5.815zm.526 1.5.33.944 1.178-1.177-2.873-8.198c-.266-.759-1.339-.759-1.605 0L4.042 14.003a.75.75 0 0 0 1.416.496L6.333 12zm5.14-2.452-4.829 4.83a2.2 2.2 0 0 0-.578 1.02l-.374 1.498a1 1 0 0 0-.024.14 4.6 4.6 0 0 1-1.111-.088c-.073-.017-.1-.11-.066-.178.18-.348.233-1.073-.404-1.33-.86-.345-1.978.125-2.862.498-.366.154-.692.29-.944.346-.387.086-.848-.065-1.216-.249-.212-.106-.482.082-.36.286.219.366.614.737 1.326.825.82.102 1.391-.152 1.975-.41.4-.178.805-.358 1.3-.428.086-.012.145.09.112.17-.152.357-.133.894.316 1.244.518.405 2.191.511 3.313.183l1.221-.305c.387-.097.74-.296 1.021-.578l4.83-4.83a1.87 1.87 0 0 0-2.645-2.644z" fill="currentColor"/></svg>