<svg xmlns="http://www.w3.org/2000/svg" viewBox="0 0 24 24"><path fill="currentColor" d="M3 6.25A3.25 3.25 0 0 1 6.25 3h11.5A3.25 3.25 0 0 1 21 6.25v4.762a3.28 3.28 0 0 0-2.61.95l-5.902 5.903a3.7 3.7 0 0 0-.931 1.57c-.345-.536-.87-.915-1.412-1.133-.691-.278-1.385-.16-1.936.035a5.5 5.5 0 0 0-.729.326.5.5 0 0 1-.089.07L5.694 19.77c-.467.275-.907.365-1.298.335a1.9 1.9 0 0 1-.9-.311C3.109 19.539 3 19.111 3 18.789zm16.1 6.42-5.902 5.902a2.7 2.7 0 0 0-.707 1.247l-.428 1.712c-.354.17-.71.202-1.132.105-.126-.03-.18-.175-.127-.293.43-.962-.19-1.776-1.03-2.113-.955-.385-2.226.515-3.292 1.268-.592.42-1.12.793-1.496.876-.525.117-1.162-.123-1.631-.38-.209-.113-.487.072-.388.288.242.529.731 1.133 1.71 1.255.98.121 1.766-.347 2.55-.815.583-.348 1.165-.696 1.826-.799.085-.013.144.088.105.166-.242.484-.356 1.37.218 1.818.848.662 3.237.292 3.828.088a1 1 0 0 0 .148-.027l1.83-.457a2.7 2.7 0 0 0 1.248-.707l5.903-5.902A2.286 2.286 0 0 0 19.1 12.67"/></svg>