<svg xmlns="http://www.w3.org/2000/svg" viewBox="0 0 24 24"><path fill="currentColor" d="m12.748 4.002-.001.002h7.498c.967 0 1.75.784 1.75 1.75V18.25a1.75 1.75 0 0 1-1.75 1.75h-8.997l-.001-.002H3.75A1.75 1.75 0 0 1 2 18.247V5.752c0-.967.784-1.75 1.75-1.75zm7.497 1.502h-7.497V18.5h7.497a.25.25 0 0 0 .25-.25V5.755a.25.25 0 0 0-.25-.25zm-8.997-.002H3.75a.25.25 0 0 0-.25.25v12.495c0 .138.112.25.25.25h7.498zM16.5 7c.38 0 .695.281.745.647l.007.101v6.698l.964-.96a.755.755 0 0 1 .98-.072l.084.072a.746.746 0 0 1 .072.975l-.072.084-2.248 2.237-.038.035-.063.05-.067.04-.06.03-.102.037-.062.014-.093.012h-.094l-.092-.012-.096-.024-.112-.047-.077-.046-.108-.089-2.248-2.237a.746.746 0 0 1 0-1.059.755.755 0 0 1 .98-.072l.084.072.963.96V7.748a.75.75 0 0 1 .553-.722l.098-.02z"/></svg>