<svg xmlns="http://www.w3.org/2000/svg" xmlns:xlink="http://www.w3.org/1999/xlink" viewBox="0 0 24 24"><path d="M20.245 4.004c.967 0 1.75.784 1.75 1.75V18.25a1.75 1.75 0 0 1-1.75 1.75h-7.247q-.13 0-.256-.018V4.023q.125-.018.256-.019zm-9.247-.002a2 2 0 0 1 .245.017V19.98a2 2 0 0 1-.245.017H3.75A1.75 1.75 0 0 1 2 18.247V5.752c0-.967.784-1.75 1.75-1.75zM17.5 7l-.102.007-.098.02a.75.75 0 0 0-.544.609l-.008.112v6.698l-.964-.96-.085-.072a.755.755 0 0 0-.979.072.746.746 0 0 0-.072.975l.072.084 2.248 2.237.108.089.077.046.112.047.096.024.092.012h.094l.093-.012.062-.014.101-.036.061-.03.067-.042.063-.049.038-.035 2.248-2.237.072-.084a.75.75 0 0 0 .008-.88l-.08-.095-.085-.072a.76.76 0 0 0-.885-.007l-.094.08-.965.959.001-6.698-.007-.101a.75.75 0 0 0-.643-.64z" fill="currentColor"/></svg>