<svg xmlns="http://www.w3.org/2000/svg" viewBox="0 0 24 24"><path fill="currentColor" d="M20.253 4.004c.966 0 1.75.784 1.75 1.75V18.25a1.75 1.75 0 0 1-1.75 1.75h-7.248a2 2 0 0 1-.255-.018V4.023a2 2 0 0 1 .255-.019zm-2.081 5.411a.75.75 0 0 0-1.342 0l-2.25 4.5a.75.75 0 0 0 .67 1.086h4.5a.75.75 0 0 0 .672-1.086zm-7.167-5.413q.126 0 .246.017V19.98q-.12.017-.246.017H3.758a1.75 1.75 0 0 1-1.75-1.75V5.752c0-.967.783-1.75 1.75-1.75zM7.172 9.415a.75.75 0 0 0-1.342 0l-2.25 4.5a.75.75 0 0 0 .67 1.086h4.5a.75.75 0 0 0 .672-1.086z"/></svg>