<svg xmlns="http://www.w3.org/2000/svg" viewBox="0 0 24 24"><path fill="currentColor" d="M21.996 9.972V20.25a1.75 1.75 0 0 1-1.75 1.75h-7.248q-.13 0-.256-.019V11.805A6.47 6.47 0 0 0 16.5 13a6.5 6.5 0 0 0 5.496-3.028m-11.977-3.97a6.47 6.47 0 0 0 1.224 4.321v11.656a2 2 0 0 1-.245.017H3.75A1.75 1.75 0 0 1 2 20.246V7.751c0-.966.784-1.75 1.75-1.75zM9.243 17.5H7.74l-.102.007a.75.75 0 0 0 0 1.486L7.74 19h1.502l.102-.007a.75.75 0 0 0 0-1.486zm6.996 0h-1.5l-.102.007a.75.75 0 0 0 0 1.486l.102.007h1.5l.101-.007a.75.75 0 0 0 0-1.486zM16.498 1a5.5 5.5 0 1 1 0 11 5.5 5.5 0 0 1 0-11m-1 2a.5.5 0 0 0-.5.5v4a.5.5 0 0 0 .5.5h3.001a.5.5 0 0 0 0-1h-2.501V3.5a.5.5 0 0 0-.5-.5"/></svg>