<svg xmlns="http://www.w3.org/2000/svg" viewBox="0 0 24 24"><path fill="currentColor" d="M20.245 4.004c.967 0 1.75.784 1.75 1.75V18.25a1.75 1.75 0 0 1-1.75 1.75h-7.247q-.13 0-.256-.018V4.023q.125-.018.256-.019zm-9.247-.002a2 2 0 0 1 .245.017V19.98a2 2 0 0 1-.245.017H3.75A1.75 1.75 0 0 1 2 18.247V5.752c0-.967.784-1.75 1.75-1.75zm4.704 9.4a.75.75 0 0 0-1.06 1.04l.073.084 2.253 2.296.084.074c.266.2.636.2.902 0l.085-.075 2.25-2.295.071-.085a.75.75 0 0 0-1.06-1.039l-.083.074-1.714 1.75-1.718-1.75zm2.337-6.176a.75.75 0 0 0-.987-.075l-.084.074-2.253 2.296a.75.75 0 0 0 .987 1.124l.083-.073 1.718-1.75 1.714 1.75a.75.75 0 0 0 1.143-.966l-.071-.084z"/></svg>