<svg xmlns="http://www.w3.org/2000/svg" xmlns:xlink="http://www.w3.org/1999/xlink" viewBox="0 0 20 20"><path d="M14.6 7.38a.5.5 0 0 0 0-.707L13.327 5.4a.5.5 0 1 0-.707.707l1.273 1.273a.5.5 0 0 0 .707 0m-6.79 6.081a.5.5 0 1 1-.707.707l-1.272-1.272a.5.5 0 1 1 .707-.708zm9.36-10.614a1.466 1.466 0 0 0-2.073 0l-.62.62-.245-.244a1.848 1.848 0 0 0-2.844.28 2.273 2.273 0 0 0-2.09 3.828l.658.657-1.969 1.969-.658-.658a2.273 2.273 0 0 0-3.828 2.09 1.85 1.85 0 0 0-.28 2.844l.245.245-.637.637a1.466 1.466 0 0 0 2.073 2.074l.638-.638.244.244a1.848 1.848 0 0 0 2.844-.28 2.273 2.273 0 0 0 2.09-3.828l-.658-.657 1.969-1.968.658.657a2.273 2.273 0 0 0 3.827-2.09 1.85 1.85 0 0 0 .28-2.844l-.245-.244.62-.62a1.466 1.466 0 0 0 0-2.074zm-1.328 1.987-.659-.66.62-.62a.466.466 0 0 1 .66.66zm-4.52 4.52-1.969 1.969-.659-.659 1.969-1.968zm-6.49 6.49-.637.637a.466.466 0 0 1-.66-.659l.639-.637zM12.326 3.93a.85.85 0 0 1 1.2 0l2.562 2.562a.848.848 0 0 1-.336 1.407.5.5 0 0 0-.3.683 1.273 1.273 0 0 1-2.057 1.43l-3.39-3.389a1.273 1.273 0 0 1 1.43-2.057.5.5 0 0 0 .684-.3.84.84 0 0 1 .207-.336m-7.503 6.076a1.273 1.273 0 0 1 1.8 0l3.389 3.389a1.273 1.273 0 0 1-1.43 2.057.5.5 0 0 0-.684.3.848.848 0 0 1-1.406.336L3.93 13.526a.848.848 0 0 1 .336-1.406.5.5 0 0 0 .3-.684 1.27 1.27 0 0 1 .257-1.43" fill="currentColor"/></svg>