<svg xmlns="http://www.w3.org/2000/svg" viewBox="0 0 24 24"><path fill="currentColor" d="M13.94 5 19 10.06l-.613.615a6.5 6.5 0 0 0-8.712 8.712l-.613.612a2.25 2.25 0 0 1-.999.58l-5.116 1.395a.75.75 0 0 1-.92-.921l1.395-5.116a2.25 2.25 0 0 1 .58-.999L13.938 5zm1.56 6q.44 0 .86.072l.174.716a2 2 0 0 0 2.413 1.475l.098-.026.601-.179c.363.467.653.997.854 1.57l-.447.431a2 2 0 0 0-.17 2.699l.142.157.475.457a5.5 5.5 0 0 1-.853 1.57l-.602-.179a2 2 0 0 0-2.485 1.352l-.026.098-.173.716a5.2 5.2 0 0 1-1.723 0l-.172-.716a2 2 0 0 0-2.413-1.476l-.098.026-.602.178a5.6 5.6 0 0 1-.853-1.57l.447-.43a2 2 0 0 0 .055-2.827l-.055-.055-.447-.43c.2-.574.49-1.103.853-1.57l.602.178a2 2 0 0 0 2.485-1.351l.026-.098.172-.716q.421-.071.862-.072m0 4c-.8 0-1.45.672-1.45 1.5 0 .829.65 1.5 1.45 1.5s1.45-.671 1.45-1.5c0-.828-.65-1.5-1.45-1.5m5.53-12.03a3.58 3.58 0 0 1 0 5.06l-.97.97L15 3.94l.97-.97a3.58 3.58 0 0 1 5.06 0"/></svg>