<svg xmlns="http://www.w3.org/2000/svg" viewBox="0 0 16 16"><path fill="currentColor" d="M13.854 13.145a.5.5 0 0 1 .057.638l-.057.069a.5.5 0 0 1-.638.058l-.07-.058-3.962-3.963-2.791 2.793a2 2 0 0 1-.888.515l-2.873.784a.5.5 0 0 1-.614-.614l.783-2.874a2 2 0 0 1 .516-.888l2.79-2.79-3.96-3.961a.5.5 0 0 1-.058-.638l.057-.07a.5.5 0 0 1 .638-.057l.07.058zM6.815 7.52l-2.791 2.792a1 1 0 0 0-.258.444l-.553 2.029 2.029-.554a1 1 0 0 0 .444-.257l2.791-2.792zm6.42-5.01.132.12.121.132a2.176 2.176 0 0 1-.121 2.945l-2.77 2.766-.706-.706 1.585-1.584-1.662-1.662L8.23 6.106l-.708-.708 2.77-2.767a2.176 2.176 0 0 1 2.945-.12zm-2.237.827-.476.476 1.662 1.662L12.66 5a1.175 1.175 0 1 0-1.662-1.662z"/></svg>