<svg xmlns="http://www.w3.org/2000/svg" viewBox="0 0 16 16"><path fill="currentColor" d="m2.784 2.089.07.058 11 10.998a.5.5 0 0 1 .057.638l-.057.069a.5.5 0 0 1-.638.058l-.07-.058-3.963-3.963-2.79 2.793a2 2 0 0 1-.888.515l-2.873.784a.5.5 0 0 1-.614-.614l.783-2.874a2 2 0 0 1 .516-.888l2.79-2.792-3.96-3.96a.5.5 0 0 1-.058-.637l.057-.07a.5.5 0 0 1 .638-.057m6.323 1.726 3.077 3.076-1.586 1.583L7.52 5.398zm4.129-1.305.131.121.121.132a2.176 2.176 0 0 1-.121 2.945l-.477.475-3.076-3.076.477-.476a2.176 2.176 0 0 1 2.945-.12z"/></svg>