<svg xmlns="http://www.w3.org/2000/svg" xmlns:xlink="http://www.w3.org/1999/xlink" viewBox="0 0 20 20"><path d="m15.613 8.32-3.936-3.936-8.038 8.039-.117.128a2 2 0 0 0-.398.76l-1.106 4.055-.015.08a.5.5 0 0 0 .63.534l4.054-1.106.165-.053c.271-.1.518-.257.723-.462l1.44-1.441a5.5 5.5 0 0 1 5.902-5.902zm1.568-5.503a2.783 2.783 0 0 0-3.936 0l-.861.86 3.936 3.936.86-.86.131-.14a2.783 2.783 0 0 0-.13-3.796M19 14.5a4.5 4.5 0 1 1-9 0 4.5 4.5 0 0 1 9 0m-5.396-2.604a.5.5 0 0 0-.708 0l-1.75 1.75a.5.5 0 0 0-.002.705l1.752 1.753a.5.5 0 0 0 .708-.708l-.897-.896h1.543c.966 0 1.75.784 1.75 1.75v.25a.5.5 0 0 0 1 0v-.25a2.75 2.75 0 0 0-2.75-2.75h-1.543l.897-.896a.5.5 0 0 0 0-.708" fill="currentColor"/></svg>