<svg xmlns="http://www.w3.org/2000/svg" viewBox="0 0 16 16"><path fill="currentColor" d="m11.698 5.131.959-.959a2 2 0 0 0-2.829-2.828L2.442 8.73a2.5 2.5 0 0 0-.658 1.161l-.572 2.291a.5.5 0 0 0 .606.607l2.291-.573a2.5 2.5 0 0 0 1.02-.526A5.5 5.5 0 0 1 5 10.414l-.438.437a1.5 1.5 0 0 1-.697.395l-1.482.37.37-1.482a1.5 1.5 0 0 1 .395-.697L9.12 3.465l1.414 1.414-.122.122a5.6 5.6 0 0 1 1.285.13zm-1.87-2.373.708-.707a1 1 0 1 1 1.414 1.414l-.708.707zM15 10.5a4.5 4.5 0 1 1-9 0 4.5 4.5 0 0 1 9 0M9.604 7.897a.5.5 0 0 0-.708 0l-1.75 1.75a.5.5 0 0 0-.002.705l1.752 1.752a.5.5 0 1 0 .708-.707l-.897-.896h1.543c.966 0 1.75.783 1.75 1.75v.25a.5.5 0 0 0 1 0v-.25a2.75 2.75 0 0 0-2.75-2.75H8.707l.897-.897a.5.5 0 0 0 0-.707"/></svg>