<svg xmlns="http://www.w3.org/2000/svg" xmlns:xlink="http://www.w3.org/1999/xlink" viewBox="0 0 20 20"><path d="M2.854 2.146a.5.5 0 1 0-.707.708l5.53 5.53-4.038 4.04-.117.127a2 2 0 0 0-.398.76l-1.106 4.055-.015.08a.5.5 0 0 0 .63.534l4.054-1.106.165-.053a2 2 0 0 0 .723-.462l4.038-4.039 5.534 5.534a.5.5 0 0 0 .707-.708zm8.052 9.467-4.038 4.039-.098.086-.107.072a1 1 0 0 1-.24.1l-3.21.875.876-3.21.042-.124a1 1 0 0 1 .215-.32l4.039-4.039zm4-4L12.32 10.2l.708.707 4.153-4.153.13-.14a2.783 2.783 0 0 0-4.066-3.796L9.092 6.971l.707.707 2.586-2.586zm1.568-4.089.11.12c.584.7.547 1.744-.11 2.402l-.861.86-2.521-2.52.86-.862.12-.11a1.783 1.783 0 0 1 2.402.11" fill="currentColor"/></svg>