<svg xmlns="http://www.w3.org/2000/svg" xmlns:xlink="http://www.w3.org/1999/xlink" viewBox="0 0 20 20"><path d="M17.18 2.817a2.783 2.783 0 0 0-3.935 0L3.64 12.423l-.117.128a2 2 0 0 0-.398.76l-1.106 4.055-.015.08a.5.5 0 0 0 .63.534l4.054-1.106.165-.053c.271-.1.518-.257.723-.462l1.44-1.441a5.6 5.6 0 0 1 .093-1.506l-2.24 2.24-.098.085-.107.072a1 1 0 0 1-.239.1l-3.212.876.877-3.211.042-.123a1 1 0 0 1 .215-.321l8.039-8.038 2.521 2.521-1.495 1.495a5.5 5.5 0 0 1 1.507-.092l2.263-2.263.13-.14a2.783 2.783 0 0 0-.13-3.796zm-3.108.598a1.783 1.783 0 0 1 2.402.11l.11.12c.584.7.547 1.743-.11 2.4l-.861.86-2.521-2.52.86-.86zM19 14.5a4.5 4.5 0 1 1-9 0 4.5 4.5 0 0 1 9 0m-5.396-2.604a.5.5 0 0 0-.708 0l-1.75 1.75a.5.5 0 0 0-.002.705l1.752 1.753a.5.5 0 0 0 .708-.708l-.897-.896h1.543c.966 0 1.75.784 1.75 1.75v.25a.5.5 0 0 0 1 0v-.25a2.75 2.75 0 0 0-2.75-2.75h-1.543l.897-.896a.5.5 0 0 0 0-.708" fill="currentColor"/></svg>