<svg xmlns="http://www.w3.org/2000/svg" viewBox="0 0 28 28"><path fill="currentColor" d="M2 14C2 7.373 7.373 2 14 2s12 5.373 12 12-5.373 12-12 12S2 20.627 2 14m15.5-1a1.5 1.5 0 1 0 0-3 1.5 1.5 0 0 0 0 3M12 11.5a1.5 1.5 0 1 0-3 0 1.5 1.5 0 0 0 3 0m-3.672 5.63a.75.75 0 0 0-.198 1.042v.001l.002.002.002.003.008.01a3 3 0 0 0 .097.131c.065.083.158.196.28.329a7 7 0 0 0 1.087.96C10.576 20.307 12.038 21 14 21s3.425-.694 4.394-1.391a7 7 0 0 0 1.088-.962 6 6 0 0 0 .355-.428l.022-.03.007-.01.002-.004.001-.002.001-.001a.75.75 0 0 0-1.239-.846l-.007.01a4 4 0 0 1-.247.297 5.7 5.7 0 0 1-.859.758c-.768.553-1.93 1.109-3.518 1.109s-2.75-.556-3.518-1.109a5.6 5.6 0 0 1-.858-.757 4 4 0 0 1-.247-.297l-.009-.012a.75.75 0 0 0-1.04-.195"/></svg>