<svg xmlns="http://www.w3.org/2000/svg" xmlns:xlink="http://www.w3.org/1999/xlink" viewBox="0 0 24 24"><path d="M17.5 12a5.5 5.5 0 1 1 0 10.999 5.5 5.5 0 0 1 0-11zM12 1.997c5.524 0 10.002 4.478 10.002 10.002q0 .395-.03.782a6.502 6.502 0 0 0-10.88 3.626 4.5 4.5 0 0 1-2.63-1.625.75.75 0 0 0-1.178.928 6 6 0 0 0 3.73 2.21c.1 1.564.754 2.98 1.769 4.05Q12.395 22 12 22C6.476 22 1.998 17.522 1.998 11.999S6.476 1.998 12 1.998zm5.5 12-.09.008a.5.5 0 0 0-.402.402l-.008.09v2.5L14.498 17l-.09.008a.5.5 0 0 0-.402.402l-.008.09.008.09a.5.5 0 0 0 .402.402l.09.008H17v2.504l.008.09a.5.5 0 0 0 .402.401l.09.009.09-.009a.5.5 0 0 0 .402-.402l.008-.09v-2.504l2.504.001.09-.008a.5.5 0 0 0 .402-.402l.008-.09-.008-.09a.5.5 0 0 0-.402-.402l-.09-.008H18v-2.5l-.008-.09a.5.5 0 0 0-.402-.403l-.09-.008zM9 8.75a1.25 1.25 0 1 0 0 2.499A1.25 1.25 0 0 0 9 8.75m6 0a1.25 1.25 0 1 0 0 2.499 1.25 1.25 0 0 0 0-2.499" fill="currentColor"/></svg>