<svg xmlns="http://www.w3.org/2000/svg" xmlns:xlink="http://www.w3.org/1999/xlink" viewBox="0 0 20 20"><path d="m14.878.282.348 1.071a2.2 2.2 0 0 0 1.399 1.397l1.071.348.021.006a.423.423 0 0 1 0 .798l-1.071.348a2.2 2.2 0 0 0-1.399 1.397l-.348 1.07a.423.423 0 0 1-.798 0l-.349-1.07a2.2 2.2 0 0 0-.532-.867 2.2 2.2 0 0 0-.866-.536l-1.071-.348a.423.423 0 0 1 0-.798l1.071-.348a2.2 2.2 0 0 0 1.377-1.397l.348-1.07a.423.423 0 0 1 .799 0zm4.905 7.931-.766-.248a1.58 1.58 0 0 1-.998-.999l-.25-.764a.302.302 0 0 0-.57 0l-.248.764a1.58 1.58 0 0 1-.984.999l-.765.248a.303.303 0 0 0 0 .57l.765.249a1.58 1.58 0 0 1 1 1.002l.032.1.215.662v.002a.302.302 0 0 0 .571 0l.249-.764a1.58 1.58 0 0 1 .999-.999l.765-.248a.303.303 0 0 0 0-.57zm-2.48 3.773a1.3 1.3 0 0 1-.53-.21 7 7 0 1 1-6.683-8.775 1.42 1.42 0 0 1 .884-.854l.193-.063a8 8 0 1 0 6.587 9.893q-.224.044-.45.009zm-4.636.61a4.01 4.01 0 0 1-5.512-.169.5.5 0 1 0-.71.705 5.01 5.01 0 0 0 7.087.023l.023-.023.057-.07a.5.5 0 0 0-.767-.635zM13.5 8.5a1 1 0 1 0-2 0 1 1 0 0 0 2 0m-5 0a1 1 0 1 0-2 0 1 1 0 0 0 2 0" fill="currentColor"/></svg>