<svg xmlns="http://www.w3.org/2000/svg" viewBox="0 0 20 20"><path fill="currentColor" d="M2 10a8 8 0 1 1 16 0 8 8 0 0 1-16 0m5.5-.5a1 1 0 1 0 0-2 1 1 0 0 0 0 2m6-1a1 1 0 1 0-2 0 1 1 0 0 0 2 0m.062 4.89c.376-.35.067-.716.055-.73a3 3 0 0 0-.222-.225 4 4 0 0 0-.673-.49c-.6-.354-1.498-.695-2.72-.695s-2.121.34-2.722.694c-.3.175-.522.353-.674.49a3 3 0 0 0-.223.225l-.014.018-.005.006-.002.002-.001.001.389.314-.39-.313a.5.5 0 0 0 .777.629l.003-.003a2 2 0 0 1 .138-.137c.107-.098.275-.233.508-.37.463-.272 1.19-.556 2.216-.556s1.752.284 2.213.556c.233.137.4.272.507.369a2 2 0 0 1 .137.137l.003.003a.5.5 0 0 0 .7.075"/></svg>