<svg xmlns="http://www.w3.org/2000/svg" viewBox="0 0 24 24"><path fill="currentColor" d="M22.002 12.002C22.002 6.478 17.524 2 12 2S2 6.478 2 12.002c0 5.523 4.477 10.001 10.001 10.001s10.002-4.478 10.002-10.001zm-14.25-2a1.25 1.25 0 1 1 2.498 0 1.25 1.25 0 0 1-2.499 0zm6 0a1.25 1.25 0 1 1 2.498 0 1.25 1.25 0 0 1-2.499 0zM15.75 14h.6a.75.75 0 0 1 0 1.5h-.6c-.618 0-1.337.16-1.998.418-.669.26-1.197.588-1.472.862a.75.75 0 1 1-1.06-1.06c.475-.476 1.212-.898 1.989-1.2.784-.306 1.69-.52 2.541-.52"/></svg>