<svg xmlns="http://www.w3.org/2000/svg" viewBox="0 0 24 24"><path fill="currentColor" d="M16.088 6.412a2.84 2.84 0 0 0-1.347-.955l-1.378-.448a.544.544 0 0 1 0-1.025l.71-.231-.003-.001.67-.218a2.82 2.82 0 0 0 1.76-1.76l.011-.034.448-1.377a.544.544 0 0 1 1.027 0l.447 1.377a2.84 2.84 0 0 0 1.799 1.796l1.377.448.028.007a.544.544 0 0 1 0 1.025l-1.378.448a3 3 0 0 0-.502.222l.004.005a2.84 2.84 0 0 0-1.07 1.063l-.003-.003a3 3 0 0 0-.227.51l-.448 1.376a.544.544 0 0 1-1.026 0l-.448-1.377a2.8 2.8 0 0 0-.45-.848zm7.695 3.801-.766-.248a1.58 1.58 0 0 1-.998-.999l-.25-.764a.302.302 0 0 0-.57 0l-.248.764a1.58 1.58 0 0 1-.721.88h-.004v.002a1.6 1.6 0 0 1-.259.117l-.765.248a.302.302 0 0 0 0 .57l.765.249a1.58 1.58 0 0 1 .998.999l.249.765a.3.3 0 0 0 .111.149.302.302 0 0 0 .46-.147l.249-.764a1.58 1.58 0 0 1 .999-.999l.765-.248a.302.302 0 0 0 0-.57zm-3.036 3.549a1.3 1.3 0 0 1-.357-.382 8.501 8.501 0 1 1-8.03-9.875 1.55 1.55 0 0 1 .694-.472l1.36-.442q.21-.073.397-.192a10 10 0 0 0-2.811-.4c-5.524-.001-10.002 4.477-10.002 10 0 5.524 4.478 10.002 10.002 10.002 4.85 0 8.895-3.453 9.808-8.036a1.3 1.3 0 0 1-1.061-.203M12 16.502a4.49 4.49 0 0 1-3.539-1.72.75.75 0 0 0-1.178.93A5.99 5.99 0 0 0 12 18.001c1.86 0 3.58-.854 4.712-2.285a.75.75 0 0 0-1.178-.93A4.49 4.49 0 0 1 12 16.501zM10.25 10a1.25 1.25 0 1 0-2.5 0 1.25 1.25 0 0 0 2.5 0m6 0a1.25 1.25 0 1 0-2.5 0 1.25 1.25 0 0 0 2.5 0"/></svg>