<svg xmlns="http://www.w3.org/2000/svg" viewBox="0 0 20 20"><path fill="currentColor" d="M9 1a8 8 0 0 1 7.979 8.589 5.5 5.5 0 0 0-.982-.383 7 7 0 1 0-6.79 6.79q.145.515.382.983A8 8 0 1 1 9 1M6.155 11.427a4 4 0 0 0 3.183 1.17 5.5 5.5 0 0 0-.267 1.014 5 5 0 0 1-3.626-1.479.5.5 0 0 1 .71-.705M11.5 6.5a1 1 0 1 1 0 2 1 1 0 0 1 0-2m-5 0a1 1 0 1 1 0 2 1 1 0 0 1 0-2m12.5 8a4.5 4.5 0 1 1-9 0 4.5 4.5 0 0 1 9 0m-4-2a.5.5 0 0 0-1 0V14h-1.5a.5.5 0 0 0 0 1H14v1.5a.5.5 0 0 0 1 0V15h1.5a.5.5 0 0 0 0-1H15z"/></svg>