<svg xmlns="http://www.w3.org/2000/svg" viewBox="0 0 20 20"><path fill="currentColor" d="M7 2a5 5 0 0 1 4.905 4.027 6.5 6.5 0 0 0-.986.167 4.001 4.001 0 1 0-4.725 4.725q-.121.481-.167.986A5.002 5.002 0 0 1 7 2m.693 6.124q.364-.398.788-.733a3 3 0 0 0-3.761.66.5.5 0 1 0 .76.65 2 2 0 0 1 2.213-.577M6.25 5.5a.75.75 0 1 1-1.5 0 .75.75 0 0 1 1.5 0m3 0a.75.75 0 1 1-1.5 0 .75.75 0 0 1 1.5 0m1.25 6.75a.75.75 0 1 0 0-1.5.75.75 0 0 0 0 1.5m4.605 1.82a.5.5 0 0 1 .055.705 3.5 3.5 0 0 1-5.316.005.5.5 0 1 1 .759-.652 2.5 2.5 0 0 0 3.797-.003.5.5 0 0 1 .705-.055m-.605-1.82a.75.75 0 1 0 0-1.5.75.75 0 0 0 0 1.5m-2 5.75a5.5 5.5 0 1 0 0-11 5.5 5.5 0 0 0 0 11m0-1a4.5 4.5 0 1 1 0-9 4.5 4.5 0 0 1 0 9"/></svg>