<svg xmlns="http://www.w3.org/2000/svg" xmlns:xlink="http://www.w3.org/1999/xlink" viewBox="0 0 16 16"><path d="m13.798 2.217-.015-.004-.765-.248a1.58 1.58 0 0 1-1-.999L11.77.202a.302.302 0 0 0-.57 0l-.25.764a1.58 1.58 0 0 1-.983.999l-.594.193H9.37l-.172.055a.3.3 0 0 0-.146.111.3.3 0 0 0 .146.459l.767.249.083.03.008.002a1.58 1.58 0 0 1 .88.889l.03.08.248.765A.3.3 0 0 0 11.5 5h.004a.3.3 0 0 0 .281-.202l.249-.764a1.58 1.58 0 0 1 .999-.999l.765-.248a.303.303 0 0 0 0-.57m1.416 3.355.612.199.013.003a.242.242 0 0 1 0 .455l-.613.2a1.26 1.26 0 0 0-.799.798l-.199.612a.24.24 0 0 1-.235.16.24.24 0 0 1-.224-.16l-.2-.612a1.26 1.26 0 0 0-.8-.8l-.024-.008-.001-.003-.583-.19a.242.242 0 0 1 0-.455l.613-.2a1.26 1.26 0 0 0 .787-.798l.199-.612a.242.242 0 0 1 .456 0l.199.612a1.26 1.26 0 0 0 .799.799M8.059 2.893a1 1 0 0 0 .04.108L8 3a5 5 0 1 0 4.98 5.455 1.24 1.24 0 0 0 .938.542A6.002 6.002 0 0 1 2 8a6 6 0 0 1 6.097-6 1.3 1.3 0 0 0-.038.893M6.25 7.75a.75.75 0 1 0 0-1.5.75.75 0 0 0 0 1.5m-.114 1.917a.5.5 0 1 0-.745.667A3.5 3.5 0 0 0 8 11.5a3.5 3.5 0 0 0 2.609-1.166.5.5 0 0 0-.745-.667A2.5 2.5 0 0 1 8 10.5c-.74 0-1.405-.321-1.864-.833M10.5 7A.75.75 0 1 1 9 7a.75.75 0 0 1 1.5 0" fill="currentColor"/></svg>