<svg xmlns="http://www.w3.org/2000/svg" xmlns:xlink="http://www.w3.org/1999/xlink" viewBox="0 0 16 16"><path d="M7 13q.128 0 .254-.005a4.5 4.5 0 0 1-.142-2.497 3.5 3.5 0 0 1-2.72-1.165.5.5 0 0 1 .744-.666 2.49 2.49 0 0 0 2.356.785 4.5 4.5 0 0 1 5.503-2.198A6 6 0 1 0 7 13M5.25 6.75a.75.75 0 1 1 0-1.5.75.75 0 0 1 0 1.5m3.5 0a.75.75 0 1 1 0-1.5.75.75 0 0 1 0 1.5M15 11.5a3.5 3.5 0 1 1-7 0 3.5 3.5 0 0 1 7 0m-3-2a.5.5 0 0 0-1 0V11H9.5a.5.5 0 0 0 0 1H11v1.5a.5.5 0 0 0 1 0V12h1.5a.5.5 0 0 0 0-1H12z" fill="currentColor"/></svg>