<svg xmlns="http://www.w3.org/2000/svg" xmlns:xlink="http://www.w3.org/1999/xlink" viewBox="0 0 24 24"><path d="M12 1.998c5.524 0 10.002 4.478 10.002 10.002 0 5.523-4.478 10-10.002 10-5.524.001-10.002-4.477-10.002-10C1.998 6.476 6.476 1.998 12 1.998m0 1.5a8.502 8.502 0 1 0 0 17.003 8.502 8.502 0 0 0 0-17.003M8.462 14.783A4.5 4.5 0 0 0 12 16.5a4.49 4.49 0 0 0 3.535-1.714.75.75 0 1 1 1.177.93A5.99 5.99 0 0 1 12 18a5.99 5.99 0 0 1-4.716-2.29.75.75 0 1 1 1.178-.928zM9 8.75a1.25 1.25 0 1 1 0 2.499A1.25 1.25 0 0 1 9 8.75m6 0a1.25 1.25 0 1 1 0 2.499 1.25 1.25 0 0 1 0-2.499" fill="currentColor"/></svg>