<svg xmlns="http://www.w3.org/2000/svg" xmlns:xlink="http://www.w3.org/1999/xlink" viewBox="0 0 24 24"><path d="M12 2.004c5.523 0 10 4.477 10 10s-4.477 10-10 10-10-4.477-10-10 4.477-10 10-10m0 11.493A6 6 0 0 0 7.712 15.3a.75.75 0 1 0 1.071 1.05A4.5 4.5 0 0 1 12 14.996c1.225 0 2.37.49 3.211 1.347a.75.75 0 1 0 1.07-1.051A5.98 5.98 0 0 0 12 13.497M8.219 6.664 8.127 6.6A.75.75 0 0 0 7.2 7.759l.081.076 1.257 1.004a1.25 1.25 0 1 0 1.712 1.16.749.749 0 0 0 .55-1.26l-.082-.075zl-.091-.063zm8.617.117a.75.75 0 0 0-.963-.18l-.092.063-2.498 2-.082.075a.75.75 0 0 0 .44 1.251l.11.008a1.25 1.25 0 1 0 1.825-1.108l-.113-.051 1.256-1.004.081-.076a.75.75 0 0 0 .035-.978z" fill="currentColor"/></svg>