<svg xmlns="http://www.w3.org/2000/svg" xmlns:xlink="http://www.w3.org/1999/xlink" viewBox="0 0 16 16"><path d="M2 4a2 2 0 0 1 2-2h1.5a.5.5 0 0 1 0 1H4a1 1 0 0 0-1 1v1.5a.5.5 0 0 1-1 0zm0 8a2 2 0 0 0 2 2h1.5a.5.5 0 0 0 0-1H4a1 1 0 0 1-1-1v-1.5a.5.5 0 0 0-1 0zM12 2a2 2 0 0 1 2 2v1.5a.5.5 0 0 1-1 0V4a1 1 0 0 0-1-1h-1.5a.5.5 0 0 1 0-1zm2 10a2 2 0 0 1-2 2h-1.5a.5.5 0 0 1 0-1H12a1 1 0 0 0 1-1v-1.5a.5.5 0 0 1 1 0zM5.5 9a2.5 2.5 0 1 1 5 0 2.5 2.5 0 0 1-5 0M3.314 7.964a.5.5 0 0 0 .65-.278v.001l.005-.011.028-.06q.04-.084.136-.24a3.7 3.7 0 0 1 .64-.756C5.376 6.073 6.384 5.5 8 5.5c1.617 0 2.624.573 3.226 1.12.305.277.512.553.64.757a3 3 0 0 1 .165.299s.244.452.655.288a.5.5 0 0 0 .278-.65c-.107-.223 0 0 0 0v-.002l-.002-.004-.005-.01a2 2 0 0 0-.06-.129 4 4 0 0 0-.186-.327 4.7 4.7 0 0 0-.812-.962c-.774-.703-2.017-1.38-3.9-1.38-1.882 0-3.125.677-3.898 1.38a4.7 4.7 0 0 0-.813.962 4 4 0 0 0-.246.456l-.004.01-.002.005v.001a.5.5 0 0 0 .278.65" fill="currentColor"/></svg>