<svg xmlns="http://www.w3.org/2000/svg" viewBox="0 0 20 20"><path fill="currentColor" d="M3 4.5A1.5 1.5 0 0 1 4.5 3h3a.5.5 0 0 0 0-1h-3A2.5 2.5 0 0 0 2 4.5v3a.5.5 0 0 0 1 0zm0 11A1.5 1.5 0 0 0 4.5 17h3a.5.5 0 0 1 0 1h-3A2.5 2.5 0 0 1 2 15.5v-3a.5.5 0 0 1 1 0zM15.5 3A1.5 1.5 0 0 1 17 4.5v3a.5.5 0 0 0 1 0v-3A2.5 2.5 0 0 0 15.5 2h-3a.5.5 0 0 0 0 1zM17 15.5a1.5 1.5 0 0 1-1.5 1.5h-3a.5.5 0 0 0 0 1h3a2.5 2.5 0 0 0 2.5-2.5v-3a.5.5 0 0 0-1 0zm-10-4a3 3 0 1 1 6 0 3 3 0 0 1-6 0m3-2a2 2 0 1 0 0 4 2 2 0 0 0 0-4m-5.052.223a.5.5 0 0 1-.895-.448L4.5 9.5a25 25 0 0 1-.447-.225l.001-.001.002-.004.005-.01a2 2 0 0 1 .082-.145 5 5 0 0 1 .249-.377A6.5 6.5 0 0 1 5.425 7.62C6.375 6.805 7.863 6 10 6s3.624.805 4.575 1.62c.473.406.812.812 1.034 1.119a5 5 0 0 1 .33.521l.005.01.002.004.001.002-.447.224.447-.224a.5.5 0 0 1-.893.45v-.002l-.002-.001-.009-.018a4 4 0 0 0-.245-.381 5.5 5.5 0 0 0-.873-.944C13.125 7.695 11.863 7 10 7s-3.125.695-3.924 1.38a5.5 5.5 0 0 0-.874.944 4 4 0 0 0-.245.381z"/></svg>