<svg xmlns="http://www.w3.org/2000/svg" xmlns:xlink="http://www.w3.org/1999/xlink" viewBox="0 0 20 20"><g fill="none"><path fill="#745125" d="M4 4h12v1H4z"/><path fill="#e62c46" d="M4 5h12v1H4z"/><path fill="#f36d38" d="M4 6h12v1H4z"/><path fill="#ffd23e" d="M4 7h12v1H4z"/><path fill="#61bc51" d="M4 8h12v1H4z"/><path fill="#1793e8" d="M4 9h12v1H4z"/><path fill="#b73fbb" d="M4 10h12v1H4z"/><path d="M3.5 3h13a.5.5 0 0 1 .5.5v8a.5.5 0 0 1-.5.5H4v5.5a.5.5 0 0 1-1 0v-14a.5.5 0 0 1 .5-.5M4 4v7h12V4z" fill="#212121"/></g></svg>