<svg xmlns="http://www.w3.org/2000/svg" viewBox="0 0 28 28"><g fill="none"><path fill="#745125" d="M5 4.25h18V6H5z"/><path fill="#e62c46" d="M5 6h18v2H5z"/><path fill="#f36d38" d="M5 8h18v2H5z"/><path fill="#ffd23e" d="M5 10h18v1H5z"/><path fill="#61bc51" d="M5 11h18v2H5z"/><path fill="#1793e8" d="M5 13h18v2H5z"/><path fill="#b73fbb" d="M5 15h18v2H5z"/><path fill="#212121" d="M4.75 3a.75.75 0 0 0-.75.75v20.5a.75.75 0 0 0 1.5 0V18h17.75a.75.75 0 0 0 .75-.75V3.75a.75.75 0 0 0-.75-.75zm.75 1.5h17v12h-17z"/></g></svg>