<svg xmlns="http://www.w3.org/2000/svg" xmlns:xlink="http://www.w3.org/1999/xlink" viewBox="0 0 24 24"><path d="m8.294 14-1.767 7.068c-.187.746.736 1.256 1.269.701l3.262-3.399a6.5 6.5 0 0 1 7.046-7.342l1.687-1.759A.75.75 0 0 0 19.25 8h-4.46l1.672-5.013A.75.75 0 0 0 15.75 2h-7a.75.75 0 0 0-.721.544l-3 10.5A.75.75 0 0 0 5.75 14zm4.206 1.629.447.43a2 2 0 0 1 0 2.882l-.447.43c.2.574.49 1.103.853 1.57l.602-.178a2 2 0 0 1 2.51 1.45l.173.715a5.2 5.2 0 0 0 1.723 0l.173-.716a2 2 0 0 1 2.51-1.449l.603.178c.362-.467.652-.996.853-1.57l-.448-.43a2 2 0 0 1 0-2.882l.448-.43a5.5 5.5 0 0 0-.853-1.57l-.602.178a2 2 0 0 1-2.511-1.45l-.173-.715a5.2 5.2 0 0 0-1.723 0l-.172.716a2 2 0 0 1-2.511 1.449l-.602-.178a5.6 5.6 0 0 0-.853 1.57m5 3.371c-.8 0-1.45-.672-1.45-1.5S16.7 16 17.5 16s1.45.672 1.45 1.5S18.3 19 17.5 19" fill="currentColor"/></svg>