<svg xmlns="http://www.w3.org/2000/svg" viewBox="0 0 16 16"><path fill="currentColor" d="M12 1.5a.5.5 0 0 0-1 0v1a.5.5 0 0 0 1 0zm2.854-.354a.5.5 0 0 0-.707 0l-1 1a.5.5 0 0 0 .707.708l1-1a.5.5 0 0 0 0-.708m-8 8.708a.5.5 0 0 0-.707-.707l-1 1a.5.5 0 1 0 .707.707zm1.707-8a1.5 1.5 0 0 0-2.122 0L5.147 3.146A.5.5 0 0 0 5 3.5v3.793l-3.646 3.646a1.5 1.5 0 0 0 0 2.122l1.585 1.585a1.5 1.5 0 0 0 2.122 0L8.707 11H12.5a.5.5 0 0 0 .354-.146l1.293-1.293a1.5 1.5 0 0 0 0-2.122zm-1.414.707a.5.5 0 0 1 .707 0l5.585 5.585a.5.5 0 0 1 0 .708l-.939.939L6.207 3.5zM6 4.707 11.293 10H8.5a.5.5 0 0 0-.353.146L4.354 13.94a.5.5 0 0 1-.707 0L2.06 12.354a.5.5 0 0 1 0-.708l3.793-3.792A.5.5 0 0 0 6 7.5zM13.5 5h1a.5.5 0 0 0 0-1h-1a.5.5 0 0 0 0 1"/></svg>