<svg xmlns="http://www.w3.org/2000/svg" xmlns:xlink="http://www.w3.org/1999/xlink" viewBox="0 0 20 20"><path d="M7.212 2c-.474 0-.89.314-1.021.77l-2.25 7.874a1.062 1.062 0 0 0 1.022 1.354H6.23l-1.17 4.68c-.264 1.055 1.041 1.777 1.796.995l2.218-2.266a5.5 5.5 0 0 1-.055-1.372l-2.88 2.94-.003.003a.1.1 0 0 1-.023.018L6.102 17a.1.1 0 0 1-.041-.01.1.1 0 0 1-.03-.03l-.004-.011.003-.03 1.325-5.3A.5.5 0 0 0 6.87 11H4.963a.062.062 0 0 1-.06-.08l2.25-7.874A.06.06 0 0 1 7.212 3h5.248c.042 0 .072.04.06.08l-1.493 4.254A.5.5 0 0 0 11.5 8h3.27q.024.001.03.008a.1.1 0 0 1 .025.034.1.1 0 0 1 .007.044.06.06 0 0 1-.017.032l-.893.912a5.6 5.6 0 0 1 1.373.027l.237-.242.004-.004c.64-.667.18-1.811-.767-1.811h-2.564l1.262-3.594.002-.008A1.062 1.062 0 0 0 12.461 2zM14.5 19a4.5 4.5 0 1 0 0-9 4.5 4.5 0 0 0 0 9m2.354-5.646-3 3a.5.5 0 0 1-.708 0l-1-1a.5.5 0 0 1 .707-.708l.647.647 2.646-2.647a.5.5 0 0 1 .707.708z" fill="currentColor"/></svg>