<svg xmlns="http://www.w3.org/2000/svg" xmlns:xlink="http://www.w3.org/1999/xlink" viewBox="0 0 20 20"><path d="M7.212 2c-.474 0-.891.314-1.021.77l-2.25 7.874a1.062 1.062 0 0 0 1.021 1.354H6.23l-1.17 4.68c-.264 1.055 1.04 1.777 1.795.995l2.22-2.266a5.5 5.5 0 0 1 6.22-6.35l.237-.242.003-.004c.641-.667.18-1.811-.766-1.811h-2.564l1.261-3.594.003-.008A1.062 1.062 0 0 0 12.461 2zm3.292 10.72.358.35a2 2 0 0 1 0 2.86l-.358.35q.196.468.483.874l.396-.119a2 2 0 0 1 2.52 1.454l.115.484a4.3 4.3 0 0 0 .963 0l.115-.484a2 2 0 0 1 2.52-1.454l.396.119a4.5 4.5 0 0 0 .483-.874l-.358-.35a2 2 0 0 1 0-2.86l.358-.35a4.5 4.5 0 0 0-.483-.874l-.395.119a2 2 0 0 1-2.52-1.454l-.116-.484a4.3 4.3 0 0 0-.963 0l-.115.484a2 2 0 0 1-2.52 1.454l-.396-.119q-.287.406-.483.874M14.5 15.5a1 1 0 1 1 0-2 1 1 0 0 1 0 2" fill="currentColor"/></svg>