<svg xmlns="http://www.w3.org/2000/svg" xmlns:xlink="http://www.w3.org/1999/xlink" viewBox="0 0 16 16"><path d="M3.689 1a.75.75 0 0 0-.721.544l-1.858 6.5A.75.75 0 0 0 1.832 9H3.36l-1.345 5.379a.5.5 0 0 0 .849.464l2.428-2.57a5.5 5.5 0 0 1-.26-1.181l-1.583 1.675 1.036-4.146A.5.5 0 0 0 4 8H2.163l1.714-6H8.28L7.032 5.324a.5.5 0 0 0 .332.657A5.47 5.47 0 0 1 10.42 5H8.222l1.12-2.987A.75.75 0 0 0 8.639 1zM10.5 15a4.5 4.5 0 1 0 0-9 4.5 4.5 0 0 0 0 9m2.354-5.646-3 3a.5.5 0 0 1-.707 0l-1-1a.5.5 0 0 1 .707-.708l.646.647 2.646-2.647a.5.5 0 1 1 .708.708" fill="currentColor"/></svg>