<svg xmlns="http://www.w3.org/2000/svg" xmlns:xlink="http://www.w3.org/1999/xlink" viewBox="0 0 28 28"><path d="M10 2a.75.75 0 0 0-.714.521l-4 12.5A.75.75 0 0 0 6 16h3.54l-2.268 9.068a.75.75 0 0 0 1.28.69l4.459-4.85a7.5 7.5 0 0 1 .296-2.538l-3.865 4.203 1.786-7.141a.75.75 0 0 0-.728-.932H7.027l3.52-11h7.103l-2.348 5.976A.75.75 0 0 0 16 10.5h4.542l-2.768 3.011a7.5 7.5 0 0 1 2.504-.508l2.524-2.745A.75.75 0 0 0 22.25 9H17.1l2.348-5.976A.75.75 0 0 0 18.75 2zm10.5 25a6.5 6.5 0 1 0 0-13 6.5 6.5 0 0 0 0 13m3.854-8.646-5 5a.5.5 0 0 1-.708 0l-2-2a.5.5 0 0 1 .708-.708L19 22.293l4.646-4.647a.5.5 0 0 1 .708.708" fill="currentColor"/></svg>