<svg xmlns="http://www.w3.org/2000/svg" xmlns:xlink="http://www.w3.org/1999/xlink" viewBox="0 0 20 20"><path d="M6.191 2.77c.13-.456.547-.77 1.022-.77h5.249c.725 0 1.237.71 1.008 1.398l-.003.008L12.206 7h2.563c.947 0 1.408 1.144.767 1.811l-.004.004-.237.242a5.5 5.5 0 0 0-1.373-.027l.893-.912a.06.06 0 0 0 .017-.032.1.1 0 0 0-.007-.044.1.1 0 0 0-.025-.034q-.006-.007-.03-.008H11.5a.5.5 0 0 1-.472-.666l1.493-4.254a.062.062 0 0 0-.06-.08H7.214a.06.06 0 0 0-.06.045l-2.25 7.874c-.011.04.018.08.06.08h1.908a.5.5 0 0 1 .485.62l-1.325 5.3a.1.1 0 0 0-.004.03q0 .006.004.011.004.013.03.03c.018.01.033.01.041.01l.011-.004a.1.1 0 0 0 .023-.018l.004-.004 2.88-2.94a5.6 5.6 0 0 0 .055 1.373l-2.22 2.266c-.754.782-2.058.06-1.794-.996l1.17-4.679h-1.27a1.062 1.062 0 0 1-1.022-1.354l2.25-7.873zm4.313 9.95.358.35a2 2 0 0 1 0 2.86l-.358.35q.196.468.483.874l.396-.119a2 2 0 0 1 2.52 1.454l.115.484a4.3 4.3 0 0 0 .963 0l.115-.484a2 2 0 0 1 2.52-1.454l.396.119a4.5 4.5 0 0 0 .483-.874l-.358-.35a2 2 0 0 1 0-2.86l.358-.35a4.5 4.5 0 0 0-.483-.874l-.395.119a2 2 0 0 1-2.52-1.454l-.116-.484a4.3 4.3 0 0 0-.963 0l-.115.484a2 2 0 0 1-2.52 1.454l-.396-.119q-.287.406-.483.874M14.5 15.5a1 1 0 1 1 0-2 1 1 0 0 1 0 2" fill="currentColor"/></svg>