<svg xmlns="http://www.w3.org/2000/svg" viewBox="0 0 20 20"><path fill="currentColor" d="M6.19 2.77c.131-.456.548-.77 1.022-.77h5.25c.725 0 1.237.71 1.007 1.398l-.002.008L12.205 7h2.564c.947 0 1.407 1.144.767 1.811l-.004.004-.237.242a5.5 5.5 0 0 0-6.22 6.35l-2.22 2.266c-.754.782-2.059.06-1.795-.996l1.17-4.679H4.963a1.062 1.062 0 0 1-1.022-1.354zM14.5 19a4.5 4.5 0 1 0 0-9 4.5 4.5 0 0 0 0 9m2.354-5.646-3 3a.5.5 0 0 1-.708 0l-1-1a.5.5 0 0 1 .708-.708l.646.647 2.646-2.647a.5.5 0 0 1 .708.708"/></svg>