<svg xmlns="http://www.w3.org/2000/svg" xmlns:xlink="http://www.w3.org/1999/xlink" viewBox="0 0 24 24"><path d="m12.41 2.508.047-.006h.087l.106.021.074.03 6 3a.5.5 0 0 1 0 .894L13.618 9l5.106 2.553a.5.5 0 0 1-.003.896l-5.757 2.837.036 5.711a.5.5 0 0 1-.752.435l-6-3.5A.5.5 0 0 1 6 17.5l.002-11.544.018-.097.022-.059.012-.025a.5.5 0 0 1 .06-.093l.066-.066.072-.05 6.074-3.035zM7 12.811v4.402l4.995 2.913-.031-4.813zm.617-.808 4.382 2.207-.006-4.38zm5.375-2.198.007 4.348 4.377-2.156zM7 11.192l4.374-2.172L7 6.812zm4.999-7.382L7.615 6.002l4.378 2.21zm.993 4.384L17.382 6l-4.383-2.192z" fill="currentColor"/></svg>