<svg xmlns="http://www.w3.org/2000/svg" xmlns:xlink="http://www.w3.org/1999/xlink" viewBox="0 0 20 20"><path d="M4.5 3h2.667c.324 0 .64.105.9.3l1.6 1.2H15.5A2.5 2.5 0 0 1 18 7v3.257a5.5 5.5 0 0 0-1-.657V7a1.5 1.5 0 0 0-1.5-1.5H9.62L8.157 7.034A1.5 1.5 0 0 1 7.07 7.5H3v7A1.5 1.5 0 0 0 4.5 16h4.707q.149.524.393 1H4.5A2.5 2.5 0 0 1 2 14.5v-9A2.5 2.5 0 0 1 4.5 3M3 5.5v1h4.071a.5.5 0 0 0 .363-.155l1.26-1.324L7.467 4.1a.5.5 0 0 0-.3-.1H4.5A1.5 1.5 0 0 0 3 5.5m16 9a4.5 4.5 0 1 1-9 0 4.5 4.5 0 0 1 9 0m-4.146-2.353-.003-.003a.5.5 0 0 0-.348-.144h-.006a.5.5 0 0 0-.35.146l-2 2a.5.5 0 0 0 .707.708L14 13.707V16.5a.5.5 0 1 0 1 0v-2.793l1.146 1.147a.5.5 0 1 0 .707-.707z" fill="currentColor"/></svg>