<svg xmlns="http://www.w3.org/2000/svg" xmlns:xlink="http://www.w3.org/1999/xlink" viewBox="0 0 16 16"><path d="M7.207 3h-.032l-1.113-.89A.5.5 0 0 0 5.75 2H4a2 2 0 0 0-2 2v.5h3.557zm1.486 0L6.086 5.37a.5.5 0 0 1-.336.13H2V10a2 2 0 0 0 2 2h1.207A5.5 5.5 0 0 1 14 6.257V5a2 2 0 0 0-2-2zM6 10.5a4.5 4.5 0 1 0 9 0 4.5 4.5 0 0 0-9 0m6.5-3a.5.5 0 0 1 .5.5v1.5a.5.5 0 0 1-.5.5H11a.5.5 0 0 1 0-1h.468a2 2 0 0 0-.933-.25 2 2 0 0 0-1.45.586.5.5 0 0 1-.706-.707A3 3 0 0 1 12 8.152V8a.5.5 0 0 1 .5-.5m-.876 5.532A3 3 0 0 1 9 12.848V13a.5.5 0 0 1-1 0v-1.5a.5.5 0 0 1 .5-.5H10a.5.5 0 0 1 0 1h-.468a2 2 0 0 0 .933.25 2 2 0 0 0 1.45-.586.5.5 0 0 1 .706.707c-.285.285-.624.51-.997.66z" fill="currentColor"/></svg>