<svg xmlns="http://www.w3.org/2000/svg" xmlns:xlink="http://www.w3.org/1999/xlink" viewBox="0 0 20 20"><path d="m9.386 4.29-1.32-.99a1.5 1.5 0 0 0-.9-.3H4.5A2.5 2.5 0 0 0 2 5.5v1h5.07a.5.5 0 0 0 .363-.156zm1.179.21L8.158 7.033a1.5 1.5 0 0 1-1.087.467H2v7A2.5 2.5 0 0 0 4.5 17h5.1a5.5 5.5 0 0 1 8.4-6.743V7l-.005-.164A2.5 2.5 0 0 0 15.5 4.5zM13.01 14c.047-1.128.25-2.123.54-2.85.167-.417.353-.722.535-.914.18-.19.32-.236.415-.236s.235.046.415.236c.182.192.368.497.535.914.29.727.493 1.722.54 2.85zm-.389-3.221q.096-.24.208-.459A4.5 4.5 0 0 0 10.027 14h1.982c.047-1.234.268-2.36.612-3.221m3.757 0a5 5 0 0 0-.208-.459A4.5 4.5 0 0 1 18.972 14H16.99c-.047-1.234-.267-2.36-.612-3.221M16.99 15h1.982a4.5 4.5 0 0 1-2.802 3.68q.112-.218.208-.459c.345-.862.565-1.987.612-3.221m-2.075 3.764c-.18.19-.32.236-.415.236s-.235-.046-.415-.236c-.182-.192-.368-.497-.535-.914-.29-.727-.493-1.722-.54-2.85h2.98c-.047 1.128-.25 2.123-.54 2.85-.167.417-.353.722-.535.913zM10.027 15a4.5 4.5 0 0 0 2.802 3.68 5 5 0 0 1-.208-.459c-.344-.862-.565-1.987-.612-3.221z" fill="currentColor"/></svg>