<svg xmlns="http://www.w3.org/2000/svg" xmlns:xlink="http://www.w3.org/1999/xlink" viewBox="0 0 20 20"><path d="M4.5 3A2.5 2.5 0 0 0 2 5.5v9A2.5 2.5 0 0 0 4.5 17h5.1a5.5 5.5 0 0 1-.393-1H4.5A1.5 1.5 0 0 1 3 14.5v-7h4.071a1.5 1.5 0 0 0 1.087-.466L9.619 5.5H15.5A1.5 1.5 0 0 1 17 7v2.6q.538.276 1 .657V7a2.5 2.5 0 0 0-2.5-2.5H9.667l-1.6-1.2a1.5 1.5 0 0 0-.9-.3zM3 5.5A1.5 1.5 0 0 1 4.5 4h2.667a.5.5 0 0 1 .3.1l1.227.92-1.26 1.325a.5.5 0 0 1-.363.155H3zM13.01 14c.047-1.128.25-2.123.54-2.85.167-.417.353-.722.535-.914.18-.19.32-.236.415-.236s.235.046.415.236c.182.192.368.497.535.914.29.727.493 1.722.54 2.85zm-.389-3.221q.096-.24.208-.459A4.5 4.5 0 0 0 10.027 14h1.982c.047-1.234.268-2.36.612-3.221m3.757 0a5 5 0 0 0-.208-.459A4.5 4.5 0 0 1 18.972 14H16.99c-.047-1.234-.267-2.36-.612-3.221M16.99 15h1.982a4.5 4.5 0 0 1-2.802 3.68q.112-.218.208-.459c.345-.862.565-1.987.612-3.221m-2.075 3.764c-.18.19-.32.236-.415.236s-.235-.046-.415-.236c-.182-.192-.368-.497-.535-.914-.29-.727-.493-1.722-.54-2.85h2.98c-.047 1.128-.25 2.123-.54 2.85-.167.417-.353.722-.535.913zM10.027 15a4.5 4.5 0 0 0 2.802 3.68 5 5 0 0 1-.208-.459c-.344-.862-.565-1.987-.612-3.221z" fill="currentColor"/></svg>