<svg xmlns="http://www.w3.org/2000/svg" xmlns:xlink="http://www.w3.org/1999/xlink" viewBox="0 0 28 28"><path d="M10.207 4c.46 0 .908.141 1.284.402l.156.12L14.022 6.5h9.728a2.25 2.25 0 0 1 2.229 1.938l.016.158.005.154v6.65a7.5 7.5 0 0 0-1.5-1.245V8.75a.75.75 0 0 0-.648-.743L23.75 8h-9.729l-2.374 1.979a2.25 2.25 0 0 1-1.244.512l-.196.009-6.707-.001V21.75c0 .38.282.694.648.743l.102.007h9.02a7.5 7.5 0 0 0 .595 1.5H4.25a2.25 2.25 0 0 1-2.245-2.096L2 21.75V6.25a2.25 2.25 0 0 1 2.096-2.245L4.25 4zm0 1.5H4.25a.75.75 0 0 0-.743.648L3.5 6.25v2.749L10.207 9a.75.75 0 0 0 .395-.113l.085-.06 1.891-1.578-1.89-1.575a.75.75 0 0 0-.377-.167zM20.5 27a6.5 6.5 0 1 0 0-13 6.5 6.5 0 0 0 0 13m0-1.5a4.98 4.98 0 0 1-2.965-.974l6.991-6.991A5 5 0 0 1 20.5 25.5m2.965-9.026-6.991 6.991a5 5 0 0 1 6.991-6.991" fill="currentColor"/></svg>