<svg xmlns="http://www.w3.org/2000/svg" xmlns:xlink="http://www.w3.org/1999/xlink" viewBox="0 0 20 20"><path d="M15.5 4.5h-4.935L8.158 7.033l-.111.106a1.5 1.5 0 0 1-.823.353L7.07 7.5H2v7l.005.164A2.5 2.5 0 0 0 4.5 17H9v-3.5a2.5 2.5 0 0 1 2.5-2.5h6q.257 0 .5.05V7l-.005-.164-.016-.162A2.5 2.5 0 0 0 15.5 4.5M7.932 3.21A1.5 1.5 0 0 0 7.167 3H4.5l-.164.005A2.5 2.5 0 0 0 2 5.5v1h5.07l.082-.007a.5.5 0 0 0 .22-.094l.061-.055L9.385 4.29 8.067 3.3zm6.578 12.717-4.497-2.623A1.5 1.5 0 0 1 11.5 12h6a1.5 1.5 0 0 1 1.5 1.5v.009zm.227 1.013L19 14.645V17.5a1.5 1.5 0 0 1-1.5 1.5h-6a1.5 1.5 0 0 1-1.5-1.5v-3.046l4.248 2.478a.5.5 0 0 0 .49.008z" fill="currentColor"/></svg>