<svg xmlns="http://www.w3.org/2000/svg" xmlns:xlink="http://www.w3.org/1999/xlink" viewBox="0 0 16 16"><path d="M2 10V4a2 2 0 0 1 2-2h1.75a.5.5 0 0 1 .312.11L7.175 3H12a2 2 0 0 1 2 2v1.257a5.5 5.5 0 0 0-1-.657V5a1 1 0 0 0-1-1H7.593L6.086 5.37a.5.5 0 0 1-.336.13H3V10a1 1 0 0 0 1 1h1.022a5.5 5.5 0 0 0 .185 1H4a2 2 0 0 1-2-2m2-7a1 1 0 0 0-1 1v.5h2.557l.886-.805L5.575 3zm6.5 12a4.5 4.5 0 1 1 0-9 4.5 4.5 0 0 1 0 9m-2.803-2.404 4.9-4.9a3.5 3.5 0 0 0-4.9 4.9m.707.707a3.5 3.5 0 0 0 4.9-4.9z" fill="currentColor"/></svg>