<svg xmlns="http://www.w3.org/2000/svg" xmlns:xlink="http://www.w3.org/1999/xlink" viewBox="0 0 24 24"><path d="M4.387 16.21a1 1 0 0 1 1.226 0l.094.083.083.094a1 1 0 0 1 0 1.226l-.083.094-.293.293h13.172l-.293-.293a1 1 0 0 1-.084-1.32l.084-.094a1 1 0 0 1 1.32-.083l.094.083 2 2a1 1 0 0 1 .083 1.32l-.083.094-2 2a1 1 0 0 1-1.498-1.32l.084-.094.291-.293H5.414l.293.293.083.094a1 1 0 0 1-1.403 1.403l-.094-.083-2-2-.084-.094a1 1 0 0 1 0-1.226l.084-.094 2-2zM8.119 2.417l.063.103.053.116 4.305 11a1 1 0 0 1-1.814.835l-.049-.107-1.111-2.839H5.042l-1.111 2.84a1 1 0 0 1-1.185.602l-.11-.036a1 1 0 0 1-.604-1.184l.037-.111 4.304-11c.3-.767 1.31-.84 1.746-.22zm11.972.113a1 1 0 0 1 1.85.724l-.036.11-4.305 11-.053.116c-.371.694-1.385.694-1.756 0l-.053-.115-4.304-11-.037-.111a1 1 0 0 1 .497-1.136L12 2.069l.111-.036a1 1 0 0 1 1.136.497l.049.106 3.373 8.621 3.373-8.621zM7.304 5.743l-1.48 3.782h2.96z" fill="currentColor"/></svg>