<svg xmlns="http://www.w3.org/2000/svg" viewBox="0 0 20 20"><path fill="currentColor" d="M6.78 7.455a.5.5 0 0 0-.5.5v4.09a.5.5 0 0 0 .5.5h4.345a.5.5 0 0 0 .5-.5v-4.09a.5.5 0 0 0-.5-.5H6.779zm.5 1h3.345v3.09H7.279v-3.09zM5.451 2.5C3.82 2.5 2.45 3.606 1.845 4.978c-.59 1.337-.485 2.994.816 4.227v5.976c-.006.3-.015.871.278 1.36.365.608 1.083.959 2.259.959h10.181a6 6 0 0 0 1.092-.073c.317-.059.618-.168.864-.384.493-.433.582-1.134.582-1.952 0-.878-.036-1.92-.07-2.927v-.006c-.039-1.12-.076-2.189-.063-2.967.512-.551 1.277-1.681 1.277-3.01 0-2.222-1.918-3.681-3.682-3.681H5.452zm7.382 1c.621 0 1.383.301 1.994.82.606.513.99 1.176.996 1.85-.04.754-.206 1.235-.405 1.58a3 3 0 0 1-.562.688q-.075.073-.157.148a14 14 0 0 0-.31.297l-.141.14-.006.199c-.029 1.002-.02 2.44-.01 3.842v.01c.005.697.01 1.387.01 2.017 0 .408-.019.693-.06.898-.042.2-.096.28-.138.322s-.126.094-.326.133a3.4 3.4 0 0 1-.483.049 10 10 0 0 1-.402.007H5.198c-.989 0-1.288-.285-1.401-.473-.138-.23-.137-.508-.136-.84V8.98a.5.5 0 0 0-.176-.38c-1.079-.917-1.191-2.165-.726-3.22.477-1.076 1.526-1.88 2.693-1.88z"/></svg>