<svg xmlns="http://www.w3.org/2000/svg" viewBox="0 0 20 20"><path fill="currentColor" d="M10.429 2.212a.645.645 0 0 0-.858 0 5.72 5.72 0 0 0-1.925 4.35.5.5 0 0 0 .245.425A7.4 7.4 0 0 1 9.628 8.41a.5.5 0 0 0 .744 0 7.4 7.4 0 0 1 1.736-1.421.5.5 0 0 0 .246-.425 5.72 5.72 0 0 0-1.925-4.351zm-7.412 9.996a.663.663 0 0 1 .605-.72A6.36 6.36 0 0 1 10 15.326a6.36 6.36 0 0 1 6.378-3.838c.365.03.639.352.605.72A6.37 6.37 0 0 1 10.642 18h-.466a.7.7 0 0 1-.176-.024.7.7 0 0 1-.176.024h-.466a6.37 6.37 0 0 1-6.341-5.792M10 10.826a6.36 6.36 0 0 0-6.378-3.838.663.663 0 0 0-.605.72 6.35 6.35 0 0 0 .765 2.5.5.5 0 0 0 .433.258 7.36 7.36 0 0 1 5.369 2.394.5.5 0 0 0 .416.16.5.5 0 0 0 .416-.16 7.36 7.36 0 0 1 5.368-2.394.5.5 0 0 0 .434-.259c.415-.75.683-1.596.765-2.499a.663.663 0 0 0-.605-.72A6.36 6.36 0 0 0 10 10.826"/></svg>