<svg xmlns="http://www.w3.org/2000/svg" xmlns:xlink="http://www.w3.org/1999/xlink" viewBox="0 0 28 28"><path d="M3 6.25A3.25 3.25 0 0 1 6.25 3h15.5A3.25 3.25 0 0 1 25 6.25v8.25a7.5 7.5 0 0 0-1.5-.876V6.25a1.75 1.75 0 0 0-1.75-1.75H6.25A1.75 1.75 0 0 0 4.5 6.25v15.5c0 .966.784 1.75 1.75 1.75h7.374c.234.535.529 1.038.875 1.5H6.25A3.25 3.25 0 0 1 3 21.75zm3 6.243a2.5 2.5 0 1 1 5 0 2.5 2.5 0 0 1-5 0m2.5-1a1 1 0 1 0 0 2 1 1 0 0 0 0-2m0 5.504a2.5 2.5 0 1 0 0 5 2.5 2.5 0 0 0 0-5m-1 2.5a1 1 0 1 1 2 0 1 1 0 0 1-2 0M12 11.75a.75.75 0 0 1 .75-.75h8.5a.75.75 0 1 1 0 1.5h-8.5a.75.75 0 0 1-.75-.75M6.75 6.047a.75.75 0 1 0 0 1.5h14.5a.75.75 0 0 0 0-1.5zM27 20.5a6.5 6.5 0 1 1-13 0 6.5 6.5 0 0 1 13 0m-6-4a.5.5 0 0 0-1 0V20h-3.5a.5.5 0 0 0 0 1H20v3.5a.5.5 0 0 0 1 0V21h3.5a.5.5 0 0 0 0-1H21z" fill="currentColor"/></svg>