<svg xmlns="http://www.w3.org/2000/svg" xmlns:xlink="http://www.w3.org/1999/xlink" viewBox="0 0 28 28"><path d="M7.5 12.493a1 1 0 1 1 2 0 1 1 0 0 1-2 0m1 6.004a1 1 0 1 0 0 2 1 1 0 0 0 0-2M3 6.25A3.25 3.25 0 0 1 6.25 3h15.5A3.25 3.25 0 0 1 25 6.25v8.25A7.5 7.5 0 0 0 14.5 25H6.25A3.25 3.25 0 0 1 3 21.75zm5.5 3.743a2.5 2.5 0 1 0 0 5 2.5 2.5 0 0 0 0-5M6 19.497a2.5 2.5 0 1 0 5 0 2.5 2.5 0 0 0-5 0m6.75-8.997a.75.75 0 0 0 0 1.5h8.5a.75.75 0 0 0 0-1.5zM6 6.797c0 .414.336.75.75.75h14.5a.75.75 0 0 0 0-1.5H6.75a.75.75 0 0 0-.75.75M27 20.5a6.5 6.5 0 1 1-13 0 6.5 6.5 0 0 1 13 0M20.5 16a.5.5 0 0 0-.5.5V20h-3.5a.5.5 0 0 0 0 1H20v3.5a.5.5 0 0 0 1 0V21h3.5a.5.5 0 0 0 0-1H21v-3.5a.5.5 0 0 0-.5-.5" fill="currentColor"/></svg>