<svg xmlns="http://www.w3.org/2000/svg" xmlns:xlink="http://www.w3.org/1999/xlink" viewBox="0 0 24 24"><path d="M5.75 3A2.75 2.75 0 0 0 3 5.75v12.5A2.75 2.75 0 0 0 5.75 21h6.272a6.5 6.5 0 0 1-.709-1.5H5.75c-.69 0-1.25-.56-1.25-1.25V5.75c0-.69.56-1.25 1.25-1.25h12.5c.69 0 1.25.56 1.25 1.25v5.563a6.5 6.5 0 0 1 1.5.709V5.75A2.75 2.75 0 0 0 18.25 3zm12.207 8.016a.75.75 0 0 0-.703-1.014H12.25a.75.75 0 0 0 0 1.5h2.742a6.5 6.5 0 0 1 2.965-.486M8.25 8.502a2.25 2.25 0 1 0 0 4.5 2.25 2.25 0 0 0 0-4.5m-.75 2.25a.75.75 0 1 1 1.5 0 .75.75 0 0 1-1.5 0M6 16.25a2.25 2.25 0 1 1 4.5 0 2.25 2.25 0 0 1-4.5 0m2.25-.75a.75.75 0 1 0 0 1.5.75.75 0 0 0 0-1.5m9.004-8h-10.5a.75.75 0 1 1 0-1.5h10.5a.75.75 0 0 1 0 1.5M23 17.5a5.5 5.5 0 1 0-11 0 5.5 5.5 0 0 0 11 0m-4.999 3.003a.5.5 0 1 1-1 0V18h-2.505a.5.5 0 1 1 0-1H17v-2.5a.5.5 0 1 1 1 0V17h2.503a.5.5 0 1 1 0 1h-2.502z" fill="currentColor"/></svg>