<svg xmlns="http://www.w3.org/2000/svg" xmlns:xlink="http://www.w3.org/1999/xlink" viewBox="0 0 48 48"><path d="M6 11.25C6 8.35 8.35 6 11.25 6h25.5C39.65 6 42 8.35 42 11.25v12.794c-.78-.5-1.618-.919-2.5-1.244V11.25a2.75 2.75 0 0 0-2.75-2.75h-25.5a2.75 2.75 0 0 0-2.75 2.75v25.5a2.75 2.75 0 0 0 2.75 2.75H22.8c.325.882.744 1.72 1.244 2.5H11.25A5.25 5.25 0 0 1 6 36.75zm4 10.25a4.5 4.5 0 1 1 9 0 4.5 4.5 0 0 1-9 0m4.5-2a2 2 0 1 0 0 4 2 2 0 0 0 0-4m0 9.5a4.5 4.5 0 1 0 0 9 4.5 4.5 0 0 0 0-9m-2 4.5a2 2 0 1 1 4 0 2 2 0 0 1-4 0m8.501-13.25c0-.69.56-1.25 1.25-1.25H36.75a1.25 1.25 0 1 1 0 2.5H22.251c-.69 0-1.25-.56-1.25-1.25m-9.738-9.155a1.25 1.25 0 0 0 0 2.5H36.73a1.25 1.25 0 1 0 0-2.5zM46 35c0 6.075-4.925 11-11 11s-11-4.925-11-11 4.925-11 11-11 11 4.925 11 11m-10-7a1 1 0 1 0-2 0v6h-6a1 1 0 1 0 0 2h6v6a1 1 0 1 0 2 0v-6h6a1 1 0 1 0 0-2h-6z" fill="currentColor"/></svg>