<svg xmlns="http://www.w3.org/2000/svg" xmlns:xlink="http://www.w3.org/1999/xlink" viewBox="0 0 48 48"><path d="M14.5 19.5a2 2 0 1 0 0 4 2 2 0 0 0 0-4m-2 14a2 2 0 1 1 4 0 2 2 0 0 1-4 0M11.25 6A5.25 5.25 0 0 0 6 11.25v25.5C6 39.65 8.35 42 11.25 42h12.794A12.94 12.94 0 0 1 22 35c0-7.18 5.82-13 13-13 2.577 0 4.98.75 7 2.044V11.25C42 8.35 39.65 6 36.75 6zM10 21.5a4.5 4.5 0 1 1 9 0 4.5 4.5 0 0 1-9 0m4.5 7.5a4.5 4.5 0 1 1 0 9 4.5 4.5 0 0 1 0-9m6.5-9.25c0-.69.56-1.25 1.25-1.25h14.499a1.25 1.25 0 0 1 0 2.5H22.25c-.69 0-1.25-.56-1.25-1.25m-9.737-8.655H36.73a1.25 1.25 0 0 1 0 2.5H11.263a1.25 1.25 0 1 1 0-2.5M46 35c0 6.075-4.925 11-11 11s-11-4.925-11-11 4.925-11 11-11 11 4.925 11 11m-10-7a1 1 0 1 0-2 0v6h-6a1 1 0 1 0 0 2h6v6a1 1 0 1 0 2 0v-6h6a1 1 0 1 0 0-2h-6z" fill="currentColor"/></svg>