<svg xmlns="http://www.w3.org/2000/svg" xmlns:xlink="http://www.w3.org/1999/xlink" viewBox="0 0 20 20"><path d="M6.5 3.25a1 1 0 0 0-1 1v.958A2.5 2.5 0 1 1 4 7.5V4.25a2.5 2.5 0 0 1 5 0 .75.75 0 0 1-1.5 0 1 1 0 0 0-1-1m0 5.25a1 1 0 1 0 0-2 1 1 0 0 0 0 2m6-6.5A2.5 2.5 0 0 0 10 4.5v3a2.5 2.5 0 0 0 5 0v-3A2.5 2.5 0 0 0 12.5 2m1 5.5a1 1 0 1 1-2 0v-3a1 1 0 1 1 2 0zM3.5 12a.5.5 0 0 0-.5.5v5a.5.5 0 0 0 1 0V16h1.5a.5.5 0 0 0 0-1H4v-2h2.5a.5.5 0 0 0 0-1zm5 0a.5.5 0 0 0-.5.5v5a.5.5 0 0 0 1 0V16h1a2 2 0 1 0 0-4zm1.5 3H9v-2h1a1 1 0 1 1 0 2m3-1.25c0-.966.784-1.75 1.75-1.75h.764c.82 0 1.486.665 1.486 1.486v.014a.5.5 0 0 1-1 0v-.014a.486.486 0 0 0-.486-.486h-.764a.75.75 0 0 0 0 1.5h.5a1.75 1.75 0 1 1 0 3.5h-.764c-.82 0-1.486-.665-1.486-1.486V16.5a.5.5 0 0 1 1 0v.014c0 .268.217.486.486.486h.764a.75.75 0 0 0 0-1.5h-.5A1.75 1.75 0 0 1 13 13.75" fill="currentColor"/></svg>