<svg xmlns="http://www.w3.org/2000/svg" viewBox="0 0 20 20"><path fill="currentColor" d="M10 18a8 8 0 1 0 0-16 8 8 0 0 0 0 16m1.819-12.66a5.002 5.002 0 0 0-5.355 8.196.5.5 0 0 1-.707.707 6 6 0 0 1 6.425-9.834.5.5 0 0 1-.364.932zm3.772 2.478a6 6 0 0 1-1.348 6.425.5.5 0 1 1-.707-.707 5 5 0 0 0 1.123-5.354.5.5 0 0 1 .932-.364M14.085 5.82a.5.5 0 0 1 .111.626l-.11.196-.686 1.206-.23.402-.298.518-.422.727c-.2.345-.395.675-.567.963a30 30 0 0 1-.492.793l-.074.108a1.5 1.5 0 1 1-2.371-1.83c.072-.085.203-.205.343-.329.15-.132.343-.296.56-.479.436-.364.982-.81 1.514-1.24.533-.432 1.055-.85 1.443-1.16l.275-.219.369-.293a.5.5 0 0 1 .635.011"/></svg>