<svg xmlns="http://www.w3.org/2000/svg" viewBox="0 0 32 32"><path fill="currentColor" d="M13.431 3.154a3.5 3.5 0 0 1 5.347.474l.484.695-8.75 8.75-.531-.318a3.5 3.5 0 0 1-.674-5.476zm-1.151 10.98 3.277 1.966c.14.085.258.202.343.343l1.778 2.964 7.93-7.929-2.752-2.084a1 1 0 0 1-.217-.225L20.424 5.99zm7.016 7.969-.557-.928 8.478-8.478 1.28.97a3.5 3.5 0 0 1 .284 5.338l-4.085 3.846a3.5 3.5 0 0 1-5.4-.748m-6.948-5.596-8.657 8.5a2.346 2.346 0 1 0 3.303 3.334l8.57-8.57-1.25-2.085zM19 26a1 1 0 1 0 0 2h-2a1 1 0 1 0 0 2h11.333a1 1 0 1 0 0-2H26a1 1 0 1 0 0-2z"/></svg>