<svg xmlns="http://www.w3.org/2000/svg" viewBox="0 0 20 20"><path fill="currentColor" d="M7.987 4.18a12.2 12.2 0 0 0-.669 2.32h5.364a12.2 12.2 0 0 0-.67-2.32c-.301-.733-.648-1.294-1.008-1.663C10.646 2.149 10.307 2 10 2s-.646.149-1.004.517c-.36.37-.707.93-1.009 1.663m-.096-1.899c-.314.426-.59.941-.828 1.518-.32.78-.58 1.694-.762 2.701H2.804a8.02 8.02 0 0 1 5.087-4.219m4.219 0c.313.426.59.941.827 1.518.32.78.58 1.694.762 2.701h3.497a8.02 8.02 0 0 0-5.087-4.219zM17.602 7.5H13.85q.09.728.127 1.5h.523a2.5 2.5 0 0 1 2.208 1.326l.96-.64a1.6 1.6 0 0 1 .318-.163 8 8 0 0 0-.384-2.023m-4.76 0q.095.723.133 1.5H9.5a2.5 2.5 0 0 0-2.47 2.11 20 20 0 0 1 .128-3.61zm-6.54 6c.17.94.406 1.8.698 2.545v1.373A8.03 8.03 0 0 1 2.804 13.5zm-3.904-1H6.15A21 21 0 0 1 6 10c0-.866.052-1.705.15-2.5H2.398A8 8 0 0 0 2 10c0 .873.14 1.713.398 2.5M8 11.5A1.5 1.5 0 0 1 9.5 10h5a1.5 1.5 0 0 1 1.5 1.5v.5l2.223-1.482a.5.5 0 0 1 .777.416v7.132a.5.5 0 0 1-.777.416L16 17v.5a1.5 1.5 0 0 1-1.5 1.5h-5A1.5 1.5 0 0 1 8 17.5z"/></svg>