<svg xmlns="http://www.w3.org/2000/svg" xmlns:xlink="http://www.w3.org/1999/xlink" viewBox="0 0 32 32"><path d="M16 30c7.732 0 14-6.268 14-14S23.732 2 16 2 2 8.268 2 16s6.268 14 14 14m0-26c1.032 0 2.283.948 3.335 3.227.373.81.698 1.743.96 2.773h-8.59c.262-1.03.587-1.964.96-2.773C13.717 4.948 14.968 4 16 4m-5.15 2.389c-.49 1.06-.896 2.278-1.201 3.611H5.605a12.04 12.04 0 0 1 6.134-5.222 12 12 0 0 0-.89 1.61zM9.278 12A28 28 0 0 0 9 16c0 1.386.097 2.73.279 4H4.683A12 12 0 0 1 4 16c0-1.402.24-2.749.683-4zm.37 10c.305 1.333.711 2.551 1.2 3.611.263.57.56 1.112.89 1.61A12.04 12.04 0 0 1 5.605 22H9.65zm2.057 0h8.588a16 16 0 0 1-.96 2.773C18.284 27.052 17.033 28 16 28s-2.283-.948-3.335-3.227a16 16 0 0 1-.96-2.773m8.993-2H11.3a26 26 0 0 1-.3-4c0-1.407.107-2.752.3-4h9.4c.193 1.248.3 2.593.3 4s-.107 2.752-.3 4zm1.652 2h4.044a12.04 12.04 0 0 1-6.134 5.221c.33-.498.627-1.04.89-1.61.489-1.06.895-2.278 1.2-3.611m4.966-2H22.72c.182-1.27.279-2.614.279-4s-.097-2.73-.279-4h4.596A12 12 0 0 1 28 16c0 1.402-.24 2.749-.683 4zM20.261 4.778A12.04 12.04 0 0 1 26.395 10H22.35c-.305-1.333-.711-2.551-1.2-3.611a12 12 0 0 0-.89-1.61z" fill="currentColor"/></svg>