<svg xmlns="http://www.w3.org/2000/svg" viewBox="0 0 24 24"><path fill="currentColor" d="M11 17.5q0-.51.077-1.002H8.906l.058.295c.637 3.11 1.84 5.204 3.038 5.204q.316-.001.63-.19A6.48 6.48 0 0 1 11 17.5m-1.835 4.092c-.809-1.24-1.427-3.01-1.792-5.093H3.067a10.03 10.03 0 0 0 6.098 5.093M7 12q0-1.024.07-2H2.2a10.05 10.05 0 0 0 .258 5H7.16l-.057-.58A28 28 0 0 1 7 11.999zm8.494-.684a26 26 0 0 0-.068-1.317H8.577l-.033.489A26 26 0 0 0 8.676 15h2.823a6.52 6.52 0 0 1 3.995-3.684m6.51.684c0-.686-.07-1.354-.201-2h-4.87l.039.656q.008.18.013.365a6.48 6.48 0 0 1 4.988 1.763q.03-.388.03-.784zm-.63-3.5a10.03 10.03 0 0 0-6.536-6.094l.108.17.162.276c.797 1.416 1.379 3.382 1.675 5.647h4.59zM7.282 8.06c.348-2.325 1.002-4.305 1.883-5.654l-.122.037-.304.1a10.03 10.03 0 0 0-6.11 5.956h4.592zm7.934.124C14.646 4.542 13.32 2 12.002 2 10.645 2 9.28 4.69 8.74 8.498h6.521zM23 17.5a5.5 5.5 0 1 0-11 0 5.5 5.5 0 0 0 11 0m-5.5 0h2a.5.5 0 0 1 0 1H17a.5.5 0 0 1-.5-.491v-3.01a.5.5 0 0 1 1 0z"/></svg>