<svg xmlns="http://www.w3.org/2000/svg" viewBox="0 0 20 20"><path fill="currentColor" d="M7.318 6.5c.168-.873.397-1.657.67-2.32.301-.733.648-1.294 1.008-1.663C9.354 2.149 9.693 2 10 2s.646.149 1.004.517c.36.37.707.93 1.008 1.663.273.663.502 1.447.67 2.32zm-.255-2.7a7.2 7.2 0 0 1 .827-1.52A8.02 8.02 0 0 0 2.804 6.5h3.497c.182-1.007.441-1.922.762-2.7m5.874 0a7.2 7.2 0 0 0-.827-1.519A8.02 8.02 0 0 1 17.196 6.5h-3.497c-.182-1.007-.441-1.922-.762-2.7m.913 3.7h3.752A8 8 0 0 1 18 10.09a4.68 4.68 0 0 0-4.018-.979A20 20 0 0 0 13.85 7.5m-3.587 6a5 5 0 0 0-.013.357c0 1.09.414 2.136 1.143 3.144a3.6 3.6 0 0 1-.389.482c-.358.368-.697.517-1.004.517s-.646-.149-1.004-.517c-.36-.37-.707-.93-1.009-1.663a12.2 12.2 0 0 1-.669-2.32zm.176-1a4.85 4.85 0 0 1 2.554-3.047 19 19 0 0 0-.15-1.953H7.157A19 19 0 0 0 7 10c0 .875.056 1.714.158 2.5zm-7.635 1a8.02 8.02 0 0 0 5.087 4.219 7.2 7.2 0 0 1-.828-1.518c-.32-.78-.58-1.694-.762-2.701zm3.346-1H2.398A8 8 0 0 1 2 10c0-.873.14-1.713.398-2.5H6.15C6.052 8.295 6 9.134 6 10s.052 1.705.15 2.5M15 10c2.071 0 3.75 1.727 3.75 3.857 0 1.597-1.183 3.27-3.5 5.057a.41.41 0 0 1-.5 0c-2.317-1.787-3.5-3.46-3.5-5.057C11.25 11.727 12.929 10 15 10m0 2.571c-.69 0-1.25.576-1.25 1.286s.56 1.286 1.25 1.286 1.25-.576 1.25-1.286-.56-1.286-1.25-1.286"/></svg>