<svg xmlns="http://www.w3.org/2000/svg" viewBox="0 0 20 20"><path fill="currentColor" d="M10 18c.689 0 1.357-.087 1.995-.25a9 9 0 0 1-.932-1.243c-.358.335-.723.493-1.063.493-.657 0-1.407-.59-2.022-1.908A9.3 9.3 0 0 1 7.42 13.5h2.844q.037-.517.176-1H7.206A15 15 0 0 1 7 10c0-.883.073-1.725.206-2.5h5.588c.105.613.173 1.269.197 1.954a4.6 4.6 0 0 1 .986-.341 16 16 0 0 0-.17-1.613h2.733c.234.61.384 1.26.438 1.939q.556.261 1.021.651L18 10a8 8 0 1 0-8 8m0-15c.657 0 1.407.59 2.022 1.908.217.466.406 1.002.559 1.592H7.419c.153-.59.342-1.126.56-1.592C8.592 3.59 9.342 3 10 3M7.072 4.485A10.5 10.5 0 0 0 6.389 6.5H3.936a7.02 7.02 0 0 1 3.778-3.118c-.241.33-.456.704-.642 1.103M6.192 7.5A16 16 0 0 0 6 10c0 .87.067 1.712.193 2.5H3.46A7 7 0 0 1 3 10c0-.88.163-1.724.46-2.5zm.197 6c.176.743.407 1.422.683 2.015.186.399.401.773.642 1.103A7.02 7.02 0 0 1 3.936 13.5zm5.897-10.118A7.02 7.02 0 0 1 16.064 6.5H13.61a10.5 10.5 0 0 0-.683-2.015 6.6 6.6 0 0 0-.642-1.103zM15 10c2.071 0 3.75 1.727 3.75 3.857 0 1.597-1.183 3.27-3.5 5.057a.41.41 0 0 1-.5 0c-2.317-1.787-3.5-3.46-3.5-5.057C11.25 11.727 12.929 10 15 10m0 2.571c-.69 0-1.25.576-1.25 1.286s.56 1.286 1.25 1.286 1.25-.576 1.25-1.286-.56-1.286-1.25-1.286"/></svg>