<svg xmlns="http://www.w3.org/2000/svg" viewBox="0 0 20 20"><path fill="currentColor" d="M7 17.419A8.003 8.003 0 0 1 10 2a8 8 0 0 1 7.986 7.523 1.6 1.6 0 0 0-.318.163l-.67.446L17 10c0-.88-.163-1.724-.46-2.5h-2.733q.116.724.163 1.5h-1.002a14 14 0 0 0-.174-1.5H7.206A15 15 0 0 0 7 10q0 .548.037 1.072A2.5 2.5 0 0 0 7 11.5v3.856a10.7 10.7 0 0 1-.61-1.856H3.935A7.03 7.03 0 0 0 7 16.326zm5.022-12.51C11.407 3.59 10.657 3 10 3s-1.407.59-2.022 1.908A9.3 9.3 0 0 0 7.42 6.5h5.162a9.3 9.3 0 0 0-.56-1.592zM6.389 6.5c.176-.743.407-1.422.683-2.015.186-.399.401-.773.642-1.103A7.02 7.02 0 0 0 3.936 6.5zM6 10c0-.87.067-1.712.193-2.5H3.46A7 7 0 0 0 3 10c0 .88.163 1.724.46 2.5h2.733A16 16 0 0 1 6 10m10.064-3.5a7.02 7.02 0 0 0-3.778-3.118c.241.33.456.704.642 1.103.276.593.507 1.272.683 2.015zM9.5 10A1.5 1.5 0 0 0 8 11.5v6A1.5 1.5 0 0 0 9.5 19h5a1.5 1.5 0 0 0 1.5-1.5V17l2.223 1.482a.5.5 0 0 0 .777-.416v-7.132a.5.5 0 0 0-.777-.416L16 12v-.5a1.5 1.5 0 0 0-1.5-1.5z"/></svg>