<svg xmlns="http://www.w3.org/2000/svg" xmlns:xlink="http://www.w3.org/1999/xlink" viewBox="0 0 16 16"><path d="M5.996 13.657A5.47 5.47 0 0 1 5.022 11h-2.22a6.02 6.02 0 0 0 3.194 2.657M2.34 10h2.681q.02-.204.052-.403A17 17 0 0 1 5.117 6H2.34A6 6 0 0 0 2 8c0 .701.12 1.374.341 2zm3.673-2.683c.363-.51.81-.956 1.323-1.317H6.125q-.082.63-.11 1.317zM9.3 3.583c.159.414.297.89.407 1.417H6.292c.11-.527.248-1.003.407-1.417.213-.554.455-.969.698-1.236S7.844 2 8 2s.36.08.603.347.485.682.698 1.236zM10.728 5h2.47a6.02 6.02 0 0 0-3.421-2.733c.17.285.323.608.457.957.201.522.368 1.12.494 1.776M2.803 5h2.47a10.5 10.5 0 0 1 .493-1.776c.134-.349.286-.672.457-.957A6.02 6.02 0 0 0 2.803 5M15 10.5a4.5 4.5 0 1 1-9 0 4.5 4.5 0 0 1 9 0M10.5 8a.5.5 0 0 0-.5.5v2a.5.5 0 0 0 .5.5H12a.5.5 0 0 0 0-1h-1V8.5a.5.5 0 0 0-.5-.5" fill="currentColor"/></svg>