<svg xmlns="http://www.w3.org/2000/svg" xmlns:xlink="http://www.w3.org/1999/xlink" viewBox="0 0 24 24"><path d="M8.905 16.5h2.096v5.025c-.83-.786-1.58-2.496-2.038-4.73zm-.23-1.5h2.375a2.5 2.5 0 0 1 2.45-2h1.983a26 26 0 0 0-.058-3.001H8.576l-.033.489A26 26 0 0 0 8.675 15m12.993-1.315q.104-.069.211-.118a10.1 10.1 0 0 0-.078-3.568h-4.87l.04.656A29 29 0 0 1 16.983 13H18.5a2.5 2.5 0 0 1 2.208 1.326zM3.068 16.5h4.304c.365 2.083.983 3.854 1.793 5.094a10.03 10.03 0 0 1-5.951-4.815zM2.2 10h4.87a28 28 0 0 0 .033 4.42l.057.58H2.458a10.05 10.05 0 0 1-.258-5m12.745-7.424-.108-.17A10.03 10.03 0 0 1 21.372 8.5h-4.59c-.316-2.417-.957-4.493-1.837-5.924m-5.902-.133.121-.037c-.88 1.35-1.535 3.33-1.882 5.654l-.062.44H2.63a10.03 10.03 0 0 1 6.413-6.057M12 2c1.318 0 2.645 2.542 3.213 6.184l.047.315H8.74C9.278 4.689 10.643 2 12 2m0 13.5a1.5 1.5 0 0 1 1.5-1.5h5a1.5 1.5 0 0 1 1.5 1.5v.5l2.222-1.483a.5.5 0 0 1 .777.417v7.132a.5.5 0 0 1-.777.416L20 21v.5a1.5 1.5 0 0 1-1.5 1.5h-5a1.5 1.5 0 0 1-1.499-1.5z" fill="currentColor"/></svg>