<svg xmlns="http://www.w3.org/2000/svg" viewBox="0 0 24 24"><path fill="currentColor" d="M22.003 12.002C22.003 6.478 17.525 2 12.002 2 6.478 2 2 6.478 2 12.002c0 5.523 4.478 10.001 10.002 10.001q.395 0 .781-.03a6.5 6.5 0 0 1-1.065-1.502c-1.053-.235-2.057-1.754-2.655-3.97h2.013a6.5 6.5 0 0 1 .422-1.5H8.74a19 19 0 0 1-.135-5h6.793q.07.64.092 1.316a6.4 6.4 0 0 1 1.49-.296 20 20 0 0 0-.072-1.02h3.358q.187.77.227 1.59l.008.317-.004-.177a6.5 6.5 0 0 1 1.476 1.053q.03-.388.03-.782m-17.216 4.5H7.51c.324 1.334.791 2.5 1.372 3.41a8.53 8.53 0 0 1-4.095-3.41m-1.054-6.484.004-.017h3.358A21 21 0 0 0 7 12a20 20 0 0 0 .218 3H4.045a8.5 8.5 0 0 1-.545-3c0-.682.08-1.346.233-1.983zM8.86 4.1l.023-.008C8.16 5.223 7.613 6.749 7.3 8.5H4.252c.904-2 2.56-3.587 4.608-4.402zm3.026-.594.116-.005c1.306 0 2.586 2.035 3.17 5.001H8.83c.568-2.878 1.79-4.88 3.056-4.996m3.342.76-.106-.174a8.53 8.53 0 0 1 4.63 4.41h-3.049c-.297-1.664-.805-3.124-1.475-4.236M23 17.5a5.5 5.5 0 1 0-11 0 5.5 5.5 0 0 0 11 0m-5.5 0h2a.5.5 0 0 1 0 1H17a.5.5 0 0 1-.5-.491v-3.01a.5.5 0 0 1 1 0z"/></svg>