<svg xmlns="http://www.w3.org/2000/svg" xmlns:xlink="http://www.w3.org/1999/xlink" viewBox="0 0 24 24"><path d="M22.001 12c0-5.522-4.478-10-10.001-10C6.476 2 1.998 6.478 1.998 12.002c0 5.523 4.478 10.001 10.002 10.001q.808-.001 1.583-.125a3.7 3.7 0 0 1-.576-1.773c-.326.259-.666.398-1.007.398-1.154 0-2.287-1.588-2.94-4.002h6.567a3.5 3.5 0 0 1-.591-1.5H8.738a19 19 0 0 1-.135-5h6.793a19 19 0 0 1 .092 2.716 3.5 3.5 0 0 1 1.503-1.375A21 21 0 0 0 16.906 10l3.358-.001a8.5 8.5 0 0 1 .229 1.623 3.5 3.5 0 0 1 1.384 1.956q.123-.771.124-1.577zM4.785 16.5h2.723l.101.396c.317 1.17.748 2.195 1.27 3.015a8.53 8.53 0 0 1-4.094-3.41zM3.735 10h3.358a21 21 0 0 0-.095 2 20 20 0 0 0 .218 3H4.043a8.5 8.5 0 0 1-.545-3c0-.682.08-1.347.233-1.983zm5.123-5.902.023-.008C8.158 5.222 7.61 6.748 7.298 8.5H4.25c.904-2 2.56-3.587 4.608-4.402m3.026-.594L12 3.5l.126.006c1.261.126 2.479 2.125 3.045 4.995H8.828c.568-2.878 1.79-4.88 3.056-4.996zm3.342.76-.106-.174.29.121a8.53 8.53 0 0 1 4.34 4.29H16.7c-.297-1.665-.805-3.125-1.475-4.237zM21 14.5a2.5 2.5 0 1 1-5 0 2.5 2.5 0 0 1 5 0m2 5.375C23 21.431 21.714 23 18.5 23S14 21.437 14 19.875v-.103c0-.98.794-1.772 1.773-1.772h5.454c.98 0 1.773.793 1.773 1.772z" fill="currentColor"/></svg>