<svg xmlns="http://www.w3.org/2000/svg" xmlns:xlink="http://www.w3.org/1999/xlink" viewBox="0 0 24 24"><path d="M12 17.5a1.5 1.5 0 1 1 0 3 1.5 1.5 0 0 1 0-3m7 0a1.5 1.5 0 1 1 0 3 1.5 1.5 0 0 1 0-3m-14 0a1.5 1.5 0 1 1 0 3 1.5 1.5 0 0 1 0-3m7-7a1.5 1.5 0 1 1 0 3 1.5 1.5 0 0 1 0-3m7 0a1.5 1.5 0 1 1 0 3 1.5 1.5 0 0 1 0-3m-14 0a1.5 1.5 0 1 1 0 3 1.5 1.5 0 0 1 0-3m7-7a1.5 1.5 0 1 1 0 3 1.5 1.5 0 0 1 0-3m7 0a1.5 1.5 0 1 1 0 3 1.5 1.5 0 0 1 0-3m-14 0a1.5 1.5 0 1 1 0 3 1.5 1.5 0 0 1 0-3" fill="currentColor"/></svg>