<svg xmlns="http://www.w3.org/2000/svg" xmlns:xlink="http://www.w3.org/1999/xlink" viewBox="0 0 24 24"><path d="M10.5 5a3 3 0 1 1-6 0 3 3 0 0 1 6 0m6 5a2.5 2.5 0 1 0 0-5 2.5 2.5 0 0 0 0 5m-3.104.75q.103.358.104.75v3a2 2 0 0 1-2.5 1.937V20a2 2 0 0 1-3.25 1.561A2 2 0 0 1 4.5 20v-3.563A2 2 0 0 1 2 14.5v-3a2.75 2.75 0 0 1 2.75-2.75h6a2.75 2.75 0 0 1 2.646 2m1.029 0h5.325a2.75 2.75 0 0 1 2.75 2.75v1.75a2 2 0 0 1-2.5 1.937V20a2 2 0 0 1-3.25 1.561A2 2 0 0 1 13.5 20v-3.264c.614-.55 1-1.348 1-2.236v-3q0-.386-.075-.75" fill="currentColor"/></svg>