<svg xmlns="http://www.w3.org/2000/svg" viewBox="0 0 20 20"><path fill="currentColor" d="M8 9a2 2 0 1 1 4 0 2 2 0 0 1-4 0m2-1a1 1 0 1 0 0 2 1 1 0 0 0 0-2m-2.28 4c-.612 0-1.31.415-1.33 1.197-.013.517.094 1.241.658 1.835.567.596 1.505.968 2.952.968s2.386-.372 2.952-.968c.564-.594.671-1.319.658-1.835-.02-.782-.718-1.197-1.33-1.197zm-.33 1.223a.18.18 0 0 1 .073-.141A.4.4 0 0 1 7.72 13h4.558a.42.42 0 0 1 .258.082q.073.059.073.14c.01.371-.07.792-.383 1.121-.31.327-.938.657-2.227.657s-1.916-.33-2.227-.657c-.313-.33-.393-.75-.383-1.12zM9 2a2 2 0 0 0-2 2H5.5A1.5 1.5 0 0 0 4 5.5v11A1.5 1.5 0 0 0 5.5 18h9a1.5 1.5 0 0 0 1.5-1.5v-11A1.5 1.5 0 0 0 14.5 4H13a2 2 0 0 0-2-2zm3.732 3H14.5a.5.5 0 0 1 .5.5v11a.5.5 0 0 1-.5.5h-9a.5.5 0 0 1-.5-.5v-11a.5.5 0 0 1 .5-.5h1.768A2 2 0 0 0 9 6h2a2 2 0 0 0 1.732-1M8 4a1 1 0 0 1 1-1h2a1 1 0 1 1 0 2H9a1 1 0 0 1-1-1"/></svg>