<svg xmlns="http://www.w3.org/2000/svg" viewBox="0 0 24 24"><path fill="currentColor" d="m18.492 3.43 1.184-1.184a1 1 0 0 1 1.415 0l.707.707a1 1 0 0 1 0 1.414l-1.185 1.185zm-1.06 1.061-3.821 3.82-.16-.158a2.75 2.75 0 0 0-4.404.714l-.416.833a.61.61 0 0 1-.664.325l-.072-.015a4.71 4.71 0 0 0-4.69 1.792 6.03 6.03 0 0 0 .56 7.878l.599.598a6.03 6.03 0 0 0 7.878.56 4.71 4.71 0 0 0 1.792-4.69l-.015-.072a.61.61 0 0 1 .325-.663l.832-.416a2.75 2.75 0 0 0 .715-4.405l-.16-.159 3.821-3.82zm-7.993 10.07a1.5 1.5 0 1 1 2.122-2.122 1.5 1.5 0 0 1-2.122 2.121z"/></svg>