<svg xmlns="http://www.w3.org/2000/svg" viewBox="0 0 20 20"><path fill="currentColor" d="m9.629 3.01.065.004h2.296l.053-.003a3.7 3.7 0 0 1 .856.006 2.5 2.5 0 0 1 1.086.308c.63.286 1.18.747 1.572 1.35a3.66 3.66 0 0 1 .146 3.754l-3.215-3.256a.5.5 0 0 0-.356-.148h-1.331a.5.5 0 0 0-.302.101L8.351 6.753a1.116 1.116 0 0 1-1.675-.4A1.096 1.096 0 0 1 7.002 5L9.63 3.01zm-3.997 8.855-.014.013-.763.76-.013.012a.6.6 0 0 1-.834-.013.59.59 0 0 1 0-.841l.764-.759a.6.6 0 0 1 .847 0c.23.228.234.595.013.828m-.081 1.49c-.22.233-.216.6.013.828a.6.6 0 0 0 .847 0l.764-.759a.592.592 0 0 0-.093-.916.6.6 0 0 0-.74.062l-.014.013-.763.759zM3.749 9.803a.59.59 0 0 1 0 .841l-.764.759a.6.6 0 0 1-.847 0 .59.59 0 0 1 0-.841l.764-.76a.6.6 0 0 1 .847 0zm4.982 4.326a.59.59 0 0 1 0 .841l-.764.76a.6.6 0 0 1-.847 0 .59.59 0 0 1-.087-.732l.003-.004a.6.6 0 0 1 .084-.106l.764-.759a.6.6 0 0 1 .847 0m-5.2-9.728a4.76 4.76 0 0 1 4.304-1.287L6.398 4.203A2.097 2.097 0 0 0 6 7.15a2.116 2.116 0 0 0 2.956.4l2.014-1.525h.909l1.938 1.925.004-.005 1.608 1.629.024.023.865.865a1.02 1.02 0 0 1-1.367 1.51l-.073-.072-.054-.047-.85-.85a.5.5 0 1 0-.708.707l.902.902q.052.05.105.097l.03.03a.691.691 0 0 1-.977.978l-.133-.132a.5.5 0 0 0-.853.36.5.5 0 0 0 .146.363l.175.175a.631.631 0 1 1-.893.893l-.089-.09a2 2 0 0 0-.095-.103l-.163-.163a.5.5 0 0 0-.707.707l.122.122.05.059.049.048a.648.648 0 0 1-.961.864l-.865-.815.332-.33a1.584 1.584 0 0 0 0-2.25 1.6 1.6 0 0 0-1.088-.466 1.58 1.58 0 0 0-.468-1.08 1.6 1.6 0 0 0-1.087-.466 1.58 1.58 0 0 0-.469-1.08 1.6 1.6 0 0 0-1.435-.439 1.6 1.6 0 0 0-.435-.796 1.61 1.61 0 0 0-2.146-.107 4.69 4.69 0 0 1 1.22-4.59z"/></svg>