<svg xmlns="http://www.w3.org/2000/svg" viewBox="0 0 16 16"><path fill="currentColor" d="M8.205 2.005a.5.5 0 0 0-.38.175l-.05.036c-1.505-.442-3.212-.1-4.403 1.027-1.057.999-1.461 2.381-1.213 3.674l-.015.014-.671.635a1.347 1.347 0 0 0 0 1.98c.342.325.812.457 1.257.396.064.233.193.454.386.637.261.247.596.382.938.406.025.323.168.64.43.887.26.247.595.382.937.406.025.323.168.64.43.887a1.545 1.545 0 0 0 1.946.123l.33.312c.58.55 1.523.55 2.104 0 .26-.246.404-.561.43-.883.34-.025.672-.16.932-.406s.404-.561.43-.883c.335-.028.662-.163.92-.405.201-.191.333-.424.393-.669.44.053.899-.08 1.236-.398a1.347 1.347 0 0 0 0-1.98l-.594-.562.113-.42a3.82 3.82 0 0 0-.369-2.886c-.735-1.302-2.158-2.1-3.69-2.1H9.013l-.138-.003zm4.372 5.457.486.48a.5.5 0 0 0 .101.076l.681.644a.41.41 0 0 1 0 .606.47.47 0 0 1-.64 0l-1.14-1.077a.535.535 0 0 0-.726 0l-.012.01a.47.47 0 0 0 0 .688l.889.84a.413.413 0 0 1 0 .607.47.47 0 0 1-.593.04.536.536 0 0 0-.675.045.467.467 0 0 0-.042.639.41.41 0 0 1-.04.564.47.47 0 0 1-.6.035.536.536 0 0 0-.679.038.467.467 0 0 0-.044.642c.14.17.127.417-.039.574a.48.48 0 0 1-.65 0l-.322-.304.084-.079a1.347 1.347 0 0 0 0-1.98 1.5 1.5 0 0 0-.938-.406 1.36 1.36 0 0 0-.43-.887 1.5 1.5 0 0 0-.937-.407 1.36 1.36 0 0 0-.43-.887 1.53 1.53 0 0 0-1.257-.396 1.4 1.4 0 0 0-.386-.636 1.52 1.52 0 0 0-1.102-.41 3.07 3.07 0 0 1 .962-2.591 3.46 3.46 0 0 1 2.58-.923l-1.095.79a1.504 1.504 0 0 0-.294 2.178 1.64 1.64 0 0 0 2.22.3l1.347-.97h1.44zM6.168 4.607l2.223-1.602h.485l.125.003h1.03c1.192 0 2.272.62 2.82 1.592.353.623.458 1.34.302 2.026L10.94 4.448a.5.5 0 0 0-.35-.143H8.693a.5.5 0 0 0-.292.094L6.925 5.464a.64.64 0 0 1-.857-.116.504.504 0 0 1 .1-.74zm1.082 6.628a.47.47 0 0 1 .64.002.41.41 0 0 1 0 .606l-.672.635a.47.47 0 0 1-.64 0 .41.41 0 0 1 0-.606l.672-.636zm-.726-.687-.673.637a.47.47 0 0 1-.641 0 .41.41 0 0 1-.01-.596l.01-.01.671-.635.01-.01a.47.47 0 0 1 .631.01.41.41 0 0 1 .002.604m-1.37-1.291-.67.634-.011.01a.47.47 0 0 1-.63-.01.41.41 0 0 1 0-.606l.67-.634a.47.47 0 0 1 .642 0 .41.41 0 0 1 .01.596l-.01.01zM3.512 8.224l-.671.635a.47.47 0 0 1-.64 0 .41.41 0 0 1 0-.606l.67-.635a.47.47 0 0 1 .641 0 .41.41 0 0 1 0 .606"/></svg>