<svg xmlns="http://www.w3.org/2000/svg" viewBox="0 0 24 24"><path fill="currentColor" d="M12.835 3.162a.8.8 0 0 0 .147-.148h2.562a5 5 0 0 1 .58 0h.038a3.8 3.8 0 0 1 1.646.368 5.23 5.23 0 0 1 2.34 1.822 5.2 5.2 0 0 1 .804 4.348l-3.281-3.237a.75.75 0 0 0-.527-.216h-4.775a.75.75 0 0 0-.423.152l-1.884 1.428a.97.97 0 0 1-1.358-.184.95.95 0 0 1 .181-1.34zM7.899 14.236l-.014.013-.974.968-.013.012a.906.906 0 0 1-1.261-.012.89.89 0 0 1 0-1.267l.974-.968a.906.906 0 0 1 1.275 0 .89.89 0 0 1 .013 1.254m-.291 1.698a.89.89 0 0 0 .013 1.254c.352.35.923.35 1.275 0l.974-.967a.892.892 0 0 0-.14-1.381.906.906 0 0 0-1.122.1l-.013.014-.974.967zM5.5 11.408a.89.89 0 0 1 0 1.267l-.974.968a.906.906 0 0 1-1.276 0 .89.89 0 0 1 0-1.267l.975-.968a.906.906 0 0 1 1.275 0m6.353 5.517a.89.89 0 0 1 0 1.267l-.974.968a.906.906 0 0 1-1.275 0 .89.89 0 0 1-.172-1.028l.001-.002a.9.9 0 0 1 .171-.237l.974-.968a.906.906 0 0 1 1.275 0M5.344 4.831a6.18 6.18 0 0 1 5.112-1.749L7.98 4.96a2.45 2.45 0 0 0-.466 3.448 2.473 2.473 0 0 0 3.454.467L12.651 7.6h4.185l3.507 3.46.036.04 1.15 1.15a1.439 1.439 0 0 1-1.936 2.124l-.096-.096-.06-.052-1.093-1.092a.5.5 0 1 0-.707.707l1.15 1.15q.063.062.128.119l.044.044a1.019 1.019 0 1 1-1.441 1.441l-.17-.169a.5.5 0 0 0-.853.363.5.5 0 0 0 .147.365l.223.223a.943.943 0 1 1-1.333 1.333h-.001l-.012-.013-.21-.21a.497.497 0 0 0-.707 0 .5.5 0 0 0 0 .707l.218.219a.96.96 0 0 1-1.35 1.367l-1.431-1.36.525-.522a1.884 1.884 0 0 0 0-2.676 1.9 1.9 0 0 0-1.429-.553 1.88 1.88 0 0 0-.556-1.42 1.9 1.9 0 0 0-1.428-.552 1.88 1.88 0 0 0-.556-1.419 1.91 1.91 0 0 0-1.844-.49 1.88 1.88 0 0 0-.541-1.084 1.914 1.914 0 0 0-2.514-.158 6.1 6.1 0 0 1 1.648-5.714z"/></svg>