<svg xmlns="http://www.w3.org/2000/svg" viewBox="0 0 20 20"><path fill="currentColor" d="M8.506 3.401a3 3 0 0 1 2.988 0l7.255 4.166a.5.5 0 0 1 0 .867L16 10.012V14.5a.5.5 0 0 1-.146.354l-.002.001-.002.003-.007.006-.023.022-.08.074a6 6 0 0 1-.301.248 8 8 0 0 1-1.141.733A9.1 9.1 0 0 1 10 17.001a9.1 9.1 0 0 1-4.298-1.06 8 8 0 0 1-1.14-.733 6 6 0 0 1-.382-.322A.53.53 0 0 1 4 14.5v-4.488L2 8.864V13.5a.5.5 0 1 1-1 0V8a.5.5 0 0 1 .26-.439zm2.988 9.198a3 3 0 0 1-2.988 0L5 10.586v3.691a7 7 0 0 0 1.173.782c.88.47 2.175.941 3.827.941a8.1 8.1 0 0 0 3.827-.94A7 7 0 0 0 15 14.276v-3.69zm-.498-8.33a2 2 0 0 0-1.992 0L2.504 8l6.5 3.732a2 2 0 0 0 1.992 0L17.496 8l-6.5-3.732z"/></svg>