<svg xmlns="http://www.w3.org/2000/svg" xmlns:xlink="http://www.w3.org/1999/xlink" viewBox="0 0 12 12"><g fill="none"><g clip-path="url(#clip0_143719_1148)"><path d="M6.84 2.189a1.96 1.96 0 0 0-1.68 0L.286 4.498A.5.5 0 0 0 0 4.976v3.026a.5.5 0 1 0 1 0V5.756l1 .496v2.75a.5.5 0 0 0 .147.354l.025.024.06.055a6.7 6.7 0 0 0 1.012.745c.668.402 1.633.822 2.756.822s2.088-.42 2.757-.822a6.7 6.7 0 0 0 1.012-.745l.06-.055.023-.024h.002A.5.5 0 0 0 10 9.001v-2.75l1.722-.854a.5.5 0 0 0-.008-.9zm.032 5.615L9 6.748V8.78a6 6 0 0 1-.757.543c-.58.348-1.366.679-2.243.679s-1.662-.33-2.243-.679A6 6 0 0 1 3 8.78V6.748l2.128 1.056c.55.272 1.194.272 1.744 0m-.46-4.711 3.942 1.867-3.927 1.948a.96.96 0 0 1-.854 0L1.646 4.96l3.942-1.867a.96.96 0 0 1 .824 0M2.149 9.358" fill="currentColor"/></g><defs><clipPath id="clip0_143719_1148"><path fill="#fff" d="M0 0h12v12H0z"/></clipPath></defs></g></svg>