<svg xmlns="http://www.w3.org/2000/svg" xmlns:xlink="http://www.w3.org/1999/xlink" viewBox="0 0 24 24"><path d="M5 17.75v-3.766l4.06 2.653a5.38 5.38 0 0 0 5.88 0L19 13.984v3.766a.75.75 0 0 1-.15.45l-.001.001-.001.002-.003.004-.009.01-.012.016-.013.017-.086.101a5 5 0 0 1-.317.33c-.277.267-.69.614-1.25.958C16.037 20.329 14.339 21 12 21s-4.036-.67-5.159-1.361a7.4 7.4 0 0 1-1.25-.957 5 5 0 0 1-.427-.464l-.009-.01-.003-.005v-.002A.76.76 0 0 1 5 17.75m17.16-7.622-8.04 5.253a3.88 3.88 0 0 1-4.24 0L3 10.886v5.364a.75.75 0 0 1-1.5 0V10q0-.133.043-.25a.75.75 0 0 1 .302-.881l8.064-5.17a3.88 3.88 0 0 1 4.182 0l8.064 5.17a.75.75 0 0 1 .005 1.259" fill="currentColor"/></svg>