<svg xmlns="http://www.w3.org/2000/svg" viewBox="0 0 12 12"><path fill="currentColor" d="M5.16 2.189a1.96 1.96 0 0 1 1.68 0l4.874 2.309a.5.5 0 0 1 .008.9l-4.85 2.406a1.96 1.96 0 0 1-1.744 0L1 5.756V8a.5.5 0 0 1-1 0V4.975a.5.5 0 0 1 .286-.477l4.874-2.31zM2 7.369V9a.5.5 0 0 0 .147.354l.002.003.023.021.06.056a6.7 6.7 0 0 0 1.012.745C3.912 10.58 4.877 11 6 11s2.088-.42 2.757-.821a6.7 6.7 0 0 0 1.012-.745l.06-.056.016-.016.006-.006.001-.001.002-.001A.5.5 0 0 0 10 9V7.368L7.316 8.7a2.96 2.96 0 0 1-2.632 0z"/></svg>