<svg xmlns="http://www.w3.org/2000/svg" xmlns:xlink="http://www.w3.org/1999/xlink" viewBox="0 0 20 20"><path d="M4 14.5v-3.335l4.008 2.301a4 4 0 0 0 3.984 0l4.008-2.3V14.5a.5.5 0 0 1-.146.354l-.002.001-.002.003-.007.006-.023.022-.08.074a6 6 0 0 1-.301.248 8 8 0 0 1-1.141.733A9.1 9.1 0 0 1 10 17.001a9.1 9.1 0 0 1-4.298-1.06 8 8 0 0 1-1.14-.733 6 6 0 0 1-.382-.322l-.023-.022A.5.5 0 0 1 4 14.5m14.749-6.066-7.255 4.165a3 3 0 0 1-2.988 0L2 8.864V13.5a.5.5 0 0 1-1 0V8a.5.5 0 0 1 .262-.44l7.244-4.159a3 3 0 0 1 2.988 0l7.255 4.166a.5.5 0 0 1 0 .867" fill="currentColor"/></svg>