<svg xmlns="http://www.w3.org/2000/svg" xmlns:xlink="http://www.w3.org/1999/xlink" viewBox="0 0 20 20"><path d="m16.74 10.5-6.243 6.303a.66.66 0 0 1-.943 0l-6.277-6.34C1.58 8.75 1.573 5.979 3.26 4.273a4.3 4.3 0 0 1 6.127.017l.605.61.056-.057.54-.546a4.306 4.306 0 0 1 6.135.016 4.41 4.41 0 0 1 .017 6.186zm-5.756-5.18-.03.033-.195.194-.409.415-.047.041L9.307 7l2.313 2.313a.5.5 0 0 1 0 .707l-2 2a.5.5 0 0 1-.707-.707l1.646-1.646-2.313-2.313a.5.5 0 0 1 0-.707l1.04-1.04-.608-.614a3.3 3.3 0 0 0-4.706-.016c-1.3 1.313-1.298 3.456.015 4.782l6.038 6.099 6.003-6.06.001-.001a3.41 3.41 0 0 0-.016-4.781A3.306 3.306 0 0 0 11.3 5z" fill="currentColor"/></svg>