<svg xmlns="http://www.w3.org/2000/svg" xmlns:xlink="http://www.w3.org/1999/xlink" viewBox="0 0 20 20"><path d="M9.372 2.025A8 8 0 1 1 2.005 9.74a.75.75 0 1 1 1.5.045 6.5 6.5 0 1 0 1.573-4.029l-.204.248h2.379l.102.008a.75.75 0 0 1 0 1.486l-.102.007h-4l-.102-.007a.75.75 0 0 1-.641-.641l-.007-.102v-4l.007-.102a.75.75 0 0 1 .641-.641l.102-.007.102.007a.75.75 0 0 1 .641.641l.007.102-.001 1.953a7.98 7.98 0 0 1 5.37-2.682zm.378 3.979.102.007a.75.75 0 0 1 .641.641l.007.102v3.245l1.75.001.102.007a.75.75 0 0 1 0 1.487l-.102.006h-2.5l-.102-.006a.75.75 0 0 1-.641-.642L9 10.75V6.754l.007-.102a.75.75 0 0 1 .641-.641z" fill="currentColor"/></svg>