<svg xmlns="http://www.w3.org/2000/svg" xmlns:xlink="http://www.w3.org/1999/xlink" viewBox="0 0 20 20"><path d="m3.5 1.996.09.008a.5.5 0 0 1 .402.402l.008.09v2.212a8 8 0 1 1-1.865 6.75 10.3 10.3 0 0 1-.13-1.98.5.5 0 0 1 .998.042 9.4 9.4 0 0 0 .114 1.755 7 7 0 1 0 1.141-5.28l3.242.001.09.008a.5.5 0 0 1 0 .984l-.09.008h-4l-.09-.008a.5.5 0 0 1-.402-.402L3 6.496v-4l.008-.09a.5.5 0 0 1 .402-.402zm6 4 .09.008a.5.5 0 0 1 .402.402l.008.09V10.5h2l.09.008a.5.5 0 0 1 0 .984L12 11.5H9.5l-.09-.008a.5.5 0 0 1-.402-.402L9 11V6.496l.008-.09a.5.5 0 0 1 .402-.402z" fill="currentColor"/></svg>