<svg xmlns="http://www.w3.org/2000/svg" xmlns:xlink="http://www.w3.org/1999/xlink" viewBox="0 0 24 24"><path d="M12 3a9 9 0 1 1-8.963 8.183 1 1 0 1 1 1.992.18A6.96 6.96 0 0 0 7.05 16.95c.375.375.792.707 1.242.988A7 7 0 1 0 7.098 7.002l1.4.001a1 1 0 0 1 .116 1.994l-.116.006H4.496a1 1 0 0 1-.993-.883l-.007-.117v-4a1 1 0 0 1 1.994-.116l.006.117v1.774A8.98 8.98 0 0 1 12 3m-.75 4a.75.75 0 0 1 .743.648L12 7.75V12h2.25a.75.75 0 0 1 .102 1.493l-.102.007h-3a.75.75 0 0 1-.743-.648l-.007-.102v-5a.75.75 0 0 1 .75-.75" fill="currentColor"/></svg>