<svg xmlns="http://www.w3.org/2000/svg" xmlns:xlink="http://www.w3.org/1999/xlink" viewBox="0 0 28 28"><path d="M21.75 3A3.25 3.25 0 0 1 25 6.25v15.5A3.25 3.25 0 0 1 21.75 25H6.25A3.25 3.25 0 0 1 3 21.75V6.25A3.25 3.25 0 0 1 6.25 3zm.583 20.4-7.807-7.68a.75.75 0 0 0-.968-.07l-.084.07-7.808 7.68q.276.099.584.1h15.5q.307-.001.583-.1l-7.807-7.68zM21.75 4.5H6.25A1.75 1.75 0 0 0 4.5 6.25v15.5q.001.314.103.593l7.82-7.692a2.25 2.25 0 0 1 3.026-.117l.129.117 7.82 7.692q.1-.28.102-.593V6.25a1.75 1.75 0 0 0-1.75-1.75m-3.25 3a2.5 2.5 0 1 1 0 5 2.5 2.5 0 0 1 0-5m0 1.5a1 1 0 1 0 0 2 1 1 0 0 0 0-2" fill="currentColor"/></svg>