<svg xmlns="http://www.w3.org/2000/svg" viewBox="0 0 24 24"><path fill="currentColor" d="m13.432 14.64.093.078 6.928 6.8A3.24 3.24 0 0 1 18.75 22H7.25a3.24 3.24 0 0 1-1.703-.481l6.928-6.801.083-.071a.75.75 0 0 1 .874-.007M18.75 4A3.25 3.25 0 0 1 22 7.25v11.5c0 .627-.178 1.213-.485 1.71l-6.939-6.813-.128-.116a2.25 2.25 0 0 0-2.889-.006l-.135.123-6.939 6.811A3.24 3.24 0 0 1 4 18.75v-6.248A6.5 6.5 0 0 0 12.502 4zM6.5 1a5.5 5.5 0 1 1 0 11 5.5 5.5 0 0 1 0-11m10.252 6a2.252 2.252 0 1 0 0 4.504 2.252 2.252 0 0 0 0-4.504m0 1.5a.752.752 0 1 1 0 1.504.752.752 0 0 1 0-1.504M6.5 3l-.09.007a.5.5 0 0 0-.402.402L6 3.5V6H3.498l-.09.008a.5.5 0 0 0-.402.402l-.008.09.008.09a.5.5 0 0 0 .402.402l.09.008H6v2.503l.008.09a.5.5 0 0 0 .402.402l.09.009.09-.009a.5.5 0 0 0 .402-.402L7 9.503V7h2.505l.09-.008a.5.5 0 0 0 .402-.402l.008-.09-.008-.09a.5.5 0 0 0-.403-.402L9.504 6H7V3.5l-.008-.09a.5.5 0 0 0-.402-.403z"/></svg>