<svg xmlns="http://www.w3.org/2000/svg" viewBox="0 0 24 24"><path fill="currentColor" d="M3.28 2.22a.75.75 0 1 0-1.06 1.06l1.263 1.264A3.24 3.24 0 0 0 3 6.25v11.5A3.25 3.25 0 0 0 6.25 21h11.5c.626 0 1.21-.177 1.706-.483l1.263 1.264a.75.75 0 0 0 1.061-1.061zm8.788 10.909 6.206 6.206.056.066a1.8 1.8 0 0 1-.58.099H6.25q-.308-.002-.582-.099l5.807-5.686zm-.95-.95a2.3 2.3 0 0 0-.692.464l-5.823 5.7a1.8 1.8 0 0 1-.103-.593V6.25q.002-.31.101-.588zm8.382 4.14V6.25a1.75 1.75 0 0 0-1.75-1.75H7.682L6.182 3H17.75A3.25 3.25 0 0 1 21 6.25v11.568l-1.5-1.5zM15.252 6.5a2.252 2.252 0 1 1 0 4.504 2.252 2.252 0 0 1 0-4.504m0 1.5a.752.752 0 1 0 0 1.504.752.752 0 0 0 0-1.504"/></svg>