<svg xmlns="http://www.w3.org/2000/svg" viewBox="0 0 20 20"><path fill="currentColor" d="M2.854 2.146a.5.5 0 1 0-.708.708l1.409 1.408A2.98 2.98 0 0 0 3 6v8c0 .65.206 1.25.557 1.742l5.39-5.308q.212-.204.468-.312l.632.633-.352.352-.046.04-5.384 5.301C4.755 16.796 5.354 17 6 17h8c.597 0 1.154-.174 1.622-.475l.01-.008.103-.069-.003-.003.003-.003 1.411 1.412a.5.5 0 0 0 .708-.708zM13 7.5a.5.5 0 1 1-1 0 .5.5 0 0 1 1 0M5.223 3.102l11.675 11.675q.101-.373.102-.777V6a3 3 0 0 0-3-3H6q-.405 0-.777.102M14 7.5a1.5 1.5 0 1 1-3 0 1.5 1.5 0 0 1 3 0"/></svg>