<svg xmlns="http://www.w3.org/2000/svg" viewBox="0 0 28 28"><path fill="currentColor" d="m13.474 15.723.083-.072a.75.75 0 0 1 .876-.007l.093.079 8.927 8.796A3.24 3.24 0 0 1 21.75 25H6.25a3.24 3.24 0 0 1-1.703-.481zl.083-.072zM21.75 3A3.25 3.25 0 0 1 25 6.25v15.5c0 .627-.177 1.212-.485 1.708l-8.936-8.804-.129-.117a2.25 2.25 0 0 0-2.893-.006l-.136.123-8.936 8.804A3.24 3.24 0 0 1 3 21.75V6.25A3.25 3.25 0 0 1 6.25 3zM19 7a2.5 2.5 0 1 0 0 5 2.5 2.5 0 0 0 0-5m0 1.5a1 1 0 1 1 0 2 1 1 0 0 1 0-2"/></svg>