<svg xmlns="http://www.w3.org/2000/svg" xmlns:xlink="http://www.w3.org/1999/xlink" viewBox="0 0 24 24"><path d="m11.475 13.718.083-.071a.75.75 0 0 1 .874-.007l.093.078 6.928 6.8A3.24 3.24 0 0 1 17.75 21H6.25a3.24 3.24 0 0 1-1.703-.481zl.083-.071zM17.75 3A3.25 3.25 0 0 1 21 6.25v11.5c0 .627-.178 1.213-.485 1.71l-6.939-6.813-.128-.116a2.25 2.25 0 0 0-2.889-.006l-.135.123-6.939 6.811A3.24 3.24 0 0 1 3 17.75V6.25A3.25 3.25 0 0 1 6.25 3zm-1.998 3a2.252 2.252 0 1 0 0 4.504 2.252 2.252 0 0 0 0-4.504m0 1.5a.752.752 0 1 1 0 1.504.752.752 0 0 1 0-1.504" fill="currentColor"/></svg>