<svg xmlns="http://www.w3.org/2000/svg" xmlns:xlink="http://www.w3.org/1999/xlink" viewBox="0 0 48 48"><path d="M30.997 14.5a2.5 2.5 0 1 0 0 5 2.5 2.5 0 0 0 0-5M6 10.75A4.75 4.75 0 0 1 10.75 6h26.5A4.75 4.75 0 0 1 42 10.75v26.5c0 .858-.227 1.663-.625 2.357L26.63 25.085a3.75 3.75 0 0 0-5.26 0L6.625 39.608A4.7 4.7 0 0 1 6 37.25zM25.997 17a5 5 0 1 0 10 0 5 5 0 0 0-10 0M8.394 41.375A4.7 4.7 0 0 0 10.75 42h26.5c.858 0 1.662-.227 2.357-.625l-14.73-14.508a1.25 1.25 0 0 0-1.754 0z" fill="currentColor"/></svg>