<svg xmlns="http://www.w3.org/2000/svg" xmlns:xlink="http://www.w3.org/1999/xlink" viewBox="0 0 24 24"><path d="M17.5 11.75a4.75 4.75 0 1 1-4.507 6.253h-1.986A4.752 4.752 0 0 1 1.75 16.5a4.75 4.75 0 0 1 9.474-.5h1.552a4.75 4.75 0 0 1 4.724-4.25m-11 2a2.75 2.75 0 1 0 0 5.5 2.75 2.75 0 0 0 0-5.5m11 0a2.75 2.75 0 1 0 0 5.5 2.75 2.75 0 0 0 0-5.5M15.512 3a2.75 2.75 0 0 1 2.634 1.96l1.006 3.35q1.189.199 2.327.467a1 1 0 1 1-.458 1.946Q16.888 9.75 12 9.75t-9.021.973a1 1 0 0 1-.458-1.946 36 36 0 0 1 2.326-.466L5.854 4.96A2.75 2.75 0 0 1 8.488 3z" fill="currentColor"/></svg>