<svg xmlns="http://www.w3.org/2000/svg" xmlns:xlink="http://www.w3.org/1999/xlink" viewBox="0 0 20 20"><path d="M17 9a8 8 0 1 0-6.278 7.814 6 6 0 0 1-.388-.94 7 7 0 1 1 5.64-7.474l.032.03q.3.313.597.537.197.149.394.263zM9.049 5a.75.75 0 1 1 0 1.5.75.75 0 0 1 0-1.5M9 7.5a.5.5 0 0 1 .492.41L9.5 8v4.502a.5.5 0 0 1-.992.09l-.008-.09V8a.5.5 0 0 1 .5-.5m8 2.847a4.6 4.6 0 0 1-1-.583 6 6 0 0 1-.716-.642.39.39 0 0 0-.566 0c-.995 1.036-2.095 1.545-3.318 1.545-.22 0-.4.186-.4.416v2.501l.004.266q.04 1.196.44 2.15A4.8 4.8 0 0 0 13 18q.787.6 1.874.979a.4.4 0 0 0 .254 0c2.56-.89 3.873-2.713 3.873-5.395v-2.5l-.008-.085a.405.405 0 0 0-.392-.332 4.1 4.1 0 0 1-1.6-.32z" fill="currentColor"/></svg>