<svg xmlns="http://www.w3.org/2000/svg" viewBox="0 0 20 20"><path fill="currentColor" d="M3 2a.5.5 0 0 1 .5.5v3A.5.5 0 0 0 4 6h12a.5.5 0 0 0 .5-.5v-3a.5.5 0 0 1 1 0v3A1.5 1.5 0 0 1 16 7h-.191l-3.585 7.17a1.5 1.5 0 0 1-.755.71c.022.2.031.41.031.62 0 .582-.072 1.162-.273 1.616-.208.47-.6.884-1.227.884s-1.019-.414-1.227-.884c-.2-.454-.273-1.034-.273-1.616 0-.21.01-.42.03-.62a1.5 1.5 0 0 1-.754-.71L4.191 7H4a1.5 1.5 0 0 1-1.5-1.5v-3A.5.5 0 0 1 3 2m6.118 12h1.764a.5.5 0 0 0 .447-.276L14.691 7H5.309l3.362 6.724a.5.5 0 0 0 .447.276m.405 1a5 5 0 0 0-.023.5c0 .523.068.942.188 1.212.112.254.22.288.312.288s.2-.034.312-.288c.12-.27.188-.69.188-1.212q0-.267-.024-.5z"/></svg>