<svg xmlns="http://www.w3.org/2000/svg" viewBox="0 0 24 24"><path fill="currentColor" d="M20.249 1.998a.75.75 0 0 1 .743.648l.007.102v3.5a1.75 1.75 0 0 1-1.607 1.744l-.143.006h-.263l-3.973 8.962a1.75 1.75 0 0 1-1.092.966q.209 1.247-.069 2.339a4.4 4.4 0 0 1-.244.702 1.75 1.75 0 0 1-3.211-.039 5 5 0 0 1-.221-.665 5.5 5.5 0 0 1-.07-2.358 1.74 1.74 0 0 1-.96-.792l-.07-.14-4.061-8.975h-.264a1.75 1.75 0 0 1-1.744-1.606L3 6.248v-3.5a.75.75 0 0 1 1.493-.102l.007.102v3.5a.25.25 0 0 0 .193.243l.057.007h14.498a.25.25 0 0 0 .243-.193l.007-.057v-3.5a.75.75 0 0 1 .75-.75zM12.408 18h-.791l-.038.185a4 4 0 0 0 .05 1.71q.063.24.151.453a.25.25 0 0 0 .459.006q.098-.22.16-.46.197-.768.044-1.708zm4.937-10.002H6.662l3.78 8.356a.25.25 0 0 0 .17.14l.058.007h2.743a.25.25 0 0 0 .199-.099l.03-.05z"/></svg>