<svg xmlns="http://www.w3.org/2000/svg" viewBox="0 0 24 24"><path fill="currentColor" d="M19 4.491a2.5 2.5 0 0 1-3.012 2.448l-1.28 2.117A4 4 0 0 1 16 12.058l1.296.26a2.5 2.5 0 1 1-.279 1.475l-1.319-.266a4 4 0 0 1-1.744 1.964l.495 1.511h.051a2.5 2.5 0 1 1-1.472.48l-.497-1.517a4 4 0 0 1-3.752-1.593l-1.794.848a2.5 2.5 0 1 1-.608-1.372l1.754-.829a4 4 0 0 1 .784-3.566l-.991-1.13a2.5 2.5 0 1 1 1.164-.948l.982 1.12A4 4 0 0 1 12 8c.505 0 .989.093 1.434.265l1.245-2.06A2.5 2.5 0 1 1 19 4.491m-1.5 0a1 1 0 1 0-2 0 1 1 0 0 0 2 0M7 7a1 1 0 1 0 0-2 1 1 0 0 0 0 2m5 7.5a2.5 2.5 0 1 0 0-5 2.5 2.5 0 0 0 0 5m-6.5 1a1 1 0 1 0-2 0 1 1 0 0 0 2 0m10 4.002a1 1 0 1 0-2 0 1 1 0 0 0 2 0m4-5.002a1 1 0 1 0 0-2 1 1 0 0 0 0 2"/></svg>