<svg xmlns="http://www.w3.org/2000/svg" viewBox="0 0 20 20"><path fill="currentColor" d="M8.162 2.212a8 8 0 0 1 3.676 0 .75.75 0 0 1-.344 1.46 6.5 6.5 0 0 0-2.988 0 .75.75 0 0 1-.344-1.46M6.825 3.437a.75.75 0 0 1-.242 1.033A6.54 6.54 0 0 0 4.47 6.583a.75.75 0 0 1-1.275-.79 8.04 8.04 0 0 1 2.598-2.598.75.75 0 0 1 1.032.242m6.35 0a.75.75 0 0 1 1.032-.242 8.04 8.04 0 0 1 2.598 2.598.75.75 0 0 1-1.275.79 6.54 6.54 0 0 0-2.112-2.113.75.75 0 0 1-.243-1.033M3.114 7.604a.75.75 0 0 1 .558.902 6.5 6.5 0 0 0 0 2.988.75.75 0 0 1-1.46.344 8 8 0 0 1 0-3.676.75.75 0 0 1 .902-.558m13.772 0a.75.75 0 0 1 .902.558 8 8 0 0 1 0 3.676.75.75 0 0 1-1.46-.344 6.5 6.5 0 0 0 0-2.988.75.75 0 0 1 .558-.902m-13.449 5.57a.75.75 0 0 1 1.033.244 6.54 6.54 0 0 0 2.113 2.112.75.75 0 1 1-.79 1.275 8.04 8.04 0 0 1-2.598-2.598.75.75 0 0 1 .242-1.032zm13.673 1.262a.75.75 0 0 0-1.22-.872l-.003.004-.017.022a9 9 0 0 1-.378.46c-.245.28-.594.643-1.027 1.013-1.017-.73-2.34-1.313-3.965-1.313-.752 0-1.388.244-1.84.677A2.17 2.17 0 0 0 7.987 16c0 .571.224 1.144.671 1.573.453.433 1.088.677 1.841.677 1.532 0 2.868-.584 3.915-1.274l.055.054a8.4 8.4 0 0 1 1.285 1.67l.06.108.012.024.002.003c-.152-.266 0 .002 0 .002a.75.75 0 0 0 1.342-.672l-.001-.002v-.001l-.003-.005-.007-.012-.022-.043a9 9 0 0 0-.39-.643 10 10 0 0 0-1.136-1.406 12 12 0 0 0 1.363-1.44q.063-.078.097-.125l.026-.036.008-.01.003-.004.001-.002zm-6.61.814c1.027 0 1.91.304 2.65.743-.784.443-1.683.757-2.65.757-.422 0-.668-.131-.803-.26a.67.67 0 0 1-.21-.49c0-.179.07-.356.21-.49.135-.129.38-.26.803-.26"/></svg>