<svg xmlns="http://www.w3.org/2000/svg" xmlns:xlink="http://www.w3.org/1999/xlink" viewBox="0 0 28 28"><path d="M5.856 8.195c-.296.415-.835.597-1.303.396-.552-.236-.78-.901-.439-1.395a12.1 12.1 0 0 1 3.008-3.03c.492-.345 1.158-.122 1.399.428.204.466.026 1.007-.386 1.306a10 10 0 0 0-2.279 2.295m-2.29 2.694c.469.2.709.717.613 1.217a10 10 0 0 0 0 3.788c.096.5-.144 1.017-.612 1.218-.552.236-1.19-.057-1.313-.645A12 12 0 0 1 2 14c0-.846.087-1.671.254-2.467.123-.588.761-.88 1.313-.644zm.987 8.52c.468-.2 1.007-.018 1.303.396a10 10 0 0 0 2.34 2.34c.45.32.62.927.346 1.406-.275.48-.889.65-1.344.336a12.1 12.1 0 0 1-3.084-3.083c-.34-.494-.113-1.159.44-1.395zm14.044 5.679q.201-.082.405-.172.056-.025.108-.055a12 12 0 0 0 1.785-1.038 9.8 9.8 0 0 1 1.09 2.275l.04.126.007.028v.003l.001.002a1 1 0 0 0 1.934-.511v-.002l-.001-.002-.001-.005-.005-.016a10 10 0 0 0-.286-.841 11.8 11.8 0 0 0-1.237-2.347 12 12 0 0 0 1.449-1.729c.34-.494.113-1.159-.44-1.395-.467-.2-1.007-.018-1.302.396q-.46.643-1.013 1.205c-.814-.756-1.845-1.406-3.134-1.729-2.126-.548-3.89-.323-5.16.406-1.26.722-2.013 1.944-1.98 3.213.034 1.325.918 2.453 2.404 2.881 1.258.363 2.906.227 4.91-.526q.215-.08.426-.167m-2.395-1.31c-1.084.261-1.868.23-2.387.081-.737-.212-.95-.647-.959-1.01-.01-.418.246-1.009.975-1.427.718-.411 1.922-.655 3.67-.203l.007.002a5.1 5.1 0 0 1 2.068 1.082 10 10 0 0 1-3.178 1.408q-.102.026-.196.067m8.231-6.666c-.468-.201-.708-.718-.612-1.218a10.1 10.1 0 0 0 0-3.788c-.096-.5.144-1.017.612-1.217.552-.237 1.19.056 1.313.644a12.05 12.05 0 0 1 0 4.935c-.123.587-.761.88-1.313.643zm-.986-8.52c-.468.2-1.007.018-1.303-.397-.63-.882-1.4-1.658-2.279-2.295-.412-.299-.59-.84-.386-1.306.24-.55.907-.773 1.399-.429a12.1 12.1 0 0 1 3.008 3.03c.34.495.113 1.16-.439 1.396zM17.189 3.59c-.204.467-.722.703-1.222.603a10 10 0 0 0-3.934 0c-.5.1-1.018-.136-1.222-.603-.24-.55.047-1.19.634-1.317A12 12 0 0 1 14 2c.877 0 1.732.094 2.555.273.587.127.875.768.634 1.317" fill="currentColor"/></svg>