<svg xmlns="http://www.w3.org/2000/svg" xmlns:xlink="http://www.w3.org/1999/xlink" viewBox="0 0 28 28"><path d="M5.263 8.175a.8.8 0 0 1-.97.305c-.413-.177-.583-.674-.337-1.05a12.1 12.1 0 0 1 3.4-3.424c.374-.25.871-.083 1.051.328a.8.8 0 0 1-.297.972 10.6 10.6 0 0 0-2.847 2.869m-1.957 2.602c.352.15.533.54.449.913A10.5 10.5 0 0 0 3.5 14c0 .794.088 1.567.255 2.31a.8.8 0 0 1-.448.913c-.413.177-.89-.042-.992-.48a12.1 12.1 0 0 1 0-5.487c.102-.437.58-.656.991-.479m.987 8.743a.8.8 0 0 1 .97.305 10.6 10.6 0 0 0 2.89 2.898c.343.23.47.686.264 1.046a.715.715 0 0 1-1.012.258 12.1 12.1 0 0 1-3.449-3.458c-.246-.375-.076-.872.337-1.049m11.99 6.247c-.91.16-2.005.213-2.991.017-.684-.135-1.38-.403-1.913-.902-.556-.52-.879-1.236-.879-2.132 0-1.135.827-2.164 2.056-2.742 1.252-.59 2.998-.768 5.126-.236 1.398.35 2.535 1.101 3.431 1.952a10.6 10.6 0 0 0 1.624-1.899.8.8 0 0 1 .97-.305c.413.177.583.674.337 1.05a12 12 0 0 1-1.92 2.262 13.3 13.3 0 0 1 1.735 2.92l.087.217.005.014.002.005v.002a.75.75 0 0 1-1.406.52l-.003-.007-.012-.032a10 10 0 0 0-.29-.648 12 12 0 0 0-1.283-2.045 11.9 11.9 0 0 1-4.523 1.975.7.7 0 0 1-.152.014zm3.643-3.098c-.722-.65-1.59-1.188-2.608-1.442-1.872-.468-3.251-.272-4.124.138-.896.422-1.194 1.019-1.194 1.385 0 .504.167.816.403 1.036.257.241.656.423 1.18.527 1.06.21 2.369.052 3.2-.2a1 1 0 0 1 .16-.03 10.5 10.5 0 0 0 2.983-1.414m4.768-5.446a.8.8 0 0 1-.449-.913A10.5 10.5 0 0 0 24.5 14c0-.794-.088-1.567-.255-2.31a.8.8 0 0 1 .448-.913c.413-.177.89.042.992.48.206.88.315 1.799.315 2.743s-.109 1.863-.315 2.744c-.102.437-.58.656-.991.48zm-.987-8.743a.8.8 0 0 1-.97-.305 10.6 10.6 0 0 0-2.847-2.869.796.796 0 0 1-.297-.972c.18-.41.677-.577 1.051-.328 1.351.9 2.51 2.067 3.4 3.425.246.375.076.872-.337 1.049m-6.404-5.15a.8.8 0 0 1-.916.442A10.5 10.5 0 0 0 14 3.5c-.82 0-1.62.094-2.386.272a.8.8 0 0 1-.917-.441c-.18-.411.036-.89.472-.995A12 12 0 0 1 14 2c.975 0 1.923.116 2.831.336.436.105.652.584.472.995z" fill="currentColor"/></svg>