<svg xmlns="http://www.w3.org/2000/svg" xmlns:xlink="http://www.w3.org/1999/xlink" viewBox="0 0 20 20"><path d="M8.162 2.212a8 8 0 0 1 3.676 0 .5.5 0 0 1-.229.974 7 7 0 0 0-3.218 0 .5.5 0 0 1-.229-.974m-1.68 1.144a.5.5 0 0 1-.163.689 7.04 7.04 0 0 0-2.274 2.274.5.5 0 1 1-.85-.526 8.04 8.04 0 0 1 2.598-2.599.5.5 0 0 1 .688.162zm7.037 0a.5.5 0 0 1 .688-.162 8.04 8.04 0 0 1 2.599 2.599.5.5 0 0 1-.85.526 7.04 7.04 0 0 0-2.275-2.274.5.5 0 0 1-.162-.689M2.813 7.79a.5.5 0 0 1 .373.601 7 7 0 0 0 0 3.218.5.5 0 0 1-.974.229 8 8 0 0 1 0-3.676.5.5 0 0 1 .601-.372m14.374 0a.5.5 0 0 1 .6.372 8 8 0 0 1 0 3.676.5.5 0 0 1-.973-.229 7 7 0 0 0 0-3.218.5.5 0 0 1 .373-.601m-13.83 5.729a.5.5 0 0 1 .688.162 7.04 7.04 0 0 0 2.274 2.275.5.5 0 1 1-.526.85 8.04 8.04 0 0 1-2.599-2.599.5.5 0 0 1 .162-.688zm13.577.73a.5.5 0 1 0-.868-.497l-.002.004-.014.023a6 6 0 0 1-.322.465 7.8 7.8 0 0 1-1.153 1.212C13.559 14.664 12.2 14 10.5 14c-1.521 0-2.487.9-2.487 2s.966 2 2.487 2c1.673 0 3.018-.57 4.033-1.258l.114.111a8.6 8.6 0 0 1 1.325 1.723q.044.077.063.114l.015.028.003.006a.5.5 0 1 0 .894-.448s-.13-.235-.001-.002l-.002-.003-.006-.012a3 3 0 0 0-.098-.179 9.6 9.6 0 0 0-1.487-1.934l-.021-.022a9 9 0 0 0 1.19-1.274 7 7 0 0 0 .403-.586l.006-.01zM10.5 15c1.3 0 2.376.463 3.229 1.072A6.06 6.06 0 0 1 10.5 17c-1.128 0-1.487-.6-1.487-1s.359-1 1.487-1" fill="currentColor"/></svg>