<svg xmlns="http://www.w3.org/2000/svg" viewBox="0 0 24 24"><path fill="currentColor" d="M5.5 2A2.5 2.5 0 0 0 3 4.5v15A2.5 2.5 0 0 0 5.5 22h7.31a6.5 6.5 0 0 1-1.078-1.5H5.5a1 1 0 0 1-1-1h6.813a6.5 6.5 0 0 1-.294-1.5H4.5V4.5a1 1 0 0 1 1-1H17a1 1 0 0 1 1 1v6.519q.782.062 1.5.294V4.5A2.5 2.5 0 0 0 17 2zM23 17.5a5.5 5.5 0 1 0-11 0 5.5 5.5 0 0 0 11 0m-6.086-2.403 2.806 1.84a.61.61 0 0 1 .28.52.65.65 0 0 1-.072.299.6.6 0 0 1-.198.226l-2.807 1.915a.6.6 0 0 1-.158.077.55.55 0 0 1-.395-.023.7.7 0 0 1-.193-.135.7.7 0 0 1-.13-.2.6.6 0 0 1-.047-.237v-3.758a.62.62 0 0 1 .367-.57.55.55 0 0 1 .547.045zM6 6a1 1 0 0 1 1-1h8a1 1 0 0 1 1 1v2a1 1 0 0 1-1 1H7a1 1 0 0 1-1-1zm1.5 1.5h7v-1h-7z"/></svg>