<svg xmlns="http://www.w3.org/2000/svg" xmlns:xlink="http://www.w3.org/1999/xlink" viewBox="0 0 20 20"><path d="M8 4a.5.5 0 0 1 .09.992L8 5H6a3 3 0 0 0-.197 5.994L6 11h2a.5.5 0 0 1 .09.992L8 12H6a4 4 0 0 1-.22-7.994L6 4zm6 0a4 4 0 0 1 3.52 5.902 5.5 5.5 0 0 0-.883-.471 3 3 0 0 0-2.44-4.424L14 5h-2a.5.5 0 0 1-.09-.992L12 4zM6 7.5h8a.5.5 0 0 1 .09.992L14 8.5H6a.5.5 0 0 1-.09-.992zm13 7a4.5 4.5 0 1 1-9 0 4.5 4.5 0 0 1 9 0m-2.732-1.06a.5.5 0 0 0-.707-.708l-1.061 1.06-1.06-1.06a.5.5 0 0 0-.708.707l1.06 1.061-1.06 1.06a.5.5 0 0 0 .707.708l1.061-1.06 1.06 1.06a.5.5 0 0 0 .708-.707l-1.06-1.061z" fill="currentColor"/></svg>