<svg xmlns="http://www.w3.org/2000/svg" xmlns:xlink="http://www.w3.org/1999/xlink" viewBox="0 0 20 20"><path d="M8.53 3.012a7 7 0 0 1 7.455 7.458.5.5 0 1 0 .997.066 8 8 0 0 0-8.518-8.522.5.5 0 1 0 .066.998M8 4.984a.5.5 0 0 1 .522-.479 6.25 6.25 0 0 1 5.972 5.973.5.5 0 1 1-.999.043A5.25 5.25 0 0 0 8.48 5.505.5.5 0 0 1 8 4.984m-.5 7.637a1.125 1.125 0 1 0 0-2.25 1.125 1.125 0 0 0 0 2.25m-3.182 2.057 2.828 2.828a.5.5 0 0 0 .708 0l2.828-2.828a4.5 4.5 0 1 0-6.364 0m.707-.707a3.5 3.5 0 1 1 4.95 0L7.5 16.446z" fill="currentColor"/></svg>