<svg xmlns="http://www.w3.org/2000/svg" viewBox="0 0 20 20"><path fill="currentColor" d="M2.146 2.146a.5.5 0 0 1 .708 0l15 15a.5.5 0 0 1-.708.708L14.094 14.8l-.272.268-2.436 2.37a1.993 1.993 0 0 1-2.64.118l-.132-.118-2.043-1.985-1.52-1.499a7.01 7.01 0 0 1-.78-8.977L2.146 2.854a.5.5 0 0 1 0-.708m8.932 9.639a2.992 2.992 0 0 1-3.87-3.87l-2.22-2.22a6.01 6.01 0 0 0 .591 7.372l.176.183.571.567 2.981 2.905.093.08a1 1 0 0 0 1.2 0l.093-.08 2.23-2.168.465-.459zm.776-2.052.744.744a2.992 2.992 0 0 0-4.083-4.083l.744.744a1.996 1.996 0 0 1 2.595 2.595M6.353 4.232a6 6 0 0 1 7.892.524 6.01 6.01 0 0 1 .526 7.894l.71.71a7.006 7.006 0 0 0-.531-9.309 7 7 0 0 0-9.307-.53l.71.71z"/></svg>