<svg xmlns="http://www.w3.org/2000/svg" viewBox="0 0 24 24"><path fill="currentColor" d="M5.843 4.568a8.707 8.707 0 1 1 12.314 12.314l-1.187 1.174q-1.312 1.287-3.406 3.312a2.25 2.25 0 0 1-3.128 0l-3.491-3.396q-.658-.646-1.102-1.09a8.707 8.707 0 0 1 0-12.314m11.253 1.06A7.207 7.207 0 1 0 6.904 15.822L8.39 17.29a754 754 0 0 0 3.088 3 .75.75 0 0 0 1.043 0l3.394-3.3q.705-.691 1.18-1.168a7.207 7.207 0 0 0 0-10.192zM12 7.999a3.002 3.002 0 1 1 0 6.004A3.002 3.002 0 0 1 12 8zm0 1.5a1.501 1.501 0 1 0 0 3.004A1.501 1.501 0 0 0 12 9.5z"/></svg>