<svg xmlns="http://www.w3.org/2000/svg" xmlns:xlink="http://www.w3.org/1999/xlink" viewBox="0 0 20 20"><path d="M13 9a3 3 0 1 1-6 0 3 3 0 0 1 6 0m-1 0a2 2 0 1 0-4 0 2 2 0 0 0 4 0m2.95 4.955a7.005 7.005 0 0 0 0-9.904 7 7 0 0 0-9.9 0 7.005 7.005 0 0 0 0 9.904l1.521 1.499 2.043 1.985.133.118c.775.628 1.91.588 2.64-.118l2.435-2.37zM5.755 4.756a6 6 0 0 1 8.49 0 6.01 6.01 0 0 1 .176 8.31l-.176.184-1.321 1.304-2.23 2.168-.094.08a1 1 0 0 1-1.2 0l-.093-.08-2.98-2.905-.572-.567-.176-.183a6.01 6.01 0 0 1 .176-8.31z" fill="currentColor"/></svg>