<svg xmlns="http://www.w3.org/2000/svg" xmlns:xlink="http://www.w3.org/1999/xlink" viewBox="0 0 20 20"><path d="M10 2a3 3 0 0 1 3 3v1h1a2 2 0 0 1 2 2v1.232a4.6 4.6 0 0 1-.994-.802L15 8.424V8a1 1 0 0 0-1-1H6a1 1 0 0 0-1 1v7a1 1 0 0 0 1 1h3.376q.178.524.446 1H6a2 2 0 0 1-2-2V8a2 2 0 0 1 2-2h1V5a3 3 0 0 1 3-3m0 1a2 2 0 0 0-2 2v1h4V5a2 2 0 0 0-2-2m5 6.764a4.6 4.6 0 0 0 1 .583 4.1 4.1 0 0 0 1.6.32c.193 0 .355.143.392.332l.008.084v2.501c0 2.682-1.313 4.506-3.873 5.395a.4.4 0 0 1-.254 0Q12.785 18.6 12 18a4.8 4.8 0 0 1-1.555-2q-.4-.954-.44-2.15L10 13.584v-2.5c0-.23.18-.417.4-.417 1.223 0 2.323-.51 3.318-1.545a.39.39 0 0 1 .566 0q.348.364.716.642" fill="currentColor"/></svg>