<svg xmlns="http://www.w3.org/2000/svg" xmlns:xlink="http://www.w3.org/1999/xlink" viewBox="0 0 16 16"><path d="M15 5.5a4.5 4.5 0 1 1-9 0 4.5 4.5 0 0 1 9 0m-2.646-1.146a.5.5 0 0 0-.708-.708L10.5 4.793 9.354 3.646a.5.5 0 1 0-.708.708L9.793 5.5 8.646 6.646a.5.5 0 1 0 .708.708L10.5 6.207l1.146 1.147a.5.5 0 0 0 .708-.708L11.207 5.5zM12 13v-2.207q.524-.149 1-.393V13a2 2 0 0 1-2 2H3a2 2 0 0 1-2-2V7a2 2 0 0 1 2-2h2.022a5.6 5.6 0 0 0 0 1H3a1 1 0 0 0-1 1v.74l5 2.692.544-.293q.518.331 1.104.542l-1.41.76a.5.5 0 0 1-.475 0L2 8.875V13a1 1 0 0 0 1 1h8a1 1 0 0 0 1-1" fill="currentColor"/></svg>