<svg xmlns="http://www.w3.org/2000/svg" viewBox="0 0 20 20"><path fill="currentColor" d="M18 2.624a4 4 0 0 1-1-.277q-.908-.38-1.716-1.225a.39.39 0 0 0-.566 0c-.995 1.036-2.095 1.545-3.318 1.545-.22 0-.4.186-.4.416v2.501l.004.266c.042 1.247.38 2.3 1.006 3.15q.413.558.99 1 .785.6 1.873.979a.4.4 0 0 0 .254 0C17.686 10.089 19 8.266 19 5.584v-2.5l-.008-.085a.405.405 0 0 0-.392-.332q-.304 0-.6-.043m-5.697 8.101.09.07c.62.474 1.343.847 2.152 1.128.295.103.615.103.91 0 .99-.344 1.848-.825 2.545-1.454V14.5a2.5 2.5 0 0 1-2.5 2.5h-11A2.5 2.5 0 0 1 2 14.5V7.373l7.747 4.558a.5.5 0 0 0 .507 0zM10 4v1.593l.005.282v.008c.047 1.413.434 2.67 1.2 3.71q.16.217.34.418L10 10.92 2.015 6.223A2.5 2.5 0 0 1 4.5 4z"/></svg>