<svg xmlns="http://www.w3.org/2000/svg" xmlns:xlink="http://www.w3.org/1999/xlink" viewBox="0 0 16 16"><path d="M4.5 2A2.5 2.5 0 0 0 2 4.5v6A2.5 2.5 0 0 0 4.5 13H5v-1h-.5A1.5 1.5 0 0 1 3 10.5v-6A1.5 1.5 0 0 1 4.5 3h6A1.5 1.5 0 0 1 12 4.5V7h1V4.5A2.5 2.5 0 0 0 10.5 2zm0 3.5A.5.5 0 0 1 5 5h5a.5.5 0 1 1 0 1H5a.5.5 0 0 1-.5-.5m1.513 3.804 4.497 2.623L15 9.509V9.5A1.5 1.5 0 0 0 13.5 8h-6a1.5 1.5 0 0 0-1.487 1.304M15 10.644l-4.263 2.296a.5.5 0 0 1-.489-.008L6 10.454V13.5A1.5 1.5 0 0 0 7.5 15h6a1.5 1.5 0 0 0 1.5-1.5z" fill="currentColor"/></svg>