<svg xmlns="http://www.w3.org/2000/svg" viewBox="0 0 16 16"><path fill="currentColor" d="M9.557 10.191q.678.441 1.496.731c.29.104.605.104.894 0A7.4 7.4 0 0 0 13 10.455V13a2 2 0 0 1-2 2H3a2 2 0 0 1-2-2V8.337l5.763 3.103a.5.5 0 0 0 .474 0zM7 5v.134l.004.255v.008c.038 1.173.327 2.235.901 3.14a5.3 5.3 0 0 0 .8.977L7 10.432l-6-3.23V7a2 2 0 0 1 2-2zm7.001-2.559a3.5 3.5 0 0 1-1-.347 4.7 4.7 0 0 1-1.253-.984.334.334 0 0 0-.495 0c-.87.932-1.833 1.39-2.903 1.39-.193 0-.35.168-.35.375v2.25l.004.24q.05 1.542.746 2.636.356.56.878 1 .724.608 1.761.98c.072.025.15.025.222 0C13.85 9.18 15 7.54 15 5.126V2.875l-.007-.076a.36.36 0 0 0-.343-.299q-.33 0-.649-.059"/></svg>