<svg xmlns="http://www.w3.org/2000/svg" xmlns:xlink="http://www.w3.org/1999/xlink" viewBox="0 0 24 24"><path d="m9.203 4 .047-.002.046.001.068.007.016.004a.7.7 0 0 1 .25.092l.053.034 5.07 3.565L19.82 4.14a.75.75 0 0 1 1.174.51l.007.104v10.632a.75.75 0 0 1-.238.548l-.08.066-5.5 3.866a.74.74 0 0 1-.828.023L9.25 16.297l-5.07 3.565a.75.75 0 0 1-1.174-.51l-.007-.104V8.616a.75.75 0 0 1 .238-.548l.08-.066 5.5-3.866a.8.8 0 0 1 .2-.101l.123-.028.063-.008zm10.298 2.197-4 2.812v8.799l4-2.812v-8.8zM8.5 6.193l-4 2.812v8.8l4-2.813zm1.502 0v8.8l4 2.811V9.005z" fill="currentColor"/></svg>