<svg xmlns="http://www.w3.org/2000/svg" xmlns:xlink="http://www.w3.org/1999/xlink" viewBox="0 0 20 20"><path d="M17.73 3.057A.5.5 0 0 1 18 3.5v10a.5.5 0 0 1-.243.429l-5 3a.5.5 0 0 1-.5.008l-4.51-2.506a.46.46 0 0 0-.49-.002l-.014.008-4.5 2.5A.5.5 0 0 1 2 16.5V7a.5.5 0 0 1 .213-.41l5-3.5a.5.5 0 0 1 .574 0l4.713 3.3 4.713-3.3a.5.5 0 0 1 .518-.033zM3 7.26v8.39l3.75-2.083a1.5 1.5 0 0 1 .25-.119V4.46zm5.248 6.306 3.756 2.086L12 7.26l-4-2.8v8.99q.128.045.248.116m4.756 2.049L17 13.217V4.46l-4 2.8z" fill="currentColor"/></svg>