<svg xmlns="http://www.w3.org/2000/svg" xmlns:xlink="http://www.w3.org/1999/xlink" viewBox="0 0 32 32"><path d="M7.486 3.643A1 1 0 0 0 8.509 5.36l.009-.005.06-.033q.09-.048.3-.142c.28-.123.723-.295 1.334-.47C11.435 4.363 13.342 4 16 4s4.565.362 5.788.712c.612.174 1.054.346 1.334.47a5 5 0 0 1 .36.174l.01.005a1 1 0 0 0 1.023-1.718l-.002-.002h-.002l-.005-.003-.012-.008-.152-.082a7 7 0 0 0-.416-.198 13 13 0 0 0-1.589-.562C20.935 2.388 18.842 2 16 2s-4.935.388-6.337.788c-.7.2-1.228.404-1.588.562a7 7 0 0 0-.569.28l-.012.008-.005.002-.002.001zM7.5 7.5A3.5 3.5 0 0 0 4 11v10a3.5 3.5 0 0 0 3.5 3.5h10A3.5 3.5 0 0 0 21 21v-2.028l4.737 2.802A1.5 1.5 0 0 0 28 20.484v-8.97a1.5 1.5 0 0 0-2.163-1.346L21 12.553V11a3.5 3.5 0 0 0-3.5-3.5zM21 14.782l5-2.464v7.289l-5-2.959zM6 11a1.5 1.5 0 0 1 1.5-1.5h10A1.5 1.5 0 0 1 19 11v10a1.5 1.5 0 0 1-1.5 1.5h-10A1.5 1.5 0 0 1 6 21zm1.143 15.985a1 1 0 0 0 .343 1.373h.001l.002.002.005.003.012.006a2 2 0 0 0 .152.083q.146.078.417.198c.36.158.887.361 1.588.562 1.402.4 3.495.788 6.337.788s4.935-.388 6.337-.788c.701-.2 1.228-.404 1.589-.562a7 7 0 0 0 .533-.26l.035-.02.012-.008.005-.002.002-.002h.002a1 1 0 0 0-1.024-1.719l-.008.005a5 5 0 0 1-.361.175c-.28.123-.722.295-1.334.47-1.223.349-3.13.711-5.788.711s-4.565-.362-5.788-.712a11 11 0 0 1-1.333-.47 5 5 0 0 1-.361-.174l-.009-.005a1 1 0 0 0-1.366.346" fill="currentColor"/></svg>