<svg xmlns="http://www.w3.org/2000/svg" viewBox="0 0 28 28"><path fill="currentColor" d="M14 3.5c-2.18 0-3.811.306-4.81.569-.387.102-.68.197-.87.265a6 6 0 0 0-.258.098l-.008.004a.75.75 0 0 1-.608-1.371s.242-.097.004-.002l.007-.003.021-.01.073-.03.265-.1c.23-.08.562-.189.994-.302C9.919 2.326 11.68 2 14 2s4.081.326 5.19.618c.432.113.765.221.994.303a7 7 0 0 1 .338.13l.022.009.006.003h.003v.001a.75.75 0 0 1-.606 1.372h-.001l-.008-.004a11 11 0 0 0-1.128-.363C17.812 3.806 16.18 3.5 14 3.5M4 9.75A2.75 2.75 0 0 1 6.75 7h8.5A2.75 2.75 0 0 1 18 9.75v8.5A2.75 2.75 0 0 1 15.25 21h-8.5A2.75 2.75 0 0 1 4 18.25zm15 6.73 3.396 3.18c.798.747 2.104.18 2.104-.913V9.253c0-1.094-1.306-1.66-2.104-.912L19 11.52v4.959zm-9.81 7.45c.999.263 2.63.569 4.81.569s3.812-.306 4.81-.569c.388-.102.68-.197.871-.265q.144-.051.21-.079l.047-.02.008-.002.001-.001a.75.75 0 0 1 .607 1.372h-.001l-.003.001-.006.003-.022.01a7 7 0 0 1-.338.13c-.23.08-.562.189-.993.302-1.11.292-2.87.618-5.19.618-2.322 0-4.082-.326-5.191-.618a12 12 0 0 1-.994-.303 7 7 0 0 1-.338-.13l-.021-.009-.007-.003-.004-.002a.75.75 0 0 1 .609-1.37l.007.003.047.02.21.078c.191.068.484.163.872.265z"/></svg>