<svg xmlns="http://www.w3.org/2000/svg" xmlns:xlink="http://www.w3.org/1999/xlink" viewBox="0 0 20 20"><path d="M6.892 2.03a7 7 0 0 0-.85.37 5 5 0 0 0-.292.166l-.018.012-.006.004-.002.001-.001.001L6 3l-.277-.416a.5.5 0 0 0 .554.833l.007-.005.041-.025q.058-.036.18-.1c.162-.085.407-.2.728-.317A8.1 8.1 0 0 1 10 2.5c1.183 0 2.125.236 2.767.47.32.117.566.232.728.317a4 4 0 0 1 .22.125l.008.004.262-.393-.262.393a.5.5 0 1 0 .554-.832L14 3l.277-.416-.001-.001-.002-.001-.006-.004-.019-.012a5 5 0 0 0-.292-.166 7 7 0 0 0-.849-.37A9.1 9.1 0 0 0 10 1.5a9.1 9.1 0 0 0-3.108.53m0 15.94c.733.267 1.79.53 3.108.53a9.1 9.1 0 0 0 3.108-.53c.367-.133.653-.268.85-.37a5 5 0 0 0 .291-.166l.019-.012.006-.004.002-.001s.001-.001-.276-.417l.277.416a.5.5 0 0 0-.554-.832l.262.393-.262-.393-.008.005a4 4 0 0 1-.22.125 6 6 0 0 1-.728.316A8.1 8.1 0 0 1 10 17.5a8.1 8.1 0 0 1-2.767-.47 6 6 0 0 1-.728-.317 4 4 0 0 1-.22-.125l-.008-.005a.5.5 0 0 0-.554.833L6 17l-.277.416.001.001.002.001.006.004.018.012.063.038a7 7 0 0 0 1.078.497zM2.5 7v6a2 2 0 0 0 2 2h6a2 2 0 0 0 2-2V7a2 2 0 0 0-2-2h-6a2 2 0 0 0-2 2m11 4.55 2.777 2.257a.75.75 0 0 0 1.223-.582v-6.45a.75.75 0 0 0-1.223-.582L13.5 8.45z" fill="currentColor"/></svg>