<svg xmlns="http://www.w3.org/2000/svg" viewBox="0 0 16 16"><path fill="currentColor" d="m4.768 2.922.01-.006.046-.027a7 7 0 0 1 .888-.424C6.31 2.23 7.12 2 8 2s1.69.23 2.289.465a7 7 0 0 1 .887.424q.031.017.045.027l.01.006h.001a.5.5 0 0 0 .536-.844h-.001l-.002-.002-.005-.003-.018-.011a6 6 0 0 0-.285-.16 8 8 0 0 0-.802-.367C9.985 1.27 9.045 1 8 1c-1.046 0-1.985.27-2.655.535a8 8 0 0 0-1.026.49l-.061.037-.018.01-.005.004-.002.001a.5.5 0 0 0 .535.845M4 4a2 2 0 0 0-2 2v4a2 2 0 0 0 2 2h4.5a2 2 0 0 0 2-2v-.138l2.752 1.572A.5.5 0 0 0 14 11V5a.5.5 0 0 0-.748-.434L10.5 6.138V6a2 2 0 0 0-2-2zm6.5 3.29L13 5.862v4.276L10.5 8.71zM3 6a1 1 0 0 1 1-1h4.5a1 1 0 0 1 1 1v4a1 1 0 0 1-1 1H4a1 1 0 0 1-1-1zm1.769 7.079-.001-.001a.5.5 0 0 0-.536.844h.001l.002.002.005.003.018.011.061.037q.08.046.224.124c.191.1.465.233.802.366.67.264 1.61.535 2.655.535 1.046 0 1.985-.27 2.655-.535a8 8 0 0 0 1.026-.49l.061-.037.018-.01.005-.004.002-.001h.001a.5.5 0 0 0-.536-.845l-.01.007-.046.026a7 7 0 0 1-.888.424C9.69 13.77 8.88 14 8 14s-1.69-.23-2.289-.465a7 7 0 0 1-.887-.424l-.045-.027z"/></svg>