<svg xmlns="http://www.w3.org/2000/svg" xmlns:xlink="http://www.w3.org/1999/xlink" viewBox="0 0 24 24"><path d="M6.75 6.5A2.25 2.25 0 0 0 4.5 8.75v6.5a2.25 2.25 0 0 0 2.25 2.25h6.5a2.25 2.25 0 0 0 2.25-2.25v-.725l3.386 1.88A.75.75 0 0 0 20 15.75V8.255a.75.75 0 0 0-1.114-.656L15.5 9.477V8.75a2.25 2.25 0 0 0-2.25-2.25zm8.75 4.692 3-1.664v4.947l-3-1.666zM14 8.75v6.5a.75.75 0 0 1-.75.75h-6.5a.75.75 0 0 1-.75-.75v-6.5A.75.75 0 0 1 6.75 8h6.5a.75.75 0 0 1 .75.75M6.416 20.922h.002l.003.002.008.004.024.011.084.039q.106.048.303.126c.26.102.637.235 1.117.367.961.265 2.34.527 4.042.529a15.2 15.2 0 0 0 4.045-.525c.48-.133.857-.268 1.118-.37a7 7 0 0 0 .387-.167c.337-.162.544-.68.371-1.025a.75.75 0 0 0-1.006-.333l-.01.004-.054.025q-.076.036-.239.1a10 10 0 0 1-.967.32A13.7 13.7 0 0 1 12 20.5a14 14 0 0 1-3.646-.475 10 10 0 0 1-.968-.318 6 6 0 0 1-.294-.124l-.01-.005a.75.75 0 0 0-.667 1.344zm1.54-18.398c.962-.267 2.342-.53 4.045-.528s3.082.265 4.043.53c.48.134.857.267 1.117.37a7 7 0 0 1 .387.165l.025.012.008.004.002.001h.001s.597.35.337 1.007a.75.75 0 0 1-1.004.337h-.002l-.01-.005a6 6 0 0 0-.293-.125 10 10 0 0 0-.968-.32A13.8 13.8 0 0 0 12 3.497a13.6 13.6 0 0 0-3.642.473 10 10 0 0 0-.967.32 6 6 0 0 0-.293.126l-.01.005a.75.75 0 1 1-.675-1.34h.003l.002-.002.008-.004.025-.012.084-.039q.107-.049.303-.128c.26-.103.638-.238 1.119-.371zm-.87 1.896" fill="currentColor"/></svg>