<svg xmlns="http://www.w3.org/2000/svg" xmlns:xlink="http://www.w3.org/1999/xlink" viewBox="0 0 28 28"><path d="M26.001 7.353a2.75 2.75 0 0 0-3.459-2.657L4.046 9.629a2.75 2.75 0 0 0-2.042 2.657v3.427a2.75 2.75 0 0 0 2.042 2.657L7 19.158v.342a4.5 4.5 0 0 0 8.56 1.942l6.982 1.862a2.75 2.75 0 0 0 3.459-2.657zm-3.072-1.208A1.25 1.25 0 0 1 24.5 7.353v13.294a1.25 1.25 0 0 1-1.572 1.207L4.432 16.921a1.25 1.25 0 0 1-.928-1.208v-3.427c0-.566.381-1.062.928-1.207L22.93 6.144zm-8.857 14.9A3 3 0 0 1 8.5 19.559z" fill="currentColor"/></svg>