<svg xmlns="http://www.w3.org/2000/svg" xmlns:xlink="http://www.w3.org/1999/xlink" viewBox="0 0 20 20"><path d="M13 10q0 .406-.102.777L7.002 4.881A3 3 0 0 1 13 5zM7 7.708V10a3 3 0 0 0 4.738 2.445l1.07 1.07A4.5 4.5 0 0 1 5.5 10a.5.5 0 0 0-.999.001 5.5 5.5 0 0 0 5 5.478V17.5a.5.5 0 0 0 1 0v-2.022a5.5 5.5 0 0 0 3.02-1.251l3.626 3.627a.5.5 0 0 0 .708-.707l-15-15a.5.5 0 1 0-.708.707L7 7.707zm7.803 4.975A5.5 5.5 0 0 0 15.5 10a.5.5 0 0 0-1 0c0 .695-.157 1.353-.439 1.94l.742.742z" fill="currentColor"/></svg>