<svg xmlns="http://www.w3.org/2000/svg" viewBox="0 0 20 20"><path fill="currentColor" d="M4.5 10a.5.5 0 0 0-1 0 5.5 5.5 0 0 0 5 5.478V17.5a.5.5 0 0 0 1 0v-.706A5.5 5.5 0 0 1 9 14.5 4.5 4.5 0 0 1 4.5 10M12 5v4.6a5.5 5.5 0 0 0-2.79 3.393A3 3 0 0 1 6 10V5a3 3 0 0 1 6 0m-2 9.5a4.5 4.5 0 1 0 9 0 4.5 4.5 0 0 0-9 0m6.5-3a.5.5 0 0 1 .5.5v1.5a.5.5 0 0 1-.5.5H15a.5.5 0 0 1 0-1h.468a2 2 0 0 0-2.383.336.5.5 0 0 1-.706-.707A3 3 0 0 1 16 12.152V12a.5.5 0 0 1 .5-.5m-.876 5.532A3 3 0 0 1 13 16.848V17a.5.5 0 0 1-1 0v-1.5a.5.5 0 0 1 .5-.5H14a.5.5 0 0 1 0 1h-.468a2 2 0 0 0 2.383-.336.5.5 0 0 1 .706.707c-.284.285-.624.51-.997.66z"/></svg>