<svg xmlns="http://www.w3.org/2000/svg" viewBox="0 0 24 24"><path fill="currentColor" d="M19.25 18.5h2a.75.75 0 0 1 .102 1.493L21.25 20H20v1.25a.75.75 0 0 1-1.493.102l-.007-.102v-2a.75.75 0 0 1 .648-.743zh2zm-16.5 0h2a.75.75 0 0 1 .743.648l.007.102v2a.75.75 0 0 1-1.493.102L4 21.25V20H2.75a.75.75 0 0 1-.102-1.493zh2zm14-12.997a.75.75 0 0 1 .75.75V17.75a.75.75 0 0 1-.75.75H7.252a.75.75 0 0 1-.75-.75V6.253a.75.75 0 0 1 .75-.75h9.5zm-.75 1.5H8.002V17h8V7.003zm-6.25 5.511h2.502a.75.75 0 0 1 .102 1.493l-.102.007H9.75a.75.75 0 0 1-.102-1.493zh2.502zm0-3.014h4.502a.75.75 0 0 1 .102 1.493l-.102.007H9.75a.75.75 0 0 1-.102-1.493zh4.502zm-5-7.5a.75.75 0 0 1 .743.648l.007.102v2a.75.75 0 0 1-.648.743L4.75 5.5h-2a.75.75 0 0 1-.102-1.493L2.75 4H4V2.75A.75.75 0 0 1 4.75 2m14.5 0a.75.75 0 0 1 .743.648L20 2.75V4h1.25a.75.75 0 0 1 .102 1.493l-.102.007h-2a.75.75 0 0 1-.743-.648L18.5 4.75v-2a.75.75 0 0 1 .75-.75"/></svg>