<svg xmlns="http://www.w3.org/2000/svg" xmlns:xlink="http://www.w3.org/1999/xlink" viewBox="0 0 24 24"><path d="M6.25 2A2.25 2.25 0 0 0 4 4.25v15.5A2.25 2.25 0 0 0 6.25 22h7.5A2.25 2.25 0 0 0 16 19.771v-1.52a.75.75 0 0 0-.75-.75c-.454 0-.74-.123-.937-.282-.208-.167-.38-.425-.51-.789-.273-.755-.303-1.75-.303-2.68a.75.75 0 0 0-.202-.512l-.164-.177a3 3 0 0 0-.17-.173c-.074-.07-.3-.285-1.184-1.168-.468-.469-.728-.865-.813-1.168a.6.6 0 0 1-.015-.325.7.7 0 0 1 .204-.323.7.7 0 0 1 .322-.204.6.6 0 0 1 .324.016c.303.085.699.346 1.168.815.54.54 1.052 1.046 1.511 1.5.76.752 1.374 1.36 1.72 1.73a.75.75 0 0 0 1.098-1.023 55 55 0 0 0-1.3-1.314V8.06l2.842 2.842c.422.422.659.994.659 1.59v8.758a.75.75 0 0 0 1.5 0v-8.757a3.75 3.75 0 0 0-1.098-2.652L16 5.939v-1.69A2.25 2.25 0 0 0 13.75 2zm7.123 16.388a2.7 2.7 0 0 0 1.127.534V19h-.75a.75.75 0 0 0-.75.75v.75h-1.5v-.75c0-.893.52-1.665 1.275-2.028.16.244.357.472.598.666m-1.372-4.342c.002.253.008.526.023.81a3.5 3.5 0 1 1-1.55-6.324q-.2.134-.379.312c-.292.292-.499.63-.596 1.01-.098.38-.074.754.024 1.104.19.673.665 1.291 1.197 1.823A67 67 0 0 0 11.957 14l.004.003.036.039zM7 3.5h1.5v.75A2.25 2.25 0 0 1 6.25 6.5H5.5V5h.75A.75.75 0 0 0 7 4.25zm4.5 0H13v.75c0 .414.336.75.75.75h.75v1.5h-.75a2.25 2.25 0 0 1-2.25-2.25zm-3 17H7v-.75a.75.75 0 0 0-.75-.75H5.5v-1.5h.75a2.25 2.25 0 0 1 2.25 2.25z" fill="currentColor"/></svg>