<svg xmlns="http://www.w3.org/2000/svg" xmlns:xlink="http://www.w3.org/1999/xlink" viewBox="0 0 20 20"><path d="M16.13 5.38 7.038 8h9.46a.5.5 0 0 1 .5.5v7a2.5 2.5 0 0 1-2.5 2.5h-9A2.5 2.5 0 0 1 3 15.5V8.571l-.257-.893a2.5 2.5 0 0 1 1.71-3.095L13.1 2.09a2.5 2.5 0 0 1 3.095 1.71l.277.96a.5.5 0 0 1-.342.62M3.84 7.88l.607-.175L5.889 5.21l-1.16.335A1.5 1.5 0 0 0 3.703 7.4zm1.992-.574 2.12-.612 1.443-2.497-2.125.613-.021.042-1.416 2.455zm5.627-1.622 1.442-2.498-2.126.613-.026.053L9.34 6.296l2.12-.611zm2.684-2.652-.02.036-1.279 2.216 2.527-.728-.139-.48a1.5 1.5 0 0 0-1.09-1.044zM4 9v6.5A1.5 1.5 0 0 0 5.5 17h9a1.5 1.5 0 0 0 1.5-1.5V9z" fill="currentColor"/></svg>