<svg xmlns="http://www.w3.org/2000/svg" xmlns:xlink="http://www.w3.org/1999/xlink" viewBox="0 0 24 24"><path d="m10.05 15.42 6.256-8.476a.694.694 0 0 1 1.235.57l-.03.098-3.87 9.8a2.07 2.07 0 1 1-3.737-1.766l.069-.115.076-.11 6.257-8.477-6.257 8.476zm3.8-2.623-2.594 3.514-.04.063a.57.57 0 0 0 .223.775l.066.032a.57.57 0 0 0 .7-.238l.04-.083zm-1.75-1.926-1.226 1.66a3.32 3.32 0 0 0-2.29 3.024.75.75 0 0 1-1.5-.063A4.82 4.82 0 0 1 9.14 11.74a4.8 4.8 0 0 1 2.961-.87zm4.167 2.752c.28.586.436 1.22.463 1.866a.75.75 0 0 1-1.376.444zm-2.233-5.37-.969 1.311a6.22 6.22 0 0 0-4.736 1.02 6.2 6.2 0 0 0-2.419 3.39.75.75 0 0 1-1.442-.412 7.7 7.7 0 0 1 3-4.207 7.72 7.72 0 0 1 6.566-1.102m3.51 2.138q.377.401.702.865a7.7 7.7 0 0 1 1.097 2.288.75.75 0 0 1-1.44.417 6.2 6.2 0 0 0-.885-1.845l-.102-.138.627-1.587zM15.98 5.852l-.088.054q-.185.123-.337.295l-.096.12-.54.732a9.14 9.14 0 0 0-8.261 1.146A9.1 9.1 0 0 0 3.38 12.37a.75.75 0 1 1-1.398-.543A10.6 10.6 0 0 1 5.799 6.97 10.64 10.64 0 0 1 15.98 5.852m2.629 1.562a10.7 10.7 0 0 1 2.022 2.171c.49.702.892 1.451 1.199 2.235a.75.75 0 1 1-1.397.547 9.2 9.2 0 0 0-2.327-3.405l.381-.964c.076-.19.115-.388.122-.584" fill="currentColor"/></svg>