<svg xmlns="http://www.w3.org/2000/svg" viewBox="0 0 24 24"><path fill="currentColor" d="M6.5 12a5.5 5.5 0 1 1 0 11 5.5 5.5 0 0 1 0-11M16.749 2a2.25 2.25 0 0 1 2.25 2.25v15.5a2.25 2.25 0 0 1-2.25 2.25h-5.56a6.5 6.5 0 0 0 1.078-1.499l4.482-.001a.75.75 0 0 0 .75-.75V4.25a.75.75 0 0 0-.75-.75H6.25a.75.75 0 0 0-.75.75v6.826a6.5 6.5 0 0 0-1.5.422V4.25A2.25 2.25 0 0 1 6.25 2zM7.504 14.002H6.006a.5.5 0 0 0-.474.341l-1.006 2.998A.5.5 0 0 0 5 18h.802l-.777 2.34c-.186.561.586.924.899.422l2.497-3.997A.5.5 0 0 0 7.997 16h-.445l.428-1.346a.5.5 0 0 0-.476-.652m13.246 1a.75.75 0 0 1 .743.648l.007.102v1.498a.75.75 0 0 1-.648.743L20.75 18H20v-2.998zm0-4a.75.75 0 0 1 .743.648l.007.102v1.498a.75.75 0 0 1-.648.743L20.75 14H20v-2.998zm0-4a.75.75 0 0 1 .743.648l.007.102V9.25a.75.75 0 0 1-.648.743L20.75 10H20V7.002zM15.249 5a.75.75 0 0 1 .75.75v2.498a.75.75 0 0 1-.75.75H7.75a.75.75 0 0 1-.75-.75V5.75A.75.75 0 0 1 7.75 5zm-.75 1.5H8.5v.998h5.999z"/></svg>