<svg xmlns="http://www.w3.org/2000/svg" viewBox="0 0 24 24"><path fill="currentColor" d="M16.25 2a.75.75 0 0 1 .743.648L17 2.75l-.001.749h.75a2.25 2.25 0 0 1 2.25 2.25v5.587A3.5 3.5 0 0 0 16.05 17h-.278A2.77 2.77 0 0 0 13 19.772v.103c0 .741.215 1.483.668 2.13H5.753a2.25 2.25 0 0 1-2.25-2.25L3.502 5.75a2.25 2.25 0 0 1 2.25-2.25l.747-.001V2.75a.75.75 0 0 1 1.494-.102L8 2.75l-.001.749H11V2.75a.75.75 0 0 1 1.494-.102l.007.102-.001.749h2.998V2.75a.75.75 0 0 1 .75-.75zm-5.002 14H7.25l-.102.007a.75.75 0 0 0 0 1.486l.102.007h3.998l.102-.007a.75.75 0 0 0 0-1.486zm5-8H7.25l-.102.007a.75.75 0 0 0 0 1.486l.102.007h8.998l.102-.007a.75.75 0 0 0 0-1.486zM6.5 12.75c0 .414.336.75.75.75h6a.75.75 0 0 0 0-1.5h-6a.75.75 0 0 0-.75.75M21 14.5a2.5 2.5 0 1 1-5 0 2.5 2.5 0 0 1 5 0m2 5.375C23 21.431 21.714 23 18.5 23S14 21.437 14 19.875v-.103c0-.98.794-1.772 1.773-1.772h5.454c.98 0 1.773.793 1.773 1.772z"/></svg>