<svg xmlns="http://www.w3.org/2000/svg" viewBox="0 0 24 24"><path fill="currentColor" d="M5.754 22.005a2.25 2.25 0 0 1-2.25-2.25L3.502 5.75a2.25 2.25 0 0 1 2.25-2.25l.747-.001.001-.749a.75.75 0 0 1 .648-.743L7.25 2a.75.75 0 0 1 .743.648L8 2.75v.749h3V2.75a.75.75 0 0 1 .65-.743l.1-.007a.75.75 0 0 1 .744.648l.007.102v.749h2.997l.001-.749a.75.75 0 0 1 .648-.743L16.25 2a.75.75 0 0 1 .743.648L17 2.75v.749h.749a2.25 2.25 0 0 1 2.25 2.25l.001 11q0 .091-.02.176l-.03.094-.045.096-.02.032a.7.7 0 0 1-.105.133l-4.504 4.505a1 1 0 0 1-.085.073l.085-.073a1 1 0 0 1-.105.087l-.088.052-.116.047-.114.026-.053.006-.055.002zM17.748 5H5.742a.75.75 0 0 0-.74.75l.002 14.004c0 .415.336.75.75.75h8.24l.001-2.254a2.25 2.25 0 0 1 2.096-2.245l.154-.005H18.5V5.75a.75.75 0 0 0-.75-.75zm-.31 12.5h-1.193a.75.75 0 0 0-.743.648l-.007.102v1.194zM7.25 16h3.998a.75.75 0 0 1 .102 1.493l-.102.007H7.25a.75.75 0 0 1-.102-1.493zh3.998zm0-4h8.998a.75.75 0 0 1 .102 1.493l-.102.007H7.25a.75.75 0 0 1-.102-1.493zh8.998zm0-4h8.998a.75.75 0 0 1 .102 1.493l-.102.007H7.25a.75.75 0 0 1-.102-1.493zh8.998z"/></svg>