<svg xmlns="http://www.w3.org/2000/svg" xmlns:xlink="http://www.w3.org/1999/xlink" viewBox="0 0 24 24"><path d="m3.28 2.22 18.5 18.5a.75.75 0 0 1-1.06 1.06l-1.083-1.082a3.5 3.5 0 0 1-1.887.552H6.25a3.5 3.5 0 0 1-3.5-3.5V6.25c0-.695.203-1.343.552-1.887L2.22 3.28a.75.75 0 1 1 1.06-1.06M18.138 19.2 4.801 5.86a1.5 1.5 0 0 0-.051.389v11.5a1.5 1.5 0 0 0 1.5 1.5h11.5q.201-.001.388-.05zm-5.236-9.48 1.378 1.378q.095-.06.177-.14l4.793-4.794v4.086a1 1 0 0 0 2 0v-6.5a1 1 0 0 0-1-1h-6.5a1 1 0 0 0 0 2h4.086l-4.793 4.793a1 1 0 0 0-.141.177m8.335 8.335-1.987-1.987V13.75a1 1 0 1 1 2 0v4q0 .154-.014.305zM5.944 2.763 7.932 4.75h2.318a1 1 0 1 0 0-2h-4q-.154 0-.305.013z" fill="currentColor"/></svg>