<svg xmlns="http://www.w3.org/2000/svg" xmlns:xlink="http://www.w3.org/1999/xlink" viewBox="0 0 24 24"><path d="M8.75 13.5a3.25 3.25 0 0 1 3.163 2.498L21.25 16a.75.75 0 0 1 .102 1.493l-.102.007h-9.337a3.251 3.251 0 0 1-6.326 0H2.75a.75.75 0 0 1-.102-1.493L2.75 16h2.837a3.25 3.25 0 0 1 3.163-2.5m0 1.5a1.75 1.75 0 0 0-1.652 1.172l-.021.063-.039.148a1.76 1.76 0 0 0 .02.815l.04.13.025.069a1.75 1.75 0 0 0 3.28-.069l.04-.13-.018.06a1.75 1.75 0 0 0 .048-.815l-.03-.137-.02-.07-.047-.134A1.75 1.75 0 0 0 8.75 15m6.5-11a3.25 3.25 0 0 1 3.163 2.5h2.837a.75.75 0 0 1 .102 1.493L21.25 8h-2.837a3.251 3.251 0 0 1-6.326 0H2.75a.75.75 0 0 1-.102-1.493L2.75 6.5l9.337-.002A3.25 3.25 0 0 1 15.25 4m0 1.5a1.75 1.75 0 0 0-1.652 1.173l-.021.062-.038.148a1.76 1.76 0 0 0 .019.815l.04.13.025.069a1.75 1.75 0 0 0 3.28-.068l.04-.131-.018.06a1.75 1.75 0 0 0 .048-.815l-.03-.137-.02-.07-.047-.134A1.75 1.75 0 0 0 15.25 5.5" fill="currentColor"/></svg>