<svg xmlns="http://www.w3.org/2000/svg" xmlns:xlink="http://www.w3.org/1999/xlink" viewBox="0 0 20 20"><path d="m8.268 3.06 1.025 1.025-5.207 5.208L3.06 8.267a2.5 2.5 0 0 1 0-3.535L4.732 3.06a2.5 2.5 0 0 1 3.536 0m3.464 13.879-1.025-1.025 5.207-5.207 1.025 1.025a2.5 2.5 0 0 1 0 3.536l-1.671 1.671a2.5 2.5 0 0 1-3.536 0m-8.671-5.207a2.5 2.5 0 0 0 0 3.536l1.671 1.671a2.5 2.5 0 0 0 3.536 0l8.671-8.672a2.5 2.5 0 0 0 0-3.535L15.268 3.06a2.5 2.5 0 0 0-3.536 0zM10 8.5a.5.5 0 1 1 0-1 .5.5 0 0 1 0 1m0 2a.5.5 0 1 1 0-1 .5.5 0 0 1 0 1M8.5 10a.5.5 0 1 1-1 0 .5.5 0 0 1 1 0m3.5.5a.5.5 0 1 1 0-1 .5.5 0 0 1 0 1M10.5 12a.5.5 0 1 1-1 0 .5.5 0 0 1 1 0" fill="currentColor"/></svg>