<svg xmlns="http://www.w3.org/2000/svg" viewBox="0 0 24 24"><path fill="currentColor" d="m9.798 3.237 1.495 1.495-6.56 6.56-1.496-1.494a3.25 3.25 0 0 1 0-4.596l1.965-1.965a3.25 3.25 0 0 1 4.596 0m4.404 17.525-1.495-1.495 6.56-6.56 1.495 1.494a3.25 3.25 0 0 1 0 4.597l-1.964 1.964a3.25 3.25 0 0 1-4.596 0m-10.964-6.56a3.25 3.25 0 0 0 0 4.596l1.964 1.964a3.25 3.25 0 0 0 4.596 0L20.763 9.798a3.25 3.25 0 0 0 0-4.596l-1.965-1.965a3.25 3.25 0 0 0-4.596 0zM12.75 9a.75.75 0 1 1-1.5 0 .75.75 0 0 1 1.5 0M9 12.75a.75.75 0 1 1 0-1.5.75.75 0 0 1 0 1.5m3 0a.75.75 0 1 1 0-1.5.75.75 0 0 1 0 1.5m3.75-.75a.75.75 0 1 1-1.5 0 .75.75 0 0 1 1.5 0M12 15.75a.75.75 0 1 1 0-1.5.75.75 0 0 1 0 1.5"/></svg>