<svg xmlns="http://www.w3.org/2000/svg" xmlns:xlink="http://www.w3.org/1999/xlink" viewBox="0 0 20 20"><path d="M4.5 2A1.5 1.5 0 0 0 3 3.5v13A1.5 1.5 0 0 0 4.5 18h2A1.5 1.5 0 0 0 8 16.5v-13A1.5 1.5 0 0 0 6.5 2zm0 1h2a.5.5 0 0 1 .5.5v13a.5.5 0 0 1-.5.5h-2a.5.5 0 0 1-.5-.5v-13a.5.5 0 0 1 .5-.5m9-1A1.5 1.5 0 0 0 12 3.5v13a1.5 1.5 0 0 0 1.5 1.5h2a1.5 1.5 0 0 0 1.5-1.5v-13A1.5 1.5 0 0 0 15.5 2zm0 1h2a.5.5 0 0 1 .5.5v13a.5.5 0 0 1-.5.5h-2a.5.5 0 0 1-.5-.5v-13a.5.5 0 0 1 .5-.5" fill="currentColor"/></svg>