<svg xmlns="http://www.w3.org/2000/svg" xmlns:xlink="http://www.w3.org/1999/xlink" viewBox="0 0 20 20"><path d="M2 3.5A1.5 1.5 0 0 1 3.5 2h2A1.5 1.5 0 0 1 7 3.5v9A1.5 1.5 0 0 1 5.5 14h-2A1.5 1.5 0 0 1 2 12.5zm7 0A1.5 1.5 0 0 1 10.5 2h2A1.5 1.5 0 0 1 14 3.5v4.522a5.49 5.49 0 0 0-5 2.314zm2.065 6.942a2 2 0 0 1-1.43 2.478l-.461.118a4.7 4.7 0 0 0 .01 1.016l.35.083a2 2 0 0 1 1.455 2.519l-.126.423q.387.306.835.517l.325-.344a2 2 0 0 1 2.91.002l.337.358a4.3 4.3 0 0 0 .821-.498l-.156-.556a2 2 0 0 1 1.43-2.478l.461-.118a4.7 4.7 0 0 0-.01-1.017l-.349-.082a2 2 0 0 1-1.456-2.52l.126-.421a4.3 4.3 0 0 0-.834-.518l-.325.343a2 2 0 0 1-2.91-.001l-.337-.358a4.3 4.3 0 0 0-.822.497zM13.5 14.5a1 1 0 1 1 0-2 1 1 0 0 1 0 2" fill="currentColor"/></svg>