<svg xmlns="http://www.w3.org/2000/svg" viewBox="0 0 20 20"><path fill="currentColor" d="M3.5 2A1.5 1.5 0 0 0 2 3.5v9A1.5 1.5 0 0 0 3.5 14h2A1.5 1.5 0 0 0 7 12.5v-9A1.5 1.5 0 0 0 5.5 2zm0 1h2a.5.5 0 0 1 .5.5v9a.5.5 0 0 1-.5.5h-2a.5.5 0 0 1-.5-.5v-9a.5.5 0 0 1 .5-.5m7-1A1.5 1.5 0 0 0 9 3.5v6.837a5.5 5.5 0 0 1 1-1.08V3.5a.5.5 0 0 1 .5-.5h2a.5.5 0 0 1 .5.5v4.522a5.6 5.6 0 0 1 1 0V3.5A1.5 1.5 0 0 0 12.5 2zm.565 8.442a2 2 0 0 1-1.43 2.478l-.461.118a4.7 4.7 0 0 0 .01 1.016l.35.083a2 2 0 0 1 1.455 2.519l-.126.423q.387.306.835.517l.325-.344a2 2 0 0 1 2.91.002l.337.358a4.3 4.3 0 0 0 .821-.498l-.156-.556a2 2 0 0 1 1.43-2.478l.461-.118a4.7 4.7 0 0 0-.01-1.017l-.349-.082a2 2 0 0 1-1.456-2.52l.126-.421a4.3 4.3 0 0 0-.834-.518l-.325.343a2 2 0 0 1-2.91-.001l-.337-.358a4.3 4.3 0 0 0-.822.497zM13.5 14.5a1 1 0 1 1 0-2 1 1 0 0 1 0 2"/></svg>