<svg xmlns="http://www.w3.org/2000/svg" xmlns:xlink="http://www.w3.org/1999/xlink" viewBox="0 0 24 24"><path d="M13.5 13.001a1.5 1.5 0 0 1 1.493 1.356L15 14.5h-1.25a1.75 1.75 0 0 0-1.225 3c-.324.318-.525.76-.525 1.25s.201.932.525 1.25q-.143.141-.252.312c-1.18.5-2.564.688-3.773.688-2.722 0-6.335-.956-6.495-4.27L2 16.5v-2a1.5 1.5 0 0 1 1.356-1.493L3.5 13zM13 16.25a.75.75 0 0 1 .75-.75h7.5a.75.75 0 0 1 0 1.5h-7.5a.75.75 0 0 1-.75-.75m0 2.5a.75.75 0 0 1 .75-.75h7.5a.749.749 0 1 1 0 1.5h-7.5a.75.75 0 0 1-.75-.75m8.25-4.25c.268 0 .523.06.75.168V14.5l-.007-.145A1.5 1.5 0 0 0 20.5 13h-5.012l.113.162c.25.387.399.844.399 1.338zM8.5 2a4.5 4.5 0 1 1 0 9 4.5 4.5 0 0 1 0-9m9 2a3.5 3.5 0 1 1 0 7 3.5 3.5 0 0 1 0-7M13 21.25a.75.75 0 0 1 .75-.75h7.5a.75.75 0 0 1 0 1.5h-7.5a.75.75 0 0 1-.75-.75" fill="currentColor"/></svg>