<svg xmlns="http://www.w3.org/2000/svg" viewBox="0 0 24 24"><path fill="currentColor" d="M4 13.999h8.022a6.5 6.5 0 0 0-.708 1.5H4l-.1.01a.5.5 0 0 0-.254.136.5.5 0 0 0-.136.253l-.01.101V17.5c0 1.009.45 1.722 1.417 2.242.826.445 2.003.714 3.266.753l.317.005.317-.005c.99-.03 1.927-.202 2.683-.49.197.47.447.913.743 1.319C11.07 21.814 9.7 22 8.5 22c-2.722 0-6.335-.956-6.495-4.27L2 17.5v-1.501c0-1.054.816-1.918 1.85-1.995zM17.5 11c.719 0 1.41.117 2.057.332a3.5 3.5 0 1 0-4.114 0A6.5 6.5 0 0 1 17.5 11m0-4.5c1.103 0 2 .897 2 2s-.897 2-2 2-2-.897-2-2 .897-2 2-2M8.5 3a4.5 4.5 0 1 1 0 9 4.5 4.5 0 0 1 0-9m0 1.5c-1.654 0-3 1.346-3 3s1.346 3 3 3 3-1.346 3-3-1.346-3-3-3m14.5 13a5.5 5.5 0 1 1-11 0 5.5 5.5 0 0 1 11 0m-9.5 0c0 .834.255 1.608.691 2.248l5.557-5.557A4 4 0 0 0 13.5 17.5m4 4a4 4 0 0 0 3.309-6.248l-5.557 5.557a4 4 0 0 0 2.248.691"/></svg>