<svg xmlns="http://www.w3.org/2000/svg" viewBox="0 0 20 20"><path fill="currentColor" d="M11.46 10.053A2 2 0 0 0 11 10H4a2 2 0 0 0-2 2v1.5C2 15.554 4.088 17 7.5 17q.8 0 1.5-.103V15.89a9.6 9.6 0 0 1-1.5.11C4.579 16 3 14.907 3 13.5V12a1 1 0 0 1 1-1h7l.05.001c.07-.347.213-.669.41-.948M14.5 9a2.5 2.5 0 1 0 0-5 2.5 2.5 0 0 0 0 5M13 6.5a1.5 1.5 0 1 1 3 0 1.5 1.5 0 0 1-3 0m-2-1a3.5 3.5 0 1 0-7 0 3.5 3.5 0 0 0 7 0m-6 0a2.5 2.5 0 1 1 5 0 2.5 2.5 0 0 1-5 0m7 6v.5h-.5a1.5 1.5 0 0 0-1.5 1.5V15h2v-.5a.5.5 0 0 1 1 0v.5h3v-.5a.5.5 0 0 1 1 0v.5h2v-1.5a1.5 1.5 0 0 0-1.5-1.5H17v-.5a1.5 1.5 0 0 0-1.5-1.5h-2a1.5 1.5 0 0 0-1.5 1.5m1.5-.5h2a.5.5 0 0 1 .5.5v.5h-3v-.5a.5.5 0 0 1 .5-.5m5.5 5h-2v.5a.5.5 0 0 1-1 0V16h-3v.5a.5.5 0 0 1-1 0V16h-2v1.5a1.5 1.5 0 0 0 1.5 1.5h6a1.5 1.5 0 0 0 1.5-1.5z"/></svg>