<svg xmlns="http://www.w3.org/2000/svg" viewBox="0 0 24 24"><path fill="currentColor" d="M13 13c.931 0 1.715.637 1.937 1.5H13.75q-.258.001-.494.07a.5.5 0 0 0-.166-.062L13 14.5l-9-.001-.1.01a.5.5 0 0 0-.254.136.5.5 0 0 0-.136.253l-.01.101V16.5c0 1.009.45 1.722 1.417 2.242.826.445 2.003.714 3.266.753l.317.005.317-.005c1.222-.037 2.362-.29 3.183-.71.01.476.209.905.525 1.215q-.143.141-.252.312c-1.18.5-2.564.688-3.773.688-2.722 0-6.335-.956-6.495-4.27L2 16.5v-1.501c0-1.054.816-1.918 1.85-1.995L4 13zm2.949 1.5a2.96 2.96 0 0 0-.595-1.34L15.22 13H20c.986 0 1.806.715 1.97 1.655-.22-.1-.463-.155-.72-.155zm5.301 1a.75.75 0 0 1 0 1.5h-7.5a.75.75 0 0 1 0-1.5zm0 2.5a.749.749 0 1 1 0 1.5h-7.5a.75.75 0 0 1 0-1.5zM8.5 2a4.5 4.5 0 1 1 0 9 4.5 4.5 0 0 1 0-9m0 1.5c-1.654 0-3 1.346-3 3s1.346 3 3 3 3-1.346 3-3-1.346-3-3-3m9 .5a3.5 3.5 0 1 1 0 7 3.5 3.5 0 0 1 0-7m0 1.5c-1.103 0-2 .897-2 2s.897 2 2 2 2-.897 2-2-.897-2-2-2M13 21.25a.75.75 0 0 1 .75-.75h7.5a.75.75 0 0 1 0 1.5h-7.5a.75.75 0 0 1-.75-.75"/></svg>