<svg xmlns="http://www.w3.org/2000/svg" xmlns:xlink="http://www.w3.org/1999/xlink" viewBox="0 0 24 24"><path d="M13.5 12.501a1.5 1.5 0 0 1 1.493 1.356L15 14v1h-1.5a2.5 2.5 0 0 0-2.5 2.5v3.221A11 11 0 0 1 8.5 21c-2.722 0-6.335-.956-6.495-4.27L2 16.5V14a1.5 1.5 0 0 1 1.356-1.493L3.5 12.5zm8 2.499q.257 0 .5.05V14l-.007-.145A1.5 1.5 0 0 0 20.5 12.5h-5.012l.113.162c.25.387.399.844.399 1.338v1zM8.5 2a4.5 4.5 0 1 1 0 9 4.5 4.5 0 0 1 0-9m9 2a3.5 3.5 0 1 1 0 7 3.5 3.5 0 0 1 0-7M12 17.5a1.5 1.5 0 0 1 1.5-1.5h8a1.5 1.5 0 0 1 1.5 1.5v4a1.5 1.5 0 0 1-1.5 1.5h-8a1.5 1.5 0 0 1-1.5-1.5zm10 .5a1 1 0 0 1-1-1h-1a2 2 0 0 0 2 2zm0 2a2 2 0 0 0-2 2h1a1 1 0 0 1 1-1zm-8-3a1 1 0 0 1-1 1v1a2 2 0 0 0 2-2zm1 5a2 2 0 0 0-2-2v1a1 1 0 0 1 1 1zm4.25-2.5a1.75 1.75 0 1 0-3.5 0 1.75 1.75 0 0 0 3.5 0" fill="currentColor"/></svg>