<svg xmlns="http://www.w3.org/2000/svg" xmlns:xlink="http://www.w3.org/1999/xlink" viewBox="0 0 20 20"><path d="M12.475 8.014a1 1 0 0 1 .993.884l.007.116v.081a5.502 5.502 0 0 0-3.957 7.74 3.485 3.485 0 0 1-3.007-3.262l-.005-.191V9.014a1 1 0 0 1 .883-.993l.117-.007zM14.5 9c1.325 0 2.541.469 3.49 1.25V9.014l-.006-.116a1 1 0 0 0-.993-.884h-2.784c.146.253.24.543.262.851l.005.135zm-8.726-.986a2 2 0 0 0-.26.82l-.008.18v4.368l.005.21c.03.643.195 1.25.467 1.795a2.856 2.856 0 0 1-3.957-2.466l-.004-.168V9.014a1 1 0 0 1 .883-.993l.117-.007zm4.214-5.025a2.227 2.227 0 1 1 0 4.455 2.227 2.227 0 0 1 0-4.455m4.988.628a1.913 1.913 0 1 1 0 3.827 1.913 1.913 0 0 1 0-3.827m-9.96 0a1.913 1.913 0 1 1 0 3.827 1.913 1.913 0 0 1 0-3.827M19 14.5a4.5 4.5 0 1 1-9 0 4.5 4.5 0 0 1 9 0m-4-2a.5.5 0 0 0-1 0V14h-1.5a.5.5 0 0 0 0 1H14v1.5a.5.5 0 0 0 1 0V15h1.5a.5.5 0 0 0 0-1H15z" fill="currentColor"/></svg>