<svg xmlns="http://www.w3.org/2000/svg" viewBox="0 0 28 28"><path fill="currentColor" d="M18.081 13.399A4.5 4.5 0 0 0 18.5 11.5c0-.526-.09-1.03-.256-1.5h6.006c.966 0 1.75.784 1.75 1.75v2.002l-.008.108a3.3 3.3 0 0 1-.38 1.152A7.47 7.47 0 0 0 20.5 13c-.846 0-1.66.14-2.419.399m-4.656 9.596c-2.812-.13-4.52-1.141-4.91-3.098L8.5 19.75v-2c0-.966.784-1.75 1.75-1.75h4.25a7.47 7.47 0 0 0-1.5 4.5c0 .875.15 1.714.425 2.495M9.756 10H3.75A1.75 1.75 0 0 0 2 11.75v2l.014.147c.42 2.101 2.36 3.112 5.553 3.112H7.6A2.75 2.75 0 0 1 10.25 15h.922l-.176-.15A4.5 4.5 0 0 1 9.5 11.5c0-.526.09-1.03.256-1.5m7.744 1.5a3.5 3.5 0 1 0-7 0 3.5 3.5 0 0 0 7 0m6.5-6a3.5 3.5 0 1 0-7 0 3.5 3.5 0 0 0 7 0m-13 0a3.5 3.5 0 1 0-7 0 3.5 3.5 0 0 0 7 0M20.5 27a6.5 6.5 0 1 0 0-13 6.5 6.5 0 0 0 0 13m0-11a.5.5 0 0 1 .5.5V20h3.5a.5.5 0 0 1 0 1H21v3.5a.5.5 0 0 1-1 0V21h-3.5a.5.5 0 0 1 0-1H20v-3.5a.5.5 0 0 1 .5-.5"/></svg>