<svg xmlns="http://www.w3.org/2000/svg" xmlns:xlink="http://www.w3.org/1999/xlink" viewBox="0 0 20 20"><path d="M11 10q.155 0 .305.023A5.5 5.5 0 0 0 9 14.5c0 .824.181 1.607.506 2.308A10 10 0 0 1 7.5 17C4.088 17 2 15.554 2 13.5V12a2 2 0 0 1 2-2zm6-3.5a2.5 2.5 0 1 1-5 0 2.5 2.5 0 0 1 5 0M7.5 2a3.5 3.5 0 1 1 0 7 3.5 3.5 0 0 1 0-7m4.566 9.442a2 2 0 0 1-1.43 2.478l-.462.118a4.7 4.7 0 0 0 .01 1.016l.35.083a2 2 0 0 1 1.456 2.519l-.127.422q.388.307.835.518l.325-.344a2 2 0 0 1 2.91.002l.337.358q.44-.203.822-.498l-.156-.556a2 2 0 0 1 1.43-2.479l.46-.117a4.7 4.7 0 0 0-.01-1.017l-.348-.082a2 2 0 0 1-1.456-2.52l.126-.421a4.3 4.3 0 0 0-.835-.519l-.325.344a2 2 0 0 1-2.91-.001l-.337-.358a4.3 4.3 0 0 0-.822.497zM14.5 15.5a1 1 0 1 1 0-2 1 1 0 0 1 0 2" fill="currentColor"/></svg>