<svg xmlns="http://www.w3.org/2000/svg" xmlns:xlink="http://www.w3.org/1999/xlink" viewBox="0 0 32 32"><path d="M16 12a4 4 0 1 0 0-8 4 4 0 0 0 0 8m0-2a2 2 0 1 1 0-4 2 2 0 0 1 0 4m-9 2a3 3 0 1 0 0-6 3 3 0 0 0 0 6m0-2a1 1 0 1 1 0-2 1 1 0 0 1 0 2m21-1a3 3 0 1 1-6 0 3 3 0 0 1 6 0m-2 0a1 1 0 1 0-2 0 1 1 0 0 0 2 0m-15.028 5.252c.28-.16.605-.252.951-.252h8.154a1.9 1.9 0 0 1 1.075.328c.512.346.848.931.848 1.595V22a6 6 0 0 1-12 0v-6.077c0-.716.391-1.34.972-1.671M12 22a4 4 0 0 0 8 0v-6h-8zm-3.5-6.077c0-.713.218-1.375.59-1.923H4a2 2 0 0 0-2 2v5a5 5 0 0 0 7.327 4.427 7.5 7.5 0 0 1-.676-1.922A3 3 0 0 1 4 21v-5h4.5zM25 26a5 5 0 0 1-2.327-.573 7.5 7.5 0 0 0 .676-1.922A3 3 0 0 0 28 21v-5h-4.5v-.077c0-.713-.218-1.375-.59-1.923H28a2 2 0 0 1 2 2v5a5 5 0 0 1-5 5" fill="currentColor"/></svg>