<svg xmlns="http://www.w3.org/2000/svg" xmlns:xlink="http://www.w3.org/1999/xlink" viewBox="0 0 20 20"><path d="M11 10a2 2 0 0 1 1.805 1.136l-.807.807A1 1 0 0 0 11 11H4a1 1 0 0 0-1 1v1.5C3 14.907 4.579 16 7.5 16c.654 0 1.24-.055 1.758-.156l-.203.81q-.03.121-.044.242-.704.103-1.511.104C4.088 17 2 15.554 2 13.5V12a2 2 0 0 1 2-2zm4.807-.452a1.87 1.87 0 1 1 2.645 2.645l-4.83 4.829a2.2 2.2 0 0 1-1.02.578l-1.498.374a.89.89 0 0 1-1.078-1.078l.374-1.498c.097-.386.296-.74.578-1.02l4.83-4.83zM14.5 9A2.5 2.5 0 0 0 17 6.5 2.5 2.5 0 1 0 14.5 9m0-4a1.5 1.5 0 1 1 0 3 1.5 1.5 0 0 1 0-3m-7-3a3.5 3.5 0 1 1 0 7 3.5 3.5 0 0 1 0-7m0 1a2.5 2.5 0 1 0 0 5 2.5 2.5 0 0 0 0-5" fill="currentColor"/></svg>