<svg xmlns="http://www.w3.org/2000/svg" viewBox="0 0 16 16"><path fill="currentColor" d="M8.496 8q.265.001.502.086A1.5 1.5 0 0 0 8.085 9H3.5a.5.5 0 0 0-.5.5v.775C3 11.42 3.928 12 6.06 12c.832 0 1.473-.087 1.94-.263v1.04Q7.182 13 6.06 13C3.446 13 2 12.097 2 10.275V9.5A1.5 1.5 0 0 1 3.5 8zM6 2a2.5 2.5 0 1 1 0 5 2.5 2.5 0 0 1 0-5m0 1a1.5 1.5 0 1 0 0 3 1.5 1.5 0 0 0 0-3m5 0a2 2 0 1 1 0 4 2 2 0 0 1 0-4m0 1a1 1 0 1 0 0 2 1 1 0 0 0 0-2M9.5 9a.5.5 0 0 0 0 1h5a.5.5 0 0 0 0-1zm0 2a.5.5 0 0 0 0 1h5a.5.5 0 0 0 0-1zm0 2a.5.5 0 0 0 0 1h5a.5.5 0 0 0 0-1z"/></svg>