<svg xmlns="http://www.w3.org/2000/svg" viewBox="0 0 16 16"><path fill="currentColor" d="M8.496 8a1.5 1.5 0 0 1 1.5 1.5l-.001.748c.103 1.837-1.312 2.753-3.935 2.753C3.446 13 2 12.097 2 10.275V9.5A1.5 1.5 0 0 1 3.5 8zm0 1H3.5a.5.5 0 0 0-.5.5v.775C3 11.42 3.928 12 6.06 12c2.124 0 3-.567 2.936-1.725V9.5a.5.5 0 0 0-.5-.5m3.217 3.415-.514-.171-.082-.023a.76.76 0 0 0-.8.333l-.467.686-.046.075a.88.88 0 0 0 .144 1.028l.31.311.08.073c.3.254.702.338 1.075.222q1.442-.45 2.651-2.67 1.21-2.224.855-3.774c-.1-.435-.41-.781-.814-.91l-.407-.13-.077-.02a.784.784 0 0 0-.877.48l-.325.768-.031.085a.88.88 0 0 0 .226.887l.717.681-.025.174q-.091.521-.386 1.029-.344.591-.86.982zm.1-1.02.007-.01-.02.005zm-.38-2.911q-.079.253-.083.516h-.917a2 2 0 0 0-.615-1h1.809l-.139.326-.048.133zM6 2a2.5 2.5 0 1 1 0 5 2.5 2.5 0 0 1 0-5m0 1a1.5 1.5 0 1 0 0 3 1.5 1.5 0 0 0 0-3m5 0a2 2 0 1 1 0 4 2 2 0 0 1 0-4m0 1a1 1 0 1 0 0 2 1 1 0 0 0 0-2"/></svg>