<svg xmlns="http://www.w3.org/2000/svg" viewBox="0 0 24 24"><path fill="currentColor" d="M13 12.501a2 2 0 0 1 1.995 1.85l.005.15V15h-1.5v-.499a.5.5 0 0 0-.41-.492l-.09-.008L4 14l-.1.01a.5.5 0 0 0-.254.136.5.5 0 0 0-.136.253l-.01.101v2c0 1.009.45 1.722 1.417 2.242.826.445 2.003.714 3.266.753l.317.005.317-.005A9 9 0 0 0 11 19.171v1.55A11 11 0 0 1 8.5 21c-2.722 0-6.335-.956-6.495-4.27L2 16.5v-2c0-1.054.816-1.918 1.85-1.995L4 12.5zM21.5 15q.257 0 .5.05v-.549l-.006-.15A2 2 0 0 0 20 12.502h-4.78l.134.16c.301.383.511.839.595 1.34H20l.09.008c.232.042.41.247.41.492V15zM8.5 2a4.5 4.5 0 1 1 0 9 4.5 4.5 0 0 1 0-9m0 1.5c-1.654 0-3 1.346-3 3s1.346 3 3 3 3-1.346 3-3-1.346-3-3-3m9 .5a3.5 3.5 0 1 1 0 7 3.5 3.5 0 0 1 0-7m0 1.5c-1.103 0-2 .897-2 2s.897 2 2 2 2-.897 2-2-.897-2-2-2m-5.5 12a1.5 1.5 0 0 1 1.5-1.5h8a1.5 1.5 0 0 1 1.5 1.5v4a1.5 1.5 0 0 1-1.5 1.5h-8a1.5 1.5 0 0 1-1.5-1.5zm10 .5a1 1 0 0 1-1-1h-1a2 2 0 0 0 2 2zm0 2a2 2 0 0 0-2 2h1a1 1 0 0 1 1-1zm-8-3a1 1 0 0 1-1 1v1a2 2 0 0 0 2-2zm1 5a2 2 0 0 0-2-2v1a1 1 0 0 1 1 1zm4.25-2.5a1.75 1.75 0 1 0-3.5 0 1.75 1.75 0 0 0 3.5 0"/></svg>