<svg xmlns="http://www.w3.org/2000/svg" viewBox="0 0 24 24"><path fill="currentColor" d="m3.5 14 10 .001a1.5 1.5 0 0 1 1.493 1.356L15 15.5v2C14.999 21 11.284 22 8.5 22c-2.722 0-6.335-.956-6.495-4.27L2 17.5v-2a1.5 1.5 0 0 1 1.356-1.493zm11.988 0H20.5a1.5 1.5 0 0 1 1.493 1.355L22 15.5V17c-.001 3.062-2.858 4-5 4a7.2 7.2 0 0 1-2.14-.322c.653-.75 1.076-1.703 1.133-2.898L16 17.5v-2c0-.494-.15-.951-.399-1.338zH20.5zM8.5 3a4.5 4.5 0 1 1 0 9 4.5 4.5 0 0 1 0-9m9 2a3.5 3.5 0 1 1 0 7 3.5 3.5 0 0 1 0-7"/></svg>