<svg xmlns="http://www.w3.org/2000/svg" viewBox="0 0 28 28"><path fill="currentColor" d="M15 15.001q.186 0 .364.033A7.48 7.48 0 0 0 13 20.5c0 1.306.334 2.534.92 3.603-1.375.644-3.002.897-4.42.897-3.149 0-7.329-1.248-7.495-5.252L2 19.5V17c0-1.054.816-1.918 1.85-1.995L4 15zM25 8.5a4.5 4.5 0 1 1-9 0 4.5 4.5 0 0 1 9 0M9.5 2a5.5 5.5 0 1 1-.001 11.001A5.5 5.5 0 0 1 9.5 2M27 20.5a6.5 6.5 0 1 1-13 0 6.5 6.5 0 0 1 13 0m-6-4a.5.5 0 0 0-1 0V20h-3.5a.5.5 0 0 0 0 1H20v3.5a.5.5 0 0 0 1 0V21h3.5a.5.5 0 0 0 0-1H21z"/></svg>