<svg xmlns="http://www.w3.org/2000/svg" xmlns:xlink="http://www.w3.org/1999/xlink" viewBox="0 0 20 20"><path d="M11 10a2 2 0 0 1 2 2v1.5c0 2.054-2.088 3.5-5.5 3.5S2 15.554 2 13.5V12a2 2 0 0 1 2-2zm3.446 4.614q-.301-.063-.594-.033.116-.402.141-.842L14 13.5V12c0-.692-.234-1.33-.628-1.837L13.235 10h2.05l-.381.9-.056.151-.007.025a2.07 2.07 0 0 0 .544 2.108l.48.455a3 3 0 0 1-.28.627 3.2 3.2 0 0 1-.424.575l-.533-.178-.154-.042zM7.5 2a3.5 3.5 0 1 1 0 7 3.5 3.5 0 0 1 0-7m7 2a2.5 2.5 0 1 1 0 5 2.5 2.5 0 0 1 0-5m1.335 7.265.399-.941c.187-.442.635-.682 1.075-.59l.094.024.5.16c.496.159.875.583.998 1.116q.437 1.9-1.049 4.628-1.483 2.724-3.251 3.275c-.458.143-.95.04-1.32-.271l-.097-.09-.38-.381a1.08 1.08 0 0 1-.176-1.262l.056-.092.572-.84a.95.95 0 0 1 .982-.409l.1.027 1.057.353q.632-.479 1.054-1.205.363-.622.473-1.261l.03-.214-.879-.835a1.07 1.07 0 0 1-.276-1.088z" fill="currentColor"/></svg>