<svg xmlns="http://www.w3.org/2000/svg" xmlns:xlink="http://www.w3.org/1999/xlink" viewBox="0 0 20 20"><path d="M11 10a2 2 0 0 1 2 2v1.5c0 2.054-2.088 3.5-5.5 3.5S2 15.554 2 13.5V12a2 2 0 0 1 2-2zm-7 1a1 1 0 0 0-1 1v1.5C3 14.907 4.579 16 7.5 16s4.5-1.093 4.5-2.5V12a1 1 0 0 0-1-1zm11.162 3.84-.076-.025.133-.038zm-.258-3.942-.037.101h-1.038a3 3 0 0 0-.594-1h2.05l-.381.9zM7.5 2a3.5 3.5 0 1 1 0 7 3.5 3.5 0 0 1 0-7m0 1a2.5 2.5 0 1 0 0 5 2.5 2.5 0 0 0 0-5m7 1a2.5 2.5 0 1 1 0 5 2.5 2.5 0 0 1 0-5m0 1a1.5 1.5 0 1 0 0 3 1.5 1.5 0 0 0 0-3m1.335 6.265.399-.941c.187-.442.635-.682 1.075-.59l.094.024.5.16c.496.159.875.583.998 1.116q.437 1.9-1.049 4.628-1.483 2.724-3.251 3.275c-.458.143-.95.04-1.32-.271l-.097-.09-.38-.381a1.08 1.08 0 0 1-.176-1.262l.056-.092.572-.84a.95.95 0 0 1 .982-.409l.1.027 1.057.353q.632-.479 1.054-1.205.363-.622.473-1.261l.03-.214-.879-.835a1.07 1.07 0 0 1-.276-1.088z" fill="currentColor"/></svg>