<svg xmlns="http://www.w3.org/2000/svg" viewBox="0 0 32 32"><path fill="currentColor" d="M20 8a4 4 0 1 1-8 0 4 4 0 0 1 8 0M7 12a3 3 0 1 0 0-6 3 3 0 0 0 0 6m18 0a3 3 0 1 0 0-6 3 3 0 0 0 0 6m-14.778 3.025A1.92 1.92 0 0 1 11.923 14h8.154A1.923 1.923 0 0 1 22 15.923V22a6.003 6.003 0 0 1-11.846 1.355A6 6 0 0 1 10 22v-6.077c0-.324.08-.63.222-.898m-1.722.898q.002-.482.126-.923H4a1 1 0 0 0-1 1v5a4 4 0 0 0 5.929 3.505A7.5 7.5 0 0 1 8.5 22zM23.5 22a7.5 7.5 0 0 1-.429 2.505A4 4 0 0 0 29 21v-5a1 1 0 0 0-1-1h-4.626q.125.442.126.923z"/></svg>