<svg xmlns="http://www.w3.org/2000/svg" viewBox="0 0 16 16"><path fill="currentColor" d="M8.496 8q.27.001.51.089a1.5 1.5 0 0 0-.544.343l-2.029 2a1.5 1.5 0 0 0 0 2.136l.409.403a10 10 0 0 1-.782.03C3.446 13 2 12.097 2 10.275V9.5A1.5 1.5 0 0 1 3.5 8zM6 2a2.5 2.5 0 1 1 0 5 2.5 2.5 0 0 1 0-5m5 1a2 2 0 1 1 0 4 2 2 0 0 1 0-4m-4 8.503a.5.5 0 0 0 .147.354l2.003 1.997a.5.5 0 0 0 .706-.708L8.71 12.002h4.584l-1.146 1.144a.5.5 0 1 0 .706.708l2-1.996a.5.5 0 0 0 0-.708l-2-1.999a.5.5 0 0 0-.707.707l1.145 1.144H8.71L9.856 9.86a.5.5 0 0 0-.706-.708L7.147 11.15a.5.5 0 0 0-.147.354z"/></svg>