<svg xmlns="http://www.w3.org/2000/svg" viewBox="0 0 24 24"><path fill="currentColor" d="M17.5 12a5.5 5.5 0 1 1 0 11 5.5 5.5 0 0 1 0-11m-3.246-2c.835 0 1.563.454 1.951 1.13A6.502 6.502 0 0 0 12.023 21l-.02-.001a4.5 4.5 0 0 1-4.501-4.501V12.25A2.25 2.25 0 0 1 9.752 10zm.839 4.966-.07.058-.057.07a.5.5 0 0 0 0 .568l.058.07 1.77 1.769-1.768 1.766-.057.07a.5.5 0 0 0 0 .568l.057.07.07.057a.5.5 0 0 0 .568 0l.07-.057 1.766-1.767 1.77 1.769.069.058a.5.5 0 0 0 .568 0l.07-.058.057-.07a.5.5 0 0 0 0-.568l-.057-.07-1.77-1.768 1.772-1.77.058-.069a.5.5 0 0 0 0-.569l-.058-.069-.069-.058a.5.5 0 0 0-.569 0l-.069.058-1.772 1.77-1.77-1.77-.068-.058a.5.5 0 0 0-.493-.043zM7.406 10a3.24 3.24 0 0 0-.897 2.034l-.007.216v4.249c0 .847.191 1.649.533 2.365A4 4 0 0 1 2 14.999V12.25a2.25 2.25 0 0 1 2.096-2.245L4.25 10zm12.344 0A2.25 2.25 0 0 1 22 12.25v.56A6.48 6.48 0 0 0 17.5 11l-.243.005A3.3 3.3 0 0 0 16.599 10zM18.5 4a2.5 2.5 0 1 1 0 5 2.5 2.5 0 0 1 0-5M12 3a3 3 0 1 1 0 6 3 3 0 0 1 0-6M5.5 4a2.5 2.5 0 1 1 0 5 2.5 2.5 0 0 1 0-5"/></svg>