<svg xmlns="http://www.w3.org/2000/svg" xmlns:xlink="http://www.w3.org/1999/xlink" viewBox="0 0 20 20"><path d="M6.5 7.5a2.25 2.25 0 1 0 0-4.5 2.25 2.25 0 0 0 0 4.5m0-1a1.25 1.25 0 1 1 0-2.5 1.25 1.25 0 0 1 0 2.5M3 9a1 1 0 0 1 1-1h5a1 1 0 0 1 1 1v4.5a3.5 3.5 0 1 1-7 0zm1 0v4.5a2.5 2.5 0 0 0 5 0V9zm5.626-2.857a3.2 3.2 0 0 1-.396.87c.413.048.787.22 1.084.48a2.25 2.25 0 1 0-1.127-4.07c.193.282.342.597.439.934a1.25 1.25 0 1 1 0 1.787zm-.127 10.712A3.5 3.5 0 0 0 14 13.5V9a1 1 0 0 0-1-1h-2.267c.17.294.268.636.268 1h2v4.5a2.5 2.5 0 0 1-2.75 2.488q-.321.481-.75.867zm4.127-10.712a3.2 3.2 0 0 1-.396.87c.413.048.787.22 1.084.48a2.25 2.25 0 1 0-1.127-4.07c.193.282.342.597.439.934a1.25 1.25 0 1 1 0 1.787zm-.127 10.712A3.5 3.5 0 0 0 18 13.5V9a1 1 0 0 0-1-1h-2.267c.17.294.268.636.268 1h2v4.5a2.5 2.5 0 0 1-2.75 2.488q-.321.481-.75.867z" fill="currentColor"/></svg>