<svg xmlns="http://www.w3.org/2000/svg" viewBox="0 0 16 16"><path fill="currentColor" d="M9.43 6.24a2 2 0 1 1 3.296-.23A3 3 0 0 0 12.5 6H11a1 1 0 1 0 0-2 1 1 0 0 0 0 2h-.5a2.5 2.5 0 0 0-1.07.24M6 13c-2.577-.013-4-.917-4-2.725V9.5A1.5 1.5 0 0 1 3.5 8h4.55l-.008.042A2.5 2.5 0 0 0 6.5 9h-3a.5.5 0 0 0-.5.5v.775C3 11.41 3.91 11.99 6 12zm2.5-8.5a2.5 2.5 0 1 0-5 0 2.5 2.5 0 0 0 5 0m-4 0a1.5 1.5 0 1 1 3 0 1.5 1.5 0 0 1-3 0m4.5 4V9h-.5A1.5 1.5 0 0 0 7 10.5V12h2v-.5a.5.5 0 0 1 1 0v.5h3v-.5a.5.5 0 0 1 1 0v.5h2v-1.5A1.5 1.5 0 0 0 14.5 9H14v-.5A1.5 1.5 0 0 0 12.5 7h-2A1.5 1.5 0 0 0 9 8.5m1.5-.5h2a.5.5 0 0 1 .5.5V9h-3v-.5a.5.5 0 0 1 .5-.5m5.5 5h-2v.5a.5.5 0 0 1-1 0V13h-3v.5a.5.5 0 0 1-1 0V13H7v1.5A1.5 1.5 0 0 0 8.5 16h6a1.5 1.5 0 0 0 1.5-1.5z"/></svg>