<svg xmlns="http://www.w3.org/2000/svg" xmlns:xlink="http://www.w3.org/1999/xlink" viewBox="0 0 24 25"><path d="M13 14.5q.375.002.707.129a2.5 2.5 0 0 0-1.499 1.37H4l-.1.01a.5.5 0 0 0-.254.136.5.5 0 0 0-.136.253l-.01.101V18c0 1.009.45 1.722 1.417 2.242.826.445 2.003.714 3.266.753L8.5 21l.317-.005c1.222-.037 2.361-.29 3.183-.71v1.635c-1.117.42-2.383.58-3.5.58-2.722 0-6.335-.956-6.495-4.27L2 18v-1.501a2 2 0 0 1 1.85-1.994l.15-.006zm.3 1.6c.273-.364.71-.6 1.2-.6h.5v-1a2.5 2.5 0 1 1 5 0v1h.542A1.5 1.5 0 0 1 22 17v5a1.5 1.5 0 0 1-1.5 1.5h-6A1.5 1.5 0 0 1 13 22v-5c0-.338.111-.65.3-.9m3.327 3.888a1 1 0 0 0 .873.512 1 1 0 1 0-.873-.512M16.5 14.5v1h2v-1a1 1 0 1 0-2 0M21 9c0 1.116-.522 2.11-1.335 2.75A3.5 3.5 0 0 0 17.5 11c1.103 0 2-.897 2-2s-.897-2-2-2-2 .897-2 2 .897 2 2 2c-.817 0-1.57.28-2.165.75A3.5 3.5 0 1 1 21 9M8.5 3.5a4.5 4.5 0 1 1 0 9 4.5 4.5 0 0 1 0-9m0 1.5c-1.654 0-3 1.346-3 3s1.346 3 3 3 3-1.346 3-3-1.346-3-3-3" fill="currentColor"/></svg>