<svg xmlns="http://www.w3.org/2000/svg" xmlns:xlink="http://www.w3.org/1999/xlink" viewBox="0 0 20 20"><path d="M11 10a2 2 0 0 1 1.694.936c-.125.33-.194.69-.194 1.064v.063a2 2 0 0 0-.5.205V12a1 1 0 0 0-1-1H4a1 1 0 0 0-1 1v1.5C3 14.907 4.579 16 7.5 16c1.563 0 2.742-.313 3.5-.82v1.137c-.904.436-2.089.683-3.5.683C4.088 17 2 15.554 2 13.5V12a2 2 0 0 1 2-2zm1 4a1 1 0 0 1 1-1h.5v-1a1.998 1.998 0 0 1 3.543-1.272c.286.345.457.789.457 1.272v1h.5a1 1 0 0 1 1 1v4a1 1 0 0 1-1 1h-5a1 1 0 0 1-1-1zm4.07 1.512a.75.75 0 0 0-.57-.262.75.75 0 1 0 .57.262M15.5 11a1 1 0 0 0-1 1v1h2v-1a1 1 0 0 0-1-1m-2.25-.984.015-.017h-.03zM7.5 2a3.5 3.5 0 1 1 0 7 3.5 3.5 0 0 1 0-7m0 1a2.5 2.5 0 1 0 0 5 2.5 2.5 0 0 0 0-5m7 1a2.5 2.5 0 1 1 0 5 2.5 2.5 0 0 1 0-5m0 1a1.5 1.5 0 1 0 0 3 1.5 1.5 0 0 0 0-3" fill="currentColor"/></svg>