<svg xmlns="http://www.w3.org/2000/svg" viewBox="0 0 20 20"><path fill="currentColor" d="M11 5.5a3.5 3.5 0 1 0-7 0 3.5 3.5 0 0 0 7 0M14.5 9A2.5 2.5 0 0 0 17 6.5 2.5 2.5 0 1 0 14.5 9m-3.522 5.377 4.83-4.83a1.87 1.87 0 1 1 2.644 2.646l-4.83 4.829a2.2 2.2 0 0 1-1.02.578l-1.498.374a.89.89 0 0 1-1.078-1.078l.374-1.498c.097-.386.296-.74.578-1.02zM11 10a2 2 0 0 1 1.805 1.136L10.27 13.67a3.2 3.2 0 0 0-.841 1.485l-.375 1.498q-.03.123-.044.243-.705.103-1.511.104C4.088 17 2 15.554 2 13.5V12a2 2 0 0 1 2-2z"/></svg>