<svg xmlns="http://www.w3.org/2000/svg" viewBox="0 0 16 16"><path fill="currentColor" d="M9.535 6.361a2 2 0 1 1 3.121-.24 5.5 5.5 0 0 0-3.121.24M12 5a1 1 0 1 0-2 0 1 1 0 0 0 2 0m-5.793 8H6.06C3.446 13 2 12.098 2 10.276V9.5A1.5 1.5 0 0 1 3.5 8h3.757A5.5 5.5 0 0 0 6.6 9H3.5a.5.5 0 0 0-.5.5v.775c0 1.139.917 1.719 3.022 1.726q.047.515.185.999M8.5 4.5a2.5 2.5 0 1 0-5 0 2.5 2.5 0 0 0 5 0m-4 0a1.5 1.5 0 1 1 3 0 1.5 1.5 0 0 1-3 0m2.5 7a4.5 4.5 0 1 0 9 0 4.5 4.5 0 0 0-9 0m6.5-3a.5.5 0 0 1 .5.5v1.5a.5.5 0 0 1-.5.5H12a.5.5 0 0 1 0-1h.468a2 2 0 0 0-.933-.25 2 2 0 0 0-1.45.586.5.5 0 0 1-.706-.707A3 3 0 0 1 13 9.152V9a.5.5 0 0 1 .5-.5m-.876 5.532A3 3 0 0 1 10 13.848V14a.5.5 0 0 1-1 0v-1.5a.5.5 0 0 1 .5-.5H11a.5.5 0 0 1 0 1h-.468a2 2 0 0 0 2.383-.336.5.5 0 0 1 .706.707c-.285.285-.624.51-.997.66z"/></svg>