<svg xmlns="http://www.w3.org/2000/svg" xmlns:xlink="http://www.w3.org/1999/xlink" viewBox="0 0 16 16"><path d="M8.496 8a1.5 1.5 0 0 1 1.5 1.5l-.001.748c.103 1.837-1.312 2.753-3.935 2.753C3.446 13 2 12.097 2 10.275V9.5A1.5 1.5 0 0 1 3.5 8zm3.217 4.415-.514-.171-.082-.023a.76.76 0 0 0-.8.333l-.467.686-.046.075a.88.88 0 0 0 .144 1.028l.31.311.08.073c.3.254.702.338 1.075.222q1.442-.45 2.651-2.67 1.21-2.224.855-3.774c-.1-.435-.41-.781-.814-.91l-.407-.13-.077-.02a.784.784 0 0 0-.877.48l-.325.768-.031.085a.88.88 0 0 0 .226.887l.717.681-.025.174q-.091.521-.386 1.029-.344.591-.86.982zM10.5 10.437q0 .468-.114.865a1.75 1.75 0 0 1 .938-.059l.028.006.136.037.324.108a2.5 2.5 0 0 0 .417-.714l-.305-.29a1.88 1.88 0 0 1-.493-1.906l.008-.025.048-.133.139-.326H9.818c.416.366.678.902.678 1.5l-.002.72zM6 2a2.5 2.5 0 1 1 0 5 2.5 2.5 0 0 1 0-5m5 1a2 2 0 1 1 0 4 2 2 0 0 1 0-4" fill="currentColor"/></svg>