<svg xmlns="http://www.w3.org/2000/svg" xmlns:xlink="http://www.w3.org/1999/xlink" viewBox="0 0 21 20"><path d="M9.166 5.25a2.25 2.25 0 1 1-4.5 0 2.25 2.25 0 0 1 4.5 0M4.416 8a1 1 0 0 0-1 1v4.5a3.5 3.5 0 1 0 7 0V9a1 1 0 0 0-1-1zm5.75-2.75c0 .65-.19 1.255-.52 1.763.413.048.787.22 1.084.48a2.25 2.25 0 1 0-1.127-4.07c.355.52.563 1.15.563 1.827m-.25 11.605a4.5 4.5 0 0 0 1.5-3.355V9a2 2 0 0 0-.268-1h2.268a1 1 0 0 1 1 1v4.5a3.5 3.5 0 0 1-4.5 3.355m4.25-11.605c0 .65-.19 1.255-.52 1.763.413.048.787.22 1.084.48a2.25 2.25 0 1 0-1.127-4.07c.355.52.563 1.15.563 1.827m-.25 11.605a4.5 4.5 0 0 0 1.5-3.355V9a2 2 0 0 0-.268-1h2.268a1 1 0 0 1 1 1v4.5a3.5 3.5 0 0 1-4.5 3.355" fill="currentColor"/></svg>