<svg xmlns="http://www.w3.org/2000/svg" xmlns:xlink="http://www.w3.org/1999/xlink" viewBox="0 0 20 20"><path d="M11 10a2 2 0 0 1 2 2h-.5a1.5 1.5 0 0 0-1.5 1.5v2.817c-.904.436-2.089.683-3.5.683C4.088 17 2 15.554 2 13.5V12a2 2 0 0 1 2-2zm6.5 2q.264.001.5.085V12a2 2 0 0 0-2-2h-2.765l.137.163c.394.508.628 1.145.628 1.837zM7.5 2a3.5 3.5 0 1 1 0 7 3.5 3.5 0 0 1 0-7m7 2a2.5 2.5 0 1 1 0 5 2.5 2.5 0 0 1 0-5m-2 9a.5.5 0 0 0 0 1h5a.5.5 0 0 0 0-1zm0 2a.5.5 0 0 0 0 1h5a.5.5 0 0 0 0-1zm0 2a.5.5 0 0 0 0 1h5a.5.5 0 0 0 0-1z" fill="currentColor"/></svg>