<svg xmlns="http://www.w3.org/2000/svg" xmlns:xlink="http://www.w3.org/1999/xlink" viewBox="0 0 24 24"><path d="M14.75 15c.966 0 1.75.784 1.75 1.75l-.001.962c.117 2.19-1.511 3.297-4.432 3.297-2.91 0-4.567-1.09-4.567-3.259v-1c0-.966.784-1.75 1.75-1.75zm-11-5h4.376a4.01 4.01 0 0 0 1.067 3.85l.162.151L9.25 14a2.75 2.75 0 0 0-2.649 2.008l-.034.001C3.657 16.009 2 14.919 2 12.75v-1c0-.966.784-1.75 1.75-1.75m16.5 0c.966 0 1.75.784 1.75 1.75l-.001.962c.117 2.19-1.511 3.297-4.432 3.297l-.169-.002a2.76 2.76 0 0 0-2.451-2L14.75 14l-.105.001a3.99 3.99 0 0 0 1.229-4zM12 8a3 3 0 1 1 0 6 3 3 0 0 1 0-6M6.5 3a3 3 0 1 1 0 6 3 3 0 0 1 0-6m11 0a3 3 0 1 1 0 6 3 3 0 0 1 0-6" fill="currentColor"/></svg>