<svg xmlns="http://www.w3.org/2000/svg" xmlns:xlink="http://www.w3.org/1999/xlink" viewBox="0 0 20 20"><path d="M11.46 10.053A2 2 0 0 0 11 10H4a2 2 0 0 0-2 2v1.5C2 15.554 4.088 17 7.5 17q.8 0 1.5-.103V13.5a2.5 2.5 0 0 1 2.042-2.458c.067-.363.213-.699.419-.989zM14.5 9a2.5 2.5 0 1 0 0-5 2.5 2.5 0 0 0 0 5M11 5.5a3.5 3.5 0 1 0-7 0 3.5 3.5 0 0 0 7 0m1 6v.5h-.5a1.5 1.5 0 0 0-1.5 1.5V15h2v-.5a.5.5 0 0 1 1 0v.5h3v-.5a.5.5 0 0 1 1 0v.5h2v-1.5a1.5 1.5 0 0 0-1.5-1.5H17v-.5a1.5 1.5 0 0 0-1.5-1.5h-2a1.5 1.5 0 0 0-1.5 1.5m1.5-.5h2a.5.5 0 0 1 .5.5v.5h-3v-.5a.5.5 0 0 1 .5-.5m5.5 5h-2v.5a.5.5 0 0 1-1 0V16h-3v.5a.5.5 0 0 1-1 0V16h-2v1.5a1.5 1.5 0 0 0 1.5 1.5h6a1.5 1.5 0 0 0 1.5-1.5z" fill="currentColor"/></svg>