<svg xmlns="http://www.w3.org/2000/svg" xmlns:xlink="http://www.w3.org/1999/xlink" viewBox="0 0 16 16"><path d="M6 2a2.5 2.5 0 1 1 0 5 2.5 2.5 0 0 1 0-5m3.535 4.361a2 2 0 1 1 3.121-.24 5.5 5.5 0 0 0-3.121.24M6.207 13H6.06C3.446 13 2 12.098 2 10.276V9.5A1.5 1.5 0 0 1 3.5 8h3.757A5.48 5.48 0 0 0 6 11.5a5.5 5.5 0 0 0 .207 1.5M16 11.5a4.5 4.5 0 1 1-9 0 4.5 4.5 0 0 1 9 0M11.5 9a.5.5 0 0 0-.5.5v2a.5.5 0 0 0 1 0v-2a.5.5 0 0 0-.5-.5m0 5.125a.625.625 0 1 0 0-1.25.625.625 0 0 0 0 1.25" fill="currentColor"/></svg>