<svg xmlns="http://www.w3.org/2000/svg" viewBox="0 0 20 20"><path fill="currentColor" d="M12.475 8.014a1 1 0 0 1 .993.884l.006.102a2.5 2.5 0 0 0-1 .22v-.206H7.507v4.368c0 1.02.615 1.896 1.494 2.279v1.062a3.49 3.49 0 0 1-2.489-3.15l-.005-.191V9.014a1 1 0 0 1 .883-.993l.117-.007zM15.5 9q.135 0 .269.014h1.222v.48a2.5 2.5 0 0 1 .967 1.548l.033.006V9.014l-.007-.116a1 1 0 0 0-.993-.884h-2.784c.146.253.24.543.262.851l.005.135zm-9.726-.986a2 2 0 0 0-.26.82l-.008.18h-2.49v3.74a1.856 1.856 0 0 0 2.618 1.693q.121.495.344.94a2.856 2.856 0 0 1-3.957-2.466l-.004-.168V9.014a1 1 0 0 1 .883-.993l.117-.007zm4.214-5.025a2.227 2.227 0 1 1 0 4.455 2.227 2.227 0 0 1 0-4.455m0 1a1.227 1.227 0 1 0 0 2.455 1.227 1.227 0 0 0 0-2.455m4.988-.372a1.913 1.913 0 1 1 0 3.827 1.913 1.913 0 0 1 0-3.827m0 1a.913.913 0 1 0 0 1.827.913.913 0 0 0 0-1.827m-9.96-1a1.913 1.913 0 1 1 0 3.827 1.913 1.913 0 0 1 0-3.827m0 1a.913.913 0 1 0 0 1.827.913.913 0 0 0 0-1.827M12 12v-.5a1.5 1.5 0 0 1 1.5-1.5h2a1.5 1.5 0 0 1 1.5 1.5v.5h.5a1.5 1.5 0 0 1 1.5 1.5V15h-2v-.5a.5.5 0 0 0-1 0v.5h-3v-.5a.5.5 0 0 0-1 0v.5h-2v-1.5a1.5 1.5 0 0 1 1.5-1.5zm1-.5v.5h3v-.5a.5.5 0 0 0-.5-.5h-2a.5.5 0 0 0-.5.5m4 4.5h2v1.5a1.5 1.5 0 0 1-1.5 1.5h-6a1.5 1.5 0 0 1-1.5-1.5V16h2v.5a.5.5 0 1 0 1 0V16h3v.5a.5.5 0 1 0 1 0z"/></svg>