<svg xmlns="http://www.w3.org/2000/svg" xmlns:xlink="http://www.w3.org/1999/xlink" viewBox="0 0 16 16"><path d="M8.5 4.5a2.5 2.5 0 1 0-5 0 2.5 2.5 0 0 0 5 0m-4 0a1.5 1.5 0 1 1 3 0 1.5 1.5 0 0 1-3 0M9 5c0 .526.203 1.004.535 1.361a5.5 5.5 0 0 1 3.121-.24A2 2 0 1 0 9 5m2-1a1 1 0 1 1 0 2 1 1 0 0 1 0-2m-4.94 9h.147a5.5 5.5 0 0 1-.185-1C3.917 11.995 3 11.415 3 10.276V9.5a.5.5 0 0 1 .5-.5h3.1q.276-.538.657-1H3.5A1.5 1.5 0 0 0 2 9.5v.775C2 12.097 3.446 13 6.06 13M16 11.5a4.5 4.5 0 1 1-9 0 4.5 4.5 0 0 1 9 0M11.5 9a.5.5 0 0 0-.5.5v2a.5.5 0 0 0 1 0v-2a.5.5 0 0 0-.5-.5m0 5.125a.625.625 0 1 0 0-1.25.625.625 0 0 0 0 1.25" fill="currentColor"/></svg>