<svg xmlns="http://www.w3.org/2000/svg" xmlns:xlink="http://www.w3.org/1999/xlink" viewBox="0 0 16 16"><path d="M3 3a2 2 0 1 1 4 0 2 2 0 0 1-4 0m2-1a1 1 0 1 0 0 2 1 1 0 0 0 0-2m4.779 2.584a2 2 0 1 1 2.442-3.168A2 2 0 0 1 9.78 4.584zM11 2a1 1 0 1 0 0 2 1 1 0 0 0 0-2M2.5 6h2.67c-.11.313-.17.65-.17 1H2.5a.5.5 0 0 0-.5.5c0 .817.325 1.423.838 1.835.236.19.519.343.839.455a2.5 2.5 0 0 0-.532.868 3.7 3.7 0 0 1-.933-.543C1.46 9.51 1 8.616 1 7.5A1.5 1.5 0 0 1 2.5 6m3.768 0a2 2 0 1 0 3.466 2 2 2 0 0 0-3.466-2m1.508.025A1.003 1.003 0 0 1 9 7a1 1 0 1 1-1.224-.975m5.386 3.31c-.236.19-.519.343-.839.455a2.5 2.5 0 0 1 .531.868c.34-.139.655-.32.934-.543C14.54 9.51 15 8.616 15 7.5A1.5 1.5 0 0 0 13.5 6h-2.67c.11.313.17.65.17 1h2.5a.5.5 0 0 1 .5.5c0 .817-.325 1.423-.838 1.835M10.5 10a1.5 1.5 0 0 1 1.5 1.5c0 1.116-.459 2.01-1.212 2.615C10.047 14.71 9.053 15 8 15s-2.047-.29-2.788-.885C4.46 13.51 4 12.616 4 11.5A1.496 1.496 0 0 1 5.5 10zm0 1h-5a.5.5 0 0 0-.5.5c0 .817.325 1.423.838 1.835C6.364 13.757 7.12 14 8 14s1.636-.243 2.162-.665c.513-.412.838-1.018.838-1.835a.5.5 0 0 0-.5-.5" fill="currentColor"/></svg>