<svg xmlns="http://www.w3.org/2000/svg" viewBox="0 0 28 28"><path fill="currentColor" d="M15.364 15.034a2 2 0 0 0-.364-.033L4 15l-.15.005A2 2 0 0 0 2 17v2.5l.005.248C2.171 23.752 6.351 25 9.5 25c1.418 0 3.045-.253 4.42-.897A7.5 7.5 0 0 1 13 20.5a7.48 7.48 0 0 1 2.364-5.466M20.5 13a4.5 4.5 0 1 0 0-9 4.5 4.5 0 0 0 0 9M15 7.5a5.5 5.5 0 1 0-11.001.001A5.5 5.5 0 0 0 15 7.5m.355 11.694a2 2 0 0 0 1.441-2.496l-.334-1.159a6.2 6.2 0 0 1 1.751-1.09l.85.894a2 2 0 0 0 2.899 0l.843-.886c.644.265 1.235.64 1.753 1.1l-.324 1.098a2 2 0 0 0 1.45 2.51l.977.236a6.8 6.8 0 0 1 .008 2.152l-1.026.253a2 2 0 0 0-1.44 2.496l.334 1.16a6.2 6.2 0 0 1-1.751 1.09l-.85-.894a2 2 0 0 0-2.9 0l-.842.885a6.2 6.2 0 0 1-1.753-1.1l.324-1.098a2 2 0 0 0-1.45-2.51l-.976-.235a6.8 6.8 0 0 1-.008-2.152zM22 20.5a1.5 1.5 0 1 0-3 0 1.5 1.5 0 0 0 3 0"/></svg>