<svg xmlns="http://www.w3.org/2000/svg" viewBox="0 0 20 20"><path fill="currentColor" d="M11 10a2 2 0 0 1 2 2h-2a2 2 0 0 0-2 2v2.897q-.7.102-1.5.103C4.088 17 2 15.554 2 13.5V12a2 2 0 0 1 2-2zm2.372.163c.394.508.628 1.145.628 1.837h4a2 2 0 0 0-2-2h-2.765zM7.5 2a3.5 3.5 0 1 1 0 7 3.5 3.5 0 0 1 0-7m7 2a2.5 2.5 0 1 1 0 5 2.5 2.5 0 0 1 0-5M19 14.5v3a1.5 1.5 0 0 1-1.5 1.5h-6a1.5 1.5 0 0 1-1.5-1.5v-3a1.5 1.5 0 0 1 1.5-1.5h6a1.5 1.5 0 0 1 1.5 1.5M17.5 18a.5.5 0 0 1 .5-.5v-1a1.5 1.5 0 0 0-1.5 1.5zm.5-3.5a.5.5 0 0 1-.5-.5h-1a1.5 1.5 0 0 0 1.5 1.5zm-6.5-.5a.5.5 0 0 1-.5.5v1a1.5 1.5 0 0 0 1.5-1.5zm-.5 3.5a.5.5 0 0 1 .5.5h1a1.5 1.5 0 0 0-1.5-1.5zm3.5-3a1.5 1.5 0 1 0 0 3 1.5 1.5 0 0 0 0-3"/></svg>