<svg xmlns="http://www.w3.org/2000/svg" viewBox="0 0 24 24"><path fill="currentColor" d="M12.81 13H4a2 2 0 0 0-2 2v1.5l.005.23C2.165 20.044 5.778 21 8.5 21c1.03 0 2.189-.137 3.239-.487a6.4 6.4 0 0 1-.537-1.403 8.8 8.8 0 0 1-2.385.385L8.5 19.5l-.317-.005c-1.263-.039-2.44-.308-3.266-.753C3.95 18.222 3.5 17.509 3.5 16.5v-1.501l.01-.101a.5.5 0 0 1 .136-.253.5.5 0 0 1 .253-.136l.101-.01h7.732A6.5 6.5 0 0 1 12.809 13zM13 6.5a4.5 4.5 0 1 0-9 0 4.5 4.5 0 0 0 9 0m-7.5 0c0-1.654 1.346-3 3-3s3 1.346 3 3-1.346 3-3 3-3-1.346-3-3m15.5 1a3.5 3.5 0 1 0-7 0 3.5 3.5 0 0 0 7 0m-5.5 0c0-1.103.897-2 2-2s2 .897 2 2-.897 2-2 2-2-.897-2-2m.563 5.401-.5-.524a5.3 5.3 0 0 0-1.482.912l.198.686a2 2 0 0 1-1.441 2.497l-.584.144a5.7 5.7 0 0 0 .006 1.807l.54.13a2 2 0 0 1 1.45 2.51l-.187.632c.44.386.94.699 1.484.921l.494-.518a2 2 0 0 1 2.899 0l.498.525a5.3 5.3 0 0 0 1.483-.913l-.198-.686a2 2 0 0 1 1.442-2.496l.583-.144a5.7 5.7 0 0 0-.006-1.808l-.54-.13a2 2 0 0 1-1.45-2.51l.187-.63a5.3 5.3 0 0 0-1.484-.923l-.493.519a2 2 0 0 1-2.9 0zM16.05 17.5c0-.829.65-1.5 1.45-1.5s1.45.671 1.45 1.5c0 .828-.65 1.5-1.45 1.5s-1.45-.672-1.45-1.5"/></svg>