<svg xmlns="http://www.w3.org/2000/svg" xmlns:xlink="http://www.w3.org/1999/xlink" viewBox="0 0 20 20"><path d="M13 12a2 2 0 0 0-2-2H4a2 2 0 0 0-2 2v1.5C2 15.554 4.088 17 7.5 17q.689 0 1.302-.076l-.363-.363a1.5 1.5 0 0 1-.359-.576Q7.8 16 7.5 16C4.579 16 3 14.907 3 13.5V12a1 1 0 0 1 1-1h7a1 1 0 0 1 1 1v.085a1.5 1.5 0 0 1 1 1.414zm5 .5q0 .639-.193 1.185l-.829-.828A3 3 0 0 0 17 12.5V12a1 1 0 0 0-1-1h-2.171a3 3 0 0 0-.594-1H16a2 2 0 0 1 2 2zm-7-7a3.5 3.5 0 1 0-7 0 3.5 3.5 0 0 0 7 0m-6 0a2.5 2.5 0 1 1 5 0 2.5 2.5 0 0 1-5 0m12 1a2.5 2.5 0 1 0-5 0 2.5 2.5 0 0 0 5 0m-4 0a1.5 1.5 0 1 1 3 0 1.5 1.5 0 0 1-3 0m-1.854 11.354a.5.5 0 0 0 .708-.708L10.707 16h5.586l-1.147 1.146a.5.5 0 0 0 .708.708l2-2a.5.5 0 0 0 0-.708l-2-2a.5.5 0 0 0-.708.708L16.293 15h-5.586l1.147-1.146a.5.5 0 0 0-.708-.708l-2 2a.5.5 0 0 0 0 .708zM11.243 15h1.325z" fill="currentColor"/></svg>