<svg xmlns="http://www.w3.org/2000/svg" xmlns:xlink="http://www.w3.org/1999/xlink" viewBox="0 0 20 20"><path d="M12.475 8.014a1 1 0 0 1 .993.884l.006.102a2.5 2.5 0 0 0-2.432 2.042A2.5 2.5 0 0 0 9 13.5v3.223a3.49 3.49 0 0 1-2.489-3.15l-.005-.191V9.014a1 1 0 0 1 .883-.993l.117-.007zm5.483 3.028.033.006V9.014l-.007-.116a1 1 0 0 0-.993-.884h-2.784c.146.253.24.543.262.851l.005.135H15.5a2.5 2.5 0 0 1 2.458 2.042M5.774 8.014a2 2 0 0 0-.26.82l-.008.18v4.368l.005.21c.03.643.195 1.25.467 1.795a2.856 2.856 0 0 1-3.957-2.466l-.004-.168V9.014a1 1 0 0 1 .883-.993l.117-.007zm4.214-5.025a2.227 2.227 0 1 1 0 4.455 2.227 2.227 0 0 1 0-4.455m4.988.628a1.913 1.913 0 1 1 0 3.827 1.913 1.913 0 0 1 0-3.827m-9.96 0a1.913 1.913 0 1 1 0 3.827 1.913 1.913 0 0 1 0-3.827M12 12v-.5a1.5 1.5 0 0 1 1.5-1.5h2a1.5 1.5 0 0 1 1.5 1.5v.5h.5a1.5 1.5 0 0 1 1.5 1.5V15h-2v-.5a.5.5 0 0 0-1 0v.5h-3v-.5a.5.5 0 0 0-1 0v.5h-2v-1.5a1.5 1.5 0 0 1 1.5-1.5zm1-.5v.5h3v-.5a.5.5 0 0 0-.5-.5h-2a.5.5 0 0 0-.5.5m4 4.5h2v1.5a1.5 1.5 0 0 1-1.5 1.5h-6a1.5 1.5 0 0 1-1.5-1.5V16h2v.5a.5.5 0 1 0 1 0V16h3v.5a.5.5 0 1 0 1 0z" fill="currentColor"/></svg>