<svg xmlns="http://www.w3.org/2000/svg" xmlns:xlink="http://www.w3.org/1999/xlink" viewBox="0 0 20 20"><path d="M13 12a2 2 0 0 0-2-2H4a2 2 0 0 0-2 2v1.5C2 15.554 4.088 17 7.5 17q.689 0 1.302-.076l-.363-.363a1.5 1.5 0 0 1 0-2.122l2-2A1.5 1.5 0 0 1 13 13.5zm4.807 1.685Q18 13.139 18 12.5V12a2 2 0 0 0-2-2h-2.765l.137.163c.394.508.628 1.145.628 1.837v1.5a1.5 1.5 0 0 1 2.56-1.06zM11 5.5a3.5 3.5 0 1 0-7 0 3.5 3.5 0 0 0 7 0m6 1a2.5 2.5 0 1 0-5 0 2.5 2.5 0 0 0 5 0m-5.854 11.354a.5.5 0 0 0 .708-.708L10.707 16h5.586l-1.147 1.146a.5.5 0 0 0 .708.708l2-2a.5.5 0 0 0 0-.708l-2-2a.5.5 0 0 0-.708.708L16.293 15h-5.586l1.147-1.146a.5.5 0 0 0-.708-.708l-2 2a.5.5 0 0 0 0 .708zM10.707 15h1.86z" fill="currentColor"/></svg>