<svg xmlns="http://www.w3.org/2000/svg" xmlns:xlink="http://www.w3.org/1999/xlink" viewBox="0 0 28 28"><path d="M16.944 17.527A2 2 0 0 0 15 16H4l-.15.006A2 2 0 0 0 2 18v2.5l.005.248C2.171 24.752 6.351 26 9.5 26c1.35 0 2.888-.23 4.219-.806l-1.206-1.207a1.75 1.75 0 0 1 0-2.474l3.5-3.5c.263-.264.59-.426.93-.486zm1.04 3.465.503-.505a1.75 1.75 0 0 0-.507-2.828 3 3 0 0 0-.634-1.509l-.126-.149L24 16a2 2 0 0 1 1.994 1.85L26 18v2.025l-2.013-2.012a1.75 1.75 0 1 0-2.474 2.474l.512.513h-4.042zm-.01 3.508H18v.025l-.025-.025zM15 8.5a5.5 5.5 0 1 0-11.001.001A5.5 5.5 0 0 0 15 8.5m10 1a4.5 4.5 0 1 0-9 0 4.5 4.5 0 0 0 9 0m-7.22 10.28a.75.75 0 1 0-1.06-1.06l-3.5 3.5a.75.75 0 0 0 0 1.06l3.5 3.5a.75.75 0 1 0 1.06-1.06l-2.22-2.22h8.88l-2.22 2.22a.75.75 0 1 0 1.06 1.06l3.5-3.5a.75.75 0 0 0 0-1.06l-3.5-3.5a.75.75 0 1 0-1.06 1.06L24.44 22h-8.88z" fill="currentColor"/></svg>