<svg xmlns="http://www.w3.org/2000/svg" xmlns:xlink="http://www.w3.org/1999/xlink" viewBox="0 0 20 20"><path d="M11 10q.155 0 .305.023a5.6 5.6 0 0 0-1.048.977H4a1 1 0 0 0-1 1v1.5C3 14.907 4.579 16 7.5 16a9.4 9.4 0 0 0 1.67-.139q.126.494.336.947A10 10 0 0 1 7.5 17C4.088 17 2 15.554 2 13.5V12a2 2 0 0 1 2-2zm6-3.5a2.5 2.5 0 1 1-5 0 2.5 2.5 0 0 1 5 0M14.5 5a1.5 1.5 0 1 0 0 3 1.5 1.5 0 0 0 0-3m-7-3a3.5 3.5 0 1 1 0 7 3.5 3.5 0 0 1 0-7m0 1a2.5 2.5 0 1 0 0 5 2.5 2.5 0 0 0 0-5M19 14.5a4.5 4.5 0 1 1-9 0 4.5 4.5 0 0 1 9 0m-4-2a.5.5 0 0 0-1 0V14h-1.5a.5.5 0 0 0 0 1H14v1.5a.5.5 0 0 0 1 0V15h1.5a.5.5 0 0 0 0-1H15z" fill="currentColor"/></svg>