<svg xmlns="http://www.w3.org/2000/svg" xmlns:xlink="http://www.w3.org/1999/xlink" viewBox="0 0 20 20"><path d="M11.305 10.023A2 2 0 0 0 11 10H4a2 2 0 0 0-2 2v1.5C2 15.554 4.088 17 7.5 17a10 10 0 0 0 2.006-.192A5.5 5.5 0 0 1 9 14.5c0-1.846.91-3.48 2.305-4.477M14.5 9a2.5 2.5 0 1 0 0-5 2.5 2.5 0 0 0 0 5M11 5.5a3.5 3.5 0 1 0-7 0 3.5 3.5 0 0 0 7 0m8 9a4.5 4.5 0 1 1-9 0 4.5 4.5 0 0 1 9 0m-2.146-1.854a.5.5 0 0 0-.708 0L13.5 15.293l-.646-.647a.5.5 0 0 0-.708.708l1 1a.5.5 0 0 0 .708 0l3-3a.5.5 0 0 0 0-.708" fill="currentColor"/></svg>