<svg xmlns="http://www.w3.org/2000/svg" viewBox="0 0 20 20"><path fill="currentColor" d="M12.475 8.014a1 1 0 0 1 .993.884l.007.116v4.368a3.484 3.484 0 0 1-6.964.19l-.005-.19V9.014a1 1 0 0 1 .883-.993l.117-.007zm-6.701 0a2 2 0 0 0-.26.82l-.008.18v4.368l.005.21c.03.643.195 1.25.467 1.795a2.856 2.856 0 0 1-3.957-2.466l-.004-.168V9.014a1 1 0 0 1 .883-.993l.117-.007zm8.433 0h2.784a1 1 0 0 1 .993.884l.007.116v3.74a2.855 2.855 0 0 1-3.984 2.624 4.5 4.5 0 0 0 .46-1.73l.008-.266V9.014l-.006-.149a2 2 0 0 0-.262-.851M9.988 2.989a2.227 2.227 0 1 1 0 4.455 2.227 2.227 0 0 1 0-4.455m4.988.628a1.913 1.913 0 1 1 0 3.827 1.913 1.913 0 0 1 0-3.827m-9.96 0a1.913 1.913 0 1 1 0 3.827 1.913 1.913 0 0 1 0-3.827"/></svg>