<svg xmlns="http://www.w3.org/2000/svg" viewBox="0 0 32 32"><path fill="currentColor" d="M16.992 16a3 3 0 0 1 3 3l-.002 1.497c.206 3.673-2.623 5.505-7.87 5.505-5.229 0-8.12-1.808-8.12-5.453V19a3 3 0 0 1 3-3zm8 0a3 3 0 0 1 3 3v1.053c.18 3.295-2.32 4.947-6.889 4.947q-.93 0-1.748-.09a4.9 4.9 0 0 0 1.29-1.915l.458.005c3.569 0 4.995-.943 4.89-2.892V19a1 1 0 0 0-1-1h-4.127a4 4 0 0 0-1.23-2zm-8 2H7a1 1 0 0 0-1 1v1.55c0 2.291 1.856 3.452 6.12 3.452 4.248 0 6-1.135 5.872-3.45V19a1 1 0 0 0-1-1M12 4a5 5 0 1 1 0 10.002A5 5 0 0 1 12 4m10 2a4 4 0 1 1 0 8 4 4 0 0 1 0-8M12 6a3 3 0 1 0 0 6.002A3 3 0 0 0 12 6m10 2a2 2 0 1 0 0 4 2 2 0 0 0 0-4"/></svg>