<svg xmlns="http://www.w3.org/2000/svg" viewBox="0 0 24 24"><path fill="currentColor" d="M12.81 13H4a2 2 0 0 0-2 2v1.5l.005.23C2.165 20.044 5.778 21 8.5 21c1.03 0 2.189-.137 3.239-.487a6.4 6.4 0 0 1-.537-1.403 8.8 8.8 0 0 1-2.385.385L8.5 19.5l-.317-.005c-1.263-.039-2.44-.308-3.266-.753C3.95 18.222 3.5 17.509 3.5 16.5v-1.501l.01-.101a.5.5 0 0 1 .136-.253.5.5 0 0 1 .253-.136l.101-.01h7.732A6.5 6.5 0 0 1 12.809 13zM13 6.5a4.5 4.5 0 1 0-9 0 4.5 4.5 0 0 0 9 0m-7.5 0c0-1.654 1.346-3 3-3s3 1.346 3 3-1.346 3-3 3-3-1.346-3-3m15.5 1a3.5 3.5 0 1 0-7 0 3.5 3.5 0 0 0 7 0m-5.5 0c0-1.103.897-2 2-2s2 .897 2 2-.897 2-2 2-2-.897-2-2m7.5 10a5.5 5.5 0 1 1-11 0 5.5 5.5 0 0 1 11 0M17.5 14a.5.5 0 0 0-.5.5v4a.5.5 0 0 0 1 0v-4a.5.5 0 0 0-.5-.5m0 7.125a.625.625 0 1 0 0-1.25.625.625 0 0 0 0 1.25"/></svg>