<svg xmlns="http://www.w3.org/2000/svg" xmlns:xlink="http://www.w3.org/1999/xlink" viewBox="0 0 20 20"><path d="M11 10q.155 0 .305.023a5.6 5.6 0 0 0-1.048.977H4a1 1 0 0 0-1 1v1.5C3 14.907 4.579 16 7.5 16a9.4 9.4 0 0 0 1.67-.139q.126.494.336.947A10 10 0 0 1 7.5 17C4.088 17 2 15.554 2 13.5V12a2 2 0 0 1 2-2zm6-3.5a2.5 2.5 0 1 1-5 0 2.5 2.5 0 0 1 5 0M14.5 5a1.5 1.5 0 1 0 0 3 1.5 1.5 0 0 0 0-3m-7-3a3.5 3.5 0 1 1 0 7 3.5 3.5 0 0 1 0-7m0 1a2.5 2.5 0 1 0 0 5 2.5 2.5 0 0 0 0-5m7 16a4.5 4.5 0 1 1 0-9 4.5 4.5 0 0 1 0 9m1.5-7v.152a3 3 0 0 0-1.448-.401 3 3 0 0 0-2.173.878.5.5 0 0 0 .707.707A2 2 0 0 1 15.468 13H15a.5.5 0 0 0 0 1h1.5a.5.5 0 0 0 .5-.5V12a.5.5 0 0 0-1 0m-1.552 5.25a3 3 0 0 0 2.173-.879.5.5 0 0 0-.707-.707 2 2 0 0 1-2.382.336H14a.5.5 0 0 0 0-1h-1.5a.5.5 0 0 0-.5.5V17a.5.5 0 0 0 1 0v-.152a3 3 0 0 0 1.448.402" fill="currentColor"/></svg>