<svg xmlns="http://www.w3.org/2000/svg" viewBox="0 0 16 16"><path fill="currentColor" d="M8.496 8a1.5 1.5 0 0 1 1.5 1.5l-.001.748c.103 1.837-1.312 2.753-3.935 2.753C3.446 13 2 12.097 2 10.275V9.5A1.5 1.5 0 0 1 3.5 8zm4 0a1.5 1.5 0 0 1 1.5 1.5v.527c.09 1.647-1.16 2.473-3.444 2.473q-.466 0-.874-.045.437-.402.645-.958l.229.003c1.784 0 2.497-.471 2.444-1.446V9.5a.5.5 0 0 0-.5-.5h-2.063a2 2 0 0 0-.615-1zm-4 1H3.5a.5.5 0 0 0-.5.5v.775C3 11.42 3.928 12 6.06 12c2.124 0 3-.567 2.936-1.725V9.5a.5.5 0 0 0-.5-.5M6 2a2.5 2.5 0 1 1 0 5 2.5 2.5 0 0 1 0-5m5 1a2 2 0 1 1 0 4 2 2 0 0 1 0-4M6 3a1.5 1.5 0 1 0 0 3 1.5 1.5 0 0 0 0-3m5 1a1 1 0 1 0 0 2 1 1 0 0 0 0-2"/></svg>