<svg xmlns="http://www.w3.org/2000/svg" viewBox="0 0 20 20"><path fill="currentColor" d="M11 10a2 2 0 0 1 2 2h-.5q-.264.001-.5.085V12a1 1 0 0 0-1-1H4a1 1 0 0 0-1 1v1.5C3 14.907 4.579 16 7.5 16c1.563 0 2.742-.313 3.5-.82v1.137c-.904.436-2.089.683-3.5.683C4.088 17 2 15.554 2 13.5V12a2 2 0 0 1 2-2zm6.5 2q.264.001.5.085V12a2 2 0 0 0-2-2h-2.765a3 3 0 0 1 .594 1H16a1 1 0 0 1 1 1zM7.5 2a3.5 3.5 0 1 1 0 7 3.5 3.5 0 0 1 0-7m0 1a2.5 2.5 0 1 0 0 5 2.5 2.5 0 0 0 0-5m7 1a2.5 2.5 0 1 1 0 5 2.5 2.5 0 0 1 0-5m0 1a1.5 1.5 0 1 0 0 3 1.5 1.5 0 0 0 0-3m-2 8a.5.5 0 0 0 0 1h5a.5.5 0 0 0 0-1zm0 2a.5.5 0 0 0 0 1h5a.5.5 0 0 0 0-1zm0 2a.5.5 0 0 0 0 1h5a.5.5 0 0 0 0-1z"/></svg>