<svg xmlns="http://www.w3.org/2000/svg" xmlns:xlink="http://www.w3.org/1999/xlink" viewBox="0 0 20 20"><path d="M11 10a2 2 0 0 1 2 2h-1a1 1 0 0 0-1-1H4a1 1 0 0 0-1 1v1.5C3 14.907 4.579 16 7.5 16a9.6 9.6 0 0 0 1.5-.11v1.007Q8.3 17 7.5 17C4.088 17 2 15.554 2 13.5V12a2 2 0 0 1 2-2zm6 2h1a2 2 0 0 0-2-2h-2.765a3 3 0 0 1 .594 1H16a1 1 0 0 1 1 1M7.5 2a3.5 3.5 0 1 1 0 7 3.5 3.5 0 0 1 0-7m0 1a2.5 2.5 0 1 0 0 5 2.5 2.5 0 0 0 0-5m7 1a2.5 2.5 0 1 1 0 5 2.5 2.5 0 0 1 0-5m0 1a1.5 1.5 0 1 0 0 3 1.5 1.5 0 0 0 0-3m4.5 9.5v3a1.5 1.5 0 0 1-1.5 1.5h-6a1.5 1.5 0 0 1-1.5-1.5v-3a1.5 1.5 0 0 1 1.5-1.5h6a1.5 1.5 0 0 1 1.5 1.5M17.5 18a.5.5 0 0 1 .5-.5v-1a1.5 1.5 0 0 0-1.5 1.5zm.5-3.5a.5.5 0 0 1-.5-.5h-1a1.5 1.5 0 0 0 1.5 1.5zm-6.5-.5a.5.5 0 0 1-.5.5v1a1.5 1.5 0 0 0 1.5-1.5zm-.5 3.5a.5.5 0 0 1 .5.5h1a1.5 1.5 0 0 0-1.5-1.5zm3.5-3a1.5 1.5 0 1 0 0 3 1.5 1.5 0 0 0 0-3" fill="currentColor"/></svg>