<svg xmlns="http://www.w3.org/2000/svg" xmlns:xlink="http://www.w3.org/1999/xlink" viewBox="0 0 20 20"><path d="M7.5 2a3.5 3.5 0 1 1 0 7 3.5 3.5 0 0 1 0-7m0 1a2.5 2.5 0 1 0 0 5 2.5 2.5 0 0 0 0-5m7 6a2.5 2.5 0 1 0 0-5 2.5 2.5 0 0 0 0 5M13 6.5a1.5 1.5 0 1 1 3 0 1.5 1.5 0 0 1-3 0m-1.695 3.523A2 2 0 0 0 11 10H4a2 2 0 0 0-2 2v1.5C2 15.554 4.088 17 7.5 17a10 10 0 0 0 2.006-.192 5.5 5.5 0 0 1-.336-.947A9.4 9.4 0 0 1 7.5 16C4.579 16 3 14.907 3 13.5V12a1 1 0 0 1 1-1h6.257q.46-.557 1.048-.977M10 14.5a4.5 4.5 0 1 0 9 0 4.5 4.5 0 0 0-9 0m2.404 2.803 4.9-4.9a3.5 3.5 0 0 1-4.9 4.9m-.707-.707a3.5 3.5 0 0 1 4.9-4.9z" fill="currentColor"/></svg>