<svg xmlns="http://www.w3.org/2000/svg" xmlns:xlink="http://www.w3.org/1999/xlink" viewBox="0 0 28 28"><path d="M15.364 15.034a2 2 0 0 0-.364-.033L4 15l-.15.005A2 2 0 0 0 2 17v2.5l.005.248C2.171 23.752 6.351 25 9.5 25c1.418 0 3.045-.253 4.42-.897a7.5 7.5 0 0 1-.583-1.373c-1.204.577-2.616.725-3.402.76l-.435.01-.341-.005c-1.475-.047-2.868-.394-3.864-.97C4.087 21.829 3.5 20.839 3.5 19.5V17l.01-.101a.5.5 0 0 1 .136-.253.5.5 0 0 1 .253-.136L4 16.5h10.154a7.6 7.6 0 0 1 1.21-1.466M20.5 13a4.5 4.5 0 1 0 0-9 4.5 4.5 0 0 0 0 9m-3-4.5c0-1.654 1.346-3 3-3s3 1.346 3 3-1.346 3-3 3-3-1.346-3-3m-2.5-1a5.5 5.5 0 1 0-11 0 5.5 5.5 0 0 0 11 0m-9.5 0c0-2.206 1.794-4 4-4s4 1.794 4 4-1.794 4-4 4-4-1.794-4-4m9.855 11.694a2 2 0 0 0 1.441-2.496l-.334-1.159a6.2 6.2 0 0 1 1.751-1.09l.85.894a2 2 0 0 0 2.899 0l.843-.886c.644.265 1.235.64 1.753 1.1l-.324 1.098a2 2 0 0 0 1.45 2.51l.977.236a6.8 6.8 0 0 1 .008 2.152l-1.026.253a2 2 0 0 0-1.44 2.496l.334 1.16a6.2 6.2 0 0 1-1.751 1.09l-.85-.895a2 2 0 0 0-2.9 0l-.842.886a6.2 6.2 0 0 1-1.753-1.1l.324-1.098a2 2 0 0 0-1.45-2.51l-.976-.235a6.8 6.8 0 0 1-.008-2.152zM22 20.5a1.5 1.5 0 1 0-3 0 1.5 1.5 0 0 0 3 0" fill="currentColor"/></svg>