<svg xmlns="http://www.w3.org/2000/svg" viewBox="0 0 20 20"><path fill="currentColor" d="M5 6a4 4 0 1 1 8 0 4 4 0 0 1-8 0m4-3a3 3 0 1 0 0 6 3 3 0 0 0 0-6M2 13c0-1.113.903-2 2.009-2H14a2 2 0 0 1 .813.172 2.1 2.1 0 0 0 .1 1.328h-.047A1 1 0 0 0 14 12H4.009C3.448 12 3 12.447 3 13c0 1.309.622 2.284 1.673 2.953C5.743 16.636 7.265 17 9 17c.962 0 1.858-.112 2.648-.328a2.1 2.1 0 0 0-.128 1.063C10.731 17.913 9.88 18 9 18c-1.855 0-3.583-.386-4.865-1.203C2.833 15.967 2 14.69 2 13m13.835-1.735.399-.941c.187-.442.635-.682 1.075-.59l.094.024.5.16c.496.159.875.583.998 1.116q.437 1.9-1.049 4.628-1.483 2.724-3.251 3.275c-.458.143-.95.04-1.32-.271l-.097-.09-.38-.381a1.08 1.08 0 0 1-.176-1.262l.056-.092.572-.84a.95.95 0 0 1 .982-.409l.1.027 1.057.353q.632-.479 1.054-1.205.363-.622.473-1.261l.03-.214-.879-.835a1.07 1.07 0 0 1-.276-1.088z"/></svg>