<svg xmlns="http://www.w3.org/2000/svg" viewBox="0 0 24 24"><path fill="currentColor" d="M14.755 15a2.25 2.25 0 0 1 2.248 2.249v.575c0 .895-.32 1.76-.9 2.439C14.532 22.096 12.145 23 9 23s-5.532-.905-7.098-2.74a3.75 3.75 0 0 1-.898-2.434v-.578A2.25 2.25 0 0 1 3.253 15zm0 1.5H3.252a.75.75 0 0 0-.75.749v.578c0 .535.192 1.053.54 1.46 1.253 1.468 3.22 2.214 5.957 2.214 2.739 0 4.706-.746 5.963-2.214a2.25 2.25 0 0 0 .54-1.463v-.575a.75.75 0 0 0-.748-.749zm4.3-15.096a.75.75 0 0 1 1.023.279A12.7 12.7 0 0 1 21.75 8c0 2.254-.586 4.424-1.683 6.336a.75.75 0 1 1-1.301-.746A11.2 11.2 0 0 0 20.25 8c0-1.983-.513-3.89-1.475-5.573a.75.75 0 0 1 .28-1.023M9 3.004a5 5 0 1 1 0 10 5 5 0 0 1 0-10m6.589.396a.75.75 0 0 1 1.023.28A8.7 8.7 0 0 1 17.75 8a8.7 8.7 0 0 1-1.143 4.328.75.75 0 1 1-1.304-.743A7.2 7.2 0 0 0 16.25 8a7.2 7.2 0 0 0-.942-3.578.75.75 0 0 1 .28-1.022zM9 4.505a3.5 3.5 0 1 0 0 7 3.5 3.5 0 0 0 0-7"/></svg>