<svg xmlns="http://www.w3.org/2000/svg" viewBox="0 0 48 48"><path fill="currentColor" d="M9 13C9 7.477 13.477 3 19 3s10 4.477 10 10-4.477 10-10 10S9 18.523 9 13M3 31.249A4.25 4.25 0 0 1 7.25 27H21v6.674c0 1.594.633 3.122 1.76 4.249l3.967 3.967C24.407 42.64 21.763 43 19 43c-4.214 0-8.15-.837-11.08-2.62C4.942 38.567 3 35.755 3 32zm20-4.242v6.667c0 1.063.422 2.082 1.174 2.833l7.319 7.32a4.006 4.006 0 0 0 5.666 0l6.668-6.668a4.006 4.006 0 0 0 0-5.666l-7.32-7.32A4 4 0 0 0 33.674 23h-6.667A4.007 4.007 0 0 0 23 27.007M28.5 30a1.5 1.5 0 1 1 0-3 1.5 1.5 0 0 1 0 3"/></svg>