<svg xmlns="http://www.w3.org/2000/svg" viewBox="0 0 24 24"><path fill="currentColor" d="M14.755 15a2.25 2.25 0 0 1 2.248 2.249v.918a2.75 2.75 0 0 1-.512 1.6C14.945 21.93 12.42 23 9 23c-3.422 0-5.945-1.072-7.487-3.236a2.75 2.75 0 0 1-.51-1.596v-.92A2.25 2.25 0 0 1 3.253 15zm4.3-13.596a.75.75 0 0 1 1.023.279A12.7 12.7 0 0 1 21.75 8c0 2.254-.586 4.424-1.683 6.336a.75.75 0 1 1-1.301-.746A11.2 11.2 0 0 0 20.25 8c0-1.983-.513-3.89-1.475-5.573a.75.75 0 0 1 .28-1.023M9 3.004a5 5 0 1 1 0 10 5 5 0 0 1 0-10m6.589.396a.75.75 0 0 1 1.023.28A8.7 8.7 0 0 1 17.75 8a8.7 8.7 0 0 1-1.143 4.328.75.75 0 1 1-1.304-.743A7.2 7.2 0 0 0 16.25 8a7.2 7.2 0 0 0-.942-3.578.75.75 0 0 1 .28-1.022z"/></svg>