<svg xmlns="http://www.w3.org/2000/svg" viewBox="0 0 16 16"><path fill="currentColor" d="M6.222 13.957C3.555 13.653 2 11.803 2 10v-.5A1.5 1.5 0 0 1 3.5 8h2.1a5.5 5.5 0 0 0-.393 1H3.5a.5.5 0 0 0-.5.5v.5c0 1.128.882 2.333 2.502 2.8.192.416.435.804.72 1.157m3.404-8.888a2.75 2.75 0 1 0-3.299 1.848 5.5 5.5 0 0 1 1.078-.964 1.75 1.75 0 1 1 .836-.47 5.5 5.5 0 0 1 1.385-.414M15 10.5a4.5 4.5 0 1 1-9 0 4.5 4.5 0 0 1 9 0m-6.853-.354-.003.003a.5.5 0 0 0-.144.348v.006a.5.5 0 0 0 .146.35l2 2a.5.5 0 0 0 .708-.707L9.707 11H12.5a.5.5 0 0 0 0-1H9.707l1.147-1.146a.5.5 0 0 0-.708-.708z"/></svg>