<svg xmlns="http://www.w3.org/2000/svg" viewBox="0 0 24 24"><path fill="currentColor" d="m5.253 14 10.989.001q.155.259.38.473l.719.682q-.06.24-.16.478a.75.75 0 0 0-.428-.134h-11.5a.75.75 0 0 0-.75.75v.907c0 .656.286 1.28.784 1.707C6.545 19.945 8.44 20.5 11 20.5q.437 0 .85-.021c.08.446.294.87.63 1.209l.228.228Q11.896 22 11 22c-2.89 0-5.128-.656-6.691-2a3.75 3.75 0 0 1-1.306-2.844v-.907A2.25 2.25 0 0 1 5.253 14m11.757-1.755.504-1.187c.236-.556.801-.859 1.356-.743l.118.03.63.202c.625.2 1.104.735 1.259 1.407q.55 2.397-1.322 5.836-1.87 3.435-4.1 4.13a1.76 1.76 0 0 1-1.664-.343l-.123-.113-.479-.48a1.36 1.36 0 0 1-.222-1.592l.071-.116.721-1.06c.284-.417.77-.614 1.238-.515l.127.035 1.332.444a5.1 5.1 0 0 0 1.33-1.519 4.8 4.8 0 0 0 .596-1.59l.038-.27-1.109-1.052a1.35 1.35 0 0 1-.348-1.373l.047-.13.504-1.188zM11 2.005a5 5 0 1 1 0 10 5 5 0 0 1 0-10m0 1.5a3.5 3.5 0 1 0 0 7 3.5 3.5 0 0 0 0-7"/></svg>