<svg xmlns="http://www.w3.org/2000/svg" viewBox="0 0 16 16"><path fill="currentColor" d="M11.5 8q.063 0 .124.005l-.136.321-.048.133-.008.025c-.203.662-.03 1.41.493 1.907l.305.29a2.5 2.5 0 0 1-.418.714l-.323-.109-.136-.037-.028-.006a1.77 1.77 0 0 0-1.835.748l-.481.707-.072.12-.013.022a1.9 1.9 0 0 0-.21 1.124A7 7 0 0 1 8 14c-3.14 0-5-2.029-5-4v-.5A1.5 1.5 0 0 1 4.5 8zm-.301 4.244.74.246.121.04q.516-.39.86-.981a3.1 3.1 0 0 0 .386-1.029l.025-.174-.717-.68a.88.88 0 0 1-.226-.888l.03-.085.326-.767a.784.784 0 0 1 .877-.482l.077.02.407.13c.404.13.714.476.814.91q.356 1.551-.855 3.774-1.21 2.22-2.651 2.67a1.14 1.14 0 0 1-1.076-.22l-.08-.074-.309-.31a.88.88 0 0 1-.144-1.03l.046-.074.467-.686a.79.79 0 0 1 .706-.347 1 1 0 0 1 .094.014zM8 1.5A2.75 2.75 0 1 1 8 7a2.75 2.75 0 0 1 0-5.5"/></svg>