<svg xmlns="http://www.w3.org/2000/svg" xmlns:xlink="http://www.w3.org/1999/xlink" viewBox="0 0 24 24"><path d="M13.025 15.5a5 5 0 0 1 .391-1.5H6.252a2.25 2.25 0 0 0-2.249 2.25v.577c0 .892.319 1.756.899 2.435 1.566 1.834 3.952 2.74 7.098 2.74q1.763 0 3.204-.38l-.294-1.474q-1.275.353-2.91.353c-2.738 0-4.704-.745-5.958-2.213a2.25 2.25 0 0 1-.539-1.461v-.578a.75.75 0 0 1 .75-.749zM17 7.005a5 5 0 1 0-10 0 5 5 0 0 0 10 0m-8.5 0a3.5 3.5 0 1 1 7 0 3.5 3.5 0 0 1-7 0M22 16a4 4 0 0 1-1.763 3.317L20.1 20h-4.2l-.137-.683A4 4 0 1 1 22 16m-5.9 5 .159.794A1.5 1.5 0 0 0 17.729 23h.541a1.5 1.5 0 0 0 1.471-1.206L19.9 21z" fill="currentColor"/></svg>