<svg xmlns="http://www.w3.org/2000/svg" viewBox="0 0 20 20"><path fill="currentColor" d="M9 2a4 4 0 1 0 0 8 4 4 0 0 0 0-8m-4.991 9A2 2 0 0 0 2 13c0 1.691.833 2.966 2.135 3.797C5.417 17.614 7.145 18 9 18c.88 0 1.731-.087 2.52-.265-.06-.433.016-.883.228-1.277l.012-.022.083-.137.587-.861a1.95 1.95 0 0 1 2.016-.824l.028.006.154.042.534.178a3.2 3.2 0 0 0 .423-.575q.186-.323.28-.627l-.48-.455a2.07 2.07 0 0 1-.572-2.01A2 2 0 0 0 14 11zm11.825.265.4-.941c.187-.442.635-.682 1.075-.59l.094.024.5.16c.496.159.875.583.998 1.116q.437 1.9-1.049 4.628-1.483 2.724-3.251 3.275c-.458.143-.95.04-1.32-.271l-.097-.09-.38-.381a1.08 1.08 0 0 1-.176-1.262l.056-.092.572-.84a.95.95 0 0 1 .982-.409l.1.027 1.057.353q.632-.479 1.054-1.205.362-.622.473-1.261l.03-.214-.879-.835a1.07 1.07 0 0 1-.276-1.088z"/></svg>