<svg xmlns="http://www.w3.org/2000/svg" viewBox="0 0 24 24"><path fill="currentColor" d="M11.313 15.5a6.5 6.5 0 0 1 .709-1.5h-7.77a2.25 2.25 0 0 0-2.249 2.25v.577c0 .892.319 1.756.899 2.435 1.566 1.834 3.952 2.74 7.098 2.74q1.397 0 2.592-.24a6.5 6.5 0 0 1-.913-1.366q-.785.105-1.68.105c-2.737 0-4.703-.745-5.957-2.213a2.25 2.25 0 0 1-.539-1.461v-.578a.75.75 0 0 1 .75-.749zM10 2.005a5 5 0 1 1 0 10 5 5 0 0 1 0-10m0 1.5a3.5 3.5 0 1 0 0 7 3.5 3.5 0 0 0 0-7M23 17.5a5.5 5.5 0 1 1-11 0 5.5 5.5 0 0 1 11 0m-4.647-2.853a.5.5 0 0 0-.707.707L19.293 17H15a.5.5 0 1 0 0 1h4.293l-1.647 1.647a.5.5 0 0 0 .707.707l2.5-2.5a.5.5 0 0 0 .147-.345V17.5a.5.5 0 0 0-.15-.357z"/></svg>