<svg xmlns="http://www.w3.org/2000/svg" xmlns:xlink="http://www.w3.org/1999/xlink" viewBox="0 0 24 24"><path d="M8.255 9c.967 0 1.75.783 1.75 1.75v9.5A1.75 1.75 0 0 1 8.255 22H3.751a1.75 1.75 0 0 1-1.75-1.75v-9.5c0-.967.783-1.75 1.75-1.75zm0 1.5H3.751a.25.25 0 0 0-.25.25v9.5c0 .138.112.25.25.25h4.504a.25.25 0 0 0 .25-.25v-9.5a.25.25 0 0 0-.25-.25M6.25 18a.75.75 0 0 1 .102 1.493l-.102.007h-.5a.75.75 0 0 1-.101-1.493L5.75 18zm13.5-16a2.25 2.25 0 0 1 2.245 2.096L22 4.25v9a2.25 2.25 0 0 1-2.096 2.245l-.154.005h-3.746v2h1.246a.75.75 0 0 1 .102 1.493L17.25 19H11v-1.5h3.504v-2H11V14h8.75a.75.75 0 0 0 .744-.648l.006-.102v-9a.75.75 0 0 0-.75-.75H6.25a.75.75 0 0 0-.743.648L5.5 4.25V8H4V4.25a2.25 2.25 0 0 1 2.096-2.245L6.25 2z" fill="currentColor"/></svg>