<svg xmlns="http://www.w3.org/2000/svg" xmlns:xlink="http://www.w3.org/1999/xlink" viewBox="0 0 28 28"><path d="M15.779 3.744c2.34-2.337 6.137-2.328 8.475.01 2.34 2.34 2.346 6.142.004 8.481L12.22 24.255c-2.34 2.337-6.137 2.328-8.475-.01-2.34-2.34-2.346-6.142-.004-8.48zm1.933 12.908 5.486-5.478a4.5 4.5 0 0 0-.005-6.36 4.5 4.5 0 0 0-6.354-.009l-5.49 5.483zM11.78 21.28a.75.75 0 0 0-1.06-1.06l-1.978 1.977a1.05 1.05 0 0 1-1.484 0l-.478-.477a.75.75 0 0 0-1.06 1.06l.477.477a2.55 2.55 0 0 0 3.606 0z" fill="currentColor"/></svg>