<svg xmlns="http://www.w3.org/2000/svg" viewBox="0 0 24 24"><path fill="currentColor" d="M17.999 3a.75.75 0 0 1 .605.306l.055.087 3.263 6.028.038.093.012.04.02.102.006.094a.8.8 0 0 1-.027.2l-.047.125-.038.069a1 1 0 0 1-.075.102l.06-.078-.025.035-9.25 10.505a.7.7 0 0 1-.297.232l-.098.033-.078.017L12 21l-.1-.006-.118-.026a.7.7 0 0 1-.174-.076l-.009-.007a.7.7 0 0 1-.13-.104l-9.29-10.546-.026-.032-.04-.059a.75.75 0 0 1-.106-.301L2 9.75l.003-.066.013-.089.024-.086.022-.059.028-.057 3.25-6a.75.75 0 0 1 .557-.386L5.999 3zm-3.002 7.5H8.998l3 7.687zm-7.608 0h-2.98l5.351 6.074zm12.198 0h-2.979l-2.368 6.07zm-10.616-6H6.445L4.007 9h3.524zm4.48 0h-2.905L9.105 9h5.785zm4.1 0h-2.525l1.44 4.5h3.522l-2.436-4.5z"/></svg>