<svg xmlns="http://www.w3.org/2000/svg" viewBox="0 0 28 28"><path fill="currentColor" d="M21.251 3a.75.75 0 0 1 .608.31l.054.087 4.007 7.513.043.102.011.038.017.077.01.088-.002.1.002-.065a.8.8 0 0 1-.06.296l-.03.06-.04.066-.052.069L14.6 24.705a.73.73 0 0 1-.386.265l-.058.014-.097.014L14 25l-.1-.007-.086-.016-.103-.034-.026-.012a.7.7 0 0 1-.242-.178L2.172 11.726l-.062-.087-.048-.093-.035-.1-.023-.13v-.128l.015-.099.01-.04.033-.095.028-.057 4-7.5a.75.75 0 0 1 .559-.39L6.75 3h14.5zm-3.344 9h-7.815l3.91 10.16zm-9.42 0H4.39l7.373 8.518zm15.122 0h-4.093l-3.273 8.511zM10.025 4.499H7.2L4 10.5h4.424zm6.4 0h-4.848l-1.6 6.001h8.047l-1.6-6.001zm4.376 0h-2.825l1.601 6.001H24z"/></svg>