<svg xmlns="http://www.w3.org/2000/svg" xmlns:xlink="http://www.w3.org/1999/xlink" viewBox="0 0 20 20"><path d="M10 6a2 2 0 1 0 0-4 2 2 0 0 0 0 4m0-1a1 1 0 1 1 0-2 1 1 0 0 1 0 2M8.5 8a.5.5 0 0 0-.5.5V9H7v-.5A1.5 1.5 0 0 1 8.5 7h3A1.5 1.5 0 0 1 13 8.5V9h-1v-.5a.5.5 0 0 0-.5-.5zM7 14.784V16.5A1.5 1.5 0 0 0 8.5 18h3a1.5 1.5 0 0 0 1.5-1.5v-1.716a.5.5 0 0 1 .153-.36l3.703-3.564a.5.5 0 0 0-.347-.86H3.49a.5.5 0 0 0-.346.86l3.702 3.564a.5.5 0 0 1 .154.36M8 16.5v-1.716a1.5 1.5 0 0 0-.46-1.08L4.73 11h10.538l-2.809 2.703a1.5 1.5 0 0 0-.46 1.081V16.5a.5.5 0 0 1-.5.5h-3a.5.5 0 0 1-.5-.5z" fill="currentColor"/></svg>