<svg xmlns="http://www.w3.org/2000/svg" viewBox="0 0 20 20"><path fill="currentColor" d="M5 14.502v-1.787q.265.111.544.208Q5.767 13 6 13v1.502a.5.5 0 0 0 .5.5L9.498 15l.003.749a1.25 1.25 0 0 0 2.5.002L11.998 15h3.503a.5.5 0 0 0 .5-.5L16 12.249l-.771.002-.164-.007a2.254 2.254 0 0 1-2.066-2.263l.007-.164a2.25 2.25 0 0 1 2.242-2.066L16 7.749V5.502a.5.5 0 0 0-.41-.492l-.09-.008-3-.002v-.75a1.25 1.25 0 0 0-1.847-1.099 1.38 1.38 0 0 0-1.003-.483 2.24 2.24 0 0 1 1.446-.663L11.249 2c1.139 0 2.08.846 2.23 1.945l.005.056H15.5a1.5 1.5 0 0 1 1.493 1.356l.007.145v3.247l-1.751.001c-.652 0-1.194.502-1.245 1.127L14 10c0 .652.501 1.193 1.127 1.245l.122.005L17 11.249V14.5a1.5 1.5 0 0 1-1.5 1.5h-2.515l-.005.054a2.25 2.25 0 0 1-2.075 1.94L10.75 18a2.25 2.25 0 0 1-2.23-1.944l-.006-.055H6.5a1.5 1.5 0 0 1-1.494-1.355zM8 3.347a4.1 4.1 0 0 0 1.6.32c.193 0 .355.142.392.332l.008.084v2.501c0 2.682-1.313 4.506-3.874 5.395a.4.4 0 0 1-.252 0A6.7 6.7 0 0 1 3.999 11a5 5 0 0 1-.989-1c-.626-.85-.964-1.903-1.006-3.15L2 6.584v-2.5c0-.23.18-.417.4-.417 1.223 0 2.323-.51 3.318-1.545a.39.39 0 0 1 .566 0Q7.093 2.966 8 3.347"/></svg>