<svg xmlns="http://www.w3.org/2000/svg" xmlns:xlink="http://www.w3.org/1999/xlink" viewBox="0 0 20 20"><path d="M5 15.056v-2.342q.266.112.545.21c.295.102.615.102.91 0 1.432-.498 2.588-1.284 3.38-2.387C10.63 9.434 11 8.092 11 6.584V4.035l-.018-.18-.009-.048A1.404 1.404 0 0 0 9.6 2.667l-.09-.002A2 2 0 0 1 13 4l-.001.056H16a1 1 0 0 1 1 1L16.999 8H16a2 2 0 0 0-1.995 1.85L14 10a2 2 0 0 0 1.85 1.995L16 12l.999-.001.001 3.057a1 1 0 0 1-1 1h-3.003l-.002.093A2 2 0 0 1 9 16.057H6a1 1 0 0 1-1-1zM8 3.348a4.1 4.1 0 0 0 1.6.32c.193 0 .355.142.392.332l.008.084v2.501c0 2.682-1.313 4.506-3.874 5.395a.4.4 0 0 1-.252 0 6.7 6.7 0 0 1-1.875-.979 5 5 0 0 1-.989-1c-.626-.85-.964-1.903-1.006-3.15L2 6.584v-2.5c0-.23.18-.417.4-.417 1.223 0 2.323-.51 3.318-1.545a.39.39 0 0 1 .566 0Q7.093 2.966 8 3.347z" fill="currentColor"/></svg>