<svg xmlns="http://www.w3.org/2000/svg" xmlns:xlink="http://www.w3.org/1999/xlink" viewBox="0 0 20 20"><path d="M6 2a2 2 0 0 0-2 2v4c.35 0 .687.06 1 .171A3 3 0 0 1 9 11v.085a1.5 1.5 0 0 1 1 1.415V16h5a3 3 0 0 0 3-3v-2h-3V4a2 2 0 0 0-2-2zm11 11a2 2 0 0 1-2 2v-3h2zM7 5.5a.5.5 0 0 1 .5-.5h4a.5.5 0 0 1 0 1h-4a.5.5 0 0 1-.5-.5m0 2a.5.5 0 0 1 .5-.5h4a.5.5 0 0 1 0 1h-4a.5.5 0 0 1-.5-.5M5 9.268A2 2 0 0 0 2 11v1h-.5a.5.5 0 0 0-.5.5V17a2 2 0 0 0 2 2h4a2 2 0 0 0 2-2v-4.5a.5.5 0 0 0-.5-.5H8v-1a2 2 0 0 0-3-1.732M5 11v1H3v-1a1 1 0 1 1 2 0m1 0c0-.351-.09-.682-.25-.969A1.003 1.003 0 0 1 7 11v1H6z" fill="currentColor"/></svg>