<svg xmlns="http://www.w3.org/2000/svg" xmlns:xlink="http://www.w3.org/1999/xlink" viewBox="0 0 24 24"><path d="M5 4.25A2.25 2.25 0 0 1 7.25 2h8.5A2.25 2.25 0 0 1 18 4.25V12h3.5v3.25a3.25 3.25 0 0 1-3.25 3.25h-5.326a6.6 6.6 0 0 0 .057-1.5H16.5V4.25a.75.75 0 0 0-.75-.75h-8.5a.75.75 0 0 0-.75.75V11a6.5 6.5 0 0 0-1.5.174zM18 17h.25A1.75 1.75 0 0 0 20 15.25V13.5h-2zm-3.75-2.5h-1.982A6.5 6.5 0 0 0 11.19 13h3.06a.75.75 0 0 1 0 1.5M8 6.75A.75.75 0 0 1 8.75 6h5.5a.75.75 0 0 1 0 1.5h-5.5A.75.75 0 0 1 8 6.75m0 3.5a.75.75 0 0 1 .75-.75h5.5a.75.75 0 0 1 0 1.5h-5.5a.75.75 0 0 1-.75-.75M6.5 12a5.5 5.5 0 1 1 0 11 5.5 5.5 0 0 1 0-11M5 14.96v5.08a.5.5 0 0 0 .787.41l3.628-2.54a.5.5 0 0 0 0-.82l-3.628-2.54a.5.5 0 0 0-.787.41" fill="currentColor"/></svg>