<svg xmlns="http://www.w3.org/2000/svg" xmlns:xlink="http://www.w3.org/1999/xlink" viewBox="0 0 24 24"><path d="M5 4.25A2.25 2.25 0 0 1 7.25 2h8.5A2.25 2.25 0 0 1 18 4.25V12h3.5v3.25a3.25 3.25 0 0 1-3.25 3.25h-5.326a6.5 6.5 0 0 0 .057-1.5H16.5V4.25a.75.75 0 0 0-.75-.75h-8.5a.75.75 0 0 0-.75.75V11a6.5 6.5 0 0 0-1.5.174zM18 17h.25A1.75 1.75 0 0 0 20 15.25V13.5h-2zm-3.75-3.5h-2.626A6.5 6.5 0 0 0 9.966 12h4.284a.75.75 0 0 1 0 1.5M8 5.75A.75.75 0 0 1 8.75 5h5.5a.75.75 0 0 1 0 1.5h-5.5A.75.75 0 0 1 8 5.75m0 3.5a.75.75 0 0 1 .75-.75h5.5a.75.75 0 0 1 0 1.5h-5.5A.75.75 0 0 1 8 9.25m4 8.25a5.5 5.5 0 1 0-11 0 5.5 5.5 0 0 0 11 0M7 18l.001 2.503a.5.5 0 1 1-1 0V18H3.496a.5.5 0 0 1 0-1H6v-2.5a.5.5 0 0 1 1 0V17h2.497a.5.5 0 0 1 0 1z" fill="currentColor"/></svg>