<svg xmlns="http://www.w3.org/2000/svg" viewBox="0 0 24 24"><path fill="currentColor" d="M5 4.25A2.25 2.25 0 0 1 7.25 2h8.5A2.25 2.25 0 0 1 18 4.25V12h3.5v3.25a3.25 3.25 0 0 1-3.25 3.25h-5.326q.075-.49.076-1a6.47 6.47 0 0 0-1.376-4h2.626a.75.75 0 0 0 0-1.5H9.966A6.52 6.52 0 0 0 5 11.174zM18 17h.25A1.75 1.75 0 0 0 20 15.25V13.5h-2zM8.75 5a.75.75 0 0 0 0 1.5h5.5a.75.75 0 0 0 0-1.5zm0 3.5a.75.75 0 0 0 0 1.5h5.5a.75.75 0 0 0 0-1.5zm3.25 9a5.5 5.5 0 1 0-11 0 5.5 5.5 0 0 0 11 0M7 18l.001 2.503a.5.5 0 1 1-1 0V18H3.496a.5.5 0 0 1 0-1H6v-2.5a.5.5 0 1 1 1 0V17h2.497a.5.5 0 0 1 0 1z"/></svg>