<svg xmlns="http://www.w3.org/2000/svg" xmlns:xlink="http://www.w3.org/1999/xlink" viewBox="0 0 20 20"><path d="M4 4a2 2 0 0 1 2-2h7a2 2 0 0 1 2 2v7h3v2a3 3 0 0 1-3 3h-4.207a5.5 5.5 0 0 0 .185-1H14V4a1 1 0 0 0-1-1H6a1 1 0 0 0-1 1v5.022a5.5 5.5 0 0 0-1 .185zm11 8v3a2 2 0 0 0 2-2v-1zM7 5.5a.5.5 0 0 1 .5-.5h4a.5.5 0 0 1 0 1h-4a.5.5 0 0 1-.5-.5m0 3a.5.5 0 0 1 .5-.5h4a.5.5 0 0 1 0 1h-4a.5.5 0 0 1-.5-.5m3 6a4.5 4.5 0 1 1-9 0 4.5 4.5 0 0 1 9 0m-6-1.598v3.196a.5.5 0 0 0 .765.424l2.557-1.598a.5.5 0 0 0 0-.848l-2.557-1.598a.5.5 0 0 0-.765.424" fill="currentColor"/></svg>