<svg xmlns="http://www.w3.org/2000/svg" viewBox="0 0 20 20"><path fill="currentColor" d="M6 2a2 2 0 0 0-2 2v7h1V4a1 1 0 0 1 1-1h7a1 1 0 0 1 1 1v11h-3v1h4a3 3 0 0 0 3-3v-2h-3V4a2 2 0 0 0-2-2zm11 11a2 2 0 0 1-2 2v-3h2zM7.5 5a.5.5 0 0 0 0 1h4a.5.5 0 0 0 0-1zM7 7.5a.5.5 0 0 1 .5-.5h4a.5.5 0 0 1 0 1h-4a.5.5 0 0 1-.5-.5M8.5 12a1.5 1.5 0 0 1 1.5 1.5v3A1.5 1.5 0 0 1 8.5 18h-6A1.5 1.5 0 0 1 1 16.5v-3A1.5 1.5 0 0 1 2.5 12zm.5 4.5v-1A1.5 1.5 0 0 0 7.5 17h1a.5.5 0 0 1 .5-.5m0-3a.5.5 0 0 1-.5-.5h-1A1.5 1.5 0 0 0 9 14.5zM2.5 13a.5.5 0 0 1-.5.5v1A1.5 1.5 0 0 0 3.5 13zM2 16.5a.5.5 0 0 1 .5.5h1A1.5 1.5 0 0 0 2 15.5zm3.5-3a1.5 1.5 0 1 0 0 3 1.5 1.5 0 0 0 0-3"/></svg>