<svg xmlns="http://www.w3.org/2000/svg" viewBox="0 0 24 24"><path fill="currentColor" d="M11 2.75a.75.75 0 0 0-.75-.75h-5A3.25 3.25 0 0 0 2 5.25v5a.75.75 0 0 0 1.5 0v-5c0-.966.784-1.75 1.75-1.75h5a.75.75 0 0 0 .75-.75M13.75 2a.75.75 0 0 0 0 1.5h5c.966 0 1.75.784 1.75 1.75v5a.75.75 0 0 0 1.5 0v-5A3.25 3.25 0 0 0 18.75 2zm0 20a.75.75 0 0 1 0-1.5h5a1.75 1.75 0 0 0 1.75-1.75v-5a.75.75 0 0 1 1.5 0v5A3.25 3.25 0 0 1 18.75 22zm-3.5 0a.75.75 0 0 0 0-1.5h-5a1.75 1.75 0 0 1-1.75-1.75v-5a.75.75 0 0 0-1.5 0v5A3.25 3.25 0 0 0 5.25 22z"/></svg>