<svg xmlns="http://www.w3.org/2000/svg" viewBox="0 0 28 28"><path fill="currentColor" d="m15 17.303 7.365 5.84c1.065.845 2.634.086 2.634-1.273V6.13c0-1.36-1.57-2.118-2.634-1.273l-7.366 5.84V6.131c0-1.36-1.57-2.118-2.635-1.273l-9.636 7.641a1.917 1.917 0 0 0 0 3.004l9.637 7.64c1.065.845 2.634.086 2.634-1.273zm0-4.69 8.297-6.58a.1.1 0 0 1 .064-.028.13.13 0 0 1 .068.013.13.13 0 0 1 .053.045.1.1 0 0 1 .017.068V21.87a.1.1 0 0 1-.017.067.13.13 0 0 1-.053.045.13.13 0 0 1-.068.014.1.1 0 0 1-.064-.028l-8.298-6.579zm-1.704-6.58a.1.1 0 0 1 .065-.028.13.13 0 0 1 .068.013.13.13 0 0 1 .053.045.1.1 0 0 1 .017.068V21.87a.1.1 0 0 1-.018.067.13.13 0 0 1-.052.045.13.13 0 0 1-.068.014.1.1 0 0 1-.065-.028l-9.636-7.64a.417.417 0 0 1 0-.653z"/></svg>