<svg xmlns="http://www.w3.org/2000/svg" viewBox="0 0 20 20"><path fill="currentColor" d="M10.755 6.426a1.998 1.998 0 1 1 2.825 2.827 1.998 1.998 0 0 1-2.825-2.827m2.118.708a.998.998 0 1 0-1.412 1.41.998.998 0 0 0 1.412-1.41m-1.124 7.37a1.5 1.5 0 0 1-1.704-.295l-.61-.609-.731 1.22a.5.5 0 0 1-.783.097l-2.83-2.831a.5.5 0 0 1 .096-.782l1.22-.732-.61-.61a1.5 1.5 0 0 1-.294-1.703l-1.12-1.12a.5.5 0 0 1 0-.707l1.06-1.06a3 3 0 0 1 3.413-.589l.937-.937a6.3 6.3 0 0 1 6.33-1.557 2.43 2.43 0 0 1 1.595 1.595c.7 2.235.1 4.674-1.556 6.33l-.938.938a3 3 0 0 1-.589 3.413l-1.06 1.06a.5.5 0 0 1-.707 0l-1.12-1.12zm4.076-11.26A5.29 5.29 0 0 0 10.5 4.553l-.815.815.003.004-.707.707-.003-.004-2.122 2.122.003.004-.402.403a.5.5 0 0 0 .048.651l4.247 4.247a.5.5 0 0 0 .653.047l.401-.401.004.004 2.122-2.122-.004-.004.707-.707.004.004.815-.816a5.29 5.29 0 0 0 1.31-5.325 1.43 1.43 0 0 0-.94-.938zm-3.308 10.615.705.705.706-.707a2 2 0 0 0 .52-1.93zm-4.438-8.3a2 2 0 0 0-1.929.52l-.706.707.705.704 1.93-1.93zm.628 7.312-1.57-1.57-.886.53 1.925 1.926.53-.886zm-2.905 2.04a.5.5 0 1 0-.707-.706l-1.768 1.768a.5.5 0 1 0 .707.707l1.768-1.768zM4.387 12.79a.5.5 0 0 1 0 .707l-.709.709a.5.5 0 0 1-.707-.708l.709-.708a.5.5 0 0 1 .707 0m2.83 3.537a.5.5 0 0 0-.706-.707l-.71.709a.5.5 0 1 0 .708.707z"/></svg>