<svg xmlns="http://www.w3.org/2000/svg" viewBox="0 0 24 24"><path fill="currentColor" d="M17.003 3.748a1.75 1.75 0 0 0-1.75-1.75H8.75A1.75 1.75 0 0 0 7 3.748v16.503c0 .967.784 1.75 1.75 1.75h6.503a1.75 1.75 0 0 0 1.75-1.75zM8.5 16h3.75a.75.75 0 0 0 0-1.5H8.5v-1.752h2.75a.75.75 0 1 0 0-1.5H8.5V9.5h3.75a.75.75 0 0 0 0-1.5H8.5V6.498h2.75a.75.75 0 0 0 0-1.5H8.5v-1.25a.25.25 0 0 1 .25-.25h6.503a.25.25 0 0 1 .25.25v16.503a.25.25 0 0 1-.25.25H8.75a.25.25 0 0 1-.25-.25V19h2.75a.75.75 0 0 0 0-1.5H8.5z"/></svg>