<svg xmlns="http://www.w3.org/2000/svg" xmlns:xlink="http://www.w3.org/1999/xlink" viewBox="0 0 16 16"><path d="M7.314 1.036a.5.5 0 0 1 .383.004l4.9 2.1a.5.5 0 0 1 .078.877l-.002.002-.01.007-.046.032a6 6 0 0 0-.728.61c-.394.386-.747.848-.87 1.304.24.695.581 1.491.873 2.134a43 43 0 0 0 .491 1.04l1.597.96a2.1 2.1 0 0 1 1.02 1.8V13.5a.5.5 0 0 1-.485.5l-.015-.5.015.5h-.034a8 8 0 0 1-.418 0 21.2 21.2 0 0 1-4.995-.717c-2.91-.792-6.33-2.477-8.02-6.07a.5.5 0 0 1 .005-.437c.52-1.039 1.57-2.263 2.72-3.315C4.92 2.41 6.232 1.468 7.313 1.036zM14 12.998v-.537C7.673 11.9 4.16 9.277 2.437 6.422q-.216.305-.376.588c1.545 3.057 4.547 4.567 7.27 5.308a20.2 20.2 0 0 0 4.669.68m-.534-2.035-1.389-.833-.89.89a22 22 0 0 0 2.713.428 1.1 1.1 0 0 0-.434-.485m-3.32-.317L11.394 9.4l-.009-.018a44 44 0 0 1-.403-.862 28 28 0 0 1-.857-2.075l-1.569-.261 1.36 2.04A.5.5 0 0 1 9.9 8.8l-1.118 1.49q.613.24 1.296.442a.5.5 0 0 1 .068-.086m-.001-5.212c.237-.604.674-1.117 1.043-1.48q.125-.12.242-.226L7.499 2.044c-.824.37-1.843 1.083-2.81 1.938l1.164 1.164A.5.5 0 0 1 6 5.5v3.297c.543.39 1.154.755 1.84 1.084l1.047-1.398-1.803-2.706a.5.5 0 0 1 .498-.77zm-6.187-.769a16 16 0 0 0-.854.911A9.5 9.5 0 0 0 5 7.984V5.707z" fill="currentColor"/></svg>