<svg xmlns="http://www.w3.org/2000/svg" xmlns:xlink="http://www.w3.org/1999/xlink" viewBox="0 0 24 24"><path d="M10.64 2.548a.75.75 0 0 1 .39.037L18.262 5.3a.748.748 0 0 1 .025 1.391l-.86.358a4.25 4.25 0 0 0-1.999 1.718l-.541.892c.085.552.347 1.25.719 1.97a11.4 11.4 0 0 0 1.25 1.928l2.381 1.192a2.75 2.75 0 0 1 1.52 2.458v2.796a.75.75 0 0 1-.749.748h-.837c-3.523 0-7.52-1.176-10.84-2.95-3.286-1.756-6.09-4.2-6.99-6.864a.75.75 0 0 1 .052-.597c.34-.624.706-1.205 1.087-1.745.174-.246.48-.575.736-.845l.186-.195a13 13 0 0 0 .481-.522c.334-.37.8-.84 1.352-1.337.712-.642 1.58-1.34 2.5-1.919.91-.573 1.918-1.06 2.904-1.23zm4.817 11.65a13.4 13.4 0 0 1-1.18-1.882c-.378-.734-.714-1.557-.85-2.322l-1.274-.59 1.573 3.965a.75.75 0 0 1-.005.564l-.672 1.607 1.214.448zm.292 2.26c1.262.363 1.928.55 3.512.76v-.011c0-.474-.268-.908-.692-1.12l-1.93-.965zm3.512 2.27c-1.87-.24-2.608-.453-4-.855l-.963-.277-2.5-.924-.062-.026c-2.077-.99-3.24-1.719-4.683-2.775-1.758-1.285-3.065-2.541-3.916-3.554q-.135.217-.264.444c.829 2.02 3.133 4.1 6.165 5.72 3.15 1.685 6.907 2.774 10.134 2.774h.089zM4.042 9.058c.596.761 1.57 1.774 2.935 2.871l.425-2.336-1.75-2.236c-.256.249-.475.477-.65.67-.13.154-.339.374-.542.587l-.156.164q-.142.15-.262.28M6.763 6.35l2.024 2.585a.75.75 0 0 1 .147.595l-.62 3.407a23 23 0 0 0 3.36 2.014l.549-1.314-2.152-5.424a.748.748 0 0 1 1.01-.954l2.743 1.27.326-.538a5.75 5.75 0 0 1 1.912-1.92l-5.36-2.01c-.662.15-1.407.502-2.17.982-.619.39-1.223.848-1.769 1.307" fill="currentColor"/></svg>