<svg xmlns="http://www.w3.org/2000/svg" xmlns:xlink="http://www.w3.org/1999/xlink" viewBox="0 0 20 20"><path d="M9.314 2.036a.5.5 0 0 1 .344-.01l6 2a.5.5 0 0 1 .068.92l-.005.002-.02.01-.078.043a10 10 0 0 0-1.207.785 5.8 5.8 0 0 0-.937.876c-.22.267-.374.529-.45.777l1.859 3.719 1.999 1.332A2.5 2.5 0 0 1 18 14.57v1.93a.5.5 0 0 1-.477.5l-.023-.5.023.5h-.038a13 13 0 0 1-.47.004 22 22 0 0 1-5.653-.837c-3.326-.958-7.23-3.025-9.314-7.454a.5.5 0 0 1 .005-.437c.643-1.285 1.825-2.587 3.139-3.685 1.318-1.1 2.813-2.032 4.122-2.555M17 15.466c-7.413-.6-11.411-4.196-13.55-7.58a7 7 0 0 0-.39.624c1.94 3.919 5.463 5.798 8.579 6.697a21 21 0 0 0 5.361.798zM5.96 5.253l1.894 1.893a.5.5 0 0 1 .141.425l-.485 3.394c.703.563 1.496 1.09 2.391 1.556l1.486-1.596-2.324-4.182a.5.5 0 0 1 .595-.717l2.52.84a3.6 3.6 0 0 1 .53-.84 6.8 6.8 0 0 1 1.1-1.034 9 9 0 0 1 .503-.361L9.518 3.033C8.405 3.504 7.125 4.3 5.96 5.253m7.799 8.695c.992.24 2.069.415 3.237.514a1.5 1.5 0 0 0-.664-1.14l-1.65-1.1z" fill="currentColor"/></svg>