<svg xmlns="http://www.w3.org/2000/svg" viewBox="0 0 28 28"><path fill="currentColor" d="M3.28 2.22a.75.75 0 1 0-1.06 1.06l1.4 1.402A3.73 3.73 0 0 0 3 6.75v3.5a.75.75 0 0 0 1.5 0v-3.5c0-.347.079-.676.22-.97l6.212 6.213-.075.087a3.3 3.3 0 0 1-.382.368l-1.858 1.085a2.74 2.74 0 0 0-1.189 3.342l.526 1.386a2.76 2.76 0 0 0 1.765 1.655l5.414 1.684a3.29 3.29 0 0 0 3.859-1.547l3.228 3.228a2.24 2.24 0 0 1-.97.219h-3.5a.75.75 0 0 0 0 1.5h3.5c.764 0 1.475-.229 2.068-.621l1.401 1.401a.75.75 0 0 0 1.061-1.06zm2.94.817L7.681 4.5h2.568a.75.75 0 0 0 0-1.5h-3.5q-.27 0-.53.037zm6.269 6.27 7.532 7.532.615-2.074c.526-1.773-.818-3.53-2.659-3.53h-.431c.12-.542.224-1.177.213-1.744-.01-.52-.061-1.174-.337-1.765-.313-.673-.875-1.18-1.686-1.404-1.279-.352-2.171.61-2.457 1.313-.23.569-.431.965-.687 1.468zM23.5 20.318l1.463 1.463A4 4 0 0 0 25 21.25v-3.5a.75.75 0 0 0-1.5 0zM21.25 3A3.75 3.75 0 0 1 25 6.75v3.5a.75.75 0 0 1-1.5 0v-3.5a2.25 2.25 0 0 0-2.25-2.25h-3.5a.75.75 0 0 1 0-1.5zM3 21.25A3.75 3.75 0 0 0 6.75 25h3.5a.75.75 0 0 0 0-1.5h-3.5a2.25 2.25 0 0 1-2.25-2.25v-3.5a.75.75 0 0 0-1.5 0z"/></svg>