<svg xmlns="http://www.w3.org/2000/svg" xmlns:xlink="http://www.w3.org/1999/xlink" viewBox="0 0 24 24"><path d="M5.25 3.5A1.75 1.75 0 0 0 3.5 5.25v3a.75.75 0 0 1-1.5 0v-3A3.25 3.25 0 0 1 5.25 2h3a.75.75 0 0 1 0 1.5zm0 17a1.75 1.75 0 0 1-1.75-1.75v-3a.75.75 0 0 0-1.5 0v3A3.25 3.25 0 0 0 5.25 22h3a.75.75 0 0 0 0-1.5zM20.5 5.25a1.75 1.75 0 0 0-1.75-1.75h-3a.75.75 0 0 1 0-1.5h3A3.25 3.25 0 0 1 22 5.25v3a.75.75 0 0 1-1.5 0zM7.75 6a.75.75 0 0 0-.75.75V8a.75.75 0 0 0 1.5 0v-.5h2.75v8.209a6.5 6.5 0 0 1 1.5-2.646V7.5h2.75V8A.75.75 0 0 0 17 8V6.75a.75.75 0 0 0-.75-.75zm2 10.5h1.326a6.6 6.6 0 0 0-.057 1.5H9.75a.75.75 0 0 1 0-1.5m13.25 1a5.5 5.5 0 1 1-11 0 5.5 5.5 0 0 1 11 0m-2.146-2.354a.5.5 0 0 0-.708 0L16.5 18.793l-1.646-1.647a.5.5 0 0 0-.708.708l2 2a.5.5 0 0 0 .708 0l4-4a.5.5 0 0 0 0-.708" fill="currentColor"/></svg>