<svg xmlns="http://www.w3.org/2000/svg" xmlns:xlink="http://www.w3.org/1999/xlink" viewBox="0 0 24 24"><path d="M6.25 3A3.25 3.25 0 0 0 3 6.25v2a.75.75 0 0 0 1.5 0v-2c0-.966.784-1.75 1.75-1.75h2a.75.75 0 0 0 0-1.5zm9.5 0a.75.75 0 0 0 0 1.5h2c.966 0 1.75.784 1.75 1.75v2a.75.75 0 0 0 1.5 0v-2A3.25 3.25 0 0 0 17.75 3zM4.5 15.75a.75.75 0 0 0-1.5 0v2A3.25 3.25 0 0 0 6.25 21h2a.75.75 0 0 0 0-1.5h-2a1.75 1.75 0 0 1-1.75-1.75zm16.5 0a.75.75 0 0 0-1.5 0v2a1.75 1.75 0 0 1-1.75 1.75h-2a.75.75 0 0 0 0 1.5h2A3.25 3.25 0 0 0 21 17.75zm-13.5-4.5a.75.75 0 0 0 0 1.5h9a.75.75 0 0 0 0-1.5z" fill="currentColor"/></svg>