<svg xmlns="http://www.w3.org/2000/svg" xmlns:xlink="http://www.w3.org/1999/xlink" viewBox="0 0 16 16"><path d="M4.75 2A2.75 2.75 0 0 0 2 4.75v.864a.75.75 0 0 0 1.5 0V4.75c0-.69.56-1.25 1.25-1.25h.864a.75.75 0 0 0 0-1.5zm5.636 0a.75.75 0 1 0 0 1.5h.864c.69 0 1.25.56 1.25 1.25v.864a.75.75 0 0 0 1.5 0V4.75A2.75 2.75 0 0 0 11.25 2zM3.5 10.386a.75.75 0 1 0-1.5 0v.864A2.75 2.75 0 0 0 4.75 14h.864a.75.75 0 0 0 0-1.5H4.75c-.69 0-1.25-.56-1.25-1.25zm10.5 0a.75.75 0 1 0-1.5 0v.864c0 .69-.56 1.25-1.25 1.25h-.864a.75.75 0 1 0 0 1.5h.864A2.75 2.75 0 0 0 14 11.25zM4.5 10V7.385a1 1 0 0 1 1-1h.75l.58-.92A1 1 0 0 1 7.677 5h.648a1 1 0 0 1 .845.466l.581.919h.75a1 1 0 0 1 1 1V10a1 1 0 0 1-1 1h-5a1 1 0 0 1-1-1zM8 9.5a1 1 0 1 0 0-2 1 1 0 0 0 0 2" fill="currentColor"/></svg>