<svg xmlns="http://www.w3.org/2000/svg" xmlns:xlink="http://www.w3.org/1999/xlink" viewBox="0 0 16 16"><path d="M4.5 2A2.5 2.5 0 0 0 2 4.5v1a.5.5 0 0 0 1 0v-1A1.5 1.5 0 0 1 4.5 3h1a.5.5 0 0 0 0-1zm6 0a.5.5 0 0 0 0 1h1A1.5 1.5 0 0 1 13 4.5v1a.5.5 0 0 0 1 0v-1A2.5 2.5 0 0 0 11.5 2zM3 10.5a.5.5 0 0 0-1 0v1A2.5 2.5 0 0 0 4.5 14h1a.5.5 0 0 0 0-1h-1A1.5 1.5 0 0 1 3 11.5zm11 0a.5.5 0 0 0-1 0v1a1.5 1.5 0 0 1-1.5 1.5h-1a.5.5 0 0 0 0 1h1a2.5 2.5 0 0 0 2.5-2.5zm-9-3a.5.5 0 0 0 0 1h6a.5.5 0 0 0 0-1z" fill="currentColor"/></svg>