<svg xmlns="http://www.w3.org/2000/svg" xmlns:xlink="http://www.w3.org/1999/xlink" viewBox="0 0 48 48"><path d="m39.197 40.965 2.67 2.669a1.25 1.25 0 0 0 1.767-1.768l-37.5-37.5a1.25 1.25 0 1 0-1.768 1.768l2.67 2.67A6.2 6.2 0 0 0 6 12.25v6.5a1.25 1.25 0 1 0 2.5 0v-6.5c0-.579.131-1.127.365-1.617l10.41 10.41-.1.154a4.6 4.6 0 0 1-2.242 1.815l-1.255.477a2.98 2.98 0 0 0-1.873 3.359l.685 3.508a3.49 3.49 0 0 0 2.601 2.717l8.234 2.005a6.01 6.01 0 0 0 6.021-1.964l6.02 6.02a3.7 3.7 0 0 1-1.616.366h-6.5a1.25 1.25 0 1 0 0 2.5h6.5a6.2 6.2 0 0 0 3.447-1.035m-9.63-9.63a3.51 3.51 0 0 1-3.65 1.314l-8.234-2.005a.99.99 0 0 1-.739-.767l-.685-3.508a.48.48 0 0 1 .308-.543l1.255-.477a7.1 7.1 0 0 0 3.255-2.504zm-7.525-14.597 1.81 1.81.287-.446c.325-.505.456-1.153.537-1.598.04-.216.07-.408.1-.589.047-.288.089-.549.152-.833.1-.445.204-.684.288-.798l.024-.031q.006-.005.03-.003h.022c.201 0 .467.091.745.581.29.512.5 1.333.5 2.38 0 .84-.26 1.959-.7 3.323l1.716 1.716H30a5 5 0 0 1 .61.049c.05.006.075.011.083.013.792.2 1.215.915 1.01 1.71l-.485 1.893 2.054 2.053.853-3.324c.545-2.123-.672-4.212-2.818-4.756a5 5 0 0 0-.689-.104A7 7 0 0 0 30 19.75h-1.332c.222-.883.37-1.747.37-2.539 0-1.33-.26-2.615-.827-3.614-.58-1.022-1.562-1.847-2.919-1.847-.924 0-1.625.425-2.085 1.046-.406.548-.6 1.213-.718 1.74a20 20 0 0 0-.2 1.093c-.026.16-.05.308-.072.427a5 5 0 0 1-.115.516c-.029.095-.05.146-.06.166M39.5 34.197l2.438 2.438A6 6 0 0 0 42 35.75v-6.5a1.25 1.25 0 1 0-2.5 0zM11.365 6.062 13.803 8.5h4.947a1.25 1.25 0 1 0 0-2.5h-6.5q-.45 0-.885.062M42 12.25A6.25 6.25 0 0 0 35.75 6h-6.5a1.25 1.25 0 1 0 0 2.5h6.5a3.75 3.75 0 0 1 3.75 3.75v6.5a1.25 1.25 0 1 0 2.5 0zM12.25 42A6.25 6.25 0 0 1 6 35.75v-6.5a1.25 1.25 0 1 1 2.5 0v6.5a3.75 3.75 0 0 0 3.75 3.75h6.5a1.25 1.25 0 1 1 0 2.5z" fill="currentColor"/></svg>