<svg xmlns="http://www.w3.org/2000/svg" viewBox="0 0 48 48"><path fill="currentColor" d="M6 12.25A6.25 6.25 0 0 1 12.25 6h6.5a1.25 1.25 0 1 1 0 2.5h-6.5a3.75 3.75 0 0 0-3.75 3.75v6.5a1.25 1.25 0 1 1-2.5 0zm36 0A6.25 6.25 0 0 0 35.75 6h-6.5a1.25 1.25 0 1 0 0 2.5h6.5a3.75 3.75 0 0 1 3.75 3.75v6.5a1.25 1.25 0 1 0 2.5 0zM12.25 42A6.25 6.25 0 0 1 6 35.75v-6.5a1.25 1.25 0 1 1 2.5 0v6.5a3.75 3.75 0 0 0 3.75 3.75h6.5a1.25 1.25 0 1 1 0 2.5zM42 35.75A6.25 6.25 0 0 1 35.75 42h-6.5a1.25 1.25 0 1 1 0-2.5h6.5a3.75 3.75 0 0 0 3.75-3.75v-6.5a1.25 1.25 0 1 1 2.5 0zm-16.708-24c-.924 0-1.625.425-2.085 1.046-.406.548-.6 1.213-.718 1.74a20 20 0 0 0-.2 1.093c-.026.161-.05.308-.072.427a5 5 0 0 1-.115.516 1 1 0 0 1-.066.177l-2.86 4.448a4.6 4.6 0 0 1-2.243 1.815l-1.255.477a2.98 2.98 0 0 0-1.873 3.359l.685 3.508a3.49 3.49 0 0 0 2.601 2.717l8.234 2.005c3.185.775 6.415-1.141 7.23-4.314l1.57-6.12c.545-2.123-.672-4.212-2.818-4.756a5 5 0 0 0-.689-.104A7 7 0 0 0 30 19.75h-1.332c.222-.883.37-1.747.37-2.539 0-1.33-.26-2.615-.827-3.614-.58-1.022-1.562-1.847-2.919-1.847m-1.153 6.352c.325-.505.456-1.153.537-1.598.04-.216.07-.408.1-.589.047-.288.089-.549.152-.833.1-.445.204-.684.288-.798l.012-.017q.007-.011.012-.014.006-.005.03-.003h.022c.201 0 .467.091.745.581.29.512.5 1.333.5 2.38 0 .857-.27 2.002-.726 3.403a1.25 1.25 0 0 0 1.19 1.636h3a5 5 0 0 1 .61.049l.082.013h.003-.003c.792.2 1.215.915 1.01 1.71l-1.57 6.12c-.471 1.835-2.348 2.962-4.216 2.507l-8.234-2.005a.99.99 0 0 1-.739-.767l-.685-3.508a.48.48 0 0 1 .308-.543l1.255-.477a7.1 7.1 0 0 0 3.456-2.8z"/></svg>