<svg xmlns="http://www.w3.org/2000/svg" xmlns:xlink="http://www.w3.org/1999/xlink" viewBox="0 0 20 20"><path d="M4.5 3A1.5 1.5 0 0 0 3 4.5v2a.5.5 0 0 1-1 0v-2A2.5 2.5 0 0 1 4.5 2h2a.5.5 0 0 1 0 1zM5 17a2 2 0 0 1-2-2v-1.5a.5.5 0 0 0-1 0V15a3 3 0 0 0 3 3h1.5a.5.5 0 0 0 0-1zM17 4.5A1.5 1.5 0 0 0 15.5 3h-2a.5.5 0 0 1 0-1h2A2.5 2.5 0 0 1 18 4.5v2a.5.5 0 0 1-1 0zM6.5 5a.5.5 0 0 0-.5.5v1a.5.5 0 0 0 1 0V6h2.5v6.206a5.5 5.5 0 0 1 1-1.48V6H13v.5a.5.5 0 0 0 1 0v-1a.5.5 0 0 0-.5-.5zM8 14h1.022a5.6 5.6 0 0 0 0 1H8a.5.5 0 0 1 0-1m11 .5a4.5 4.5 0 1 1-9 0 4.5 4.5 0 0 1 9 0m-2.854-1.854L13.5 15.293l-.646-.647a.5.5 0 0 0-.708.708l1 1a.5.5 0 0 0 .708 0l3-3a.5.5 0 0 0-.708-.708" fill="currentColor"/></svg>