<svg xmlns="http://www.w3.org/2000/svg" xmlns:xlink="http://www.w3.org/1999/xlink" viewBox="0 0 20 20"><path d="M3 6a3 3 0 0 1 3-3h1.5a.5.5 0 0 1 0 1H6a2 2 0 0 0-2 2v1.5a.5.5 0 0 1-1 0zm9-2.5a.5.5 0 0 1 .5-.5H14a3 3 0 0 1 3 3v1.5a.5.5 0 0 1-1 0V6a2 2 0 0 0-2-2h-1.5a.5.5 0 0 1-.5-.5M3.5 12a.5.5 0 0 1 .5.5V14a2 2 0 0 0 2 2h1.5a.5.5 0 0 1 0 1H6a3 3 0 0 1-3-3v-1.5a.5.5 0 0 1 .5-.5m13 0a.5.5 0 0 1 .5.5V14a3 3 0 0 1-3 3h-1.5a.5.5 0 0 1 0-1H14a2 2 0 0 0 2-2v-1.5a.5.5 0 0 1 .5-.5M10 11a1 1 0 1 0 0-2 1 1 0 0 0 0 2m-4 1V9a1 1 0 0 1 1-1h1l.703-1.055a1 1 0 0 1 .832-.445h.93a1 1 0 0 1 .832.445L12 8h1a1 1 0 0 1 1 1v3a1 1 0 0 1-1 1H7a1 1 0 0 1-1-1m6-2a2 2 0 1 0-4 0 2 2 0 0 0 4 0" fill="currentColor"/></svg>