<svg xmlns="http://www.w3.org/2000/svg" xmlns:xlink="http://www.w3.org/1999/xlink" viewBox="0 0 48 48"><path d="m39.197 40.965 2.67 2.669a1.25 1.25 0 0 0 1.767-1.768l-37.5-37.5a1.25 1.25 0 1 0-1.768 1.768l2.67 2.67A6.2 6.2 0 0 0 6 12.25v6.5a1.25 1.25 0 1 0 2.5 0v-6.5c0-.579.131-1.127.365-1.617l10.41 10.41-.1.154a4.6 4.6 0 0 1-2.242 1.815l-1.255.477a2.98 2.98 0 0 0-1.873 3.359l.685 3.508a3.49 3.49 0 0 0 2.601 2.717l8.234 2.005a6.01 6.01 0 0 0 6.021-1.964l6.02 6.02a3.7 3.7 0 0 1-1.616.366h-6.5a1.25 1.25 0 1 0 0 2.5h6.5a6.2 6.2 0 0 0 3.447-1.035M21.996 16.692l11.276 11.276.853-3.324c.545-2.123-.672-4.212-2.818-4.756a5 5 0 0 0-.689-.104A7 7 0 0 0 30 19.75h-1.332c.222-.883.37-1.747.37-2.539 0-1.33-.26-2.615-.827-3.614-.58-1.022-1.562-1.847-2.919-1.847-.896 0-1.536.49-1.94 1.008-.385.494-.632 1.099-.803 1.626a16 16 0 0 0-.4 1.575l-.068.327zM39.5 34.197l2.438 2.438A6 6 0 0 0 42 35.75v-6.5a1.25 1.25 0 1 0-2.5 0zM11.365 6.062 13.803 8.5h4.947a1.25 1.25 0 1 0 0-2.5h-6.5q-.45 0-.885.062M35.75 6A6.25 6.25 0 0 1 42 12.25v6.5a1.25 1.25 0 1 1-2.5 0v-6.5a3.75 3.75 0 0 0-3.75-3.75h-6.5a1.25 1.25 0 1 1 0-2.5zM6 35.75A6.25 6.25 0 0 0 12.25 42h6.5a1.25 1.25 0 1 0 0-2.5h-6.5a3.75 3.75 0 0 1-3.75-3.75v-6.5a1.25 1.25 0 1 0-2.5 0z" fill="currentColor"/></svg>