<svg xmlns="http://www.w3.org/2000/svg" xmlns:xlink="http://www.w3.org/1999/xlink" viewBox="0 0 20 20"><g fill="none"><path d="M3 5.996a1 1 0 0 1 1-1h.5a.5.5 0 1 0 0-1H4a2 2 0 0 0-2 2v.5a.5.5 0 1 0 1 0zm1 8.008a1 1 0 0 1-1-1v-.5a.5.5 0 0 0-1 0v.5a2 2 0 0 0 2 2h.25a.5.5 0 0 0 0-1zM2.5 8a.5.5 0 0 1 .5.5v2a.5.5 0 1 1-1 0v-2a.5.5 0 0 1 .5-.5M17 5.996a1 1 0 0 0-1-1h-.5a.5.5 0 0 1 0-1h.5a2 2 0 0 1 2 2v.5a.5.5 0 0 1-1 0zm0 7.008a1 1 0 0 1-1 1h-.252a.5.5 0 0 0 0 1H16a2 2 0 0 0 2-2v-.5a.5.5 0 0 0-1 0zM17 8.5a.5.5 0 0 1 1 0v2a.5.5 0 1 1-1 0zM6 4.496a.5.5 0 0 1 .5-.5H9a.5.5 0 0 1 0 1H6.5a.5.5 0 0 1-.5-.5m5-.5a.5.5 0 0 0 0 1h2.5a.5.5 0 0 0 0-1zM5 6a1 1 0 0 0-1 1v5a1 1 0 0 0 1 1h2.698l.495-.743-1.949-2.923a1.497 1.497 0 0 1 .42-2.08 1.503 1.503 0 0 1 2.079.42l1.253 1.88 1.253-1.88a1.503 1.503 0 0 1 2.078-.42c.693.457.881 1.39.42 2.08L11.8 12.257l.495.743H15a1 1 0 0 0 1-1V7a1 1 0 0 0-1-1z" fill="currentColor"/><path d="M7.216 8.087a.497.497 0 0 0-.14.692l2.319 3.478-1.238 1.857a2 2 0 1 0 .094 3.744 2 2 0 0 0 .74-3.191l1.005-1.508 1.009 1.513a2 2 0 1 0 .832-.556l-1.24-1.859.002-.003-.601-.901-.002.003L7.91 8.228a.503.503 0 0 0-.694-.14zM12.5 17a1 1 0 1 1 0-2 1 1 0 0 1 0 2m-5 0a1 1 0 1 1 0-2 1 1 0 0 1 0 2m3.099-6.549.6.902 1.717-2.574a.497.497 0 0 0-.14-.692.5.5 0 0 0-.695.14z" fill="currentColor"/></g></svg>