<svg xmlns="http://www.w3.org/2000/svg" viewBox="0 0 20 20"><path fill="currentColor" d="M12.727 12.02a5.5 5.5 0 1 0-9.605-2.364c.183-.285.476-.482.802-.548l.114-.022a4.5 4.5 0 1 1 5.958 3.66c.032.403-.14.797-.453 1.051l-.164.133a5.47 5.47 0 0 0 2.64-1.203l3.906 3.905a.5.5 0 1 0 .707-.707zm-10.837-.7a4 4 0 0 0-.878 1.448.23.23 0 0 0 .075.252l.767.621a.456.456 0 0 1 0 .717l-.767.622a.23.23 0 0 0-.075.252c.182.537.482 1.03.878 1.449.067.07.172.095.266.063l.945-.322a.492.492 0 0 1 .65.359l.181.943a.24.24 0 0 0 .192.188 4.4 4.4 0 0 0 1.752 0 .24.24 0 0 0 .191-.187l.18-.945a.5.5 0 0 1 .65-.359l.947.323a.26.26 0 0 0 .266-.063 4 4 0 0 0 .878-1.45.23.23 0 0 0-.075-.251l-.767-.621a.456.456 0 0 1 0-.717l.767-.622a.23.23 0 0 0 .075-.252 4 4 0 0 0-.878-1.449.26.26 0 0 0-.266-.064l-.945.323a.492.492 0 0 1-.65-.359l-.182-.944a.24.24 0 0 0-.191-.187 4.4 4.4 0 0 0-1.752 0 .24.24 0 0 0-.192.188l-.18.944a.5.5 0 0 1-.65.359l-.946-.323a.26.26 0 0 0-.266.063zM5 15.166c-.672 0-1.217-.522-1.217-1.167S4.328 12.833 5 12.833s1.217.522 1.217 1.167S5.672 15.167 5 15.167z"/></svg>