<svg xmlns="http://www.w3.org/2000/svg" xmlns:xlink="http://www.w3.org/1999/xlink" viewBox="0 0 20 20"><path d="M12.884 11.811a5.501 5.501 0 1 0-9.76-2.159c.183-.283.475-.478.8-.545q.303-.06.611-.087a4 4 0 1 1 5.328 3.23q.039.097.072.197c.17.5-.001 1.033-.392 1.35l-.146.118a5.5 5.5 0 0 0 2.426-1.043L16.1 17.15a.75.75 0 0 0 1.061-1.06zM1.89 11.32a4 4 0 0 0-.878 1.45c-.03.09-.001.19.075.25l.767.622a.456.456 0 0 1 0 .717l-.767.622a.23.23 0 0 0-.075.251 4 4 0 0 0 .878 1.45c.067.07.172.095.266.063l.945-.323a.492.492 0 0 1 .65.359l.181.944a.24.24 0 0 0 .192.188 4.4 4.4 0 0 0 1.752 0 .24.24 0 0 0 .191-.188l.18-.944a.5.5 0 0 1 .65-.359l.947.323a.25.25 0 0 0 .266-.064c.396-.418.696-.911.878-1.449a.23.23 0 0 0-.075-.251l-.767-.622a.456.456 0 0 1 0-.717l.767-.621a.23.23 0 0 0 .075-.252 4 4 0 0 0-.878-1.449.25.25 0 0 0-.266-.064l-.945.323a.492.492 0 0 1-.65-.359l-.182-.944a.24.24 0 0 0-.191-.188 4.4 4.4 0 0 0-1.752 0 .24.24 0 0 0-.192.188l-.18.944a.5.5 0 0 1-.65.359l-.946-.323a.25.25 0 0 0-.266.064M5 15.167c-.672 0-1.217-.523-1.217-1.167 0-.645.545-1.167 1.217-1.167s1.217.522 1.217 1.167c0 .644-.545 1.167-1.217 1.167" fill="currentColor"/></svg>