<svg xmlns="http://www.w3.org/2000/svg" viewBox="0 0 20 20"><path fill="currentColor" d="M18.076 8.617 2.72 1.051a.5.5 0 0 0-.704.577l1.97 7.442-1.969 7.434a.5.5 0 0 0 .704.576l6.304-3.106a5.5 5.5 0 0 1 .267-1.246l-6.027 2.97 1.643-6.206Q4.952 9.5 5 9.5h7l.09-.008A.5.5 0 0 0 12 8.5H5l-.064.004-.062.012-1.61-6.082 13.179 6.494 1.44.681.193-.095a.5.5 0 0 0 0-.897M19 14.5a4.5 4.5 0 1 1-9 0 4.5 4.5 0 0 1 9 0M14.5 12a.5.5 0 0 0-.5.5v2a.5.5 0 0 0 .5.5H16a.5.5 0 0 0 0-1h-1v-1.5a.5.5 0 0 0-.5-.5"/></svg>