<svg xmlns="http://www.w3.org/2000/svg" viewBox="0 0 20 20"><path fill="currentColor" d="M6 9.5a.5.5 0 1 0 0-1 .5.5 0 0 0 0 1M8.5 9a.5.5 0 1 1-1 0 .5.5 0 0 1 1 0M7 11.5a.5.5 0 1 0 0-1 .5.5 0 0 0 0 1m2.5-.5a.5.5 0 1 1-1 0 .5.5 0 0 1 1 0m1.5.5a.5.5 0 1 0 0-1 .5.5 0 0 0 0 1m2.5-.5a.5.5 0 1 1-1 0 .5.5 0 0 1 1 0M10 9.5a.5.5 0 1 0 0-1 .5.5 0 0 0 0 1m2.5-.5a.5.5 0 1 1-1 0 .5.5 0 0 1 1 0m1.5.5a.5.5 0 1 0 0-1 .5.5 0 0 0 0 1M4.77 6a2.5 2.5 0 0 0-2.436 3.067l.699 3A2.5 2.5 0 0 0 5.468 14h9.062a2.5 2.5 0 0 0 2.434-1.932l.7-3A2.5 2.5 0 0 0 15.23 6zM3.307 8.84A1.5 1.5 0 0 1 4.77 7h10.46c.967 0 1.68.9 1.461 1.84l-.7 3A1.5 1.5 0 0 1 14.53 13H5.468a1.5 1.5 0 0 1-1.461-1.16z"/></svg>