<svg xmlns="http://www.w3.org/2000/svg" xmlns:xlink="http://www.w3.org/1999/xlink" viewBox="0 0 20 20"><path d="M2.334 9.067A2.5 2.5 0 0 1 4.77 6h10.46a2.5 2.5 0 0 1 2.435 3.068l-.7 3A2.5 2.5 0 0 1 14.53 14H5.468a2.5 2.5 0 0 1-2.435-1.933zM6 9.5a.5.5 0 1 0 0-1 .5.5 0 0 0 0 1M8.5 9a.5.5 0 1 0-1 0 .5.5 0 0 0 1 0M7 11.5a.5.5 0 1 0 0-1 .5.5 0 0 0 0 1m2.5-.5a.5.5 0 1 0-1 0 .5.5 0 0 0 1 0m1.5.5a.5.5 0 1 0 0-1 .5.5 0 0 0 0 1m2.5-.5a.5.5 0 1 0-1 0 .5.5 0 0 0 1 0M10 9.5a.5.5 0 1 0 0-1 .5.5 0 0 0 0 1m2.5-.5a.5.5 0 1 0-1 0 .5.5 0 0 0 1 0m1.5.5a.5.5 0 1 0 0-1 .5.5 0 0 0 0 1" fill="currentColor"/></svg>