<svg xmlns="http://www.w3.org/2000/svg" xmlns:xlink="http://www.w3.org/1999/xlink" viewBox="0 0 24 24"><path d="M2.232 10.386a2.75 2.75 0 0 1 2.675-3.387h14.184a2.75 2.75 0 0 1 2.675 3.388l-1.074 4.502A2.75 2.75 0 0 1 18.017 17H5.98a2.75 2.75 0 0 1-2.676-2.113l-1.071-4.501zM7 11.5A.75.75 0 1 0 7 10a.75.75 0 0 0 0 1.5m3.25-.75a.75.75 0 1 0-1.5 0 .75.75 0 0 0 1.5 0m-2 3.25a.75.75 0 1 0 0-1.5.75.75 0 0 0 0 1.5m3.25-.75a.75.75 0 1 0-1.5 0 .75.75 0 0 0 1.5 0m1.75.75a.75.75 0 1 0 0-1.5.75.75 0 0 0 0 1.5m3.25-.75a.75.75 0 1 0-1.5 0 .75.75 0 0 0 1.5 0M12 11.5a.75.75 0 1 0 0-1.5.75.75 0 0 0 0 1.5m3.25-.75a.75.75 0 1 0-1.5 0 .75.75 0 0 0 1.5 0m1.75.75a.75.75 0 1 0 0-1.5.75.75 0 0 0 0 1.5" fill="currentColor"/></svg>