<svg xmlns="http://www.w3.org/2000/svg" xmlns:xlink="http://www.w3.org/1999/xlink" viewBox="0 0 24 24"><path d="M12.013 2.25c.734.008 1.465.093 2.181.253a.75.75 0 0 1 .582.649l.17 1.527a1.384 1.384 0 0 0 1.928 1.116l1.4-.615a.75.75 0 0 1 .85.174 9.8 9.8 0 0 1 2.204 3.792.75.75 0 0 1-.271.825l-1.242.916a1.38 1.38 0 0 0 .001 2.226l1.243.915a.75.75 0 0 1 .271.826 9.8 9.8 0 0 1-2.203 3.792.75.75 0 0 1-.849.175l-1.406-.617a1.38 1.38 0 0 0-1.927 1.114l-.169 1.526a.75.75 0 0 1-.572.647 9.5 9.5 0 0 1-4.405 0 .75.75 0 0 1-.572-.647l-.17-1.524a1.382 1.382 0 0 0-1.924-1.11l-1.407.616a.75.75 0 0 1-.849-.175 9.8 9.8 0 0 1-2.203-3.796.75.75 0 0 1 .271-.826l1.244-.916a1.38 1.38 0 0 0 0-2.226l-1.243-.914a.75.75 0 0 1-.272-.826 9.8 9.8 0 0 1 2.205-3.792.75.75 0 0 1 .849-.174l1.4.615a1.387 1.387 0 0 0 1.93-1.118l.17-1.526a.75.75 0 0 1 .583-.65q1.076-.238 2.202-.252M12 9a3 3 0 1 0 0 6 3 3 0 0 0 0-6" fill="currentColor"/></svg>