<svg xmlns="http://www.w3.org/2000/svg" xmlns:xlink="http://www.w3.org/1999/xlink" viewBox="0 0 20 20"><path d="M1.91 7.383a8.5 8.5 0 0 1 1.78-3.08.5.5 0 0 1 .54-.135l1.918.686a1 1 0 0 0 1.32-.762l.366-2.006a.5.5 0 0 1 .388-.4 8.5 8.5 0 0 1 3.555 0 .5.5 0 0 1 .387.4l.367 2.006a1 1 0 0 0 1.32.762l1.918-.686a.5.5 0 0 1 .54.136 8.5 8.5 0 0 1 1.78 3.079.5.5 0 0 1-.152.535l-1.555 1.32a1 1 0 0 0-.072.067 5.5 5.5 0 0 0-1.043-.252c.115-.214.271-.41.468-.578l1.294-1.098a7.5 7.5 0 0 0-1.245-2.152l-1.596.57a2 2 0 0 1-2.64-1.524l-.306-1.669a7.6 7.6 0 0 0-2.485 0l-.304 1.669a2 2 0 0 1-2.641 1.525l-1.596-.571a7.5 7.5 0 0 0-1.245 2.152l1.294 1.098a2 2 0 0 1 0 3.05L2.97 12.623a7.5 7.5 0 0 0 1.245 2.152l1.596-.57a2 2 0 0 1 2.64 1.525l.305 1.668q.26.042.522.068l-.217.713a1.5 1.5 0 0 0-.054.264 9 9 0 0 1-.786-.13.5.5 0 0 1-.388-.399l-.365-2.006a1 1 0 0 0-1.32-.762l-1.919.686a.5.5 0 0 1-.54-.136 8.5 8.5 0 0 1-1.78-3.079.5.5 0 0 1 .153-.535l1.554-1.32a1 1 0 0 0 0-1.524l-1.554-1.32a.5.5 0 0 1-.153-.535zM10.012 18.5a.41.41 0 0 0 .518.481l1.79-.544a4.5 4.5 0 1 0 .133-7.945 4.52 4.52 0 0 0-1.96 1.96A4.5 4.5 0 0 0 10 14.5c0 .792.204 1.536.563 2.182l-.247.811-.297.978zM14.5 15a.5.5 0 0 1 0 1h-2a.5.5 0 0 1 0-1zm2-1h-4a.5.5 0 0 1 0-1h4a.499.499 0 1 1 0 1M10 7.5a2.5 2.5 0 0 1 2.428 1.904q-.493.2-.932.488a1.5 1.5 0 1 0-1.604 1.604 5.5 5.5 0 0 0-.489.932A2.501 2.501 0 0 1 10 7.5" fill="currentColor"/></svg>