<svg xmlns="http://www.w3.org/2000/svg" xmlns:xlink="http://www.w3.org/1999/xlink" viewBox="0 0 20 20"><path d="M1.91 7.383a8.5 8.5 0 0 1 1.78-3.08.5.5 0 0 1 .54-.135l1.918.686a1 1 0 0 0 1.32-.762l.366-2.006a.5.5 0 0 1 .388-.4 8.5 8.5 0 0 1 3.555 0 .5.5 0 0 1 .387.4l.367 2.006a1 1 0 0 0 1.32.762l1.918-.686a.5.5 0 0 1 .54.136 8.5 8.5 0 0 1 1.78 3.079.5.5 0 0 1-.152.535l-1.555 1.32a1 1 0 0 0 0 1.524l1.555 1.32a.5.5 0 0 1 .152.535 8.5 8.5 0 0 1-1.78 3.08.5.5 0 0 1-.54.135l-1.918-.686a1 1 0 0 0-1.32.762l-.367 2.007a.5.5 0 0 1-.387.399 8.5 8.5 0 0 1-3.555 0 .5.5 0 0 1-.388-.4l-.365-2.006a1 1 0 0 0-1.32-.762l-1.919.686a.5.5 0 0 1-.54-.136 8.5 8.5 0 0 1-1.78-3.079.5.5 0 0 1 .153-.535l1.554-1.32a1 1 0 0 0 0-1.524l-1.554-1.32a.5.5 0 0 1-.153-.535m1.061-.006 1.294 1.098a2 2 0 0 1 0 3.05L2.97 12.623a7.5 7.5 0 0 0 1.245 2.152l1.596-.57a2 2 0 0 1 2.64 1.525l.305 1.668a7.6 7.6 0 0 0 2.485 0l.305-1.67a1.998 1.998 0 0 1 2.64-1.524l1.597.571a7.5 7.5 0 0 0 1.245-2.152l-1.294-1.098a1.998 1.998 0 0 1 0-3.05l1.294-1.098a7.5 7.5 0 0 0-1.245-2.152l-1.596.57a2 2 0 0 1-2.64-1.524l-.306-1.669a7.6 7.6 0 0 0-2.485 0l-.304 1.669a2 2 0 0 1-2.641 1.525l-1.596-.571A7.5 7.5 0 0 0 2.97 7.377zM7.5 10a2.5 2.5 0 1 1 5 0 2.5 2.5 0 0 1-5 0m1 0a1.5 1.5 0 1 0 3 0 1.5 1.5 0 0 0-3 0" fill="currentColor"/></svg>