<svg xmlns="http://www.w3.org/2000/svg" xmlns:xlink="http://www.w3.org/1999/xlink" viewBox="0 0 24 24"><path d="M12.013 2.25c.734.008 1.465.093 2.181.253a.75.75 0 0 1 .582.649l.17 1.527a1.384 1.384 0 0 0 1.928 1.116l1.4-.615a.75.75 0 0 1 .85.174 9.8 9.8 0 0 1 2.204 3.792.75.75 0 0 1-.271.825l-1.242.916a1.4 1.4 0 0 0-.37.409 6.5 6.5 0 0 0-1.52-.282 2.9 2.9 0 0 1 1.001-1.336l.797-.587a8.3 8.3 0 0 0-1.348-2.317l-.896.393a2.884 2.884 0 0 1-4.023-2.324l-.11-.976a9 9 0 0 0-1.333-.117 9 9 0 0 0-1.355.117l-.109.977A2.886 2.886 0 0 1 6.525 7.17l-.898-.394a8.3 8.3 0 0 0-1.348 2.317l.798.587a2.88 2.88 0 0 1 0 4.643l-.798.588c.32.842.775 1.626 1.347 2.322l.906-.397a2.882 2.882 0 0 1 4.017 2.318l.108.984q.471.08.947.103l.01.024-.44 1.45a9.5 9.5 0 0 1-1.375-.223.75.75 0 0 1-.572-.647l-.17-1.524a1.382 1.382 0 0 0-1.924-1.11l-1.407.616a.75.75 0 0 1-.849-.175 9.8 9.8 0 0 1-2.203-3.796.75.75 0 0 1 .271-.826l1.244-.916a1.38 1.38 0 0 0 0-2.226l-1.243-.914a.75.75 0 0 1-.272-.826 9.8 9.8 0 0 1 2.205-3.792.75.75 0 0 1 .849-.174l1.4.615a1.387 1.387 0 0 0 1.93-1.118l.17-1.526a.75.75 0 0 1 .583-.65q1.076-.238 2.202-.252zm5.74 9.756a5.504 5.504 0 0 1 5.25 5.496 5.5 5.5 0 0 1-8.169 4.812l-2.187.666a.5.5 0 0 1-.624-.625l.666-2.186a5.501 5.501 0 0 1 5.063-8.163zM17.5 18h-2a.5.5 0 0 0-.395.807.5.5 0 0 0 .395.194h2a.5.5 0 1 0 0-1zm-2-1h4a.5.5 0 1 0 0-1h-4a.5.5 0 0 0-.365.841.5.5 0 0 0 .365.16zM12 8.25a3.75 3.75 0 0 1 3.676 3.01 6.5 6.5 0 0 0-1.43.612 2.25 2.25 0 1 0-2.375 2.374 6.5 6.5 0 0 0-.612 1.43A3.751 3.751 0 0 1 12 8.25" fill="currentColor"/></svg>