<svg xmlns="http://www.w3.org/2000/svg" xmlns:xlink="http://www.w3.org/1999/xlink" viewBox="0 0 28 28"><path d="M13.55 2.15a.75.75 0 0 1 .891-.006c1.95 1.42 4.345 2.265 6.287 2.754.965.243 1.805.395 2.402.486a20 20 0 0 0 .877.113l.045.005h.012a.75.75 0 0 1 .686.748V13q0 .626-.073 1.27a7.5 7.5 0 0 0-1.441-.755q.015-.26.014-.515V6.917l-.346-.05a27 27 0 0 1-2.543-.515c-1.89-.476-4.282-1.295-6.356-2.684-1.334.912-2.843 1.574-4.265 2.055A27.7 27.7 0 0 1 4.5 6.921v5.829c0 3.486 1.891 7.482 6 10.067A16.3 16.3 0 0 0 14 24.46l.107-.036q.417.676.962 1.249-.41.154-.84.291a.75.75 0 0 1-.458 0C6.476 23.619 3 17.843 3 12.75v-6.5c0-.39.3-.716.69-.748h.005l.02-.002.085-.008a25 25 0 0 0 1.569-.218 26 26 0 0 0 3.89-.972c1.495-.505 3.024-1.202 4.291-2.152M27 20.5a6.5 6.5 0 1 1-13 0 6.5 6.5 0 0 1 13 0m-2.646-2.854a.5.5 0 0 0-.708 0L19 22.293l-1.646-1.647a.5.5 0 0 0-.708.708l2 2a.5.5 0 0 0 .708 0l5-5a.5.5 0 0 0 0-.708" fill="currentColor"/></svg>