<svg xmlns="http://www.w3.org/2000/svg" xmlns:xlink="http://www.w3.org/1999/xlink" viewBox="0 0 28 28"><path d="M14.441 2.144a.75.75 0 0 0-.891.006c-1.406 1.055-3.134 1.796-4.774 2.31a26.7 26.7 0 0 1-4.989 1.033l-.075.008-.018.001H3.69a.75.75 0 0 0-.69.749v6.499c0 5.093 3.476 10.87 10.77 13.214a.75.75 0 0 0 .46 0q.429-.139.84-.291a7.5 7.5 0 0 1 9.608-11.402q.072-.645.072-1.271V6.25a.75.75 0 0 0-.686-.747h-.002l-.01-.001-.045-.005-.182-.02c-.16-.018-.397-.048-.695-.093a26 26 0 0 1-2.402-.486c-1.942-.49-4.337-1.335-6.287-2.754M27 20.5a6.5 6.5 0 1 0-13 0 6.5 6.5 0 0 0 13 0m-2.646-2.854a.5.5 0 0 1 0 .708l-5 5a.5.5 0 0 1-.708 0l-2-2a.5.5 0 0 1 .708-.708L19 22.293l4.646-4.647a.5.5 0 0 1 .708 0" fill="currentColor"/></svg>