<svg xmlns="http://www.w3.org/2000/svg" viewBox="0 0 28 28"><path fill="currentColor" d="M13.55 2.15a.75.75 0 0 1 .891-.006c1.95 1.42 4.345 2.265 6.287 2.754.965.243 1.805.395 2.402.486a20 20 0 0 0 .877.113l.045.005h.012a.75.75 0 0 1 .686.748V13c0 .5-.035 1.012-.105 1.528a4 4 0 0 0-1.403-1.13q.008-.2.008-.398V6.917l-.346-.05a27 27 0 0 1-2.543-.515c-1.89-.476-4.282-1.295-6.356-2.684-1.334.912-2.843 1.574-4.265 2.055A27.7 27.7 0 0 1 4.5 6.921v5.829c0 4.357 2.954 9.51 9.5 11.71q.516-.173 1-.37V25q0 .346.075.67-.413.155-.845.294a.75.75 0 0 1-.46 0C6.478 23.619 3 17.843 3 12.75v-6.5c0-.39.3-.716.69-.748h.005l.02-.002.085-.008a25 25 0 0 0 1.569-.218 26 26 0 0 0 3.89-.972c1.495-.505 3.024-1.202 4.291-2.152M18.5 18v-1a3 3 0 1 1 6 0v1h.5a2 2 0 0 1 2 2v5a2 2 0 0 1-2 2h-7a2 2 0 0 1-2-2v-5a2 2 0 0 1 2-2zm1.5-1v1h3v-1a1.5 1.5 0 0 0-3 0m3 5.5a1.5 1.5 0 1 0-3 0 1.5 1.5 0 0 0 3 0"/></svg>