<svg xmlns="http://www.w3.org/2000/svg" viewBox="0 0 16 16"><path fill="currentColor" d="M8 5a.5.5 0 0 1 .5.5v3a.5.5 0 0 1-1 0v-3A.5.5 0 0 1 8 5m0 6.5A.75.75 0 1 0 8 10a.75.75 0 0 0 0 1.5m-.857-9.458a8.3 8.3 0 0 1-1.718.875 9.3 9.3 0 0 1-2.7.576l-.17.007h-.05A.5.5 0 0 0 2 4v2.755a7.5 7.5 0 0 0 3.685 6.457l2.062 1.219a.5.5 0 0 0 .509 0l2.06-1.218A7.5 7.5 0 0 0 14 6.756V4a.5.5 0 0 0-.508-.5h-.05a8 8 0 0 1-.804-.064 9 9 0 0 1-2.051-.518 8.7 8.7 0 0 1-1.724-.88 5 5 0 0 1-.4-.297 2 2 0 0 1-.111-.098.5.5 0 0 0-.706.005l-.109.097c-.082.07-.213.173-.394.297M3 6.755V4.477a10.3 10.3 0 0 0 2.78-.626 9.3 9.3 0 0 0 1.926-.983 6 6 0 0 0 .298-.215q.128.096.3.214c.424.285 1.058.65 1.922.983A10 10 0 0 0 13 4.48v2.277a6.5 6.5 0 0 1-3.193 5.596L8.001 13.42l-1.807-1.068A6.5 6.5 0 0 1 3 6.755"/></svg>