<svg xmlns="http://www.w3.org/2000/svg" viewBox="0 0 28 28"><path fill="currentColor" d="M19.772 10.289a.75.75 0 0 0-1.044-1.078l-7.244 7.01-2.23-2.026a.75.75 0 0 0-1.008 1.11l2.75 2.5a.75.75 0 0 0 1.026-.016zm-5.33-8.145a.75.75 0 0 0-.892.006C12.208 3.156 10.573 3.878 9 4.389A26.5 26.5 0 0 1 3.712 5.5l-.019.002H3.69a.75.75 0 0 0-.69.749v6.499c0 5.093 3.476 10.87 10.77 13.214a.75.75 0 0 0 .46 0C21.537 23.615 24.75 17.829 24.75 13V6.25a.75.75 0 0 0-.686-.747h-.002l-.01-.001-.045-.005-.182-.02c-.16-.018-.397-.048-.695-.093a26 26 0 0 1-2.402-.486c-1.942-.49-4.337-1.335-6.287-2.754zM4.5 12.75V6.921a28 28 0 0 0 4.962-1.106c1.503-.487 3.122-1.176 4.543-2.147 2.074 1.39 4.466 2.208 6.356 2.684a27 27 0 0 0 2.889.565V13c0 4.123-2.723 9.265-9.25 11.46-6.546-2.2-9.5-7.353-9.5-11.71"/></svg>