<svg xmlns="http://www.w3.org/2000/svg" viewBox="0 0 28 28"><path fill="currentColor" d="M13.55 2.15a.75.75 0 0 1 .891-.006c1.95 1.42 4.345 2.265 6.287 2.754.965.243 1.805.395 2.402.486a20 20 0 0 0 .877.113l.045.005h.012a.75.75 0 0 1 .686.748V13c0 4.829-3.213 10.615-10.52 12.964a.75.75 0 0 1-.46 0C6.478 23.619 3 17.843 3 12.75v-6.5c0-.39.3-.716.69-.748h.013l.048-.005.194-.02c.17-.019.422-.049.737-.094.63-.091 1.513-.244 2.516-.487 2.023-.49 4.471-1.335 6.352-2.746m6.222 8.139a.75.75 0 0 0-1.044-1.078l-7.244 7.01-2.23-2.026a.75.75 0 0 0-1.008 1.11l2.75 2.5a.75.75 0 0 0 1.026-.016z"/></svg>