<svg xmlns="http://www.w3.org/2000/svg" viewBox="0 0 28 28"><path fill="currentColor" d="M14.441 2.144a.75.75 0 0 0-.891.006c-1.406 1.055-3.134 1.796-4.774 2.31a26.7 26.7 0 0 1-4.989 1.033l-.075.008-.018.001H3.69a.75.75 0 0 0-.69.749v6.499c0 5.093 3.476 10.87 10.77 13.214a.75.75 0 0 0 .46 0q.432-.139.845-.294A3 3 0 0 1 15 25v-5a3 3 0 0 1 2.5-2.959V17a4 4 0 0 1 7.145-2.472q.105-.775.105-1.528V6.25a.75.75 0 0 0-.686-.747h-.002l-.01-.001-.045-.005-.182-.02c-.16-.018-.397-.048-.695-.093a26 26 0 0 1-2.402-.486c-1.942-.49-4.337-1.335-6.287-2.754M18.5 18v-1a3 3 0 1 1 6 0v1h.5a2 2 0 0 1 2 2v5a2 2 0 0 1-2 2h-7a2 2 0 0 1-2-2v-5a2 2 0 0 1 2-2zm1.5-1v1h3v-1a1.5 1.5 0 0 0-3 0m3 5.5a1.5 1.5 0 1 0-3 0 1.5 1.5 0 0 0 3 0"/></svg>