<svg xmlns="http://www.w3.org/2000/svg" viewBox="0 0 20 20"><path fill="currentColor" d="M10.002 2.483a.5.5 0 0 1-.466.532 7 7 0 1 0 7.449 7.447.5.5 0 1 1 .998.065 8 8 0 1 1-8.512-8.51.5.5 0 0 1 .531.466m1.005.067a.5.5 0 0 1 .59-.391q.841.171 1.608.509a.5.5 0 1 1-.4.916 7 7 0 0 0-1.407-.445.5.5 0 0 1-.39-.59zm6.329 4.253a.5.5 0 1 0-.917.4q.293.665.441 1.397a.5.5 0 0 0 .98-.2 8 8 0 0 0-.504-1.597m-2.921-2.888a.5.5 0 0 1 .704-.063q.584.486 1.067 1.074a.5.5 0 1 1-.773.635 7 7 0 0 0-.934-.941.5.5 0 0 1-.064-.705M10 5.5a.5.5 0 0 0-1 0v5a.5.5 0 0 0 .5.5h3a.5.5 0 1 0 0-1H10z"/></svg>