<svg xmlns="http://www.w3.org/2000/svg" viewBox="0 0 20 20"><path fill="currentColor" d="M9.997 2.707a.75.75 0 0 1-.67.822 6.506 6.506 0 1 0 7.144 7.145.75.75 0 1 1 1.492.153 8.006 8.006 0 1 1-8.788-8.79.75.75 0 0 1 .822.67m1.02-.066a.75.75 0 0 1 .905-.555q.568.136 1.103.35a.75.75 0 0 1-.555 1.393 7 7 0 0 0-.898-.284.75.75 0 0 1-.554-.904zm6.547 4.333a.75.75 0 0 0-1.394.555q.173.436.285.898a.75.75 0 1 0 1.459-.35 8 8 0 0 0-.35-1.103M14.29 3.926a.75.75 0 0 1 1.058-.073q.461.401.858.867a.75.75 0 0 1-1.143.972 7 7 0 0 0-.7-.708.75.75 0 0 1-.073-1.058M10 5.75a.75.75 0 0 0-1.5 0v5c0 .415.336.75.75.75h3a.75.75 0 1 0 0-1.5H10z"/></svg>