<svg xmlns="http://www.w3.org/2000/svg" xmlns:xlink="http://www.w3.org/1999/xlink" viewBox="0 0 24 24"><path d="M6.5 12a5.5 5.5 0 1 1 0 11 5.5 5.5 0 0 1 0-11m11.25-9A3.25 3.25 0 0 1 21 6.25v11.5A3.25 3.25 0 0 1 17.75 21l-5.773.001a6.5 6.5 0 0 0 .71-1.5l5.063-.001a1.75 1.75 0 0 0 1.75-1.75V6.25a1.75 1.75 0 0 0-1.75-1.75H6.25A1.75 1.75 0 0 0 4.5 6.25v5.064a6.5 6.5 0 0 0-1.501.709L3 6.25A3.25 3.25 0 0 1 6.25 3zM6.5 17.5h-3a.5.5 0 0 0-.492.41L3 18v.496c0 .994.757 1.498 2 1.498 1.181 0 1.923-.454 1.994-1.352L7 18.497V18a.5.5 0 0 0-.5-.5m3.02-.014-1.61-.001q.065.181.084.38L8 18v.497l-.007.212q-.03.414-.168.755.201.02.425.02c1.026 0 1.693-.32 1.764-1.035l.006-.13v-.333a.5.5 0 0 0-.41-.492zM5 14.5a1.002 1.002 0 1 0 0 2.003A1.002 1.002 0 0 0 5 14.5m3.13.257a.873.873 0 1 0 0 1.747.873.873 0 0 0 0-1.747M11.75 6a.75.75 0 0 1 .743.648l.007.102V12h3.748a.75.75 0 0 1 .102 1.493l-.102.007H11.75a1 1 0 0 1-.139-.013 6 6 0 0 0-.606-.673L11 12.75v-6a.75.75 0 0 1 .75-.75" fill="currentColor"/></svg>