<svg xmlns="http://www.w3.org/2000/svg" viewBox="0 0 20 20"><path fill="currentColor" d="M6 6V4.5q0-.516.195-.969.195-.46.539-.797.336-.344.797-.539Q7.984 2 8.5 2q.421 0 .805.133.384.134.703.375A2.44 2.44 0 0 1 11.5 2a2.48 2.48 0 0 1 2.305 1.531Q14 3.984 14 4.5V6h1a1 1 0 0 1 1 1v8q0 .625-.234 1.172-.234.539-.641.953-.27.264-.594.456l-.59-.256-.495-.221-.212-.117-.222-.165-.241-.212-.268-.286A1.95 1.95 0 0 1 12 15V6h1V4.5q0-.312-.117-.586A1.48 1.48 0 0 0 11.5 3q-.46 0-.828.258A2.5 2.5 0 0 1 11 4.5V15a2.95 2.95 0 0 0 .766 2l.309.33.308.27.309.23L13 18H7a3 3 0 0 1-2.117-.875 3.1 3.1 0 0 1-.648-.953A2.9 2.9 0 0 1 4 15V7a1 1 0 0 1 1-1zm1 0h3V4.5q0-.312-.117-.586A1.48 1.48 0 0 0 8.5 3q-.312 0-.586.117A1.48 1.48 0 0 0 7 4.5z"/></svg>