<svg xmlns="http://www.w3.org/2000/svg" xmlns:xlink="http://www.w3.org/1999/xlink" viewBox="0 0 24 25"><path d="M7 7.5v-2a3 3 0 0 1 5-2.236A3 3 0 0 1 17 5.5v2h1.5A1.5 1.5 0 0 1 20 9v2.998a6.5 6.5 0 0 0-2.5-.498 6.5 6.5 0 0 0-3 .732V7.5h1v-2a1.5 1.5 0 0 0-2.656-.956c.101.3.156.622.156.956v7.81A6.48 6.48 0 0 0 11 18c0 1.747.689 3.332 1.81 4.5H8a4 4 0 0 1-4-4V9a1.5 1.5 0 0 1 1.5-1.5zm1.5-2v2h3v-2a1.5 1.5 0 0 0-3 0M23 18a5.5 5.5 0 1 1-11 0 5.5 5.5 0 0 1 11 0m-7.5-3a.5.5 0 0 0-.5.5v5a.5.5 0 0 0 1 0v-5a.5.5 0 0 0-.5-.5m4 0a.5.5 0 0 0-.5.5v5a.5.5 0 0 0 1 0v-5a.5.5 0 0 0-.5-.5" fill="currentColor"/></svg>