<svg xmlns="http://www.w3.org/2000/svg" viewBox="0 0 20 20"><path fill="currentColor" d="M15 6h.5A2.5 2.5 0 0 1 18 8.5v6a2.5 2.5 0 0 1-2.5 2.5h-5.379l-1-1H15.5a1.5 1.5 0 0 0 1.5-1.5v-6A1.5 1.5 0 0 0 15.5 7h-8A1.5 1.5 0 0 0 6 8.5v.756a4.5 4.5 0 0 0-1-.229V8.5A2.5 2.5 0 0 1 7.5 6H14v-.5A1.5 1.5 0 0 0 12.5 4h-8A1.5 1.5 0 0 0 3 5.5v3.756a4.5 4.5 0 0 0-1 .502V5.5A2.5 2.5 0 0 1 4.5 3h8A2.5 2.5 0 0 1 15 5.5zM4.5 17c.786 0 1.512-.26 2.096-.697l2.55 2.55a.5.5 0 0 0 .707-.707l-2.55-2.55A3.5 3.5 0 1 0 4.5 17m0-1a2.5 2.5 0 1 1 0-5 2.5 2.5 0 0 1 0 5"/></svg>