<svg xmlns="http://www.w3.org/2000/svg" xmlns:xlink="http://www.w3.org/1999/xlink" viewBox="0 0 24 24"><path d="M14.5 2a2 2 0 0 1 1.79 1.105 3.5 3.5 0 0 0-.231 2.037A4 4 0 0 0 15 5H9a4 4 0 0 0-1.5.29V4a2 2 0 0 1 2-2zm.5 4c.589 0 1.138.17 1.602.463.25.368.567.686.935.935A3 3 0 0 1 18 9v1a1 1 0 0 1 1 1v1a1 1 0 0 1-1 1v2a3 3 0 0 1-3 3H9a3 3 0 0 1-3-3V9a3 3 0 0 1 3-3zM9 19a4 4 0 0 1-1.5-.29V20a2 2 0 0 0 2 2h5a2 2 0 0 0 2-2v-1.29A4 4 0 0 1 15 19zM22 4.5a2.5 2.5 0 1 0-5 0 2.5 2.5 0 0 0 5 0" fill="currentColor"/></svg>