<svg xmlns="http://www.w3.org/2000/svg" viewBox="0 0 48 48"><path fill="currentColor" d="M17.457 31.51a2.67 2.67 0 0 0 3.08.008c.405-.288.723-.682.917-1.139l1.236-3.769a6.16 6.16 0 0 1 3.9-3.9l3.631-1.183a2.67 2.67 0 0 0 0-5.036l-3.7-1.193a6.18 6.18 0 0 1-3.895-3.888l-1.179-3.629a2.66 2.66 0 0 0-.976-1.291 2.71 2.71 0 0 0-3.085 0 2.68 2.68 0 0 0-.987 1.32l-1.193 3.667a6.17 6.17 0 0 1-3.796 3.818l-3.627 1.178a2.67 2.67 0 0 0 .03 5.047l3.587 1.165a6.19 6.19 0 0 1 3.902 3.91l1.18 3.623c.183.521.524.973.976 1.292zm15.419 9.132c.329.233.721.358 1.124.359l.005.003a1.95 1.95 0 0 0 1.844-1.328l.569-1.75a2.38 2.38 0 0 1 1.499-1.502l1.79-.582a1.947 1.947 0 0 0 .94-2.958 1.96 1.96 0 0 0-1.005-.73l-1.757-.569a2.37 2.37 0 0 1-1.5-1.5l-.582-1.789a1.944 1.944 0 0 0-3.679.03l-.572 1.757a2.38 2.38 0 0 1-1.46 1.495l-1.79.582a1.944 1.944 0 0 0 .029 3.677l1.752.57a2.37 2.37 0 0 1 1.5 1.506l.582 1.788c.134.38.382.709.71.941z"/></svg>