<svg xmlns="http://www.w3.org/2000/svg" viewBox="0 0 24 24"><path fill="currentColor" d="M12.92 3.316C13.726 2.6 15 3.172 15 4.25v15.496c0 1.079-1.274 1.651-2.08.934l-4.492-3.994a.75.75 0 0 0-.498-.189H4.25A2.25 2.25 0 0 1 2 14.247V9.749A2.25 2.25 0 0 1 4.25 7.5h3.68a.75.75 0 0 0 .498-.19l4.491-3.993zm.58 1.491L9.425 8.431a2.25 2.25 0 0 1-1.495.568H4.25a.75.75 0 0 0-.75.75v4.498c0 .414.336.75.75.75h3.68a2.25 2.25 0 0 1 1.495.569l4.075 3.623zm2.999 3.443a.75.75 0 0 1 .75-.75h3.503a.75.75 0 0 1 .75.75v1.797a.75.75 0 0 1 .498.707v5a.75.75 0 0 1-.75.75h-.236v2.746a.75.75 0 0 1-1.5 0v-2.746h-.982v2.746a.75.75 0 0 1-1.5 0v-2.746h-.282a.75.75 0 0 1-.75-.75v-5a.75.75 0 0 1 .499-.707zm4.001 3.254h-3v3.5h3zM17.999 9v1h2.003V9z"/></svg>