<svg xmlns="http://www.w3.org/2000/svg" xmlns:xlink="http://www.w3.org/1999/xlink" viewBox="0 0 48 48"><path d="M25.081 6.419C26.208 5.408 28 6.207 28 7.72v32.56c0 1.514-1.792 2.313-2.919 1.302l-8.206-7.366A4.75 4.75 0 0 0 13.702 33H9a5.25 5.25 0 0 1-5.25-5.25v-7.5C3.75 17.35 6.1 15 9 15h4.702a4.75 4.75 0 0 0 3.173-1.216zm11.257 1.977a1.25 1.25 0 0 1 1.766-.058l.011.01-.01-.01.001.002.003.002.006.006.019.018.06.058a15 15 0 0 1 .885.991 20.4 20.4 0 0 1 2.015 3.006C42.552 15.059 44 18.953 44 24s-1.448 8.94-2.906 11.58a20.4 20.4 0 0 1-2.016 3.004 15 15 0 0 1-.885.992l-.06.058-.018.018-.006.006-.003.002v.001s.66-.661-.002 0a1.25 1.25 0 0 1-1.711-1.822l.002-.001.003-.003.032-.032.147-.15c.131-.14.326-.356.563-.648a18 18 0 0 0 1.766-2.635C40.198 32.034 41.5 28.553 41.5 24s-1.302-8.034-2.594-10.37a18 18 0 0 0-1.766-2.636 12 12 0 0 0-.71-.798l-.032-.032-.003-.003-.002-.002a1.25 1.25 0 0 1-.055-1.764zM32.334 14.4a1.25 1.25 0 0 1 1.767-.066l.064.062-.064-.06h.001l.002.002.005.005.014.012.042.041a10 10 0 0 1 .59.644c.365.436.846 1.072 1.325 1.893A14 14 0 0 1 38 24c0 3.023-.963 5.426-1.92 7.068-.48.82-.96 1.457-1.326 1.893a10 10 0 0 1-.59.644l-.019.019-.022.021-.014.013-.005.005-.003.003.008-.008-.008.008a1.25 1.25 0 0 1-1.705-1.828l.002-.002.016-.016.085-.086a8 8 0 0 0 .34-.381c.29-.346.685-.866 1.081-1.545A11.5 11.5 0 0 0 35.5 24c0-2.477-.787-4.449-1.58-5.807-.396-.68-.79-1.2-1.08-1.545a8 8 0 0 0-.426-.467l-.017-.017.001.001a1.25 1.25 0 0 1-.064-1.765" fill="currentColor"/></svg>