<svg xmlns="http://www.w3.org/2000/svg" viewBox="0 0 28 28"><path fill="currentColor" d="M16.5 4.814c0-1.094-1.307-1.66-2.105-.912l-4.937 4.63a1.75 1.75 0 0 1-1.197.473H5.25A3.25 3.25 0 0 0 2 12.255v3.492a3.25 3.25 0 0 0 3.25 3.25h3.012c.444 0 .872.17 1.196.473l4.937 4.626c.799.748 2.105.182 2.105-.912zM19 7.75a.75.75 0 0 1 .75-.75h4.5a.75.75 0 0 1 .75.75v2.422c.591.28 1 .883 1 1.581v4.5a1.75 1.75 0 0 1-1.75 1.75h-.3v3.247a.75.75 0 0 1-1.5 0v-3.247h-.95v3.25a.75.75 0 0 1-1.5 0v-3.25h-.25a1.75 1.75 0 0 1-1.75-1.75v-4.5c0-.698.409-1.3 1-1.581zm4.2 8.75q.038 0 .073.003h.977a.25.25 0 0 0 .25-.25v-4.5a.25.25 0 0 0-.25-.25h-4.5a.25.25 0 0 0-.25.25v4.5c0 .138.112.25.25.25h3.377zm-2.7-8V10h3V8.5z"/></svg>