<svg xmlns="http://www.w3.org/2000/svg" xmlns:xlink="http://www.w3.org/1999/xlink" viewBox="0 0 28 28"><path d="M14.395 3.902c.798-.748 2.105-.182 2.105.912v18.37c0 1.094-1.306 1.66-2.105.912L9.458 19.47a1.75 1.75 0 0 0-1.196-.473H5.25A3.25 3.25 0 0 1 2 15.747v-3.492a3.25 3.25 0 0 1 3.25-3.25h3.011c.445 0 .873-.17 1.197-.473zM15 5.392l-4.516 4.234a3.25 3.25 0 0 1-2.223.879H5.25a1.75 1.75 0 0 0-1.75 1.75v3.492c0 .966.784 1.75 1.75 1.75h3.012c.825 0 1.62.314 2.222.878L15 22.607V5.391zm4 2.358a.75.75 0 0 1 .75-.75h4.5a.75.75 0 0 1 .75.75v2.422c.591.28 1 .883 1 1.581v4.5a1.75 1.75 0 0 1-1.75 1.75h-.3v3.247a.75.75 0 0 1-1.5 0v-3.247h-.95v3.25a.75.75 0 0 1-1.5 0v-3.25h-.25a1.75 1.75 0 0 1-1.75-1.75v-4.5c0-.698.409-1.3 1-1.581zm4.2 8.75q.038 0 .073.003h.977a.25.25 0 0 0 .25-.25v-4.5a.25.25 0 0 0-.25-.25h-4.5a.25.25 0 0 0-.25.25v4.5c0 .138.112.25.25.25h3.377zm-2.7-8V10h3V8.5z" fill="currentColor"/></svg>