<svg xmlns="http://www.w3.org/2000/svg" viewBox="0 0 24 24"><path fill="currentColor" d="M15 4.248a1.25 1.25 0 0 0-2.057-.954L7.975 7.498H4.25A2.25 2.25 0 0 0 2 9.748v4.5a2.25 2.25 0 0 0 2.25 2.25h3.725l4.967 4.206A1.25 1.25 0 0 0 15 19.75zm1.499 4.002a.75.75 0 0 1 .75-.75h3.503a.75.75 0 0 1 .75.75v1.796a.75.75 0 0 1 .498.707v5a.75.75 0 0 1-.75.75h-.236v2.747a.75.75 0 0 1-1.5 0v-2.747h-.982v2.747a.75.75 0 0 1-1.5 0v-2.747h-.282a.75.75 0 0 1-.75-.75v-5a.75.75 0 0 1 .499-.707zm4.001 3.253h-3v3.5h3zM17.999 9v1h2.003V9z"/></svg>