<svg xmlns="http://www.w3.org/2000/svg" xmlns:xlink="http://www.w3.org/1999/xlink" viewBox="0 0 48 48"><path d="m28 29.768 13.866 13.866a1.25 1.25 0 0 0 1.768-1.768l-37.5-37.5a1.25 1.25 0 1 0-1.768 1.768L13.232 15H9a5.25 5.25 0 0 0-5.25 5.25v7.5C3.75 30.65 6.1 33 9 33h4.702a4.75 4.75 0 0 1 3.173 1.215l8.206 7.366C26.208 42.593 28 41.794 28 40.28zm0-7.071-9.959-9.96 7.04-6.319C26.208 5.408 28 6.207 28 7.721zm8.186 8.185-1.85-1.85A11.4 11.4 0 0 0 35.5 24c0-2.478-.787-4.45-1.58-5.808a11 11 0 0 0-1.08-1.544 8 8 0 0 0-.426-.468l-.017-.016h.001a1.25 1.25 0 0 1 1.703-1.83c.168.166 0 0 0 0l.001.002.002.001.005.005.014.013.042.04a10 10 0 0 1 .59.644c.365.437.846 1.073 1.325 1.894a13.96 13.96 0 0 1 .106 13.95zm4.822 4.823-1.845-1.845c1.208-2.336 2.347-5.653 2.347-9.86 0-4.5-1.304-7.982-2.6-10.334a18.5 18.5 0 0 0-1.772-2.663 13 13 0 0 0-.715-.812l-.032-.033-.006-.005a1.25 1.25 0 0 1 1.727-1.808c.446.469.001 0 .001 0l.001.002.003.002.006.006.018.018.06.059q.074.075.201.211a15 15 0 0 1 .682.791A21 21 0 0 1 41.1 12.46C42.559 15.107 44.01 19 44.01 24s-1.451 8.893-2.91 11.54q-.045.083-.092.165" fill="currentColor"/></svg>