<svg xmlns="http://www.w3.org/2000/svg" viewBox="0 0 16 16"><path fill="currentColor" d="m9 9.707 5.146 5.147a.5.5 0 0 0 .708-.708l-13-13a.5.5 0 1 0-.708.708l3.14 3.139H3.5a1.5 1.5 0 0 0-1.5 1.5v2.989a1.5 1.5 0 0 0 1.5 1.5h1.723l2.926 2.875A.5.5 0 0 0 9 13.5zm2.709-.12-.795-.794c.055-.232.09-.497.09-.794 0-.748-.219-1.284-.428-1.628a2.4 2.4 0 0 0-.369-.465l-.018-.016h.001a.5.5 0 0 1 .623-.781h.001l.001.001.002.002.006.004.015.013a3 3 0 0 1 .188.182c.113.123.26.302.404.54.292.48.574 1.193.574 2.148a4.3 4.3 0 0 1-.295 1.589zm1.517 1.518-.745-.745a5.5 5.5 0 0 0 .522-2.356 5.54 5.54 0 0 0-.919-3.069 5.5 5.5 0 0 0-.63-.794 4 4 0 0 0-.253-.24l-.011-.01a.5.5 0 0 1 .623-.782l.001.001.003.002.007.006.022.019a5 5 0 0 1 .328.311c.205.213.476.527.746.938a6.54 6.54 0 0 1 1.083 3.618 6.5 6.5 0 0 1-.777 3.1zM8.999 6.878 6.181 4.06l1.97-1.918a.5.5 0 0 1 .848.358z"/></svg>