<svg xmlns="http://www.w3.org/2000/svg" xmlns:xlink="http://www.w3.org/1999/xlink" viewBox="0 0 20 20"><path d="M2.854 2.146a.5.5 0 1 0-.708.708L5.293 6H3.497a1.5 1.5 0 0 0-1.5 1.5v5a1.5 1.5 0 0 0 1.5 1.5h2.608a.5.5 0 0 1 .34.133l3.872 3.594c.64.594 1.68.14 1.68-.733v-4.29l5.15 5.15a.5.5 0 0 0 .707-.708l-2.563-2.562zm8.143 9.558v5.29L7.125 13.4a1.5 1.5 0 0 0-1.02-.4H3.497a.5.5 0 0 1-.5-.5v-5a.5.5 0 0 1 .5-.5h2.608q.09 0 .177-.01zm0-8.698v5.87l1 1v-6.87c0-.873-1.04-1.327-1.68-.733l-3.072 2.85.708.708zm3.064 8.934.742.741a5.5 5.5 0 0 0-.04-5.431.5.5 0 0 0-.866.5c.77 1.333.78 2.896.164 4.19m1.835 1.835.722.722a8.004 8.004 0 0 0-.655-9.83.5.5 0 1 0-.745.667 7.004 7.004 0 0 1 .678 8.441" fill="currentColor"/></svg>