<svg xmlns="http://www.w3.org/2000/svg" xmlns:xlink="http://www.w3.org/1999/xlink" viewBox="0 0 20 20"><path d="M11.997 3.006c0-.873-1.04-1.327-1.68-.733L6.445 5.866a.5.5 0 0 1-.34.134H3.497a1.5 1.5 0 0 0-1.5 1.5v5a1.5 1.5 0 0 0 1.5 1.5h2.608a.5.5 0 0 1 .34.133l3.872 3.594c.64.593 1.68.14 1.68-.733zM7.125 6.599l3.872-3.593v13.988L7.125 13.4a1.5 1.5 0 0 0-1.02-.4H3.497a.5.5 0 0 1-.5-.5v-5a.5.5 0 0 1 .5-.5h2.608a1.5 1.5 0 0 0 1.02-.4zm8.132-1.972a.5.5 0 0 1 .706.04 8 8 0 0 1 0 10.666.5.5 0 0 1-.745-.667 7 7 0 0 0 0-9.333.5.5 0 0 1 .039-.706m-1.176 8.306a.5.5 0 0 1-.183-.683 4.5 4.5 0 0 0-.001-4.5.5.5 0 0 1 .866-.5 5.5 5.5 0 0 1 .001 5.5.5.5 0 0 1-.683.183" fill="currentColor"/></svg>