<svg xmlns="http://www.w3.org/2000/svg" viewBox="0 0 16 16"><path fill="currentColor" d="M1.5 8a6.5 6.5 0 1 1 13 0 6.5 6.5 0 0 1-13 0m4.143-4.97a5.5 5.5 0 0 0-1.888 1.473l.647 2.104 1.006.335L7.5 5.352V4.268zM2.536 8.634c.1.865.4 1.67.853 2.365h1.904l.635-.635-.823-2.47-1.024-.341-1.545 1.08zm4.35 4.752a5.5 5.5 0 0 0 2.228 0l.79-1.776-.611-.61H6.707l-.61.61zM12.61 11c.44-.674.736-1.45.844-2.285L11.91 7.557l-1.015.338-.823 2.47.635.635zm-.378-6.513a5.5 5.5 0 0 0-1.875-1.458L8.5 4.268v1.084l2.092 1.59 1.004-.334z"/></svg>