<svg xmlns="http://www.w3.org/2000/svg" viewBox="0 0 16 16"><path fill="currentColor" d="m4.437 4.347-.01.025q.46.133.953.315c.154-.351.356-.686.604-.996l6.325 6.325a4.5 4.5 0 0 1-.975.594q.182.493.316.954l.032-.014a5.51 5.51 0 0 0 3.199-6.191 5.51 5.51 0 0 0-5.701-4.35 5.5 5.5 0 0 0-1.704.375 5.52 5.52 0 0 0-3.039 2.963m9.31.664a2 2 0 0 1-2.081.03l1.35-1.35c.324.404.568.851.732 1.32zm-2.804.752a3 3 0 0 0 3.032.263 4.5 4.5 0 0 1-.959 3.283l-2.809-2.81zm-.707-.707-.736.737-2.81-2.81a4.5 4.5 0 0 1 3.284-.958 3 3 0 0 0 .262 3.031m.723-.722a2 2 0 0 1 .03-2.082c.469.164.916.408 1.32.732zM4.896 8.897a.5.5 0 0 1 .707 0l1.5 1.5a.5.5 0 1 1-.707.707l-1.5-1.5a.5.5 0 0 1 0-.707M1.068 7.02a1.628 1.628 0 0 1 1.95-1.97c1.496.312 3.769 1.02 5.362 2.613 1.597 1.596 2.295 3.863 2.6 5.35a1.626 1.626 0 0 1-1.958 1.943c-1.479-.315-3.726-1.025-5.318-2.617-1.587-1.587-2.31-3.835-2.636-5.32zm1.745-.992c-.493-.103-.877.285-.769.777.313 1.427.985 3.445 2.367 4.827 1.385 1.385 3.4 2.044 4.819 2.346.487.104.87-.276.77-.764-.292-1.428-.94-3.458-2.327-4.844-1.383-1.383-3.421-2.04-4.86-2.341z"/></svg>