<svg xmlns="http://www.w3.org/2000/svg" viewBox="0 0 24 24"><path fill="currentColor" d="M9.932 16.7s-.748.099-.91-.546a.76.76 0 0 1 .548-.91h.003l.007-.002.024-.006.08-.018q.105-.022.29-.055c.247-.043.599-.093 1.031-.126a12.5 12.5 0 0 1 3.392.2.75.75 0 0 1-.294 1.47 11 11 0 0 0-2.983-.175 10 10 0 0 0-1.123.153zm-.91-8.806c.161-.645.91-.546.91-.546a6 6 0 0 0 .297.059c.206.035.51.079.89.108a11 11 0 0 0 2.984-.175.75.75 0 0 1 .294 1.47 12.5 12.5 0 0 1-3.392.2 11 11 0 0 1-1.32-.18l-.082-.018-.023-.006-.007-.002H9.57a.76.76 0 0 1-.548-.91M12 22a9.97 9.97 0 0 0 7.094-2.952A9.96 9.96 0 0 0 22 12c0-5.523-4.477-10-10-10S2 6.477 2 12s4.477 10 10 10M5.074 7.071a8 8 0 0 0 1.939.966.75.75 0 1 0 .474-1.423 6.4 6.4 0 0 1-1.43-.691A8.47 8.47 0 0 1 12 3.5c2.313 0 4.41.924 5.943 2.423-.412.264-.89.51-1.43.69a.75.75 0 1 0 .474 1.424 8 8 0 0 0 1.939-.966A8.46 8.46 0 0 1 20.5 12a8.46 8.46 0 0 1-1.597 4.961 8 8 0 0 0-1.916-.95.75.75 0 1 0-.474 1.423c.527.175.996.414 1.4.672A8.47 8.47 0 0 1 12 20.5a8.47 8.47 0 0 1-5.913-2.394 6.4 6.4 0 0 1 1.4-.672.75.75 0 1 0-.474-1.423 8 8 0 0 0-1.916.95A8.46 8.46 0 0 1 3.5 12a8.46 8.46 0 0 1 1.574-4.929"/></svg>