<svg xmlns="http://www.w3.org/2000/svg" xmlns:xlink="http://www.w3.org/1999/xlink" viewBox="0 0 16 16"><path d="M8 1.5a6.5 6.5 0 1 1 0 13 6.5 6.5 0 0 1 0-13M6.836 2.623 8 3.4l1.164-.776a5.5 5.5 0 0 0-2.328 0zm-1.193.406a5.5 5.5 0 0 0-1.888 1.474l.647 2.104 1.006.335L7.5 5.352V4.268zM3.048 5.605a5.5 5.5 0 0 0-.518 1.813l.885-.619zm-.512 3.03c.1.865.4 1.67.853 2.365h1.904l.635-.635-.823-2.47-1.024-.341zM4.226 12c.403.382.865.703 1.37.948L5.177 12zm2.66 1.387a5.5 5.5 0 0 0 2.228 0l.79-1.776L9.293 11H6.707l-.61.61zm3.517-.439A5.5 5.5 0 0 0 11.775 12h-.95zM12.61 11c.44-.674.736-1.45.844-2.285L11.91 7.557l-1.015.338-.823 2.47.635.635zm.866-3.518a5.5 5.5 0 0 0-.53-1.892l-.367 1.22zm-1.244-2.995a5.5 5.5 0 0 0-1.875-1.458L8.5 4.268v1.084l2.092 1.59 1.004-.334zM6.088 7.68 6.86 10h2.28l.772-2.319L8 6.228 6.088 7.682z" fill="currentColor"/></svg>