<svg xmlns="http://www.w3.org/2000/svg" xmlns:xlink="http://www.w3.org/1999/xlink" viewBox="0 0 24 24"><path d="M6.087 7.188a8 8 0 0 0-.18.494c.464.07.963.168 1.484.299a6.7 6.7 0 0 1 1.084-1.945l4.214 4.214-.252.252a10 10 0 0 1 1.06 1.06l.253-.251 4.213 4.213a6.7 6.7 0 0 1-1.944 1.085c.131.52.228 1.02.299 1.482a8.2 8.2 0 0 0 3.265-2.008 8.3 8.3 0 0 0 1.745-2.569 8.25 8.25 0 0 0 .666-3.575 8.3 8.3 0 0 0-.25-1.732 8.26 8.26 0 0 0-5.95-5.952 8.3 8.3 0 0 0-4.796.215 8.28 8.28 0 0 0-4.911 4.718m13.96.627a2.75 2.75 0 0 1-3.042.24l2.019-2.019c.439.548.78 1.15 1.023 1.779m-4.13 1.328a4.26 4.26 0 0 0 4.523.21 6.74 6.74 0 0 1-1.416 5.11L14.81 10.25l1.108-1.107zm-1.06-1.061L13.75 9.189 9.536 4.976a6.74 6.74 0 0 1 5.11-1.417 4.26 4.26 0 0 0 .21 4.523zm1.087-1.087a2.75 2.75 0 0 1 .241-3.043c.63.244 1.23.585 1.778 1.024zM6.97 13.47a.75.75 0 0 1 1.06 0l2.5 2.5a.75.75 0 1 1-1.06 1.06l-2.5-2.5a.75.75 0 0 1 0-1.06m-4.941-2.451a2.296 2.296 0 0 1 2.49-2.49c1.978.15 5.34.768 7.762 3.19 2.422 2.423 3.041 5.784 3.192 7.763a2.296 2.296 0 0 1-2.491 2.49c-1.978-.15-5.34-.77-7.762-3.192s-3.041-5.783-3.191-7.761m2.377-.995a.797.797 0 0 0-.882.881c.142 1.863.719 4.777 2.757 6.815s4.952 2.615 6.814 2.756a.797.797 0 0 0 .882-.881c-.142-1.863-.719-4.776-2.757-6.815-2.038-2.038-4.952-2.615-6.814-2.756" fill="currentColor"/></svg>