<svg xmlns="http://www.w3.org/2000/svg" viewBox="0 0 16 16"><path fill="currentColor" d="M13.727 2.98c.335.403.605.842.808 1.303a2 2 0 0 1-2.551.44zm-.708-.707-1.742 1.743a2 2 0 0 1 .44-2.55c.461.202.9.472 1.302.807m1.102 7.212a5.5 5.5 0 0 0 .756-4.144 3 3 0 0 1-3.616.105l-.59.59zm-3.567-4.746a3 3 0 0 1 .105-3.616 5.5 5.5 0 0 0-4.144.756l3.45 3.45zm-4.83-2.237a5.5 5.5 0 0 0-1.297 1.87c1.333.39 2.947 1.06 4.272 2.222l.558-.558zm3.685 4.796.555-.555 3.534 3.534a5.5 5.5 0 0 1-1.848 1.287c-.391-1.336-1.066-2.946-2.241-4.266m1.608 6.076c-.001 1.027-.925 1.811-1.995 1.583-1.479-.314-3.726-1.025-5.318-2.616-1.587-1.587-2.31-3.836-2.636-5.32a1.8 1.8 0 0 1-.043-.383c0-1.024.92-1.812 1.993-1.587 1.496.312 3.769 1.02 5.362 2.613 1.597 1.596 2.295 3.863 2.6 5.35q.037.184.037.36M5.603 8.897a.5.5 0 0 0-.707.707l1.5 1.5a.5.5 0 1 0 .707-.707z"/></svg>