<svg xmlns="http://www.w3.org/2000/svg" viewBox="0 0 24 24"><path fill="currentColor" d="M3.94 6.079A9.96 9.96 0 0 0 2 12c0 2.209.716 4.25 1.929 5.905a8 8 0 0 1 .227-.21c.645-.578 1.608-1.268 2.857-1.684a.75.75 0 1 1 .474 1.423c-1 .333-1.788.893-2.33 1.378a7 7 0 0 0-.251.236A9.97 9.97 0 0 0 12 22a9.97 9.97 0 0 0 7.094-2.952 7 7 0 0 0-.25-.236c-.543-.485-1.33-1.045-2.331-1.378a.75.75 0 1 1 .474-1.423c1.25.416 2.212 1.106 2.857 1.684q.12.108.227.21A9.96 9.96 0 0 0 22 12c0-2.216-.72-4.264-1.94-5.921l-.216.199c-.646.577-1.608 1.267-2.857 1.684a.75.75 0 0 1-.474-1.423c1-.334 1.788-.894 2.33-1.38q.129-.115.237-.22A9.97 9.97 0 0 0 12 2a9.97 9.97 0 0 0-7.08 2.938q.107.106.236.222c.543.485 1.33 1.045 2.331 1.378a.75.75 0 1 1-.474 1.424C5.763 7.545 4.8 6.855 4.156 6.278a9 9 0 0 1-.215-.2zm5.083 10.075a.76.76 0 0 1 .547-.91h.003l.007-.002.024-.006.08-.018a11 11 0 0 1 1.32-.181 12.5 12.5 0 0 1 3.393.2.75.75 0 0 1-.294 1.47 11 11 0 0 0-2.983-.175 10 10 0 0 0-1.123.153l-.065.015s-.748.099-.91-.546zm.909-8.882.065.015q.077.016.232.044c.206.036.511.08.891.109a11 11 0 0 0 2.983-.175.75.75 0 0 1 .294 1.47 12.5 12.5 0 0 1-3.392.2 11 11 0 0 1-1.32-.181l-.081-.018-.024-.005-.007-.002H9.57a.76.76 0 0 1-.547-.91c.16-.646.909-.547.909-.547"/></svg>