<svg xmlns="http://www.w3.org/2000/svg" xmlns:xlink="http://www.w3.org/1999/xlink" viewBox="0 0 20 20"><path d="M6.435 5.753q-.114.283-.198.575.469.142.949.318a5 5 0 0 1 .943-1.81L11.293 8l-.595.595a7 7 0 0 1 .71.704L12 8.707l3.165 3.165a5 5 0 0 1-1.794.937q.175.481.317.95a5.97 5.97 0 0 0 2.702-1.669 6 6 0 0 0 1.134-1.743c.526-1.24.616-2.62.27-3.908a6.01 6.01 0 0 0-4.232-4.234 6.02 6.02 0 0 0-3.807.23 6.02 6.02 0 0 0-3.32 3.318m10.205.38a2 2 0 0 1-2.12.055l1.352-1.353c.327.4.583.838.768 1.298m-2.843.777c.925.659 2.139.73 3.126.215a5 5 0 0 1-1.051 4.04L12.707 8zm-.707-.707L12 7.293 8.836 4.128a5 5 0 0 1 4.039-1.051 3 3 0 0 0 .215 3.126m.722-.723a2 2 0 0 1 .056-2.12c.46.185.897.441 1.297.768zm-7.665 5.666a.5.5 0 0 1 .707 0l2 2a.5.5 0 0 1-.707.708l-2-2a.5.5 0 0 1 0-.708M2.04 8.881a1.706 1.706 0 0 1 2.037-2.075c.912.192 2.067.492 3.199.946 1.126.452 2.261 1.069 3.104 1.911.844.845 1.458 1.98 1.904 3.105.449 1.13.74 2.281.925 3.189a1.704 1.704 0 0 1-2.067 2.024c-1.755-.394-4.532-1.235-6.189-2.891C3.3 13.436 2.446 10.648 2.04 8.881m1.831-1.096c-.544-.114-.98.33-.856.873.403 1.758 1.211 4.29 2.645 5.725 1.436 1.436 3.956 2.23 5.701 2.623.538.12.978-.31.868-.85a18 18 0 0 0-.874-3.02c-.421-1.061-.973-2.056-1.682-2.766-.708-.708-1.705-1.263-2.77-1.69-1.06-.426-2.154-.711-3.032-.895" fill="currentColor"/></svg>