<svg xmlns="http://www.w3.org/2000/svg" xmlns:xlink="http://www.w3.org/1999/xlink" viewBox="0 0 20 20"><path d="M8.5 3a.5.5 0 0 0 0 1h3a.5.5 0 0 0 0-1zM4.053 5.54A2 2 0 0 1 5.54 4.052a.51.51 0 0 0 .462-.6.51.51 0 0 0-.663-.38 3 3 0 0 0-2.265 2.265.51.51 0 0 0 .38.663.51.51 0 0 0 .6-.462zm0 8.92a2 2 0 0 0 1.486 1.487.51.51 0 0 1 .462.6.51.51 0 0 1-.663.38 3 3 0 0 1-2.265-2.265.51.51 0 0 1 .38-.663.51.51 0 0 1 .6.462zM14.662 3.074a.51.51 0 0 0-.663.38.51.51 0 0 0 .462.6 2 2 0 0 1 1.486 1.486.507.507 0 0 0 .6.463.51.51 0 0 0 .38-.664 3 3 0 0 0-2.265-2.265M3 11.5a.5.5 0 0 0 1 0v-3a.5.5 0 0 0-1 0zm16-1.75A1.75 1.75 0 0 0 17.25 8h-2.5A1.75 1.75 0 0 0 13 9.75V13H9.75A1.75 1.75 0 0 0 8 14.75v2.5c0 .966.784 1.75 1.75 1.75h6.75a2.5 2.5 0 0 0 2.5-2.5zM14 13V9.75a.75.75 0 0 1 .75-.75h2.5a.75.75 0 0 1 .75.75V13zm2.5 5H14v-4h4v2.5a1.5 1.5 0 0 1-1.5 1.5m-6.75-4H13v4H9.75a.75.75 0 0 1-.75-.75v-2.5a.75.75 0 0 1 .75-.75" fill="currentColor"/></svg>