<svg xmlns="http://www.w3.org/2000/svg" viewBox="0 0 28 28"><path fill="currentColor" d="M12.701 3.908c.532-1.077 2.069-1.077 2.6 0l2.692 5.453 6.017.874c1.19.173 1.664 1.635.804 2.474l-1.06 1.032a7.4 7.4 0 0 0-1.58-.554l1.52-1.482-5.943-.864a1.45 1.45 0 0 1-1.092-.793l-2.657-5.385-2.658 5.385a1.45 1.45 0 0 1-1.092.793l-5.943.864 4.3 4.192c.342.333.498.813.417 1.283L8.011 23.1 13 20.476v.023q.002.816.167 1.583L8.62 24.474c-1.064.56-2.307-.344-2.104-1.528l1.028-5.993-4.355-4.244c-.86-.84-.385-2.3.804-2.474l6.017-.874zM27 20.5a6.5 6.5 0 1 1-13 0 6.5 6.5 0 0 1 13 0m-9.146-3.354a.5.5 0 0 0-.708.708l2.647 2.646-2.647 2.646a.5.5 0 0 0 .708.708l2.646-2.647 2.646 2.647a.5.5 0 0 0 .708-.708L21.207 20.5l2.647-2.646a.5.5 0 0 0-.708-.708L20.5 19.793z"/></svg>