<svg xmlns="http://www.w3.org/2000/svg" xmlns:xlink="http://www.w3.org/1999/xlink" viewBox="0 0 20 20"><path d="M9.104 2.899a1 1 0 0 1 1.794 0l1.93 3.911 4.317.628a1 1 0 0 1 .554 1.705l-.55.536a5.5 5.5 0 0 0-.995-.426L17 8.427 12.684 7.8a1 1 0 0 1-.752-.547l-1.93-3.911L8.07 7.253a1 1 0 0 1-.753.547L3 8.427l3.124 3.045a1 1 0 0 1 .287.885l-.737 4.3 3.34-1.756q.039.535.175 1.037l-3.05 1.603a1 1 0 0 1-1.45-1.054l.737-4.299-3.124-3.045a1 1 0 0 1 .554-1.705l4.317-.628zM19 14.5a4.5 4.5 0 1 1-9 0 4.5 4.5 0 0 1 9 0m-2.646-1.146a.5.5 0 0 0-.708-.708L14.5 13.793l-1.146-1.147a.5.5 0 0 0-.708.708l1.147 1.146-1.147 1.146a.5.5 0 0 0 .708.708l1.146-1.147 1.146 1.147a.5.5 0 0 0 .708-.708L15.207 14.5z" fill="currentColor"/></svg>