<svg xmlns="http://www.w3.org/2000/svg" xmlns:xlink="http://www.w3.org/1999/xlink" viewBox="0 0 20 20"><path d="M7.5 9a1 1 0 1 0 0-2 1 1 0 0 0 0 2m6-1a1 1 0 1 1-2 0 1 1 0 0 1 2 0M3 6v8a3 3 0 0 0 3 3h5.379l.08-.002a.5.5 0 0 0 .162-.013 2 2 0 0 0 1.172-.57l3.621-3.622a2 2 0 0 0 .571-1.172.5.5 0 0 0 .013-.162q.003-.04.002-.08V6a3 3 0 0 0-3-3H6a3 3 0 0 0-3 3m13 0v5h-2.25c-1.21 0-2.236.78-2.604 1.865a4.7 4.7 0 0 1-1.144.135c-.915 0-1.59-.228-2.028-.447a3 3 0 0 1-.487-.297 2 2 0 0 1-.133-.11l-.003-.002a.5.5 0 0 0-.705.71h.001l.001.001.002.002.005.005.015.014a3 3 0 0 0 .218.18c.146.11.359.251.639.391.561.28 1.388.553 2.475.553q.54-.002.998-.083V16H6a2 2 0 0 1-2-2V6a2 2 0 0 1 2-2h8a2 2 0 0 1 2 2m-3.914 9.707a1 1 0 0 1-.086.077V13.75c0-.966.784-1.75 1.75-1.75h2.034a1 1 0 0 1-.077.086z" fill="currentColor"/></svg>