<svg xmlns="http://www.w3.org/2000/svg" xmlns:xlink="http://www.w3.org/1999/xlink" viewBox="0 0 24 24"><path d="M17.5 12a5.5 5.5 0 1 1 0 11 5.5 5.5 0 0 1 0-11m0 2-.09.007a.5.5 0 0 0-.402.402L17 14.5V17h-2.502l-.09.008a.5.5 0 0 0-.402.402l-.008.09.008.09a.5.5 0 0 0 .402.402l.09.008H17v2.503l.008.09a.5.5 0 0 0 .402.402l.09.008.09-.008a.5.5 0 0 0 .402-.402l.008-.09V18l2.504.001.09-.008a.5.5 0 0 0 .402-.402l.008-.09-.008-.09a.5.5 0 0 0-.403-.402l-.09-.008H18v-2.5l-.008-.09a.5.5 0 0 0-.402-.403zm.25-11A3.25 3.25 0 0 1 21 6.25l.001 5.773a6.5 6.5 0 0 0-1.5-.71L19.5 6.25a1.75 1.75 0 0 0-1.75-1.75H6.25A1.75 1.75 0 0 0 4.5 6.25v11.5c0 .966.784 1.75 1.75 1.75h5.064c.172.534.412 1.038.709 1.501L6.25 21A3.25 3.25 0 0 1 3 17.75V6.25A3.25 3.25 0 0 1 6.25 3zM9.177 14.136a4.8 4.8 0 0 0 2.327.851 6.4 6.4 0 0 0-.42 1.461 6.3 6.3 0 0 1-2.76-1.079.75.75 0 1 1 .853-1.233M9 7.75a1.25 1.25 0 1 1 0 2.499A1.25 1.25 0 0 1 9 7.75m6 0a1.25 1.25 0 1 1 0 2.499 1.25 1.25 0 0 1 0-2.499" fill="currentColor"/></svg>