<svg xmlns="http://www.w3.org/2000/svg" viewBox="0 0 20 20"><path fill="currentColor" d="M3 6a3 3 0 0 1 3-3h8a3 3 0 0 1 3 3v3.6a5.502 5.502 0 0 0-7.776 3.342 4.2 4.2 0 0 1-1.25-.39 3 3 0 0 1-.487-.296 2 2 0 0 1-.133-.11l-.003-.002a.5.5 0 0 0-.705.71h.001l.001.001.002.002.005.005.015.014a3 3 0 0 0 .218.18c.146.11.359.251.639.391.38.19.881.376 1.503.477A5.5 5.5 0 0 0 9.6 17H6a3 3 0 0 1-3-3zm4.5 3a1 1 0 1 0 0-2 1 1 0 0 0 0 2m6-1a1 1 0 1 0-2 0 1 1 0 0 0 2 0m5.5 6.5a4.5 4.5 0 1 1-9 0 4.5 4.5 0 0 1 9 0m-4-2a.5.5 0 0 0-1 0V14h-1.5a.5.5 0 0 0 0 1H14v1.5a.5.5 0 0 0 1 0V15h1.5a.5.5 0 0 0 0-1H15z"/></svg>