<svg xmlns="http://www.w3.org/2000/svg" xmlns:xlink="http://www.w3.org/1999/xlink" viewBox="0 0 16 16"><path d="M3 8a5 5 0 0 1 10 0v.027q.519.06.995.227a6 6 0 1 0-5.74 5.74A4.5 4.5 0 0 1 8.026 13H8a5 5 0 0 1-5-5m8.5 0a.5.5 0 0 1-.013.115 4.4 4.4 0 0 0-1.05.385H5a.5.5 0 0 1 0-1h6a.5.5 0 0 1 .5.5m4.5 4.5a3.5 3.5 0 1 1-7 0 3.5 3.5 0 0 1 7 0m-4.146-.646a.5.5 0 0 0-.708-.708l-1 1a.5.5 0 0 0 0 .708l1 1a.5.5 0 0 0 .708-.708L11.707 13h2.043a.25.25 0 0 1 .25.25v.25a.5.5 0 0 0 1 0v-.25c0-.69-.56-1.25-1.25-1.25h-2.043z" fill="currentColor"/></svg>