<svg xmlns="http://www.w3.org/2000/svg" xmlns:xlink="http://www.w3.org/1999/xlink" viewBox="0 0 16 16"><path d="M8 3a5 5 0 0 0 0 10h.027q.06.519.227.995a6 6 0 1 1 5.74-5.74A4.5 4.5 0 0 0 13 8.026V8a5 5 0 0 0-5-5m2.436 5.5q.495-.256 1.05-.385A.503.503 0 0 0 11 7.5H5a.5.5 0 0 0 0 1zM12.5 16a3.5 3.5 0 1 1 0-7 3.5 3.5 0 0 1 0 7m.646-4.854a.5.5 0 0 0 0 .708l.147.146H11.25c-.69 0-1.25.56-1.25 1.25v.25a.5.5 0 0 0 1 0v-.25a.25.25 0 0 1 .25-.25h2.043l-.147.146a.5.5 0 0 0 .708.708l1-1a.5.5 0 0 0 0-.708l-1-1a.5.5 0 0 0-.708 0" fill="currentColor"/></svg>