<svg xmlns="http://www.w3.org/2000/svg" xmlns:xlink="http://www.w3.org/1999/xlink" viewBox="0 0 24 24"><path d="M17 10a6 6 0 1 1-1.684 11.76q-.217.106-.434.181l-.209.065-2.614.868a2.75 2.75 0 0 1-3.092-.996l-.101-.148-.43-.684a2.75 2.75 0 0 1 .18-3.185l.127-.148 1.97-2.131a4 4 0 0 1 .332-.324A6 6 0 0 1 17 10m-5.854 7.323-1.302 1.408a1.25 1.25 0 0 0-.208 1.393l.068.123.431.683c.283.45.815.666 1.325.555l.126-.035 1.858-.616a6 6 0 0 1-2.298-3.51zM17 11.5a4.5 4.5 0 0 0-4.127 2.702l-.064.157-.084.234-.072.24a5 5 0 0 0-.112.556l-.03.286A5 5 0 0 0 12.5 16l.005.212a4.5 4.5 0 0 0 2.638 3.888l.002-.001q.234.107.484.188l.092.027.15.043q.177.045.36.078l.184.027a5 5 0 0 0 .508.037L17 20.5a4.5 4.5 0 1 0 0-9M7 1c.753 0 1.474.139 2.139.392l.797-.255a2.75 2.75 0 0 1 2.888.784l.123.147.133.188.525.805a2.75 2.75 0 0 1-.06 3.084l-.12.161-.136.154-.293.308L13 7a6 6 0 1 1-6-6M5.73 2.682l-.152.047A4.502 4.502 0 0 0 7 11.5a4.5 4.5 0 0 0 4.178-2.826 4.3 4.3 0 0 1-.853.696c-1.918 1.197-4.46.654-5.68-1.222-1.185-1.82-.688-4.221 1.085-5.466m4.802-.152-.138.036-2.953.945a2.7 2.7 0 0 0-.724.315c-1.22.761-1.58 2.327-.815 3.504.773 1.187 2.4 1.534 3.63.768q.23-.144.43-.332l.131-.13 2.09-2.188.093-.105a1.25 1.25 0 0 0 .139-1.347l-.067-.116-.507-.78-.084-.117-.08-.093a1.25 1.25 0 0 0-1.005-.38zm.398 1.154.068.087.25.374a.75.75 0 0 1-1.178.922l-.068-.088-.25-.373a.75.75 0 0 1 1.178-.922" fill="currentColor"/></svg>