<svg xmlns="http://www.w3.org/2000/svg" viewBox="0 0 20 20"><path fill="currentColor" d="M14.126 8.25a4.875 4.875 0 1 1-1.102 9.625l-.085.033-2.222.906a2.5 2.5 0 0 1-2.844-.689l-.111-.14-.271-.367a2.5 2.5 0 0 1-.045-2.909l.113-.15 1.572-1.941q.082-.102.172-.199a4.875 4.875 0 0 1 4.823-4.169m-4.802 5.718-.988 1.22a1.5 1.5 0 0 0-.122 1.715l.081.12.271.368a1.5 1.5 0 0 0 1.636.546l.137-.049 1.341-.545a4.88 4.88 0 0 1-2.356-3.375m4.802-4.718a3.88 3.88 0 0 0-3.758 2.926l-.064.31-.033.242-.014.184-.006.213a3.88 3.88 0 0 0 2.821 3.73l.19.048.223.044.198.027.18.017.193.008.27-.004a3.875 3.875 0 0 0-.2-7.745M5.88 1c.66 0 1.29.131 1.864.37l.692-.23a2.5 2.5 0 0 1 2.67.728l.117.146.114.166.292.462c.53.84.509 1.909-.046 2.736l-.11.152-.124.144-.616.667A4.876 4.876 0 1 1 5.879 1zm-.04.999L5.88 2a3.875 3.875 0 1 0 3.23 6.017l-.056.043-.194.134a3.44 3.44 0 0 1-4.778-1.05 3.503 3.503 0 0 1 1.527-5.05zm4.583.615a1.5 1.5 0 0 0-1.53-.564l-.142.04-2.361.783a2.503 2.503 0 0 0-1.462 3.739 2.44 2.44 0 0 0 3.39.741 2.6 2.6 0 0 0 .362-.28l.164-.164L10.6 5.01l.096-.112a1.5 1.5 0 0 0 .158-1.596l-.072-.126-.28-.446zm-.807.529.054.073.259.427a.5.5 0 0 1-.803.59l-.053-.072-.259-.428a.5.5 0 0 1 .802-.59"/></svg>