<svg xmlns="http://www.w3.org/2000/svg" viewBox="0 0 20 20"><path fill="currentColor" d="M5.75 3A2.75 2.75 0 0 0 3 5.75v8.5A2.75 2.75 0 0 0 5.75 17h8.5A2.75 2.75 0 0 0 17 14.25v-8.5A2.75 2.75 0 0 0 14.25 3zM4.5 5.75c0-.69.56-1.25 1.25-1.25h.31L4.5 6.359zm0 2.164L7.365 4.5h1.849L4.5 10.117zM10.519 4.5h1.849L4.5 13.876v-2.203zm3.154 0h.577c.368 0 .698.159.927.411L6.292 15.5H5.75c-.377 0-.716-.167-.945-.432zM15.5 6.082v2.203L9.446 15.5H7.597zm0 3.759v2.203L12.6 15.5h-1.849zm0 3.759v.65c0 .69-.56 1.25-1.25 1.25h-.345z"/></svg>