<svg xmlns="http://www.w3.org/2000/svg" viewBox="0 0 24 24"><path fill="currentColor" d="M5.75 3A2.75 2.75 0 0 0 3 5.75v12.5A2.75 2.75 0 0 0 5.75 21h12.5A2.75 2.75 0 0 0 21 18.25V5.75A2.75 2.75 0 0 0 18.25 3zM4.5 5.75c0-.69.56-1.25 1.25-1.25H7.7L4.5 8.314zm0 4.12L9.006 4.5h2.663L4.5 13.044zm8.475-5.37h2.664L4.5 17.774V14.6zm3.969 0h1.306c.392 0 .741.18.97.462L7.021 19.5H5.75c-.401 0-.758-.19-.987-.483zM19.5 6.184v3.174L10.99 19.5H8.327zm0 4.73v3.175L14.96 19.5h-2.664zm0 4.73v2.606c0 .69-.56 1.25-1.25 1.25h-1.985z"/></svg>