<svg xmlns="http://www.w3.org/2000/svg" viewBox="0 0 28 28"><path fill="currentColor" d="M6.25 3A3.25 3.25 0 0 0 3 6.25v15.5A3.25 3.25 0 0 0 6.25 25h15.5A3.25 3.25 0 0 0 25 21.75V6.25A3.25 3.25 0 0 0 21.75 3zm17.25 7.65L12.717 23.5H9.546L23.5 6.87zM14.675 23.5 23.5 12.983v3.78L17.847 23.5zm8.825-4.404v2.654a1.75 1.75 0 0 1-1.75 1.75h-1.945zM7.588 23.5H6.25c-.53 0-1.004-.235-1.325-.606L20.36 4.5h1.391c.515 0 .977.222 1.298.576zM4.5 21.067v-3.78L15.23 4.5h3.17zm0-6.113v-3.78L10.1 4.5h3.172zm0-6.113V6.25c0-.966.784-1.75 1.75-1.75h1.892z"/></svg>