<svg xmlns="http://www.w3.org/2000/svg" xmlns:xlink="http://www.w3.org/1999/xlink" viewBox="0 0 24 24"><path d="M2.857 6a3 3 0 0 1 3-3h12a3 3 0 0 1 3 3v4.2a4 4 0 1 0-5.503 5.8h-.416c-.918 0-1.657.445-2.13.955-.464.502-.808 1.21-.808 1.989v.384c0 .6.132 1.162.371 1.672H5.857a3 3 0 0 1-3-3zM18 10a3 3 0 1 0 2.236 5H18v-1h2.83c.11-.313.17-.65.17-1h-3v-1h2.83a3 3 0 0 0-.594-1H18zm-4.458 7.635c.327-.353.814-.635 1.396-.635h6.124c.582 0 1.07.282 1.396.635q.154.166.272.365H18v1h5v.328q0 .343-.081.672H18v1h4.47a3.9 3.9 0 0 1-.997 1H18v1c-2.959 0-5-1.71-5-3.672v-.384c0-.486.218-.96.542-1.31z" fill="currentColor"/></svg>