<svg xmlns="http://www.w3.org/2000/svg" viewBox="0 0 16 16"><path fill="currentColor" d="M4.193 1.99a2.25 2.25 0 0 0-2.25 2.25v7.506a2.25 2.25 0 0 0 2.25 2.25h7.506a2.25 2.25 0 0 0 2.25-2.25V4.239a2.25 2.25 0 0 0-2.25-2.25H4.193zm-.75 2.25a.75.75 0 0 1 .75-.75h.29l-1.04 1.24zm0 2.045 2.345-2.796h1.35L3.443 7.893zm5-2.796h1.35l-6.35 7.567V9.448zm2.655 0h.601a.75.75 0 0 1 .548.238L4.89 12.496h-.696a.75.75 0 0 1-.496-.187zm1.351 1.553V6.65l-4.905 5.846h-1.35zm0 3.163v1.608l-2.25 2.683h-1.35zm0 3.164v.377a.75.75 0 0 1-.75.75h-.195z"/></svg>