<svg xmlns="http://www.w3.org/2000/svg" xmlns:xlink="http://www.w3.org/1999/xlink" viewBox="0 0 20 20"><path d="M5.5 3A2.5 2.5 0 0 0 3 5.5v9A2.5 2.5 0 0 0 5.5 17h9a2.5 2.5 0 0 0 2.5-2.5v-9A2.5 2.5 0 0 0 14.5 3zM4 5.5A1.5 1.5 0 0 1 5.5 4h.336L4 6.189zm0 2.244L7.142 4h2.106L4 10.254zM10.553 4h2.106L4 14.32v-2.51zm3.411 0h.536c.453 0 .86.201 1.135.519L6 16h-.5c-.463 0-.877-.21-1.152-.54zM16 5.64v2.509L9.412 16H7.306zm0 4.064v2.51L12.823 16h-2.106zm0 4.066v.73a1.5 1.5 0 0 1-1.5 1.5h-.371z" fill="currentColor"/></svg>