<svg xmlns="http://www.w3.org/2000/svg" xmlns:xlink="http://www.w3.org/1999/xlink" viewBox="0 0 28 28"><path d="M3 6.75A3.75 3.75 0 0 1 6.75 3h14.5A3.75 3.75 0 0 1 25 6.75v7.75a7.5 7.5 0 0 0-1.5-.876V11h-5v2.27a7.5 7.5 0 0 0-1.5.595V11h-6v6h2.865a7.5 7.5 0 0 0-.595 1.5H11v5h2.624c.234.535.529 1.038.875 1.5H6.75A3.75 3.75 0 0 1 3 21.25zM4.5 18.5v2.75a2.25 2.25 0 0 0 2.25 2.25H9.5v-5zm5-1.5v-6h-5v6zm14-10.25a2.25 2.25 0 0 0-2.25-2.25H18.5v5h5zM17 4.5h-6v5h6zm-7.5 0H6.75A2.25 2.25 0 0 0 4.5 6.75V9.5h5zm17.5 16a6.5 6.5 0 1 1-13 0 6.5 6.5 0 0 1 13 0M19.63 16a.5.5 0 0 0-.481.364l-1.13 4A.5.5 0 0 0 18.5 21h1.3l-.787 3.387a.5.5 0 0 0 .934.337l3-6A.5.5 0 0 0 22.5 18h-.989l.462-1.337A.5.5 0 0 0 21.5 16z" fill="currentColor"/></svg>