<svg xmlns="http://www.w3.org/2000/svg" xmlns:xlink="http://www.w3.org/1999/xlink" viewBox="0 0 20 20"><path d="M17 5.5A2.5 2.5 0 0 0 14.5 3h-9A2.5 2.5 0 0 0 3 5.5v9A2.5 2.5 0 0 0 5.5 17h4.1a5.5 5.5 0 0 1-.393-1H8v-3h1.207q.149-.524.393-1H8V8h4v1.6a5.5 5.5 0 0 1 1-.393V8h3v1.207q.524.149 1 .393zm-13 9V13h3v3H5.5l-.144-.007A1.5 1.5 0 0 1 4 14.5M12 7H8V4h4zm1-3h1.5l.145.007A1.5 1.5 0 0 1 16 5.5V7h-3zM4 7V5.5l.007-.144A1.5 1.5 0 0 1 5.5 4H7v3zm3 1v4H4V8zm12 6.5a4.5 4.5 0 1 1-9 0 4.5 4.5 0 0 1 9 0m-5.12-3a.5.5 0 0 0-.472.334l-.88 2.5A.5.5 0 0 0 13 15h.776l-.508 1.869a.5.5 0 0 0 .903.401l2.25-3.5A.5.5 0 0 0 16 13h-.746l.28-.842a.5.5 0 0 0-.474-.658z" fill="currentColor"/></svg>