<svg xmlns="http://www.w3.org/2000/svg" viewBox="0 0 16 16"><path fill="currentColor" d="M2 4.5A2.5 2.5 0 0 1 4.5 2h7A2.5 2.5 0 0 1 14 4.5v1.757A5.48 5.48 0 0 0 10.5 5c-1.177 0-2.268.37-3.163 1H6v1.337c-.63.895-1 1.986-1 3.163 0 1.33.472 2.55 1.257 3.5H4.5A2.5 2.5 0 0 1 2 11.5zM5 11H3v.5A1.5 1.5 0 0 0 4.5 13H5zm0-5H3v4h2zm1-1h4V3H6zM5 3h-.5A1.5 1.5 0 0 0 3 4.5V5h2zm8 2v-.5A1.5 1.5 0 0 0 11.5 3H11v2zm2 5.5a4.5 4.5 0 1 1-9 0 4.5 4.5 0 0 1 9 0m-5.12-3a.5.5 0 0 0-.472.334l-.88 2.5A.5.5 0 0 0 9 11h.776l-.508 1.869a.5.5 0 0 0 .903.401l2.25-3.5A.5.5 0 0 0 12 9h-.746l.28-.842a.5.5 0 0 0-.474-.658z"/></svg>