<svg xmlns="http://www.w3.org/2000/svg" viewBox="0 0 24 24"><path fill="currentColor" d="M12.75 2a3.25 3.25 0 0 0-2.242.898L3.696 9.395a2.25 2.25 0 0 0-.034 3.223l6.256 6.226a2.25 2.25 0 0 0 3.166.01l6.945-6.835c.621-.61.97-1.445.97-2.316V4.75A2.75 2.75 0 0 0 18.25 2h-5.498zm3.5 5.75a1.25 1.25 0 1 1 0-2.5 1.25 1.25 0 0 1 0 2.5m3.006 6.433 1.475-1.451q.067-.067.132-.136a2.75 2.75 0 0 1-.691 2.813l-5.334 5.229a4.75 4.75 0 0 1-6.666-.016l-4.356-4.31a2.75 2.75 0 0 1-.681-2.808l1.629 1.62q.048.064.107.121l2.411 2.386 1.931 1.922a3.25 3.25 0 0 0 4.575.014l5.334-5.229q.075-.073.134-.155"/></svg>