<svg xmlns="http://www.w3.org/2000/svg" xmlns:xlink="http://www.w3.org/1999/xlink" viewBox="0 0 32 32"><path d="M22.5 12a2.5 2.5 0 1 0 0-5 2.5 2.5 0 0 0 0 5m-3.816-9a4 4 0 0 0-2.732 1.079L3.77 15.474a4.25 4.25 0 0 0-.101 6.11l6.326 6.325a4.25 4.25 0 0 0 5.78.213 9 9 0 0 1-.87-1.942l-.314.315a2.25 2.25 0 0 1-3.182 0l-6.326-6.326a2.25 2.25 0 0 1 .054-3.234l12.18-11.396A2 2 0 0 1 18.685 5H25.5A1.5 1.5 0 0 1 27 6.5v6.757a2 2 0 0 1-.586 1.415l-.234.234a9 9 0 0 1 1.932.864A4 4 0 0 0 29 13.257V6.5A3.5 3.5 0 0 0 25.5 3zM16 23.5a7.5 7.5 0 1 0 15 0 7.5 7.5 0 0 0-15 0m6.477 4.432a1.023 1.023 0 1 1 2.046 0 1.023 1.023 0 0 1-2.046 0m-1.704-6.477a2.727 2.727 0 0 1 5.454 0c0 .996-.288 1.554-1.028 2.329l-.36.367-.158.17c-.387.434-.5.72-.5 1.224a.682.682 0 1 1-1.363 0c0-.996.289-1.554 1.028-2.329l.36-.367.159-.17c.386-.434.499-.72.499-1.224a1.364 1.364 0 1 0-2.728 0 .682.682 0 0 1-1.363 0" fill="currentColor"/></svg>