<svg xmlns="http://www.w3.org/2000/svg" xmlns:xlink="http://www.w3.org/1999/xlink" viewBox="0 0 20 20"><path d="M17.603 7.519a7.999 7.999 0 1 1-5.117-5.126L11.438 3.44q-.087.087-.158.185a6.5 6.5 0 1 0 5.088 5.098 1.5 1.5 0 0 0 .192-.162zM14.898 9A5 5 0 1 1 11 5.1v1.546A3.5 3.5 0 1 0 13.353 9zm-4.9 2.5a1.5 1.5 0 0 0 1.45-1.887L13.03 8.03l.03-.03h2.44a.5.5 0 0 0 .354-.146l2-2A.5.5 0 0 0 17.5 5H15V2.5a.5.5 0 0 0-.853-.354l-2 2A.5.5 0 0 0 12 4.5v2.44l-.03.03-1.582 1.58A1.5 1.5 0 0 0 8.498 10a1.5 1.5 0 0 0 1.5 1.5" fill="currentColor"/></svg>