<svg xmlns="http://www.w3.org/2000/svg" viewBox="0 0 24 24"><path fill="currentColor" d="M12 13.999a2 2 0 1 0-.001-4 2 2 0 0 0 0 4zm-6-2a6 6 0 1 1 11.988.366l-5.499 5.498q-.06.06-.118.124A6 6 0 0 1 6 12zm6-4a4 4 0 1 0 0 8 4 4 0 0 0 0-8m0-4a8 8 0 0 1 7.947 7.09 3.3 3.3 0 0 1 2.024.159C21.585 6.076 17.269 2 11.999 2 6.477 2 2 6.477 2 12c0 5.184 3.946 9.447 8.998 9.949a2 2 0 0 1 .065-.543l.356-1.428A8 8 0 0 1 12 4zm7.098 8.67-5.901 5.901a2.7 2.7 0 0 0-.707 1.248l-.457 1.83a1.087 1.087 0 0 0 1.318 1.319l1.83-.458a2.7 2.7 0 0 0 1.248-.706L22.33 15.9a2.285 2.285 0 0 0-3.233-3.232z"/></svg>