<svg xmlns="http://www.w3.org/2000/svg" xmlns:xlink="http://www.w3.org/1999/xlink" viewBox="0 0 32 32"><g fill="none"><path d="M16 13.75a2.25 2.25 0 1 0 0 4.5 2.25 2.25 0 0 0 0-4.5" fill="currentColor"/><path d="M16 8.75a7.25 7.25 0 1 0 0 14.5 7.25 7.25 0 0 0 0-14.5M11.25 16a4.75 4.75 0 1 1 9.5 0 4.75 4.75 0 0 1-9.5 0" fill="currentColor"/><path d="M16.001 3.75C9.235 3.75 3.75 9.235 3.75 16.001s5.485 12.252 12.251 12.252 12.252-5.486 12.252-12.252S22.767 3.75 16 3.75zM6.25 16.001c0-5.385 4.366-9.751 9.751-9.751 5.386 0 9.752 4.366 9.752 9.751 0 5.386-4.366 9.752-9.752 9.752-5.385 0-9.751-4.366-9.751-9.752" fill="currentColor"/></g></svg>