<svg xmlns="http://www.w3.org/2000/svg" xmlns:xlink="http://www.w3.org/1999/xlink" viewBox="0 0 20 20"><path d="M14.354 6.396a.5.5 0 0 1 0 .708l-1.75 1.75a.5.5 0 0 1-.691.015l-.75-.685a.5.5 0 0 1 .674-.738l.397.362 1.412-1.412a.5.5 0 0 1 .708 0m0 5.708a.5.5 0 0 0-.707-.708l-1.413 1.412-.397-.362a.5.5 0 0 0-.674.738l.75.685a.5.5 0 0 0 .69-.015l1.75-1.75zM6 12.5a.5.5 0 0 1 .5-.5H9a.5.5 0 0 1 0 1H6.5a.5.5 0 0 1-.5-.5M6.5 7a.5.5 0 0 0 0 1H9a.5.5 0 0 0 0-1zM3 4.5A1.5 1.5 0 0 1 4.5 3h11A1.5 1.5 0 0 1 17 4.5v11a1.5 1.5 0 0 1-1.5 1.5h-11A1.5 1.5 0 0 1 3 15.5zM4.5 4a.5.5 0 0 0-.5.5v11a.5.5 0 0 0 .5.5h11a.5.5 0 0 0 .5-.5v-11a.5.5 0 0 0-.5-.5z" fill="currentColor"/></svg>