<svg xmlns="http://www.w3.org/2000/svg" viewBox="0 0 20 20"><path fill="currentColor" d="M3 5.5A2.5 2.5 0 0 1 5.5 3h9A2.5 2.5 0 0 1 17 5.5v4.1A5.5 5.5 0 0 0 9.6 17H5.5A2.5 2.5 0 0 1 3 14.5zm5.854 1.354a.5.5 0 1 0-.708-.708L6.5 7.793l-.646-.647a.5.5 0 1 0-.708.708l1 1a.5.5 0 0 0 .708 0zm0 4.292a.5.5 0 0 0-.708 0L6.5 12.793l-.646-.647a.5.5 0 0 0-.708.708l1 1a.5.5 0 0 0 .708 0l2-2a.5.5 0 0 0 0-.708M10.5 7a.5.5 0 0 0 0 1h3a.5.5 0 0 0 0-1zm4 12a4.5 4.5 0 1 0 0-9 4.5 4.5 0 0 0 0 9m0-7a.5.5 0 0 1 .5.5V14h1.5a.5.5 0 0 1 0 1H15v1.5a.5.5 0 0 1-1 0V15h-1.5a.5.5 0 0 1 0-1H14v-1.5a.5.5 0 0 1 .5-.5"/></svg>