<svg xmlns="http://www.w3.org/2000/svg" xmlns:xlink="http://www.w3.org/1999/xlink" viewBox="0 0 20 20"><path d="M4.5 3A1.5 1.5 0 0 0 3 4.5v11A1.5 1.5 0 0 0 4.5 17h11a1.5 1.5 0 0 0 1.5-1.5v-11A1.5 1.5 0 0 0 15.5 3zm4.854 3.396a.5.5 0 0 1 0 .708l-1.75 1.75a.5.5 0 0 1-.691.015l-.75-.685a.5.5 0 1 1 .674-.738l.397.362 1.412-1.412a.5.5 0 0 1 .708 0m0 5a.5.5 0 0 1 0 .708l-1.75 1.75a.5.5 0 0 1-.691.015l-.75-.685a.5.5 0 0 1 .674-.738l.397.363 1.412-1.413a.5.5 0 0 1 .708 0M11 12h2.5a.5.5 0 0 1 0 1H11a.5.5 0 0 1 0-1m-.5-4.5A.5.5 0 0 1 11 7h2.5a.5.5 0 0 1 0 1H11a.5.5 0 0 1-.5-.5" fill="currentColor"/></svg>