<svg xmlns="http://www.w3.org/2000/svg" xmlns:xlink="http://www.w3.org/1999/xlink" viewBox="0 0 24 24"><path d="M17.75 2.001a2.25 2.25 0 0 1 2.245 2.096L20 4.25v10.128q-.181.12-.341.28l-3.409 3.408-.908-.91a2.24 2.24 0 0 0-1.5-.657h2.408a.75.75 0 1 0 0-1.5h-5.004a.75.75 0 0 0 0 1.5h2.413a2.25 2.25 0 0 0-1.5 3.838L13.817 22H6.25a2.25 2.25 0 0 1-2.245-2.096L4 19.75V4.251a2.25 2.25 0 0 1 2.096-2.245l.154-.005zM9 7.751a1 1 0 1 0-2 0 1 1 0 0 0 2 0M11.246 7a.75.75 0 0 0 0 1.5h5.004a.75.75 0 1 0 0-1.5zm-.75 4.75c0 .414.336.75.75.75h5.004a.75.75 0 1 0 0-1.5h-5.004a.75.75 0 0 0-.75.75M9 11.75a1 1 0 1 0-2 0 1 1 0 0 0 2 0m0 3.998a1 1 0 1 0-2 0 1 1 0 0 0 2 0m7.25 4.441 4.47-4.47a.75.75 0 1 1 1.06 1.061l-5 5a.75.75 0 0 1-1.06 0l-2.5-2.501a.75.75 0 0 1 1.06-1.06z" fill="currentColor"/></svg>