<svg xmlns="http://www.w3.org/2000/svg" viewBox="0 0 20 20"><path fill="currentColor" d="M8.854 6.146a.5.5 0 0 1 0 .708l-2 2a.5.5 0 0 1-.708 0l-1-1a.5.5 0 1 1 .708-.708l.646.647 1.646-1.647a.5.5 0 0 1 .708 0m0 5a.5.5 0 0 1 0 .708l-2 2a.5.5 0 0 1-.708 0l-1-1a.5.5 0 0 1 .708-.708l.646.647 1.646-1.647a.5.5 0 0 1 .708 0M10 7.5a.5.5 0 0 1 .5-.5h3a.5.5 0 0 1 0 1h-3a.5.5 0 0 1-.5-.5M5.5 3A2.5 2.5 0 0 0 3 5.5v9A2.5 2.5 0 0 0 5.5 17h4.1a5.5 5.5 0 0 1-.393-1H5.5A1.5 1.5 0 0 1 4 14.5v-9A1.5 1.5 0 0 1 5.5 4h9A1.5 1.5 0 0 1 16 5.5v3.707q.524.149 1 .393V5.5A2.5 2.5 0 0 0 14.5 3zm9 16a4.5 4.5 0 1 0 0-9 4.5 4.5 0 0 0 0 9m0-7a.5.5 0 0 1 .5.5V14h1.5a.5.5 0 0 1 0 1H15v1.5a.5.5 0 0 1-1 0V15h-1.5a.5.5 0 0 1 0-1H14v-1.5a.5.5 0 0 1 .5-.5"/></svg>