<svg xmlns="http://www.w3.org/2000/svg" xmlns:xlink="http://www.w3.org/1999/xlink" viewBox="0 0 20 20"><path d="M5.5 3a3.5 3.5 0 0 0-2.853 5.528c.998-2.171 3.055-3.775 5.496-4.323A3.5 3.5 0 0 0 5.5 3m12.498 3.5a3.5 3.5 0 0 1-.646 2.027c-.998-2.171-3.055-3.775-5.496-4.322A3.5 3.5 0 0 1 17.999 6.5zM3 11.5C3 7.873 6.172 5 10 5s7 2.873 7 6.5c0 1.665-.669 3.172-1.763 4.314a5.503 5.503 0 0 0-10.474 0C3.67 14.672 3 13.165 3 11.5m8.328 1.699a4.51 4.51 0 0 1 3.073 3.356A7.33 7.33 0 0 1 10 18a7.33 7.33 0 0 1-4.4-1.445 4.51 4.51 0 0 1 3.072-3.356 1.5 1.5 0 0 0 2.655 0z" fill="currentColor"/></svg>