<svg xmlns="http://www.w3.org/2000/svg" xmlns:xlink="http://www.w3.org/1999/xlink" viewBox="0 0 20 20"><path d="M12 5.75a.75.75 0 0 0-.75-.75h-2.5a.75.75 0 0 0 0 1.5h2.5a.75.75 0 0 0 .75-.75m5 0a.75.75 0 0 0-.75-.75h-2.5a.75.75 0 0 0 0 1.5h2.5a.75.75 0 0 0 .75-.75m-10 0A.75.75 0 0 0 6.25 5h-2.5a.75.75 0 0 0 0 1.5h2.5A.75.75 0 0 0 7 5.75m5 3a.75.75 0 0 0-.75-.75h-2.5a.75.75 0 0 0 0 1.5h2.5a.75.75 0 0 0 .75-.75m5 0a.75.75 0 0 0-.75-.75h-2.5a.75.75 0 0 0 0 1.5h2.5a.75.75 0 0 0 .75-.75m-10 0A.75.75 0 0 0 6.25 8h-2.5a.75.75 0 0 0 0 1.5h2.5A.75.75 0 0 0 7 8.75m5 3a.75.75 0 0 0-.75-.75h-2.5a.75.75 0 0 0 0 1.5h2.5a.75.75 0 0 0 .75-.75m5 0a.75.75 0 0 0-.75-.75h-2.5a.75.75 0 0 0 0 1.5h2.5a.75.75 0 0 0 .75-.75m-10 0a.75.75 0 0 0-.75-.75h-2.5a.75.75 0 0 0 0 1.5h2.5a.75.75 0 0 0 .75-.75m5 3a.75.75 0 0 0-.75-.75h-2.5a.75.75 0 0 0 0 1.5h2.5a.75.75 0 0 0 .75-.75m5 0a.75.75 0 0 0-.75-.75h-2.5a.75.75 0 0 0 0 1.5h2.5a.75.75 0 0 0 .75-.75m-10 0a.75.75 0 0 0-.75-.75h-2.5a.75.75 0 0 0 0 1.5h2.5a.75.75 0 0 0 .75-.75" fill="currentColor"/></svg>