<svg xmlns="http://www.w3.org/2000/svg" xmlns:xlink="http://www.w3.org/1999/xlink" viewBox="0 0 20 20"><path d="M5 3a2 2 0 0 0-2 2v10a2 2 0 0 0 2 2h2.05a2.5 2.5 0 0 1 4.45-2c.456-.607 1.182-1 2-1s1.544.393 2 1a2.5 2.5 0 0 1 1.5-.95V5a2 2 0 0 0-2-2zm1.5 3h7a.5.5 0 0 1 0 1h-7a.5.5 0 0 1 0-1M6 12.5a.5.5 0 0 1 .5-.5h7a.5.5 0 0 1 0 1h-7a.5.5 0 0 1-.5-.5M6.4 9h4a.5.5 0 0 1 0 1h-4a.5.5 0 0 1 0-1m9.6 7.5a1.5 1.5 0 1 0 3 0 1.5 1.5 0 0 0-3 0M13.5 15a1.5 1.5 0 1 1 0 3 1.5 1.5 0 0 1 0-3M11 16.5a1.5 1.5 0 1 0-3 0 1.5 1.5 0 0 0 3 0" fill="currentColor"/></svg>