<svg xmlns="http://www.w3.org/2000/svg" viewBox="0 0 20 20"><path fill="currentColor" d="m16.05 14.587-.012-.035-4.32-10.376a1.72 1.72 0 0 0-.67-.866 1.8 1.8 0 0 0-.952-.303 1.68 1.68 0 0 0-1.116.291 1.9 1.9 0 0 0-.678.834l-.004.01-4.382 10.62-.019.113c-.02.121-.047.294-.047.436 0 .418.127.865.48 1.217.37.37.843.48 1.25.48.357 0 .7-.104.997-.315a1.73 1.73 0 0 0 .653-.857l.771-1.87h3.92l.804 1.904.007.017c.133.284.32.548.58.76l.037.03.04.027c.296.197.635.304.998.304.469 0 .892-.179 1.22-.5a1.73 1.73 0 0 0 .545-1.282q.001-.324-.103-.64zm-.898.64q0 .34-.238.56a.72.72 0 0 1-.527.221.8.8 0 0 1-.442-.136 1.14 1.14 0 0 1-.306-.408l-1.054-2.499H7.332l-1.037 2.516a.73.73 0 0 1-.29.391.7.7 0 0 1-.424.136q-.357 0-.544-.187-.187-.186-.187-.51-.001-.068.034-.272L9.219 4.533a.9.9 0 0 1 .323-.408.7.7 0 0 1 .493-.119q.255 0 .459.136a.73.73 0 0 1 .289.391l4.318 10.37q.05.153.05.323zm-7.174-3.809h3.96L9.95 6.658zm1.975-2.157.484 1.157h-.963l.48-1.157z"/></svg>