<svg xmlns="http://www.w3.org/2000/svg" viewBox="0 0 24 25"><path fill="currentColor" d="M3.75 5.5a.75.75 0 0 0 0 1.5h16.5a.75.75 0 0 0 0-1.5zm0 4a.75.75 0 0 0 0 1.5h16.5a.75.75 0 0 0 0-1.5zM3 14.25a.75.75 0 0 1 .75-.75h9.06a6.5 6.5 0 0 0-1.078 1.5H3.75a.75.75 0 0 1-.75-.75M11 18q0-.252.019-.5H3.75a.75.75 0 0 0 0 1.5h7.326A6.6 6.6 0 0 1 11 18m12 0a5.5 5.5 0 1 1-11 0 5.5 5.5 0 0 1 11 0m-4.471-3.5h-1.433a.5.5 0 0 0-.468.324l-1.125 3a.5.5 0 0 0 .469.676h.778l-.773 2.318a.518.518 0 0 0 .926.446l2.625-4.038a.47.47 0 0 0-.393-.726H18.5l.497-1.324a.5.5 0 0 0-.468-.676"/></svg>