<svg xmlns="http://www.w3.org/2000/svg" viewBox="0 0 20 20"><path fill="currentColor" d="m16.506 14.377.018.052q.13.396.128.797a2.23 2.23 0 0 1-.697 1.641c-.42.41-.967.641-1.568.641-.465 0-.9-.138-1.274-.388l-.061-.04-.057-.047a2.6 2.6 0 0 1-.716-.934l-.012-.026-.678-1.608H8.336l-.64 1.551a2.22 2.22 0 0 1-.833 1.087 2.2 2.2 0 0 1-1.282.405c-.493 0-1.112-.133-1.605-.626-.466-.466-.626-1.051-.626-1.57 0-.191.035-.405.054-.52l.028-.168L7.838 3.946l.006-.014c.169-.385.44-.768.855-1.048a2.18 2.18 0 0 1 1.427-.376c.422.016.833.142 1.2.386.42.28.7.672.857 1.101zm-5.723-9.844a.74.74 0 0 0-.29-.39.8.8 0 0 0-.458-.137.7.7 0 0 0-.493.12.9.9 0 0 0-.323.407L4.884 15.04a2 2 0 0 0-.034.272q0 .324.187.51.186.187.544.187.237 0 .425-.136a.7.7 0 0 0 .239-.271 1 1 0 0 0 .05-.12l1.037-2.516h5.253l1.054 2.5q.118.255.306.407.204.136.442.136a.72.72 0 0 0 .527-.22.73.73 0 0 0 .238-.562q0-.169-.051-.323l-4.318-10.37zM9.95 6.658l1.989 4.76H7.978z"/></svg>