<svg xmlns="http://www.w3.org/2000/svg" xmlns:xlink="http://www.w3.org/1999/xlink" viewBox="0 0 24 24"><path d="M3.5 14.5a1.5 1.5 0 1 1 0 3 1.5 1.5 0 0 1 0-3m4 .5h3.998a6.5 6.5 0 0 0-.48 2H7.5a1 1 0 0 1-.116-1.993zm0-4h13.503l.117-.007A1 1 0 0 0 21.003 9H7.5l-.116.007A1 1 0 0 0 7.5 11m-4-2.5a1.5 1.5 0 1 1 0 3 1.5 1.5 0 0 1 0-3m0-5.992a1.5 1.5 0 1 1 0 2.999 1.5 1.5 0 0 1 0-3zM7.5 3h13.503a1 1 0 0 1 .117 1.993L21.003 5H7.5a1 1 0 0 1-.116-1.993zM23 17.5a5.5 5.5 0 1 0-11 0 5.5 5.5 0 0 0 11 0m-5 .5.001 2.503a.5.5 0 1 1-1 0V18h-2.505a.5.5 0 0 1 0-1H17v-2.5a.5.5 0 1 1 1 0V17h2.497a.5.5 0 0 1 0 1z" fill="currentColor"/></svg>