<svg xmlns="http://www.w3.org/2000/svg" xmlns:xlink="http://www.w3.org/1999/xlink" viewBox="0 0 20 20"><path d="M17.31 3a.75.75 0 0 1 .69.748v5.503a.75.75 0 0 1-1.5 0V6.114a4 4 0 0 1-.311.228.75.75 0 0 1-.832-1.248c.616-.411 1.063-1.062 1.16-1.506A.75.75 0 0 1 17.31 3M10.2 15.07a.8.8 0 0 1-.2-.545V6.608c0-.219.066-.418.212-.577l.004-.004a.76.76 0 0 1 .563-.235.74.74 0 0 1 .56.237c.15.158.22.358.22.579v2.348q.215-.21.481-.367h.002q.597-.346 1.324-.345c.87 0 1.588.33 2.128.986.537.652.793 1.507.793 2.538 0 1.035-.256 1.892-.793 2.544-.541.654-1.265.98-2.147.98-.493 0-.943-.113-1.342-.344h-.001a2.5 2.5 0 0 1-.495-.38.745.745 0 0 1-.766.724.72.72 0 0 1-.54-.217zm1.81-1.76c.298.372.669.55 1.13.55.488 0 .855-.176 1.13-.529.28-.365.434-.877.434-1.563 0-.682-.154-1.192-.435-1.557-.275-.357-.642-.536-1.129-.536-.46 0-.831.18-1.13.557-.297.375-.457.88-.457 1.536 0 .661.16 1.167.456 1.542zM1.75 14.517c0 .212.085.396.243.536L2 15.06a.88.88 0 0 0 .57.19.8.8 0 0 0 .493-.156.9.9 0 0 0 .3-.43l.746-2.026h3.274l.751 2.025v.001a.9.9 0 0 0 .3.43.8.8 0 0 0 .494.156c.212 0 .41-.059.568-.194a.69.69 0 0 0 .253-.539c0-.125-.035-.26-.086-.395l-2.95-7.685a1.1 1.1 0 0 0-.366-.507.97.97 0 0 0-.584-.18c-.224 0-.43.056-.605.18a1.1 1.1 0 0 0-.378.514l-2.944 7.678a1.1 1.1 0 0 0-.086.395m5.128-3.315H4.622L5.75 8.104z" fill="currentColor"/></svg>