<svg xmlns="http://www.w3.org/2000/svg" xmlns:xlink="http://www.w3.org/1999/xlink" viewBox="0 0 24 24"><path d="M21 18.25A2.75 2.75 0 0 1 18.25 21H5.75A2.75 2.75 0 0 1 3 18.25V5.75A2.75 2.75 0 0 1 5.75 3h12.5A2.75 2.75 0 0 1 21 5.75zM16.516 7l-.007-.136c-.05-.488-.364-.864-.743-.864-.415 0-.75.448-.75 1v10l.007.136c.05.488.363.864.743.864.414 0 .75-.448.75-1zm-3 10V7l-.007-.136c-.05-.488-.364-.864-.743-.864-.415 0-.75.448-.75 1v10l.007.136c.05.488.363.864.743.864.414 0 .75-.448.75-1" fill="currentColor"/></svg>