<svg xmlns="http://www.w3.org/2000/svg" xmlns:xlink="http://www.w3.org/1999/xlink" viewBox="0 0 24 24"><path d="M3.75 3.75a1 1 0 0 0 0 2h16.5a1 1 0 1 0 0-2zm7 7.25q0-.13.025-.25h2.45q.025.12.025.25v1.75h-2.5zm3.486-.25q.014.123.014.25v4.75a1 1 0 1 0 2 0V11a4.25 4.25 0 0 0-8.5 0v4.75a1 1 0 1 0 2 0V11a2.25 2.25 0 0 1 4.486-.25m6.014 2h-3V11q0-.126-.006-.25h3.006a1 1 0 1 1 0 2M6.75 11q0-.126.006-.25H3.75a1 1 0 1 0 0 2h3zm-4 7.75a1 1 0 0 1 1-1h16.5a1 1 0 1 1 0 2H3.75a1 1 0 0 1-1-1" fill="currentColor"/></svg>