<svg xmlns="http://www.w3.org/2000/svg" xmlns:xlink="http://www.w3.org/1999/xlink" viewBox="0 0 20 20"><path d="M14.5 10a4.5 4.5 0 1 1 0 9 4.5 4.5 0 0 1 0-9m2.353 4.854.003-.003a.5.5 0 0 0 .144-.348v-.006a.5.5 0 0 0-.146-.35l-2-2a.5.5 0 0 0-.708.707L15.293 14H12.5a.5.5 0 0 0 0 1h2.793l-1.147 1.146a.5.5 0 0 0 .708.708zM18 5.75a.75.75 0 0 0-.75-.75H2.75a.75.75 0 1 0 0 1.5h14.5a.75.75 0 0 0 .75-.75m0 3a.75.75 0 0 0-.75-.75H2.75a.75.75 0 1 0 0 1.5h9.456A5.5 5.5 0 0 1 14.5 9a5.5 5.5 0 0 1 2.294.5h.456a.75.75 0 0 0 .75-.75M9.09 15.5H2.75a.75.75 0 0 1 0-1.5h6.272a5.6 5.6 0 0 0 .069 1.5zm.285-3H2.75a.75.75 0 0 1 0-1.5h7.507a5.5 5.5 0 0 0-.882 1.5" fill="currentColor"/></svg>