<svg xmlns="http://www.w3.org/2000/svg" xmlns:xlink="http://www.w3.org/1999/xlink" viewBox="0 0 24 24"><path d="M5.25 3A2.25 2.25 0 0 0 3 5.25v13.5A2.25 2.25 0 0 0 5.25 21h5.8c.053-.26.147-.511.28-.744l2.15-3.756h-2.23a.75.75 0 1 1 0-1.5h3.087l.996-1.742q.164-.285.383-.508H11.25a.75.75 0 1 1 0-1.5h5.5a.75.75 0 0 1 .75.75 2.5 2.5 0 0 1 2.167 1.258L21 15.589V5.25A2.25 2.25 0 0 0 18.75 3zm3.5 5.25a1 1 0 1 1-2 0 1 1 0 0 1 2 0m1.75 0a.75.75 0 0 1 .75-.75h5.5a.75.75 0 0 1 0 1.5h-5.5a.75.75 0 0 1-.75-.75M7.75 13a1 1 0 1 1 0-2 1 1 0 0 1 0 2m1 2.75a1 1 0 1 1-2 0 1 1 0 0 1 2 0m8.358-2.697a1.5 1.5 0 0 1 1.69.702l4.004 6.998c.205.36.246.768.145 1.139a1.49 1.49 0 0 1-1.444 1.107h-8.006c-.413 0-.787-.167-1.058-.44a1.495 1.495 0 0 1-.24-1.806l4.002-6.999a1.5 1.5 0 0 1 .907-.701m.888 2.447a.5.5 0 0 0-1 0v3a.5.5 0 0 0 1 0zm-.496 6a.75.75 0 1 0 0-1.5.75.75 0 0 0 0 1.5" fill="currentColor"/></svg>