<svg xmlns="http://www.w3.org/2000/svg" viewBox="0 0 16 16"><path fill="currentColor" d="M3.684 1.01c.193.045.33.21.33.402v3.294a.42.42 0 0 1-.428.412.42.42 0 0 1-.428-.412V2.58a3 3 0 0 1-.664.435.436.436 0 0 1-.574-.184.405.405 0 0 1 .192-.552c.353-.17.629-.432.82-.661a3 3 0 0 0 .27-.388.44.44 0 0 1 .482-.22m-1.53 6.046a.4.4 0 0 1 0-.582l.002-.001V6.47l.004-.002.008-.008a1 1 0 0 1 .103-.084 2.2 2.2 0 0 1 1.313-.435h.007c.32.004.668.084.947.283.295.21.485.536.485.951 0 .452-.207.767-.488.992-.214.173-.49.303-.714.409q-.054.024-.103.049c-.267.128-.468.24-.61.39a.8.8 0 0 0-.147.22h1.635a.42.42 0 0 1 .427.411.42.42 0 0 1-.428.412H2.457a.42.42 0 0 1-.428-.412c0-.51.17-.893.446-1.184.259-.275.592-.445.86-.574q.065-.03.124-.06c.231-.11.4-.19.529-.293.12-.097.18-.193.18-.36 0-.148-.057-.23-.14-.289a.8.8 0 0 0-.448-.122 1.32 1.32 0 0 0-.818.289l-.005.005a.44.44 0 0 1-.602-.003zm.94 5.885a.42.42 0 0 1 .427-.412c.294 0 .456-.08.537-.15a.3.3 0 0 0 .11-.246c-.006-.16-.158-.427-.647-.427-.352 0-.535.084-.618.137a.4.4 0 0 0-.076.062l-.003.004.01-.018v.001l-.002.002-.002.004-.003.006-.005.008.002-.003a.436.436 0 0 1-.563.165.405.405 0 0 1-.191-.552v-.002l.002-.003.003-.006.008-.013a.7.7 0 0 1 .087-.12c.058-.067.142-.146.259-.22.238-.153.59-.276 1.092-.276.88 0 1.477.556 1.502 1.22.012.303-.1.606-.339.84.238.232.351.535.34.838-.026.664-.622 1.22-1.503 1.22-.502 0-.854-.122-1.092-.275a1.2 1.2 0 0 1-.326-.308l-.02-.033-.008-.013-.003-.005-.001-.003v-.001l-.001-.001a.405.405 0 0 1 .19-.553.436.436 0 0 1 .564.165l.003.004c.01.01.033.035.076.063.083.053.266.137.618.137.489 0 .641-.268.648-.428a.3.3 0 0 0-.11-.245c-.082-.072-.244-.151-.538-.151a.42.42 0 0 1-.427-.412M7.5 3a.5.5 0 0 0 0 1h6a.5.5 0 0 0 0-1zm0 4a.5.5 0 0 0 0 1h6a.5.5 0 0 0 0-1zm0 4a.5.5 0 0 0 0 1h6a.5.5 0 0 0 0-1z"/></svg>