<svg xmlns="http://www.w3.org/2000/svg" viewBox="0 0 24 24"><path fill="currentColor" d="M3.25 15.5a1.25 1.25 0 1 1 0 2.499 1.25 1.25 0 0 1 0-2.499m3.5.5h4.424A6.5 6.5 0 0 0 11 17.5H6.75a.75.75 0 0 1-.102-1.493zm0-5h14.5l.102-.007A.75.75 0 0 0 21.25 9.5H6.75l-.102.007A.75.75 0 0 0 6.75 11m-3.5-2a1.25 1.25 0 1 1 0 2.499A1.25 1.25 0 0 1 3.25 9m0-6.5a1.25 1.25 0 1 1 0 2.499 1.25 1.25 0 0 1 0-2.499m3.5.5h14.5a.75.75 0 0 1 .102 1.493l-.102.007H6.75a.75.75 0 0 1-.102-1.493zM23 17.5a5.5 5.5 0 1 0-11 0 5.5 5.5 0 0 0 11 0m-5 .5.001 2.503a.5.5 0 1 1-1 0V18h-2.505a.5.5 0 0 1 0-1H17v-2.5a.5.5 0 1 1 1 0V17h2.497a.5.5 0 0 1 0 1z"/></svg>