<svg xmlns="http://www.w3.org/2000/svg" xmlns:xlink="http://www.w3.org/1999/xlink" viewBox="0 0 24 24"><path d="m20.068 18.11.017.052c.098.293.143.593.143.892 0 .68-.253 1.32-.767 1.806a2.43 2.43 0 0 1-1.723.706c-.51 0-.989-.152-1.404-.428l-.06-.04-.057-.047a3 3 0 0 1-.806-1.055l-.012-.025-.988-2.343H9.613l-.944 2.289c-.17.472-.471.897-.92 1.204a2.4 2.4 0 0 1-1.407.445c-.562 0-1.234-.152-1.764-.681-.503-.503-.682-1.138-.682-1.721 0-.204.04-.445.065-.599l.028-.168L9.669 4.63l.007-.014a2.7 2.7 0 0 1 .95-1.168 2.4 2.4 0 0 1 1.572-.412 2.54 2.54 0 0 1 1.335.427c.46.307.77.738.943 1.218zM13.074 5.216a.95.95 0 0 0-.373-.506 1.04 1.04 0 0 0-.595-.176.9.9 0 0 0-.638.154 1.2 1.2 0 0 0-.418.528L5.44 18.812a3 3 0 0 0-.044.352q0 .417.242.66.243.242.704.242a.9.9 0 0 0 .55-.176.95.95 0 0 0 .374-.506l1.342-3.256h6.798l1.364 3.234q.155.33.396.528.265.176.572.176a.93.93 0 0 0 .683-.286.95.95 0 0 0 .308-.726 1.3 1.3 0 0 0-.066-.418zm1.496 8.91-2.574-6.16-2.552 6.16zm-2.88-1.5h.628l-.316-.755z" fill="currentColor"/></svg>