<svg xmlns="http://www.w3.org/2000/svg" viewBox="0 0 20 20"><path fill="currentColor" d="M17 1.5a.5.5 0 0 0-.385-.487.51.51 0 0 0-.563.266 3.5 3.5 0 0 1-.317.471 3 3 0 0 1-.959.803.5.5 0 1 0 .448.894c.3-.15.558-.336.776-.529V5.5a.5.5 0 0 0 1 0zm-2.354 6.146a.5.5 0 0 0 .704.71l.007-.005a1.4 1.4 0 0 1 .236-.163c.172-.095.417-.187.72-.188.227.004.41.065.524.149.096.07.163.17.163.351 0 .202-.07.32-.21.436-.152.126-.349.224-.619.357l-.145.072c-.313.157-.702.364-1.005.697-.322.354-.521.819-.521 1.438a.5.5 0 0 0 .5.5h2.5a.5.5 0 0 0 0-1h-1.91a1 1 0 0 1 .17-.265c.166-.183.402-.32.714-.475l.12-.06c.263-.128.584-.286.835-.496.329-.273.571-.656.571-1.204 0-.504-.223-.9-.568-1.155-.326-.242-.732-.339-1.106-.345h-.009a2.5 2.5 0 0 0-1.655.632l-.01.008-.003.004-.001.001zM15.75 15.5a.5.5 0 0 1 .5-.5c.343 0 .532-.097.628-.183a.38.38 0 0 0 .129-.298c-.008-.194-.186-.52-.757-.52-.412 0-.626.103-.723.167a.4.4 0 0 0-.088.076l-.004.005.012-.023-.001.002-.001.003-.003.004-.004.008-.005.008.002-.002a.5.5 0 0 1-.882-.47v-.002l.001-.002.002-.003.004-.006.008-.016a1 1 0 0 1 .103-.146c.067-.081.165-.177.302-.268.278-.186.69-.334 1.277-.334 1.03 0 1.726.675 1.756 1.481.014.368-.118.736-.396 1.019.278.283.41.651.396 1.019-.03.806-.727 1.48-1.756 1.48-.587 0-.999-.147-1.277-.333a1.4 1.4 0 0 1-.38-.374l-.025-.04-.008-.016-.004-.006-.002-.004v-.001l-.001-.002a.5.5 0 0 1 .882-.47l.004.005c.01.013.038.042.088.076.097.064.31.166.723.166.57 0 .75-.325.757-.519a.37.37 0 0 0-.13-.298c-.095-.086-.284-.183-.627-.183a.5.5 0 0 1-.5-.5M3.75 4a.75.75 0 1 0 0 1.5h7.5a.75.75 0 0 0 0-1.5zm0 5a.75.75 0 1 0 0 1.5h7.5a.75.75 0 0 0 0-1.5zm0 5a.75.75 0 0 0 0 1.5h7.5a.75.75 0 0 0 0-1.5z"/></svg>