<svg xmlns="http://www.w3.org/2000/svg" xmlns:xlink="http://www.w3.org/1999/xlink" viewBox="0 0 20 20"><path d="M3.5 5a.5.5 0 0 0 0 1h13a.5.5 0 0 0 0-1zm0 3a.5.5 0 0 0 0 1h13a.5.5 0 0 0 0-1zM9 14.5q0-.252.022-.5H3.5a.5.5 0 0 0 0 1h5.522A6 6 0 0 1 9 14.5m.6-2.5q.276-.538.657-1H3.5a.5.5 0 0 0 0 1zm9.4 2.5a4.5 4.5 0 1 1-9 0 4.5 4.5 0 0 1 9 0m-5.12-3a.5.5 0 0 0-.472.334l-.88 2.5A.5.5 0 0 0 13 15h.776l-.508 1.869a.5.5 0 0 0 .903.401l2.25-3.5A.5.5 0 0 0 16 13h-.746l.28-.842a.5.5 0 0 0-.474-.658z" fill="currentColor"/></svg>