<svg xmlns="http://www.w3.org/2000/svg" viewBox="0 0 20 20"><path fill="currentColor" d="M3.75 5a.75.75 0 0 0 0 1.5h12.5a.75.75 0 0 0 0-1.5zm0 3a.75.75 0 0 0 0 1.5h8.456A5.5 5.5 0 0 1 14.5 9c.743 0 1.452.147 2.098.414A.75.75 0 0 0 16.25 8zm0 3h6.507a5.5 5.5 0 0 0-.882 1.5H3.75a.75.75 0 0 1 0-1.5m0 3h5.272a5.6 5.6 0 0 0 .069 1.5H3.75a.75.75 0 0 1 0-1.5m15.25.5a4.5 4.5 0 1 1-9 0 4.5 4.5 0 0 1 9 0m-5.12-3a.5.5 0 0 0-.472.334l-.88 2.5A.5.5 0 0 0 13 15h.776l-.508 1.869a.5.5 0 0 0 .903.401l2.25-3.5A.5.5 0 0 0 16 13h-.746l.28-.842a.5.5 0 0 0-.474-.658z"/></svg>