<svg xmlns="http://www.w3.org/2000/svg" xmlns:xlink="http://www.w3.org/1999/xlink" viewBox="0 0 16 16"><path d="M2.002 2.94a.75.75 0 0 1 1.059.062L6.5 6.872l3.44-3.87a.75.75 0 0 1 1.12.996L7.504 8l2.374 2.67a2.8 2.8 0 0 0-.127.83c0 .472.187.9.49 1.214a4 4 0 0 0-.195.382 1 1 0 0 1-.106-.098L6.5 9.128l-3.44 3.87a.75.75 0 1 1-1.12-.996L5.496 8 1.939 3.998a.75.75 0 0 1 .063-1.059zM12.25 11.5a.25.25 0 1 1 .5 0c0 .11-.019.172-.034.207a.4.4 0 0 1-.082.115c-.046.046-.11.096-.208.161l-.146.094-.013.008-.188.122c-.925.628-1.329 1.473-1.329 2.293 0 .414.336.75.75.75h2a.75.75 0 0 0 0-1.5h-.933a2 2 0 0 1 .457-.367c.171-.108.46-.29.67-.5.327-.326.556-.77.556-1.383a1.75 1.75 0 1 0-3.5 0 .75.75 0 0 0 1.5 0" fill="currentColor"/></svg>