<svg xmlns="http://www.w3.org/2000/svg" viewBox="0 0 24 24"><path fill="currentColor" d="M2.212 13.82q.22.18.55.18.54 0 .744-.563l1.074-2.92h4.831l1.083 2.92q.203.563.745.563.33 0 .541-.18a.59.59 0 0 0 .22-.465q0-.162-.093-.407L7.973 2.702Q7.702 2 7.017 2q-.728 0-.998.71L2.093 12.948a1.2 1.2 0 0 0-.093.407q0 .277.212.465M8.98 9.27H5.02L6.975 3.9h.05zM13 13.105l1.748-1.748q-.344-.723-.344-1.722 0-1.395.681-2.256.69-.868 1.769-.868 1.12 0 1.769.844.534.695.629 1.793c.424.14.823.378 1.161.715l.286.286a8 8 0 0 0 .017-.514q0-1.98-.982-3.173-.981-1.192-2.58-1.192a3.13 3.13 0 0 0-1.598.414q-.705.413-1.112 1.144h-.032V2.755a.75.75 0 0 0-.203-.544.65.65 0 0 0-.503-.211.68.68 0 0 0-.511.21.77.77 0 0 0-.195.545zm3.982 8.395h3.02a.75.75 0 1 1 0 1.5H14.5l.002-.007a1.94 1.94 0 0 1-1.208-.563l-2.724-2.724a1.95 1.95 0 0 1 .002-2.76l6.374-6.374a1.95 1.95 0 0 1 2.759-.001l2.724 2.723a1.95 1.95 0 0 1-.002 2.76zm1.026-9.867L13.85 15.79l3.36 3.36 4.157-4.157a.45.45 0 0 0 .001-.638l-2.724-2.724a.45.45 0 0 0-.637.002zM12.79 16.85l-1.157 1.157a.45.45 0 0 0-.001.637l2.724 2.724a.45.45 0 0 0 .637-.002l1.157-1.157z"/></svg>