<svg xmlns="http://www.w3.org/2000/svg" xmlns:xlink="http://www.w3.org/1999/xlink" viewBox="0 0 24 24"><path d="M3 5.25A2.25 2.25 0 0 1 5.25 3h13.5A2.25 2.25 0 0 1 21 5.25v5.762a3.28 3.28 0 0 0-2.607.95L15.355 15H11.25a.75.75 0 1 0 0 1.5h2.605l-1.365 1.365a3.7 3.7 0 0 0-.97 1.712L11.166 21H5.25A2.25 2.25 0 0 1 3 18.75zm4.75 4a1 1 0 1 0 0-2 1 1 0 0 0 0 2m3.5-1.75a.75.75 0 0 0 0 1.5h5.5a.75.75 0 0 0 0-1.5zm0 3.75a.75.75 0 1 0 0 1.5h5.5a.75.75 0 1 0 0-1.5zm-4.5.75a1 1 0 1 0 2 0 1 1 0 0 0-2 0m1 4.75a1 1 0 1 0 0-2 1 1 0 0 0 0 2m11.35-4.08-5.903 5.902a2.7 2.7 0 0 0-.706 1.247l-.458 1.831a1.087 1.087 0 0 0 1.319 1.318l1.83-.457a2.7 2.7 0 0 0 1.248-.707l5.902-5.902A2.286 2.286 0 0 0 19.1 12.67" fill="currentColor"/></svg>