<svg xmlns="http://www.w3.org/2000/svg" xmlns:xlink="http://www.w3.org/1999/xlink" viewBox="0 0 24 24"><path d="m20.537 17.934.023.07c.115.346.169.7.169 1.05a2.95 2.95 0 0 1-.92 2.166 2.93 2.93 0 0 1-2.07.846 3 3 0 0 1-1.682-.512l-.081-.054-.076-.062a3.5 3.5 0 0 1-.942-1.23l-.016-.034-.863-2.046H9.947l-.811 1.97a2.94 2.94 0 0 1-1.1 1.433 2.9 2.9 0 0 1-1.694.535c-.647 0-1.465-.175-2.118-.828-.616-.616-.828-1.39-.828-2.074 0-.253.047-.534.072-.681l.037-.224L9.21 4.434l.008-.02a3.2 3.2 0 0 1 1.127-1.38 2.9 2.9 0 0 1 1.883-.498 3.04 3.04 0 0 1 1.582.51c.554.37.925.886 1.132 1.452zM13.075 5.216a1 1 0 0 0-.215-.371 1 1 0 0 0-.16-.135 1.05 1.05 0 0 0-.593-.176.9.9 0 0 0-.638.154 1.2 1.2 0 0 0-.418.528L5.44 18.812q-.045.264-.045.352 0 .417.242.66.242.242.704.242a.9.9 0 0 0 .55-.176.9.9 0 0 0 .31-.351q.037-.073.064-.155l1.342-3.256h6.798l1.364 3.234q.154.33.396.528.265.176.572.176a.93.93 0 0 0 .683-.286.95.95 0 0 0 .308-.726 1.3 1.3 0 0 0-.066-.418l-5.588-13.42zm-1.079 2.75 2.574 6.16H9.444z" fill="currentColor"/></svg>