<svg xmlns="http://www.w3.org/2000/svg" viewBox="0 0 24 24"><path fill="currentColor" d="M20.5 7.263a5 5 0 0 1-.607.475.75.75 0 0 1-.832-1.248c.764-.51 1.33-1.321 1.456-1.9A.75.75 0 0 1 22 4.75v6.5a.75.75 0 0 1-1.5 0zm-8.278 10.493a.88.88 0 0 1-.222-.61V7.91c0-.246.074-.468.237-.645l.003-.004a.84.84 0 0 1 .628-.26c.243 0 .457.085.622.262a.9.9 0 0 1 .245.647v2.84q.274-.286.625-.492l.001-.001a3 3 0 0 1 1.524-.396c1.004 0 1.829.38 2.45 1.135.62.752.916 1.739.916 2.935 0 1.2-.297 2.19-.916 2.941-.623.752-1.455 1.128-2.471 1.128a3.03 3.03 0 0 1-1.546-.396 3 3 0 0 1-.64-.508v.05a.84.84 0 0 1-.243.61.84.84 0 0 1-.61.244.8.8 0 0 1-.6-.24zm4.75-1.976c.335-.435.516-1.043.516-1.85 0-.801-.181-1.406-.516-1.842-.329-.427-.77-.64-1.35-.64-.55 0-.995.216-1.352.665-.354.446-.542 1.045-.542 1.818 0 .778.188 1.378.542 1.825.356.443.8.658 1.352.658.581 0 1.022-.212 1.35-.634M2 17.186c0 .235.093.438.27.594l.007.007c.18.147.399.213.64.213a.9.9 0 0 0 .55-.174c.156-.118.265-.287.336-.484l.88-2.39H8.56l.886 2.39v.002c.072.196.18.364.336.482.159.12.348.174.55.174a.96.96 0 0 0 .637-.217.76.76 0 0 0 .28-.597 1.3 1.3 0 0 0-.098-.446L7.71 7.774a1.24 1.24 0 0 0-.413-.572A1.1 1.1 0 0 0 6.64 7c-.254 0-.486.063-.682.202a1.23 1.23 0 0 0-.425.58l-3.435 8.959c-.06.155-.098.307-.098.445m4.625-7.603L8 13.36H5.25z"/></svg>