<svg xmlns="http://www.w3.org/2000/svg" xmlns:xlink="http://www.w3.org/1999/xlink" viewBox="0 0 20 20"><path d="M3 4.5a1 1 0 1 0 0-2 1 1 0 0 0 0 2m3-1a.5.5 0 0 1 .5-.5h11a.5.5 0 0 1 0 1h-11a.5.5 0 0 1-.5-.5m0 5a.5.5 0 0 1 .5-.5h11a.5.5 0 0 1 0 1h-11a.5.5 0 0 1-.5-.5M9.022 14a5.5 5.5 0 0 1 .185-1H6.5a.5.5 0 0 0 0 1zM4 13.5a1 1 0 1 1-2 0 1 1 0 0 1 2 0m-1-4a1 1 0 1 0 0-2 1 1 0 0 0 0 2m16 5a4.5 4.5 0 1 1-9 0 4.5 4.5 0 0 1 9 0m-4-2a.5.5 0 0 0-1 0V14h-1.5a.5.5 0 0 0 0 1H14v1.5a.5.5 0 0 0 1 0V15h1.5a.5.5 0 0 0 0-1H15z" fill="currentColor"/></svg>