<svg xmlns="http://www.w3.org/2000/svg" xmlns:xlink="http://www.w3.org/1999/xlink" viewBox="0 0 24 24"><path d="M7.5 16.5a1.5 1.5 0 1 1 0 3 1.5 1.5 0 0 1 0-3m4 .5h9.503a1 1 0 0 1 .117 1.993l-.117.007H11.5a1 1 0 0 1-.116-1.993zh9.503zm-8-6.5a1.5 1.5 0 1 1 0 3 1.5 1.5 0 0 1 0-3m4 .5h13.503a1 1 0 0 1 .117 1.993l-.117.007H7.5a1 1 0 0 1-.116-1.993zh13.503zm-4-6.492a1.5 1.5 0 1 1 0 2.999 1.5 1.5 0 0 1 0-3zM7.5 5h13.503a1 1 0 0 1 .117 1.993L21.003 7H7.5a1 1 0 0 1-.116-1.993zh13.503z" fill="currentColor"/></svg>