<svg xmlns="http://www.w3.org/2000/svg" xmlns:xlink="http://www.w3.org/1999/xlink" viewBox="0 0 20 20"><path d="M5 1.5a.5.5 0 0 0-.385-.487.51.51 0 0 0-.564.266 3.5 3.5 0 0 1-.317.471 3 3 0 0 1-.958.803.5.5 0 1 0 .448.894c.3-.15.558-.336.776-.529V5.5a.5.5 0 0 0 1 0zM8.75 4a.75.75 0 1 0 0 1.5h7.5a.75.75 0 0 0 0-1.5zm0 5a.75.75 0 1 0 0 1.5h7.5a.75.75 0 0 0 0-1.5zM8 14.75a.75.75 0 0 1 .75-.75h7.5a.75.75 0 0 1 0 1.5h-7.5a.75.75 0 0 1-.75-.75M2.646 7.646a.5.5 0 0 0 .704.71l.007-.005a1.4 1.4 0 0 1 .237-.163c.17-.095.416-.188.718-.188.227.004.41.065.524.149.096.07.163.17.163.351 0 .202-.07.32-.21.436-.152.126-.349.224-.619.357l-.145.072c-.313.157-.702.364-1.005.697-.322.354-.521.819-.521 1.438a.5.5 0 0 0 .5.5h2.5a.5.5 0 0 0 0-1H3.59a1 1 0 0 1 .17-.265c.166-.183.402-.32.714-.475q.057-.03.121-.06c.262-.129.584-.286.834-.496C5.758 9.431 6 9.048 6 8.5c0-.504-.223-.9-.568-1.155C5.106 7.103 4.7 7.006 4.326 7h-.009a2.5 2.5 0 0 0-1.655.632l-.01.008-.003.004-.001.001zm.016-.014-.016.014s.101-.09.016-.014M3.75 15.5a.5.5 0 0 1 .5-.5c.343 0 .532-.097.628-.183a.37.37 0 0 0 .129-.298c-.008-.194-.186-.52-.757-.52-.412 0-.626.103-.723.167a.4.4 0 0 0-.088.076l-.004.005a.5.5 0 0 1-.882-.47v-.002l.001-.002.002-.003.003-.006.01-.016a1 1 0 0 1 .103-.146c.066-.081.164-.177.3-.268.28-.186.69-.334 1.278-.334 1.03 0 1.726.675 1.756 1.481.014.368-.118.736-.396 1.019.278.283.41.651.396 1.019-.03.806-.727 1.48-1.756 1.48-.587 0-.999-.147-1.277-.333a1.4 1.4 0 0 1-.302-.268 1 1 0 0 1-.103-.146l-.009-.016-.003-.006-.002-.004v-.001l-.001-.002a.5.5 0 0 1 .882-.47l.004.005c.01.013.038.042.088.076.097.064.31.166.723.166.57 0 .75-.325.757-.519a.37.37 0 0 0-.13-.298C4.783 16.097 4.594 16 4.25 16a.5.5 0 0 1-.5-.5m-.315-1.253.012-.023-.001.002-.001.003-.003.004-.004.008-.005.008z" fill="currentColor"/></svg>