<svg xmlns="http://www.w3.org/2000/svg" viewBox="0 0 20 20"><path fill="currentColor" d="M5 1.5a.5.5 0 0 0-.385-.487.51.51 0 0 0-.564.266 3.5 3.5 0 0 1-.317.471 3 3 0 0 1-.958.803.5.5 0 1 0 .448.894c.3-.15.558-.336.776-.529V5.5a.5.5 0 0 0 1 0zM2.646 7.646a.5.5 0 0 0 .704.71l.007-.005a1.4 1.4 0 0 1 .237-.163c.17-.095.416-.188.718-.188.227.004.41.065.524.149.096.07.163.17.163.351 0 .202-.07.32-.21.436-.152.126-.349.224-.619.357l-.145.072c-.313.157-.702.364-1.005.697-.322.354-.521.819-.521 1.438a.5.5 0 0 0 .5.5h2.5a.5.5 0 0 0 0-1H3.59a1 1 0 0 1 .17-.265c.166-.183.402-.32.714-.475l.12-.06c.263-.128.585-.286.835-.496C5.758 9.431 6 9.048 6 8.5c0-.504-.223-.9-.568-1.155C5.106 7.103 4.7 7.006 4.326 7h-.009a2.5 2.5 0 0 0-1.655.632l-.01.008-.003.004-.001.001zm.016-.014-.016.014s.101-.09.016-.014M4.25 15a.5.5 0 1 0 0 1c.343 0 .532.097.628.183a.37.37 0 0 1 .129.298c-.008.194-.186.519-.757.519-.412 0-.626-.102-.723-.166a.4.4 0 0 1-.088-.076l-.004-.005a.5.5 0 0 0-.882.47v.002l.001.001.002.004.003.006.01.016a1 1 0 0 0 .103.146c.066.08.164.177.3.268.28.186.69.334 1.278.334 1.03 0 1.726-.675 1.756-1.481a1.37 1.37 0 0 0-.396-1.02c.278-.282.41-.65.396-1.018C5.976 13.675 5.279 13 4.25 13c-.587 0-.999.148-1.277.334a1.4 1.4 0 0 0-.38.374l-.025.04-.009.016-.003.006-.002.003v.002l-.001.001a.5.5 0 0 0 .882.47l.004-.004a.4.4 0 0 1 .088-.076c.097-.064.31-.166.723-.166.57 0 .75.325.757.519a.37.37 0 0 1-.13.298c-.095.086-.284.183-.627.183m-.815-.753-.002.003v-.001l.005-.008.004-.008.003-.004.001-.003.001-.002zM8.5 4a.5.5 0 1 0 0 1h8a.5.5 0 0 0 0-1zm0 5a.5.5 0 1 0 0 1h8a.5.5 0 0 0 0-1zM8 14.5a.5.5 0 0 1 .5-.5h8a.5.5 0 1 1 0 1h-8a.5.5 0 0 1-.5-.5"/></svg>