<svg xmlns="http://www.w3.org/2000/svg" viewBox="0 0 24 24"><path fill="currentColor" d="M12 20.5a1.5 1.5 0 1 1-3 0 1.5 1.5 0 0 1 3 0m5 0a1.5 1.5 0 1 1-3 0 1.5 1.5 0 0 1 3 0m5 0a1.5 1.5 0 1 1-3 0 1.5 1.5 0 0 1 3 0m-7.092-2.43-1.166-2.845H5.886l-1.8 4.45c-.076.19-.185.35-.335.46a.86.86 0 0 1-.525.165c-.264 0-.5-.066-.667-.234a.93.93 0 0 1-.258-.6v-.091c0-.106.008-.207.035-.288l.004-.013 6.6-16.148a1 1 0 0 1 .362-.468c.165-.11.36-.158.574-.158.205 0 .39.061.543.188q.244.159.364.43l.003.006 6.454 15.78a2.49 2.49 0 0 0-2.332-.634m-8.286-4.72h6.356l-3.2-7.819z"/></svg>