<svg xmlns="http://www.w3.org/2000/svg" xmlns:xlink="http://www.w3.org/1999/xlink" viewBox="0 0 20 20"><path d="M14.087 6.703a2.263 2.263 0 0 1 3.07-.126l.13.12.126.136a2.28 2.28 0 0 1 0 2.952l-.12.13-6.876 6.903a1.5 1.5 0 0 1-.547.35l-.157.048-3.086.76a.5.5 0 0 1-.618-.526l.015-.084.792-3.07a1.5 1.5 0 0 1 .283-.566l.106-.119zm2.494.702a1.263 1.263 0 0 0-1.683-.089l-.102.093-6.882 6.908a.5.5 0 0 0-.1.144l-.03.084-.583 2.26 2.273-.56a.5.5 0 0 0 .113-.043l.052-.031.07-.059 6.875-6.902a1.277 1.277 0 0 0-.003-1.805M6.424 2.23l.042.084 2.982 7.63-.772.774-.672-1.719H4.007l-1.04 2.68a.5.5 0 0 1-.561.31l-.087-.025a.5.5 0 0 1-.31-.56l.025-.088 3.5-9.001a.5.5 0 0 1 .89-.085m-.423 1.64L4.396 7.998h3.218z" fill="currentColor"/></svg>