<svg xmlns="http://www.w3.org/2000/svg" xmlns:xlink="http://www.w3.org/1999/xlink" viewBox="0 0 20 20"><path d="M17 5.884c-.214.22-.451.419-.7.585a.5.5 0 0 1-.555-.832C16.403 5.2 16.886 4.521 17 4v-.5h1v6a.5.5 0 0 1-1 0zm-6.136 9.012a.5.5 0 0 1-.371.146.47.47 0 0 1-.36-.14.54.54 0 0 1-.133-.378V6.608q0-.25.146-.408a.5.5 0 0 1 .383-.158.5.5 0 0 1 .378.158.56.56 0 0 1 .152.408v3.054h.024a2.23 2.23 0 0 1 .834-.858q.535-.31 1.199-.31 1.198 0 1.935.895.736.894.736 2.379 0 1.491-.736 2.385-.736.889-1.954.889-.681 0-1.217-.31a2.3 2.3 0 0 1-.846-.87h-.024v.662q0 .225-.146.372m2.026-.785q.84 0 1.327-.627.487-.633.487-1.716 0-1.077-.487-1.71t-1.327-.633q-.81 0-1.326.651-.51.645-.511 1.692 0 1.053.51 1.698.519.645 1.327.645M2.571 15a.63.63 0 0 1-.412-.135.45.45 0 0 1-.159-.35.9.9 0 0 1 .07-.305l2.944-7.679q.203-.532.749-.532.513 0 .717.526l2.95 7.685q.07.183.07.306a.44.44 0 0 1-.165.349.6.6 0 0 1-.406.134q-.406 0-.558-.422l-.813-2.19H3.935l-.806 2.19q-.151.422-.558.422zm1.694-3.55h2.97L5.769 7.426h-.038z" fill="currentColor"/></svg>