<svg xmlns="http://www.w3.org/2000/svg" xmlns:xlink="http://www.w3.org/1999/xlink" viewBox="0 0 16 16"><path d="M2.002 4.001a2 2 0 0 1 2-2H12a2 2 0 0 1 2 2v6.13l-1.27-2.154a2 2 0 0 0-.743-.722 2.03 2.03 0 0 0-2.323.245h-2.66a.5.5 0 0 0 0 1h1.958l-1.18 2h-.778a.5.5 0 0 0 0 1h.189l-.925 1.568c-.167.283-.26.604-.267.932h-2a2 2 0 0 1-2-2V4zM4.75 5.75a.75.75 0 1 0 0-1.5.75.75 0 0 0 0 1.5M5.5 8A.75.75 0 1 0 4 8a.75.75 0 0 0 1.5 0m0 3A.75.75 0 1 0 4 11a.75.75 0 0 0 1.5 0m1.004-6a.5.5 0 0 0 .5.5h4.474a.5.5 0 1 0 0-1H7.004a.5.5 0 0 0-.5.5m4.231 3.034c.251-.066.526-.039.767.095.154.086.28.21.367.356l3.002 5.09c.134.228.16.484.095.716a.96.96 0 0 1-.462.58 1.04 1.04 0 0 1-.501.129H7.998c-.28 0-.53-.11-.71-.285a.93.93 0 0 1-.159-1.14l3.003-5.09a1 1 0 0 1 .603-.45zm.766 1.468a.5.5 0 0 0-1 0v1.996a.5.5 0 1 0 1 0zM11 14.5a.75.75 0 1 0 0-1.5.75.75 0 0 0 0 1.5" fill="currentColor"/></svg>