<svg xmlns="http://www.w3.org/2000/svg" viewBox="0 0 20 20"><path fill="currentColor" d="M3.002 5.001a2 2 0 0 1 2-2h9.997a2 2 0 0 1 2 2v6.866l-.982-1.702-.018-.031V5a1 1 0 0 0-1-1H5.002a1 1 0 0 0-1 1v9.997a1 1 0 0 0 1 1H8.61l-.305.53a2.3 2.3 0 0 0-.205.47H5.002a2 2 0 0 1-2-2zM9.762 14l.578-1H8.496a.5.5 0 0 0 0 1zm2.02-3.5.193-.335c.152-.265.349-.487.575-.665H8.496a.5.5 0 0 0 0 1zM7 6.497a.75.75 0 1 1-1.5 0 .75.75 0 0 1 1.5 0m-.75 4.255a.75.75 0 1 0 0-1.5.75.75 0 0 0 0 1.5m.75 2.75a.75.75 0 1 1-1.5 0 .75.75 0 0 1 1.5 0m1.496-7.507a.5.5 0 0 0 0 1h5a.5.5 0 0 0 0-1zm5.15 4.051a1.335 1.335 0 0 1 1.505.618l3.67 6.363a1.314 1.314 0 0 1-.493 1.797 1.34 1.34 0 0 1-.663.176h-7.338c-.37 0-.701-.148-.942-.388a1.31 1.31 0 0 1-.214-1.585l3.67-6.363a1.32 1.32 0 0 1 .806-.618zm.85 2.453a.5.5 0 1 0-1 .002l.005 2.502a.5.5 0 1 0 1-.002zm-.495 5.5a.75.75 0 1 0 0-1.5.75.75 0 0 0 0 1.5"/></svg>