<svg xmlns="http://www.w3.org/2000/svg" viewBox="0 0 20 20"><path fill="currentColor" d="M4.943 3a.5.5 0 0 1 .464.333l1.774 5a.5.5 0 1 1-.942.334L6.002 8H3.73l-.264.68a.5.5 0 0 1-.932-.36l1.935-5A.5.5 0 0 1 4.943 3m-.826 4h1.53l-.732-2.062zM8.5 3h1.503c.162 0 .602 0 1.008.228.214.12.418.303.564.57q.218.398.219.96c0 .456-.125.811-.32 1.078.148.106.287.246.398.428q.245.401.246.978c0 .751-.352 1.228-.798 1.487A2.2 2.2 0 0 1 10.25 9H8.5a.5.5 0 0 1-.5-.5v-5a.5.5 0 0 1 .5-.5M10 4H9v1.5h1.024c.12 0 .33-.023.494-.123.125-.075.276-.221.276-.618 0-.245-.048-.393-.096-.48a.44.44 0 0 0-.177-.18C10.36 4.01 10.158 4 10 4M9 6.5V8h1.25c.14 0 .38-.027.567-.136.149-.086.301-.239.301-.622 0-.137-.017-.24-.04-.32a.6.6 0 0 0-.06-.138.47.47 0 0 0-.204-.18c-.195-.097-.441-.104-.628-.104zm8.408-1.97c-.246-.687-.604-1.107-1.053-1.329C15.945 3 15.52 3 15.246 3h-.027c-.554 0-.994.19-1.327.487-.322.288-.521.656-.646.99a4 4 0 0 0-.245 1.288v.026L13 5.799v.026c0 .383 0 1.085.25 1.724.13.335.334.67.656.936.325.268.742.445 1.257.503.417.046 1.663.013 2.23-1.246a.5.5 0 1 0-.911-.41c-.293.648-.93.693-1.208.662-.344-.039-.571-.148-.73-.28a1.26 1.26 0 0 1-.363-.528c-.176-.45-.181-.982-.181-1.383V5.79l.003-.059a3.3 3.3 0 0 1 .18-.905c.09-.241.214-.45.375-.593.15-.135.355-.233.66-.233.304 0 .51.008.694.098.158.078.371.257.555.769a.5.5 0 0 0 .941-.338zm-3.211 7.675a.74.74 0 0 0-.216.341.5.5 0 0 1-.962-.274 1.74 1.74 0 0 1 .516-.817c.307-.271.74-.455 1.311-.455 1.168 0 1.846.854 1.846 1.636 0 .304-.058.776-.38 1.18a2 2 0 0 1-.138.154 1.5 1.5 0 0 1 .247.267c.175.247.271.549.271.9 0 .629-.212 1.121-.598 1.447-.37.313-.836.416-1.248.416-.387 0-.774-.064-1.109-.276-.344-.219-.573-.554-.712-.977a.5.5 0 0 1 .95-.312c.043.131.092.227.144.298l.015.02.032.037.015.016.017.016a.6.6 0 0 0 .21.12c.107.036.248.058.438.058.26 0 .469-.067.603-.18.12-.101.243-.29.243-.684a.53.53 0 0 0-.085-.319.6.6 0 0 0-.234-.18c-.233-.109-.537-.137-.751-.137a.5.5 0 1 1 0-1c.573 0 .804-.175.908-.305.12-.153.162-.362.162-.559 0-.217-.219-.636-.846-.636-.342 0-.536.104-.65.205zM9 12.864c0-.443.37-.864.835-.864.336 0 .614.158.752.37.123.188.182.494-.07.922-.122.208-.304.39-.543.578a9 9 0 0 1-.383.282l-.057.04c-.117.083-.241.17-.361.26C8.607 14.88 8 15.464 8 16.5a.5.5 0 0 0 .5.5h2.693a.5.5 0 1 0 0-1H9.097c.122-.282.355-.505.677-.748q.152-.114.32-.231l.015-.01.06-.042c.137-.098.283-.202.425-.314.282-.223.573-.495.785-.856.416-.708.404-1.425.046-1.975-.343-.527-.955-.824-1.59-.824C8.747 11 8 11.943 8 12.864a.5.5 0 1 0 1 0m-4.582.87c.206-.137.404-.3.586-.479V16.5a.5.5 0 1 0 1 0v-5a.5.5 0 0 0-.989-.107c-.102.47-.552 1.109-1.152 1.51a.5.5 0 1 0 .555.831"/></svg>