<svg xmlns="http://www.w3.org/2000/svg" viewBox="0 0 24 24"><path fill="currentColor" d="M5.25 3A2.25 2.25 0 0 0 3 5.25v13.499a2.25 2.25 0 0 0 2.25 2.25h5.914l.356-1.424.02-.076H5.25a.75.75 0 0 1-.75-.75v-13.5a.75.75 0 0 1 .75-.75h13.499a.75.75 0 0 1 .75.75v5.983c.478-.19.993-.264 1.5-.22V5.25A2.25 2.25 0 0 0 18.748 3h-13.5zm10.104 11.999h-4.105a.75.75 0 1 0 0 1.5h2.605zm-6.605-6.75a1 1 0 1 1-2 0 1 1 0 0 1 2 0m2.5-.75a.75.75 0 1 0 0 1.5h5.5a.75.75 0 1 0 0-1.5zm0 3.75a.75.75 0 1 0 0 1.5h5.5a.75.75 0 1 0 0-1.5zM7.75 13a1 1 0 1 0 0-2 1 1 0 0 0 0 2m1 2.75a1 1 0 1 1-2 0 1 1 0 0 1 2 0m10.35-3.08-5.902 5.901a2.7 2.7 0 0 0-.707 1.248l-.457 1.83c-.2.797.522 1.518 1.318 1.319l1.83-.458a2.7 2.7 0 0 0 1.248-.706l5.9-5.904a2.286 2.286 0 0 0-3.233-3.232z"/></svg>