<svg xmlns="http://www.w3.org/2000/svg" xmlns:xlink="http://www.w3.org/1999/xlink" viewBox="0 0 24 24"><path d="M9.514 1.75a1 1 0 0 1 .929.666l3.153 8.886a6.5 6.5 0 0 0-1.539 1.644l-2.598-7.32L6.606 13h5.417a6.5 6.5 0 0 0-.848 2H5.83l-1.398 3.611a1 1 0 0 1-1.865-.722l6-15.5a1 1 0 0 1 .946-.639zM17 16v3a.5.5 0 0 0 1 0v-3a.5.5 0 0 0-1 0m1.25-2.25a.75.75 0 1 1-1.5 0 .75.75 0 0 1 1.5 0M23 16.5a5.5 5.5 0 1 1-11 0 5.5 5.5 0 0 1 11 0m-1 0a4.5 4.5 0 1 0-9 0 4.5 4.5 0 0 0 9 0" fill="currentColor"/></svg>