<svg xmlns="http://www.w3.org/2000/svg" viewBox="0 0 20 20"><path fill="currentColor" d="M3.25 5a1.25 1.25 0 1 0 0-2.5 1.25 1.25 0 0 0 0 2.5M7 3.75A.75.75 0 0 1 7.75 3h9.5a.75.75 0 0 1 0 1.5h-9.5A.75.75 0 0 1 7 3.75M7.75 8a.75.75 0 0 0 0 1.5h4.456A5.5 5.5 0 0 1 14.5 9a5.5 5.5 0 0 1 2.294.5h.456a.75.75 0 0 0 0-1.5zm0 5h1.457A5.5 5.5 0 0 0 9 14.5H7.75a.75.75 0 0 1 0-1.5M4.5 8.75a1.25 1.25 0 1 1-2.5 0 1.25 1.25 0 0 1 2.5 0M3.25 15a1.25 1.25 0 1 0 0-2.5 1.25 1.25 0 0 0 0 2.5M19 14.5a4.5 4.5 0 1 1-9 0 4.5 4.5 0 0 1 9 0m-4-2a.5.5 0 0 0-1 0V14h-1.5a.5.5 0 0 0 0 1H14v1.5a.5.5 0 0 0 1 0V15h1.5a.5.5 0 0 0 0-1H15z"/></svg>