<svg xmlns="http://www.w3.org/2000/svg" xmlns:xlink="http://www.w3.org/1999/xlink" viewBox="0 0 20 20"><path d="M12 5.5a.5.5 0 0 0-.5-.5h-3a.5.5 0 0 0 0 1h3a.5.5 0 0 0 .5-.5m5 0a.5.5 0 0 0-.5-.5h-3a.5.5 0 0 0 0 1h3a.5.5 0 0 0 .5-.5m-10 0a.5.5 0 0 0-.5-.5h-3a.5.5 0 0 0 0 1h3a.5.5 0 0 0 .5-.5m5 3a.5.5 0 0 0-.5-.5h-3a.5.5 0 0 0 0 1h3a.5.5 0 0 0 .5-.5m5 0a.5.5 0 0 0-.5-.5h-3a.5.5 0 0 0 0 1h3a.5.5 0 0 0 .5-.5m-10 0a.5.5 0 0 0-.5-.5h-3a.5.5 0 0 0 0 1h3a.5.5 0 0 0 .5-.5m5 3a.5.5 0 0 0-.5-.5h-3a.5.5 0 0 0 0 1h3a.5.5 0 0 0 .5-.5m5 0a.5.5 0 0 0-.5-.5h-3a.5.5 0 0 0 0 1h3a.5.5 0 0 0 .5-.5m-10 0a.5.5 0 0 0-.5-.5h-3a.5.5 0 0 0 0 1h3a.5.5 0 0 0 .5-.5m5 3a.5.5 0 0 0-.5-.5h-3a.5.5 0 0 0 0 1h3a.5.5 0 0 0 .5-.5m5 0a.5.5 0 0 0-.5-.5h-3a.5.5 0 0 0 0 1h3a.5.5 0 0 0 .5-.5m-10 0a.5.5 0 0 0-.5-.5h-3a.5.5 0 0 0 0 1h3a.5.5 0 0 0 .5-.5" fill="currentColor"/></svg>