<svg xmlns="http://www.w3.org/2000/svg" viewBox="0 0 24 24"><path fill="currentColor" d="M16.776 17.37a1 1 0 0 1-.146 1.406l-4 3.25a1 1 0 0 1-1.261 0l-4-3.25a1 1 0 1 1 1.261-1.552L12 19.962l3.369-2.738a1 1 0 0 1 1.407.145zM4.709 9.488q.829 0 1.282.55.455.55.455 1.555v.906q0 1.008-.453 1.555t-1.277.547q-.83 0-1.285-.55t-.454-1.552v-.91q0-1.007.452-1.554.453-.547 1.28-.547m4.054 0q.828 0 1.282.55t.454 1.555v.906q0 1.008-.452 1.555-.453.547-1.277.547-.83 0-1.285-.55t-.455-1.552v-.91q0-1.007.453-1.554t1.28-.547m6.47 0q.826 0 1.281.55t.455 1.555v.906q0 1.008-.453 1.555t-1.277.547q-.83 0-1.285-.55t-.455-1.552v-.91q0-1.007.453-1.554t1.28-.547zm4.053 0q.828 0 1.282.55t.454 1.555v.906q0 1.008-.452 1.555-.453.547-1.277.547-.83 0-1.285-.55t-.455-1.552v-.91q0-1.007.453-1.554t1.28-.547M12 13q.274 0 .455.162.18.163.181.416 0 .252-.18.415a.66.66 0 0 1-.456.162.65.65 0 0 1-.456-.164.54.54 0 0 1-.18-.413q0-.25.18-.414A.65.65 0 0 1 12 13m-7.29-2.623a.46.46 0 0 0-.432.246q-.135.247-.145.746v1.271q0 .558.14.815a.47.47 0 0 0 .444.258.46.46 0 0 0 .434-.25q.141-.251.144-.789v-1.23q0-.537-.14-.802a.47.47 0 0 0-.445-.265m4.054 0a.46.46 0 0 0-.432.246q-.135.247-.145.746v1.271q0 .558.14.815a.47.47 0 0 0 .444.258q.293 0 .434-.25.14-.251.144-.789v-1.23q0-.537-.14-.802a.47.47 0 0 0-.445-.265m6.47 0a.46.46 0 0 0-.433.246q-.135.247-.145.746v1.271q0 .558.14.815a.47.47 0 0 0 .444.258q.293 0 .434-.25.141-.251.144-.789v-1.23q0-.537-.14-.802a.47.47 0 0 0-.445-.265zm4.053 0a.46.46 0 0 0-.432.246q-.112.206-.139.586l-.006.16v1.271q0 .558.14.815a.47.47 0 0 0 .444.258q.293 0 .434-.25.117-.21.139-.618l.005-.17v-1.231q0-.537-.14-.802a.47.47 0 0 0-.445-.265M12 10.273q.274 0 .455.162.18.162.181.415 0 .253-.18.415a.66.66 0 0 1-.456.163.65.65 0 0 1-.456-.164.54.54 0 0 1-.18-.414q0-.25.18-.413a.65.65 0 0 1 .457-.164zm-4.63-5.05 4-3.25a1 1 0 0 1 1.157-.073l.104.074 4 3.25a1 1 0 0 1-1.159 1.625l-.102-.073L12 4.038 8.63 6.776A1 1 0 0 1 7.276 5.31l.093-.085 4-3.25-4 3.25z"/></svg>