<svg xmlns="http://www.w3.org/2000/svg" viewBox="0 0 24 24"><g fill="currentColor"><path d="M20.5 13.5a8.5 8.5 0 1 0-5.672 8.018 1.75 1.75 0 0 1 .675-1.956 7 7 0 1 1 3.476-5.507 4.1 4.1 0 0 1 1.455.508A9 9 0 0 0 20.5 13.5"/><path d="M12.743 8.648a.75.75 0 0 0-1.493.102v4.5l.007.102a.75.75 0 0 0 1.493-.102v-4.5zm6.487-3.474-.083-.06a.75.75 0 0 0-.877 1.212l1.159.965.082.06a.75.75 0 0 0 .877-1.213zM15 3.25a.75.75 0 0 0-.75-.75h-4.5l-.102.007A.75.75 0 0 0 9.75 4h4.5l.102-.007A.75.75 0 0 0 15 3.25m4.375 14.484c-.135.126-.4.266-.875.266a.75.75 0 0 0 0 1.5c.474 0 .74.14.875.266s.19.283.18.44c-.015.263-.282.794-1.305.794-.465 0-.76-.137-.928-.249a1 1 0 0 1-.208-.182.75.75 0 0 0-1.03-.193c-.584.375-.208 1.04-.208 1.04l.001.002.001.001.002.003.005.008.013.018.036.048a2.5 2.5 0 0 0 .556.503c.394.263.975.501 1.76.501 1.622 0 2.73-.969 2.803-2.206a2.04 2.04 0 0 0-.573-1.544c.411-.427.606-.986.573-1.544C20.98 15.969 19.872 15 18.25 15c-.785 0-1.366.238-1.76.501a2.5 2.5 0 0 0-.556.503l-.036.048-.013.018-.005.008-.002.003-.001.002-.001.001a.75.75 0 0 0 1.238.847 1 1 0 0 1 .208-.182c.169-.112.463-.249.928-.249 1.023 0 1.29.531 1.305.794a.55.55 0 0 1-.18.44m-2.253 2.847-.005-.008v.002l.004.004zm.002-3.664-.007.01v-.002l.004-.004.001-.002z"/></g></svg>