<svg xmlns="http://www.w3.org/2000/svg" viewBox="0 0 24 24"><g fill="currentColor"><path d="M12 5a8.5 8.5 0 0 1 8.434 9.563c-.62-.366-1.375-.563-2.184-.563-.999 0-1.77.306-2.315.669a3.6 3.6 0 0 0-.787.718 2 2 0 0 0-.085.114l-.01.014-.005.008-.002.003-.001.002s.143-.215-.001.001a1.75 1.75 0 0 0 1.788 2.69 1.75 1.75 0 0 0 0 1.063 1.75 1.75 0 0 0-2.004 2.236A8.5 8.5 0 1 1 12 5m0 3a.75.75 0 0 0-.743.648l-.007.102v4.5l.007.102a.75.75 0 0 0 1.486 0l.007-.102v-4.5l-.007-.102A.75.75 0 0 0 12 8m7.17-2.877.082.061 1.149 1a.75.75 0 0 1-.904 1.193l-.081-.061-1.149-1a.75.75 0 0 1 .903-1.193M14.25 2.5a.75.75 0 0 1 .102 1.493L14.25 4h-4.5a.75.75 0 0 1-.102-1.493L9.75 2.5z"/><path d="M19.375 17.734c-.135.126-.4.266-.875.266a.75.75 0 0 0 0 1.5c.474 0 .74.14.875.266s.19.283.18.44c-.015.263-.282.794-1.305.794-.465 0-.76-.137-.928-.249a1 1 0 0 1-.208-.182.75.75 0 0 0-1.03-.193c-.584.375-.208 1.04-.208 1.04l.001.002.001.001.002.003.005.008.013.018.036.048a2.5 2.5 0 0 0 .556.503c.394.263.975.501 1.76.501 1.622 0 2.73-.969 2.803-2.206a2.04 2.04 0 0 0-.573-1.544c.411-.427.606-.986.573-1.544C20.98 15.969 19.872 15 18.25 15c-.785 0-1.366.238-1.76.501a2.5 2.5 0 0 0-.556.503l-.036.048-.013.018-.005.008-.002.003-.001.002-.001.001a.75.75 0 0 0 1.238.847 1 1 0 0 1 .208-.182c.169-.112.463-.249.928-.249 1.023 0 1.29.531 1.305.794a.55.55 0 0 1-.18.44m-2.253 2.847-.005-.008v.002l.004.004zm.002-3.664-.007.01v-.002l.004-.004.001-.002z"/></g></svg>