<svg xmlns="http://www.w3.org/2000/svg" viewBox="0 0 24 24"><path fill="currentColor" d="M16.583 17.527a.75.75 0 0 1-.11 1.055l-4 3.25a.75.75 0 0 1-.946 0l-4-3.25a.75.75 0 1 1 .946-1.164L12 20.284l3.527-2.866a.75.75 0 0 1 1.056.11zM4.926 9.485q.814 0 1.244.535t.441 1.536v.916q0 1.032-.427 1.58-.428.546-1.25.546-.814 0-1.245-.537-.43-.536-.44-1.538v-.916q-.001-1.042.431-1.582.433-.54 1.246-.54m4.016 0q.814 0 1.245.535.43.535.44 1.536v.916q0 1.032-.427 1.58-.428.546-1.25.546-.815 0-1.245-.537-.43-.536-.44-1.538v-.916q0-1.042.432-1.582t1.245-.54m5.992 0q.813 0 1.244.535.43.535.441 1.536v.916q0 1.032-.427 1.58-.428.546-1.251.546-.813 0-1.244-.537-.43-.536-.441-1.538v-.916q0-1.042.432-1.582t1.246-.54m4.016 0q.814 0 1.244.535t.441 1.536v.916q0 1.032-.427 1.58-.427.546-1.251.546-.813 0-1.244-.537-.43-.536-.441-1.538v-.916q0-1.042.432-1.582.433-.54 1.246-.54M12 13a.57.57 0 0 1 .402.147.5.5 0 0 1 .159.383.5.5 0 0 1-.157.378.57.57 0 0 1-.403.145.57.57 0 0 1-.4-.146.5.5 0 0 1-.158-.377q0-.236.16-.383A.56.56 0 0 1 12 13m-7.074-2.715q-.348 0-.514.268t-.176.84v1.21q0 .607.166.903.165.296.531.296.363 0 .523-.284t.168-.868v-1.183q0-.618-.17-.9-.168-.282-.528-.282m4.016 0q-.348 0-.514.268t-.176.84v1.21q0 .607.166.903.165.296.531.296.363 0 .523-.284t.168-.868v-1.183q0-.618-.17-.9-.168-.282-.528-.282m5.992 0q-.348 0-.514.268t-.176.84v1.21q0 .607.165.903t.532.296q.362 0 .523-.284.16-.284.167-.868v-1.183q0-.618-.169-.9-.17-.282-.528-.282m4.016 0q-.349 0-.514.268-.138.224-.169.657l-.007.182v1.21q0 .609.165.904.166.296.532.296.363 0 .523-.284.135-.237.16-.682l.008-.186v-1.183q0-.618-.17-.9t-.528-.282M12 10.2a.57.57 0 0 1 .402.147.5.5 0 0 1 .159.382.5.5 0 0 1-.157.378.57.57 0 0 1-.403.145.57.57 0 0 1-.4-.145.5.5 0 0 1-.158-.378q0-.235.16-.382A.56.56 0 0 1 12 10.2M7.529 5.418l4-3.25a.75.75 0 0 1 .85-.066l.095.066 4 3.25a.75.75 0 0 1-.854 1.228l-.091-.064L12 3.716 8.473 6.582a.75.75 0 0 1-1.026-1.088l.08-.076 4-3.25-4 3.25z"/></svg>