<svg xmlns="http://www.w3.org/2000/svg" xmlns:xlink="http://www.w3.org/1999/xlink" viewBox="0 0 28 28"><path d="M8 6.247v1.748H4.248a2.25 2.25 0 0 0-2.25 2.25v11.5a2.25 2.25 0 0 0 2.25 2.25h19.504a2.25 2.25 0 0 0 2.25-2.25v-11.5a2.25 2.25 0 0 0-2.25-2.25h-3.75V6.247a2.25 2.25 0 0 0-2.25-2.25H10.25A2.25 2.25 0 0 0 8 6.247m2.25-.75h7.502a.75.75 0 0 1 .75.75v1.748H9.5V6.247a.75.75 0 0 1 .75-.75M4.248 9.495h19.504a.75.75 0 0 1 .75.75V14h-3.998v-1.25a.75.75 0 0 0-1.5 0V14h-10v-1.25a.75.75 0 0 0-1.5 0V14H3.498v-3.755a.75.75 0 0 1 .75-.75M19.004 15.5v1.25a.75.75 0 1 0 1.5 0V15.5h3.998v6.245a.75.75 0 0 1-.75.75H4.248a.75.75 0 0 1-.75-.75V15.5h4.006v1.25a.75.75 0 0 0 1.5 0V15.5z" fill="currentColor"/></svg>