<svg xmlns="http://www.w3.org/2000/svg" viewBox="0 0 28 28"><path fill="currentColor" d="M8 6.247v1.748H4.248a2.25 2.25 0 0 0-2.25 2.25V14h5.506v-1.25a.75.75 0 0 1 1.5 0V14h10v-1.25a.75.75 0 1 1 1.5 0V14h5.498v-3.755a2.25 2.25 0 0 0-2.25-2.25h-3.75V6.247a2.25 2.25 0 0 0-2.25-2.25H10.25A2.25 2.25 0 0 0 8 6.247m2.25-.75h7.502a.75.75 0 0 1 .75.75v1.748H9.5V6.247a.75.75 0 0 1 .75-.75M26.002 15.5h-5.498v1.25a.75.75 0 0 1-1.5 0V15.5h-10v1.25a.75.75 0 0 1-1.5 0V15.5H1.998v6.245a2.25 2.25 0 0 0 2.25 2.25h19.504a2.25 2.25 0 0 0 2.25-2.25z"/></svg>