<svg xmlns="http://www.w3.org/2000/svg" viewBox="0 0 24 24"><path fill="currentColor" d="M16.961 5.987a.75.75 0 0 0-1.423-.473 21 21 0 0 0-.42 1.512c-.736.026-1.446.018-2.067-.024a.75.75 0 1 0-.102 1.496c.563.039 1.19.05 1.844.038a23 23 0 0 0-.3 2.064c-1.215.642-2.061 1.504-2.539 2.412-.613 1.166-.66 2.556.206 3.443.571.584 1.408.64 2.129.485a4.7 4.7 0 0 0 1.24-.474l.018.046a.75.75 0 0 0 1.405-.524 10 10 0 0 0-.17-.424 7.63 7.63 0 0 0 2.285-4.047c.638.312 1.07.836 1.278 1.4a2.48 2.48 0 0 1-.097 1.952c-.308.636-.933 1.265-2.015 1.681a.75.75 0 1 0 .538 1.4c1.387-.533 2.33-1.402 2.827-2.427a3.98 3.98 0 0 0 .154-3.127 4.04 4.04 0 0 0-2.505-2.424q.003-.11.003-.222a.75.75 0 0 0-1.5-.026 6 6 0 0 0-1.672.237q.095-.681.257-1.5c1.185-.089 2.364-.252 3.337-.48a.75.75 0 0 0-.344-1.46c-.767.18-1.69.317-2.637.405.085-.33.18-.67.27-.94zm-3.68 7.723c.227-.43.6-.886 1.147-1.3.017.492.065.926.137 1.317.094.52.236.974.386 1.373a3.5 3.5 0 0 1-.977.374c-.485.104-.687-.012-.742-.068-.24-.245-.394-.853.05-1.696zm4.315-2.487a6.65 6.65 0 0 1-1.414 2.848 6 6 0 0 1-.142-.612 8.6 8.6 0 0 1-.111-1.866 7 7 0 0 1 .339-.12 4.7 4.7 0 0 1 1.328-.25M7.96 6.53a6.07 6.07 0 0 0-4.576.467.75.75 0 1 0 .725 1.313 4.57 4.57 0 0 1 3.431-.34c.773.227 1.098.64 1.264 1.056.133.332.175.691.188 1.042a10 10 0 0 0-.923-.21c-1.132-.202-2.682-.263-4.122.427-1.586.76-2.13 2.316-1.902 3.697.224 1.356 1.216 2.666 2.8 2.951 1.43.258 2.805-.256 3.757-.761A9 9 0 0 0 9 15.95v.3a.75.75 0 0 0 1.5 0v-5.79c0-.454 0-1.236-.3-1.99-.331-.829-1.005-1.578-2.237-1.94h-.001zm-.153 4.804a8 8 0 0 1 1.19.305v2.506a8 8 0 0 1-1.099.702c-.84.447-1.849.779-2.787.61-.845-.152-1.445-.866-1.586-1.72-.138-.83.179-1.673 1.07-2.1 1.037-.496 2.226-.478 3.212-.303"/></svg>