<svg xmlns="http://www.w3.org/2000/svg" viewBox="0 0 24 24"><path fill="currentColor" d="M16.953 5.303a1 1 0 0 0-1.906-.606 13 13 0 0 0-.324 1.344c-.565.012-1.12 0-1.652-.038a1 1 0 1 0-.142 1.995q.691.048 1.416.047a26 26 0 0 0-.24 1.698c-1.263.716-2.142 1.684-2.636 2.7-.624 1.283-.7 2.857.239 3.883.675.736 1.704.758 2.499.588a5.3 5.3 0 0 0 .988-.32 1 1 0 0 0 1.746-.93l-.041-.115a8.4 8.4 0 0 0 2.735-4.06c.286.251.507.55.658.864a2.44 2.44 0 0 1 .099 1.91c-.234.633-.78 1.313-1.84 1.843a1 1 0 0 0 .895 1.789c1.44-.72 2.385-1.758 2.821-2.94a4.44 4.44 0 0 0-.17-3.464 4.75 4.75 0 0 0-2.104-2.165A9 9 0 0 0 20 9a1 1 0 0 0-1.974-.23 6 6 0 0 0-1.796.138q.07-.457.166-.964a20 20 0 0 0 2.842-.473 1 1 0 0 0-.476-1.942 18 18 0 0 1-1.964.358c.048-.208.1-.409.155-.584m-3.686 8.015a3.8 3.8 0 0 1 .758-1.037q.03.52.098.973c.083.56.207 1.048.341 1.477a3.4 3.4 0 0 1-.674.227c-.429.092-.588.019-.614.006l-.004-.001c-.162-.193-.329-.774.095-1.645m4.498-2.562a6.36 6.36 0 0 1-1.568 2.73 8 8 0 0 1-.095-.525 10.3 10.3 0 0 1-.088-1.904l.1-.036zm-1.651.265 1.651-.265c-.495-.025-1.049.053-1.651.265M7.536 6.29a6.34 6.34 0 0 0-4.456.33 1 1 0 0 0 .848 1.811 4.34 4.34 0 0 1 3.049-.222c.364.107.568.248.69.37.12.123.203.27.257.454.067.225.087.446.09.69a8 8 0 0 0-.555-.117c-1.146-.199-2.733-.215-4.262.64-1.271.713-1.796 2.168-1.682 3.448.12 1.326.94 2.679 2.572 3.136 1.48.414 2.913-.045 3.877-.507l.08-.04a1 1 0 0 0 1.96-.281V10.5q0-.08.005-.2c.012-.417.034-1.16-.168-1.838a3.04 3.04 0 0 0-.755-1.29q-.591-.599-1.547-.881zm-.419 5.287c.344.06.647.143.887.222v2.197a7 7 0 0 1-.905.524c-.792.38-1.682.605-2.473.384-.698-.195-1.06-.742-1.119-1.389-.062-.693.243-1.286.667-1.523.987-.553 2.06-.569 2.943-.415"/></svg>