<svg xmlns="http://www.w3.org/2000/svg" xmlns:xlink="http://www.w3.org/1999/xlink" viewBox="0 0 24 25"><path d="M1.75 5a.75.75 0 0 0-.75.75v6A2.25 2.25 0 0 0 3.25 14h5a2.25 2.25 0 0 0 2.25-2.25v-6A.75.75 0 0 0 9.75 5H9.5V4a2.5 2.5 0 0 0-3.75-2.165A2.5 2.5 0 0 0 2 4v.999h-.25zM7 5V4c0-.348-.071-.68-.2-.98A1 1 0 0 1 8 4v1zM5.5 4v1h-2V4a1 1 0 0 1 2 0M2 17.75v-3c.385.161.807.25 1.25.25h5a3.25 3.25 0 0 0 3.25-3.25v-6c0-.698-.409-1.3-1-1.582V4q0-.255-.035-.5h3.785a2.25 2.25 0 0 1 2.25 2.25v.75h1.55c.87 0 1.662.501 2.034 1.287l1.7 3.587c.142.301.216.63.216.963v5.413A2.25 2.25 0 0 1 19.75 20h-1.791a3 3 0 0 1-5.918 0H9.96a3 3 0 0 1-5.92-.01A2.25 2.25 0 0 1 2 17.75M20.5 16h-1.25a.75.75 0 1 0 0 1.5h1.25zm-.317-4.5L18.73 8.429A.75.75 0 0 0 18.05 8H16.5v3.5zM7 21a1.5 1.5 0 1 0 0-3 1.5 1.5 0 0 0 0 3m9.5-1.5a1.5 1.5 0 1 0-3 0 1.5 1.5 0 0 0 3 0M3.5 4q.002-.214.083-.4z" fill="currentColor"/></svg>