<svg xmlns="http://www.w3.org/2000/svg" xmlns:xlink="http://www.w3.org/1999/xlink" viewBox="0 0 20 20"><path d="M7 2.54a.5.5 0 0 1 .5-.5h5a.5.5 0 0 1 .5.5V5h2.5a.5.5 0 0 1 .5.5v4.064l1.634.455a.5.5 0 0 1 .317.698l-1.825 3.788a1.5 1.5 0 0 0-2.523.46l-.01.023a2.6 2.6 0 0 1-.346.568c-.259.32-.498.444-.74.444-.24 0-.482-.126-.746-.45a2.7 2.7 0 0 1-.362-.598 1.5 1.5 0 0 0-2.81.028 2.6 2.6 0 0 1-.349.573c-.26.322-.5.447-.74.447-.241 0-.48-.125-.739-.444a2.6 2.6 0 0 1-.356-.592 1.5 1.5 0 0 0-2.555-.421l-1.802-3.83a.5.5 0 0 1 .318-.694L4 9.563V5.501a.5.5 0 0 1 .5-.5H7zm5 .5H8V5h4zm3 6.245V6.001H5v3.283l4.19-1.168a3 3 0 0 1 1.611 0zm-3.601 5.667v-.002zm0 0 .002.004v.003zm4.089.438-.003-.01a.5.5 0 0 0-.953-.055l-.005.01-.02.051a3.6 3.6 0 0 1-.488.8c-.358.44-.855.814-1.519.814s-1.162-.375-1.522-.816a3.6 3.6 0 0 1-.512-.85l-.005-.011a.5.5 0 0 0-.935.003l-.005.01-.02.051a3.6 3.6 0 0 1-.486.799c-.356.44-.851.814-1.515.814s-1.16-.375-1.518-.815a3.6 3.6 0 0 1-.51-.85l-.004-.01v-.001a.5.5 0 0 0-.953.055v-.001l-.002.009-.014.046a2.7 2.7 0 0 1-.399.767c-.307.41-.796.8-1.6.8a.5.5 0 0 0 0 1c1.196 0 1.957-.608 2.4-1.2q.076-.101.14-.201.076.107.166.217C5.66 17.376 6.414 18 7.5 18s1.838-.625 2.292-1.185a4 4 0 0 0 .204-.274q.095.136.207.276C10.66 17.377 11.414 18 12.5 18s1.84-.624 2.294-1.184q.087-.107.162-.212.065.101.14.204c.444.596 1.207 1.207 2.41 1.192a.5.5 0 1 0-.012-1c-.803.01-1.29-.379-1.595-.789a2.7 2.7 0 0 1-.397-.774z" fill="currentColor"/></svg>