<svg xmlns="http://www.w3.org/2000/svg" viewBox="0 0 20 20"><path fill="currentColor" d="M3.759 4H16.49a1.5 1.5 0 0 1 1.511 1.5v9a1.5 1.5 0 0 1-1.5 1.5H3.51a1.5 1.5 0 0 1-1.5-1.5V9.887c.158.07.328.11.5.113.172-.002.342-.037.5-.105V14.5a.5.5 0 0 0 .5.5h2.498v-1.5a1.5 1.5 0 0 1 1.5-1.5h4.997a1.5 1.5 0 0 1 1.5 1.5V15h2.498a.5.5 0 0 0 .5-.5v-9a.5.5 0 0 0-.5-.5H4.309a.6.6 0 0 1-.2-.124.6.6 0 0 1-.138-.225l-.212-.65zm8.002 2.732A2.5 2.5 0 0 1 9.995 11a2.5 2.5 0 0 1-2.5-2.5 2.5 2.5 0 0 1 2.5-2.5c.662 0 1.298.263 1.766.732M4.12 9.328a.19.19 0 0 0-.121.166.2.2 0 0 0 .034.105q.033.047.087.066l.46.15a.96.96 0 0 1 .598.6l.15.46a.18.18 0 0 0 .166.12.18.18 0 0 0 .166-.12l.15-.46a.94.94 0 0 1 .599-.599l.458-.149a.2.2 0 0 0 .088-.066.177.177 0 0 0-.088-.27h-.009L6.4 9.18a.95.95 0 0 1-.6-.599l-.15-.459a.2.2 0 0 0-.035-.06.18.18 0 0 0-.13-.06.2.2 0 0 0-.105.033.2.2 0 0 0-.066.087l-.149.46a1 1 0 0 1-.225.368.94.94 0 0 1-.364.23zM2.499 9a.3.3 0 0 1-.283-.199l-.25-.765a1.57 1.57 0 0 0-.998-1.002l-.764-.249A.3.3 0 0 1 .002 6.5a.3.3 0 0 1 .202-.284l.764-.249a1.57 1.57 0 0 0 .978-.979l.006-.019.249-.765a.3.3 0 0 1 .285-.202.3.3 0 0 1 .284.202l.25.765q.04.113.1.218.107.222.278.4c.174.173.385.304.618.381l.764.25h.015a.3.3 0 0 1 .202.285.3.3 0 0 1-.202.284l-.764.25a1.57 1.57 0 0 0-.999.997l-.249.765-.007.02a.3.3 0 0 1-.102.126.3.3 0 0 1-.175.055"/></svg>