<svg xmlns="http://www.w3.org/2000/svg" viewBox="0 0 20 20"><path fill="currentColor" d="M4.5 4A2.5 2.5 0 0 0 2 6.5v2.758A5.5 5.5 0 0 1 3 8.6V6.5A1.5 1.5 0 0 1 4.5 5h7A1.5 1.5 0 0 1 13 6.5v7a1.5 1.5 0 0 1-1.5 1.5h-.706a5.5 5.5 0 0 1-.393 1H11.5a2.5 2.5 0 0 0 2.5-2.5v-1l2.4 1.8a1 1 0 0 0 1.6-.8v-7a1 1 0 0 0-1.6-.8L14 7.5v-1A2.5 2.5 0 0 0 11.5 4zM14 8.75l3-2.25v7l-3-2.25zM9.243 16A4.5 4.5 0 0 0 10 13.5a4.5 4.5 0 1 0-8.436 2.182l-.545 1.789a.41.41 0 0 0 .51.51l1.79-.544A4.5 4.5 0 0 0 5.5 18c1.56 0 2.936-.794 3.743-2m-5.742-1a.5.5 0 0 1-.355-.853A.5.5 0 0 1 3.5 14h2a.5.5 0 0 1 0 1zM3 12.5a.5.5 0 0 1 .5-.5h4a.5.5 0 0 1 0 1h-4a.5.5 0 0 1-.5-.5"/></svg>