<svg xmlns="http://www.w3.org/2000/svg" viewBox="0 0 24 24"><path fill="currentColor" d="m18.01 12.245.504-1.187c.236-.556.801-.86 1.356-.744l.118.031.63.202c.626.2 1.104.735 1.259 1.407q.55 2.397-1.322 5.836-1.87 3.433-4.1 4.129a1.76 1.76 0 0 1-1.663-.342l-.124-.114-.478-.48a1.36 1.36 0 0 1-.223-1.59l.071-.117.722-1.06c.283-.417.77-.614 1.237-.515l.127.035 1.332.444a5.1 5.1 0 0 0 1.33-1.519 4.8 4.8 0 0 0 .596-1.59l.038-.27-1.109-1.052a1.35 1.35 0 0 1-.348-1.373zl.504-1.187-.503 1.187zM19.745 4a2.25 2.25 0 0 1 2.25 2.25l.001 3.979a2.8 2.8 0 0 0-.874-.562l-.2-.073-.427-.137V6.25a.75.75 0 0 0-.75-.75H4.25a.75.75 0 0 0-.75.75v11.505c0 .414.336.75.75.75l2.749-.001L7 15.75a1.75 1.75 0 0 1 1.606-1.744L8.75 14h6.495a1.75 1.75 0 0 1 1.744 1.607l.006.143-.001 1.222-.554-.185-.166-.048a2.19 2.19 0 0 0-2.238.774l-.104.14-.721 1.06-.098.157c-.2.352-.302.744-.307 1.134H4.25A2.25 2.25 0 0 1 2 17.755V6.25A2.25 2.25 0 0 1 4.25 4zM12 7a3 3 0 1 1 0 6 3 3 0 0 1 0-6"/></svg>