<svg xmlns="http://www.w3.org/2000/svg" xmlns:xlink="http://www.w3.org/1999/xlink" viewBox="0 0 20 20"><path d="M2 5.5A1.5 1.5 0 0 1 3.5 4h13A1.5 1.5 0 0 1 18 5.5v3.406a2.3 2.3 0 0 0-1-.186V5.5a.5.5 0 0 0-.5-.5h-13a.5.5 0 0 0-.5.5v9a.5.5 0 0 0 .5.5H6v-1.5A1.5 1.5 0 0 1 7.5 12h5a1.5 1.5 0 0 1 1.5 1.5v1.074c-1.037.033-1.533.79-1.826 1.236q-.071.11-.13.19H3.5A1.5 1.5 0 0 1 2 14.5zm10.5 3a2.5 2.5 0 1 1-5 0 2.5 2.5 0 0 1 5 0m3.335 2.765.399-.941c.187-.442.635-.682 1.075-.59l.094.024.5.16c.496.159.875.583.998 1.116q.437 1.9-1.049 4.628-1.483 2.724-3.251 3.275c-.458.143-.95.04-1.32-.271l-.097-.09-.38-.381a1.08 1.08 0 0 1-.176-1.262l.056-.092.572-.84a.95.95 0 0 1 .982-.409l.1.027 1.057.353q.632-.479 1.054-1.205.363-.622.473-1.261l.03-.214-.879-.835a1.07 1.07 0 0 1-.276-1.088z" fill="currentColor"/></svg>