<svg xmlns="http://www.w3.org/2000/svg" xmlns:xlink="http://www.w3.org/1999/xlink" viewBox="0 0 24 24"><path d="M4.297 4h15.449A2.25 2.25 0 0 1 22 6.249v11.502A2.25 2.25 0 0 1 19.75 20H4.25A2.25 2.25 0 0 1 2 17.751v-7.207q.095.111.21.2a1.38 1.38 0 0 0 1.29.143v6.861a.75.75 0 0 0 .75.75h2.749v-2.753a1.75 1.75 0 0 1 1.607-1.743l.143-.006h6.495a1.75 1.75 0 0 1 1.744 1.606l.006.143v2.749h2.752a.75.75 0 0 0 .75-.75V6.249a.75.75 0 0 0-.75-.75H5.418l-.281-.09a.89.89 0 0 1-.564-.56zm9.824 3.878a2.998 2.998 0 0 1-3.27 4.89A3 3 0 0 1 9 9.999 3 3 0 0 1 12 7a3 3 0 0 1 2.121.878m-11.76.96.3.917a.363.363 0 0 0 .676.023l.008-.023.3-.916a1.89 1.89 0 0 1 1.199-1.197l.918-.3a.363.363 0 0 0 0-.684h-.018l-.919-.3a1.88 1.88 0 0 1-1.198-1.197l-.3-.918a.364.364 0 0 0-.552-.175.36.36 0 0 0-.132.175l-.3.917-.007.023a1.9 1.9 0 0 1-1.173 1.175l-.919.3a.364.364 0 0 0-.175.55.36.36 0 0 0 .175.134l.919.3a1.9 1.9 0 0 1 1.198 1.197zm2.53 1.71.536-.175a1.12 1.12 0 0 0 .587-.472q.062-.107.1-.226l.174-.536a.22.22 0 0 1 .12-.124.21.21 0 0 1 .202.024.2.2 0 0 1 .077.102l.174.536a1.1 1.1 0 0 0 .7.698l.535.174h.01a.21.21 0 0 1 .141.2.21.21 0 0 1-.139.199l-.535.174a1.1 1.1 0 0 0-.7.699l-.173.534a.2.2 0 0 1-.078.1.212.212 0 0 1-.321-.1l-.174-.534a1.1 1.1 0 0 0-.7-.702l-.535-.174a.213.213 0 0 1-.1-.32.2.2 0 0 1 .1-.078z" fill="currentColor"/></svg>