<svg xmlns="http://www.w3.org/2000/svg" xmlns:xlink="http://www.w3.org/1999/xlink" viewBox="0 0 24 24"><path d="M13.75 4.5A3.25 3.25 0 0 1 17 7.75v.173l3.864-2.318A.75.75 0 0 1 22 6.248V17.75a.75.75 0 0 1-1.136.643L17 16.075v.175a3.25 3.25 0 0 1-3.25 3.25h-1.479c.245-.47.434-.972.558-1.5h.921a1.75 1.75 0 0 0 1.75-1.75v-8.5A1.75 1.75 0 0 0 13.75 6h-8.5A1.75 1.75 0 0 0 3.5 7.75v2.983A6.5 6.5 0 0 0 2 11.811V7.75A3.25 3.25 0 0 1 5.25 4.5zm6.75 3.073L17 9.674v4.651l3.5 2.1zM10 12.256A5.48 5.48 0 0 0 6.501 11a5.5 5.5 0 0 0-4.812 8.169l-.666 2.186a.5.5 0 0 0 .624.625l2.187-.666A5.501 5.501 0 0 0 10 12.256M4.5 16a.5.5 0 1 1 0-1h4.002a.5.5 0 1 1 0 1zm2.001 2h-2a.5.5 0 1 1 0-1h2a.5.5 0 1 1 0 1" fill="currentColor"/></svg>