<svg xmlns="http://www.w3.org/2000/svg" xmlns:xlink="http://www.w3.org/1999/xlink" viewBox="0 0 20 20"><path d="M10 11a2.5 2.5 0 1 0 0-5 2.5 2.5 0 0 0 0 5m0-1a1.5 1.5 0 1 1 0-3 1.5 1.5 0 0 1 0 3M2 5.5A1.5 1.5 0 0 1 3.5 4h13A1.5 1.5 0 0 1 18 5.5v9a1.5 1.5 0 0 1-1.5 1.5h-13A1.5 1.5 0 0 1 2 14.5zM7 15h6v-1.5a.5.5 0 0 0-.5-.5h-5a.5.5 0 0 0-.5.5zm7 0h2.5a.5.5 0 0 0 .5-.5v-9a.5.5 0 0 0-.5-.5h-13a.5.5 0 0 0-.5.5v9a.5.5 0 0 0 .5.5H6v-1.5A1.5 1.5 0 0 1 7.5 12h5a1.5 1.5 0 0 1 1.5 1.5z" fill="currentColor"/></svg>