<svg xmlns="http://www.w3.org/2000/svg" viewBox="0 0 48 48"><path fill="currentColor" d="m4.039 16.464-.044-.05.01.002-.078-.089a3 3 0 0 0-.121-.133 3.8 3.8 0 0 0-1.485-.918l-1.837-.6a.728.728 0 0 1-.351-1.103.73.73 0 0 1 .351-.264l1.837-.6a3.8 3.8 0 0 0 1.462-.92q.13-.15.245-.311.19-.241.35-.505.171-.294.29-.613l.612-1.881a.73.73 0 0 1 .684-.484c.15 0 .297.046.42.133q.054.045.1.1c.07.071.125.157.16.25l.601 1.835a3.8 3.8 0 0 0 2.397 2.396l1.838.6.037.008A.73.73 0 0 1 12 14a.72.72 0 0 1-.484.684l-1.838.6a3.8 3.8 0 0 0-1.48.919 3.8 3.8 0 0 0-.917 1.48l-.6 1.836-.017.045a.7.7 0 0 1-.167.206.3.3 0 0 0-.032.043c-.014.021-.028.042-.05.057a.73.73 0 0 1-.998-.156.7.7 0 0 1-.105-.2l-.6-1.835a3.8 3.8 0 0 0-.6-1.13 1 1 0 0 0-.074-.085zm24.201-.708a5.998 5.998 0 0 1-4.243 10.241 6 6 0 0 1-6-5.999 6 6 0 0 1 6-5.999c1.592 0 3.118.632 4.244 1.757zM40.25 8H8.59l.548 1.688a1.8 1.8 0 0 0 .43.7 1 1 0 0 0 .083.066q.033.022.062.048H40.25a1.25 1.25 0 0 1 1.25 1.25v24.496a1.25 1.25 0 0 1-1.25 1.25H34v-6.251a3.25 3.25 0 0 0-3.25-3.25H17.245a3.25 3.25 0 0 0-3.25 3.25v6.248h-6.25a1.25 1.25 0 0 1-1.251-1.25V21.949a2.7 2.7 0 0 1-.5.053 2.7 2.7 0 0 1-1.574-.5 2.7 2.7 0 0 1-.426-.414v15.159a3.75 3.75 0 0 0 3.75 3.75H40.25A3.75 3.75 0 0 0 44 36.245V11.749A3.75 3.75 0 0 0 40.25 8m-29.9 13.748a2.21 2.21 0 0 0 1.38-1.397l.349-1.07a.42.42 0 0 1 .399-.279.42.42 0 0 1 .244.078.4.4 0 0 1 .155.2l.348 1.071a2.2 2.2 0 0 0 1.4 1.397l1.07.348.022.006a.42.42 0 0 1 .278.399.42.42 0 0 1-.278.398l-1.072.349a2.2 2.2 0 0 0-1.401 1.397l-.35 1.07a.42.42 0 0 1-.398.278.42.42 0 0 1-.244-.078.4.4 0 0 1-.155-.2l-.348-1.07a2.2 2.2 0 0 0-1.4-1.403l-1.07-.348a.425.425 0 0 1-.284-.4.42.42 0 0 1 .283-.398z"/></svg>