<svg xmlns="http://www.w3.org/2000/svg" xmlns:xlink="http://www.w3.org/1999/xlink" viewBox="0 0 20 20"><path d="M4.5 4A2.5 2.5 0 0 0 2 6.5v3.757A5.5 5.5 0 0 1 3 9.6V6.5A1.5 1.5 0 0 1 4.5 5h7A1.5 1.5 0 0 1 13 6.5v7a1.5 1.5 0 0 1-1.5 1.5h-.522a5.5 5.5 0 0 1-.185 1h.707a2.5 2.5 0 0 0 2.5-2.5v-1l2.4 1.8a1 1 0 0 0 1.6-.8v-7a1 1 0 0 0-1.6-.8L14 7.5v-1A2.5 2.5 0 0 0 11.5 4zM14 8.75l3-2.25v7l-3-2.25zm-4 5.75a4.5 4.5 0 1 1-9 0 4.5 4.5 0 0 1 9 0m-4-2a.5.5 0 0 0-1 0V14H3.5a.5.5 0 0 0 0 1H5v1.5a.5.5 0 0 0 1 0V15h1.5a.5.5 0 0 0 0-1H6z" fill="currentColor"/></svg>