<svg xmlns="http://www.w3.org/2000/svg" xmlns:xlink="http://www.w3.org/1999/xlink" viewBox="0 0 20 20"><path d="M13 6.5A2.5 2.5 0 0 0 10.5 4h-6A2.5 2.5 0 0 0 2 6.5v2.758A5.5 5.5 0 0 1 10.401 16h.099a2.5 2.5 0 0 0 2.5-2.5zm1 1.43v4.152l2.764 2.35A.75.75 0 0 0 18 13.86V6.193a.75.75 0 0 0-1.23-.575zM5.5 18a4.5 4.5 0 1 0-3.936-2.318l-.545 1.789a.41.41 0 0 0 .51.51l1.79-.544A4.5 4.5 0 0 0 5.5 18M3 12.5a.5.5 0 0 1 .5-.5h4a.5.5 0 0 1 0 1h-4a.5.5 0 0 1-.5-.5m.5 2.5a.5.5 0 0 1 0-1h2a.5.5 0 0 1 0 1z" fill="currentColor"/></svg>