<svg xmlns="http://www.w3.org/2000/svg" viewBox="0 0 28 28"><path fill="currentColor" d="M2.227 8.78a2 2 0 0 0-.216-.171l-.008-.011a2.2 2.2 0 0 0-.65-.365l-1.07-.348A.425.425 0 0 1 0 7.486a.42.42 0 0 1 .283-.399l1.07-.348a2.2 2.2 0 0 0 .739-.445l.05-.039.064-.053c.231-.235.407-.52.514-.832l.01-.027.348-1.07a.42.42 0 0 1 .399-.279.42.42 0 0 1 .244.078.4.4 0 0 1 .119.156q.006.012.017.022.012.011.019.026l.347 1.07q.06.156.138.3a2.2 2.2 0 0 0 .4.568c.243.243.539.426.865.533l1.07.348.022.006a.42.42 0 0 1 .278.4.43.43 0 0 1-.278.399l-1.071.347A2.2 2.2 0 0 0 4.25 9.644l-.35 1.07-.01.026a.43.43 0 0 1-.143.178.42.42 0 0 1-.485-.001.4.4 0 0 1-.155-.2l-.348-1.07a2.2 2.2 0 0 0-.532-.867M5.006 4h17.989A2.997 2.997 0 0 1 26 7v13.995a3 3 0 0 1-2.998 3H5.012a3 3 0 0 1-2.998-3V10.577l.146.449a1.425 1.425 0 0 0 1.35.972v8.997a1.5 1.5 0 0 0 1.499 1.5h3.244v-4a2 2 0 0 1 1.998-1.999h7.496a2 2 0 0 1 1.999 2v3.999h3.249a1.5 1.5 0 0 0 1.499-1.5V6.999a1.5 1.5 0 0 0-1.5-1.5H5.466a1.2 1.2 0 0 1-.288-.461l-.332-1.02.071-.01q.044-.007.09-.008zm4.746 18.495h8.495v-4a.5.5 0 0 0-.5-.5h-7.495a.5.5 0 0 0-.5.5zm7.745-10.997a3.5 3.5 0 0 0-5.971-2.474 3.5 3.5 0 0 0 4.947 4.948 3.5 3.5 0 0 0 1.024-2.474m-5.496 0a2 2 0 1 1 4 0 2 2 0 0 1-4 0m-6.335.772.612-.2c.181-.061.346-.162.483-.295a1.3 1.3 0 0 0 .3-.492l.2-.612a.24.24 0 0 1 .137-.144.25.25 0 0 1 .27.063.3.3 0 0 1 .048.081l.2.612c.06.186.163.355.3.494.139.138.308.243.494.305l.612.2h.012a.25.25 0 0 1 .117.088.24.24 0 0 1 0 .279.24.24 0 0 1-.117.088l-.612.2c-.186.06-.355.163-.494.3-.137.139-.24.308-.3.493l-.2.612a.24.24 0 0 1-.228.161.24.24 0 0 1-.228-.161l-.2-.612a1.3 1.3 0 0 0-.3-.5 1.3 1.3 0 0 0-.494-.306l-.612-.2a.241.241 0 0 1 0-.455z"/></svg>