<svg xmlns="http://www.w3.org/2000/svg" viewBox="0 0 16 16"><path fill="currentColor" d="M1 4.75C1 3.784 1.784 3 2.75 3h10.5c.966 0 1.75.784 1.75 1.75v2.187a2.2 2.2 0 0 0-.59-.295l-.41-.13V4.75a.75.75 0 0 0-.75-.75H2.75a.75.75 0 0 0-.75.75v6.5c0 .414.336.75.75.75H5v-1a1 1 0 0 1 1-1h4a1 1 0 0 1 1 1v.205a1.78 1.78 0 0 0-1.51.787l-.481.706-.072.12-.013.022a2 2 0 0 0-.076.16H2.75A1.75 1.75 0 0 1 1 11.25zm13.92 3.755q.078.345.08.725v.028q-.005 1.311-.936 3.02-.195.36-.397.672-1.045 1.621-2.254 1.999a1.14 1.14 0 0 1-1.076-.222l-.08-.073-.309-.31a.88.88 0 0 1-.144-1.03l.046-.074.467-.686a.79.79 0 0 1 .708-.346q.045.004.092.013l.082.023.861.287q.515-.39.86-.982a3.1 3.1 0 0 0 .386-1.029l.025-.174-.717-.68a.88.88 0 0 1-.226-.888l.03-.085.326-.767a.784.784 0 0 1 .877-.482l.077.02.407.13c.405.13.714.476.814.91zM10 7a2 2 0 1 1-4 0 2 2 0 0 1 4 0"/></svg>