<svg xmlns="http://www.w3.org/2000/svg" viewBox="0 0 28 28"><g fill="currentColor"><path d="M15.627 12h-3.254A3.5 3.5 0 1 1 9.5 10.5h9a3.5 3.5 0 1 1-2.873 1.5m2.873 0a2 2 0 1 0 0 4 2 2 0 0 0 0-4m-9 0a2 2 0 1 0 0 4 2 2 0 0 0 0-4"/><path d="M5.754 3.998a3.75 3.75 0 0 0-3.75 3.75v12.5a3.75 3.75 0 0 0 3.75 3.75H22.25a3.75 3.75 0 0 0 3.75-3.75v-12.5a3.75 3.75 0 0 0-3.75-3.75zm-2.25 3.75a2.25 2.25 0 0 1 2.25-2.25H22.25a2.25 2.25 0 0 1 2.25 2.25v12.5a2.25 2.25 0 0 1-2.25 2.25H5.755a2.25 2.25 0 0 1-2.25-2.25z"/></g></svg>