<svg xmlns="http://www.w3.org/2000/svg" viewBox="0 0 20 20"><path fill="currentColor" d="M6.5 14.997a1.5 1.5 0 1 1 0 3 1.5 1.5 0 0 1 0-3m0 1a.5.5 0 1 0 0 1 .5.5 0 0 0 0-1m9.113-7.776a2.392 2.392 0 0 1 .164 4.776l-.192.005-.083.006h-1.206c.22.338.347.742.347 1.175 0 1.215-.913 2.186-2.118 2.186-1.198 0-1.914-.694-2.108-1.663a.5.5 0 1 1 .98-.197c.107.532.445.86 1.128.86.639 0 1.117-.51 1.117-1.186 0-.57-.41-1.046-.957-1.157l-.141-.019-10.039.001a.5.5 0 0 1-.09-.992l.09-.008 9.881-.001.057-.005q.079 0 .157.006h2.902l.025.002.086-.008c.724 0 1.319-.551 1.386-1.257l.007-.133a1.392 1.392 0 0 0-2.783-.086.5.5 0 1 1-.998-.06 2.39 2.39 0 0 1 2.388-2.245M9.765 3.55a3.231 3.231 0 0 1 .016 6.463H2.505a.5.5 0 0 1-.09-.992l.09-.008h7.26a2.231 2.231 0 1 0-2.231-2.232.5.5 0 0 1-1 0A3.23 3.23 0 0 1 9.765 3.55M3.5 3a1.5 1.5 0 1 1 0 3 1.5 1.5 0 0 1 0-3m0 1a.5.5 0 1 0 0 1 .5.5 0 0 0 0-1m13.002-2a1.5 1.5 0 1 1 0 3 1.5 1.5 0 0 1 0-3m0 1a.5.5 0 1 0 0 1 .5.5 0 0 0 0-1"/></svg>