<svg xmlns="http://www.w3.org/2000/svg" xmlns:xlink="http://www.w3.org/1999/xlink" viewBox="0 0 48 48"><path d="M26.003 14.018c6.337 0 9.932 4.194 10.455 9.26h.16c4.078 0 7.384 3.298 7.384 7.365s-3.306 7.365-7.384 7.365h-21.23c-4.078 0-7.384-3.297-7.384-7.365s3.306-7.365 7.385-7.365h.16c.526-5.099 4.117-9.26 10.454-9.26M20 8a9.43 9.43 0 0 1 7.8 4.125 15 15 0 0 0-1.8-.107c-6.078 0-10.476 3.438-11.96 8.614l-.08.29-.115.475-.414.077a9.38 9.38 0 0 0-6.905 6.06 6.564 6.564 0 0 1 4.038-11.739h.142A9.44 9.44 0 0 1 20 8" fill="currentColor"/></svg>