<svg xmlns="http://www.w3.org/2000/svg" xmlns:xlink="http://www.w3.org/1999/xlink" viewBox="0 0 48 48"><path d="M17.5 36a2.5 2.5 0 1 1 0 5 2.5 2.5 0 0 1 0-5m20.523-18.5a5.98 5.98 0 0 1 5.981 5.977c0 3.3-2.705 5.991-6.01 5.991l.033.001q-.073.017-.15.024l-.127.007h-3.033c.565.86.894 1.889.894 2.994 0 3.062-2.298 5.507-5.335 5.507-3.018 0-4.822-1.746-5.311-4.188a1.25 1.25 0 1 1 2.45-.492c.271 1.35 1.129 2.18 2.86 2.18 1.621 0 2.836-1.292 2.836-3.007 0-1.591-1.264-2.898-2.864-2.989l-.179-.005H5.25a1.25 1.25 0 0 1-.128-2.494L5.25 27h32.465q.135-.031.28-.032c1.926 0 3.51-1.575 3.51-3.49A3.48 3.48 0 0 0 38.022 20a3.48 3.48 0 0 0-3.475 3.264 1.25 1.25 0 0 1-2.496-.15 5.98 5.98 0 0 1 5.97-5.614zM22.99 6a7.992 7.992 0 0 1 .226 15.98l-.107.015L23 22H5.25a1.25 1.25 0 0 1-.128-2.494l.128-.006h17.541l.1-.013.1-.004a5.492 5.492 0 1 0-5.491-5.492 1.25 1.25 0 1 1-2.5 0A7.99 7.99 0 0 1 22.991 6zM37.5 8a2.5 2.5 0 1 1 0 5 2.5 2.5 0 0 1 0-5m-30-2a2.5 2.5 0 1 1 0 5 2.5 2.5 0 0 1 0-5" fill="currentColor"/></svg>