<svg xmlns="http://www.w3.org/2000/svg" viewBox="0 0 24 24"><path fill="currentColor" d="M18.748 9.494a3.251 3.251 0 0 1 .184 6.495l-.2.005-.116.007h-.787c.11.31.17.644.17.993 0 1.664-1.262 3.006-2.926 3.006-1.3 0-2.235-.628-2.688-1.627a1 1 0 0 1 1.767-.93l.098.189c.14.242.373.368.823.368.53 0 .925-.42.925-1.006 0-.511-.393-.936-.904-.993H3a1 1 0 0 1-.117-1.994L3 14.002h11.859l.117-.007q.095 0 .189.006l3.462.001.06-.005.189-.008a1.25 1.25 0 1 0-1.254-1.793l-.097.226a1 1 0 0 1-1.83-.796 3.25 3.25 0 0 1 3.053-2.13zM9.75 17.5a.75.75 0 1 1 0 1.5.75.75 0 0 1 0-1.5m2-14.001a4.25 4.25 0 0 1 .023 8.5H3a1 1 0 0 1-.117-1.993L3 10h8.75l.154-.006A2.25 2.25 0 1 0 9.499 7.75a1 1 0 0 1-2 0 4.25 4.25 0 0 1 4.25-4.25zm7.5 3a.75.75 0 1 1 0 1.5.75.75 0 0 1 0-1.5M5.75 5a.75.75 0 1 1 0 1.5.75.75 0 0 1 0-1.5"/></svg>