<svg xmlns="http://www.w3.org/2000/svg" xmlns:xlink="http://www.w3.org/1999/xlink" viewBox="0 0 20 20"><path d="M5.554 10.016q0 .508.108.984H2.5a.5.5 0 0 0 0 1h15a.5.5 0 0 0 0-1h-3.092a4.481 4.481 0 1 0-8.854-.984m7.822.984h-6.68a3.481 3.481 0 1 1 6.68 0m-3.35 7.012a.5.5 0 0 0 .109-.012h-.22a.5.5 0 0 0 .11.012zM5.006 4.324l.07.058.858.858a.5.5 0 0 1-.638.765l-.07-.058-.858-.858a.5.5 0 0 1 .638-.765m10.674.058a.5.5 0 0 1 .058.637l-.058.07-.859.858a.5.5 0 0 1-.764-.638l.057-.07.859-.857a.5.5 0 0 1 .707 0m-5.653-2.358a.5.5 0 0 1 .492.41l.008.09v1.214a.5.5 0 0 1-.992.09l-.008-.09V2.524a.5.5 0 0 1 .5-.5M8.5 16a.5.5 0 0 0 0 1h3a.5.5 0 0 0 0-1zM5 14a.5.5 0 0 1 .5-.5h9a.5.5 0 0 1 0 1h-9A.5.5 0 0 1 5 14" fill="currentColor"/></svg>