<svg xmlns="http://www.w3.org/2000/svg" viewBox="0 0 20 20"><path fill="currentColor" d="M11 16.666A.667.667 0 1 1 11 18a.667.667 0 0 1 0-1.334M8.667 16a.667.667 0 1 1 0 1.333.667.667 0 0 1 0-1.333m4.666 0a.667.667 0 1 1 0 1.333.667.667 0 0 1 0-1.333M11 6c2.465 0 3.863 1.573 4.066 3.474h.062c1.586 0 2.872 1.237 2.872 2.763S16.714 15 15.128 15H6.872C5.286 15 4 13.763 4 12.237s1.286-2.763 2.872-2.763h.062C7.139 7.56 8.535 6 11 6M3.803 8.7a.5.5 0 0 1-.227.6l-.083.036-.801.276a.5.5 0 0 1-.408-.909l.082-.036.802-.276a.5.5 0 0 1 .635.31zM8.92 4.5c.332.162.625.373.873.62-1.762.364-3.03 1.533-3.543 3.156l-.065.224-.046.187-.165.03a3.8 3.8 0 0 0-1.25.504A3.28 3.28 0 0 1 8.92 4.5m-6.003.17L3 4.702l.762.371a.5.5 0 0 1-.354.931l-.084-.032-.762-.371a.5.5 0 0 1 .354-.931zM9.99 2.295a.5.5 0 0 1 .262.585l-.032.084-.371.762a.5.5 0 0 1-.931-.354l.032-.085.372-.762a.5.5 0 0 1 .668-.23M6.2 2.263l.037.082.276.802a.5.5 0 0 1-.909.407l-.036-.082-.276-.801a.5.5 0 0 1 .908-.408"/></svg>