<svg xmlns="http://www.w3.org/2000/svg" xmlns:xlink="http://www.w3.org/1999/xlink" viewBox="0 0 48 48"><path d="M19.5 36a1.5 1.5 0 1 1 0 3 1.5 1.5 0 0 1 0-3m9 0a1.5 1.5 0 1 1 0 3 1.5 1.5 0 0 1 0-3M15 34a1.5 1.5 0 1 1 0 3 1.5 1.5 0 0 1 0-3m9 0a1.5 1.5 0 1 1 0 3 1.5 1.5 0 0 1 0-3m9 0a1.5 1.5 0 1 1 0 3 1.5 1.5 0 0 1 0-3M24.001 8c6.337 0 9.932 4.195 10.455 9.26h.16c4.078 0 7.384 3.298 7.384 7.365s-3.306 7.365-7.384 7.365h-21.23c-4.078 0-7.384-3.297-7.384-7.365s3.306-7.365 7.384-7.365h.16C14.072 12.161 17.664 8 24.001 8m0 2.495c-4.261 0-7.975 3.448-7.975 8.21 0 .755-.656 1.348-1.407 1.348h-1.421c-2.594 0-4.697 2.113-4.697 4.72 0 2.608 2.103 4.722 4.697 4.722h21.606c2.594 0 4.697-2.114 4.697-4.721s-2.103-4.722-4.697-4.722h-1.42c-.752 0-1.408-.592-1.408-1.346 0-4.824-3.714-8.21-7.975-8.21z" fill="currentColor"/></svg>