<svg xmlns="http://www.w3.org/2000/svg" xmlns:xlink="http://www.w3.org/1999/xlink" viewBox="0 0 20 20"><path d="M9.5 3.5v-1a.5.5 0 0 1 1 0v1a.5.5 0 0 1-1 0M7 8a3 3 0 1 1 6 0 3 3 0 0 1-6 0m2.5 4.5v1a.5.5 0 0 0 1 0v-1a.5.5 0 0 0-1 0M4.5 8a.5.5 0 0 0 0 1h1a.5.5 0 0 0 0-1zm11 1h-1a.5.5 0 0 1 0-1h1a.5.5 0 0 1 0 1M6.146 5.854a.5.5 0 1 0 .708-.708l-1-1a.5.5 0 1 0-.708.708zm.708 5.292a.5.5 0 0 0-.708 0l-1 1a.5.5 0 1 0 .708.708l1-1a.5.5 0 0 0 0-.707zm7-5.292a.5.5 0 0 1-.708-.708l1-1a.5.5 0 0 1 .708.708zm-.708 5.292a.5.5 0 0 1 .708 0l1 1a.5.5 0 0 1-.708.708l-1-1a.5.5 0 0 1 0-.707zm-7.012 5.311A15.8 15.8 0 0 1 10 16c1.669 0 3.045.229 4.13.527 1.04.285 1.815.634 2.324.908a7 7 0 0 1 .7.43l.03.022.004.004a.5.5 0 0 0 .624-.782l-.002-.002-.005-.003-.013-.01-.047-.035a8 8 0 0 0-.818-.505 12.2 12.2 0 0 0-2.532-.992C13.227 15.242 11.761 15 10 15c-1.621 0-2.992.205-4.111.488a12.5 12.5 0 0 0-2.744 1.027 8 8 0 0 0-.702.413 5 5 0 0 0-.233.164l-.015.012-.004.003-.002.002h-.001a.5.5 0 0 0 .624.782l.006-.005.032-.024a7 7 0 0 1 .76-.462 11.5 11.5 0 0 1 2.524-.943" fill="currentColor"/></svg>