<svg xmlns="http://www.w3.org/2000/svg" viewBox="0 0 48 48"><path fill="currentColor" d="M24 4c.69 0 1.25.56 1.25 1.25v1.5a1.25 1.25 0 1 1-2.5 0v-1.5c0-.69.56-1.25 1.25-1.25m0 6a8 8 0 1 0 0 16 8 8 0 0 0 0-16m-5.5 8a5.5 5.5 0 1 1 11 0 5.5 5.5 0 0 1-11 0m6.75 11.25a1.25 1.25 0 1 0-2.5 0v1.5a1.25 1.25 0 1 0 2.5 0zM11.25 16a1.25 1.25 0 1 0 0 2.5h1.5a1.25 1.25 0 1 0 0-2.5zM34 17.25c0-.69.56-1.25 1.25-1.25h1.5a1.25 1.25 0 1 1 0 2.5h-1.5c-.69 0-1.25-.56-1.25-1.25m-20.134-5.616a1.25 1.25 0 0 0 1.768-1.768l-1.5-1.5a1.25 1.25 0 0 0-1.768 1.768zm1.768 12.732a1.25 1.25 0 0 0-1.768 0l-1.5 1.5a1.25 1.25 0 0 0 1.768 1.768l1.5-1.5a1.25 1.25 0 0 0 0-1.768m18.5-12.732a1.25 1.25 0 0 1-1.768-1.768l1.5-1.5a1.25 1.25 0 0 1 1.768 1.768zm-1.768 12.732a1.25 1.25 0 0 1 1.768 0l1.5 1.5a1.25 1.25 0 0 1-1.768 1.768l-1.5-1.5a1.25 1.25 0 0 1 0-1.768M6.05 43.71a1.25 1.25 0 0 1-1.76-.16c-.344-.411-.266-1.407.163-1.763l.007-.006.022-.018.075-.06a21 21 0 0 1 1.31-.934 30 30 0 0 1 3.899-2.154A33.9 33.9 0 0 1 24 35.5a33.9 33.9 0 0 1 14.234 3.115c1.685.78 3 1.561 3.899 2.153a21 21 0 0 1 1.31.935l.075.06.028.024.004.002s.84.88.16 1.762c-.442.53-1.23.6-1.76.159l-.01-.007-.05-.04a19 19 0 0 0-1.132-.806 28 28 0 0 0-3.573-1.972A31.4 31.4 0 0 0 24 38a31.4 31.4 0 0 0-13.185 2.885 28 28 0 0 0-3.574 1.972 19 19 0 0 0-1.131.806l-.05.04z"/></svg>