<svg xmlns="http://www.w3.org/2000/svg" xmlns:xlink="http://www.w3.org/1999/xlink" viewBox="0 0 24 24"><path d="M6.5 12a5.5 5.5 0 1 1 0 11 5.5 5.5 0 0 1 0-11m0 1.998a1.75 1.75 0 0 0-1.744 1.607l-.006.143v.781c-.395.102-.696.44-.743.854L4 17.498v2.5a1 1 0 0 0 .883.993l.117.007h3a1 1 0 0 0 .993-.883L9 19.998v-2.5a1 1 0 0 0-.644-.935l-.105-.033-.001-.782a1.75 1.75 0 0 0-1.75-1.75m0 1a.75.75 0 0 1 .743.648l.007.102v.75h-1.5v-.75a.75.75 0 0 1 .75-.75m9.143-1.179c.448.448.816.998 1.072 1.583a.75.75 0 1 1-1.373.602 3.58 3.58 0 0 0-3.475-2.171 6.5 6.5 0 0 0-1.195-1.318 5.09 5.09 0 0 1 4.971 1.304m2.102-3.068a8.3 8.3 0 0 1 1.492 2.069.75.75 0 1 1-1.335.683 6.8 6.8 0 0 0-1.218-1.692 6.56 6.56 0 0 0-8.576-.611 6.5 6.5 0 0 0-2.015-.188 8.06 8.06 0 0 1 11.652-.262zm2.703-2.472c.51.509.99 1.09 1.408 1.697a.75.75 0 0 1-1.234.852 11 11 0 0 0-1.234-1.489c-4.08-4.08-10.696-4.08-14.776 0-.421.422-.84.934-1.222 1.484a.75.75 0 0 1-1.232-.855c.43-.62.904-1.2 1.394-1.69 4.666-4.665 12.23-4.665 16.896 0z" fill="currentColor"/></svg>