<svg xmlns="http://www.w3.org/2000/svg" xmlns:xlink="http://www.w3.org/1999/xlink" viewBox="0 0 24 24"><path d="M10.96 16.44a1.501 1.501 0 1 1 2.122 2.122 1.501 1.501 0 0 1-2.123-2.122zm-2.604-2.742a5.23 5.23 0 0 1 7.4 0c.46.461.838 1.025 1.101 1.625a1 1 0 1 1-1.832.803 3.4 3.4 0 0 0-.683-1.013 3.233 3.233 0 0 0-4.572 0 3.3 3.3 0 0 0-.672 1 1 1 0 1 1-1.832-.802 5.3 5.3 0 0 1 1.09-1.613M6.31 10.707a8.13 8.13 0 0 1 11.495 0 8.4 8.4 0 0 1 1.504 2.085 1 1 0 1 1-1.781.91 6.4 6.4 0 0 0-1.137-1.581 6.128 6.128 0 0 0-9.8 1.562 1 1 0 1 1-1.784-.902 8.1 8.1 0 0 1 1.503-2.074" fill="currentColor"/></svg>