<svg xmlns="http://www.w3.org/2000/svg" viewBox="0 0 24 24"><path fill="currentColor" d="M6.5 12a5.5 5.5 0 1 1 0 11 5.5 5.5 0 0 1 0-11m0 1.998a1.75 1.75 0 0 0-1.744 1.606l-.006.144v.781c-.395.102-.696.44-.743.854L4 17.498v2.5a1 1 0 0 0 .883.993l.117.007h3a1 1 0 0 0 .993-.884L9 19.998v-2.5a1 1 0 0 0-.644-.935l-.105-.034-.001-.781a1.75 1.75 0 0 0-1.75-1.75m9.256-.297c.46.46.838 1.024 1.101 1.624a1 1 0 0 1-1.832.803 3.22 3.22 0 0 0-2.943-1.96 6.5 6.5 0 0 0-1.556-1.772 5.23 5.23 0 0 1 5.23 1.305M6.5 14.998a.75.75 0 0 1 .743.648l.007.102v.75h-1.5v-.75a.75.75 0 0 1 .75-.75m11.305-4.289a8.4 8.4 0 0 1 1.503 2.085 1 1 0 0 1-1.78.91 6.4 6.4 0 0 0-1.137-1.58 6.13 6.13 0 0 0-7.742-.761 6.5 6.5 0 0 0-2.631-.346 8.13 8.13 0 0 1 11.787-.308M20.44 8.3c.508.509.987 1.088 1.404 1.692a1 1 0 0 1-1.646 1.136A9.915 9.915 0 0 0 5.003 9.715c-.4.399-.797.885-1.16 1.41a1 1 0 1 1-1.644-1.14c.428-.618.9-1.195 1.39-1.684 4.653-4.654 12.198-4.654 16.851 0z"/></svg>