<svg xmlns="http://www.w3.org/2000/svg" viewBox="0 0 16 16"><path fill="currentColor" d="M4.5 1.999a2.5 2.5 0 0 0-2.5 2.5v7.002a2.5 2.5 0 0 0 2.5 2.5h3.738a5.3 5.3 0 0 1-.63-1H4.5a1.5 1.5 0 0 1-1.5-1.5L3.001 5h10l.001.91c.331.255.663.42 1 .508V4.5a2.5 2.5 0 0 0-2.5-2.5zM3.086 4A1.5 1.5 0 0 1 4.5 3h7a1.5 1.5 0 0 1 1.414 1h-9.83zm10.916 3.442a3.5 3.5 0 0 1-1-.348 4.7 4.7 0 0 1-1.253-.984.334.334 0 0 0-.495 0c-.87.932-1.832 1.39-2.903 1.39-.193 0-.35.168-.35.375v2.251l.004.239q.05 1.542.746 2.636.356.56.878 1 .724.61 1.761.98c.072.026.15.026.222 0 2.24-.8 3.39-2.441 3.39-4.855v-2.25l-.008-.076a.36.36 0 0 0-.343-.3q-.33 0-.649-.058"/></svg>