<svg xmlns="http://www.w3.org/2000/svg" xmlns:xlink="http://www.w3.org/1999/xlink" viewBox="0 0 20 20"><path d="m2.854 2.146 15 15a.5.5 0 0 1-.708.708l-1.267-1.268A2.5 2.5 0 0 1 14.5 17h-9A2.5 2.5 0 0 1 3 14.5v-9c0-.51.152-.983.414-1.379L2.146 2.854a.5.5 0 1 1 .708-.708m11.853 13.268L11 11.707v.793a.5.5 0 0 1-.5.5h-4a.5.5 0 0 1-.5-.5v-4a.5.5 0 0 1 .5-.5h.793l-1-1H4.5v7.25c0 .69.56 1.25 1.25 1.25h8.5q.243-.001.457-.086M8.293 9H7v3h3v-1.293zm7.207 4.379V7H9.121L5.146 3.025Q5.32 3 5.5 3h9A2.5 2.5 0 0 1 17 5.5v9q0 .18-.025.354z" fill="currentColor"/></svg>