<svg xmlns="http://www.w3.org/2000/svg" viewBox="0 0 20 20"><path fill="currentColor" d="M5.498 3.001a2.5 2.5 0 0 0-2.5 2.5v9a2.5 2.5 0 0 0 2.5 2.5h9a2.5 2.5 0 0 0 2.5-2.5v-7.5H17v-1h-.002v-.5a2.5 2.5 0 0 0-2.5-2.5zm10.5 2.5v.5h-1.29l1.144-1.144c.093.195.146.413.146.644m-.851-1.353-1.853 1.853h-2.829l2-2h2.033c.232 0 .452.053.649.147m-4.096-.147-2 2H6.223l2-2zm-4.242 0-2 2h-.811v-.5a1.5 1.5 0 0 1 1.5-1.5zM3.998 8.226l1.225-1.225H8.05l-4.053 4.054zm5.467-1.225h2.829l-8.15 8.149a1.5 1.5 0 0 1-.146-.649v-2.032L9.465 7zm4.243 0h2.29v.539L7.537 16h-2.04c-.23 0-.449-.052-.644-.145L13.708 7zm2.29 1.953v2.829L11.779 16H8.951l7.047-7.047zm0 4.243V14.5a1.5 1.5 0 0 1-1.5 1.5h-1.305z"/></svg>