<svg xmlns="http://www.w3.org/2000/svg" viewBox="0 0 20 20"><path fill="currentColor" d="M3.003 5.753a2.75 2.75 0 0 1 2.75-2.75h8.5a2.75 2.75 0 0 1 2.75 2.75v2.859c-.513-.098-1.01-.33-1.5-.723V7h-11v7.253c0 .69.56 1.25 1.25 1.25h3.82a5.8 5.8 0 0 0 .964 1.5H5.753a2.75 2.75 0 0 1-2.75-2.75zm12.5 3.347a4.13 4.13 0 0 0 2.097.567c.194 0 .355.143.392.333l.008.084v2.5c0 2.683-1.313 4.506-3.873 5.395a.4.4 0 0 1-.253 0q-1.087-.377-1.87-.976a4.85 4.85 0 0 1-1.314-1.5q-.634-1.13-.685-2.653L10 12.585v-2.501c0-.23.18-.417.4-.417 1.224 0 2.324-.51 3.318-1.545a.39.39 0 0 1 .566 0q.584.61 1.219.978"/></svg>