<svg xmlns="http://www.w3.org/2000/svg" viewBox="0 0 24 24"><path fill="currentColor" d="m17.75 3 .184.005a3.25 3.25 0 0 1 3.062 3.06L21 6.25v6.36c-.687-.13-1.345-.501-1.995-1.18L19 11.425V8H5v9.75c0 .647.491 1.18 1.122 1.244L6.25 19h7.126a5.9 5.9 0 0 0 1.159 2H6.25a3.25 3.25 0 0 1-3.245-3.066L3 17.75V6.25a3.25 3.25 0 0 1 3.065-3.245L6.25 3zM19 12.764q.938.71 2 .86.295.043.6.043c.193 0 .355.143.392.332l.008.084v2.501c0 2.682-1.313 4.506-3.873 5.395a.4.4 0 0 1-.253 0A6.7 6.7 0 0 1 16 21a4.83 4.83 0 0 1-1.555-2q-.4-.954-.44-2.15L14 16.584v-2.5c0-.23.18-.417.4-.417 1.223 0 2.324-.51 3.318-1.545a.39.39 0 0 1 .566 0q.349.364.716.642"/></svg>