<svg xmlns="http://www.w3.org/2000/svg" xmlns:xlink="http://www.w3.org/1999/xlink" viewBox="0 0 16 16"><path d="M2 4.75A2.75 2.75 0 0 1 4.75 2h6.5A2.75 2.75 0 0 1 14 4.75v1.667c-.506-.134-1.002-.438-1.5-.967v-.451h-9v6.251c0 .69.56 1.25 1.25 1.25h2.644a5.4 5.4 0 0 0 .842 1.5H4.75A2.75 2.75 0 0 1 2 11.25zm10.5 2.032q.71.514 1.5.66.318.058.65.058c.17 0 .31.129.343.3l.007.075v2.25c0 2.415-1.149 4.056-3.39 4.856a.33.33 0 0 1-.22 0q-1.04-.372-1.763-.981a4.3 4.3 0 0 1-1.15-1.5q-.434-.931-.473-2.135L8 10.125v-2.25c0-.207.157-.375.35-.375 1.07 0 2.033-.458 2.903-1.39a.334.334 0 0 1 .495 0q.365.392.752.672" fill="currentColor"/></svg>