<svg xmlns="http://www.w3.org/2000/svg" xmlns:xlink="http://www.w3.org/1999/xlink" viewBox="0 0 24 24"><path d="M17.936 3.005 17.75 3H6.25l-.184.005A3.25 3.25 0 0 0 3 6.25v11.5l.005.184A3.25 3.25 0 0 0 6.25 21h8.285a5.8 5.8 0 0 1-.963-1.5H6.25l-.144-.006A1.75 1.75 0 0 1 4.5 17.75L4.501 8H19.5v3.886c.49.395.988.627 1.501.725V6.25l-.005-.184a3.25 3.25 0 0 0-3.06-3.06zM6.25 4.5h11.5c.966 0 1.75.784 1.75 1.75v.25h-15v-.25c0-.966.783-1.75 1.75-1.75M21 13.624a4.1 4.1 0 0 1-1.5-.526 5.6 5.6 0 0 1-1.217-.976.39.39 0 0 0-.566 0c-.994 1.036-2.094 1.545-3.317 1.545-.221 0-.4.186-.4.416v2.501l.004.266q.052 1.52.684 2.65.486.87 1.311 1.5.786.6 1.874.979a.4.4 0 0 0 .253 0c2.56-.89 3.874-2.713 3.874-5.395v-2.5l-.009-.085a.405.405 0 0 0-.391-.332q-.305 0-.6-.043" fill="currentColor"/></svg>