<svg xmlns="http://www.w3.org/2000/svg" viewBox="0 0 20 20"><path fill="currentColor" d="M17 12v-1.5a.6.6 0 0 0-.07-.273.37.37 0 0 0-.172-.149 1 1 0 0 0-.235-.062 2 2 0 0 0-.257-.016H16V5.117q.047-.101.133-.242t.164-.312q.078-.173.14-.32A.7.7 0 0 0 16.5 4a2 2 0 0 0-.07-.32 7 7 0 0 0-.157-.493l-.18-.5a6 6 0 0 1-.116-.343.57.57 0 0 0-.188-.25A.47.47 0 0 0 15.5 2h-2a.55.55 0 0 0-.297.102.46.46 0 0 0-.18.242 11 11 0 0 1-.125.351 14 14 0 0 0-.171.5q-.087.265-.157.493-.07.226-.07.312 0 .11.063.25.061.14.148.313a17 17 0 0 0 .289.554V10h-.266a2 2 0 0 0-.265.016.7.7 0 0 0-.235.07.44.44 0 0 0-.171.148.5.5 0 0 0-.063.266V12zm0 1h-5v2.555q0 .507.203.953t.547.781A2.5 2.5 0 0 0 14.5 18q.5 0 .953-.195a2.7 2.7 0 0 0 .797-.524 2.5 2.5 0 0 0 .547-.773 2.3 2.3 0 0 0 .203-.953zM5.78 2.126a.5.5 0 0 1 .22.415v3.457a1 1 0 0 0 2 0V2.541a.5.5 0 0 1 .688-.463A4.501 4.501 0 0 1 9 10.282v5.716a2 2 0 1 1-4 0v-5.716a4.5 4.5 0 0 1 .312-8.204.5.5 0 0 1 .467.048z"/></svg>