<svg xmlns="http://www.w3.org/2000/svg" viewBox="0 0 20 20"><path fill="currentColor" d="M17 15.555V10.5a.6.6 0 0 0-.07-.273.37.37 0 0 0-.172-.149 1 1 0 0 0-.235-.062 2 2 0 0 0-.257-.016H16V5.117q.047-.101.133-.242t.164-.312q.078-.173.14-.32A.7.7 0 0 0 16.5 4a2 2 0 0 0-.07-.32 7 7 0 0 0-.157-.493l-.18-.5a6 6 0 0 1-.116-.343.57.57 0 0 0-.188-.25A.47.47 0 0 0 15.5 2h-2a.55.55 0 0 0-.297.102.46.46 0 0 0-.18.242 11 11 0 0 1-.125.351 14 14 0 0 0-.171.5q-.087.265-.157.493-.07.226-.07.312 0 .11.063.25.061.14.148.313a17 17 0 0 0 .289.554V10h-.266a2 2 0 0 0-.265.016.7.7 0 0 0-.235.07.44.44 0 0 0-.171.148.5.5 0 0 0-.063.266v5.055q0 .507.203.953t.547.781A2.5 2.5 0 0 0 14.5 18q.5 0 .953-.195a2.7 2.7 0 0 0 .797-.524 2.5 2.5 0 0 0 .547-.773 2.3 2.3 0 0 0 .203-.953M15 10h-1V5a.5.5 0 0 0-.055-.227l-.406-.812.32-.961h1.282l.32.96-.406.813A.5.5 0 0 0 15 5zm-2 2v-1h3v1zm3 1v2.5a1.3 1.3 0 0 1-.117.578 1.6 1.6 0 0 1-.328.485A1.5 1.5 0 0 1 14.5 17a1.3 1.3 0 0 1-.578-.117A1.5 1.5 0 0 1 13 15.5V13zM6 2.542a.5.5 0 0 0-.688-.464A4.501 4.501 0 0 0 5 10.283V16a2 2 0 0 0 4 0v-5.716a4.5 4.5 0 0 0-.312-8.205.5.5 0 0 0-.688.464V6a1 1 0 1 1-2 0zm-2.5 3.71c0-1.19.593-2.24 1.5-2.874v2.62a2 2 0 1 0 4 0v-2.62a3.501 3.501 0 0 1-.688 6.119A.5.5 0 0 0 8 9.96V16a1 1 0 1 1-2 0V9.96a.5.5 0 0 0-.312-.463A3.5 3.5 0 0 1 3.5 6.25z"/></svg>