<svg xmlns="http://www.w3.org/2000/svg" viewBox="0 0 24 24"><path fill="none" stroke="currentColor" stroke-linecap="round" stroke-linejoin="round" stroke-width="2" d="m11 9 2.975-4.65Q14.895 3 16.352 3q1.185 0 2.054.858c.576.574.866 1.256.866 2.054q0 .883-.46 1.559L16 11.5l3.465 4.912q.535.69.535 1.613a2.92 2.92 0 0 1-.843 2.098q-.842.877-2.04.877-1.315 0-2.005-.87L11 14.433V17.5c0 .876-.313 1.69-.611 2.175C9.846 20.558 9.039 21 8 21c-.944 0-1.753-.327-2.271-.974Q5 19.127 5 17.646V6.275q0-1.402.74-2.313C6.252 3.321 7.087 3 8 3c.868 0 1.821.321 2.4.962.323.356.515.714.6 1.08.052.224 0 .643 0 1.26z"/></svg>