<svg xmlns="http://www.w3.org/2000/svg" viewBox="0 0 24 24"><g fill="none" stroke="currentColor" stroke-linecap="round" stroke-linejoin="round" stroke-width="2"><circle cx="12" cy="5" r="2"/><path d="M20 12.5v4.75a.7.7 0 0 1-.055.325.7.7 0 0 1-.348.366l-5.462 2.58a5 5 0 0 1-4.27 0l-5.462-2.58a.705.705 0 0 1-.401-.691L4 12.5"/><path d="m4.431 12.216 5.634-2.332a5.07 5.07 0 0 1 3.87 0l5.634 2.332a.692.692 0 0 1 .028 1.269l-5.462 2.543a5.06 5.06 0 0 1-4.27 0l-5.462-2.543a.691.691 0 0 1 .028-1.27zM12 7v6"/></g></svg>