<svg xmlns="http://www.w3.org/2000/svg" viewBox="0 0 24 24"><g fill="none" stroke="currentColor" stroke-linecap="round" stroke-linejoin="round" stroke-width="2"><circle cx="12" cy="12" r="3"/><path d="M12 2a3 3 0 0 1 3 3q0 .843-.776 2.64L13.5 9l1.76-1.893q.748-.9 1.27-1.205a2.97 2.97 0 0 1 4.07 1.099 3.01 3.01 0 0 1-1.09 4.098q-.561.326-1.846.535L15 12l2.4.326q1.492.217 2.11.576A3.01 3.01 0 0 1 20.6 17a2.97 2.97 0 0 1-4.07 1.098q-.522-.303-1.27-1.205L13.5 15l.724 1.36q.775 1.799.776 2.64a3 3 0 0 1-6 0q0-.843.776-2.64L10.5 15l-1.76 1.893q-.748.902-1.27 1.205A2.97 2.97 0 0 1 3.4 17a3.01 3.01 0 0 1 1.09-4.098q.561-.326 1.846-.536L9 12l-2.4-.325q-1.492-.217-2.11-.576A3.01 3.01 0 0 1 3.4 7a2.97 2.97 0 0 1 4.07-1.099q.522.304 1.27 1.205L10.5 9Q9 5.562 9 5a3 3 0 0 1 3-3"/></g></svg>