<svg xmlns="http://www.w3.org/2000/svg" xmlns:xlink="http://www.w3.org/1999/xlink" viewBox="0 0 24 24"><g fill="none" stroke="currentColor" stroke-width="2" stroke-linecap="round" stroke-linejoin="round"><rect x="4" y="4" width="16" height="16" rx="2"/><path d="M12 4v2.5a.5.5 0 0 1-.5.5 1.5 1.5 0 0 0 0 3 .5.5 0 0 1 .5.5V12m0 0v1.5a.5.5 0 0 0 .5.5 1.5 1.5 0 0 1 0 3 .5.5 0 0 0-.5.5V20m8-8h-2.5a.5.5 0 0 1-.5-.5 1.5 1.5 0 0 0-3 0 .5.5 0 0 1-.5.5H12m0 0h-1.5a.5.5 0 0 0-.5.5 1.5 1.5 0 0 1-3 0 .5.5 0 0 0-.5-.5H4"/></g></svg>