<svg xmlns="http://www.w3.org/2000/svg" xmlns:xlink="http://www.w3.org/1999/xlink" viewBox="0 0 24 24"><path opacity=".3" d="M5 19h14V5H5zm7-13c1.65 0 3 1.35 3 3s-1.35 3-3 3-3-1.35-3-3 1.35-3 3-3M6 16.47c0-2.5 3.97-3.58 6-3.58s6 1.08 6 3.58V18H6z" fill="currentColor"/><path d="M12 12c1.65 0 3-1.35 3-3s-1.35-3-3-3-3 1.35-3 3 1.35 3 3 3m0-4c.55 0 1 .45 1 1s-.45 1-1 1-1-.45-1-1 .45-1 1-1m7-5H5a2 2 0 0 0-2 2v14a2 2 0 0 0 2 2h14c1.1 0 2-.9 2-2V5c0-1.1-.9-2-2-2m0 16H5V5h14zm-1-2.53c0-2.5-3.97-3.58-6-3.58s-6 1.08-6 3.58V18h12zM8.31 16c.69-.56 2.38-1.12 3.69-1.12s3.01.56 3.69 1.12z" fill="currentColor"/></svg>