<svg xmlns="http://www.w3.org/2000/svg" xmlns:xlink="http://www.w3.org/1999/xlink" viewBox="0 0 24 24"><path opacity=".3" d="M13 4H6v16h12V9h-5zm3 7v2h-3v3.75c0 1.24-1.01 2.25-2.25 2.25S8.5 17.99 8.5 16.75s1.01-2.25 2.25-2.25c.46 0 .89.14 1.25.38V11z" fill="currentColor"/><path d="M14 2H6c-1.1 0-2 .9-2 2v16c0 1.1.9 2 2 2h12c1.1 0 2-.9 2-2V8zm4 18H6V4h7v5h5z" fill="currentColor"/><path d="M12 14.88a2.247 2.247 0 0 0-3.5 1.87c0 1.24 1.01 2.25 2.25 2.25S13 17.99 13 16.75V13h3v-2h-4z" fill="currentColor"/></svg>