<svg xmlns="http://www.w3.org/2000/svg" xmlns:xlink="http://www.w3.org/1999/xlink" viewBox="0 0 24 24"><path d="M3.23 13c-.64 0-1.13.59-.98 1.21.25 1.12.7 2.18 1.3 3.12.34.54 1.1.61 1.55.16.32-.32.4-.83.15-1.21-.49-.77-.85-1.62-1.05-2.54-.1-.44-.52-.74-.97-.74m1.86-6.49c-.45-.45-1.21-.38-1.55.16-.6.95-1.04 2-1.3 3.12-.13.62.35 1.21.99 1.21.45 0 .87-.3.97-.74.2-.92.56-1.77 1.05-2.54.24-.38.17-.89-.16-1.21M11 3.23c0-.64-.59-1.13-1.21-.98-1.12.25-2.18.7-3.12 1.3-.54.34-.61 1.1-.16 1.55.32.32.83.4 1.21.15.77-.49 1.62-.85 2.54-1.05.44-.1.74-.52.74-.97m6.33.31c-.95-.6-2-1.04-3.12-1.3a1.01 1.01 0 0 0-1.21.99c0 .45.3.87.74.97.92.2 1.77.56 2.54 1.05.38.24.89.17 1.21-.15.45-.46.38-1.22-.16-1.56m1.58 13.95c.45.45 1.21.38 1.55-.16.6-.95 1.04-2 1.3-3.12.14-.62-.35-1.21-.98-1.21-.45 0-.87.3-.97.74-.2.92-.56 1.77-1.05 2.54a.96.96 0 0 0 .15 1.21M20.77 11c.64 0 1.13-.59.98-1.21a9.8 9.8 0 0 0-1.3-3.12c-.34-.54-1.1-.61-1.55-.16-.32.32-.4.83-.15 1.21.49.77.85 1.62 1.05 2.54.1.44.52.74.97.74M13 20.77c0 .64.59 1.13 1.21.98a9.8 9.8 0 0 0 3.12-1.3c.54-.34.61-1.1.16-1.55-.32-.32-.83-.4-1.21-.15-.77.49-1.62.85-2.54 1.05-.44.1-.74.52-.74.97m-6.33-.31c.95.6 2 1.04 3.12 1.3.62.14 1.21-.35 1.21-.98 0-.45-.3-.87-.74-.97-.92-.2-1.77-.56-2.54-1.05a.986.986 0 0 0-1.21.15c-.45.45-.38 1.21.16 1.55" fill="currentColor"/><circle cx="12" cy="12" r="5" fill="currentColor"/></svg>