<svg xmlns="http://www.w3.org/2000/svg" xmlns:xlink="http://www.w3.org/1999/xlink" viewBox="0 0 24 24"><path d="m18.501 3.5-15 15.001 1.996 1.996 15-15z" fill="currentColor"/><circle opacity=".3" cx="7" cy="7" r="1" fill-rule="evenodd" fill="currentColor"/><circle opacity=".3" cx="17" cy="17" r="1" fill-rule="evenodd" fill="currentColor"/><path d="M17.003 14a3 3 0 1 1-.006 6 3 3 0 0 1 .006-6M17 16a1 1 0 1 0 0 2 1 1 0 0 0 0-2M7.003 4a3 3 0 1 1-.006 6 3 3 0 0 1 .006-6M7 6a1 1 0 1 0 0 2 1 1 0 0 0 0-2" fill="currentColor"/></svg>