<svg xmlns="http://www.w3.org/2000/svg" xmlns:xlink="http://www.w3.org/1999/xlink" viewBox="0 0 24 24"><path d="M17 6H8a2 2 0 0 0-2 2v11a2 2 0 0 0 2 2h11c1.1 0 2-.9 2-2v-9zm2 13H8V8h8.17L19 10.83z" fill="currentColor"/><path d="M9 9h6v2H9z" fill="currentColor"/><circle cx="13.5" cy="15.5" r="2.5" fill="currentColor"/><path opacity=".3" fill-rule="evenodd" clip-rule="evenodd" d="M19 10.83V19H8V8h8.17zM9 9h6v2H9zm4.5 9a2.5 2.5 0 1 0 0-5 2.5 2.5 0 0 0 0 5" fill="currentColor"/><path d="M2 4a2 2 0 0 1 2-2h10v2H4v10H2z" fill="currentColor"/></svg>