<svg version="1.1" xmlns="http://www.w3.org/2000/svg" xmlns:xlink="http://www.w3.org/1999/xlink" x="0" y="0" viewBox="0 0 512 512" enable-background="new 0 0 512 512" xml:space="preserve"><path d="M466 355.9H46c-7.7 0-14 6.3-14 14s6.3 14 14 14h420c7.7 0 14-6.3 14-14s-6.3-14-14-14m0 48H46c-7.7 0-14 6.3-14 14s6.3 14 14 14h420c7.7 0 14-6.3 14-14s-6.3-14-14-14M444.9 80.1H67.1C47.8 80.1 32 95.9 32 115.2V293c0 19.3 15.8 35.1 35.1 35.1h377.8c19.3 0 35.1-15.8 35.1-35.1V115.2c0-19.3-15.8-35.1-35.1-35.1M114 296.1H78c-7.7 0-14-6.3-14-14s6.3-14 14-14h36c7.7 0 14 6.3 14 14s-6.3 14-14 14m0-156H78c-7.7 0-14-6.3-14-14s6.3-14 14-14h36c7.7 0 14 6.3 14 14s-6.3 14-14 14m142 144c-44.1 0-80-35.9-80-80s35.9-80 80-80 80 35.9 80 80-35.9 80-80 80m178 12h-36c-7.7 0-14-6.3-14-14s6.3-14 14-14h36c7.7 0 14 6.3 14 14s-6.3 14-14 14m0-156h-36c-7.7 0-14-6.3-14-14s6.3-14 14-14h36c7.7 0 14 6.3 14 14s-6.3 14-14 14"/><circle cx="256" cy="206" r="53"/></svg>