<svg version="1.1" xmlns="http://www.w3.org/2000/svg" xmlns:xlink="http://www.w3.org/1999/xlink" x="0" y="0" viewBox="0 0 512 512" enable-background="new 0 0 512 512" xml:space="preserve"><path d="M352 280H160c-4.4 0-8-3.6-8-8v-32c0-4.4 3.6-8 8-8h192c4.4 0 8 3.6 8 8v32c0 4.4-3.6 8-8 8m26 82V150c0-12.1 9.9-22 22-22s22 9.9 22 22v212c0 12.1-9.9 22-22 22s-22-9.9-22-22m82-170h-12c-4.4 0-8 3.6-8 8v112c0 4.4 3.6 8 8 8h12c11 0 20-9 20-20v-88c0-11-9-20-20-20M134 362V150c0-12.1-9.9-22-22-22s-22 9.9-22 22v212c0 12.1 9.9 22 22 22s22-9.9 22-22M64 192H52c-11 0-20 9-20 20v88c0 11 9 20 20 20h12c4.4 0 8-3.6 8-8V200c0-4.4-3.6-8-8-8"/></svg>