<svg version="1.1" xmlns="http://www.w3.org/2000/svg" xmlns:xlink="http://www.w3.org/1999/xlink" x="0" y="0" viewBox="0 0 512 512" enable-background="new 0 0 512 512" xml:space="preserve"><path d="m475.9 246.2-79.4-79.4c-5.4-5.4-14.2-5.4-19.6 0l-.2.2c-5.4 5.4-5.4 14.2 0 19.6l54.9 54.9-161.8.5.5-161.8 54.9 54.9c5.4 5.4 14.2 5.4 19.6 0l.2-.2c5.4-5.4 5.4-14.2 0-19.6l-79.4-79.4c-5.4-5.4-14.2-5.4-19.6 0l-79.4 79.4c-5.4 5.4-5.4 14.2 0 19.6l.2.2c5.4 5.4 14.2 5.4 19.6 0l54.9-54.9.5 161.8-161.8-.5 54.9-54.9c5.4-5.4 5.4-14.2 0-19.6l-.2-.2c-5.4-5.4-14.2-5.4-19.6 0l-79.4 79.4c-5.4 5.4-5.4 14.2 0 19.6l79.4 79.4c5.4 5.4 14.2 5.4 19.6 0l.2-.2c5.4-5.4 5.4-14.2 0-19.6L80 270.5l161.8-.5-.5 161.8-54.9-54.9c-5.4-5.4-14.2-5.4-19.6 0l-.2.2c-5.4 5.4-5.4 14.2 0 19.6l79.4 79.4c5.4 5.4 14.2 5.4 19.6 0l79.4-79.4c5.4-5.4 5.4-14.2 0-19.6l-.2-.2c-5.4-5.4-14.2-5.4-19.6 0l-54.9 54.9-.5-161.8 161.8.5-54.9 54.9c-5.4 5.4-5.4 14.2 0 19.6l.2.2c5.4 5.4 14.2 5.4 19.6 0l79.4-79.4c5.5-5.4 5.5-14.2 0-19.6"/></svg>