<svg version="1.1" xmlns="http://www.w3.org/2000/svg" xmlns:xlink="http://www.w3.org/1999/xlink" x="0" y="0" viewBox="0 0 512 512" enable-background="new 0 0 512 512" xml:space="preserve"><path d="M64 199.9v208.2c0 4.4 3.5 7.9 7.9 7.9h96.2c4.4 0 7.9-3.5 7.9-7.9V199.9c0-4.4-3.5-7.9-7.9-7.9H71.9c-4.4 0-7.9 3.5-7.9 7.9M199.9 96c-4.4 0-7.9 3.5-7.9 7.9V416h120.1c4.4 0 7.9-3.5 7.9-7.9V103.9c0-4.4-3.5-7.9-7.9-7.9zm240.2 160h-96.2c-4.4 0-7.9 3.5-7.9 7.9v144.2c0 4.4 3.5 7.9 7.9 7.9h96.2c4.4 0 7.9-3.5 7.9-7.9V263.9c0-4.4-3.5-7.9-7.9-7.9"/></svg>