<svg version="1.1" xmlns="http://www.w3.org/2000/svg" xmlns:xlink="http://www.w3.org/1999/xlink" x="0" y="0" viewBox="0 0 512 512" enable-background="new 0 0 512 512" xml:space="preserve"><path d="M256 76c48.1 0 93.3 18.7 127.3 52.7S436 207.9 436 256s-18.7 93.3-52.7 127.3S304.1 436 256 436s-93.3-18.7-127.3-52.7S76 304.1 76 256s18.7-93.3 52.7-127.3S207.9 76 256 76m0-28C141.1 48 48 141.1 48 256s93.1 208 208 208 208-93.1 208-208S370.9 48 256 48"/><path d="M363.5 148.5C334.8 119.8 296.6 104 256 104s-78.8 15.8-107.5 44.5S104 215.4 104 256s15.8 78.8 44.5 107.5S215.4 408 256 408s78.8-15.8 107.5-44.5S408 296.6 408 256s-15.8-78.8-44.5-107.5"/></svg>