<svg version="1.1" xmlns="http://www.w3.org/2000/svg" xmlns:xlink="http://www.w3.org/1999/xlink" x="0" y="0" viewBox="0 0 512 512" enable-background="new 0 0 512 512" xml:space="preserve"><circle cx="144" cy="368" r="42"/><path d="M367.5 272h-223C91.2 272 48 315.2 48 368.5S91.2 464 144.5 464h223c53.3 0 96.5-42.2 96.5-95.5S420.8 272 367.5 272M144 432c-35.3 0-64-28.7-64-64s28.7-64 64-64 64 28.7 64 64-28.7 64-64 64"/><circle cx="368" cy="144" r="42"/><path d="M144.5 240h223c53.3 0 96.5-42.2 96.5-95.5S420.8 48 367.5 48h-223C91.2 48 48 91.2 48 144.5S91.2 240 144.5 240M368 80c35.3 0 64 28.7 64 64s-28.7 64-64 64-64-28.7-64-64 28.7-64 64-64"/></svg>