<svg version="1.1" xmlns="http://www.w3.org/2000/svg" xmlns:xlink="http://www.w3.org/1999/xlink" x="0" y="0" viewBox="0 0 512 512" enable-background="new 0 0 512 512" xml:space="preserve"><path d="M256 387c-8.5 0-15.4 6.9-15.4 15.4v46.2c0 8.5 6.9 15.4 15.4 15.4s15.4-6.9 15.4-15.4v-46.2c0-8.5-6.9-15.4-15.4-15.4m0-339c-8.5 0-15.4 6.9-15.4 15.4v46.2c0 8.5 6.9 15.4 15.4 15.4s15.4-6.9 15.4-15.4V63.4c0-8.5-6.9-15.4-15.4-15.4M125 256c0-8.5-6.9-15.4-15.4-15.4H63.4c-8.5 0-15.4 6.9-15.4 15.4s6.9 15.4 15.4 15.4h46.2c8.5 0 15.4-6.9 15.4-15.4m323.6-15.4h-46.2c-8.5 0-15.4 6.9-15.4 15.4s6.9 15.4 15.4 15.4h46.2c8.5 0 15.4-6.9 15.4-15.4s-6.9-15.4-15.4-15.4M152.5 344.1c-4.1 0-8 1.6-10.9 4.5l-32.7 32.7c-2.9 2.9-4.5 6.8-4.5 10.9s1.6 8 4.5 10.9 6.8 4.5 10.9 4.5 8-1.6 10.9-4.5l32.7-32.7c6-6 6-15.8 0-21.8-2.9-2.9-6.8-4.5-10.9-4.5m207-176.2c4.1 0 8-1.6 10.9-4.5l32.7-32.7c2.9-2.9 4.5-6.8 4.5-10.9s-1.6-8-4.5-10.9-6.8-4.5-10.9-4.5-8 1.6-10.9 4.5l-32.7 32.7c-2.9 2.9-4.5 6.8-4.5 10.9s1.6 8 4.5 10.9 6.8 4.5 10.9 4.5m-228.8-59c-2.9-2.9-6.8-4.5-10.9-4.5s-8 1.6-10.9 4.5-4.5 6.8-4.5 10.9 1.6 8 4.5 10.9l32.7 32.7c2.9 2.9 6.8 4.5 10.9 4.5s8-1.6 10.9-4.5 4.5-6.8 4.5-10.9-1.6-8-4.5-10.9zm239.7 239.7c-2.9-2.9-6.8-4.5-10.9-4.5s-8 1.6-10.9 4.5c-6 6-6 15.8 0 21.8l32.7 32.7c2.9 2.9 6.8 4.5 10.9 4.5s8-1.6 10.9-4.5 4.5-6.8 4.5-10.9-1.6-8-4.5-10.9zM256 160c-52.9 0-96 43.1-96 96s43.1 96 96 96 96-43.1 96-96-43.1-96-96-96"/></svg>