<svg version="1.1" xmlns="http://www.w3.org/2000/svg" xmlns:xlink="http://www.w3.org/1999/xlink" x="0" y="0" viewBox="0 0 512 512" enable-background="new 0 0 512 512" xml:space="preserve"><path d="M447.659 96H64.341C46.504 96 32 110.484 32 128.308v255.349C32 401.493 46.504 416 64.341 416h383.318C465.496 416 480 401.493 480 383.656V128.308C480 110.484 465.496 96 447.659 96M284.023 352h-56.048v-96l-42.04 53.878L143.913 256v96H87.869V160h56.044l42.022 67.98 42.04-67.98h56.048zm83.657 0-69.635-96h42v-96h56.043v96h42.027l-70.453 96z"/></svg>