<svg xmlns="http://www.w3.org/2000/svg" xml:space="preserve" viewBox="0 0 512 512"><path d="M32 96v320h448V96zm406 159.8c0 23.4-1.4 41.2-3.3 70.2s-16.8 49.4-51.7 52.6-83.8 3.5-127 3.4c-42.9.1-92-.1-127-3.4-34.9-3.2-49.7-23.6-51.7-52.6S74 279.2 74 255.8s.1-38.6 3.3-70.2 20.1-49.2 51.7-52.4 86-3.2 127-3.2 95.4 0 127 3.2 48.5 20.9 51.7 52.4c3.2 31.6 3.3 46.9 3.3 70.2"/><path d="M357.5 280.4v.7c0 16.3-10.1 25.9-23.6 25.9s-22.6-10.8-23.9-25.9c0 0-1.2-7.9-1.2-23.9s1.4-26 1.4-26c2.4-17 10.7-25.9 24.2-25.9 13.4 0 24.1 11.6 24.1 29.2v.5h45.1c0-21.9-5.5-41.6-16.6-54-11-12.4-27.5-18.6-49.3-18.6-10.9 0-20.9 1.4-30 4.3s-17 7.9-23.6 15.1-11.7 16.8-15.4 28.9c-3.6 12.1-5.5 27.3-5.5 45.7 0 18 1.5 33 4.4 45.1 3 12.1 7.3 21.7 13.1 28.9s13.1 12.2 21.8 15q13.2 4.2 30.9 4.2c25 0 43-6.4 53.8-18.7s16.2-30.3 16.2-53.9h-46.1c.2 0 .2 2.5.2 3.4m-154.9 0v.7c0 16.3-10.1 25.9-23.6 25.9s-22.6-10.8-23.9-25.9c0 0-1.2-7.9-1.2-23.9s1.4-26 1.4-26c2.4-17 10.7-25.9 24.2-25.9 13.4 0 24.1 11.6 24.1 29.2v.5h45.1c0-21.9-5.5-41.6-16.6-54-11-12.4-27.5-18.6-49.3-18.6-10.9 0-20.9 1.4-30 4.3s-17 7.9-23.6 15.1-11.7 16.8-15.4 28.9c-3.6 12.1-5.5 27.3-5.5 45.7 0 18 1.5 33 4.4 45.1 3 12.1 7.3 21.7 13.1 28.9s13.1 12.2 21.8 15q13.2 4.2 30.9 4.2c25 0 43-6.4 53.8-18.7s16.2-30.3 16.2-53.9h-46.1c.2 0 .2 2.5.2 3.4"/></svg>