<svg version="1.1" xmlns="http://www.w3.org/2000/svg" xmlns:xlink="http://www.w3.org/1999/xlink" x="0" y="0" viewBox="0 0 512 512" enable-background="new 0 0 512 512" xml:space="preserve"><path d="M261 149.3V64H48v384h416V149.3zm-127.8 256H90.6v-42.7h42.6zm0-85.3H90.6v-42.7h42.6zm0-85.3H90.6V192h42.6zm0-85.4H90.6v-42.7h42.6zm85.2 256h-42.6v-42.7h42.6zm0-85.3h-42.6v-42.7h42.6zm0-85.3h-42.6V192h42.6zm0-85.4h-42.6v-42.7h42.6zm203 256H261v-42.7h42.6V320H261v-42.7h42.6v-42.7H261V192h160.4zm-37.6-170.6h-42.6v42.7h42.6zm0 85.3h-42.6v42.7h42.6z"/></svg>