<svg version="1.1" xmlns="http://www.w3.org/2000/svg" xmlns:xlink="http://www.w3.org/1999/xlink" x="0" y="0" viewBox="0 0 512 512" enable-background="new 0 0 512 512" xml:space="preserve"><path d="M32 96v256h448V96zm160.5 224h-80.4c0-26.6-21.5-48.1-48.1-48.1V192c35.3 0 64-28.7 64-64h64.5c-19.9 23.5-32.5 57.8-32.5 96s12.6 72.5 32.5 96M448 271.9c-26 0-48 21.5-48 48.1h-80.5c19.9-23.5 32.5-57.8 32.5-96s-12.6-72.5-32.5-96H384c0 35.3 28.7 64 64 64z"/><rect x="32" y="384" width="448" height="32"/></svg>