<svg xmlns="http://www.w3.org/2000/svg" xml:space="preserve" viewBox="0 0 512 512"><path d="M403.1 108.9c-81.2-81.2-212.9-81.2-294.2 0s-81.2 212.9 0 294.2c81.2 81.2 212.9 81.2 294.2 0 81.2-81.2 81.2-213 0-294.2m-16.5 53.2c7.6-4.4 17.5-1.8 21.9 5.9 4.4 7.6 1.8 17.5-5.9 21.9-7.6 4.4-17.5 1.8-21.9-5.9-4.4-7.6-1.8-17.5 5.9-21.9M80 256c0-8.8 7.2-16 16-16s16 7.2 16 16-7.2 16-16 16-16-7.2-16-16m45.4 93.9c-7.6 4.4-17.5 1.8-21.9-5.9-4.4-7.6-1.8-17.5 5.9-21.9 7.6-4.4 17.5-1.8 21.9 5.9 4.4 7.6 1.8 17.5-5.9 21.9m5.9-165.9c-4.4 7.6-14.2 10.3-21.9 5.9-7.6-4.4-10.3-14.2-5.9-21.9 4.4-7.6 14.2-10.3 21.9-5.9s10.3 14.3 5.9 21.9m36.7-80.4c7.6-4.4 17.5-1.8 21.9 5.9 4.4 7.6 1.8 17.5-5.9 21.9s-17.5 1.8-21.9-5.9-1.7-17.5 5.9-21.9m-7.8 110.7 15.6-26.6 95.2 56.9V384h-31V260.6zm29.7 188.3c-4.4 7.6-14.2 10.3-21.9 5.9s-10.3-14.2-5.9-21.9c4.4-7.6 14.2-10.3 21.9-5.9 7.6 4.4 10.3 14.2 5.9 21.9M256 432c-8.8 0-16-7.2-16-16s7.2-16 16-16 16 7.2 16 16-7.2 16-16 16m0-320c-8.8 0-16-7.2-16-16s7.2-16 16-16 16 7.2 16 16-7.2 16-16 16m88 296.4c-7.6 4.4-17.5 1.8-21.9-5.9-4.4-7.6-1.8-17.5 5.9-21.9 7.6-4.4 17.5-1.8 21.9 5.9s1.7 17.5-5.9 21.9m5.9-283c-4.4 7.6-14.2 10.3-21.9 5.9s-10.3-14.2-5.9-21.9c4.4-7.6 14.2-10.3 21.9-5.9s10.3 14.3 5.9 21.9M408.4 344c-4.4 7.6-14.2 10.3-21.9 5.9-7.6-4.4-10.3-14.2-5.9-21.9 4.4-7.6 14.2-10.3 21.9-5.9s10.3 14.3 5.9 21.9m7.6-72c-8.8 0-16-7.2-16-16s7.2-16 16-16 16 7.2 16 16-7.2 16-16 16"/></svg>