<svg version="1.1" xmlns="http://www.w3.org/2000/svg" xmlns:xlink="http://www.w3.org/1999/xlink" x="0" y="0" viewBox="0 0 512 512" enable-background="new 0 0 512 512" xml:space="preserve"><rect x="128" y="176" width="256" height="128"/><path d="M448 96H64c-8.8 0-16 7.2-16 16v256c0 8.8 6.9 16 15.8 16H448c8.8 0 16-7.2 16-16V112c0-8.8-7.2-16-16-16m-32 240H96V144h320z"/><polygon points="80 464 137 464 159.5 400 103.1 400"/><polygon points="279.4 48 232.6 48 221.1 80 290.9 80"/><polygon points="375 464 432 464 409 400 352.5 400"/><rect x="232" y="400" width="48" height="32"/></svg>