<svg xmlns="http://www.w3.org/2000/svg" xml:space="preserve" viewBox="0 0 512 512"><path d="M256 48C140.563 48 48 141.6 48 256s92.563 208 208 208 208-93.6 208-208S370.401 48 256 48m0 374.4c-91.518 0-166.404-74.883-166.404-166.4S164.483 89.6 256 89.6 422.404 164.482 422.404 256 347.518 422.4 256 422.4m72.8-187.2c17.683 0 31.201-13.518 31.201-31.2s-13.519-31.2-31.201-31.2-31.2 13.518-31.2 31.2 13.518 31.2 31.2 31.2m-145.6 0c17.682 0 31.2-13.518 31.2-31.2s-13.519-31.2-31.2-31.2c-17.683 0-31.201 13.518-31.201 31.2s13.519 31.2 31.201 31.2M256 370.4c48.883 0 89.436-30.164 106.081-72.801H149.919C166.564 340.236 207.117 370.4 256 370.4"/></svg>