<svg version="1.1" xmlns="http://www.w3.org/2000/svg" xmlns:xlink="http://www.w3.org/1999/xlink" x="0" y="0" viewBox="0 0 512 512" enable-background="new 0 0 512 512" xml:space="preserve"><path d="M376 186h-20v-40c0-55-45-100-100-100S156 91 156 146v40h-20c-22.002 0-40 17.998-40 40v200c0 22.002 17.998 40 40 40h240c22.002 0 40-17.998 40-40V226c0-22.002-17.998-40-40-40M256 368c-22.002 0-40-17.998-40-40s17.998-40 40-40 40 17.998 40 40-17.998 40-40 40m62.002-182H193.998v-40c0-34.004 28.003-62.002 62.002-62.002 34.004 0 62.002 27.998 62.002 62.002z"/></svg>