<svg xmlns="http://www.w3.org/2000/svg" xml:space="preserve" viewBox="0 0 512 512"><path d="M32 384h272v32H32zm368 0h80v32h-80zm-16 63.5c0 17.949-14.327 32.5-32 32.5s-32-14.551-32-32.5v-95c0-17.949 14.327-32.5 32-32.5s32 14.551 32 32.5zM32 240h80v32H32zm176 0h272v32H208zm-16 63.5c0 17.949-14.327 32.5-32 32.5s-32-14.551-32-32.5v-95c0-17.949 14.327-32.5 32-32.5s32 14.551 32 32.5zM32 96h272v32H32zm368 0h80v32h-80zm-16 63.5c0 17.949-14.327 32.5-32 32.5s-32-14.551-32-32.5v-95c0-17.949 14.327-32.5 32-32.5s32 14.551 32 32.5z"/></svg>