<svg version="1.1" xmlns="http://www.w3.org/2000/svg" xmlns:xlink="http://www.w3.org/1999/xlink" x="0" y="0" viewBox="0 0 512 512" enable-background="new 0 0 512 512" xml:space="preserve"><rect x="32" y="384" width="272" height="32"/><rect x="400" y="384" width="80" height="32"/><path d="M384 447.5c0 17.949-14.327 32.5-32 32.5s-32-14.551-32-32.5v-95c0-17.949 14.327-32.5 32-32.5s32 14.551 32 32.5z"/><rect x="32" y="240" width="80" height="32"/><rect x="208" y="240" width="272" height="32"/><path d="M192 303.5c0 17.949-14.327 32.5-32 32.5s-32-14.551-32-32.5v-95c0-17.949 14.327-32.5 32-32.5s32 14.551 32 32.5z"/><rect x="32" y="96" width="272" height="32"/><rect x="400" y="96" width="80" height="32"/><path d="M384 159.5c0 17.949-14.327 32.5-32 32.5s-32-14.551-32-32.5v-95c0-17.949 14.327-32.5 32-32.5s32 14.551 32 32.5z"/></svg>