<svg version="1.1" xmlns="http://www.w3.org/2000/svg" xmlns:xlink="http://www.w3.org/1999/xlink" x="0" y="0" viewBox="0 0 512 512" enable-background="new 0 0 512 512" xml:space="preserve"><path d="M277.3 32h-42.7v64h42.7zm129.1 43.7L368 114.1l29.9 29.9 38.4-38.4zm-300.8 0-29.9 29.9 38.4 38.4 29.9-29.9zM256 128c-70.4 0-128 57.6-128 128s57.6 128 128 128 128-57.6 128-128-57.6-128-128-128m224 106.7h-64v42.7h64zm-384 0H32v42.7h64zM397.9 368 368 397.9l38.4 38.4 29.9-29.9zm-283.8 0-38.4 38.4 29.9 29.9 38.4-38.4zm163.2 48h-42.7v64h42.7z"/></svg>