<svg version="1.1" xmlns="http://www.w3.org/2000/svg" xmlns:xlink="http://www.w3.org/1999/xlink" x="0" y="0" viewBox="0 0 512 512" enable-background="new 0 0 512 512" xml:space="preserve"><path d="M256 48c-93.864 0-176 10.668-176 85.334v213.332c0 41.604 33.062 74.666 74.667 74.666L128 448v16h256v-16l-26.667-26.668c41.604 0 74.667-33.062 74.667-74.666V133.334C432 58.668 349.864 48 256 48m-96 336c-18.136 0-32-13.865-32-32 0-18.137 13.864-32 32-32s32 13.863 32 32c0 18.135-13.864 32-32 32m80-144H128v-96h112zm112 144c-18.136 0-32-13.865-32-32 0-18.137 13.864-32 32-32s32 13.863 32 32c0 18.135-13.864 32-32 32m32-144H272v-96h112z"/></svg>