<svg xmlns="http://www.w3.org/2000/svg" xmlns:xlink="http://www.w3.org/1999/xlink" viewBox="0 0 32 32"><path d="M16 16h2v2h-2zm2 2h2v2h-2zm2 2h2v2h-2zm0-4h2v2h-2zm-4 4h2v2h-2zm4-8a3.9 3.9 0 0 1-4-3.777 3.9 3.9 0 0 1 .653-2.064l2.517-3.745a1.038 1.038 0 0 1 1.66 0l2.485 3.696A3.97 3.97 0 0 1 24 8.223 3.9 3.9 0 0 1 20 12m0-7.237-1.656 2.463a1.9 1.9 0 0 0-.344.997A1.9 1.9 0 0 0 20 10a1.9 1.9 0 0 0 2-1.777 2 2 0 0 0-.375-1.047z" fill="currentColor"/><path d="M28 4a2 2 0 0 0-2 2v20H6V10h2v8l1 2 1-2v-8h2v4l1 2 1-2V8H6V6a2 2 0 0 0-2-2H2v2h2v20a2 2 0 0 0 2 2h20a2 2 0 0 0 2-2V6h2V4z" fill="currentColor"/></svg>