<svg xmlns="http://www.w3.org/2000/svg" viewBox="0 0 32 32"><path fill="currentColor" d="M11 24h10v2H11zm2 4h6v2h-6zm-2.185-9.86A7.19 7.19 0 0 1 8 12a8.01 8.01 0 0 1 8-8V2A10.01 10.01 0 0 0 6 12a9.18 9.18 0 0 0 3.46 7.616C10.472 20.551 11 21.081 11 22h2c0-1.84-1.11-2.866-2.185-3.86M20 2h2v7h-2zm1 9a1.5 1.5 0 1 0 1.5 1.5A1.5 1.5 0 0 0 21 11m5-9h2v7h-2zm1 9a1.5 1.5 0 1 0 1.5 1.5A1.5 1.5 0 0 0 27 11m-3.96 5a9.5 9.5 0 0 1-1.862 2.143C20.107 19.135 19 20.16 19 22h2c0-.92.526-1.45 1.535-2.386A10 10 0 0 0 25.275 16z"/></svg>