<svg xmlns="http://www.w3.org/2000/svg" xmlns:xlink="http://www.w3.org/1999/xlink" viewBox="0 0 32 32"><path d="M11 24h10v2H11zm2 4h6v2h-6zm-2.185-9.86A7.19 7.19 0 0 1 8 12a8.01 8.01 0 0 1 8-8V2A10.01 10.01 0 0 0 6 12a9.18 9.18 0 0 0 3.46 7.616C10.472 20.551 11 21.081 11 22h2c0-1.84-1.11-2.866-2.185-3.86M23.04 16a9.5 9.5 0 0 1-1.862 2.143C20.107 19.135 19 20.16 19 22h2c0-.92.526-1.45 1.535-2.386A10 10 0 0 0 25.275 16zM30 8a6 6 0 1 0-6 6 6.007 6.007 0 0 0 6-6m-2 0a3.95 3.95 0 0 1-.567 2.019l-5.452-5.452A3.95 3.95 0 0 1 24 4a4.005 4.005 0 0 1 4 4m-8 0a3.95 3.95 0 0 1 .567-2.019l5.452 5.452A3.95 3.95 0 0 1 24 12a4.005 4.005 0 0 1-4-4" fill="currentColor"/></svg>