<svg xmlns="http://www.w3.org/2000/svg" xmlns:xlink="http://www.w3.org/1999/xlink" viewBox="0 0 32 32"><path d="M11 24h10v2H11zm2 4h6v2h-6zm10.04-12a9.5 9.5 0 0 1-1.862 2.143C20.107 19.135 19 20.16 19 22h2c0-.92.526-1.45 1.535-2.386A10 10 0 0 0 25.275 16zM20 14a1 1 0 0 1-.894-.553L17.381 10H14V8h4a1 1 0 0 1 .894.553L20 10.763l3.106-6.21a1.042 1.042 0 0 1 1.788 0L26.619 8H30v2h-4a1 1 0 0 1-.894-.553L24 7.237l-3.106 6.21A1 1 0 0 1 20 14" fill="currentColor"/><path d="M10.815 18.14A7.19 7.19 0 0 1 8 12a8.01 8.01 0 0 1 8-8V2A10.01 10.01 0 0 0 6 12a9.18 9.18 0 0 0 3.46 7.616C10.472 20.551 11 21.081 11 22h2c0-1.84-1.11-2.866-2.185-3.86" fill="currentColor"/></svg>