<svg xmlns="http://www.w3.org/2000/svg" xmlns:xlink="http://www.w3.org/1999/xlink" viewBox="0 0 32 32"><path d="M11 24h10v2H11zm2 4h6v2h-6zm-2.185-9.86A7.19 7.19 0 0 1 8 12a8.01 8.01 0 0 1 8-8V2A10.01 10.01 0 0 0 6 12a9.18 9.18 0 0 0 3.46 7.616C10.472 20.551 11 21.081 11 22h2c0-1.84-1.11-2.866-2.185-3.86M23.8 14a7.28 7.28 0 0 1-2.622 4.143C20.107 19.135 19 20.16 19 22h2c0-.92.526-1.45 1.535-2.386A9.14 9.14 0 0 0 25.84 14zM30 3.41 28.59 2 25 5.59 21.41 2 20 3.41 23.59 7 20 10.59 21.41 12 25 8.41 28.59 12 30 10.59 26.41 7z" fill="currentColor"/></svg>