<svg xmlns="http://www.w3.org/2000/svg" xmlns:xlink="http://www.w3.org/1999/xlink" viewBox="0 0 32 32"><path d="M11 24h10v2H11zm2 4h6v2h-6zm-2.185-9.86A7.19 7.19 0 0 1 8 12a8.01 8.01 0 0 1 8-8V2A10.01 10.01 0 0 0 6 12a9.18 9.18 0 0 0 3.46 7.616C10.472 20.551 11 21.081 11 22h2c0-1.84-1.11-2.866-2.185-3.86m10.363.003C20.107 19.135 19 20.16 19 22h2c0-.92.526-1.45 1.535-2.386A9.2 9.2 0 0 0 26 12h-2a7.2 7.2 0 0 1-2.822 6.143" fill="currentColor"/><circle cx="18.5" cy="7.5" r="1.5" fill="currentColor"/><circle cx="28.5" cy="7.5" r="1.5" fill="currentColor"/><circle cx="23.5" cy="7.5" r="1.5" fill="currentColor"/></svg>