<svg xmlns="http://www.w3.org/2000/svg" xmlns:xlink="http://www.w3.org/1999/xlink" viewBox="0 0 32 32"><path d="M16 2a14 14 0 1 0 14 14A14 14 0 0 0 16 2m11.84 12.14L22 17.52V5.62a12 12 0 0 1 5.84 8.52M12 18.68v-5.36L16 11l4 2.31v5.36L16 21zm8-14V11l-9.66-5.58A11.9 11.9 0 0 1 20 4.7zm-11.52 2L14 9.85 4 15.62a12 12 0 0 1 4.48-8.96zM4.16 17.85 10 14.47v11.91a12 12 0 0 1-5.84-8.53M12 27.3V21l9.67 5.58A11.9 11.9 0 0 1 16 28a12 12 0 0 1-4-.7m11.52-2L18 22.14l10-5.77a12 12 0 0 1-4.48 8.97z" fill="currentColor"/></svg>