<svg xmlns="http://www.w3.org/2000/svg" xmlns:xlink="http://www.w3.org/1999/xlink" viewBox="0 0 32 32"><circle cx="6" cy="26" r="2" fill="currentColor"/><path d="M28 18h-3v-2a2 2 0 0 0-2-2h-4a2 2 0 0 0-2 2v2h-3a2 2 0 0 0-2 2v8a2 2 0 0 0 2 2h14a2 2 0 0 0 2-2v-8a2 2 0 0 0-2-2m-9-2h4v2h-4zm9 12H14v-8h14z" fill="currentColor"/><path d="M10 6h4v6h2V6h4v6h2V6h4v6h2V6.005A2.005 2.005 0 0 0 25.995 4H4.005A2.005 2.005 0 0 0 2 6.005v13.99A2.005 2.005 0 0 0 4.005 22H10zM8 20H4V6h4z" fill="currentColor"/></svg>