<svg xmlns="http://www.w3.org/2000/svg" viewBox="0 0 32 32"><path fill="currentColor" d="M16 2a14 14 0 1 0 14 14A14.016 14.016 0 0 0 16 2m11.95 13h-5.91a14.4 14.4 0 0 1 2.738-7.153A11.94 11.94 0 0 1 27.95 15M17 15V4.05a11.9 11.9 0 0 1 6.287 2.438A16.27 16.27 0 0 0 20.04 15zm-2 0h-3.04a16.27 16.27 0 0 0-3.247-8.512A11.9 11.9 0 0 1 15 4.051zm0 2v10.95a11.9 11.9 0 0 1-6.287-2.438A16.27 16.27 0 0 0 11.96 17zm2 0h3.04a16.27 16.27 0 0 0 3.248 8.512A11.9 11.9 0 0 1 17 27.949zM7.22 7.847A14.4 14.4 0 0 1 9.96 15H4.051a11.94 11.94 0 0 1 3.17-7.153zM4.05 17h5.91a14.4 14.4 0 0 1-2.738 7.153A11.94 11.94 0 0 1 4.05 17m20.73 7.153A14.4 14.4 0 0 1 22.04 17h5.908a11.94 11.94 0 0 1-3.17 7.153z"/></svg>