<svg xmlns="http://www.w3.org/2000/svg" viewBox="0 0 32 32"><path fill="currentColor" d="m21.87 7.84-1.74-1L16 14a2 2 0 1 0 2 2 2 2 0 0 0-.27-1z"/><path fill="currentColor" d="M16 2a14 14 0 1 0 14 14A14 14 0 0 0 16 2m0 2a12 12 0 0 1 11.17 7.65 26 26 0 0 0-3.69-1.5l-1 1.77a22.7 22.7 0 0 1 5.41 2.39 11 11 0 0 1 0 3.38A22.9 22.9 0 0 1 16 21a22.9 22.9 0 0 1-11.87-3.31 11 11 0 0 1 0-3.38A22.8 22.8 0 0 1 15 11V9a25 25 0 0 0-10.17 2.6A12 12 0 0 1 16 4m0 24a12 12 0 0 1-11.17-7.65A24.9 24.9 0 0 0 16 23a24.9 24.9 0 0 0 11.17-2.65A12 12 0 0 1 16 28"/></svg>