<svg xmlns="http://www.w3.org/2000/svg" viewBox="0 0 32 32"><path fill="currentColor" d="M28.828 3.172a4.094 4.094 0 0 0-5.656 0L4.05 22.292A6.95 6.95 0 0 0 2 27.242V30h2.756a6.95 6.95 0 0 0 4.95-2.05L28.828 8.829a4 4 0 0 0 0-5.657M10.91 18.26l2.829 2.829-2.122 2.121-2.828-2.828zm-2.619 8.276A4.97 4.97 0 0 1 4.756 28H4v-.759a4.97 4.97 0 0 1 1.464-3.535l1.91-1.91 2.829 2.828zM27.415 7.414l-12.261 12.26-2.829-2.828 12.262-12.26a2.047 2.047 0 0 1 2.828 0 2 2 0 0 1 0 2.828M6.5 15a3.5 3.5 0 0 1-2.475-5.974l3.5-3.5a1.5 1.5 0 0 0 0-2.121 1.537 1.537 0 0 0-2.121 0L3.415 5.394 2 3.98l1.99-1.988a3.585 3.585 0 0 1 4.95 0 3.504 3.504 0 0 1 0 4.949L5.439 10.44a1.5 1.5 0 0 0 0 2.121 1.537 1.537 0 0 0 2.122 0l4.024-4.024L13 9.95l-4.025 4.024A3.48 3.48 0 0 1 6.5 15"/></svg>