<svg xmlns="http://www.w3.org/2000/svg" viewBox="0 0 32 32"><path fill="currentColor" d="m29.976 15.783-2-9a1 1 0 0 0-.421-.615l-6-4A1 1 0 0 0 21 2H11a1 1 0 0 0-.555.168l-6 4a1 1 0 0 0-.421.615l-2 9a1 1 0 0 0 .018.504l3 10a1 1 0 0 0 .67.671l10 3h.006a1 1 0 0 0 .564 0h.005l10-3a1 1 0 0 0 .671-.67l3-10a1 1 0 0 0 .018-.505m-19.05.833-3.91-7.819 7.282 2.648zM16 12.497 19.589 18H12.41zM19.382 20 16 26.764 12.618 20zm-1.68-8.555 7.281-2.648-3.91 7.82zm.488-2.305 3.096-4.747 3.515 2.343zM16 8.836 12.846 4h6.308zm-2.19.304L7.2 6.736l3.514-2.343zm-4.844 8.03-4.802-1.801 1.201-5.402zm5.104 10.207-6.502-1.95 3.128-4.798zm7.233-6.748 3.129 4.797-6.502 1.951zm5.332-10.662 1.2 5.402-4.802 1.8zM4.537 17.645l4.595 1.722-2.793 4.283zm21.124 6.005-2.793-4.283 4.595-1.722z"/></svg>