<svg xmlns="http://www.w3.org/2000/svg" viewBox="0 0 32 32"><path fill="currentColor" d="M4 30v-4h11v4h2v-4h11v4h2v-4a2 2 0 0 0-2-2H17v-5h-2v5H4a2 2 0 0 0-2 2v4zm16.695-16.014A10.1 10.1 0 0 0 21.946 10H23V8h-3v1a9.3 9.3 0 0 1-.664 3.27L16.65 8.883a5.13 5.13 0 0 0 2.144-2.37 3.25 3.25 0 0 0-.189-2.702 3.38 3.38 0 0 0-2.239-1.706 3.47 3.47 0 0 0-4.222 2.119c-.505 1.552.44 3.116 1.261 4.108a4.73 4.73 0 0 0-2.346 4.828A4.45 4.45 0 0 0 15.427 17h.006a5.78 5.78 0 0 0 3.971-1.423L20.532 17h2.552zM14.047 4.84A1.32 1.32 0 0 1 15.414 4a2.4 2.4 0 0 1 .521.058 1.4 1.4 0 0 1 .912.702 1.25 1.25 0 0 1 .079 1.042 3.7 3.7 0 0 1-1.682 1.593c-.66-.713-1.435-1.822-1.197-2.554zM15.432 15h-.004a2.44 2.44 0 0 1-2.392-2.15 2.826 2.826 0 0 1 1.81-3.026l3.312 4.179a3.9 3.9 0 0 1-2.726.997"/></svg>