<svg xmlns="http://www.w3.org/2000/svg" xmlns:xlink="http://www.w3.org/1999/xlink" viewBox="0 0 32 32"><path d="m4.586 28 7.178-5.998 7.994 1.938a2.02 2.02 0 0 0 1.314-.12L28 20.58l-.848-1.812-6.916 3.229-7.994-1.938a2 2 0 0 0-1.74.384L4 25.882V20.49l7.764-6.488 7.994 1.938a2.02 2.02 0 0 0 1.314-.12L28 12.58l-.847-1.812-6.918 3.229-7.994-1.938a2 2 0 0 0-1.74.384L4 17.882V12.49l7.764-6.488 7.994 1.938a2.02 2.02 0 0 0 1.314-.12L28 4.585l-.846-1.812-6.918 3.224-7.994-1.938a2 2 0 0 0-1.74.384L4 9.882V2H2v26a2 2 0 0 0 2 2h26v-2z" fill="currentColor"/></svg>