<svg xmlns="http://www.w3.org/2000/svg" xmlns:xlink="http://www.w3.org/1999/xlink" viewBox="0 0 32 32"><path d="M30 30H4a2 2 0 0 1-2-2V2h2v26h26z" fill="currentColor"/><circle cx="9" cy="6" r="3" fill="currentColor"/><circle cx="9" cy="22" r="3" fill="currentColor"/><circle cx="18" cy="14" r="3" fill="currentColor"/><path d="M9 17a3 3 0 1 1 3-3 3.003 3.003 0 0 1-3 3m0-4a1 1 0 1 0 1 1 1 1 0 0 0-1-1" fill="currentColor"/><circle cx="27" cy="6" r="3" fill="currentColor"/><circle cx="27" cy="22" r="3" fill="currentColor"/><path d="M27 17a3 3 0 1 1 3-3 3.003 3.003 0 0 1-3 3m0-4a1 1 0 1 0 1 1 1 1 0 0 0-1-1m-9 13a3 3 0 1 1 3-3 3.003 3.003 0 0 1-3 3m0-4a1 1 0 1 0 1 1 1 1 0 0 0-1-1m0-14a3 3 0 1 1 3-3 3.003 3.003 0 0 1-3 3m0-4a1 1 0 1 0 1 1 1 1 0 0 0-1-1" fill="currentColor"/></svg>