<svg xmlns="http://www.w3.org/2000/svg" viewBox="0 0 32 32"><path fill="currentColor" d="m12.433 20.017 8.037 4.68a1.96 1.96 0 0 0 1.051.301 2.2 2.2 0 0 0 .489-.055l7.253-1.977A1 1 0 0 0 30 22V7.996a1 1 0 0 0-1.26-.966l-7.237 1.953-8.037-4.68a1.99 1.99 0 0 0-1.865-.135L4 7.473V2H2v26a2 2 0 0 0 2 2h26v-2H4v-4.342zM28 21.234l-6.497 1.75-8.037-4.68a2 2 0 0 0-1.865-.135L4 21.475v-4.818l8.433-3.641 8.037 4.68a1.96 1.96 0 0 0 1.05.302 2.2 2.2 0 0 0 .49-.056L28 16.31zM12.433 6.016l8.037 4.68a2 2 0 0 0 1.54.245L28 9.308v4.926l-6.497 1.75-8.037-4.68a1.99 1.99 0 0 0-1.865-.136L4 14.474V9.656z"/></svg>