<svg xmlns="http://www.w3.org/2000/svg" xmlns:xlink="http://www.w3.org/1999/xlink" viewBox="0 0 32 32"><path d="M30 30H4a2 2 0 0 1-2-2V2h2v26h26z" fill="currentColor"/><path d="M14.86 7.823 13 4.723V2h-2v2.723l-1.86 3.1A8 8 0 0 0 8 11.94v.122a8 8 0 0 0 1.14 4.116l1.86 3.1V26h2v-6.723l1.86-3.1A8 8 0 0 0 16 12.06v-.122a8 8 0 0 0-1.14-4.116zM12 6.943l1.145 1.91A6 6 0 0 1 13.919 11H10.08a6 6 0 0 1 .774-2.148zm0 10.114-1.145-1.91A6 6 0 0 1 10.081 13h3.838a6 6 0 0 1-.774 2.148zm15.86-5.234L26 8.723V2h-2v6.723l-1.86 3.1A8 8 0 0 0 21 15.94v.122a8 8 0 0 0 1.14 4.116l1.86 3.1V26h2v-2.723l1.86-3.1A8 8 0 0 0 29 16.06v-.122a8 8 0 0 0-1.14-4.116zm-2.86-.88 1.145 1.909A6 6 0 0 1 26.919 15h-3.837a6 6 0 0 1 .773-2.148zm0 10.113-1.145-1.908A6 6 0 0 1 23.081 17h3.837a6 6 0 0 1-.773 2.148z" fill="currentColor"/></svg>