<svg xmlns="http://www.w3.org/2000/svg" xmlns:xlink="http://www.w3.org/1999/xlink" viewBox="0 0 32 32"><path d="M30 24a6 6 0 1 0-6 6 6.007 6.007 0 0 0 6-6m-2 0a3.95 3.95 0 0 1-.567 2.019l-5.452-5.452A3.95 3.95 0 0 1 24 20a4.005 4.005 0 0 1 4 4m-8 0a3.95 3.95 0 0 1 .567-2.019l5.452 5.452A3.95 3.95 0 0 1 24 28a4.005 4.005 0 0 1-4-4" fill="currentColor"/><path d="M14 2a12 12 0 1 0 2 23.82V24a8 8 0 0 1 8-8h1.82A11.935 11.935 0 0 0 14 2m-2 16.59-4-4L9.59 13 12 15.41 17.41 10 19 11.59z" fill="currentColor"/></svg>