<svg xmlns="http://www.w3.org/2000/svg" xmlns:xlink="http://www.w3.org/1999/xlink" viewBox="0 0 32 32"><path d="M30.334 30H26v-2h4v-2h-2a2 2 0 0 1-2-2v-2.334A1.67 1.67 0 0 1 27.666 20H32v2h-4v2h2a2 2 0 0 1 2 2v2.333A1.67 1.67 0 0 1 30.334 30m-8-10h-2.667A1.667 1.667 0 0 0 18 21.666V30h2v-4h2v4h2v-8.334A1.667 1.667 0 0 0 22.334 20M20 24v-2h2v2zm-7.5 0L11 20H9v10h2v-7l1.5 4 1.5-4v7h2V20h-2zM1 22v6.5A1.473 1.473 0 0 0 2.5 30H7v-2H3v-6h4v-2H3a2.006 2.006 0 0 0-2 2M13 8h-2v3H8v2h3v3h2v-3h3v-2h-3z" fill="currentColor"/><path d="M6 6h20v12h2V6a2.006 2.006 0 0 0-2-2H6a2.006 2.006 0 0 0-2 2v12h2z" fill="currentColor"/></svg>