<svg xmlns="http://www.w3.org/2000/svg" xmlns:xlink="http://www.w3.org/1999/xlink" viewBox="0 0 32 32"><path d="M24.8 12.136a8.9 8.9 0 0 0-.979-2.543L30 3.414 28.587 2 2 28.587 3.414 30l5-5H23.5a6.497 6.497 0 0 0 1.3-12.864M23.5 23H10.414l11.928-11.928a6.9 6.9 0 0 1 .6 2.071l.099.812.815.064A4.497 4.497 0 0 1 23.5 23m-19.204.449 1.432-1.431a4.477 4.477 0 0 1 2.416-7.999l.816-.064.099-.812a6.987 6.987 0 0 1 10.63-5.086l1.443-1.443A8.986 8.986 0 0 0 7.2 12.136 6.49 6.49 0 0 0 4.296 23.45z" fill="currentColor"/></svg>