<svg xmlns="http://www.w3.org/2000/svg" xmlns:xlink="http://www.w3.org/1999/xlink" viewBox="0 0 32 32"><path d="M2 28h9v2H2zm19 0h9v2h-9zm-4-1.833v-8.335l2.586 2.582L21 19l-5-5-5 5 1.413 1.415L15 17.832v8.335l-2.587-2.583L11 25l5 5 5-5-1.414-1.414z" fill="currentColor"/><path d="M23 16h-2v-2h2a3 3 0 0 0 0-6 3 3 0 0 1-.215.026l-.804.058-.227-.774a5.993 5.993 0 0 0-11.175-.866l-.284.6-.842-.046A3.5 3.5 0 0 0 9.5 14H11v2H9.5a5.5 5.5 0 0 1-.43-10.983 7.99 7.99 0 0 1 14.35 1A5 5 0 0 1 23 16" fill="currentColor"/></svg>