<svg xmlns="http://www.w3.org/2000/svg" xmlns:xlink="http://www.w3.org/1999/xlink" viewBox="0 0 32 32"><path d="M32 26v-2h-2.101a5 5 0 0 0-.732-1.753l1.49-1.49-1.414-1.414-1.49 1.49A5 5 0 0 0 26 20.101V18h-2v2.101a5 5 0 0 0-1.753.732l-1.49-1.49-1.414 1.414 1.49 1.49A5 5 0 0 0 20.101 24H18v2h2.101a5 5 0 0 0 .732 1.753l-1.49 1.49 1.414 1.414 1.49-1.49a5 5 0 0 0 1.753.732V32h2v-2.101a5 5 0 0 0 1.753-.732l1.49 1.49 1.414-1.414-1.49-1.49A5 5 0 0 0 29.899 26zm-7 2a3 3 0 1 1 3-3 3.003 3.003 0 0 1-3 3" fill="currentColor"/><circle cx="7" cy="20" r="2" fill="currentColor"/><path d="M14 20a4 4 0 1 1 4-4 4.01 4.01 0 0 1-4 4m0-6a2 2 0 1 0 2 2 2.006 2.006 0 0 0-2-2" fill="currentColor"/><circle cx="21" cy="12" r="2" fill="currentColor"/><path d="M13.02 28.271 3 22.427V9.574l11-6.416 11.496 6.706 1.008-1.728-12-7a1 1 0 0 0-1.008 0l-12 7A1 1 0 0 0 1 9v14a1 1 0 0 0 .496.864L12.013 30z" fill="currentColor"/></svg>