<svg xmlns="http://www.w3.org/2000/svg" xmlns:xlink="http://www.w3.org/1999/xlink" viewBox="0 0 32 32"><path d="M7.7 4.7a14.7 14.7 0 0 0-3 3.1L6.3 9a13.3 13.3 0 0 1 2.6-2.7zm-3.1 7.6-1.9-.6A12.5 12.5 0 0 0 2 16h2a11.5 11.5 0 0 1 .6-3.7m-1.9 8.1a14.4 14.4 0 0 0 2 3.9l1.6-1.2a12.9 12.9 0 0 1-1.7-3.3zm5.1 6.9a14.4 14.4 0 0 0 3.9 2l.6-1.9A12.9 12.9 0 0 1 9 25.7zm3.9-24.6.6 1.9A11.5 11.5 0 0 1 16 4V2a12.5 12.5 0 0 0-4.3.7m12.5 24.6a15.2 15.2 0 0 0 3.1-3.1L25.7 23a11.5 11.5 0 0 1-2.7 2.7zm3.2-7.6 1.9.6A15.5 15.5 0 0 0 30 16h-2a11.5 11.5 0 0 1-.6 3.7m1.8-8.1a14.4 14.4 0 0 0-2-3.9l-1.6 1.2a12.9 12.9 0 0 1 1.7 3.3zm-5.1-7a14.4 14.4 0 0 0-3.9-2l-.6 1.9a12.9 12.9 0 0 1 3.3 1.7zm-3.8 24.7-.6-1.9a11.5 11.5 0 0 1-3.7.6v2a21.4 21.4 0 0 0 4.3-.7M16 26a10 10 0 1 1 10-10 10.01 10.01 0 0 1-10 10m0-18a8 8 0 1 0 8 8 8.01 8.01 0 0 0-8-8" fill="currentColor"/></svg>