<svg xmlns="http://www.w3.org/2000/svg" viewBox="0 0 32 32"><path fill="currentColor" d="M26 13a4.005 4.005 0 0 0 4-4V6h-3a3.98 3.98 0 0 0-2.747 1.106A6 6 0 0 0 19 4h-3v3a6.007 6.007 0 0 0 6 6h1v13H11v-5h1a4.005 4.005 0 0 0 4-4v-3h-3a3.98 3.98 0 0 0-2.747 1.106A6 6 0 0 0 5 12H2v3a6.007 6.007 0 0 0 6 6h1v5H2v2h28v-2h-5V13zm-1-3a2 2 0 0 1 2-2h1v1a2 2 0 0 1-2 2h-1zm-14 8a2 2 0 0 1 2-2h1v1a2 2 0 0 1-2 2h-1zm-2 1H8a4.005 4.005 0 0 1-4-4v-1h1a4.005 4.005 0 0 1 4 4zm14-8h-1a4.005 4.005 0 0 1-4-4V6h1a4.005 4.005 0 0 1 4 4z"/></svg>