<svg xmlns="http://www.w3.org/2000/svg" xmlns:xlink="http://www.w3.org/1999/xlink" viewBox="0 0 32 32"><path d="m17.828 22.068 1.794-1.747a4.22 4.22 0 0 0 3.288 1.632c1.403 0 2-.528 2-1.38 0-.69-.414-1.126-1.472-1.264l-1.195-.161c-2.576-.322-4.001-1.449-4.001-3.633 0-2.323 1.816-3.795 4.553-3.795a5.72 5.72 0 0 1 4.69 1.886l-1.724 1.724a3.96 3.96 0 0 0-2.874-1.287c-1.265 0-1.817.506-1.817 1.242 0 .804.437 1.172 1.564 1.356l1.218.161c2.622.368 3.886 1.541 3.886 3.542 0 2.322-1.954 3.932-4.943 3.932a6.1 6.1 0 0 1-4.967-2.208M5.247 24V7.95h10.578v2.69H8.283v3.886h6.668v2.69H8.283v4.094h7.542V24z" fill="currentColor"/></svg>