<svg xmlns="http://www.w3.org/2000/svg" xmlns:xlink="http://www.w3.org/1999/xlink" viewBox="0 0 32 32"><path d="M6 24a2 2 0 1 1-2 2 2 2 0 0 1 2-2m0-2a4 4 0 1 0 4 4 4 4 0 0 0-4-4M16 4a2 2 0 1 1-2 2 2 2 0 0 1 2-2m0-2a4 4 0 1 0 4 4 4 4 0 0 0-4-4m10 2a2 2 0 1 1-2 2 2 2 0 0 1 2-2m0-2a4 4 0 1 0 4 4 4 4 0 0 0-4-4m-8 22v4h-4v-4zm2-2h-8v8h8z" fill="currentColor"/><path d="M27 22.14V17a2 2 0 0 0-2-2H7v-5h3V2H2v8h3v5a2 2 0 0 0 2 2h18v5.14a4 4 0 1 0 2 0M4 4h4v4H4zm22 24a2 2 0 1 1 2-2 2 2 0 0 1-2 2" fill="currentColor"/></svg>