<svg xmlns="http://www.w3.org/2000/svg" xmlns:xlink="http://www.w3.org/1999/xlink" viewBox="0 0 32 32"><circle cx="23" cy="23" r="1" fill="currentColor"/><path d="M8 22h12v2H8z" fill="currentColor"/><circle cx="23" cy="9" r="1" fill="currentColor"/><path d="M8 8h12v2H8z" fill="currentColor"/><path d="M26 14a2 2 0 0 0 2-2V6a2 2 0 0 0-2-2H6a2 2 0 0 0-2 2v6a2 2 0 0 0 2 2h2v4H6a2 2 0 0 0-2 2v6a2 2 0 0 0 2 2h20a2 2 0 0 0 2-2v-6a2 2 0 0 0-2-2h-2v-4zM6 6h20v6H6zm20 20H6v-6h20zm-4-8H10v-4h12z" fill="currentColor"/></svg>