<svg xmlns="http://www.w3.org/2000/svg" xmlns:xlink="http://www.w3.org/1999/xlink" viewBox="0 0 32 32"><path d="M8 20H4.73A1.97 1.97 0 0 0 3 19a2 2 0 0 0 0 4 1.97 1.97 0 0 0 1.73-1H8zM29 9a1.97 1.97 0 0 0-1.73 1H24v2h3.27A2 2 0 1 0 29 9" fill="currentColor"/><path d="M25.414 5 21 .586 16.586 5 20 8.414V18h2V8.414zM21 3.414 22.586 5 21 6.586 19.414 5zm-9 20.172V14h-2v9.586L6.586 27 11 31.414 15.414 27zM9.414 27 11 25.414 12.586 27 11 28.586z" fill="currentColor"/><path d="M18 10H8.414L5 6.586.586 11 5 15.414 8.414 12H18zM5 12.586 3.414 11 5 9.414 6.586 11z" fill="currentColor"/><path d="M13 3a2 2 0 0 0-4 0 1.97 1.97 0 0 0 1 1.73V8h2V4.73A1.97 1.97 0 0 0 13 3m9 24.27V24h-2v3.27a2 2 0 1 0 2 0" fill="currentColor"/><path d="M31.414 21 27 16.586 23.586 20H14v2h9.586L27 25.414zM27 19.414 28.586 21 27 22.586 25.414 21z" fill="currentColor"/></svg>