<svg xmlns="http://www.w3.org/2000/svg" xmlns:xlink="http://www.w3.org/1999/xlink" viewBox="0 0 32 32"><path d="m20.413 14.584-7.997-7.997a2 2 0 0 0-2.832 0l-7.997 7.997a2 2 0 0 0 0 2.832l3.291 3.292L3 22.585 4.414 24l1.879-1.878 3.291 3.291a2 2 0 0 0 2.832 0l2.256-2.256-1.416-1.415-2.258 2.257-7.997-7.997 7.997-8.001 8.001 8.001L17.5 17.5l1.415 1.415 1.498-1.499a2 2 0 0 0 0-2.832" fill="currentColor"/><path d="m30.413 14.584-3.291-3.292L29 9.415 27.586 8l-1.878 1.878-3.292-3.291a2 2 0 0 0-2.832 0l-2.256 2.256 1.415 1.414 2.255-2.256 8.001 8.001-8.001 7.997-7.997-7.997 1.5-1.501-1.416-1.416-1.498 1.499a2 2 0 0 0 0 2.832l7.997 7.997a2 2 0 0 0 2.832 0l7.997-7.997a2 2 0 0 0 0-2.832" fill="currentColor"/></svg>