<svg xmlns="http://www.w3.org/2000/svg" xmlns:xlink="http://www.w3.org/1999/xlink" viewBox="0 0 32 32"><path d="M20 20h10v2H20zm0 4h6v2h-6z" fill="currentColor"/><path d="M30 17v-1a13.987 13.987 0 1 0-10.77 13.625l-.46-1.946A12 12 0 0 1 16 28c-.19 0-.375-.019-.563-.027A20.3 20.3 0 0 1 12.026 17zm-2.042-2h-5.983a24.3 24.3 0 0 0-2.774-10.559A12.02 12.02 0 0 1 27.96 15zM16.564 4.027A20.3 20.3 0 0 1 19.974 15h-7.948a20.3 20.3 0 0 1 3.411-10.973C15.625 4.02 15.81 4 16 4s.375.019.563.027zm-3.764.414A24.3 24.3 0 0 0 10.025 15H4.04A12.02 12.02 0 0 1 12.8 4.441m0 23.118A12.02 12.02 0 0 1 4.042 17h5.983a24.3 24.3 0 0 0 2.774 10.559z" fill="currentColor"/></svg>