<svg xmlns="http://www.w3.org/2000/svg" viewBox="0 0 32 32"><circle cx="22" cy="24" r="2" fill="currentColor"/><path fill="currentColor" d="M29.777 23.479A8.64 8.64 0 0 0 22 18a8.64 8.64 0 0 0-7.777 5.479L14 24l.223.521A8.64 8.64 0 0 0 22 30a8.64 8.64 0 0 0 7.777-5.479L30 24zM22 28a4 4 0 1 1 4-4 4.005 4.005 0 0 1-4 4"/><path fill="currentColor" d="M12 28H8V4h8v6a2.006 2.006 0 0 0 2 2h6v4h2v-6a.91.91 0 0 0-.3-.7l-7-7A.9.9 0 0 0 18 2H8a2.006 2.006 0 0 0-2 2v24a2.006 2.006 0 0 0 2 2h4zm6-23.6 5.6 5.6H18z"/></svg>