<svg xmlns="http://www.w3.org/2000/svg" xmlns:xlink="http://www.w3.org/1999/xlink" viewBox="0 0 32 32"><path d="M20 20h2v10h-2zM4 23h2v7H4zm12 7h-2v-4a1 1 0 0 0-1-1h-2v5H9v-7h4a3.003 3.003 0 0 1 3 3zm-8.5-8A3.504 3.504 0 0 1 4 18.5V17H2v-2h4v3.5a1.5 1.5 0 0 0 3 0V15h4v2h-2v1.5A3.504 3.504 0 0 1 7.5 22" fill="currentColor"/><path d="M27 10h-5.646a2.99 2.99 0 0 0-2.786 1.886l-1.442 3.605-3.607 4.51 1.562 1.25 3.7-4.626 1.645-3.996a.995.995 0 0 1 .928-.629H27a1 1 0 0 1 1 1v7h-3v10h2v-8h1a2 2 0 0 0 2-2v-7a3.003 3.003 0 0 0-3-3m-3-1a4 4 0 1 1 4-4 4.005 4.005 0 0 1-4 4m0-6a2 2 0 1 0 2 2 2 2 0 0 0-2-2" fill="currentColor"/></svg>