<svg xmlns="http://www.w3.org/2000/svg" xmlns:xlink="http://www.w3.org/1999/xlink" viewBox="0 0 32 32"><circle cx="22" cy="16" r="2" fill="currentColor"/><path d="M30 15h-2.09A6.005 6.005 0 0 0 22 10l-.022.001A9.983 9.983 0 0 0 4.051 15H2v2h2.05a9.983 9.983 0 0 0 17.928 4.999L22 22a6.005 6.005 0 0 0 5.91-5H30zM14 8a7.98 7.98 0 0 1 5.738 2.446A6.02 6.02 0 0 0 16.09 15H6.07A8.01 8.01 0 0 1 14 8m0 16a8.01 8.01 0 0 1-7.93-7h10.02a6.02 6.02 0 0 0 3.649 4.554A7.98 7.98 0 0 1 14 24m8-4a4 4 0 1 1 4-4 4.005 4.005 0 0 1-4 4" fill="currentColor"/></svg>