<svg xmlns="http://www.w3.org/2000/svg" xmlns:xlink="http://www.w3.org/1999/xlink" viewBox="0 0 32 32"><path d="M28 30h-6v-4a2 2 0 0 1 2-2h2v-2h-4v-2h4a2 2 0 0 1 2 2v2a2 2 0 0 1-2 2h-2v2h4zm0-14h2A14 14 0 0 0 16 2v2a12 12 0 0 1 12 12" fill="currentColor"/><path d="M26 16A10 10 0 0 0 16 6v10zM16 28a11.96 11.96 0 0 1-10.584-6.345q-.1-.19-.195-.384a11 11 0 0 1-.157-.342A13 13 0 0 1 4.19 18l-1.968.413A14 14 0 0 0 2.7 20.3l-.025.009A13.96 13.96 0 0 0 16 30zM5.591 10 3.86 9a14.1 14.1 0 0 0-1.638 4.587l1.968.347A12.2 12.2 0 0 1 5.59 10zm6.225-5.235-.683-1.878a14 14 0 0 0-4.182 2.44L8.236 6.86a12 12 0 0 1 3.58-2.094z" fill="currentColor"/></svg>