<svg xmlns="http://www.w3.org/2000/svg" xmlns:xlink="http://www.w3.org/1999/xlink" viewBox="0 0 32 32"><path d="M27 22a2.98 2.98 0 0 0-2.037.811l-4.004-2.402a2 2 0 0 0 0-.818l4.004-2.402A2.99 2.99 0 1 0 24 15a3 3 0 0 0 .042.41l-4.004 2.401a3 3 0 1 0 0 4.377l4.003 2.403A3 3 0 0 0 24 25a3 3 0 1 0 3-3m0-8a1 1 0 1 1-1 1 1 1 0 0 1 1-1m-9 7a1 1 0 1 1 1-1 1 1 0 0 1-1 1m9 5a1 1 0 1 1 1-1 1 1 0 0 1-1 1" fill="currentColor"/><circle cx="7" cy="8" r="1" fill="currentColor"/><circle cx="7" cy="16" r="1" fill="currentColor"/><circle cx="7" cy="24" r="1" fill="currentColor"/><path d="M22 13V5a2 2 0 0 0-2-2H4a2 2 0 0 0-2 2v22a2 2 0 0 0 2 2h16v-2H4v-6h8v-2H4v-6zM4 5h16v6H4z" fill="currentColor"/></svg>