<svg xmlns="http://www.w3.org/2000/svg" viewBox="0 0 32 32"><path fill="currentColor" d="m11.816 4.765-.683-1.878a14 14 0 0 0-4.182 2.44L8.236 6.86a12 12 0 0 1 3.58-2.094zM5.591 10 3.86 9a14.1 14.1 0 0 0-1.638 4.587l1.968.347A12.2 12.2 0 0 1 5.59 10zM16 26a10 10 0 0 0 0-20z"/><path fill="currentColor" d="M30 16A14 14 0 0 0 16 2v2a11.993 11.993 0 0 1 4.05 23.285c-.169.06-.335.13-.505.182-.251.077-.51.136-.768.197-.127.03-.25.07-.378.095-.29.06-.588.098-.886.135-.1.013-.198.035-.299.044a12 12 0 0 1-11.798-6.283q-.1-.19-.195-.384a11 11 0 0 1-.157-.342A13 13 0 0 1 4.19 18l-1.968.413A14 14 0 0 0 2.7 20.3l-.025.009A13.96 13.96 0 0 0 16 30q.713 0 1.415-.071c.135-.014.265-.042.4-.06.328-.043.657-.084.98-.15.18-.036.354-.09.532-.134.268-.065.538-.125.802-.206.247-.076.483-.172.724-.261.18-.067.363-.121.541-.195v-.003A14 14 0 0 0 30 16"/></svg>