<svg xmlns="http://www.w3.org/2000/svg" xmlns:xlink="http://www.w3.org/1999/xlink" viewBox="0 0 32 32"><path d="M29 14h-1v-4h-2v4h-2v-4h-2v4h-1a1 1 0 0 0-1 1v4a5.01 5.01 0 0 0 4 4.899V27a1 1 0 0 1-1 1H5a1 1 0 0 1 0-2h5a3 3 0 0 0 0-6H5a1 1 0 0 1 0-2h5a3.003 3.003 0 0 0 3-3v-4h1a4.005 4.005 0 0 0 4-4V4h-3a3.98 3.98 0 0 0-2.747 1.106A6 6 0 0 0 7 2H4v3a6.007 6.007 0 0 0 6 6h1v4a1 1 0 0 1-1 1H5a3 3 0 0 0 0 6h5a1 1 0 0 1 0 2H5a3 3 0 0 0 0 6h18a3.003 3.003 0 0 0 3-3v-3.101A5.01 5.01 0 0 0 30 19v-4a1 1 0 0 0-1-1M13 8a2 2 0 0 1 2-2h1v1a2 2 0 0 1-2 2h-1zm-3 1a4.005 4.005 0 0 1-4-4V4h1a4.005 4.005 0 0 1 4 4v1zm18 10a3 3 0 0 1-6 0v-3h6z" fill="currentColor"/></svg>