<svg xmlns="http://www.w3.org/2000/svg" xmlns:xlink="http://www.w3.org/1999/xlink" viewBox="0 0 32 32"><path d="m30.415 16.513-7.927-7.927a2 2 0 0 0-2.83 0L5.622 22.624a2 2 0 0 0 0 2.83L10.166 30h9.591l10.658-10.659a2 2 0 0 0 0-2.828M18.929 28h-7.934l-3.96-3.962 6.312-6.312 7.928 7.928zm3.76-3.76-7.928-7.928L21.074 10l7.927 7.927zM11 12H8V2h3a3.003 3.003 0 0 1 3 3v4a3.003 3.003 0 0 1-3 3m-1-2h1a1 1 0 0 0 1-1V5a1 1 0 0 0-1-1h-1zM4 2H0v2h4v2H1v2h3v2H0v2h4a2.003 2.003 0 0 0 2-2V4a2 2 0 0 0-2-2" fill="currentColor"/></svg>