<svg xmlns="http://www.w3.org/2000/svg" viewBox="0 0 32 32"><path fill="currentColor" d="M29 28a2.9 2.9 0 0 1-1-.182v-.006a3.77 3.77 0 0 1-2.053-2.133A.97.97 0 0 0 25 25a1.01 1.01 0 0 0-.949.684A3.44 3.44 0 0 1 21 28a3.44 3.44 0 0 1-3.053-2.321A.99.99 0 0 0 17 25a1.01 1.01 0 0 0-.949.684A3.44 3.44 0 0 1 13 28a3.44 3.44 0 0 1-3.053-2.321 1 1 0 0 0-1.896.005A3.44 3.44 0 0 1 5 28H2v2h3a4.93 4.93 0 0 0 4-1.987 5.02 5.02 0 0 0 8 0 5.02 5.02 0 0 0 8 0 5.14 5.14 0 0 0 2.138 1.62A4.8 4.8 0 0 0 29 30h1v-2zm.912-13.065L23.628 3.371a.718.718 0 0 0-1.256 0l-6.284 11.564A.72.72 0 0 0 16.72 16h12.56a.72.72 0 0 0 .631-1.065zM22.25 7h1.5v4h-1.5zm.75 7a1 1 0 1 1 1-1 1 1 0 0 1-1 1"/><path fill="currentColor" d="M28 21v-3h-2v3h-1a3.44 3.44 0 0 1-3.051-2.316 1 1 0 0 0-1.896-.005A3.44 3.44 0 0 1 17 21a3.44 3.44 0 0 1-3.051-2.316A1.01 1.01 0 0 0 13 18a.99.99 0 0 0-.947.679A3.44 3.44 0 0 1 9 21a3.37 3.37 0 0 1-3-2.186v-6.753l10-7.79 2.533 1.976.968-1.782-2.889-2.251a1.01 1.01 0 0 0-1.242 0L1 13.419l1.243 1.572L4 13.621v5.188a3.7 3.7 0 0 1-2 2.003v2.084a5 5 0 0 0 3-1.883 5.02 5.02 0 0 0 8 0 5.02 5.02 0 0 0 8 0A4.93 4.93 0 0 0 25 23h5v-2z"/></svg>