<svg xmlns="http://www.w3.org/2000/svg" xmlns:xlink="http://www.w3.org/1999/xlink" viewBox="0 0 32 32"><path d="M20 24h-8.137a4 4 0 0 0-.429-1.02L21.98 12.434A3.994 3.994 0 1 0 20.141 8H14v2h6.141a4 4 0 0 0 .425 1.02L10.02 21.566A3.994 3.994 0 1 0 11.859 26H20v3h8v-8h-8zm4-17a2 2 0 1 1-2 2 2 2 0 0 1 2-2M8 27a2 2 0 1 1 2-2 2 2 0 0 1-2 2m14-4h4v4h-4zM9.693 12.75a5 5 0 0 1 0-7.5l1.324 1.5a3 3 0 0 0 0 4.501z" fill="currentColor"/><path d="M7.047 15.751a9 9 0 0 1 0-13.501l1.324 1.5a7 7 0 0 0 0 10.501z" fill="currentColor"/></svg>