<svg xmlns="http://www.w3.org/2000/svg" viewBox="0 0 32 32"><path fill="currentColor" d="M28 30h-6a2 2 0 0 1-2-2v-6a2 2 0 0 1 2-2h6a2 2 0 0 1 2 2v6a2 2 0 0 1-2 2m-6-8h-.001L22 28h6v-6zm-4 4h-6a3.003 3.003 0 0 1-3-3v-4h2v4a1 1 0 0 0 1 1h6zm8-8h-2v-3a1 1 0 0 0-1-1h-5v-2h5a3.003 3.003 0 0 1 3 3zm-11 0a1 1 0 0 1-.497-.132L10 15.288l-4.503 2.58a1 1 0 0 1-1.471-1.094l1.061-4.572-2.818-3.02a1 1 0 0 1 .566-1.668l4.2-.702 2.066-4.25a1 1 0 0 1 1.788-.02l2.204 4.27 4.077.702a1 1 0 0 1 .561 1.668l-2.818 3.02 1.06 4.572A1 1 0 0 1 15 18m-5-5s.343.18.497.269l3.01 1.724-.784-3.377 2.282-2.445-3.233-.557-1.745-3.382-1.644 3.382-3.381.565 2.274 2.437-.784 3.377 3.01-1.724C9.658 13.18 10 13 10 13"/></svg>