<svg xmlns="http://www.w3.org/2000/svg" xmlns:xlink="http://www.w3.org/1999/xlink" viewBox="0 0 32 32"><path d="M10 30H8v-3H4v3H2v-3a2 2 0 0 1 2-2h4a2 2 0 0 1 2 2zm20 0h-2v-3h-4v3h-2v-3a2 2 0 0 1 2-2h4a2 2 0 0 1 2 2zm-10 0h-2v-3h-4v3h-2v-3a2 2 0 0 1 2-2h4a2 2 0 0 1 2 2z" fill="currentColor"/><circle cx="16" cy="22" r="2" fill="currentColor"/><circle cx="6" cy="22" r="2" fill="currentColor"/><circle cx="26" cy="22" r="2" fill="currentColor"/><circle cx="21" cy="18" r="2" fill="currentColor"/><circle cx="11" cy="18" r="2" fill="currentColor"/><path d="M26 14H6a2 2 0 0 1-2-2V4a2 2 0 0 1 2-2h20a2 2 0 0 1 2 2v8a2 2 0 0 1-2 2M6 4v8h20V4z" fill="currentColor"/></svg>