<svg xmlns="http://www.w3.org/2000/svg" xmlns:xlink="http://www.w3.org/1999/xlink" viewBox="0 0 32 32"><path d="M8 19H6v-2a3.003 3.003 0 0 1 3-3h5v2H9a1 1 0 0 0-1 1zm4-6a4 4 0 1 1 4-4 4.005 4.005 0 0 1-4 4m0-6a2 2 0 1 0 2 2 2 2 0 0 0-2-2m8 13a4 4 0 1 1 4-4 4.005 4.005 0 0 1-4 4m0-6a2 2 0 1 0 2 2 2 2 0 0 0-2-2m6 12h-2v-2a1 1 0 0 0-1-1h-6a1 1 0 0 0-1 1v2h-2v-2a3.003 3.003 0 0 1 3-3h6a3.003 3.003 0 0 1 3 3z" fill="currentColor"/><path d="M8 30H4a2 2 0 0 1-2-2V4a2 2 0 0 1 2-2h4v2H4v24h4zm20 0h-4v-2h4V4h-4V2h4a2 2 0 0 1 2 2v24a2 2 0 0 1-2 2" fill="currentColor"/></svg>