<svg xmlns="http://www.w3.org/2000/svg" xmlns:xlink="http://www.w3.org/1999/xlink" viewBox="0 0 32 32"><path d="M19 28H3a1 1 0 0 1 0-2h16a1 1 0 0 1 0 2m-4-8H3a1 1 0 0 1 0-2h12a1 1 0 0 1 0 2m10.793 2.379 2.828 2.828-1.414 1.414-2.828-2.828zM28 15h4v2h-4zm-3.621-6.793 2.828-2.828 1.414 1.414-2.828 2.828zM17 2h2v4h-2zm-6.793 7.621L7.38 6.793l1.414-1.414 2.828 2.828z" fill="currentColor"/><path d="M18 8a8.01 8.01 0 0 0-8 8h2a6 6 0 1 1 6 6H7a1 1 0 0 0 0 2h11a8 8 0 0 0 0-16" fill="currentColor"/></svg>