<svg xmlns="http://www.w3.org/2000/svg" xmlns:xlink="http://www.w3.org/1999/xlink" viewBox="0 0 32 32"><path d="m14 12.914 1.414-1.414L18 14.086 16.585 15.5zm0 5 1.414-1.414L18 19.086 16.586 20.5z" fill="currentColor"/><path d="M19 24h-6a2 2 0 0 1-2-2V10a2 2 0 0 1 2-2h6a2 2 0 0 1 2 2v12a2 2 0 0 1-2 2m-6-14v12h6.001L19 10z" fill="currentColor"/><path d="M16 31a1 1 0 0 1-.504-.136l-12-7A1 1 0 0 1 3 23V9a1 1 0 0 1 .496-.864l12-7a1 1 0 0 1 1.008 0l12 7-1.008 1.728L16 3.158 5 9.574v12.852l11 6.417 11-6.417V15h2v8a1 1 0 0 1-.496.864l-12 7A1 1 0 0 1 16 31" fill="currentColor"/></svg>