<svg xmlns="http://www.w3.org/2000/svg" xmlns:xlink="http://www.w3.org/1999/xlink" viewBox="0 0 32 32"><path d="M26 22a3.6 3.6 0 0 0-2 .6L19.414 18 18 19.414 22.6 24a4.2 4.2 0 0 0-.4 1H9.858a3.6 3.6 0 0 0-.458-1L24 9.4a3.6 3.6 0 0 0 2 .6 4 4 0 1 0-3.857-5H9.9A4.08 4.08 0 0 0 6 2a4 4 0 0 0 0 8 3.6 3.6 0 0 0 2-.6l4.586 4.6L14 12.586 9.4 8a4.2 4.2 0 0 0 .4-1h12.342a3.6 3.6 0 0 0 .458 1L8 22.6a3.6 3.6 0 0 0-2-.6 4 4 0 1 0 3.857 5H22.1a4.012 4.012 0 1 0 3.9-5m0-18a2 2 0 1 1-2 2 2.006 2.006 0 0 1 2-2M6 8a2 2 0 1 1 2-2 2.006 2.006 0 0 1-2 2m0 20a2 2 0 1 1 2-2 2.006 2.006 0 0 1-2 2m20 0a2 2 0 1 1 2-2 2.006 2.006 0 0 1-2 2" fill="currentColor"/></svg>