<svg xmlns="http://www.w3.org/2000/svg" xmlns:xlink="http://www.w3.org/1999/xlink" viewBox="0 0 32 32"><path d="M20 27H7a2.006 2.006 0 0 1-2-2V12h2v13h13z" fill="currentColor"/><path d="m23.4 22-4-4a3.6 3.6 0 0 0 .6-2 4.01 4.01 0 0 0-4-4 3.6 3.6 0 0 0-2 .6l-4-4V2H2v8h6.6l4 4a3.6 3.6 0 0 0-.6 2 4.01 4.01 0 0 0 4 4 3.6 3.6 0 0 0 2-.6l4 4V30h8v-8zM8 8H4V4h4zm8 10a2 2 0 1 1 2-2 2.006 2.006 0 0 1-2 2m12 10h-4v-4h4z" fill="currentColor"/><path d="M25 20h2V7a2.006 2.006 0 0 0-2-2H12v2h13z" fill="currentColor"/></svg>