<svg xmlns="http://www.w3.org/2000/svg" xmlns:xlink="http://www.w3.org/1999/xlink" viewBox="0 0 32 32"><path d="M21 19a2 2 0 0 0-.512.074l-1.781-1.781-.026.026a2.89 2.89 0 0 0 0-2.638l.026.026 1.781-1.781a2.034 2.034 0 1 0-1.414-1.414l-1.781 1.781.026.026a2.89 2.89 0 0 0-2.638 0l.026-.026-1.781-1.781a2.034 2.034 0 1 0-1.414 1.414l1.781 1.781.026-.026a2.89 2.89 0 0 0 0 2.638l-.026-.026-1.781 1.781a2.034 2.034 0 1 0 1.414 1.414l1.781-1.781-.026-.026a2.89 2.89 0 0 0 2.638 0l-.026.026 1.781 1.781A1.996 1.996 0 1 0 21 19m-5-2a1 1 0 1 1 1-1 1 1 0 0 1-1 1" fill="currentColor"/><path d="M16 31a1 1 0 0 1-.504-.136l-12-7A1 1 0 0 1 3 23V9a1 1 0 0 1 .496-.864l12-7a1 1 0 0 1 1.008 0l12 7-1.008 1.728L16 3.158 5 9.574v12.852l11 6.417 11-6.417V15h2v8a1 1 0 0 1-.496.864l-12 7A1 1 0 0 1 16 31" fill="currentColor"/></svg>