<svg xmlns="http://www.w3.org/2000/svg" xmlns:xlink="http://www.w3.org/1999/xlink" viewBox="0 0 32 32"><path d="M27.798 10a10 10 0 0 0-19.62.124A7.496 7.496 0 0 0 9.5 25H11v-2H9.5a5.496 5.496 0 0 1-.377-10.98l.837-.057.09-.833A7.993 7.993 0 0 1 25.736 10z" fill="currentColor"/><path d="M27 24a2.97 2.97 0 0 0-1.925.719l-4.101-2.461c.007-.086.026-.17.026-.258s-.019-.17-.026-.257l4.102-2.46A2.97 2.97 0 0 0 27 20a3.021 3.021 0 1 0-2.943-2.438l-3.912 2.347a3 3 0 1 0-.001 4.183l3.913 2.348A2.998 2.998 0 1 0 27 24m0-8a1 1 0 1 1-1 1 1 1 0 0 1 1-1m-9 7a1 1 0 1 1 1-1 1 1 0 0 1-1 1m9 5a1 1 0 1 1 1-1 1 1 0 0 1-1 1" fill="currentColor"/></svg>