<svg xmlns="http://www.w3.org/2000/svg" xmlns:xlink="http://www.w3.org/1999/xlink" viewBox="0 0 32 32"><path d="M24.58 13.65a9.733 9.733 0 0 0-18.294 3.889A6.75 6.75 0 0 0 7 31h16a8.746 8.746 0 0 0 1.58-17.35M23 29.5H7a5.237 5.237 0 0 1-.7-10.43 9.7 9.7 0 0 0 1.104 3.785.75.75 0 1 0 1.322-.71 8.25 8.25 0 0 1 14.026-8.632 8.75 8.75 0 0 0-6.315 2.95.75.75 0 1 0 1.124.992A7.25 7.25 0 1 1 23 29.5m8.898-19.245a.76.76 0 0 0-1.036-.278l-3.02 1.744a.759.759 0 1 0 .758 1.314l3.02-1.744a.76.76 0 0 0 .278-1.036M22.676 7.87a.76.76 0 0 0 1.037-.278l1.744-3.02a.759.759 0 0 0-1.314-.758l-1.744 3.02a.76.76 0 0 0 .277 1.036M16 6.081a.76.76 0 0 0 .759-.759V1.835a.759.759 0 1 0-1.518 0v3.487a.76.76 0 0 0 .759.76zM8.287 7.592a.759.759 0 0 0 1.314-.759l-1.744-3.02a.759.759 0 1 0-1.314.76zm-4.128 4.129-3.02-1.744a.759.759 0 1 0-.76 1.314L3.4 13.035a.759.759 0 1 0 .759-1.314" fill="currentColor"/></svg>