<svg xmlns="http://www.w3.org/2000/svg" xmlns:xlink="http://www.w3.org/1999/xlink" viewBox="0 0 32 32"><path d="m29.223 17.964-3.304-.754a9.78 9.78 0 0 0-1.525-6.625l2.54-2.025-1.247-1.564-2.539 2.024A9.97 9.97 0 0 0 17 6.05V3h-2v3.05a9.97 9.97 0 0 0-6.148 2.97l-2.54-2.024L5.066 8.56l2.54 2.025a9.78 9.78 0 0 0-1.524 6.625l-3.304.754.446 1.95 3.297-.753a10.04 10.04 0 0 0 4.269 5.358l-1.33 2.763 1.802.867 1.329-2.76a9.8 9.8 0 0 0 6.82 0l1.33 2.76 1.802-.868-1.33-2.762a10.04 10.04 0 0 0 4.269-5.358l3.297.752zM24 16q-.002.385-.039.763l-5-1.142a3 3 0 0 0-.137-.594l3.996-3.187A7.94 7.94 0 0 1 24 16m-9 0a1 1 0 1 1 1 1 1 1 0 0 1-1-1m6.576-5.726-3.996 3.187a3 3 0 0 0-.58-.277V8.07a7.98 7.98 0 0 1 4.576 2.205zM15 8.07v5.115a3 3 0 0 0-.58.277l-3.996-3.187A7.98 7.98 0 0 1 15 8.07M8 16a7.94 7.94 0 0 1 1.18-4.16l3.996 3.187a3 3 0 0 0-.137.594l-5 1.141A8 8 0 0 1 8 16m.483 2.712 4.976-1.136a3 3 0 0 0 .414.537L11.66 22.71a8.03 8.03 0 0 1-3.176-3.998zM16 24a8 8 0 0 1-2.54-.42l2.22-4.612A3 3 0 0 0 16 19a3 3 0 0 0 .319-.032l2.221 4.612A8 8 0 0 1 16 24m4.34-1.29-2.213-4.598a3 3 0 0 0 .414-.536l4.976 1.136a8.03 8.03 0 0 1-3.176 3.998z" fill="currentColor"/></svg>