<svg xmlns="http://www.w3.org/2000/svg" xmlns:xlink="http://www.w3.org/1999/xlink" viewBox="0 0 32 32"><path d="M18.303 9a2.66 2.66 0 0 0-1.908.806l-.393.405-.397-.405a2.66 2.66 0 0 0-3.816 0 2.8 2.8 0 0 0 0 3.896L16.002 18l4.209-4.298a2.8 2.8 0 0 0 0-3.896A2.66 2.66 0 0 0 18.303 9" fill="currentColor"/><path d="m16 30-8.436-9.949a35 35 0 0 1-.348-.451A10.9 10.9 0 0 1 5 13a11 11 0 0 1 22 0 10.9 10.9 0 0 1-2.215 6.597l-.001.003s-.3.394-.345.447zM8.812 18.395c.002 0 .234.308.287.374L16 26.908l6.91-8.15c.044-.055.278-.365.279-.366A8.9 8.9 0 0 0 25 13a9 9 0 0 0-18 0 8.9 8.9 0 0 0 1.813 5.395z" fill="currentColor"/></svg>