<svg xmlns="http://www.w3.org/2000/svg" viewBox="0 0 32 32"><path fill="currentColor" d="M20 19h-2v-2h-4v2h-2v-2a2 2 0 0 1 2-2h4a2 2 0 0 1 2 2zm-4-5a3 3 0 1 1 3-3 3.003 3.003 0 0 1-3 3m0-4a1 1 0 1 0 1 1 1 1 0 0 0-1-1"/><path fill="currentColor" d="m16 30-8.436-9.949a35 35 0 0 1-.348-.451A10.9 10.9 0 0 1 5 13a11 11 0 0 1 22 0 10.9 10.9 0 0 1-2.215 6.597l-.001.003s-.3.394-.345.447zM8.812 18.395c.002 0 .234.308.287.374L16 26.908l6.91-8.15c.044-.055.278-.365.279-.366A8.9 8.9 0 0 0 25 13a9 9 0 0 0-18 0 8.9 8.9 0 0 0 1.813 5.395z"/></svg>