<svg xmlns="http://www.w3.org/2000/svg" viewBox="0 0 32 32"><path fill="currentColor" fill-rule="evenodd" d="m9.09 15.246 4.67 2.277a1.07 1.07 0 0 1-.21 2.002l-5.04 1.257a1.073 1.073 0 0 1-1.324-.921 9.2 9.2 0 0 1 .42-3.997 1.07 1.07 0 0 1 1.485-.618zm1.87 9.614L14.436 21a1.07 1.07 0 0 1 1.866.753l-.181 5.194a1.072 1.072 0 0 1-1.25 1.02 9.3 9.3 0 0 1-3.722-1.507 1.07 1.07 0 0 1-.189-1.6m8.243-5.138 4.94 1.606a1.07 1.07 0 0 1 .637 1.48 9.3 9.3 0 0 1-2.47 3.166 1.072 1.072 0 0 1-1.592-.258l-2.754-4.408a1.07 1.07 0 0 1 1.239-1.586m5.024-3.152-4.995 1.432a1.07 1.07 0 0 1-1.182-1.628l2.906-4.308a1.07 1.07 0 0 1 1.594-.206 9.2 9.2 0 0 1 2.363 3.25 1.073 1.073 0 0 1-.686 1.46M12.556 4.45a15 15 0 0 0-2.567.946 1.07 1.07 0 0 0-.464 1.501l4.882 8.456a1.07 1.07 0 0 0 1.998-.535V5.053a1.07 1.07 0 0 0-1.152-1.068 15 15 0 0 0-2.697.465"/></svg>