<svg xmlns="http://www.w3.org/2000/svg" xmlns:xlink="http://www.w3.org/1999/xlink" viewBox="0 0 32 32"><path d="M30 14.784c0-5.178-6.268-9.376-14-9.376S2 9.606 2 14.784c0 4.615 4.981 8.442 11.536 9.223v2.991l4.776-.001v-2.974a19.4 19.4 0 0 0 3.342-.665L23.593 27l5.397-.002-3.252-5.485C28.363 19.809 30 17.426 30 14.784m-22.498.7c0-3.54 4.764-6.41 10.641-6.41s10.214 1.963 10.214 6.41a5.47 5.47 0 0 1-3.398 5.126 3 3 0 0 0-.298-.175 10.5 10.5 0 0 0-1.34-.505s4.174-.31 4.174-4.466-4.368-4.234-4.368-4.234h-9.59v10.025c-3.567-1.035-6.035-3.227-6.035-5.771m13.742 1.845-2.893.001.001-2.68h2.892a1.248 1.248 0 0 1 1.34 1.316 1.323 1.323 0 0 1-1.34 1.363m-2.933 3.495h1.283a.88.88 0 0 1 .64.291 3.3 3.3 0 0 1 .51.63 22 22 0 0 1-2.432.145z" fill-rule="evenodd" fill="currentColor"/></svg>