<svg xmlns="http://www.w3.org/2000/svg" xmlns:xlink="http://www.w3.org/1999/xlink" viewBox="0 0 32 32"><path d="M26.077 3.588a1.69 1.69 0 1 1-1.76-1.585 1.67 1.67 0 0 1 1.76 1.585M16.22 23.111c-4.487 0-8.43-1.61-10.47-3.988a11.162 11.162 0 0 0 20.938 0c-2.034 2.378-5.962 3.988-10.469 3.988zm0-15.463c4.486 0 8.43 1.61 10.468 3.988a11.162 11.162 0 0 0-20.938 0c2.04-2.382 5.963-3.988 10.47-3.988m-6.177 20.091a2.108 2.108 0 1 1-.203-.798 2.1 2.1 0 0 1 .203.798M6.26 7.106A1.226 1.226 0 1 1 7.452 5.83 1.24 1.24 0 0 1 6.26 7.106" fill="currentColor"/></svg>