<svg xmlns="http://www.w3.org/2000/svg" viewBox="0 0 32 32"><path fill="currentColor" d="M22.49 23.71h-7.54a3.12 3.12 0 0 1-2.41-1A14.9 14.9 0 0 1 10 18.88c-1.3-2.6-2.54-5.22-3.82-7.82-.39-.8-.82-1.56-1.28-2.32A7.84 7.84 0 0 0 2 5.6h3.57a45.6 45.6 0 0 1 7 .61 8.09 8.09 0 0 1 6.34 5.09 48.5 48.5 0 0 1 2.17 7.36 26 26 0 0 0 1.41 5.05m5.61 2.67a2.93 2.93 0 0 1-2.74-2.64 42 42 0 0 1-.14-4.9 48 48 0 0 0-.61-7.58 3.75 3.75 0 0 0-.83-2h2.65c.54 0 .73.37.89.78a12 12 0 0 1 .68 3.24c.29 2.72.31 5.45.33 8.18a11 11 0 0 0 0 1.15c.09.78.4 1.1 1.17 1.08.5 0 .5-.06.5-.06v2.69a8.6 8.6 0 0 1-1.9.06"/></svg>