<svg xmlns="http://www.w3.org/2000/svg" xmlns:xlink="http://www.w3.org/1999/xlink" viewBox="0 0 32 32"><path id="_Path_" d="M14.123 26.933a1.112 1.112 0 1 1-1.112-1.112 1.11 1.11 0 0 1 1.112 1.112" fill="currentColor"/><path id="_Path_2" d="M21.026 26.933a1.112 1.112 0 1 1-1.112-1.112 1.11 1.11 0 0 1 1.112 1.112" fill="currentColor"/><path d="m9.97 6.74.06-.972.972.06-.06.972z" fill="currentColor"/><path d="M26.427 16.383a13.1 13.1 0 0 0-5.144-4.182 14 14 0 0 0-1.135-.445l.04-.094a4.83 4.83 0 0 0-2.986-6.319 6 6 0 0 0-1.997-.355c-.036-.126-.116-.675.58-2.158L14.375 2l-.338.466c-.384.531-.755 1.044-1.103 1.55a2.17 2.17 0 0 0-1.448-.677l-1.632-.101H9.85l-.129-.004a2.19 2.19 0 0 0-2.18 2.048L7.44 6.917v.006A2.19 2.19 0 0 0 9.485 9.23l1.168.072a5.17 5.17 0 0 0 .47 2.688 13.2 13.2 0 0 0-4.264 2.9C3 18.788 3 23.06 3 26.492v2.07l1.524-1.616A12.3 12.3 0 0 0 5.854 30h1.983a10.7 10.7 0 0 1-1.959-4.49l2.235-2.37-1.15 3.605 2.03-1.477c3.586-2.61 7.868-3.21 12.726-1.783a4.63 4.63 0 0 0 5.22-1.468q.063-.095.122-.193a9.6 9.6 0 0 1 .164 1.746 12.4 12.4 0 0 1-1.61 6.43h1.877a14.4 14.4 0 0 0 1.378-6.43 12.27 12.27 0 0 0-2.443-7.188zM13.845 5.925a1.59 1.59 0 0 0 1.399.706 4.2 4.2 0 0 1 1.44.272 3.17 3.17 0 0 1 1.028 5.464l-.475-.585-.004-.004a1.705 1.705 0 0 0-3.023.987 3.214 3.214 0 0 1-1.9-3.541 8.5 8.5 0 0 1 1.438-3.466 2 2 0 0 0 .098.167zm3.49 9.259-.607.496a.27.27 0 0 1-.376-.038l-.126-.155a.28.28 0 0 1 .04-.393l.6-.49-1.236-1.516a.362.362 0 1 1 .561-.457l3.455 4.252a.362.362 0 0 1-.199.581.4.4 0 0 1-.081.01.36.36 0 0 1-.281-.134l-.344-.424-1.222.997a.28.28 0 0 1-.396-.04l-.553-.677a.28.28 0 0 1 .04-.392l1.227-1.002zM9.08 7.018l.101-1.634a.54.54 0 0 1 .539-.506l.033.001 1.633.101a.54.54 0 0 1 .505.572l-.008.118a10.7 10.7 0 0 0-.902 2.005l-1.395-.086a.54.54 0 0 1-.506-.57zM25.594 21.07a2.99 2.99 0 0 1-3.41.837c-4.532-1.33-8.63-1.053-12.213.82l1.907-5.978-7.203 7.64a11.67 11.67 0 0 1 3.353-8.342 11.5 11.5 0 0 1 4.107-2.691 5.4 5.4 0 0 0 2.241 1.221 5 5 0 0 0 .563.12 1.63 1.63 0 0 0 .245 1.642l.085.104a1.63 1.63 0 0 0 .259 1.605l.553.677a1.63 1.63 0 0 0 2.29.232l.332-.27a1.708 1.708 0 0 0 1.986-2.654l-1.942-2.391a5 5 0 0 0 .486-.456 13 13 0 0 1 1.383.518 11.4 11.4 0 0 1 4.508 3.684c.975 1.34 1.15 2.716.47 3.682" fill="currentColor"/></svg>