<svg xmlns="http://www.w3.org/2000/svg" xmlns:xlink="http://www.w3.org/1999/xlink" viewBox="0 0 32 32"><path d="M13.647 14.907a1.448 1.448 0 1 0 1.326 1.443 1.385 1.385 0 0 0-1.326-1.443m4.745 0a1.448 1.448 0 1 0 1.326 1.443 1.385 1.385 0 0 0-1.326-1.443" fill="currentColor"/><path d="M24.71 4H7.29a2.67 2.67 0 0 0-2.665 2.678v17.576a2.67 2.67 0 0 0 2.665 2.678h14.742l-.689-2.405 1.664 1.547 1.573 1.456L27.375 30V6.678A2.67 2.67 0 0 0 24.71 4m-5.018 16.978s-.468-.559-.858-1.053a4.1 4.1 0 0 0 2.353-1.547 7.4 7.4 0 0 1-1.495.767 8.6 8.6 0 0 1-1.885.559 9.1 9.1 0 0 1-3.367-.013 11 11 0 0 1-1.911-.559 8 8 0 0 1-.949-.442c-.039-.026-.078-.039-.117-.065a.2.2 0 0 1-.052-.039 5 5 0 0 1-.364-.221 4.04 4.04 0 0 0 2.275 1.534c-.39.494-.871 1.079-.871 1.079a4.71 4.71 0 0 1-3.965-1.976 17.4 17.4 0 0 1 1.872-7.579 6.43 6.43 0 0 1 3.653-1.365l.13.156a8.8 8.8 0 0 0-3.419 1.703s.286-.156.767-.377a9.8 9.8 0 0 1 2.951-.819 1.3 1.3 0 0 1 .221-.026 11 11 0 0 1 2.626-.026 10.6 10.6 0 0 1 3.913 1.248 8.65 8.65 0 0 0-3.237-1.651l.182-.208a6.43 6.43 0 0 1 3.653 1.365 17.4 17.4 0 0 1 1.872 7.579 4.75 4.75 0 0 1-3.978 1.976" fill="currentColor"/></svg>