<svg xmlns="http://www.w3.org/2000/svg" xmlns:xlink="http://www.w3.org/1999/xlink" viewBox="0 0 32 32"><path d="M25.394 24a7.88 7.88 0 0 0-1.67-8.568 3.92 3.92 0 0 0-1.085-4.414l2.776-2.776a2 2 0 0 0 0-2.829l-2.828-2.828a2 2 0 0 0-2.829 0L6.586 15.757a2.003 2.003 0 0 0 0 2.829l2.828 2.828a2 2 0 0 0 2.829 0l4.775-4.775a3.933 3.933 0 0 0 5.513.432A5.94 5.94 0 0 1 23.177 24H16v4H4v2h24v-6zm-14.566-4L8 17.171l1.879-1.878 2.828 2.828zM16 14a4 4 0 0 0 .076.752l-1.955 1.955-2.828-2.828 9.88-9.88L24 6.827l-3.249 3.25A3.977 3.977 0 0 0 16 14m4 2a2 2 0 1 1 2-2 2 2 0 0 1-2 2m6 12h-8v-2h8z" fill="currentColor"/></svg>