<svg xmlns="http://www.w3.org/2000/svg" xmlns:xlink="http://www.w3.org/1999/xlink" viewBox="0 0 32 32"><path d="M28.447 16.105 23 13.383V7a1 1 0 0 0-.553-.894l-6-3a1 1 0 0 0-.894 0l-6 3A1 1 0 0 0 9 7v6.382l-5.447 2.723A1 1 0 0 0 3 17v7a1 1 0 0 0 .553.894l6 3a1 1 0 0 0 .894 0L16 25.119l5.553 2.777a1 1 0 0 0 .894 0l6-3A1 1 0 0 0 29 24v-7a1 1 0 0 0-.553-.895M21 13.383l-4 2v-4.764l4-2zm-5-8.264L19.764 7 16 8.882 12.236 7zm-5 3.5 4 2v4.764l-4-2zM9 25.382l-4-2v-4.764l4 2zm1-6.5L6.236 17 10 15.118 13.764 17zm1 1.736 4-2v4.764l-4 2zm10 4.764-4-2v-4.764l4 2zm1-6.5L18.236 17 22 15.118 25.764 17zm5 4.5-4 2v-4.764l4-2z" fill="currentColor"/></svg>