<svg xmlns="http://www.w3.org/2000/svg" xmlns:xlink="http://www.w3.org/1999/xlink" viewBox="0 0 32 32"><path d="M20 12V2h2v10zm4 0V2h2v10zm4 0V2h2v10zm-12 8a3.91 3.91 0 0 1-4-4 3.91 3.91 0 0 1 4-4v-2a6 6 0 1 0 6 6h-2a3.91 3.91 0 0 1-4 4" fill="currentColor"/><path d="M28.893 18.454 26.098 16l-1.318 1.504 2.792 2.452-2.36 4.088-3.427-1.16a9 9 0 0 1-2.714 1.565L18.36 28h-4.72l-.71-3.55a9.1 9.1 0 0 1-2.695-1.572l-3.447 1.166-2.36-4.088 2.725-2.395a8.9 8.9 0 0 1-.007-3.128l-2.718-2.39 2.36-4.087 3.427 1.16A9 9 0 0 1 12.93 7.55L13.64 4H16V2h-2.36a2 2 0 0 0-1.961 1.608l-.504 2.518a11 11 0 0 0-1.327.754l-2.42-.819a2 2 0 0 0-2.372.895l-2.36 4.088a2 2 0 0 0 .411 2.502l1.931 1.697C5.021 15.495 5 15.745 5 16q0 .387.028.766l-1.92 1.688a2 2 0 0 0-.413 2.502l2.36 4.088a2 2 0 0 0 2.374.895l2.434-.824a11 11 0 0 0 1.312.759l.503 2.518A2 2 0 0 0 13.64 30h4.72a2 2 0 0 0 1.961-1.608l.504-2.519a11 11 0 0 0 1.327-.753l2.419.818a2 2 0 0 0 2.373-.894l2.36-4.088a2 2 0 0 0-.411-2.502" fill="currentColor"/></svg>