<svg xmlns="http://www.w3.org/2000/svg" xmlns:xlink="http://www.w3.org/1999/xlink" viewBox="0 0 32 32"><path d="M12 24h9v2h-9zm1 4h6v2h-6zm-4.217-9.025 1.418-1.418A6.92 6.92 0 0 1 8 12a7.99 7.99 0 0 1 13.527-5.77l1.414-1.413A9.988 9.988 0 0 0 6 12a8.94 8.94 0 0 0 2.783 6.975" fill="currentColor"/><path d="M30 3.414 28.586 2 2 28.586 3.414 30 23.661 9.753A7.7 7.7 0 0 1 24 12a7.2 7.2 0 0 1-2.822 6.143C20.107 19.135 19 20.16 19 22h2c0-.92.526-1.45 1.535-2.386A9.2 9.2 0 0 0 26 12a9.9 9.9 0 0 0-.776-3.81z" fill="currentColor"/></svg>