<svg xmlns="http://www.w3.org/2000/svg" xmlns:xlink="http://www.w3.org/1999/xlink" viewBox="0 0 32 32"><path d="M27 15h4v2h-4zm-4-7.413 3-3L27.416 6l-3 3zM15 1h2v4h-2zM4.586 26l3-3 1.415 1.414-3 3zm0-20L6 4.587l3 3-1.414 1.415zM1 15h4v2H1z" fill="currentColor"/><path d="M26.794 20.342a6.96 6.96 0 0 0-1.868-3.267A9 9 0 0 0 25 16a9 9 0 1 0-14.585 7.033A4.977 4.977 0 0 0 15 30h10a4.995 4.995 0 0 0 1.794-9.658M9 16a6.995 6.995 0 0 1 13.985-.297A6.9 6.9 0 0 0 20 15a7.04 7.04 0 0 0-6.794 5.342 5 5 0 0 0-1.644 1.048A6.97 6.97 0 0 1 9 16m16 12H15a2.994 2.994 0 0 1-.696-5.908l.658-.157.099-.67a4.992 4.992 0 0 1 9.878 0l.099.67.658.156A2.994 2.994 0 0 1 25 28" fill="currentColor"/></svg>