<svg xmlns="http://www.w3.org/2000/svg" xmlns:xlink="http://www.w3.org/1999/xlink" viewBox="0 0 32 32"><path d="M26 16h-8.532l-5-6H5a3.003 3.003 0 0 0-3 3v6a2 2 0 0 0 2 2v7a2 2 0 0 0 2 2h4a2 2 0 0 0 2-2v-7h-2v7H6v-9H4v-6a1 1 0 0 1 1-1h6.532l5 6H26a1 1 0 0 1 1 1v3h-2v6h-3v-6h-2v6a2 2 0 0 0 2 2h3a2 2 0 0 0 2-2v-4a2 2 0 0 0 2-2v-3a3.003 3.003 0 0 0-3-3" fill="currentColor"/><path d="M23.5 15a3.5 3.5 0 1 1 3.5-3.5 3.504 3.504 0 0 1-3.5 3.5m0-5a1.5 1.5 0 1 0 1.5 1.5 1.5 1.5 0 0 0-1.5-1.5M8 9a4 4 0 1 1 4-4 4.004 4.004 0 0 1-4 4m0-6a2 2 0 1 0 2 2 2 2 0 0 0-2-2" fill="currentColor"/></svg>