<svg xmlns="http://www.w3.org/2000/svg" viewBox="0 0 32 32"><circle cx="7.5" cy="9.5" r="1.5" fill="currentColor"/><circle cx="13" cy="13" r="1" fill="currentColor"/><circle cx="22" cy="21" r="1" fill="currentColor"/><path fill="currentColor" d="M25 14a8.98 8.98 0 0 0-7 3.356V13a10.9 10.9 0 0 0-1.01-4.585l-.356-.776-.823.231A3 3 0 0 1 15 8a3.003 3.003 0 0 1-3-3 3 3 0 0 1 .13-.81l.232-.824-.777-.357A10.9 10.9 0 0 0 7 2H2v7a10.9 10.9 0 0 0 2.234 6.627l.389.428.54-.038a5.53 5.53 0 0 1 5.362 3.256l.221.497.538.084A11 11 0 0 0 13 20h3v10h2v-4h3a9.01 9.01 0 0 0 9-9v-3zm-12.898 3.947A7.51 7.51 0 0 0 5.528 14 8.9 8.9 0 0 1 4 9V4h3a8.9 8.9 0 0 1 3.026.53A4 4 0 0 0 10 5a4.966 4.966 0 0 0 5.47 4.974A8.9 8.9 0 0 1 16 13v5h-3a8 8 0 0 1-.898-.053M28 17a7.01 7.01 0 0 1-7 7h-3v-1a7.01 7.01 0 0 1 5.021-6.71A1.497 1.497 0 1 0 26 16.5a1.5 1.5 0 0 0-.092-.5H28z"/></svg>