<svg xmlns="http://www.w3.org/2000/svg" xmlns:xlink="http://www.w3.org/1999/xlink" viewBox="0 0 32 32"><path d="M22 20h8v2h-8zm0 4h8v2h-8zm0 4h8v2h-8zm-4-4h2v2h-2zm0-4h2v2h-2zm0 8h2v2h-2zM6.815 8.293a12.1 12.1 0 0 1 3.192-2.673l-1-1.73a14.1 14.1 0 0 0-3.723 3.118zm18.37 0 1.53-1.285a14.1 14.1 0 0 0-3.723-3.118l-.999 1.73a12.1 12.1 0 0 1 3.192 2.673M4.737 11.9l-1.878-.683A13.9 13.9 0 0 0 2 16h2a11.9 11.9 0 0 1 .737-4.1m2.078 11.807A12 12 0 0 1 4.737 20.1l-1.878.683a14 14 0 0 0 2.425 4.21zM27.263 11.9A11.9 11.9 0 0 1 28 16h2a13.9 13.9 0 0 0-.86-4.783zM13.918 27.807a11.9 11.9 0 0 1-3.911-1.427l-1 1.73a13.9 13.9 0 0 0 4.564 1.664zm0-23.614a11.3 11.3 0 0 1 4.164 0l.347-1.967a13.2 13.2 0 0 0-4.858 0z" fill="currentColor"/></svg>