<svg xmlns="http://www.w3.org/2000/svg" xmlns:xlink="http://www.w3.org/1999/xlink" viewBox="0 0 32 32"><path d="M10 26a4 4 0 1 1 4-4 4.005 4.005 0 0 1-4 4m0-6a2 2 0 1 0 2 2 2 2 0 0 0-2-2m7 0h9v2h-9zm0 4h9v2h-9z" fill="currentColor"/><path d="M20 12h8a2 2 0 0 0 2-2V6a2 2 0 0 0-2-2h-8a2 2 0 0 0-2 2v1h-6a4.005 4.005 0 0 0-4 4v3H6V4H4v10a2 2 0 0 0-2 2v12a2 2 0 0 0 2 2h24a2 2 0 0 0 2-2V16a2 2 0 0 0-2-2H10v-3a2 2 0 0 1 2-2h6v1a2 2 0 0 0 2 2m4-6h4v4h-4zm-4 0h2v4h-2zm8 22H4V16h24z" fill="currentColor"/></svg>