<svg xmlns="http://www.w3.org/2000/svg" viewBox="0 0 32 32"><path fill="currentColor" d="M8.508 32a1 1 0 0 1-.448-.105 1 1 0 0 1-.449-1.342l1.494-3a1.002 1.002 0 0 1 1.794.894l-1.493 3a1 1 0 0 1-.898.553m17.956-15.12 1.414-1.415L30 17.586l-1.414 1.415zM29 10h3v2h-3zm-2.536-4.878L28.585 3 30 4.415l-2.122 2.121zM20 0h2v3h-2zm-8 4.414L13.414 3l2.121 2.121-1.414 1.415zM27 11a5.995 5.995 0 0 0-11.367-2.669A7.4 7.4 0 0 0 13.5 8a7.55 7.55 0 0 0-7.15 5.244A5.993 5.993 0 0 0 8 25h7.382l-1.276 2.553a1 1 0 1 0 1.788.894L17.619 25H19a5.985 5.985 0 0 0 5.216-8.946A6 6 0 0 0 27 11m-8 12H8a3.993 3.993 0 0 1-.673-7.93l.663-.112.146-.656a5.496 5.496 0 0 1 10.73 0l.145.656.663.113A3.993 3.993 0 0 1 19 23m3.927-8.51a6 6 0 0 0-2.278-1.246 7.52 7.52 0 0 0-3.185-4.069 3.987 3.987 0 1 1 5.463 5.314z"/></svg>