<svg xmlns="http://www.w3.org/2000/svg" viewBox="0 0 32 32"><path fill="currentColor" d="M30 23v-2h-2v-2h-2v2h-3v-2h-2v2h-2v2h2v3h-2v2h2v2h2v-2h3v2h2v-2h2v-2h-2v-3zm-4 3h-3v-3h3z"/><path fill="currentColor" d="M4.83 20.355A24.95 24.95 0 0 0 15 22.965v-2a22.9 22.9 0 0 1-10.867-3.273A12 12 0 0 1 4 16a12 12 0 0 1 .133-1.69 22.93 22.93 0 0 1 23.734 0A12 12 0 0 1 28 16h2a14 14 0 1 0-14 14v-2a12.01 12.01 0 0 1-11.17-7.645M16 4a12.01 12.01 0 0 1 11.17 7.646 24.9 24.9 0 0 0-22.34 0A12.01 12.01 0 0 1 16 4"/></svg>