<svg xmlns="http://www.w3.org/2000/svg" xmlns:xlink="http://www.w3.org/1999/xlink" viewBox="0 0 32 32"><path d="M19 29a1 1 0 0 1-.768-.36l-10-12a1 1 0 0 1 0-1.28l10-12A1 1 0 0 1 20 4v7.032c7.007.463 11 5.86 11 14.968a1 1 0 0 1-1.8.6c-2.822-3.762-5.391-5.346-9.2-5.571V28a1 1 0 0 1-1 1m-8.698-13L18 25.238V20a1 1 0 0 1 1-1 12.71 12.71 0 0 1 9.841 4.09C28.086 16.556 24.66 13 19 13a1 1 0 0 1-1-1V6.762z" fill="currentColor"/><path d="M11.464 28.918 1.232 16.64a1 1 0 0 1 0-1.28L11.464 3.08 13 4.36 3.302 16 13 27.638z" fill="currentColor"/></svg>