<svg xmlns="http://www.w3.org/2000/svg" viewBox="0 0 32 32"><path fill="currentColor" d="m25.95 7.65.005-.004c-.092-.11-.197-.206-.293-.312-.184-.205-.367-.41-.563-.603-.139-.136-.286-.262-.43-.391a12 12 0 0 0-.558-.482c-.16-.128-.325-.247-.49-.367q-.287-.211-.585-.406a14 14 0 0 0-.533-.324q-.308-.179-.625-.341a12 12 0 0 0-1.238-.55c-.19-.072-.378-.145-.571-.208-.246-.082-.498-.15-.75-.217-.186-.049-.368-.102-.556-.143-.29-.063-.587-.107-.883-.15-.16-.023-.315-.056-.476-.073A12.93 12.93 0 0 0 6 7.703V4H4v8h8v-2H6.811A10.96 10.96 0 0 1 16 5a11 11 0 0 1 1.189.067c.136.015.268.042.403.061.25.037.501.075.746.128.16.035.315.08.472.121.213.057.425.114.633.183q.245.083.486.178a10 10 0 0 1 1.047.465q.268.136.526.286.23.133.453.276.25.165.492.342c.14.102.282.203.417.312.162.13.316.268.47.406.123.11.248.217.365.332.167.164.323.338.479.512A10.993 10.993 0 1 1 5 16H3a13 13 0 1 0 22.95-8.35"/></svg>