<svg xmlns="http://www.w3.org/2000/svg" xmlns:xlink="http://www.w3.org/1999/xlink" viewBox="0 0 32 32"><path d="m17.91 26.82.35 2a12.9 12.9 0 0 0 4.24-1.54l-1-1.73a10.9 10.9 0 0 1-3.59 1.27m6.51-3.75L26 24.35a13 13 0 0 0 2.24-3.91l-1.87-.68a11 11 0 0 1-1.95 3.31M9.5 27.25a12.9 12.9 0 0 0 4.24 1.54l.35-2a10.9 10.9 0 0 1-3.59-1.3zm-3.83-7.49-1.87.68A13 13 0 0 0 6 24.35l.32-.26 1.22-1a11 11 0 0 1-1.91-3.31zM29 16a12.9 12.9 0 0 0-.8-4.44l-1.87.68A11.2 11.2 0 0 1 27 16zm-3-8.35a13 13 0 0 0-20 0V4H4v8h8v-2H6.81a11 11 0 0 1 17.61-1.07z" fill="currentColor"/></svg>