<svg xmlns="http://www.w3.org/2000/svg" xmlns:xlink="http://www.w3.org/1999/xlink" viewBox="0 0 32 32"><path d="m14.091 26.823-.346 1.968a12.9 12.9 0 0 1-4.24-1.541l1-1.731a10.9 10.9 0 0 0 3.586 1.305zm-6.514-3.755-1.532 1.285a13 13 0 0 1-2.25-3.91l1.877-.684a11 11 0 0 0 1.905 3.31zm14.918 4.182a12.9 12.9 0 0 1-4.24 1.542l-.347-1.968a10.9 10.9 0 0 0 3.587-1.305zm3.832-7.491 1.878.683a13 13 0 0 1-2.25 3.911l-.311-.261-1.22-1.024a11 11 0 0 0 1.903-3.31zM13.662 5.256c-.16.034-.315.08-.472.121a11 11 0 0 0-.633.183q-.245.083-.486.178a10 10 0 0 0-1.046.465q-.268.136-.526.286-.23.133-.454.276-.25.165-.492.342c-.14.102-.281.203-.417.312-.161.13-.315.268-.47.406-.122.11-.248.217-.365.332-.167.164-.322.338-.478.512A10.94 10.94 0 0 0 5 16H3a12.94 12.94 0 0 1 3.05-8.35l-.005-.004c.092-.11.197-.206.293-.312.184-.205.367-.41.563-.603.139-.136.286-.262.43-.391.183-.165.366-.329.558-.482.16-.128.325-.247.49-.367q.287-.211.585-.406.263-.169.532-.324.309-.179.626-.341a12 12 0 0 1 1.238-.55c.19-.072.378-.145.571-.208.246-.082.498-.15.75-.217.186-.049.368-.102.556-.143.29-.063.587-.107.884-.15.159-.023.314-.056.475-.073A12.93 12.93 0 0 1 26 7.703V4h2v8h-8v-2h5.189A10.96 10.96 0 0 0 16 5a11 11 0 0 0-1.189.067c-.136.015-.268.042-.403.061-.25.037-.501.075-.746.128" fill="currentColor"/></svg>