<svg xmlns="http://www.w3.org/2000/svg" xmlns:xlink="http://www.w3.org/1999/xlink" viewBox="0 0 32 32"><circle cx="16" cy="13.5" r="1.5" fill="currentColor"/><path d="M19.536 10.465a5 5 0 0 0-7.072 0L11.05 9.05a7 7 0 0 1 9.9 0z" fill="currentColor"/><path d="M23.071 6.929a10 10 0 0 0-14.142 0L7.515 5.514a12 12 0 0 1 16.97 0zM21 25l-5 5-5-5 1.409-1.419L15 26.153V19h2v7.206l2.591-2.625zm3-14-5 5 5 5 1.419-1.409L22.847 17H30v-2h-7.206l2.625-2.591zM8 11l5 5-5 5-1.419-1.409L9.153 17H2v-2h7.206l-2.625-2.591z" fill="currentColor"/></svg>