<svg xmlns="http://www.w3.org/2000/svg" xmlns:xlink="http://www.w3.org/1999/xlink" viewBox="0 0 32 32"><path d="m21 25-5 5-5-5 1.409-1.419L15 26.153V19h2v7.206l2.591-2.625zm3-14-5 5 5 5 1.419-1.409L22.847 17H30v-2h-7.206l2.625-2.591zM8 11l5 5-5 5-1.419-1.409L9.153 17H2v-2h7.206l-2.625-2.591zm4.429-5.177v1.63a1.13 1.13 0 0 1-.677 1.026l-1.39.596a1.12 1.12 0 0 1-1.222-.233L7.32 7.023a1.117 1.117 0 0 1 .013-1.579l.035-.032c7.393-6.527 14.691-2.038 17.213-.048a1.117 1.117 0 0 1 .174 1.57 1 1 0 0 1-.087.097l-1.757 1.757a1.11 1.11 0 0 1-1.223.233l-1.39-.597a1.11 1.11 0 0 1-.68-1.022v-1.63s-3.645-2.707-7.19.05z" fill="currentColor"/></svg>