<svg xmlns="http://www.w3.org/2000/svg" xmlns:xlink="http://www.w3.org/1999/xlink" viewBox="0 0 32 32"><path d="M6.97 25h2.06l-.75-3h15.44l-.75 3h2.06l.94-3.758A1 1 0 0 0 25 20h-5v-3h5a1 1 0 0 0 .908-1.419l-6-13a1 1 0 0 0-1.702-.19l-9.998 13A1 1 0 0 0 9 17h9v3H7a1 1 0 0 0-.97 1.242zM20 7.553 23.437 15H20zM11.03 15 18 5.94V15z" fill="currentColor"/><path d="M26.906 25.751A3 3 0 0 1 24 28a3.44 3.44 0 0 1-3.051-2.316A1.01 1.01 0 0 0 20 25a.99.99 0 0 0-.947.679A3.44 3.44 0 0 1 16 28a3.44 3.44 0 0 1-3.051-2.316A1.01 1.01 0 0 0 12 25a.97.97 0 0 0-.947.679A3.44 3.44 0 0 1 8 28a3 3 0 0 1-2.906-2.249l-1.936.498A5 5 0 0 0 8 30a4.93 4.93 0 0 0 4-1.987 5.02 5.02 0 0 0 8 0A4.93 4.93 0 0 0 24 30a5 5 0 0 0 4.842-3.751z" fill="currentColor"/></svg>