<svg xmlns="http://www.w3.org/2000/svg" xmlns:xlink="http://www.w3.org/1999/xlink" viewBox="0 0 32 32"><path d="M30 2H2v14h6.111a7 7 0 0 1 3.13.74L15.764 19l-4.522 2.26a7 7 0 0 1-3.13.74H2v8h7.223a9.05 9.05 0 0 0 4.025-.95l8.622-4.31A7 7 0 0 1 25 24h5V14h-5a7 7 0 0 1-3.13-.74L15.348 10H30zM8 4h16v4H8zM4 4h2v10H4zm0 20h2v4H4zm16.975-1.05-8.622 4.31a7 7 0 0 1-3.13.74H8v-4h.111a9.05 9.05 0 0 0 4.025-.95L18 20.118l1.864.932a9.05 9.05 0 0 0 4.025.95H24v.058a9 9 0 0 0-3.025.892M28 22h-2v-6h2zM12.354 10.74l8.621 4.31a9 9 0 0 0 3.025.89V20h-.111a7 7 0 0 1-3.13-.74l-8.622-4.31A9.05 9.05 0 0 0 8.11 14H8v-4h1.223a7 7 0 0 1 3.13.74zM28 8h-2V4h2z" fill="currentColor"/></svg>