<svg xmlns="http://www.w3.org/2000/svg" xmlns:xlink="http://www.w3.org/1999/xlink" viewBox="0 0 32 32"><path d="M26.5 12H19a4 4 0 0 1 0-8h.084A4.79 4.79 0 0 1 23 2a4.98 4.98 0 0 1 4.654 3.203A3.47 3.47 0 0 1 30 8.5a3.504 3.504 0 0 1-3.5 3.5M19 6a2 2 0 0 0 0 4h7.5A1.5 1.5 0 0 0 28 8.5a1.486 1.486 0 0 0-1.278-1.474l-.661-.099-.162-.649a2.957 2.957 0 0 0-5.487-.712L20.114 6zm-6 22v-3.112a7.94 7.94 0 0 0 4.707-2.282 1 1 0 0 0 0-1.414l-4.243-4.242L16 14.414 14.586 13l-2.536 2.536-4.242-4.243a1 1 0 0 0-1.414 0 8 8 0 0 0 0 11.313c.162.163.332.313.505.46L4.432 28H2v2h28v-2zm-2 0H6.668l1.922-3.843a7.9 7.9 0 0 0 2.41.716zm-3.192-6.808a6.004 6.004 0 0 1-.65-7.72l8.37 8.369a6 6 0 0 1-7.72-.649" fill="currentColor"/></svg>