<svg xmlns="http://www.w3.org/2000/svg" viewBox="0 0 32 32"><path fill="currentColor" d="m22.914 16.5 2.793-2.793a1 1 0 0 0 0-1.414L23.414 10 25.5 7.914 28.586 11 30 9.586 22.414 2 21 3.414 24.086 6.5 22 8.586l-2.293-2.293a1 1 0 0 0-1.414 0L15.5 9.086 8.707 2.293a1 1 0 0 0-1.414 0l-5 5a1 1 0 0 0 0 1.414L9.086 15.5l-2.793 2.793a1 1 0 0 0 0 1.414L8.586 22 6.5 24.086 3.414 21 2 22.414 9.586 30 11 28.586 7.914 25.5 10 23.414l2.293 2.293a1 1 0 0 0 1.414 0l2.793-2.793 6.793 6.793a1 1 0 0 0 1.414 0l5-5a1 1 0 0 0 0-1.414zM4.414 8 8 4.414 10.086 6.5 6.5 10.086zm3.5 3.5L11.5 7.914l2.586 2.586-3.586 3.586zM13 23.586 8.414 19 19 8.414 23.586 13zm4.914-2.086 3.586-3.586 2.586 2.586-3.586 3.586zM24 27.586 21.914 25.5l3.586-3.586L27.586 24z"/></svg>