<svg xmlns="http://www.w3.org/2000/svg" viewBox="0 0 32 32"><path fill="currentColor" d="M28.828 7.134a4.094 4.094 0 0 0-5.656 0L.343 29.962H9.59a4.97 4.97 0 0 0 3.536-1.465L28.828 12.79a4 4 0 0 0 0-5.656M12.293 20.84l2.086-2.086 2.83 2.83-2.087 2.085zm-.583 6.242a2.98 2.98 0 0 1-2.122.879H5.171l5.708-5.707 2.83 2.83zm15.704-15.707-8.792 8.794-2.83-2.83 8.794-8.792a2.047 2.047 0 0 1 2.828 0 2 2 0 0 1 0 2.828M11 2H7a4.984 4.984 0 0 0-3.863 8.153A3 3 0 0 0 3 11a2.99 2.99 0 0 0 2 2.815V14a2 2 0 0 1-2 2H2v2h1a4.005 4.005 0 0 0 4-4v-.184A3 3 0 0 0 8.816 12H11a5 5 0 0 0 0-10M6 12a1 1 0 1 1 1-1 1 1 0 0 1-1 1m5-2H8.816a2.974 2.974 0 0 0-4.422-1.525A2.99 2.99 0 0 1 7 4h4a3 3 0 0 1 0 6"/></svg>