<svg xmlns="http://www.w3.org/2000/svg" xmlns:xlink="http://www.w3.org/1999/xlink" viewBox="0 0 32 32"><path d="M30 24v-2h-2.101a5 5 0 0 0-.732-1.753l1.49-1.49-1.414-1.414-1.49 1.49A5 5 0 0 0 24 18.101V16h-2v2.101a5 5 0 0 0-1.753.732l-1.49-1.49-1.414 1.414 1.49 1.49A5 5 0 0 0 18.101 22H16v2h2.101a5 5 0 0 0 .732 1.753l-1.49 1.49 1.414 1.414 1.49-1.49a5 5 0 0 0 1.753.732V30h2v-2.101a5 5 0 0 0 1.753-.732l1.49 1.49 1.414-1.414-1.49-1.49A5 5 0 0 0 27.899 24zm-7 2a3 3 0 1 1 3-3 3.003 3.003 0 0 1-3 3" fill="currentColor"/><path d="m14 26.667-3.234-1.725A8.99 8.99 0 0 1 6 17V4h20v10h2V4a2 2 0 0 0-2-2H6a2 2 0 0 0-2 2v13a10.98 10.98 0 0 0 5.824 9.707L14 28.934z" fill="currentColor"/></svg>