<svg xmlns="http://www.w3.org/2000/svg" viewBox="0 0 32 32"><path fill="currentColor" d="M28 20h-2v2h2v6H4v-6h2v-2H4a2 2 0 0 0-2 2v6a2 2 0 0 0 2 2h24a2 2 0 0 0 2-2v-6a2 2 0 0 0-2-2"/><circle cx="7" cy="25" r="1" fill="currentColor"/><path fill="currentColor" d="M16 22a1 1 0 0 1-.447-.105l-10-5 .894-1.79L16 19.883l9.553-4.777.894 1.79-10 5A1 1 0 0 1 16 22"/><path fill="currentColor" d="M16 16a1 1 0 0 1-.447-.105l-10-5a1 1 0 0 1 0-1.79l10-5a1 1 0 0 1 .894 0l10 5a1 1 0 0 1 0 1.79l-10 5A1 1 0 0 1 16 16m-7.764-6L16 13.882 23.764 10 16 6.118z"/></svg>