<svg xmlns="http://www.w3.org/2000/svg" xmlns:xlink="http://www.w3.org/1999/xlink" viewBox="0 0 32 32"><path d="M2 26h2v2H2zm2 2h2v2H4zm2 2h2v2H6zm0-4h2v2H6zm-4 4h2v2H2zm18-4h2v2h-2zm2 2h2v2h-2zm2 2h2v2h-2zm0-4h2v2h-2zm-4 4h2v2h-2zm-9-4h2v2h-2zm2 2h2v2h-2zm2 2h2v2h-2zm0-4h2v2h-2zm-4 4h2v2h-2zm9-30h2v3h-2zm9 10.001h3v2h-3zm-2.536-4.879L28.585 3 30 4.415l-2.12 2.121zM28.586 19l-2.121-2.12 1.414-1.415L30 17.587zM14.12 6.536 12 4.415l1.414-1.414 2.121 2.121z" fill="currentColor"/><path d="M27 11a5.985 5.985 0 0 0-10.857-3.492A7.4 7.4 0 0 0 13.5 7a7.55 7.55 0 0 0-7.15 5.244A5.993 5.993 0 0 0 8 24h11a5.967 5.967 0 0 0 5.567-8.2A5.97 5.97 0 0 0 27 11m-8 11H8a3.993 3.993 0 0 1-.673-7.93l.663-.112.145-.656a5.496 5.496 0 0 1 10.73 0l.145.656.663.113A3.993 3.993 0 0 1 19 22m4.522-7.913a5.96 5.96 0 0 0-2.873-1.843 7.52 7.52 0 0 0-2.722-3.78 3.987 3.987 0 1 1 5.595 5.623" fill="currentColor"/></svg>