<svg xmlns="http://www.w3.org/2000/svg" xmlns:xlink="http://www.w3.org/1999/xlink" viewBox="0 0 32 32"><path d="m25.14 23.764 1.532 1.285a14 14 0 0 0 2.441-4.182l-1.878-.683a12 12 0 0 1-2.094 3.58zM18 27.81l.413 1.968a13.9 13.9 0 0 0 4.541-1.638L22 26.409a12.5 12.5 0 0 1-4 1.401m-8-1.401L9 28.14a14.1 14.1 0 0 0 4.587 1.638l.347-1.967A12.2 12.2 0 0 1 10 26.409m-5.235-6.225-1.878.683a14 14 0 0 0 2.44 4.182l1.532-1.285a12 12 0 0 1-2.094-3.58M16 22a1.5 1.5 0 1 0 1.5 1.5A1.5 1.5 0 0 0 16 22M15 8h2v11h-2z" fill="currentColor"/><path d="M30 16h-2a12 12 0 0 0-24 0H2a14 14 0 0 1 28 0" fill="currentColor"/></svg>