<svg xmlns="http://www.w3.org/2000/svg" xmlns:xlink="http://www.w3.org/1999/xlink" viewBox="0 0 32 32"><path d="M28 30H4a2 2 0 0 1-2-2V4a2 2 0 0 1 2-2h24a2 2 0 0 1 2 2v24a2 2 0 0 1-2 2M4 4v24h24V4z" fill="currentColor"/><path d="M17.5 13A3.5 3.5 0 1 1 21 9.5a3.504 3.504 0 0 1-3.5 3.5m0-5A1.5 1.5 0 1 0 19 9.5 1.5 1.5 0 0 0 17.5 8m-3 18a3.5 3.5 0 1 1 3.5-3.5 3.504 3.504 0 0 1-3.5 3.5m0-5a1.5 1.5 0 1 0 1.5 1.5 1.5 1.5 0 0 0-1.5-1.5m-5-3a3.5 3.5 0 1 1 3.5-3.5A3.504 3.504 0 0 1 9.5 18m0-5a1.5 1.5 0 1 0 1.5 1.5A1.5 1.5 0 0 0 9.5 13m13 8a3.5 3.5 0 1 1 3.5-3.5 3.504 3.504 0 0 1-3.5 3.5m0-5a1.5 1.5 0 1 0 1.5 1.5 1.5 1.5 0 0 0-1.5-1.5" fill="currentColor"/></svg>