<svg xmlns="http://www.w3.org/2000/svg" xmlns:xlink="http://www.w3.org/1999/xlink" viewBox="0 0 32 32"><path d="M15.347 29.985a14 14 0 0 1-4.205-.852l.694-1.875a12 12 0 0 0 3.603.73zm4.265-.456-.514-1.932a11.9 11.9 0 0 0 3.363-1.483l1.078 1.685a13.9 13.9 0 0 1-3.927 1.73M7.395 27.044a14 14 0 0 1-2.94-3.122l1.648-1.133a12 12 0 0 0 2.522 2.678zm-4.798-6.99A14 14 0 0 1 2 16h2a12 12 0 0 0 .512 3.476zM26 17l-1.414 1.414L26.172 20H15.816a3 3 0 0 0-.275-.576l4.481-5.601A3 3 0 0 0 21 14a3 3 0 1 0-2.816-4h-4.368a2.982 2.982 0 0 0-5.632 0H2v2h6.184a2.982 2.982 0 0 0 5.632 0h4.368a3 3 0 0 0 .274.576l-4.48 5.601A3 3 0 0 0 13 18a3 3 0 1 0 2.816 4h10.356l-1.586 1.586L26 25l4-4zm-5-7a1 1 0 1 1-1 1 1 1 0 0 1 1-1m-10 2a1 1 0 1 1 1-1 1 1 0 0 1-1 1m2 10a1 1 0 1 1 1-1 1 1 0 0 1-1 1m15-6a12 12 0 0 0-.512-3.476l1.915-.578A14 14 0 0 1 30 16zm-2.104-6.789a12 12 0 0 0-2.522-2.678l1.23-1.577a14 14 0 0 1 2.94 3.122zM9.54 5.886 8.461 4.201a13.9 13.9 0 0 1 3.927-1.73l.514 1.932A11.9 11.9 0 0 0 9.54 5.886m10.625-1.144a12 12 0 0 0-3.603-.73l.092-1.997a14 14 0 0 1 4.205.851z" fill="currentColor"/></svg>