<svg xmlns="http://www.w3.org/2000/svg" xmlns:xlink="http://www.w3.org/1999/xlink" viewBox="0 0 32 32"><path d="M7.667 27.503 2 22.448l1.331-1.492 5.641 5.031 7.69-7.445a1.93 1.93 0 0 1 2.674-.008l3.624 3.464 5.58-5.973L30 17.39l-5.581 5.975a1.996 1.996 0 0 1-2.838.08l-3.577-3.419-7.666 7.42a1.963 1.963 0 0 1-2.671.056zM30 11h-4l2-3zm-8-7h-4v2h4v2h-3v2h3v2h-4v2h4a2.003 2.003 0 0 0 2-2V6a2 2 0 0 0-2-2m-6 10h-6v-4a2 2 0 0 1 2-2h2V6h-4V4h4a2 2 0 0 1 2 2v2a2 2 0 0 1-2 2h-2v2h4zM6 12V4H4v1H2v2h2v5H2v2h6v-2z" fill="currentColor"/></svg>