<svg xmlns="http://www.w3.org/2000/svg" xmlns:xlink="http://www.w3.org/1999/xlink" viewBox="0 0 32 32"><path d="M30 26h-2a4.93 4.93 0 0 1-4-1.987 5.02 5.02 0 0 1-8 0 5.02 5.02 0 0 1-8 0A4.93 4.93 0 0 1 4 26H2v-2h2a3.44 3.44 0 0 0 3.053-2.321A.97.97 0 0 1 8 21a1.01 1.01 0 0 1 .949.684A3.44 3.44 0 0 0 12 24a3.44 3.44 0 0 0 3.053-2.321A.99.99 0 0 1 16 21a1.01 1.01 0 0 1 .949.684A3.44 3.44 0 0 0 20 24a3.44 3.44 0 0 0 3.053-2.321 1 1 0 0 1 1.896.005A3.44 3.44 0 0 0 28 24h2zm-7-8.414-8.707-8.707A2.98 2.98 0 0 0 12.171 8H4v2h8.171a1 1 0 0 1 .708.293L15.586 13 10 18.586 11.414 20 17 14.414 21.586 19zM20 10a4 4 0 1 1 4 4 4.004 4.004 0 0 1-4-4m2 0a2 2 0 1 0 2-2 2 2 0 0 0-2 2" fill="currentColor"/></svg>