<svg xmlns="http://www.w3.org/2000/svg" xmlns:xlink="http://www.w3.org/1999/xlink" viewBox="0 0 32 32"><path d="M22 4v2h2.586l-5 5L21 12.414l5-5V10h2V4zM10 4v2H7.414l5 5L11 12.414l-5-5V10H4V4zm10 1-4-4-4 4 1.414 1.414L15 4.829V11h2V4.829l1.586 1.585zm2 23v-2h2.586l-5-5L21 19.586l5 5V22h2v6zm-12 0v-2H7.414l5-5L11 19.586l-5 5V22H4v6zm10-1-4 4-4-4 1.414-1.414L15 27.171V21h2v6.171l1.586-1.585zM5 12l-4 4 4 4 1.414-1.414L4.829 17H11v-2H4.829l1.585-1.586zm22 0 4 4-4 4-1.414-1.414L27.171 17H21v-2h6.171l-1.585-1.586z" fill="currentColor"/></svg>