<svg xmlns="http://www.w3.org/2000/svg" xmlns:xlink="http://www.w3.org/1999/xlink" viewBox="0 0 32 32"><path d="m29.707 7.293-3-3a1 1 0 0 0-1.414 0L16 13.586V18h4.414l9.293-9.293a1 1 0 0 0 0-1.414M19.586 16H18v-1.586l5-5L24.586 11zM26 9.586 24.414 8 26 6.414 27.586 8zM10 14a4 4 0 1 1 4-4 4.005 4.005 0 0 1-4 4m0-6a2 2 0 1 0 1.998 2.004A2 2 0 0 0 10 8" fill="currentColor"/><path d="m27.006 14.235-1.414 1.414L28 18.058 18.058 28 4 13.941V4h9.942l4.406 4.407 1.415-1.415-4.407-4.406A2 2 0 0 0 13.94 2H4a2 2 0 0 0-2 2v9.941a2 2 0 0 0 .586 1.414l14.058 14.06a2 2 0 0 0 2.828 0l9.943-9.943a2 2 0 0 0 0-2.828z" fill="currentColor"/></svg>