<svg xmlns="http://www.w3.org/2000/svg" viewBox="0 0 32 32"><path fill="currentColor" d="M23.092 10.322 30 3.414 28.586 2 2 28.586 3.414 30l6.908-6.908 6.322 6.323a2 2 0 0 0 2.828 0l9.943-9.943a2 2 0 0 0 0-2.828zM18.058 28l-6.322-6.322 9.942-9.942L28 18.058zM10 14a4 4 0 1 1 4-4 4.005 4.005 0 0 1-4 4m0-6a2 2 0 1 0 1.998 2.004A2 2 0 0 0 10 8"/><path fill="currentColor" d="m7.493 20.263 1.414-1.414L4 13.94V4h9.942l4.907 4.907 1.414-1.414-4.908-4.907A2 2 0 0 0 13.941 2H4a2 2 0 0 0-2 2v9.941a2 2 0 0 0 .586 1.414z"/></svg>