<svg xmlns="http://www.w3.org/2000/svg" viewBox="0 0 32 32"><path fill="currentColor" d="M14 9a4.93 4.93 0 0 0 4-1.987 5.02 5.02 0 0 0 8 0A4.93 4.93 0 0 0 30 9V7a3.44 3.44 0 0 1-3.051-2.316A1.01 1.01 0 0 0 26 4a.99.99 0 0 0-.947.679A3.44 3.44 0 0 1 22 7a3.44 3.44 0 0 1-3.051-2.316A1.01 1.01 0 0 0 18 4a.97.97 0 0 0-.947.679A3.44 3.44 0 0 1 14 7h-1V6a4 4 0 0 0-8 0v11.262a7.013 7.013 0 1 0 8.873.738H14a4.93 4.93 0 0 0 4-1.987 5.02 5.02 0 0 0 8 0A4.93 4.93 0 0 0 30 18v-2a3.44 3.44 0 0 1-3.051-2.316A1.01 1.01 0 0 0 26 13a.99.99 0 0 0-.947.679A3.44 3.44 0 0 1 22 16a3.44 3.44 0 0 1-3.051-2.316A1.01 1.01 0 0 0 18 13a.97.97 0 0 0-.947.679A3.44 3.44 0 0 1 14 16h-1V9zM7 6a2 2 0 0 1 4 0v6H7zm2 22a4.997 4.997 0 0 1-2.499-9.325l.499-.29V14h4v4.386l.499.289A4.997 4.997 0 0 1 9 28"/></svg>