<svg xmlns="http://www.w3.org/2000/svg" xmlns:xlink="http://www.w3.org/1999/xlink" viewBox="0 0 32 32"><path d="m13.338 30-1.736-1 2.287-4H10l3.993-7 1.737 1-2.284 4h3.891z" fill="currentColor"/><path d="M27 11a5.995 5.995 0 0 0-11.367-2.669A7.4 7.4 0 0 0 13.5 8a7.55 7.55 0 0 0-7.15 5.244A5.993 5.993 0 0 0 8 25v-2a3.993 3.993 0 0 1-.673-7.93l.663-.112.146-.656a5.496 5.496 0 0 1 10.73 0l.145.656.663.113A3.993 3.993 0 0 1 19 23v2a5.985 5.985 0 0 0 5.216-8.946A6 6 0 0 0 27 11m-4.073 3.49a6 6 0 0 0-2.278-1.246 7.52 7.52 0 0 0-3.185-4.069 3.987 3.987 0 1 1 5.463 5.314zM28.586 19l-2.121-2.12 1.414-1.415L30 17.587zM29 10h3v2h-3zm-2.536-4.878L28.585 3 30 4.415l-2.12 2.121zM20 0h2v3h-2zm-5.88 6.536L12 4.415l1.414-1.414 2.121 2.121z" fill="currentColor"/></svg>