<svg xmlns="http://www.w3.org/2000/svg" xmlns:xlink="http://www.w3.org/1999/xlink" viewBox="0 0 32 32"><path d="M26 9.42 24.59 8l-2.585 2.585L22 10.58l-.005.005L19.42 8.01 18 9.42 20.58 12 18 14.58 19.41 16l2.585-2.585.005.005.005-.005 2.575 2.575L26 14.58 23.42 12zm-12 8L12.59 16l-2.585 2.585L10 18.58l-.005.005L7.42 16.01 6 17.42 8.58 20 6 22.58 7.41 24l2.585-2.585.005.005.005-.005 2.575 2.575L14 22.58 11.42 20zM2 2h2v28H2zm26 0h2v28h-2zM15 2h2v4h-2zm0 8h2v4h-2zm0 8h2v4h-2zm0 8h2v4h-2z" fill="currentColor"/></svg>