<svg xmlns="http://www.w3.org/2000/svg" viewBox="0 0 32 32"><path fill="currentColor" d="M2 28h28v2H2zm9.485-14.072 4.243-4.243 1.414 1.415-4.243 4.242z"/><path fill="currentColor" d="m12.082 23.433 4.116 2.318a2.01 2.01 0 0 0 2.386-.335l8.832-8.832a2.01 2.01 0 0 0 .334-2.386l-2.298-4.136 1.79-1.79-1.414-1.414-1.414 1.414-4.95-4.95a2.003 2.003 0 0 0-2.828 0L14.515 1.2 13.1 2.615l2.121 2.121-8.485 8.486-2.12-2.122L3.2 12.515l2.121 2.12a2 2 0 0 0 0 2.83l4.95 4.95-1.414 1.413 1.414 1.414zm13.92-8.264-8.833 8.833-4.546-2.525 10.854-10.854zM9.564 18.88l1.414-1.415-1.414-1.414-1.414 1.414-1.415-1.414L18.05 4.736l1.414 1.415-1.414 1.414 1.414 1.414 1.415-1.414 1.414 1.414-11.314 11.314z"/></svg>