<svg xmlns="http://www.w3.org/2000/svg" viewBox="0 0 32 32"><path fill="currentColor" d="M11 21h6v2h-6z"/><path fill="currentColor" d="m24.246 8 1.714 6H30v-2h-2.531l-1.3-4.549A2.01 2.01 0 0 0 24.246 6h-1.349l-.728-2.549A2.01 2.01 0 0 0 20.245 2H7.754a2.01 2.01 0 0 0-1.922 1.45L4.532 8H2v2h4.04l1.714-6h12.492l.571 2h-9.063a2.01 2.01 0 0 0-1.922 1.45L8.816 11H7.714a2 2 0 0 0-1.891 1.352L4.57 16H2v2h2v7a2 2 0 0 0 2 2v3h2v-3h12v3h2v-3a2 2 0 0 0 2-2v-7h2v-2h-2.571l-1.251-3.647A2 2 0 0 0 20.286 11h-9.389l.857-3zM22 19v2h-2v2h2v2H6v-2h2v-2H6v-2zm-.343-2H6.343l1.371-4h12.572z"/></svg>