<svg xmlns="http://www.w3.org/2000/svg" xmlns:xlink="http://www.w3.org/1999/xlink" viewBox="0 0 32 32"><path d="M29.912 13.935 23.628 2.371a.718.718 0 0 0-1.256 0l-6.284 11.564A.72.72 0 0 0 16.72 15h12.56a.72.72 0 0 0 .631-1.065zM22.25 6h1.5v4h-1.5zm.75 7a1 1 0 1 1 1-1 1 1 0 0 1-1 1m3 6v-2h-9v11a2.003 2.003 0 0 0 2 2h3v-2h-3v-9zM12 30H9v-2h3V15.566l-3.515-2.109 1.03-1.714 3.514 2.108A2.01 2.01 0 0 1 14 15.566V28a2 2 0 0 1-2 2" fill="currentColor"/><path d="m18.664 5.006.96-1.767A8.93 8.93 0 0 0 15 2a8.03 8.03 0 0 0-6.921 4.001L8 6a6 6 0 0 0 0 12v-2a4 4 0 0 1 0-8 3 3 0 0 1 .387.04l.863.113.309-.667A6.02 6.02 0 0 1 15 4a6.9 6.9 0 0 1 3.664 1.006" fill="currentColor"/></svg>