<svg xmlns="http://www.w3.org/2000/svg" xmlns:xlink="http://www.w3.org/1999/xlink" viewBox="0 0 32 32"><path d="M27.949 25.684a1 1 0 0 0-1.896-.005A3.44 3.44 0 0 1 23 28a3.44 3.44 0 0 1-3.053-2.321 1 1 0 0 0-1.896.005A3.44 3.44 0 0 1 15 28h-.434C13.924 26.794 12 22.312 12 12v-.131l1.117.744a6.5 6.5 0 0 1 1.318 1.177l1-1.842a8.5 8.5 0 0 0-1.209-.998L12.802 10h1.531a7 7 0 0 1 1.994.307l.975-1.795A9 9 0 0 0 14.333 8h-1.216A7.03 7.03 0 0 1 18 6h.667l1.087-2H18a9.04 9.04 0 0 0-7 3.364A9.04 9.04 0 0 0 4 4H2v2h2a7.03 7.03 0 0 1 4.883 2H7.667a9.06 9.06 0 0 0-5.4 1.8L.4 11.2l1.2 1.6 1.867-1.4a7.04 7.04 0 0 1 4.2-1.4h1.53l-1.424.95A8.46 8.46 0 0 0 4 18h2a6.46 6.46 0 0 1 2.883-5.387L10 11.87V12c0 8.937 1.4 13.754 2.355 16H2v2h13a4.93 4.93 0 0 0 4-1.987 5.02 5.02 0 0 0 8 0 5 5 0 0 0 3 1.883v-2.084a3.76 3.76 0 0 1-2.051-2.128" fill="currentColor"/><path d="M29.912 13.935 23.628 2.371a.718.718 0 0 0-1.256 0l-6.284 11.564A.72.72 0 0 0 16.72 15h12.56a.72.72 0 0 0 .631-1.065zM22.25 6h1.5v4h-1.5zm.75 7a1 1 0 1 1 1-1 1 1 0 0 1-1 1" fill="currentColor"/></svg>