<svg xmlns="http://www.w3.org/2000/svg" xmlns:xlink="http://www.w3.org/1999/xlink" viewBox="0 0 32 32"><path d="M30 15H17V2h-2v13H2v2h13v13h2V17h13z" fill="currentColor"/><path d="M25.586 20 27 21.414 23.414 25 27 28.586 25.586 30l-5-5zM11 30H3a1 1 0 0 1-.894-1.447l4-8a1.04 1.04 0 0 1 1.789 0l4 8A1 1 0 0 1 11 30m-6.382-2h4.764L7 23.236zM28 12h-6a2 2 0 0 1-2-2V4a2 2 0 0 1 2-2h6a2 2 0 0 1 2 2v6a2 2 0 0 1-2 2m-6-8v6h6.001L28 4zM7 12a5 5 0 1 1 5-5 5.006 5.006 0 0 1-5 5m0-8a3 3 0 1 0 3 3 3.003 3.003 0 0 0-3-3" fill="currentColor"/></svg>