<svg xmlns="http://www.w3.org/2000/svg" xmlns:xlink="http://www.w3.org/1999/xlink" viewBox="0 0 32 32"><path d="M22 11h4a1 1 0 0 1 1 1v2h-6v-2a1 1 0 0 1 1-1" fill="currentColor"/><circle cx="24" cy="8" r="2" fill="currentColor"/><path d="M30 18H18a2 2 0 0 1-2-2V4a2 2 0 0 1 2-2h12a2 2 0 0 1 2 2v12a2.003 2.003 0 0 1-2 2M18 4v12h12.001L30 4zm-3 26h-2v-4a2.946 2.946 0 0 0-3-3H6a2.946 2.946 0 0 0-3 3v4H1v-4a4.95 4.95 0 0 1 5-5h4a4.95 4.95 0 0 1 5 5zM8 11a3 3 0 0 1 0 6 3 3 0 0 1 0-6m0-2a5 5 0 0 0 0 10A5 5 0 0 0 8 9" fill="currentColor"/></svg>