<svg xmlns="http://www.w3.org/2000/svg" xmlns:xlink="http://www.w3.org/1999/xlink" viewBox="0 0 32 32"><path d="m25 13-1.593 3-3.407.414 2.5 2.253L22 22l3-1.875L28 22l-.5-3.333 2.5-2.253L26.5 16z" fill="currentColor"/><path d="M21.414 13.414 25 9.834l3.587 3.582L30 12l-5-5-5 5z" fill="currentColor"/><path d="M21.414 8.414 25 4.834l3.587 3.582L30 7l-5-5-5 5zM16 30h-2v-5a3.003 3.003 0 0 0-3-3H7a3.003 3.003 0 0 0-3 3v5H2v-5a5.006 5.006 0 0 1 5-5h4a5.006 5.006 0 0 1 5 5zM9 10a3 3 0 1 1-3 3 3 3 0 0 1 3-3m0-2a5 5 0 1 0 5 5 5 5 0 0 0-5-5" fill="currentColor"/></svg>