<svg xmlns="http://www.w3.org/2000/svg" viewBox="0 0 32 32"><path fill="currentColor" d="M30.94 15.66a16.4 16.4 0 0 0-5.73-7.45L30 3.41 28.59 2 2 28.59 3.41 30l5.1-5.09A15.4 15.4 0 0 0 16 27a16.69 16.69 0 0 0 14.94-10.66 1 1 0 0 0 0-.68M16 22.5a6.46 6.46 0 0 1-3.83-1.26L14 19.43A4 4 0 0 0 19.43 14l1.81-1.81A6.49 6.49 0 0 1 16 22.5m-11.47-.69 5-5A7 7 0 0 1 9.5 16 6.51 6.51 0 0 1 16 9.5a7 7 0 0 1 .79.05l3.78-3.77A14.4 14.4 0 0 0 16 5 16.69 16.69 0 0 0 1.06 15.66a1 1 0 0 0 0 .68 15.9 15.9 0 0 0 3.47 5.47"/></svg>