<svg xmlns="http://www.w3.org/2000/svg" xmlns:xlink="http://www.w3.org/1999/xlink" viewBox="0 0 32 32"><path d="M20 13h-8a2 2 0 0 0-2 2v13a2 2 0 0 0 2 2h8a2 2 0 0 0 2-2V15a2 2 0 0 0-2-2m0 2v3h-8v-3zm0 5v3h-8v-3zm-8 8v-3h8v3z" fill="currentColor"/><path d="M25.91 10.13a.12.12 0 0 1-.097-.095 10.01 10.01 0 0 0-7.923-7.853 10 10 0 0 0-11.704 7.853.12.12 0 0 1-.097.095A7.502 7.502 0 0 0 7.491 25H8v-2h-.505a5.51 5.51 0 0 1-5.438-6.3 5.7 5.7 0 0 1 4.713-4.66l1.017-.184a.13.13 0 0 0 .105-.104l.18-.935a8.28 8.28 0 0 1 6.847-6.743 8 8 0 0 1 2.847.125 8.22 8.22 0 0 1 6.147 6.545l.194 1.008a.13.13 0 0 0 .105.104l1.057.191a5.8 5.8 0 0 1 3.101 1.54A5.505 5.505 0 0 1 24.508 23H24v2h.508a7.502 7.502 0 0 0 1.402-14.87" fill="currentColor"/></svg>