<svg xmlns="http://www.w3.org/2000/svg" xmlns:xlink="http://www.w3.org/1999/xlink" viewBox="0 0 32 32"><path d="M28.166 2a13.03 13.03 0 0 0-12.542 9.58l-1.177 4.315A11.024 11.024 0 0 1 3.835 24H2v2h1.834a13 13 0 0 0 3.47-.482 3.998 3.998 0 1 0 6.581-4.287 13 13 0 0 0 1.62-2.526 3.994 3.994 0 1 0 2.378-7.6 11 11 0 0 1 1.725-3.01 3.982 3.982 0 0 0 6.906-3.964A11 11 0 0 1 28.166 4H30V2zM11 26a2 2 0 0 1-1.812-1.165 13 13 0 0 0 3.297-2.143A1.977 1.977 0 0 1 11 26m8-11a1.993 1.993 0 0 1-2.759 1.847c.044-.143.096-.282.136-.426l.924-3.391A2 2 0 0 1 19 15m6-9a1.994 1.994 0 0 1-3.901.59 11 11 0 0 1 3.362-1.94A2 2 0 0 1 25 6M10 4v4.586L3.414 2 2 3.414 8.586 10H4v2h8V4z" fill="currentColor"/></svg>