<svg xmlns="http://www.w3.org/2000/svg" xmlns:xlink="http://www.w3.org/1999/xlink" viewBox="0 0 32 32"><path d="m6.95 20.95-1.415-1.414a5 5 0 0 0 0-7.072L6.95 11.05a7 7 0 0 1 0 9.9" fill="currentColor"/><path d="m10.485 24.485-1.414-1.414a10 10 0 0 0 0-14.142l1.414-1.414a12 12 0 0 1 0 16.97M25.05 20.95a7 7 0 0 1 0-9.9l1.415 1.415a5 5 0 0 0 0 7.071z" fill="currentColor"/><path d="M21.515 24.485a12 12 0 0 1 0-16.97l1.414 1.414a10 10 0 0 0 0 14.142zM3 15H2V4H0v24h2V17h1a1 1 0 0 0 0-2M30 4v11h-1a1 1 0 0 0 0 2h1v11h2V4z" fill="currentColor"/></svg>