<svg xmlns="http://www.w3.org/2000/svg" xmlns:xlink="http://www.w3.org/1999/xlink" viewBox="0 0 32 32"><circle cx="16" cy="25" r="2" fill="currentColor"/><path d="m10.47 19.233 1.414 1.413a5.97 5.97 0 0 1 8.223-.009l1.413-1.413a7.963 7.963 0 0 0-11.05.01z" fill="currentColor"/><path d="m6.229 14.993 1.414 1.413a11.955 11.955 0 0 1 16.704-.01l1.413-1.413a13.95 13.95 0 0 0-19.531.01" fill="currentColor"/><path d="M30 10.741a19.94 19.94 0 0 0-28 0v.023l1.404 1.404a17.934 17.934 0 0 1 25.181-.01L30 10.743z" fill="currentColor"/></svg>