<svg xmlns="http://www.w3.org/2000/svg" viewBox="0 0 32 32"><circle cx="16" cy="25" r="2" fill="currentColor"/><path fill="currentColor" d="M30 3.414 28.586 2 2 28.586 3.414 30l10.682-10.682a5.94 5.94 0 0 1 6.01 1.32l1.414-1.414a7.97 7.97 0 0 0-5.125-2.204l3.388-3.388a12 12 0 0 1 4.564 2.765l1.413-1.414a14 14 0 0 0-4.426-2.903l2.997-2.997a18 18 0 0 1 4.254 3.075L30 10.743v-.002a20 20 0 0 0-4.19-3.138zm-15.32 9.664 2.042-2.042C16.48 11.023 16.243 11 16 11a13.95 13.95 0 0 0-9.771 3.993l1.414 1.413a11.97 11.97 0 0 1 7.037-3.328M16 7a18 18 0 0 1 4.232.525l1.643-1.642A19.95 19.95 0 0 0 2 10.74v.023l1.404 1.404A17.92 17.92 0 0 1 16 7"/></svg>