<svg xmlns="http://www.w3.org/2000/svg" xmlns:xlink="http://www.w3.org/1999/xlink" viewBox="0 0 32 32"><path d="m25 2-1.414 1.414L26.172 6h-5.09a16.9 16.9 0 0 0-6.314 1.216l-4.279 1.711A14.9 14.9 0 0 1 4.92 10H2v2h2.918a16.9 16.9 0 0 0 6.314-1.216l4.279-1.711A14.9 14.9 0 0 1 21.08 8h5.09l-2.586 2.586L25 12l5-5z" fill="currentColor"/><path d="m21 11-1.414 1.414L22.172 15h-3.27a17 17 0 0 0-5.97 1.083l-2.566.962A15 15 0 0 1 5.099 18H2v2h3.099a17 17 0 0 0 5.969-1.083l2.566-.962A15 15 0 0 1 18.901 17h3.27l-2.585 2.586L21 21l5-5z" fill="currentColor"/><path d="m17 20-1.414 1.414L18.172 24h-1.575a17 17 0 0 0-5.377.872l-1.073.358a15 15 0 0 1-4.744.77H2v2h3.403a17 17 0 0 0 5.377-.872l1.073-.358a15 15 0 0 1 4.744-.77h1.575l-2.586 2.586L17 30l5-5z" fill="currentColor"/></svg>