<svg xmlns="http://www.w3.org/2000/svg" xmlns:xlink="http://www.w3.org/1999/xlink" viewBox="0 0 32 32"><path d="M15 6h2v2h-2zm9 9h2v2h-2zm-9 9h2v2h-2zm-9-9h2v2H6zm2.172-5.414 1.414-1.414L11 9.586 9.586 11zm12.828 0 1.414-1.414 1.414 1.414L22.414 11zm0 12.828L22.414 21l1.414 1.414-1.414 1.414zm-12.828 0L9.586 21 11 22.414l-1.414 1.414zM16 22a6 6 0 1 0-6-6 6 6 0 0 0 6 6m0-10v8a4 4 0 0 1 0-8" fill="currentColor"/><path d="M28 30H4a2 2 0 0 1-2-2V4a2 2 0 0 1 2-2h24a2 2 0 0 1 2 2v24a2 2 0 0 1-2 2M4 4v24h24V4z" fill="currentColor"/></svg>