<svg xmlns="http://www.w3.org/2000/svg" viewBox="0 0 32 32"><path fill="currentColor" d="M15 2h2v3h-2zm12 13h3v2h-3zM15 27h2v3h-2zM2 15h3v2H2zm3.457-8.123 1.416-1.416 2.123 2.123L7.58 9.001zM23 7.58l2.12-2.12 1.415 1.414-2.122 2.121zm.001 16.836L24.417 23l2.122 2.123-1.415 1.416zm-17.531.71L7.591 23 9 24.419 6.884 26.54zM15 13h2v2h-2zm4 0h2v2h-2zm-2-2h2v2h-2zm0 4h2v2h-2zm0 4h2v2h-2zm-2-2h2v2h-2zm4 0h2v2h-2z"/><path fill="currentColor" d="M16 7a9 9 0 1 0 9 9 9.01 9.01 0 0 0-9-9m-7 9a7.004 7.004 0 0 1 6-6.92V11h2V9.08a7 7 0 0 1 2 .605V11h1.89l.11.11V13h1.315a7 7 0 0 1 .605 2H21v2h1.92a7 7 0 0 1-.605 2H21v1.89l-.11.11H19v1.315a7 7 0 0 1-2 .605V21h-2v1.92A7.004 7.004 0 0 1 9 16"/></svg>