<svg xmlns="http://www.w3.org/2000/svg" xmlns:xlink="http://www.w3.org/1999/xlink" viewBox="0 0 32 32"><path d="M15 26h2v2h-2zm2 2h2v2h-2zm2 2h2v2h-2zm0-4h2v2h-2zm-4 4h2v2h-2zm-2-14h2v2h-2zm2 2h2v2h-2zm2 2h2v2h-2zm0-4h2v2h-2zm-4 4h2v2h-2zm-3 10a1 1 0 0 1-.894-1.447l2-4a1 1 0 1 1 1.788.894l-2 4A1 1 0 0 1 10 30" fill="currentColor"/><path d="M24.8 9.136a8.994 8.994 0 0 0-17.6 0A6.53 6.53 0 0 0 2 15.5V22l1 2 1-2v-1.82a6.5 6.5 0 0 0 3.43 1.725l-1.324 2.648a1 1 0 1 0 1.788.894l2-4a1 1 0 0 0-.446-1.341 1 1 0 0 0-.49-.09V20H8.5a4.497 4.497 0 0 1-.356-8.981l.816-.064.099-.812a6.994 6.994 0 0 1 13.883 0l.099.812.815.064A4.497 4.497 0 0 1 23.5 20h-.542v.008A.996.996 0 0 0 22 21v3l1 2 1-2v-2.025a6.5 6.5 0 0 0 2-.477V26l1 2 1-2v-5.82a6.488 6.488 0 0 0-3.2-11.044" fill="currentColor"/></svg>