<svg xmlns="http://www.w3.org/2000/svg" xmlns:xlink="http://www.w3.org/1999/xlink" viewBox="0 0 32 32"><path d="M27 18a1 1 0 0 1-.541-.16L22 14.97l-4.458 2.872a1 1 0 0 1-1.51-1.095l1.35-5.132L14.31 8.69a1 1 0 0 1 .551-1.715l4.375-.612 1.866-3.804A1 1 0 0 1 21.988 2a1.02 1.02 0 0 1 .899.538l1.993 3.825 4.262.613a1 1 0 0 1 .548 1.714l-3.072 2.924 1.35 5.132A1 1 0 0 1 27 18m-5-5.22a1 1 0 0 1 .541.159l2.837 1.827-.845-3.215a1 1 0 0 1 .277-.979l2.008-1.91-2.73-.393a1 1 0 0 1-.744-.527l-1.317-2.527-1.23 2.505a1 1 0 0 1-.758.55l-2.849.399 2 1.903a1 1 0 0 1 .278.979l-.846 3.215 2.837-1.827a1 1 0 0 1 .541-.16z" fill="currentColor"/><path d="M15.817 30A13.814 13.814 0 0 1 9.075 4.128a1 1 0 0 1 1.362 1.36A11.81 11.81 0 0 0 26.51 21.565a1 1 0 0 1 1.362 1.36A13.84 13.84 0 0 1 15.817 30M7.327 7.973a11.81 11.81 0 0 0 16.7 16.7 13.81 13.81 0 0 1-16.7-16.7" fill="currentColor"/></svg>