<svg xmlns="http://www.w3.org/2000/svg" xmlns:xlink="http://www.w3.org/1999/xlink" viewBox="0 0 640 512"><path d="M32 224h32v192H32a31.96 31.96 0 0 1-32-32V256a31.96 31.96 0 0 1 32-32m512-48v272a64.063 64.063 0 0 1-64 64H160a64.063 64.063 0 0 1-64-64V176a79.974 79.974 0 0 1 80-80h112V32a32 32 0 0 1 64 0v64h112a79.974 79.974 0 0 1 80 80m-280 80a40 40 0 1 0-40 40 39.997 39.997 0 0 0 40-40m-8 128h-64v32h64zm96 0h-64v32h64zm104-128a40 40 0 1 0-40 40 39.997 39.997 0 0 0 40-40m-8 128h-64v32h64zm192-128v128a31.96 31.96 0 0 1-32 32h-32V224h32a31.96 31.96 0 0 1 32 32" fill="currentColor"/></svg>